<?xml version="1.0" encoding="UTF-8" standalone="no"?>
<svg
   xmlns:dc="http://purl.org/dc/elements/1.1/"
   xmlns:cc="http://creativecommons.org/ns#"
   xmlns:rdf="http://www.w3.org/1999/02/22-rdf-syntax-ns#"
   xmlns:svg="http://www.w3.org/2000/svg"
   xmlns="http://www.w3.org/2000/svg"
   id="svg9618"
   version="1.1"
   viewBox="0 0 324.53171 289.59964"
   height="289.59964mm"
   width="324.53171mm">
  <defs
     id="defs9612" />
  <metadata
     id="metadata9615">
    <rdf:RDF>
      <cc:Work
         rdf:about="">
        <dc:format>image/svg+xml</dc:format>
        <dc:type
           rdf:resource="http://purl.org/dc/dcmitype/StillImage" />
        <dc:title></dc:title>
      </cc:Work>
    </rdf:RDF>
  </metadata>
  <g
     transform="translate(207.62299,-4.0335183)"
     id="layer1">
    <path
       style="fill:none;stroke:#000000;stroke-width:0.10000001;stroke-miterlimit:4;stroke-dasharray:none;stroke-opacity:1"
       d="m -147.57096,34.583519 h -16.99949 V 176.58364 h 16.99949 z m -5.00021,13.499938 v 2.999822 h -8.99997 v -2.999822 z m 0,22.00021 v 2.999822 h -8.99997 v -2.999822 z m 0,67.999983 v 2.99981 h -8.99997 v -2.99981 z m 0,21.9997 v 3.00032 h -8.99997 v -3.00032 z M -155.571,53.583378 a 1.5,1.5 0 0 1 -1.50015,1.500182 1.5,1.5 0 0 1 -1.50018,-1.500182 1.5,1.5 0 0 1 1.50018,-1.49964 1.5,1.5 0 0 1 1.50015,1.49964 z m 0,103.999872 a 1.5,1.5 0 0 1 -1.50015,1.50016 1.5,1.5 0 0 1 -1.50018,-1.50016 1.5,1.5 0 0 1 1.50018,-1.49966 1.5,1.5 0 0 1 1.50015,1.49966 z m -0.50022,-119.499691 a 1,1 0 0 1 -0.99993,0.99994 1,1 0 0 1 -0.99994,-0.99994 1,1 0 0 1 0.99994,-0.999939 1,1 0 0 1 0.99993,0.999939 z m 0,44.999831 a 1,1 0 0 1 -0.99993,0.99994 1,1 0 0 1 -0.99994,-0.99994 1,1 0 0 1 0.99994,-0.999942 1,1 0 0 1 0.99993,0.999942 z m 0,45.00036 a 1,1 0 0 1 -0.99993,0.99993 1,1 0 0 1 -0.99994,-0.99993 1,1 0 0 1 0.99994,-1.00045 1,1 0 0 1 0.99993,1.00045 z m 0,44.99983 a 1,1 0 0 1 -0.99993,0.99993 1,1 0 0 1 -0.99994,-0.99993 1,1 0 0 1 0.99994,-0.99994 1,1 0 0 1 0.99993,0.99994 z"
       id="path5028" />
    <path
       style="fill:none;stroke:#000000;stroke-width:0.1;stroke-miterlimit:4;stroke-dasharray:none;stroke-opacity:1"
       d="m -164.57045,54.583518 h -7.00008 v -16.00005 h -4.9997 v 16.00005 h -10.00042 v -7.000089 h -6.99957 v 7.000089 h -5.00021 v 18.99988 h 5.00021 v 7.000082 h 6.99957 v -7.000082 h 10.00042 v 16.00005 h 4.9997 v -16.00005 h 7.00008 z m -8.00002,2.500101 c 1e-4,0.828569 -0.6716,1.500259 -1.50017,1.50018 -0.82836,-1.8e-4 -1.49975,-0.67183 -1.49965,-1.50018 -9e-5,-0.82836 0.67129,-1.499981 1.49965,-1.500161 0.82856,-7.9e-5 1.50026,0.671611 1.50017,1.500161 z m -0.50023,-15.499821 c -4e-5,0.552231 -0.4477,0.999911 -0.99994,0.99994 -0.55224,-2.9e-5 -0.9999,-0.447709 -0.99995,-0.99994 -2.3e-4,-0.552428 0.44752,-1.000421 0.99995,-1.00045 0.55244,2.9e-5 1.00017,0.448022 0.99994,1.00045 z m 0,44.999831 c -4e-5,0.552231 -0.4477,0.999911 -0.99994,0.99994 -0.55224,-2.9e-5 -0.9999,-0.447709 -0.99995,-0.99994 5e-5,-0.552241 0.44771,-0.999921 0.99995,-0.99994 0.55224,1.9e-5 0.9999,0.447699 0.99994,0.99994 z m -15.99954,-36.500091 v 6.000142 h -2.00039 v -6.000142 z m 0,22.00021 v 5.999631 h -2.00039 v -5.999631 z m -1.75028,-8.000029 c 0,0.692499 -0.55755,1.250051 -1.25005,1.250051 h -1.74977 c -0.6925,0 -1.25005,-0.557552 -1.25005,-1.250051 0,-0.69252 0.55755,-1.25005 1.25005,-1.25005 h 1.74977 c 0.6925,0 1.25005,0.55753 1.25005,1.25005 z"
       id="path5030" />
    <path
       style="fill:none;stroke:#000000;stroke-width:0.1;stroke-miterlimit:4;stroke-dasharray:none;stroke-opacity:1"
       d="m -61.070668,111.8337 h -4.99988 v -3.00032 h -8.99997 v 3.00032 h -2.99993 v -5.00018 h -17.00022 v 13 h 34 z m -6.99976,0 v 2.99982 h -5.00021 v -2.99982 z m -15.00012,0 v 2.99982 h -2.5001 v 1.50016 h -1.99988 v -1.50016 h -2.50011 v -2.99982 h 2.50011 v -1.50016 h 1.99988 v 1.50016 z"
       id="path5032" />
    <path
       id="path5034"
       d="m 67.179352,127.33334 h -4.99989 v 3.00032 h -8.99998 v -3.00032 h -2.99992 v 5.00018 h -17.00023 v -13 h 34.00002 z m -6.99977,0 v -2.99982 h -5.00021 v 2.99982 z m -15.00012,0 v -2.99982 h -2.50011 v -1.50016 h -1.99987 v 1.50016 h -2.50011 v 2.99982 h 2.50011 v 1.50016 h 1.99987 v -1.50016 z"
       style="fill:none;stroke:#000000;stroke-width:0.1;stroke-miterlimit:4;stroke-dasharray:none;stroke-opacity:1" />
    <path
       id="path5036"
       d="m -199.57024,98.58364 h 7.0001 V 82.583589 h 4.9997 V 98.58364 h 10.00041 v -7.000092 h 6.99957 v 7.000092 h 5.00022 v 18.99988 h -5.00022 v 7.00008 h -6.99957 v -7.00008 h -10.00041 v 16.00005 h -4.9997 v -16.00005 h -7.0001 z m 8.00004,2.5001 c -1e-4,0.82857 0.6716,1.50026 1.50017,1.50018 0.82836,-1.8e-4 1.49975,-0.67183 1.49965,-1.50018 9e-5,-0.82836 -0.6713,-1.499981 -1.49965,-1.500161 -0.82856,-9e-5 -1.50026,0.671611 -1.50017,1.500161 z m 0.50023,-15.49982 c 3e-5,0.55223 0.4477,0.99991 0.99994,0.999939 0.55224,-2.9e-5 0.9999,-0.447709 0.99994,-0.999939 2.4e-4,-0.552432 -0.44751,-1.000422 -0.99994,-1.000451 -0.55244,2.9e-5 -1.00018,0.448019 -0.99994,1.000451 z m 0,44.99983 c 3e-5,0.55223 0.4477,0.99991 0.99994,0.99994 0.55224,-3e-5 0.9999,-0.44771 0.99994,-0.99994 -4e-5,-0.55224 -0.4477,-0.99992 -0.99994,-0.99994 -0.55224,1e-5 -0.99991,0.4477 -0.99994,0.99994 z m 15.99954,-36.500091 v 6.000141 h 2.00039 v -6.000141 z m 0,22.000211 v 5.99963 h 2.00039 v -5.99963 z m 1.75027,-8.00003 c 0,0.6925 0.55756,1.25005 1.25006,1.25005 h 1.74977 c 0.6925,0 1.25004,-0.55755 1.25004,-1.25005 0,-0.69252 -0.55754,-1.25005 -1.25004,-1.25005 h -1.74977 c -0.6925,0 -1.25006,0.55753 -1.25006,1.25005 z"
       style="fill:none;stroke:#000000;stroke-width:0.1;stroke-miterlimit:4;stroke-dasharray:none;stroke-opacity:1" />
    <path
       id="path5038"
       d="m 67.179352,12.083338 h -4.99989 v 3.00032 h -8.99998 v -3.00032 h -2.99992 v 5.00018 H 33.179332 V 4.0835183 h 34.00002 z m -6.99977,0 V 9.0835183 h -5.00021 v 2.9998197 z m -15.00012,0 V 9.0835183 h -2.50011 v -1.50016 h -1.99987 v 1.50016 h -2.50011 v 2.9998197 h 2.50011 v 1.50016 h 1.99987 v -1.50016 z"
       style="fill:none;stroke:#000000;stroke-width:0.1;stroke-miterlimit:4;stroke-dasharray:none;stroke-opacity:1" />
    <path
       style="fill:none;stroke:#000000;stroke-width:0.1;stroke-miterlimit:4;stroke-dasharray:none;stroke-opacity:1"
       d="m -61.070668,227.0837 h -4.99988 v -3.00032 h -8.99997 v 3.00032 h -2.99993 v -5.00018 h -17.00022 v 13 h 34 z m -6.99976,0 v 2.99982 h -5.00021 v -2.99982 z m -15.00012,0 v 2.99982 h -2.5001 v 1.50016 h -1.99988 v -1.50016 h -2.50011 v -2.99982 h 2.50011 v -1.50016 h 1.99988 v 1.50016 z"
       id="path5040" />
    <path
       id="path5042"
       d="m -185.44611,33.583079 v -2.999801 h -3.99974 c -1.65689,1.69e-4 -3.00024,-1.3429 -3.00036,-2.99979 -1.7e-4,-1.65716 1.34321,-3.00054 3.00036,-3.00037 h 3.99974 v -2.99982 l -6.06223,-8e-5 v -9.60033 -5.3996697 h 10 l 0.0625,26.9998607 z m -3.99974,-4.999651 c 0.55223,-3e-5 0.99992,-0.44772 0.99995,-0.99994 -3e-5,-0.55226 -0.44772,-0.99992 -0.99995,-0.99995 -0.55245,0 -1.00044,0.4475 -1.00047,0.99995 3e-5,0.55245 0.44802,1.00016 1.00047,0.99994 z m 4.99968,0 c 0.55223,-3e-5 0.99992,-0.44772 0.99995,-0.99994 -3e-5,-0.55226 -0.44772,-0.99992 -0.99995,-0.99995 -0.55225,3e-5 -0.99982,0.44769 -0.99994,0.99995 6e-5,0.55222 0.44769,0.99991 0.99994,0.99994 z m -4.06234,-13.00026 h 3.0003 V 9.5835183 h -3.0003 z"
       style="fill:none;stroke:#000000;stroke-width:0.10000001;stroke-linecap:butt;stroke-linejoin:miter;stroke-miterlimit:4;stroke-dasharray:none;stroke-opacity:1" />
    <path
       style="fill:none;stroke:#000000;stroke-width:0.10000001;stroke-linecap:butt;stroke-linejoin:miter;stroke-miterlimit:4;stroke-dasharray:none;stroke-opacity:1"
       d="m -173.50835,33.583079 v -2.999801 h -3.99973 c -1.6569,1.69e-4 -3.00024,-1.3429 -3.00037,-2.99979 -1.6e-4,-1.65716 1.34322,-3.00054 3.00037,-3.00037 h 3.99973 v -2.99982 l -6.06222,-8e-5 v -9.60033 -5.3996697 h 9.99999 l 0.0625,26.9998607 z m -3.99973,-4.999651 c 0.55222,-3e-5 0.99992,-0.44772 0.99994,-0.99994 -2e-5,-0.55226 -0.44772,-0.99992 -0.99994,-0.99995 -0.55245,0 -1.00044,0.4475 -1.00048,0.99995 4e-5,0.55245 0.44803,1.00016 1.00048,0.99994 z m 4.99967,0 c 0.55223,-3e-5 0.99993,-0.44772 0.99995,-0.99994 -2e-5,-0.55226 -0.44772,-0.99992 -0.99995,-0.99995 -0.55224,3e-5 -0.99981,0.44769 -0.99994,0.99995 7e-5,0.55222 0.4477,0.99991 0.99994,0.99994 z m -4.06233,-13.00026 h 3.00029 V 9.5835183 h -3.00029 z"
       id="path5044" />
    <path
       id="path5046"
       d="m -159.50834,33.583079 v -2.999801 h -3.99974 c -1.65689,1.69e-4 -3.00025,-1.3429 -3.00036,-2.99979 -1.7e-4,-1.65716 1.34321,-3.00054 3.00036,-3.00037 h 3.99974 v -2.99982 l -6.06224,-8e-5 v -9.60033 -5.3996697 h 10.00001 l 0.0625,26.9998607 z m -3.99974,-4.999651 c 0.55223,-3e-5 0.99992,-0.44772 0.99995,-0.99994 -3e-5,-0.55226 -0.44772,-0.99992 -0.99995,-0.99995 -0.55245,0 -1.00044,0.4475 -1.00047,0.99995 3e-5,0.55245 0.44802,1.00016 1.00047,0.99994 z m 4.99968,0 c 0.55223,-3e-5 0.99992,-0.44772 0.99995,-0.99994 -3e-5,-0.55226 -0.44772,-0.99992 -0.99995,-0.99995 -0.55225,3e-5 -0.99983,0.44769 -0.99994,0.99995 6e-5,0.55222 0.44769,0.99991 0.99994,0.99994 z m -4.06235,-13.00026 h 3.00031 V 9.5835183 h -3.00031 z"
       style="fill:none;stroke:#000000;stroke-width:0.10000001;stroke-linecap:butt;stroke-linejoin:miter;stroke-miterlimit:4;stroke-dasharray:none;stroke-opacity:1" />
    <path
       style="fill:none;stroke:#000000;stroke-width:0.10000001;stroke-linecap:butt;stroke-linejoin:miter;stroke-miterlimit:4;stroke-dasharray:none;stroke-opacity:1"
       d="m -147.50834,33.583079 v -2.999801 h -3.99975 c -1.65688,1.69e-4 -3.00024,-1.3429 -3.00035,-2.99979 -1.7e-4,-1.65716 1.34321,-3.00054 3.00035,-3.00037 h 3.99975 v -2.99982 l -6.06223,-8e-5 v -9.60033 -5.3996697 h 10 l 0.0625,26.9998607 z m -3.99975,-4.999651 c 0.55224,-3e-5 0.99993,-0.44772 0.99996,-0.99994 -3e-5,-0.55226 -0.44772,-0.99992 -0.99996,-0.99995 -0.55245,0 -1.00043,0.4475 -1.00046,0.99995 3e-5,0.55245 0.44801,1.00016 1.00046,0.99994 z m 4.99969,0 c 0.55223,-3e-5 0.99992,-0.44772 0.99995,-0.99994 -3e-5,-0.55226 -0.44772,-0.99992 -0.99995,-0.99995 -0.55225,3e-5 -0.99983,0.44769 -0.99994,0.99995 6e-5,0.55222 0.44769,0.99991 0.99994,0.99994 z m -4.06234,-13.00026 h 3.0003 V 9.5835183 h -3.0003 z"
       id="path5048" />
    <path
       id="path3764"
       d="m -20.070688,52.583578 c -2.21597,0 -3.99977,1.784271 -3.99977,4.00028 0,2.215992 1.7838,3.99976 3.99977,3.99976 h 8.00005 c 2.2160201,0 4.0002501,-1.783768 4.0002501,-3.99976 0,-2.216009 -1.78423,-4.00028 -4.0002501,-4.00028 z m 0.50025,0.99994 a 3.0000001,3.0000001 0 0 1 2.99978,3.00034 3.0000001,3.0000001 0 0 1 -2.99978,2.99982 3.0000001,3.0000001 0 0 1 -3.00036,-2.99982 3.0000001,3.0000001 0 0 1 3.00036,-3.00034 z"
       style="fill:none;stroke:#000000;stroke-width:0.10000001;stroke-miterlimit:4;stroke-dasharray:none;stroke-opacity:1" />
    <path
       id="path3771"
       d="m -195.07081,214.08348 c -1.93281,2.7e-4 -3.49957,1.56722 -3.49955,3.50004 v 0.99994 h -4.49998 v 22.99964 h -0.99994 c -1.93283,-3e-5 -3.49978,1.56668 -3.50004,3.49951 0,0.9665 -0.006,6.80403 -2e-5,10.00091 0.004,1.97625 1.49999,3.49962 3.50019,3.49956 h 0.99981 v 27.00044 h 18.9999 v -27.00044 h 0.99941 c 2.00056,0 3.50075,-1.51304 3.5007,-3.49956 0,-0.89578 -5.3e-4,-9.03441 -5.3e-4,-10.00091 -2.4e-4,-1.93283 -1.56729,-3.49954 -3.50004,-3.49951 h -0.99953 v -22.99964 h -7.50033 v -0.99994 c 0,-1.93301 -1.567,-3.50007 -3.50004,-3.50004 z m 0,2.49959 c 0.55263,-2.6e-4 1.00071,0.44781 1.00047,1.00045 -6e-5,0.55245 -0.44802,1.00021 -1.00047,0.99994 -0.55224,-3e-5 -0.99992,-0.44769 -0.99994,-0.99994 -2.4e-4,-0.55242 0.44751,-1.00042 0.99994,-1.00045 z m 1.50016,11.62513 2.05674,1.18753 v 2.37503 l -2.05674,1.18753 -2.05671,-1.18753 v -2.37503 z m -10.50013,15.87447 c 0.55224,6e-5 0.99991,0.4477 0.99994,0.99994 -6e-5,0.55224 -0.44773,0.99992 -0.99994,0.99994 -0.55224,-2e-5 -0.99992,-0.4477 -0.99994,-0.99994 2e-5,-0.55224 0.4477,-0.99988 0.99994,-0.99994 z m 21.00028,0 c 0.55224,6e-5 0.99991,0.4477 0.99994,0.99994 -6e-5,0.55224 -0.44773,0.99992 -0.99994,0.99994 -0.55224,-2e-5 -0.99992,-0.4477 -0.99994,-0.99994 2e-5,-0.55224 0.4477,-0.99988 0.99994,-0.99994 z m -23.00016,4.50051 h 3.00032 v 2.99982 h -3.00032 z m 22.00022,0 h 2.99982 v 2.99982 h -2.99982 z m -19.99984,5.49992 c 0.55224,3e-5 0.99991,0.4477 0.99994,0.99994 -3e-5,0.55224 -0.4477,0.99991 -0.99994,0.99994 -0.55243,2.4e-4 -1.00041,-0.44751 -1.00044,-0.99994 3e-5,-0.55243 0.44801,-1.00018 1.00044,-0.99994 z m 20.99978,0 c 0.55224,3e-5 0.99991,0.4477 0.99994,0.99994 -3e-5,0.55224 -0.4477,0.99991 -0.99994,0.99994 -0.55224,-3e-5 -0.99991,-0.4477 -0.99994,-0.99994 3e-5,-0.55224 0.4477,-0.99991 0.99994,-0.99994 z m -10.50015,7.12515 2.05674,1.18753 v 2.37503 l -2.05674,1.18753 -2.05671,-1.18753 v -2.37503 z m -6.00015,19.87476 c 0.55263,-2.6e-4 1.0007,0.44781 1.00044,1.00045 -2e-5,0.55245 -0.44798,1.00023 -1.00044,0.99994 -0.55224,-3e-5 -0.99988,-0.4477 -0.99994,-0.99994 -2.6e-4,-0.55243 0.44749,-1.00042 0.99994,-1.00045 z m 12.00032,0 c 0.55242,3e-5 1.00018,0.44802 0.99994,1.00045 -6e-5,0.55224 -0.44773,0.99991 -0.99994,0.99994 -0.55224,-3e-5 -0.99989,-0.4477 -0.99994,-0.99994 -2.7e-4,-0.55243 0.44749,-1.00042 0.99994,-1.00045 z"
       style="fill:none;stroke:#000000;stroke-width:0.10000001;stroke-miterlimit:4;stroke-dasharray:none;stroke-opacity:1" />
    <path
       style="fill:none;stroke:#000000;stroke-width:0.10000001;stroke-miterlimit:4;stroke-dasharray:none;stroke-opacity:1"
       d="m -20.070688,60.583578 c -2.21597,0 -3.99977,1.784271 -3.99977,4.00028 0,2.215992 1.7838,3.999759 3.99977,3.999759 h 8.00005 c 2.2160201,0 4.0002501,-1.783767 4.0002501,-3.999759 0,-2.216009 -1.78423,-4.00028 -4.0002501,-4.00028 z m 0.50025,0.99994 a 3.0000001,3.0000001 0 0 1 2.99978,3.00034 3.0000001,3.0000001 0 0 1 -2.99978,2.99982 3.0000001,3.0000001 0 0 1 -3.00036,-2.99982 3.0000001,3.0000001 0 0 1 3.00036,-3.00034 z"
       id="path6726" />
    <path
       style="fill:none;stroke:#000000;stroke-width:0.10000001;stroke-miterlimit:4;stroke-dasharray:none;stroke-opacity:1"
       d="m -187.07046,138.58399 c -1.93281,2.6e-4 -3.49957,1.56722 -3.49954,3.50004 v 0.99994 h -4.49998 v 22.99964 h -0.99994 c -1.93284,-3e-5 -3.49979,1.56668 -3.50004,3.49951 0,0.9665 -0.006,6.80403 -3e-5,10.00091 0.004,1.97625 1.5,3.49962 3.5002,3.49956 h 0.99981 v 27.00044 h 18.99989 v -27.00044 h 0.99941 c 2.00057,0 3.50076,-1.51304 3.5007,-3.49956 0,-0.89578 -5.3e-4,-9.03441 -5.3e-4,-10.00091 -2.4e-4,-1.93283 -1.56729,-3.49954 -3.50004,-3.49951 h -0.99941 v -22.99964 h -7.50045 v -0.99994 c 0,-1.93301 -1.567,-3.50007 -3.50004,-3.50004 z m 0,2.49959 c 0.55263,-2.6e-4 1.00071,0.44781 1.00047,1.00045 -6e-5,0.55245 -0.44802,1.00021 -1.00047,0.99994 -0.55224,-3e-5 -0.99992,-0.44769 -0.99994,-0.99994 -2.4e-4,-0.55242 0.44751,-1.00042 0.99994,-1.00045 z m 1.50016,11.62513 2.05674,1.18753 v 2.37503 l -2.05674,1.18753 -2.05671,-1.18753 v -2.37503 z m -10.50012,15.87447 c 0.55224,6e-5 0.99991,0.4477 0.99994,0.99994 -6e-5,0.55224 -0.44773,0.99992 -0.99994,0.99994 -0.55224,-2e-5 -0.99992,-0.4477 -0.99994,-0.99994 2e-5,-0.55224 0.4477,-0.99988 0.99994,-0.99994 z m 21.00027,0 c 0.55224,6e-5 0.99991,0.4477 0.99994,0.99994 -7e-5,0.55224 -0.44774,0.99992 -0.99994,0.99994 -0.55225,-2e-5 -0.99993,-0.4477 -0.99994,-0.99994 1e-5,-0.55224 0.44769,-0.99988 0.99994,-0.99994 z m -23.00016,4.50051 h 3.00033 v 2.99982 h -3.00033 z m 22.00022,0 h 2.99982 v 2.99982 h -2.99982 z m -19.99983,5.49992 c 0.55224,3e-5 0.99991,0.4477 0.99994,0.99994 -3e-5,0.55224 -0.4477,0.99991 -0.99994,0.99994 -0.55243,2.4e-4 -1.00041,-0.44751 -1.00044,-0.99994 3e-5,-0.55243 0.44801,-1.00018 1.00044,-0.99994 z m 20.99977,0 c 0.55224,3e-5 0.99991,0.4477 0.99994,0.99994 -3e-5,0.55224 -0.4477,0.99991 -0.99994,0.99994 -0.55225,-3e-5 -0.99992,-0.4477 -0.99994,-0.99994 2e-5,-0.55224 0.44769,-0.99991 0.99994,-0.99994 z m -10.50015,7.12515 2.05674,1.18753 v 2.37503 l -2.05674,1.18753 -2.05671,-1.18753 v -2.37503 z m -6.00014,19.87476 c 0.55263,-2.6e-4 1.0007,0.44781 1.00044,1.00044 -3e-5,0.55245 -0.44799,1.00023 -1.00044,0.99994 -0.55224,-2e-5 -0.99989,-0.4477 -0.99994,-0.99994 -2.7e-4,-0.55242 0.44749,-1.00041 0.99994,-1.00044 z m 12.00031,0 c 0.55242,3e-5 1.00018,0.44802 0.99994,1.00044 -6e-5,0.55224 -0.44774,0.99992 -0.99994,0.99994 -0.55225,-2e-5 -0.99989,-0.4477 -0.99994,-0.99994 -2.7e-4,-0.55242 0.44749,-1.00041 0.99994,-1.00044 z"
       id="path6759" />
    <path
       style="fill:none;stroke:#000000;stroke-width:0.1;stroke-miterlimit:4;stroke-dasharray:none;stroke-opacity:1"
       d="m -47.570308,5.5834983 a 30.000001,30.000001 0 0 0 -30.00023,30.0002297 30.000001,30.000001 0 0 0 30.00023,29.999721 30.000001,30.000001 0 0 0 29.99973,-29.999721 30.000001,30.000001 0 0 0 -29.99973,-30.0002297 z m 0,5.2498097 a 1,1 0 0 1 0.99994,0.99994 1,1 0 0 1 -0.99994,1.00045 1,1 0 0 1 -0.99993,-1.00045 1,1 0 0 1 0.99993,-0.99994 z m -6.00013,19.750211 h 12.0003 v 3.00034 h -12.0003 z m -17.74984,3.999759 a 1,1 0 0 1 0.99995,0.99994 1,1 0 0 1 -0.99995,1.00045 1,1 0 0 1 -0.99994,-1.00045 1,1 0 0 1 0.99994,-0.99994 z m 47.49996,0 a 1,1 0 0 1 0.99994,0.99994 1,1 0 0 1 -0.99994,1.00045 1,1 0 0 1 -0.99994,-1.00045 1,1 0 0 1 0.99994,-0.99994 z m -33.74989,5.29e-4 a 1,1 0 0 1 0.99994,0.999943 1,1 0 0 1 -0.99994,0.999939 1,1 0 0 1 -0.99994,-0.999939 1,1 0 0 1 0.99994,-0.999943 z m 10.00043,0 a 1,1 0 0 1 0.99995,0.999943 1,1 0 0 1 -0.99995,0.999939 1,1 0 0 1 -1.00046,-0.999939 1,1 0 0 1 1.00046,-0.999943 z m 9.9999,0 a 1,1 0 0 1 0.99994,0.999943 1,1 0 0 1 -0.99994,0.999939 1,1 0 0 1 -0.99994,-0.999939 1,1 0 0 1 0.99994,-0.999943 z m -16.00056,2.999822 h 12.0003 v 2.999809 h -12.0003 z m 6.00013,20.749631 a 1,1 0 0 1 0.99994,1.000458 1,1 0 0 1 -0.99994,0.99994 1,1 0 0 1 -0.99993,-0.99994 1,1 0 0 1 0.99993,-1.000458 z"
       id="path6729" />
    <path
       style="fill:none;stroke:#000000;stroke-width:0.1;stroke-miterlimit:4;stroke-dasharray:none;stroke-opacity:1"
       d="m -37.571098,94.58346 v 2.999819 h 3.99976 v 3.000331 h -4.00285 v 0.99994 a 1,1 0 0 1 0.003,0 1,1 0 0 1 0.99994,0.99994 1,1 0 0 1 -0.99994,0.99994 v 0.99994 h 4.00029 v 2.99981 h -3.99976 v 3.00034 h 6.99905 v -4.49999 h 4.00029 c 1.38498,1e-5 2.49957,-1.1151 2.49957,-2.5001 v -1.99988 c 0,-1.385 -1.11459,-2.500091 -2.49957,-2.500102 h -4.00029 V 94.58346 Z m 9.99939,7.00009 c 0.55245,-2.5e-4 1.00043,0.4475 1.00048,0.99994 -5e-5,0.55243 -0.44804,1.00019 -1.00048,0.99994 -0.55223,-3e-5 -0.99987,-0.44771 -0.99994,-0.99994 3e-5,-0.55224 0.44771,-0.99991 0.99994,-0.99994 z"
       id="path6731" />
    <path
       style="fill:none;stroke:#000000;stroke-width:0.1;stroke-miterlimit:4;stroke-dasharray:none;stroke-opacity:1"
       d="m -44.570218,94.58346 v 4.499988 h -4.00029 c -1.38501,2.1e-5 -2.4996,1.115092 -2.4996,2.500102 v 1.99988 c 0,1.385 1.11459,2.50011 2.4996,2.5001 h 4.00029 v 4.49999 h 6.99956 v -2.99982 h -3.99977 v -3.00033 h 4.00029 v -0.99994 a 1,1 0 0 1 -0.99891,-0.99994 1,1 0 0 1 0.99789,-0.99994 v -0.99994 h -3.99719 V 97.5838 h 3.99975 v -3.00034 z m -2.99982,7.00009 c 0.55222,3e-5 0.99989,0.44771 0.99994,0.99994 -5e-5,0.55224 -0.4477,0.99991 -0.99994,0.99994 -0.55245,2.5e-4 -1.00044,-0.4475 -1.00047,-0.99994 6e-5,-0.55243 0.44802,-1.00019 1.00047,-0.99994 z"
       id="path6733" />
    <path
       style="fill:none;stroke:#000000;stroke-width:0.1;stroke-miterlimit:4;stroke-dasharray:none;stroke-opacity:1"
       d="m -115.07062,85.626308 v 2.99982 h -2.5001 V 92.6264 h 2.5001 v 2.999809 h 7.00007 V 92.6264 h 2.5001 v -4.000272 h -2.5001 v -2.99982 z m 3.50004,4.00027 a 1,1 0 0 1 0.99994,0.99994 1,1 0 0 1 -0.99994,0.99994 1,1 0 0 1 -0.99994,-0.99994 1,1 0 0 1 0.99994,-0.99994 z"
       id="path6735" />
    <path
       style="fill:none;stroke:#000000;stroke-width:0.1;stroke-miterlimit:4;stroke-dasharray:none;stroke-opacity:1"
       d="m -129.24976,85.58393 v 2.999819 h -2.49958 v 4.00027 h 2.49958 v 2.99982 h 7.00011 v -2.99982 h 2.5001 v -4.00027 h -2.5001 V 85.58393 Z m 2.32079,2.957449 h 2.35853 l 1.17924,2.04225 -1.17924,2.042771 h -2.35853 l -1.17924,-2.042771 z"
       id="path6737" />
    <path
       id="path6739"
       d="m -129.24973,96.583749 v 2.99982 h -2.50011 v 4.000271 h 2.50011 v 2.99981 h 7.00008 v -2.99981 h 2.5001 v -4.000271 h -2.5001 v -2.99982 z m 3.50004,4.000271 a 1,1 0 0 1 0.99994,0.99994 1,1 0 0 1 -0.99994,0.99994 1,1 0 0 1 -0.99994,-0.99994 1,1 0 0 1 0.99994,-0.99994 z"
       style="fill:none;stroke:#000000;stroke-width:0.1;stroke-miterlimit:4;stroke-dasharray:none;stroke-opacity:1" />
    <path
       style="fill:none;stroke:#000000;stroke-width:0.1;stroke-miterlimit:4;stroke-dasharray:none;stroke-opacity:1"
       d="m -116.24973,96.583749 v 2.99982 h -2.5001 v 4.000271 h 2.5001 v 2.99981 h 7.00008 v -2.99981 h 2.50009 v -4.000271 h -2.50009 v -2.99982 z m 3.50004,4.000271 a 1,1 0 0 1 0.99994,0.99994 1,1 0 0 1 -0.99994,0.99994 1,1 0 0 1 -0.99994,-0.99994 1,1 0 0 1 0.99994,-0.99994 z"
       id="path6741" />
    <path
       id="path6743"
       d="m -37.570818,73.583409 a 10,10 0 0 0 -9.93997,9.00307 1,1 0 0 1 0.94001,0.996839 1,1 0 0 1 -0.94982,0.99787 10,10 0 0 0 9.94978,9.00203 10,10 0 0 0 9.93996,-9.002548 1,1 0 0 1 -0.93999,-0.997352 1,1 0 0 1 0.95033,-0.997879 10,10 0 0 0 -9.9503,-9.00203 z m -5.99963,5.00021 h 11.99978 v 2.999819 h -4.11757 a 2.7500001,2.7500001 0 0 1 0.86764,1.99988 2.7500001,2.7500001 0 0 1 -0.86506,1.999871 h 4.11499 v 3.00033 h -11.99978 v -3.00033 h 4.11704 a 2.7500001,2.7500001 0 0 1 -0.86764,-1.999871 2.7500001,2.7500001 0 0 1 0.86508,-1.99988 h -4.11448 z"
       style="fill:none;stroke:#000000;stroke-width:0.1;stroke-miterlimit:4;stroke-dasharray:none;stroke-opacity:1" />
    <path
       style="fill:none;stroke:#000000;stroke-width:0.1;stroke-miterlimit:4;stroke-dasharray:none;stroke-opacity:1"
       d="m -108.57029,5.5834883 c -16.56874,-1.2e-4 -30.00037,13.4315097 -30.00023,30.0002397 1.5e-4,16.568521 13.4317,29.999851 30.00023,29.999721 16.568302,-1.51e-4 29.999562,-13.431401 29.999722,-29.999721 1.3e-4,-16.56853 -13.43121,-30.0000897 -29.999722,-30.0002397 z m 0,5.2498097 a 1,1 0 0 1 0.99993,0.99994 1,1 0 0 1 -0.99993,0.99994 1,1 0 0 1 -1.00045,-0.99994 1,1 0 0 1 1.00045,-0.99994 z m -6.00015,19.750221 h 12.0003 v 3.00033 h -12.0003 z m -4.00026,2.641179 2.04277,1.179251 v 2.358519 l -2.04277,1.179251 -2.04226,-1.179251 v -2.358519 z m 20.000322,0 2.04224,1.179251 v 2.358519 l -2.04224,1.179251 -2.042772,-1.179251 v -2.358519 z m -33.749872,1.358569 a 1,1 0 0 1 0.99994,0.99994 1,1 0 0 1 -0.99994,0.99994 1,1 0 0 1 -1.00047,-0.99994 1,1 0 0 1 1.00047,-0.99994 z m 47.499932,0 a 1,1 0 0 1 0.99994,0.99994 1,1 0 0 1 -0.99994,0.99994 1,1 0 0 1 -0.99994,-0.99994 1,1 0 0 1 0.99994,-0.99994 z m -23.749442,5.3e-4 c 0.55223,2.9e-5 0.9999,0.447698 0.99993,0.999939 -3e-5,0.552239 -0.4477,0.999901 -0.99993,0.99994 -0.55245,2.59e-4 -1.00045,-0.4475 -1.00047,-0.99994 2e-5,-0.55245 0.44802,-1.000201 1.00047,-0.999939 z m -6.00068,2.999819 h 12.0003 v 2.999809 h -12.0003 z m 6.00015,20.74963 a 1,1 0 0 1 0.99993,0.99994 1,1 0 0 1 -0.99993,0.99994 1,1 0 0 1 -1.00045,-0.99994 1,1 0 0 1 1.00045,-0.99994 z"
       id="path6745" />
    <path
       style="fill:none;stroke:#000000;stroke-width:0.1;stroke-miterlimit:4;stroke-dasharray:none;stroke-opacity:1"
       d="m -118.24972,65.083728 c -14.63569,-9.8e-5 -26.50029,11.86449 -26.5002,26.50019 -7e-5,14.635692 11.86454,26.500292 26.5002,26.500192 14.63568,1e-4 26.500292,-11.8645 26.500182,-26.500192 1.3e-4,-14.6357 -11.864472,-26.500288 -26.500182,-26.50019 z m 0,1.750282 a 1,1 0 0 1 0.99994,0.99994 1,1 0 0 1 -0.99994,0.99994 1,1 0 0 1 -0.99994,-0.99994 1,1 0 0 1 0.99994,-0.99994 z m 0,3.749638 a 21,21 0 0 1 21.000262,21.00027 21,21 0 0 1 -21.000262,20.999752 21,21 0 0 1 -20.99974,-20.999752 21,21 0 0 1 20.99974,-21.00027 z m -23.74995,20.00033 a 1,1 0 0 1 0.99994,0.99994 1,1 0 0 1 -0.99994,0.99994 1,1 0 0 1 -0.99994,-0.99994 1,1 0 0 1 0.99994,-0.99994 z m 47.499922,0 a 1,1 0 0 1 0.99994,0.99994 1,1 0 0 1 -0.99994,0.99994 1,1 0 0 1 -0.99994,-0.99994 1,1 0 0 1 0.99994,-0.99994 z m -23.749972,23.749972 a 1,1 0 0 1 0.99994,0.99994 1,1 0 0 1 -0.99994,0.99994 1,1 0 0 1 -0.99994,-0.99994 1,1 0 0 1 0.99994,-0.99994 z"
       id="path6747" />
    <path
       id="path6749"
       d="m -38.570648,65.333299 c -14.6357,-1.01e-4 -26.5003,11.86449 -26.5002,26.50019 -7e-5,14.635691 11.86454,26.500291 26.5002,26.500191 14.63568,1e-4 26.50029,-11.8645 26.50019,-26.500191 1.3e-4,-14.6357 -11.86448,-26.500291 -26.50019,-26.50019 z m 0,1.750279 a 1,1 0 0 1 0.99994,0.99994 1,1 0 0 1 -0.99994,0.99994 1,1 0 0 1 -0.99994,-0.99994 1,1 0 0 1 0.99994,-0.99994 z m 0,3.749641 a 21,21 0 0 1 21.00027,21.00027 21,21 0 0 1 -21.00027,20.999751 21,21 0 0 1 -20.99975,-20.999751 21,21 0 0 1 20.99975,-21.00027 z m -23.74995,20.00033 a 1,1 0 0 1 0.99994,0.99994 1,1 0 0 1 -0.99994,0.99994 1,1 0 0 1 -0.99995,-0.99994 1,1 0 0 1 0.99995,-0.99994 z m 47.49992,0 a 1,1 0 0 1 0.99994,0.99994 1,1 0 0 1 -0.99994,0.99994 1,1 0 0 1 -0.99994,-0.99994 1,1 0 0 1 0.99994,-0.99994 z m -23.74997,23.749971 a 1,1 0 0 1 0.99994,0.99994 1,1 0 0 1 -0.99994,0.99994 1,1 0 0 1 -0.99994,-0.99994 1,1 0 0 1 0.99994,-0.99994 z"
       style="fill:none;stroke:#000000;stroke-width:0.1;stroke-miterlimit:4;stroke-dasharray:none;stroke-opacity:1" />
    <path
       id="path6751"
       d="m -129.24973,78.583648 a 3.0000001,3.0000001 0 0 0 -2.99982,2.999811 3.0000001,3.0000001 0 0 0 2.99982,2.99982 3.0000001,3.0000001 0 0 0 2.23191,-0.99994 h 15.53703 a 3.0000001,3.0000001 0 0 0 2.23089,0.99994 3.0000001,3.0000001 0 0 0 3.00031,-2.99982 3.0000001,3.0000001 0 0 0 -3.00031,-2.999811 3.0000001,3.0000001 0 0 0 -2.23192,0.999932 h -15.53652 a 3.0000001,3.0000001 0 0 0 -2.23139,-0.999932 z m 0,1.999871 a 1,1 0 0 1 0.99994,0.99994 1,1 0 0 1 -0.99994,0.99994 1,1 0 0 1 -0.99994,-0.99994 1,1 0 0 1 0.99994,-0.99994 z m 9.9999,0 a 1,1 0 0 1 0.99994,0.99994 1,1 0 0 1 -0.99994,0.99994 1,1 0 0 1 -0.99994,-0.99994 1,1 0 0 1 0.99994,-0.99994 z m 9.99993,0 a 1,1 0 0 1 0.99994,0.99994 1,1 0 0 1 -0.99994,0.99994 1,1 0 0 1 -0.99994,-0.99994 1,1 0 0 1 0.99994,-0.99994 z"
       style="fill:none;stroke:#000000;stroke-width:0.1;stroke-miterlimit:4;stroke-dasharray:none;stroke-opacity:1" />
    <path
       style="fill:none;stroke:#000000;stroke-width:0.1;stroke-miterlimit:4;stroke-dasharray:none;stroke-opacity:1"
       d="M -66.070248,106.83382 V 77.833999 h -1.99987 v -3.000331 h 1.99987 l -2e-4,-15.000149 -12,6.8e-5 -1e-4,15.000081 h 2.00041 v 3.000331 h -2.00041 v 28.999821 z m -2.50009,-11.00009 h -7.00011 v -8.999972 h 2.50013 v -0.99994 c 3e-5,-0.552238 0.4477,-0.99991 0.99994,-0.999939 0.55223,2.9e-5 0.99991,0.447701 0.99993,0.999939 v 0.99994 h 2.5001 z m 0,-12.999731 h -7.00011 v -3.00033 h 7.00011 z m 0.24958,-18.000721 c -0.55223,-2.9e-5 -0.99992,-0.447698 -0.99994,-0.999939 5e-5,-0.55222 0.44772,-0.999911 0.99994,-0.99994 0.55245,-2.59e-4 1.00042,0.447519 1.00047,0.99994 -3e-5,0.55245 -0.44802,1.000191 -1.00047,0.999939 z m -7.4998,0 c -0.55223,-2.9e-5 -0.99991,-0.447698 -0.99994,-0.999939 5e-5,-0.55222 0.44773,-0.999911 0.99994,-0.99994 0.55223,2.9e-5 0.99991,0.44772 0.99994,0.99994 -3e-5,0.552241 -0.44771,0.99991 -0.99994,0.999939 z"
       id="path6753" />
    <path
       id="path6763"
       d="M -78.070248,106.83389 V 77.83407 h -1.99988 v -3.00033 h 1.99988 l -2e-4,-15.000153 -12,7.2e-5 -1e-4,15.000081 h 2.00041 v 3.00033 h -2.00041 v 28.99982 z m -2.50009,-11.000092 h -7.00011 V 86.83383 h 2.50013 v -0.99994 c 3e-5,-0.552241 0.4477,-0.999911 0.99994,-0.99994 0.55223,2.9e-5 0.99991,0.447699 0.99993,0.99994 v 0.99994 h 2.5001 z m 0,-12.99973 h -7.00011 v -3.00033 h 7.00011 z m 0.24957,-18.000718 c -0.55222,-3.2e-5 -0.99991,-0.447702 -0.99993,-0.999943 5e-5,-0.552219 0.44772,-0.999908 0.99993,-0.999939 0.55246,-2.6e-4 1.00043,0.447521 1.00049,0.999939 -4e-5,0.55245 -0.44803,1.000192 -1.00049,0.999943 z m -7.49979,0 c -0.55224,-3.2e-5 -0.99991,-0.447702 -0.99994,-0.999943 5e-5,-0.552219 0.44773,-0.999908 0.99994,-0.999939 0.55223,3.1e-5 0.99991,0.44772 0.99993,0.999939 -2e-5,0.552241 -0.4477,0.999911 -0.99993,0.999943 z"
       style="fill:none;stroke:#000000;stroke-width:0.1;stroke-miterlimit:4;stroke-dasharray:none;stroke-opacity:1" />
    <path
       id="path6783"
       d="m 19.679102,118.33367 a 30.000001,30.000001 0 0 0 30.00022,-30.000232 30.000001,30.000001 0 0 0 -30.00022,-29.999715 30.000001,30.000001 0 0 0 -29.99973,29.999715 30.000001,30.000001 0 0 0 29.99973,30.000232 z m 0,-5.24981 a 1,1 0 0 1 -0.99995,-0.99994 1,1 0 0 1 0.99995,-1.00045 1,1 0 0 1 0.99993,1.00045 1,1 0 0 1 -0.99993,0.99994 z m 6.00014,-19.75021 h -12.00031 v -3.000341 h 12.00031 z m 17.74982,-3.999762 a 1,1 0 0 1 -0.99993,-0.99994 1,1 0 0 1 0.99993,-1.00045 1,1 0 0 1 0.99994,1.00045 1,1 0 0 1 -0.99994,0.99994 z m -47.4999499,0 a 1,1 0 0 1 -0.99993,-0.99994 1,1 0 0 1 0.99993,-1.00045 1,1 0 0 1 0.99994,1.00045 1,1 0 0 1 -0.99994,0.99994 z m 33.7498799,-5.29e-4 a 1,1 0 0 1 -0.99994,-0.99994 1,1 0 0 1 0.99994,-0.99994 1,1 0 0 1 0.99994,0.99994 1,1 0 0 1 -0.99994,0.99994 z m -10.00043,0 a 1,1 0 0 1 -0.99994,-0.99994 1,1 0 0 1 0.99994,-0.99994 1,1 0 0 1 1.00047,0.99994 1,1 0 0 1 -1.00047,0.99994 z m -9.9998999,0 a 1,1 0 0 1 -0.99994,-0.99994 1,1 0 0 1 0.99994,-0.99994 1,1 0 0 1 0.9999399,0.99994 1,1 0 0 1 -0.9999399,0.99994 z M 25.679242,86.33354 h -12.00031 v -2.999812 h 12.00031 z m -6.00014,-20.749628 a 1,1 0 0 1 -0.99995,-1.000458 1,1 0 0 1 0.99995,-0.99994 1,1 0 0 1 0.99993,0.99994 1,1 0 0 1 -0.99993,1.000458 z"
       style="fill:none;stroke:#000000;stroke-width:0.1;stroke-miterlimit:4;stroke-dasharray:none;stroke-opacity:1" />
    <path
       id="path6785"
       d="m 9.6798821,29.333712 v -2.99982 h -3.99974 v -3.00033 h 4.00284 v -0.99994 a 1,1 0 0 1 -0.003,0 1,1 0 0 1 -0.99993,-0.99994 1,1 0 0 1 0.99993,-0.99994 v -0.99994 h -4.00028 v -2.99981 h 3.99976 v -3.00034 h -6.99905 v 4.49999 h -4.00029 c -1.38498,-10e-6 -2.49957,1.1151 -2.49957,2.5001 v 1.99988 c 0,1.385 1.11459,2.50009 2.49957,2.5001 h 4.00029 v 4.49999 z m -9.99938996,-7.00009 c -0.55245,2.5e-4 -1.00041004,-0.4475 -1.00047004,-0.99994 6e-5,-0.55243 0.44804004,-1.00019 1.00047004,-0.99994 0.55224,3e-5 0.99989,0.44771 0.99995,0.99994 -4e-5,0.55224 -0.44771,0.99991 -0.99995,0.99994 z"
       style="fill:none;stroke:#000000;stroke-width:0.1;stroke-miterlimit:4;stroke-dasharray:none;stroke-opacity:1" />
    <path
       id="path6787"
       d="m 16.679002,29.333712 v -4.49999 h 4.0003 c 1.385,-2e-5 2.4996,-1.11509 2.4996,-2.5001 v -1.99988 c 0,-1.385 -1.1146,-2.50011 -2.4996,-2.5001 h -4.0003 v -4.49999 H 9.6794621 v 2.99982 h 3.9997499 v 3.00033 H 9.6789321 v 0.99994 a 1,1 0 0 1 0.9988999,0.99994 1,1 0 0 1 -0.9978699,0.99994 v 0.99994 h 3.9971899 v 2.99981 H 9.6773921 v 3.00034 z m 2.99982,-7.00009 c -0.55221,-3e-5 -0.99989,-0.44771 -0.99994,-0.99994 5e-5,-0.55224 0.44771,-0.99991 0.99994,-0.99994 0.55245,-2.5e-4 1.00045,0.4475 1.00048,0.99994 -7e-5,0.55243 -0.44803,1.00019 -1.00048,0.99994 z"
       style="fill:none;stroke:#000000;stroke-width:0.1;stroke-miterlimit:4;stroke-dasharray:none;stroke-opacity:1" />
    <path
       id="path6789"
       d="m 87.179412,38.290863 v -2.999822 h 2.5001 v -4.00027 h -2.5001 v -2.999809 h -7.00008 v 2.999809 h -2.5001 v 4.00027 h 2.5001 v 2.999822 z m -3.50004,-4.00027 a 1,1 0 0 1 -0.99994,-0.999939 1,1 0 0 1 0.99994,-0.999943 1,1 0 0 1 0.99994,0.999943 1,1 0 0 1 -0.99994,0.999939 z"
       style="fill:none;stroke:#000000;stroke-width:0.1;stroke-miterlimit:4;stroke-dasharray:none;stroke-opacity:1" />
    <path
       id="path6791"
       d="m 101.35856,38.333241 v -2.999819 h 2.49958 v -4.00027 h -2.49958 v -2.99982 h -7.000098 v 2.99982 h -2.5001 v 4.00027 h 2.5001 v 2.999819 z m -2.320788,-2.957449 h -2.35855 l -1.17922,-2.04225 1.17922,-2.042771 h 2.35855 l 1.179218,2.042771 z"
       style="fill:none;stroke:#000000;stroke-width:0.1;stroke-miterlimit:4;stroke-dasharray:none;stroke-opacity:1" />
    <path
       style="fill:none;stroke:#000000;stroke-width:0.1;stroke-miterlimit:4;stroke-dasharray:none;stroke-opacity:1"
       d="m 101.35854,27.333422 v -2.99982 h 2.5001 v -4.00027 h -2.5001 v -2.99981 h -7.000078 v 2.99981 h -2.5001 v 4.00027 h 2.5001 v 2.99982 z m -3.500038,-4.00027 a 1,1 0 0 1 -0.99994,-0.99994 1,1 0 0 1 0.99994,-0.99994 1,1 0 0 1 0.99994,0.99994 1,1 0 0 1 -0.99994,0.99994 z"
       id="path6793" />
    <path
       id="path6795"
       d="m 88.358532,27.333422 v -2.99982 h 2.5001 v -4.00027 h -2.5001 v -2.99981 h -7.00008 v 2.99981 h -2.50011 v 4.00027 h 2.50011 v 2.99982 z m -3.50004,-4.00027 a 1,1 0 0 1 -0.99994,-0.99994 1,1 0 0 1 0.99994,-0.99994 1,1 0 0 1 0.99994,0.99994 1,1 0 0 1 -0.99994,0.99994 z"
       style="fill:none;stroke:#000000;stroke-width:0.1;stroke-miterlimit:4;stroke-dasharray:none;stroke-opacity:1" />
    <path
       style="fill:none;stroke:#000000;stroke-width:0.1;stroke-miterlimit:4;stroke-dasharray:none;stroke-opacity:1"
       d="m 9.6796121,50.333762 a 10,10 0 0 0 9.9399699,-9.003069 1,1 0 0 1 -0.94002,-0.996842 1,1 0 0 1 0.94982,-0.997868 10,10 0 0 0 -9.9497699,-9.002031 10,10 0 0 0 -9.93995996,9.00255 1,1 0 0 1 0.94,0.997349 1,1 0 0 1 -0.95035,0.997882 10,10 0 0 0 9.95030996,9.002029 z M 15.679232,45.333553 H 3.6794521 v -2.99982 h 4.11758 a 2.7500001,2.7500001 0 0 1 -0.86765,-1.999882 2.7500001,2.7500001 0 0 1 0.86506,-1.999869 h -4.11499 v -3.00033 H 15.679232 v 3.00033 h -4.11703 a 2.7500001,2.7500001 0 0 1 0.86764,1.999869 2.7500001,2.7500001 0 0 1 -0.86509,1.999882 h 4.11448 z"
       id="path6797" />
    <path
       id="path6799"
       d="m 80.679072,118.33368 c 16.56877,1.2e-4 30.000388,-13.43151 30.000238,-30.000242 -1.4e-4,-16.568518 -13.431678,-29.999845 -30.000238,-29.999715 -16.56828,1.5e-4 -29.99955,13.431395 -29.9997,29.999715 -1.5e-4,16.568532 13.43121,30.000092 29.9997,30.000242 z m 0,-5.24981 a 1,1 0 0 1 -0.99993,-0.99994 1,1 0 0 1 0.99993,-0.99994 1,1 0 0 1 1.00047,0.99994 1,1 0 0 1 -1.00047,0.99994 z m 6.00017,-19.75022 h -12.00031 v -3.00033 h 12.00031 z m 4.00026,-2.641182 -2.04276,-1.179248 v -2.358522 l 2.04276,-1.179248 2.04224,1.179248 v 2.358522 z m -20.00033,0 -2.04224,-1.179248 v -2.358522 l 2.04224,-1.179248 2.04277,1.179248 v 2.358522 z m 33.749878,-1.358569 a 1,1 0 0 1 -0.99994,-0.99994 1,1 0 0 1 0.99994,-0.99994 1,1 0 0 1 1.00047,0.99994 1,1 0 0 1 -1.00047,0.99994 z m -47.499938,0 a 1,1 0 0 1 -0.99994,-0.99994 1,1 0 0 1 0.99994,-0.99994 1,1 0 0 1 0.99993,0.99994 1,1 0 0 1 -0.99993,0.99994 z m 23.74944,-5.29e-4 c -0.55222,-3.2e-5 -0.99989,-0.447702 -0.99994,-0.99994 5e-5,-0.552241 0.44772,-0.9999 0.99994,-0.99994 0.55245,-2.62e-4 1.00046,0.447498 1.00046,0.99994 0,0.55245 -0.44801,1.000199 -1.00046,0.99994 z m 6.00069,-2.999822 h -12.00031 v -2.999809 h 12.00031 z m -6.00017,-20.749626 a 1,1 0 0 1 -0.99993,-0.999939 1,1 0 0 1 0.99993,-0.99994 1,1 0 0 1 1.00047,0.99994 1,1 0 0 1 -1.00047,0.999939 z"
       style="fill:none;stroke:#000000;stroke-width:0.1;stroke-miterlimit:4;stroke-dasharray:none;stroke-opacity:1" />
    <path
       id="path6801"
       d="m 90.358512,58.833444 c 14.635688,9.8e-5 26.500298,-11.864491 26.500188,-26.500191 8e-5,-14.635691 -11.86452,-26.5002907 -26.500188,-26.5001907 -14.63569,-10e-5 -26.50029,11.8644997 -26.50019,26.5001907 -1.3e-4,14.6357 11.86447,26.500289 26.50019,26.500191 z m 0,-1.750282 a 1,1 0 0 1 -0.99994,-0.99994 1,1 0 0 1 0.99994,-0.99994 1,1 0 0 1 0.99994,0.99994 1,1 0 0 1 -0.99994,0.99994 z m 0,-3.749638 A 21,21 0 0 1 69.358242,32.333253 21,21 0 0 1 90.358512,11.333502 21,21 0 0 1 111.35825,32.333253 21,21 0 0 1 90.358512,53.333524 Z M 114.10846,33.333193 a 1,1 0 0 1 -0.99994,-0.99994 1,1 0 0 1 0.99994,-0.999942 1,1 0 0 1 0.99994,0.999942 1,1 0 0 1 -0.99994,0.99994 z m -47.499928,0 a 1,1 0 0 1 -0.99994,-0.99994 1,1 0 0 1 0.99994,-0.999942 1,1 0 0 1 0.99994,0.999942 1,1 0 0 1 -0.99994,0.99994 z M 90.358512,9.5832222 a 1,1 0 0 1 -0.99994,-0.9999397 1,1 0 0 1 0.99994,-0.9999401 1,1 0 0 1 0.99994,0.9999401 1,1 0 0 1 -0.99994,0.9999397 z"
       style="fill:none;stroke:#000000;stroke-width:0.1;stroke-miterlimit:4;stroke-dasharray:none;stroke-opacity:1" />
    <path
       style="fill:none;stroke:#000000;stroke-width:0.1;stroke-miterlimit:4;stroke-dasharray:none;stroke-opacity:1"
       d="m 10.679452,58.583873 c 14.63568,1.01e-4 26.50029,-11.864491 26.50019,-26.50019 7e-5,-14.635691 -11.86453,-26.5002907 -26.50019,-26.5001907 -14.6356899,-10e-5 -26.50031,11.8644997 -26.5002,26.5001907 -1.2e-4,14.635699 11.8644701,26.500291 26.5002,26.50019 z m 0,-1.75028 a 1,1 0 0 1 -0.9999399,-0.999939 1,1 0 0 1 0.9999399,-0.99994 1,1 0 0 1 0.99993,0.99994 1,1 0 0 1 -0.99993,0.999939 z m 0,-3.74964 a 21,21 0 0 1 -21.00028,-21.00027 21,21 0 0 1 21.00028,-20.999751 21,21 0 0 1 20.99974,20.999751 21,21 0 0 1 -20.99974,21.00027 z m 23.74995,-20.000331 a 1,1 0 0 1 -0.99994,-0.999939 1,1 0 0 1 0.99994,-0.99994 1,1 0 0 1 0.99993,0.99994 1,1 0 0 1 -0.99993,0.999939 z m -47.49994,0 a 1,1 0 0 1 -0.99994,-0.999939 1,1 0 0 1 0.99994,-0.99994 1,1 0 0 1 0.99995,0.99994 1,1 0 0 1 -0.99995,0.999939 z M 10.679452,9.3336524 a 1,1 0 0 1 -0.9999399,-0.99994 1,1 0 0 1 0.9999399,-0.9999401 1,1 0 0 1 0.99993,0.9999401 1,1 0 0 1 -0.99993,0.99994 z"
       id="path6803" />
    <path
       style="fill:none;stroke:#000000;stroke-width:0.1;stroke-miterlimit:4;stroke-dasharray:none;stroke-opacity:1"
       d="m 101.35854,45.333524 a 3.0000001,3.0000001 0 0 0 2.99982,-2.999812 3.0000001,3.0000001 0 0 0 -2.99982,-2.999819 3.0000001,3.0000001 0 0 0 -2.231918,0.99994 h -15.53702 a 3.0000001,3.0000001 0 0 0 -2.23092,-0.99994 3.0000001,3.0000001 0 0 0 -3.00029,2.999819 3.0000001,3.0000001 0 0 0 3.00029,2.999812 3.0000001,3.0000001 0 0 0 2.23192,-0.999932 h 15.53655 a 3.0000001,3.0000001 0 0 0 2.231388,0.999932 z m 0,-1.999872 a 1,1 0 0 1 -0.99994,-0.99994 1,1 0 0 1 0.99994,-0.999939 1,1 0 0 1 0.99994,0.999939 1,1 0 0 1 -0.99994,0.99994 z m -9.999898,0 a 1,1 0 0 1 -0.99994,-0.99994 1,1 0 0 1 0.99994,-0.999939 1,1 0 0 1 0.99994,0.999939 1,1 0 0 1 -0.99994,0.99994 z m -9.99996,0 a 1,1 0 0 1 -0.99994,-0.99994 1,1 0 0 1 0.99994,-0.999939 1,1 0 0 1 0.99994,0.999939 1,1 0 0 1 -0.99994,0.99994 z"
       id="path6805" />
    <path
       id="path6807"
       d="m 38.179042,17.083352 v 28.999821 h 1.99988 v 3.00033 h -1.99988 l 1.9e-4,15.00015 12.00001,-7.1e-5 9e-5,-15.000079 h -2.0004 v -3.00033 h 2.0004 V 17.083352 Z m 2.50009,11.00009 h 7.00011 v 8.999971 h -2.50013 v 0.99994 c -4e-5,0.552238 -0.44771,0.999908 -0.99994,0.99994 -0.55223,-3.2e-5 -0.99991,-0.447702 -0.99994,-0.99994 v -0.99994 h -2.50009 z m 0,12.99973 h 7.00011 v 3.00033 h -7.00011 z m -0.24957,18.000721 c 0.55223,2.9e-5 0.99991,0.447699 0.99992,0.99994 -4e-5,0.55222 -0.44772,0.999911 -0.99992,0.99994 -0.55247,2.59e-4 -1.00043,-0.447519 -1.00048,-0.99994 2e-5,-0.55245 0.44801,-1.000191 1.00048,-0.99994 z m 7.49978,0 c 0.55225,2.9e-5 0.99991,0.447699 0.99995,0.99994 -5e-5,0.55222 -0.44773,0.999911 -0.99995,0.99994 -0.55222,-2.9e-5 -0.9999,-0.44772 -0.99992,-0.99994 2e-5,-0.552241 0.4477,-0.999911 0.99992,-0.99994 z"
       style="fill:none;stroke:#000000;stroke-width:0.1;stroke-miterlimit:4;stroke-dasharray:none;stroke-opacity:1" />
    <path
       style="fill:none;stroke:#000000;stroke-width:0.1;stroke-miterlimit:4;stroke-dasharray:none;stroke-opacity:1"
       d="m 50.179042,17.083282 v 28.99982 h 1.99988 v 3.00033 h -1.99988 l 2e-4,15.00015 11.99998,-6.9e-5 1.1e-4,-15.000081 h -2.00041 v -3.00033 h 2.00041 v -28.99982 z m 2.50009,11.00009 h 7.0001 v 8.99997 h -2.50013 v 0.99994 c -3e-5,0.552241 -0.4477,0.99991 -0.99993,0.999939 -0.55223,-2.9e-5 -0.99991,-0.447698 -0.99994,-0.999939 v -0.99994 h -2.50009 z m 0,12.999732 h 7.0001 v 3.00033 h -7.0001 z m -0.24958,18.000718 c 0.55224,3.1e-5 0.99992,0.447701 0.99994,0.999939 -5e-5,0.55222 -0.44772,0.999911 -0.99994,0.999943 -0.55246,2.59e-4 -1.00042,-0.447522 -1.00047,-0.999943 2e-5,-0.55245 0.44801,-1.000188 1.00047,-0.999939 z m 7.49979,0 c 0.55224,3.1e-5 0.99991,0.447701 0.99994,0.999939 -5e-5,0.55222 -0.44773,0.999911 -0.99994,0.999943 -0.55221,-3.2e-5 -0.99991,-0.447723 -0.99991,-0.999943 0,-0.552238 0.4477,-0.999908 0.99991,-0.999939 z"
       id="path6809" />
    <path
       id="path6813"
       d="m -47.570308,120.83377 a 30.000001,30.000001 0 0 0 -30.00023,30.00023 30.000001,30.000001 0 0 0 30.00023,29.99972 30.000001,30.000001 0 0 0 29.99973,-29.99972 30.000001,30.000001 0 0 0 -29.99973,-30.00023 z m 0,5.24981 a 1,1 0 0 1 0.99994,0.99994 1,1 0 0 1 -0.99994,1.00045 1,1 0 0 1 -0.99993,-1.00045 1,1 0 0 1 0.99993,-0.99994 z m -6.00013,19.75021 h 12.0003 v 3.00034 h -12.0003 z m -17.74984,3.99976 a 1,1 0 0 1 0.99995,0.99994 1,1 0 0 1 -0.99995,1.00045 1,1 0 0 1 -0.99994,-1.00045 1,1 0 0 1 0.99994,-0.99994 z m 47.49996,0 a 1,1 0 0 1 0.99994,0.99994 1,1 0 0 1 -0.99994,1.00045 1,1 0 0 1 -0.99994,-1.00045 1,1 0 0 1 0.99994,-0.99994 z m -33.74989,5.3e-4 a 1,1 0 0 1 0.99994,0.99994 1,1 0 0 1 -0.99994,0.99994 1,1 0 0 1 -0.99994,-0.99994 1,1 0 0 1 0.99994,-0.99994 z m 10.00043,0 a 1,1 0 0 1 0.99995,0.99994 1,1 0 0 1 -0.99995,0.99994 1,1 0 0 1 -1.00046,-0.99994 1,1 0 0 1 1.00046,-0.99994 z m 9.9999,0 a 1,1 0 0 1 0.99994,0.99994 1,1 0 0 1 -0.99994,0.99994 1,1 0 0 1 -0.99994,-0.99994 1,1 0 0 1 0.99994,-0.99994 z m -16.00056,2.99982 h 12.0003 v 2.99981 h -12.0003 z m 6.00013,20.74963 a 1,1 0 0 1 0.99994,1.00046 1,1 0 0 1 -0.99994,0.99994 1,1 0 0 1 -0.99993,-0.99994 1,1 0 0 1 0.99993,-1.00046 z"
       style="fill:none;stroke:#000000;stroke-width:0.1;stroke-miterlimit:4;stroke-dasharray:none;stroke-opacity:1" />
    <path
       id="path6815"
       d="m -37.571098,209.83373 v 2.99982 h 3.99976 v 3.00033 h -4.00285 v 0.99994 a 1,1 0 0 1 0.003,0 1,1 0 0 1 0.99994,0.99994 1,1 0 0 1 -0.99994,0.99994 v 0.99994 h 4.00029 v 2.99981 h -3.99976 v 3.00034 h 6.99905 v -4.49999 h 4.00029 c 1.38498,1e-5 2.49957,-1.1151 2.49957,-2.5001 v -1.99988 c 0,-1.385 -1.11459,-2.50009 -2.49957,-2.5001 h -4.00029 v -4.49999 z m 9.99939,7.00009 c 0.55245,-2.5e-4 1.00043,0.4475 1.00048,0.99994 -5e-5,0.55243 -0.44804,1.00019 -1.00048,0.99994 -0.55223,-3e-5 -0.99987,-0.44771 -0.99994,-0.99994 3e-5,-0.55224 0.44771,-0.99991 0.99994,-0.99994 z"
       style="fill:none;stroke:#000000;stroke-width:0.1;stroke-miterlimit:4;stroke-dasharray:none;stroke-opacity:1" />
    <path
       id="path6817"
       d="m -44.570218,209.83373 v 4.49999 h -4.00029 c -1.38501,2e-5 -2.4996,1.11509 -2.4996,2.5001 v 1.99988 c 0,1.385 1.11459,2.50011 2.4996,2.5001 h 4.00029 v 4.49999 h 6.99956 v -2.99982 h -3.99977 v -3.00033 h 4.00029 v -0.99994 a 1,1 0 0 1 -0.99891,-0.99994 1,1 0 0 1 0.99789,-0.99994 v -0.99994 h -3.99719 v -2.99981 h 3.99975 v -3.00034 z m -2.99982,7.00009 c 0.55222,3e-5 0.99989,0.44771 0.99994,0.99994 -5e-5,0.55224 -0.4477,0.99991 -0.99994,0.99994 -0.55245,2.5e-4 -1.00044,-0.4475 -1.00047,-0.99994 6e-5,-0.55243 0.44802,-1.00019 1.00047,-0.99994 z"
       style="fill:none;stroke:#000000;stroke-width:0.1;stroke-miterlimit:4;stroke-dasharray:none;stroke-opacity:1" />
    <path
       id="path6819"
       d="m -115.07062,200.87658 v 2.99982 h -2.5001 v 4.00027 h 2.5001 v 2.99981 h 7.00007 v -2.99981 h 2.5001 v -4.00027 h -2.5001 v -2.99982 z m 3.50004,4.00027 a 1,1 0 0 1 0.99994,0.99994 1,1 0 0 1 -0.99994,0.99994 1,1 0 0 1 -0.99994,-0.99994 1,1 0 0 1 0.99994,-0.99994 z"
       style="fill:none;stroke:#000000;stroke-width:0.1;stroke-miterlimit:4;stroke-dasharray:none;stroke-opacity:1" />
    <path
       id="path6821"
       d="m -129.24976,200.8342 v 2.99982 h -2.49958 v 4.00027 h 2.49958 v 2.99982 h 7.00011 v -2.99982 h 2.5001 v -4.00027 h -2.5001 v -2.99982 z m 2.32079,2.95745 h 2.35853 l 1.17924,2.04225 -1.17924,2.04277 h -2.35853 l -1.17924,-2.04277 z"
       style="fill:none;stroke:#000000;stroke-width:0.1;stroke-miterlimit:4;stroke-dasharray:none;stroke-opacity:1" />
    <path
       style="fill:none;stroke:#000000;stroke-width:0.1;stroke-miterlimit:4;stroke-dasharray:none;stroke-opacity:1"
       d="m -129.24973,211.83402 v 2.99982 h -2.50011 v 4.00027 h 2.50011 v 2.99981 h 7.00008 v -2.99981 h 2.5001 v -4.00027 h -2.5001 v -2.99982 z m 3.50004,4.00027 a 1,1 0 0 1 0.99994,0.99994 1,1 0 0 1 -0.99994,0.99994 1,1 0 0 1 -0.99994,-0.99994 1,1 0 0 1 0.99994,-0.99994 z"
       id="path6823" />
    <path
       id="path6825"
       d="m -116.24973,211.83402 v 2.99982 h -2.5001 v 4.00027 h 2.5001 v 2.99981 h 7.00008 v -2.99981 h 2.50009 v -4.00027 h -2.50009 v -2.99982 z m 3.50004,4.00027 a 1,1 0 0 1 0.99994,0.99994 1,1 0 0 1 -0.99994,0.99994 1,1 0 0 1 -0.99994,-0.99994 1,1 0 0 1 0.99994,-0.99994 z"
       style="fill:none;stroke:#000000;stroke-width:0.1;stroke-miterlimit:4;stroke-dasharray:none;stroke-opacity:1" />
    <path
       style="fill:none;stroke:#000000;stroke-width:0.1;stroke-miterlimit:4;stroke-dasharray:none;stroke-opacity:1"
       d="m -37.570818,188.83368 a 10,10 0 0 0 -9.93997,9.00307 1,1 0 0 1 0.94001,0.99684 1,1 0 0 1 -0.94982,0.99787 10,10 0 0 0 9.94978,9.00203 10,10 0 0 0 9.93996,-9.00255 1,1 0 0 1 -0.93999,-0.99735 1,1 0 0 1 0.95033,-0.99788 10,10 0 0 0 -9.9503,-9.00203 z m -5.99963,5.00021 h 11.99978 v 2.99982 h -4.11757 a 2.7500001,2.7500001 0 0 1 0.86764,1.99988 2.7500001,2.7500001 0 0 1 -0.86506,1.99987 h 4.11499 v 3.00033 h -11.99978 v -3.00033 h 4.11704 a 2.7500001,2.7500001 0 0 1 -0.86764,-1.99987 2.7500001,2.7500001 0 0 1 0.86508,-1.99988 h -4.11448 z"
       id="path6827" />
    <path
       id="path6829"
       d="m -108.57029,120.83376 c -16.56874,-1.2e-4 -30.00037,13.43151 -30.00023,30.00024 1.5e-4,16.56852 13.4317,29.99985 30.00023,29.99972 16.568302,-1.5e-4 29.999562,-13.4314 29.999722,-29.99972 1.3e-4,-16.56853 -13.43121,-30.00009 -29.999722,-30.00024 z m 0,5.24981 a 1,1 0 0 1 0.99993,0.99994 1,1 0 0 1 -0.99993,0.99994 1,1 0 0 1 -1.00045,-0.99994 1,1 0 0 1 1.00045,-0.99994 z m -6.00015,19.75022 h 12.0003 v 3.00033 h -12.0003 z m -4.00026,2.64118 2.04277,1.17925 v 2.35852 l -2.04277,1.17925 -2.04226,-1.17925 v -2.35852 z m 20.000322,0 2.04224,1.17925 v 2.35852 l -2.04224,1.17925 -2.042772,-1.17925 v -2.35852 z m -33.749872,1.35857 a 1,1 0 0 1 0.99994,0.99994 1,1 0 0 1 -0.99994,0.99994 1,1 0 0 1 -1.00047,-0.99994 1,1 0 0 1 1.00047,-0.99994 z m 47.499932,0 a 1,1 0 0 1 0.99994,0.99994 1,1 0 0 1 -0.99994,0.99994 1,1 0 0 1 -0.99994,-0.99994 1,1 0 0 1 0.99994,-0.99994 z m -23.749442,5.3e-4 c 0.55223,3e-5 0.9999,0.4477 0.99993,0.99994 -3e-5,0.55224 -0.4477,0.9999 -0.99993,0.99994 -0.55245,2.6e-4 -1.00045,-0.4475 -1.00047,-0.99994 2e-5,-0.55245 0.44802,-1.0002 1.00047,-0.99994 z m -6.00068,2.99982 h 12.0003 v 2.99981 h -12.0003 z m 6.00015,20.74963 a 1,1 0 0 1 0.99993,0.99994 1,1 0 0 1 -0.99993,0.99994 1,1 0 0 1 -1.00045,-0.99994 1,1 0 0 1 1.00045,-0.99994 z"
       style="fill:none;stroke:#000000;stroke-width:0.1;stroke-miterlimit:4;stroke-dasharray:none;stroke-opacity:1" />
    <path
       id="path6831"
       d="m -118.24972,180.334 c -14.63569,-1e-4 -26.50029,11.86449 -26.5002,26.50019 -7e-5,14.63569 11.86454,26.50029 26.5002,26.50019 14.63568,1e-4 26.500292,-11.8645 26.500182,-26.50019 1.3e-4,-14.6357 -11.864472,-26.50029 -26.500182,-26.50019 z m 0,1.75028 a 1,1 0 0 1 0.99994,0.99994 1,1 0 0 1 -0.99994,0.99994 1,1 0 0 1 -0.99994,-0.99994 1,1 0 0 1 0.99994,-0.99994 z m 0,3.74964 a 21,21 0 0 1 21.000262,21.00027 21,21 0 0 1 -21.000262,20.99975 21,21 0 0 1 -20.99974,-20.99975 21,21 0 0 1 20.99974,-21.00027 z m -23.74995,20.00033 a 1,1 0 0 1 0.99994,0.99994 1,1 0 0 1 -0.99994,0.99994 1,1 0 0 1 -0.99994,-0.99994 1,1 0 0 1 0.99994,-0.99994 z m 47.499922,0 a 1,1 0 0 1 0.99994,0.99994 1,1 0 0 1 -0.99994,0.99994 1,1 0 0 1 -0.99994,-0.99994 1,1 0 0 1 0.99994,-0.99994 z m -23.749972,23.74997 a 1,1 0 0 1 0.99994,0.99994 1,1 0 0 1 -0.99994,0.99994 1,1 0 0 1 -0.99994,-0.99994 1,1 0 0 1 0.99994,-0.99994 z"
       style="fill:none;stroke:#000000;stroke-width:0.1;stroke-miterlimit:4;stroke-dasharray:none;stroke-opacity:1" />
    <path
       style="fill:none;stroke:#000000;stroke-width:0.1;stroke-miterlimit:4;stroke-dasharray:none;stroke-opacity:1"
       d="m -38.570648,180.58357 c -14.6357,-1e-4 -26.5003,11.86449 -26.5002,26.50019 -7e-5,14.63569 11.86454,26.50029 26.5002,26.50019 14.63568,1e-4 26.50029,-11.8645 26.50019,-26.50019 1.3e-4,-14.6357 -11.86448,-26.50029 -26.50019,-26.50019 z m 0,1.75028 a 1,1 0 0 1 0.99994,0.99994 1,1 0 0 1 -0.99994,0.99994 1,1 0 0 1 -0.99994,-0.99994 1,1 0 0 1 0.99994,-0.99994 z m 0,3.74964 a 21,21 0 0 1 21.00027,21.00027 21,21 0 0 1 -21.00027,20.99975 21,21 0 0 1 -20.99975,-20.99975 21,21 0 0 1 20.99975,-21.00027 z m -23.74995,20.00033 a 1,1 0 0 1 0.99994,0.99994 1,1 0 0 1 -0.99994,0.99994 1,1 0 0 1 -0.99995,-0.99994 1,1 0 0 1 0.99995,-0.99994 z m 47.49992,0 a 1,1 0 0 1 0.99994,0.99994 1,1 0 0 1 -0.99994,0.99994 1,1 0 0 1 -0.99994,-0.99994 1,1 0 0 1 0.99994,-0.99994 z m -23.74997,23.74997 a 1,1 0 0 1 0.99994,0.99994 1,1 0 0 1 -0.99994,0.99994 1,1 0 0 1 -0.99994,-0.99994 1,1 0 0 1 0.99994,-0.99994 z"
       id="path6833" />
    <path
       style="fill:none;stroke:#000000;stroke-width:0.1;stroke-miterlimit:4;stroke-dasharray:none;stroke-opacity:1"
       d="m -129.24973,193.83392 a 3.0000001,3.0000001 0 0 0 -2.99982,2.99981 3.0000001,3.0000001 0 0 0 2.99982,2.99982 3.0000001,3.0000001 0 0 0 2.23191,-0.99994 h 15.53703 a 3.0000001,3.0000001 0 0 0 2.23089,0.99994 3.0000001,3.0000001 0 0 0 3.00031,-2.99982 3.0000001,3.0000001 0 0 0 -3.00031,-2.99981 3.0000001,3.0000001 0 0 0 -2.23192,0.99993 h -15.53652 a 3.0000001,3.0000001 0 0 0 -2.23139,-0.99993 z m 0,1.99987 a 1,1 0 0 1 0.99994,0.99994 1,1 0 0 1 -0.99994,0.99994 1,1 0 0 1 -0.99994,-0.99994 1,1 0 0 1 0.99994,-0.99994 z m 9.9999,0 a 1,1 0 0 1 0.99994,0.99994 1,1 0 0 1 -0.99994,0.99994 1,1 0 0 1 -0.99994,-0.99994 1,1 0 0 1 0.99994,-0.99994 z m 9.99993,0 a 1,1 0 0 1 0.99994,0.99994 1,1 0 0 1 -0.99994,0.99994 1,1 0 0 1 -0.99994,-0.99994 1,1 0 0 1 0.99994,-0.99994 z"
       id="path6835" />
    <path
       id="path6837"
       d="m -66.070248,222.08409 v -28.99982 h -1.99987 v -3.00033 h 1.99987 l -2e-4,-15.00015 -12,7e-5 -1e-4,15.00008 h 2.00041 v 3.00033 h -2.00041 v 28.99982 z m -2.50009,-11.00009 h -7.00011 v -8.99997 h 2.50013 v -0.99994 c 3e-5,-0.55224 0.4477,-0.99991 0.99994,-0.99994 0.55223,3e-5 0.99991,0.4477 0.99993,0.99994 v 0.99994 h 2.5001 z m 0,-12.99973 h -7.00011 v -3.00033 h 7.00011 z m 0.24958,-18.00072 c -0.55223,-3e-5 -0.99992,-0.4477 -0.99994,-0.99994 5e-5,-0.55222 0.44772,-0.99991 0.99994,-0.99994 0.55245,-2.6e-4 1.00042,0.44752 1.00047,0.99994 -3e-5,0.55245 -0.44802,1.00019 -1.00047,0.99994 z m -7.4998,0 c -0.55223,-3e-5 -0.99991,-0.4477 -0.99994,-0.99994 5e-5,-0.55222 0.44773,-0.99991 0.99994,-0.99994 0.55223,3e-5 0.99991,0.44772 0.99994,0.99994 -3e-5,0.55224 -0.44771,0.99991 -0.99994,0.99994 z"
       style="fill:none;stroke:#000000;stroke-width:0.1;stroke-miterlimit:4;stroke-dasharray:none;stroke-opacity:1" />
    <path
       style="fill:none;stroke:#000000;stroke-width:0.1;stroke-miterlimit:4;stroke-dasharray:none;stroke-opacity:1"
       d="m -78.070248,222.08416 v -28.99982 h -1.99988 v -3.00033 h 1.99988 l -2e-4,-15.00015 -12,7e-5 -1e-4,15.00008 h 2.00041 v 3.00033 h -2.00041 v 28.99982 z m -2.50009,-11.00009 h -7.00011 v -8.99997 h 2.50013 v -0.99994 c 3e-5,-0.55224 0.4477,-0.99991 0.99994,-0.99994 0.55223,3e-5 0.99991,0.4477 0.99993,0.99994 v 0.99994 h 2.5001 z m 0,-12.99973 h -7.00011 v -3.00033 h 7.00011 z m 0.24957,-18.00072 c -0.55222,-3e-5 -0.99991,-0.4477 -0.99993,-0.99994 5e-5,-0.55222 0.44772,-0.99991 0.99993,-0.99994 0.55246,-2.6e-4 1.00043,0.44752 1.00049,0.99994 -4e-5,0.55245 -0.44803,1.00019 -1.00049,0.99994 z m -7.49979,0 c -0.55224,-3e-5 -0.99991,-0.4477 -0.99994,-0.99994 5e-5,-0.55222 0.44773,-0.99991 0.99994,-0.99994 0.55223,3e-5 0.99991,0.44772 0.99993,0.99994 -2e-5,0.55224 -0.4477,0.99991 -0.99993,0.99994 z"
       id="path6839" />
    <path
       style="fill:none;stroke:#000000;stroke-width:0.1;stroke-miterlimit:4;stroke-dasharray:none;stroke-opacity:1"
       d="m 19.679102,233.58394 a 30.000001,30.000001 0 0 0 30.00022,-30.00023 30.000001,30.000001 0 0 0 -30.00022,-29.99972 30.000001,30.000001 0 0 0 -29.99973,29.99972 30.000001,30.000001 0 0 0 29.99973,30.00023 z m 0,-5.24981 a 1,1 0 0 1 -0.99995,-0.99994 1,1 0 0 1 0.99995,-1.00045 1,1 0 0 1 0.99993,1.00045 1,1 0 0 1 -0.99993,0.99994 z m 6.00014,-19.75021 h -12.00031 v -3.00034 h 12.00031 z m 17.74982,-3.99976 a 1,1 0 0 1 -0.99993,-0.99994 1,1 0 0 1 0.99993,-1.00045 1,1 0 0 1 0.99994,1.00045 1,1 0 0 1 -0.99994,0.99994 z m -47.4999499,0 a 1,1 0 0 1 -0.99993,-0.99994 1,1 0 0 1 0.99993,-1.00045 1,1 0 0 1 0.99994,1.00045 1,1 0 0 1 -0.99994,0.99994 z m 33.7498799,-5.3e-4 a 1,1 0 0 1 -0.99994,-0.99994 1,1 0 0 1 0.99994,-0.99994 1,1 0 0 1 0.99994,0.99994 1,1 0 0 1 -0.99994,0.99994 z m -10.00043,0 a 1,1 0 0 1 -0.99994,-0.99994 1,1 0 0 1 0.99994,-0.99994 1,1 0 0 1 1.00047,0.99994 1,1 0 0 1 -1.00047,0.99994 z m -9.9998999,0 a 1,1 0 0 1 -0.99994,-0.99994 1,1 0 0 1 0.99994,-0.99994 1,1 0 0 1 0.9999399,0.99994 1,1 0 0 1 -0.9999399,0.99994 z M 25.679242,201.58381 H 13.678932 V 198.584 h 12.00031 z m -6.00014,-20.74963 a 1,1 0 0 1 -0.99995,-1.00046 1,1 0 0 1 0.99995,-0.99994 1,1 0 0 1 0.99993,0.99994 1,1 0 0 1 -0.99993,1.00046 z"
       id="path6843" />
    <path
       style="fill:none;stroke:#000000;stroke-width:0.1;stroke-miterlimit:4;stroke-dasharray:none;stroke-opacity:1"
       d="m 9.6798821,144.58398 v -2.99982 h -3.99974 v -3.00033 h 4.00284 v -0.99994 a 1,1 0 0 1 -0.003,0 1,1 0 0 1 -0.99993,-0.99994 1,1 0 0 1 0.99993,-0.99994 v -0.99994 h -4.00028 v -2.99981 h 3.99976 v -3.00034 h -6.99905 v 4.49999 h -4.00029 c -1.38498,-1e-5 -2.49957,1.1151 -2.49957,2.5001 v 1.99988 c 0,1.385 1.11459,2.50009 2.49957,2.5001 h 4.00029 v 4.49999 z m -9.99938996,-7.00009 c -0.55245,2.5e-4 -1.00041004,-0.4475 -1.00047004,-0.99994 6e-5,-0.55243 0.44804004,-1.00019 1.00047004,-0.99994 0.55224,3e-5 0.99989,0.44771 0.99995,0.99994 -4e-5,0.55224 -0.44771,0.99991 -0.99995,0.99994 z"
       id="path6845" />
    <path
       style="fill:none;stroke:#000000;stroke-width:0.1;stroke-miterlimit:4;stroke-dasharray:none;stroke-opacity:1"
       d="m 16.679002,144.58398 v -4.49999 h 4.0003 c 1.385,-2e-5 2.4996,-1.11509 2.4996,-2.5001 v -1.99988 c 0,-1.385 -1.1146,-2.50011 -2.4996,-2.5001 h -4.0003 v -4.49999 H 9.6794621 v 2.99982 h 3.9997499 v 3.00033 H 9.6789321 v 0.99994 a 1,1 0 0 1 0.9988999,0.99994 1,1 0 0 1 -0.9978699,0.99994 v 0.99994 h 3.9971899 v 2.99981 H 9.6773921 v 3.00034 z m 2.99982,-7.00009 c -0.55221,-3e-5 -0.99989,-0.44771 -0.99994,-0.99994 5e-5,-0.55224 0.44771,-0.99991 0.99994,-0.99994 0.55245,-2.5e-4 1.00045,0.4475 1.00048,0.99994 -7e-5,0.55243 -0.44803,1.00019 -1.00048,0.99994 z"
       id="path6847" />
    <path
       style="fill:none;stroke:#000000;stroke-width:0.1;stroke-miterlimit:4;stroke-dasharray:none;stroke-opacity:1"
       d="m 87.179412,153.54113 v -2.99982 h 2.5001 v -4.00027 h -2.5001 v -2.99981 h -7.00008 v 2.99981 h -2.5001 v 4.00027 h 2.5001 v 2.99982 z m -3.50004,-4.00027 a 1,1 0 0 1 -0.99994,-0.99994 1,1 0 0 1 0.99994,-0.99994 1,1 0 0 1 0.99994,0.99994 1,1 0 0 1 -0.99994,0.99994 z"
       id="path6849" />
    <path
       style="fill:none;stroke:#000000;stroke-width:0.1;stroke-miterlimit:4;stroke-dasharray:none;stroke-opacity:1"
       d="m 101.35856,153.58351 v -2.99982 h 2.49958 v -4.00027 h -2.49958 v -2.99982 h -7.000098 v 2.99982 h -2.5001 v 4.00027 h 2.5001 v 2.99982 z m -2.320788,-2.95745 h -2.35855 l -1.17922,-2.04225 1.17922,-2.04277 h 2.35855 l 1.179218,2.04277 z"
       id="path6851" />
    <path
       id="path6853"
       d="m 101.35854,142.58369 v -2.99982 h 2.5001 v -4.00027 h -2.5001 v -2.99981 h -7.000078 v 2.99981 h -2.5001 v 4.00027 h 2.5001 v 2.99982 z m -3.500038,-4.00027 a 1,1 0 0 1 -0.99994,-0.99994 1,1 0 0 1 0.99994,-0.99994 1,1 0 0 1 0.99994,0.99994 1,1 0 0 1 -0.99994,0.99994 z"
       style="fill:none;stroke:#000000;stroke-width:0.1;stroke-miterlimit:4;stroke-dasharray:none;stroke-opacity:1" />
    <path
       style="fill:none;stroke:#000000;stroke-width:0.1;stroke-miterlimit:4;stroke-dasharray:none;stroke-opacity:1"
       d="m 88.358532,142.58369 v -2.99982 h 2.5001 v -4.00027 h -2.5001 v -2.99981 h -7.00008 v 2.99981 h -2.50011 v 4.00027 h 2.50011 v 2.99982 z m -3.50004,-4.00027 a 1,1 0 0 1 -0.99994,-0.99994 1,1 0 0 1 0.99994,-0.99994 1,1 0 0 1 0.99994,0.99994 1,1 0 0 1 -0.99994,0.99994 z"
       id="path6855" />
    <path
       id="path6857"
       d="m 9.6796121,165.58403 a 10,10 0 0 0 9.9399699,-9.00307 1,1 0 0 1 -0.94002,-0.99684 1,1 0 0 1 0.94982,-0.99787 10,10 0 0 0 -9.9497699,-9.00203 10,10 0 0 0 -9.93995996,9.00255 1,1 0 0 1 0.94,0.99735 1,1 0 0 1 -0.95035,0.99788 10,10 0 0 0 9.95030996,9.00203 z m 5.9996199,-5.00021 H 3.6794521 V 157.584 h 4.11758 a 2.7500001,2.7500001 0 0 1 -0.86765,-1.99988 2.7500001,2.7500001 0 0 1 0.86506,-1.99987 h -4.11499 v -3.00033 H 15.679232 v 3.00033 h -4.11703 a 2.7500001,2.7500001 0 0 1 0.86764,1.99987 2.7500001,2.7500001 0 0 1 -0.86509,1.99988 h 4.11448 z"
       style="fill:none;stroke:#000000;stroke-width:0.1;stroke-miterlimit:4;stroke-dasharray:none;stroke-opacity:1" />
    <path
       style="fill:none;stroke:#000000;stroke-width:0.1;stroke-miterlimit:4;stroke-dasharray:none;stroke-opacity:1"
       d="m 80.679072,233.58395 c 16.56877,1.2e-4 30.000388,-13.43151 30.000238,-30.00024 -1.4e-4,-16.56852 -13.431678,-29.99985 -30.000238,-29.99972 -16.56828,1.5e-4 -29.99955,13.4314 -29.9997,29.99972 -1.5e-4,16.56853 13.43121,30.00009 29.9997,30.00024 z m 0,-5.24981 a 1,1 0 0 1 -0.99993,-0.99994 1,1 0 0 1 0.99993,-0.99994 1,1 0 0 1 1.00047,0.99994 1,1 0 0 1 -1.00047,0.99994 z m 6.00017,-19.75022 h -12.00031 v -3.00033 h 12.00031 z m 4.00026,-2.64118 -2.04276,-1.17925 v -2.35852 l 2.04276,-1.17925 2.04224,1.17925 v 2.35852 z m -20.00033,0 -2.04224,-1.17925 v -2.35852 l 2.04224,-1.17925 2.04277,1.17925 v 2.35852 z m 33.749878,-1.35857 a 1,1 0 0 1 -0.99994,-0.99994 1,1 0 0 1 0.99994,-0.99994 1,1 0 0 1 1.00047,0.99994 1,1 0 0 1 -1.00047,0.99994 z m -47.499938,0 a 1,1 0 0 1 -0.99994,-0.99994 1,1 0 0 1 0.99994,-0.99994 1,1 0 0 1 0.99993,0.99994 1,1 0 0 1 -0.99993,0.99994 z m 23.74944,-5.3e-4 c -0.55222,-3e-5 -0.99989,-0.44769 -0.99994,-0.99994 5e-5,-0.55223 0.44772,-0.9999 0.99994,-0.99994 0.55245,-2.6e-4 1.00046,0.4475 1.00046,0.99994 0,0.55245 -0.44801,1.00021 -1.00046,0.99994 z m 6.00069,-2.99982 h -12.00031 v -2.9998 h 12.00031 z m -6.00017,-20.74963 a 1,1 0 0 1 -0.99993,-0.99994 1,1 0 0 1 0.99993,-0.99994 1,1 0 0 1 1.00047,0.99994 1,1 0 0 1 -1.00047,0.99994 z"
       id="path6859" />
    <path
       style="fill:none;stroke:#000000;stroke-width:0.1;stroke-miterlimit:4;stroke-dasharray:none;stroke-opacity:1"
       d="m 90.358512,174.08371 c 14.635688,1e-4 26.500298,-11.86449 26.500188,-26.50019 8e-5,-14.63569 -11.86452,-26.50029 -26.500188,-26.50019 -14.63569,-1e-4 -26.50029,11.8645 -26.50019,26.50019 -1.3e-4,14.6357 11.86447,26.50029 26.50019,26.50019 z m 0,-1.75028 a 1,1 0 0 1 -0.99994,-0.99994 1,1 0 0 1 0.99994,-0.99994 1,1 0 0 1 0.99994,0.99994 1,1 0 0 1 -0.99994,0.99994 z m 0,-3.74964 a 21,21 0 0 1 -21.00027,-21.00027 21,21 0 0 1 21.00027,-20.99975 21,21 0 0 1 20.999738,20.99975 21,21 0 0 1 -20.999738,21.00027 z m 23.749948,-20.00033 a 1,1 0 0 1 -0.99994,-0.99994 1,1 0 0 1 0.99994,-0.99994 1,1 0 0 1 0.99994,0.99994 1,1 0 0 1 -0.99994,0.99994 z m -47.499928,0 a 1,1 0 0 1 -0.99994,-0.99994 1,1 0 0 1 0.99994,-0.99994 1,1 0 0 1 0.99994,0.99994 1,1 0 0 1 -0.99994,0.99994 z m 23.74998,-23.74997 a 1,1 0 0 1 -0.99994,-0.99994 1,1 0 0 1 0.99994,-0.99994 1,1 0 0 1 0.99994,0.99994 1,1 0 0 1 -0.99994,0.99994 z"
       id="path6861" />
    <path
       id="path6863"
       d="m 10.679452,173.83414 c 14.63568,1e-4 26.50029,-11.86449 26.50019,-26.50019 7e-5,-14.63569 -11.86453,-26.50029 -26.50019,-26.50019 -14.6356899,-1e-4 -26.50031,11.8645 -26.5002,26.50019 -1.2e-4,14.6357 11.8644701,26.50029 26.5002,26.50019 z m 0,-1.75028 a 1,1 0 0 1 -0.9999399,-0.99994 1,1 0 0 1 0.9999399,-0.99994 1,1 0 0 1 0.99993,0.99994 1,1 0 0 1 -0.99993,0.99994 z m 0,-3.74964 a 21,21 0 0 1 -21.00028,-21.00027 21,21 0 0 1 21.00028,-20.99975 21,21 0 0 1 20.99974,20.99975 21,21 0 0 1 -20.99974,21.00027 z m 23.74995,-20.00033 a 1,1 0 0 1 -0.99994,-0.99994 1,1 0 0 1 0.99994,-0.99994 1,1 0 0 1 0.99993,0.99994 1,1 0 0 1 -0.99993,0.99994 z m -47.49994,0 a 1,1 0 0 1 -0.99994,-0.99994 1,1 0 0 1 0.99994,-0.99994 1,1 0 0 1 0.99995,0.99994 1,1 0 0 1 -0.99995,0.99994 z m 23.74999,-23.74997 a 1,1 0 0 1 -0.9999399,-0.99994 1,1 0 0 1 0.9999399,-0.99994 1,1 0 0 1 0.99993,0.99994 1,1 0 0 1 -0.99993,0.99994 z"
       style="fill:none;stroke:#000000;stroke-width:0.1;stroke-miterlimit:4;stroke-dasharray:none;stroke-opacity:1" />
    <path
       id="path6865"
       d="m 101.35854,160.58379 a 3.0000001,3.0000001 0 0 0 2.99982,-2.99981 3.0000001,3.0000001 0 0 0 -2.99982,-2.99982 3.0000001,3.0000001 0 0 0 -2.231918,0.99994 h -15.53702 a 3.0000001,3.0000001 0 0 0 -2.23092,-0.99994 3.0000001,3.0000001 0 0 0 -3.00029,2.99982 3.0000001,3.0000001 0 0 0 3.00029,2.99981 3.0000001,3.0000001 0 0 0 2.23192,-0.99993 h 15.53655 a 3.0000001,3.0000001 0 0 0 2.231388,0.99993 z m 0,-1.99987 a 1,1 0 0 1 -0.99994,-0.99994 1,1 0 0 1 0.99994,-0.99994 1,1 0 0 1 0.99994,0.99994 1,1 0 0 1 -0.99994,0.99994 z m -9.999898,0 a 1,1 0 0 1 -0.99994,-0.99994 1,1 0 0 1 0.99994,-0.99994 1,1 0 0 1 0.99994,0.99994 1,1 0 0 1 -0.99994,0.99994 z m -9.99996,0 a 1,1 0 0 1 -0.99994,-0.99994 1,1 0 0 1 0.99994,-0.99994 1,1 0 0 1 0.99994,0.99994 1,1 0 0 1 -0.99994,0.99994 z"
       style="fill:none;stroke:#000000;stroke-width:0.1;stroke-miterlimit:4;stroke-dasharray:none;stroke-opacity:1" />
    <path
       style="fill:none;stroke:#000000;stroke-width:0.1;stroke-miterlimit:4;stroke-dasharray:none;stroke-opacity:1"
       d="m 38.179042,132.33362 v 28.99982 h 1.99988 v 3.00033 h -1.99988 l 1.9e-4,15.00015 12.00001,-7e-5 9e-5,-15.00008 h -2.0004 v -3.00033 h 2.0004 v -28.99982 z m 2.50009,11.00009 h 7.00011 v 8.99997 h -2.50013 v 0.99994 c -4e-5,0.55224 -0.44771,0.99991 -0.99994,0.99994 -0.55223,-3e-5 -0.99991,-0.4477 -0.99994,-0.99994 v -0.99994 h -2.50009 z m 0,12.99973 h 7.00011 v 3.00033 h -7.00011 z m -0.24957,18.00072 c 0.55223,3e-5 0.99991,0.4477 0.99992,0.99994 -4e-5,0.55222 -0.44772,0.99991 -0.99992,0.99994 -0.55247,2.6e-4 -1.00043,-0.44752 -1.00048,-0.99994 2e-5,-0.55245 0.44801,-1.00019 1.00048,-0.99994 z m 7.49978,0 c 0.55225,3e-5 0.99991,0.4477 0.99995,0.99994 -5e-5,0.55222 -0.44773,0.99991 -0.99995,0.99994 -0.55222,-3e-5 -0.9999,-0.44772 -0.99992,-0.99994 2e-5,-0.55224 0.4477,-0.99991 0.99992,-0.99994 z"
       id="path6867" />
    <path
       id="path6869"
       d="m 50.179042,132.33355 v 28.99982 h 1.99988 v 3.00033 h -1.99988 l 2e-4,15.00015 11.99998,-7e-5 1.1e-4,-15.00008 h -2.00041 v -3.00033 h 2.00041 v -28.99982 z m 2.50009,11.00009 h 7.0001 v 8.99997 h -2.50013 v 0.99994 c -3e-5,0.55224 -0.4477,0.99991 -0.99993,0.99994 -0.55223,-3e-5 -0.99991,-0.4477 -0.99994,-0.99994 v -0.99994 h -2.50009 z m 0,12.99973 h 7.0001 v 3.00033 h -7.0001 z m -0.24958,18.00072 c 0.55224,3e-5 0.99992,0.4477 0.99994,0.99994 -5e-5,0.55222 -0.44772,0.99991 -0.99994,0.99994 -0.55246,2.6e-4 -1.00042,-0.44752 -1.00047,-0.99994 2e-5,-0.55245 0.44801,-1.00019 1.00047,-0.99994 z m 7.49979,0 c 0.55224,3e-5 0.99991,0.4477 0.99994,0.99994 -5e-5,0.55222 -0.44773,0.99991 -0.99994,0.99994 -0.55221,-3e-5 -0.99991,-0.44772 -0.99991,-0.99994 0,-0.55224 0.4477,-0.99991 0.99991,-0.99994 z"
       style="fill:none;stroke:#000000;stroke-width:0.1;stroke-miterlimit:4;stroke-dasharray:none;stroke-opacity:1" />
    <path
       style="fill:none;stroke:#000000;stroke-width:0.10000001;stroke-miterlimit:4;stroke-dasharray:none;stroke-opacity:1"
       d="m -108.07043,246.58304 c -2.7e-4,-1.93281 -1.56722,-3.49957 -3.50004,-3.49954 h -0.99994 v -4.49998 h -22.99964 v -0.99994 c 3e-5,-1.93283 -1.56668,-3.49978 -3.49951,-3.50004 -0.9665,0 -6.80404,-0.006 -10.00091,-2e-5 -1.97625,0.004 -3.49962,1.49999 -3.49957,3.50019 v 0.99981 h -27.00043 v 18.99989 h 27.00043 v 0.99941 c 0,2.00057 1.51305,3.50076 3.49957,3.5007 0.89578,0 9.03441,-5.3e-4 10.00091,-5.3e-4 1.93283,-2.4e-4 3.49954,-1.56729 3.49951,-3.50004 v -0.9994 h 22.99964 v -7.50034 h 0.99994 c 1.93301,0 3.50007,-1.567 3.50004,-3.50004 z m -2.49959,0 c 2.6e-4,0.55263 -0.44781,1.00071 -1.00045,1.00047 -0.55245,-6e-5 -1.00021,-0.44802 -0.99994,-1.00047 3e-5,-0.55224 0.44769,-0.99992 0.99994,-0.99994 0.55242,-2.4e-4 1.00042,0.44751 1.00045,0.99994 z m -11.62513,1.50016 -1.18753,2.05674 h -2.37503 l -1.18753,-2.05674 1.18753,-2.05671 h 2.37503 z m -15.87448,-10.50012 c -5e-5,0.55224 -0.44769,0.99991 -0.99993,0.99994 -0.55224,-6e-5 -0.99992,-0.44773 -0.99994,-0.99994 2e-5,-0.55224 0.4477,-0.99992 0.99994,-0.99994 0.55224,2e-5 0.99988,0.4477 0.99993,0.99994 z m 0,21.00027 c -5e-5,0.55224 -0.44769,0.99991 -0.99993,0.99994 -0.55224,-6e-5 -0.99992,-0.44773 -0.99994,-0.99994 2e-5,-0.55224 0.4477,-0.99992 0.99994,-0.99994 0.55224,2e-5 0.99988,0.4477 0.99993,0.99994 z m -4.5005,-23.00015 v 3.00032 h -2.99982 v -3.00032 z m 0,22.00021 v 2.99982 h -2.99982 v -2.99982 z m -5.49992,-19.99983 c -3e-5,0.55224 -0.4477,0.99991 -0.99994,0.99994 -0.55224,-3e-5 -0.99992,-0.4477 -0.99994,-0.99994 -2.5e-4,-0.55243 0.44751,-1.00041 0.99994,-1.00044 0.55243,3e-5 1.00018,0.44801 0.99994,1.00044 z m 0,20.99977 c -3e-5,0.55224 -0.4477,0.99991 -0.99994,0.99994 -0.55224,-3e-5 -0.99992,-0.4477 -0.99994,-0.99994 2e-5,-0.55224 0.4477,-0.99991 0.99994,-0.99994 0.55224,3e-5 0.99991,0.4477 0.99994,0.99994 z m -7.12515,-10.50015 -1.18753,2.05674 h -2.37503 l -1.18753,-2.05674 1.18753,-2.05671 h 2.37503 z m -19.87476,-6.00014 c 2.6e-4,0.55263 -0.44781,1.0007 -1.00044,1.00044 -0.55245,-3e-5 -1.00023,-0.44799 -0.99994,-1.00044 2e-5,-0.55224 0.4477,-0.99989 0.99994,-0.99994 0.55241,-2.6e-4 1.0004,0.44749 1.00044,0.99994 z m 0,12.00031 c -4e-5,0.55242 -0.44803,1.00018 -1.00044,0.99994 -0.55224,-6e-5 -0.99992,-0.44773 -0.99994,-0.99994 2e-5,-0.55224 0.4477,-0.99989 0.99994,-0.99994 0.55241,-2.6e-4 1.0004,0.44749 1.00044,0.99994 z"
       id="path6936" />
    <path
       id="path6940"
       d="m -110.07068,267.08336 h 3.00034 v 1.50016 h 22.499922 v -1.50016 h 2.9998 v -3.00035 h -2.9998 v -1.49964 h -22.499922 v 1.49964 h -3.00034 z"
       style="fill:none;stroke:#000000;stroke-width:0.1;stroke-miterlimit:4;stroke-dasharray:none;stroke-opacity:1" />
    <path
       id="path6942"
       d="m -108.07043,274.58315 c -2.7e-4,-1.93283 -1.56722,-3.49959 -3.50004,-3.49956 h -0.99994 v -4.49997 h -22.99964 v -0.99994 c 3e-5,-1.93283 -1.56668,-3.49978 -3.49951,-3.50004 -0.9665,0 -6.80404,-0.006 -10.00091,-2e-5 -1.97625,0.004 -3.49962,1.49999 -3.49957,3.50019 v 0.99981 h -27.00043 v 18.9999 h 27.00043 v 0.99941 c 0,2.00057 1.51305,3.50076 3.49957,3.50068 0.89578,0 9.03441,0 10.00091,0 1.93283,-2.4e-4 3.49954,-1.56729 3.49951,-3.50004 v -0.99941 h 22.99964 v -7.50033 h 0.99994 c 1.93301,0 3.50007,-1.56699 3.50004,-3.50004 z m -2.49959,0 c 2.6e-4,0.55261 -0.44781,1.00071 -1.00045,1.00047 -0.55245,-8e-5 -1.00021,-0.44802 -0.99994,-1.00047 3e-5,-0.55226 0.44769,-0.99994 0.99994,-0.99994 0.55242,-2.6e-4 1.00042,0.44749 1.00045,0.99994 z m -11.62513,1.50017 -1.18753,2.05673 h -2.37503 l -1.18753,-2.05673 1.18753,-2.05672 h 2.37503 z m -15.87448,-10.50014 c -5e-5,0.55224 -0.44769,0.99991 -0.99993,0.99994 -0.55224,-6e-5 -0.99992,-0.44773 -0.99994,-0.99994 2e-5,-0.55224 0.4477,-0.99992 0.99994,-0.99994 0.55224,2e-5 0.99988,0.4477 0.99993,0.99994 z m 0,21.00028 c -5e-5,0.55224 -0.44769,0.99989 -0.99993,0.99994 -0.55224,-8e-5 -0.99992,-0.44772 -0.99994,-0.99994 2e-5,-0.55223 0.4477,-0.99994 0.99994,-0.99994 0.55224,0 0.99988,0.44771 0.99993,0.99994 z m -4.5005,-23.00016 v 3.00032 h -2.99982 v -3.00032 z m 0,22.00022 v 2.99982 h -2.99982 v -2.99982 z m -5.49992,-19.99984 c -3e-5,0.55224 -0.4477,0.99991 -0.99994,0.99994 -0.55224,-3e-5 -0.99992,-0.4477 -0.99994,-0.99994 -2.5e-4,-0.55243 0.44751,-1.00041 0.99994,-1.00044 0.55243,3e-5 1.00018,0.44801 0.99994,1.00044 z m 0,20.99978 c -3e-5,0.55224 -0.4477,0.99989 -0.99994,0.99994 -0.55224,-5e-5 -0.99992,-0.4477 -0.99994,-0.99994 2e-5,-0.55223 0.4477,-0.99991 0.99994,-0.99994 0.55224,3e-5 0.99991,0.44771 0.99994,0.99994 z m -7.12515,-10.50014 -1.18753,2.05673 h -2.37503 l -1.18753,-2.05673 1.18753,-2.05672 h 2.37503 z m -19.87476,-6.00015 c 2.6e-4,0.55261 -0.44781,1.00068 -1.00044,1.00042 -0.55245,-3e-5 -1.00023,-0.44797 -0.99994,-1.00042 2e-5,-0.55223 0.4477,-0.99991 0.99994,-0.99994 0.55241,0 1.0004,0.44749 1.00044,0.99994 z m 0,12.00031 c -4e-5,0.5524 -0.44803,1.00018 -1.00044,0.99994 -0.55224,-8e-5 -0.99992,-0.44772 -0.99994,-0.99994 2e-5,-0.55223 0.4477,-0.99991 0.99994,-0.99994 0.55241,0 1.0004,0.44749 1.00044,0.99994 z"
       style="fill:none;stroke:#000000;stroke-width:0.10000001;stroke-miterlimit:4;stroke-dasharray:none;stroke-opacity:1" />
    <path
       id="path9498"
       d="m 2.4295521,289.58339 v -6.00014 h -3.99977 v -6.99958 h 3.99977 v -6.00014 H -24.820438 v -2.50014 c 1.9e-4,-1.65689 -1.3429,-3.00019 -2.99983,-3.0003 -1.65707,-2e-4 -3.00047,1.34324 -3.00031,3.0003 v 2.50014 h -40.75 v 2.99982 h -8.99999 v -2.99982 h -8.99995 v 2.99982 h -8.99995 v -2.99982 h -8.999952 v 2.99982 12.99969 3.00035 h 8.999952 v -3.00035 h 8.99995 v 3.00035 h 8.99995 v -3.00035 h 8.99999 v 3.00035 h 40.75 v 0.99994 c 1.2e-4,1.6569 1.34341,2.99995 3.00031,2.99982 1.65676,-1.3e-4 2.99974,-1.34311 2.99983,-2.99982 v -0.99994 z m -30.2498201,1.99988 c -0.55219,-5e-5 -0.99989,-0.44773 -0.99991,-0.99994 2e-5,-0.55224 0.44772,-0.99989 0.99991,-0.99994 0.55228,3e-5 0.99991,0.44767 0.99994,0.99994 -3e-5,0.55224 -0.44766,0.99991 -0.99994,0.99994 z m 27.24999014,-3.99976 c -0.55244004,2.4e-4 -1.00041004,-0.44752 -1.00045004,-0.99994 4e-5,-0.55245 0.44801,-1.0002 1.00045004,-0.99994 0.55225,3e-5 0.99992,0.4477 0.99994,0.99994 -2e-5,0.55224 -0.44769,0.99991 -0.99994,0.99994 z M -65.070718,287.08329 c -0.55223,-3e-5 -0.99989,-0.4477 -0.99992,-0.99994 3e-5,-0.55224 0.44769,-0.99991 0.99992,-0.99994 0.55244,-2.4e-4 1.00042,0.44752 1.00044,0.99994 -2e-5,0.55242 -0.44801,1.00018 -1.00044,0.99994 z m -28.49957,-5.49995 c -0.82835,8e-5 -1.49994,-0.6713 -1.50015,-1.49963 -8e-5,-0.82854 0.6716,-1.50021 1.50015,-1.50013 0.82836,1.5e-4 1.49976,0.67177 1.49968,1.50013 -2e-4,0.82817 -0.67152,1.49947 -1.49968,1.49963 z m 28.49957,-6.49986 c -0.55223,-2e-5 -0.99989,-0.4477 -0.99992,-0.99994 3e-5,-0.55221 0.44769,-0.99989 0.99992,-0.99994 0.55243,-2.4e-4 1.00042,0.44752 1.00044,0.99994 -2e-5,0.55245 -0.44801,1.00018 -1.00044,0.99994 z m 64.50044014,-0.50022 c -0.55242004,2.4e-4 -1.00040004,-0.44749 -1.00045004,-0.99991 4e-5,-0.55245 0.44801,-1.00021 1.00045004,-0.99994 0.55225,2e-5 0.99992,0.4477 0.99994,0.99994 -5e-5,0.55224 -0.44771,0.99988 -0.99994,0.99991 z M -27.820268,269.08334 c -0.55219,-3e-5 -0.99989,-0.44767 -0.99991,-0.99995 2e-5,-0.55219 0.44772,-0.99988 0.99991,-0.99991 0.55228,0 0.99991,0.44769 0.99994,0.99991 -3e-5,0.5523 -0.44766,0.99992 -0.99994,0.99995 z"
       style="fill:none;stroke:#000000;stroke-width:0.10000001;stroke-miterlimit:4;stroke-dasharray:none;stroke-opacity:1" />
    <path
       style="fill:none;stroke:#000000;stroke-width:0.10000001;stroke-miterlimit:4;stroke-dasharray:none;stroke-opacity:1"
       d="m 2.4295521,260.58352 v -6.00014 h -3.99977 v -6.99957 h 3.99977 v -6.00015 H -24.820438 v -2.50013 c 1.9e-4,-1.65689 -1.3429,-3.00019 -2.99983,-3.0003 -1.65707,-2e-4 -3.00047,1.34324 -3.00031,3.0003 v 2.50013 h -40.75 v 2.99982 h -8.99999 v -2.99982 h -8.99995 v 2.99982 h -8.99995 v -2.99982 h -8.999952 v 2.99982 12.99971 3.00033 h 8.999952 v -3.00033 h 8.99995 v 3.00033 h 8.99995 v -3.00033 h 8.99999 v 3.00033 h 40.75 v 0.99994 c 1.2e-4,1.6569 1.34341,2.99997 3.00031,2.99983 1.65676,-1.4e-4 2.99974,-1.3431 2.99983,-2.99983 v -0.99994 z m -30.2498201,1.99988 c -0.55219,-5e-5 -0.99989,-0.44771 -0.99991,-0.99994 2e-5,-0.55222 0.44772,-0.99988 0.99991,-0.99994 0.55228,3e-5 0.99991,0.44769 0.99994,0.99994 -3e-5,0.55225 -0.44766,0.99992 -0.99994,0.99994 z m 27.24999014,-3.99976 c -0.55244004,2.5e-4 -1.00041004,-0.4475 -1.00045004,-0.99994 4e-5,-0.55244 0.44801,-1.00019 1.00045004,-0.99994 0.55225,3e-5 0.99992,0.4477 0.99994,0.99994 -2e-5,0.55224 -0.44769,0.99991 -0.99994,0.99994 z M -65.070718,258.08343 c -0.55223,-4e-5 -0.99989,-0.44771 -0.99992,-0.99994 3e-5,-0.55223 0.44769,-0.99991 0.99992,-0.99995 0.55244,-2.4e-4 1.00042,0.44751 1.00044,0.99995 -2e-5,0.55243 -0.44801,1.00018 -1.00044,0.99994 z m -28.49957,-5.49994 c -0.82835,8e-5 -1.49994,-0.6713 -1.50015,-1.49964 -8e-5,-0.82854 0.6716,-1.50023 1.50015,-1.50015 0.82836,1.8e-4 1.49976,0.67179 1.49968,1.50015 -2e-4,0.82816 -0.67152,1.49946 -1.49968,1.49964 z m 28.49957,-6.49986 c -0.55223,-4e-5 -0.99989,-0.44771 -0.99992,-0.99994 3e-5,-0.55223 0.44769,-0.9999 0.99992,-0.99994 0.55243,-2.4e-4 1.00042,0.44751 1.00044,0.99994 -2e-5,0.55243 -0.44801,1.00018 -1.00044,0.99994 z m 64.50044014,-0.50024 c -0.55242004,2.5e-4 -1.00040004,-0.44748 -1.00045004,-0.99991 4e-5,-0.55244 0.44801,-1.00019 1.00045004,-0.99994 0.55225,3e-5 0.99992,0.4477 0.99994,0.99994 -5e-5,0.55223 -0.44771,0.99988 -0.99994,0.99991 z M -27.820268,240.08348 c -0.55219,-3e-5 -0.99989,-0.44769 -0.99991,-0.99995 2e-5,-0.55219 0.44772,-0.99988 0.99991,-0.99991 0.55228,0 0.99991,0.44769 0.99994,0.99991 -3e-5,0.55229 -0.44766,0.99992 -0.99994,0.99995 z"
       id="path9500" />
    <path
       style="fill:none;stroke:#000000;stroke-width:0.10000001;stroke-miterlimit:4;stroke-dasharray:none;stroke-opacity:1"
       d="m 112.42955,289.58323 v -6.00011 h -3.99976 v -6.99958 h 3.99976 V 270.5834 H 85.179562 v -2.50015 c 1.8e-4,-1.65689 -1.34289,-3.00019 -2.99982,-3.0003 -1.65709,-2e-4 -3.00048,1.34324 -3.00032,3.0003 v 2.50015 h -40.75 v 2.99981 h -8.99999 v -2.99981 h -8.99995 v 2.99981 h -8.99994 V 270.5834 H 2.4295921 v 2.99981 12.9997 3.00032 h 8.9999499 v -3.00032 h 8.99994 v 3.00032 h 8.99995 v -3.00032 h 8.99999 v 3.00032 h 40.75 v 0.99994 c 1.3e-4,1.6569 1.34342,2.99998 3.00032,2.99985 1.65677,-1.4e-4 2.99974,-1.34311 2.99982,-2.99985 v -0.99994 z m -30.249808,1.99988 c -0.55221,-3e-5 -0.99989,-0.4477 -0.99991,-0.99994 2e-5,-0.55221 0.4477,-0.99986 0.99991,-0.99994 0.55226,5e-5 0.99991,0.4477 0.99994,0.99994 -3e-5,0.55226 -0.44768,0.99994 -0.99994,0.99994 z m 27.249988,-3.99976 c -0.55245,2.7e-4 -1.00041,-0.44749 -1.00047,-0.99994 6e-5,-0.55242 0.44802,-1.00018 1.00047,-0.99994 0.55224,5e-5 0.99992,0.4477 0.99994,0.99994 -2e-5,0.55227 -0.4477,0.99991 -0.99994,0.99994 z m -64.500438,-0.50019 c -0.55223,-6e-5 -0.9999,-0.44771 -0.99992,-0.99994 2e-5,-0.55224 0.44769,-0.99992 0.99992,-0.99997 0.55244,-2.4e-4 1.0004,0.44752 1.00044,0.99997 -4e-5,0.55242 -0.44801,1.00017 -1.00044,0.99994 z m -28.49958,-5.49995 c -0.82835,8e-5 -1.49995,-0.6713 -1.50014,-1.49963 -9e-5,-0.82855 0.6716,-1.50024 1.50014,-1.50016 0.82836,1.8e-4 1.49977,0.6718 1.49969,1.50016 -2e-4,0.82814 -0.67152,1.49944 -1.49969,1.49963 z m 28.49958,-6.49986 c -0.55223,-3e-5 -0.9999,-0.4477 -0.99992,-0.99994 2e-5,-0.55224 0.44769,-0.99989 0.99992,-0.99994 0.55243,-2.4e-4 1.0004,0.44752 1.00044,0.99994 -4e-5,0.55242 -0.44801,1.00018 -1.00044,0.99994 z m 64.500438,-0.50025 c -0.55242,2.7e-4 -1.00041,-0.44746 -1.00047,-0.99989 6e-5,-0.55245 0.44802,-1.0002 1.00047,-0.99994 0.55224,3e-5 0.99992,0.44768 0.99994,0.99994 -5e-5,0.55222 -0.44773,0.99987 -0.99994,0.99989 z m -27.249988,-5.49989 c -0.55221,-3e-5 -0.99989,-0.4477 -0.99991,-0.99996 2e-5,-0.55219 0.4477,-0.99988 0.99991,-0.99991 0.55226,0 0.99991,0.44769 0.99994,0.99991 -3e-5,0.55228 -0.44768,0.99993 -0.99994,0.99996 z"
       id="path9502" />
    <path
       id="path9504"
       d="m 112.42955,260.58338 v -6.00014 h -3.99976 v -6.99957 h 3.99976 v -6.00015 H 85.179562 v -2.50013 c 1.8e-4,-1.65689 -1.34289,-3.00019 -2.99982,-3.0003 -1.65709,-2e-4 -3.00048,1.34324 -3.00032,3.0003 v 2.50013 h -40.75 v 2.99982 h -8.99999 v -2.99982 h -8.99995 v 2.99982 h -8.99994 v -2.99982 H 2.4295921 v 2.99982 12.99971 3.00033 h 8.9999499 v -3.00033 h 8.99994 v 3.00033 h 8.99995 v -3.00033 h 8.99999 v 3.00033 h 40.75 v 0.99994 c 1.3e-4,1.6569 1.34342,2.99997 3.00032,2.99983 1.65677,-1.4e-4 2.99974,-1.3431 2.99982,-2.99983 v -0.99994 z m -30.249808,1.99988 c -0.55221,-5e-5 -0.99989,-0.44771 -0.99991,-0.99994 2e-5,-0.55222 0.4477,-0.99988 0.99991,-0.99994 0.55226,3e-5 0.99991,0.44769 0.99994,0.99994 -3e-5,0.55225 -0.44768,0.99992 -0.99994,0.99994 z m 27.249988,-3.99976 c -0.55245,2.5e-4 -1.00041,-0.4475 -1.00047,-0.99994 6e-5,-0.55244 0.44802,-1.00019 1.00047,-0.99994 0.55224,3e-5 0.99992,0.4477 0.99994,0.99994 -2e-5,0.55224 -0.4477,0.99991 -0.99994,0.99994 z m -64.500438,-0.50021 c -0.55223,-4e-5 -0.9999,-0.44771 -0.99992,-0.99994 2e-5,-0.55223 0.44769,-0.99991 0.99992,-0.99995 0.55244,-2.4e-4 1.0004,0.44751 1.00044,0.99995 -4e-5,0.55243 -0.44801,1.00018 -1.00044,0.99994 z m -28.49958,-5.49994 c -0.82835,8e-5 -1.49995,-0.6713 -1.50014,-1.49964 -9e-5,-0.82854 0.6716,-1.50023 1.50014,-1.50015 0.82836,1.8e-4 1.49977,0.67179 1.49969,1.50015 -2e-4,0.82816 -0.67152,1.49946 -1.49969,1.49964 z m 28.49958,-6.49986 c -0.55223,-4e-5 -0.9999,-0.44771 -0.99992,-0.99994 2e-5,-0.55223 0.44769,-0.9999 0.99992,-0.99994 0.55243,-2.4e-4 1.0004,0.44751 1.00044,0.99994 -4e-5,0.55243 -0.44801,1.00018 -1.00044,0.99994 z m 64.500438,-0.50024 c -0.55242,2.5e-4 -1.00041,-0.44748 -1.00047,-0.99991 6e-5,-0.55244 0.44802,-1.00019 1.00047,-0.99994 0.55224,3e-5 0.99992,0.4477 0.99994,0.99994 -5e-5,0.55223 -0.44773,0.99988 -0.99994,0.99991 z m -27.249988,-5.49991 c -0.55221,-3e-5 -0.99989,-0.44769 -0.99991,-0.99995 2e-5,-0.55219 0.4477,-0.99988 0.99991,-0.99991 0.55226,0 0.99991,0.44769 0.99994,0.99991 -3e-5,0.55229 -0.44768,0.99992 -0.99994,0.99995 z"
       style="fill:none;stroke:#000000;stroke-width:0.10000001;stroke-miterlimit:4;stroke-dasharray:none;stroke-opacity:1" />
    <path
       style="fill:none;stroke:#000000;stroke-width:0.1;stroke-miterlimit:4;stroke-dasharray:none;stroke-opacity:1"
       d="m -178.57044,232.58352 h 2.99982 24.99997 2.9998 v -3.00034 h -2.9998 v -1.99988 h 2.9998 v -6.00016 h -2.9998 v -1.99988 h -24.99997 v 1.99988 h -2.99982 v 6.00016 h 2.99982 v 1.99988 h -2.99982 z m 10.63626,-7.25021 v -2.37504 l 2.05674,-1.18753 2.05672,1.18753 v 2.37504 l -2.05672,1.18754 z m 2.80656,4.81262 v -2.37504 l 2.05674,-1.18753 2.05722,1.18753 v 2.37504 l -2.05722,1.18754 z m 2.80708,-4.81262 v -2.37504 l 2.05672,-1.18753 2.05672,1.18753 v 2.37504 l -2.05672,1.18754 z"
       id="path9506" />
    <path
       style="fill:none;stroke:#000000;stroke-width:0.1;stroke-miterlimit:4;stroke-dasharray:none;stroke-opacity:1"
       d="m -168.57036,178.58369 v 31.4999 c -1.1e-4,2.76137 2.23782,5.00004 4.9992,5.00024 2.76157,1.1e-4 5.00084,-2.23861 5.00072,-5.00024 v -1.18494 l -1.52861,-2.64685 a 1.7499999,1.7499999 0 0 1 -0.34672,-1.04284 1.7499999,1.7499999 0 0 1 1.75025,-1.75026 1.7499999,1.7499999 0 0 1 0.12508,0.006 v -24.88118 h -1.99988 v 2.99983 h -6.00066 v -2.99983 z m 4.9992,29.50001 c 1.10464,-2e-4 2.00084,0.89524 2.0009,1.99989 2e-4,1.10487 -0.89603,2.00061 -2.0009,2.00041 -1.1047,-5e-5 -2.00011,-0.89571 -1.99988,-2.00041 5e-5,-1.10448 0.8954,-1.99983 1.99988,-1.99989 z"
       id="path9508" />
    <path
       id="path9510"
       d="m -156.57036,178.58369 v 31.4999 c -1.1e-4,2.76137 2.23782,5.00004 4.9992,5.00024 2.76157,1.1e-4 5.00083,-2.23861 5.00072,-5.00024 v -1.18494 l -1.52861,-2.64685 a 1.7499999,1.7499999 0 0 1 -0.34672,-1.04284 1.7499999,1.7499999 0 0 1 1.75025,-1.75026 1.7499999,1.7499999 0 0 1 0.12508,0.006 v -24.88118 h -1.99988 v 2.99983 h -6.00066 v -2.99983 z m 4.9992,29.50001 c 1.10465,-2e-4 2.00084,0.89524 2.0009,1.99989 1.9e-4,1.10487 -0.89603,2.00061 -2.0009,2.00041 -1.1047,-5e-5 -2.00011,-0.89571 -1.99988,-2.00041 5e-5,-1.10448 0.8954,-1.99983 1.99988,-1.99989 z"
       style="fill:none;stroke:#000000;stroke-width:0.1;stroke-miterlimit:4;stroke-dasharray:none;stroke-opacity:1" />
    <path
       style="fill:none;stroke:#000000;stroke-width:0.1;stroke-miterlimit:4;stroke-dasharray:none;stroke-opacity:1"
       d="m -81.570418,267.08352 h 3.00035 v 1.50016 h 22.49992 v -1.50016 h 2.9998 v -3.00035 h -2.9998 v -1.49964 h -22.49992 v 1.49964 h -3.00035 z"
       id="path9514" />
    <path
       style="fill:none;stroke:#000000;stroke-width:0.1;stroke-miterlimit:4;stroke-dasharray:none;stroke-opacity:1"
       d="m -21.071038,267.08336 h 3.00035 v 1.50016 H 4.4292421 v -1.50016 h 2.9998 v -3.00035 h -2.9998 v -1.49964 H -18.070688 v 1.49964 h -3.00035 z"
       id="path9516" />
    <path
       id="path9518"
       d="m 7.4292321,267.08352 h 3.0003599 v 1.50016 h 22.49992 v -1.50016 h 2.99979 v -3.00035 h -2.99979 v -1.49964 h -22.49992 v 1.49964 H 7.4292321 Z"
       style="fill:none;stroke:#000000;stroke-width:0.1;stroke-miterlimit:4;stroke-dasharray:none;stroke-opacity:1" />
  </g>
</svg>
