<?xml version="1.0" encoding="UTF-8" standalone="no"?>
<svg
   xmlns:dc="http://purl.org/dc/elements/1.1/"
   xmlns:cc="http://creativecommons.org/ns#"
   xmlns:rdf="http://www.w3.org/1999/02/22-rdf-syntax-ns#"
   xmlns:svg="http://www.w3.org/2000/svg"
   xmlns="http://www.w3.org/2000/svg"
   id="svg1070"
   version="1.1"
   viewBox="0 0 298.10004 196.59996"
   height="196.59996mm"
   width="298.10004mm">
  <defs
     id="defs1064" />
  <metadata
     id="metadata1067">
    <rdf:RDF>
      <cc:Work
         rdf:about="">
        <dc:format>image/svg+xml</dc:format>
        <dc:type
           rdf:resource="http://purl.org/dc/dcmitype/StillImage" />
        <dc:title></dc:title>
      </cc:Work>
    </rdf:RDF>
  </metadata>
  <g
     transform="translate(2.0498512,-288.95)"
     id="layer1">
    <path
       id="rect1656"
       d="m 115.99982,384.99961 v 3.00034 h -11.99978 v 22.49992 h 11.99978 v 2.99981 H 130 v -2.99981 h 16.00006 v 2.99981 h 13.99966 v -2.99981 h 12.0003 v -22.49992 h -12.0003 v -3.00034 h -13.99966 v 3.00034 H 130 v -3.00034 z m 22.00021,4.00028 a 1.5,1.5 0 0 1 1.50017,1.49965 1.5,1.5 0 0 1 -1.50017,1.50016 1.5,1.5 0 0 1 -1.50017,-1.50016 1.5,1.5 0 0 1 1.50017,-1.49965 z m -20.24993,6.49986 a 3.7499999,3.7499999 0 0 1 3.74965,3.74964 3.7499999,3.7499999 0 0 1 -3.74965,3.75016 3.7499999,3.7499999 0 0 1 -3.75015,-3.75016 3.7499999,3.7499999 0 0 1 3.75015,-3.74964 z m 20.24993,10.99984 a 1.5,1.5 0 0 1 1.50017,1.50017 1.5,1.5 0 0 1 -1.50017,1.49965 1.5,1.5 0 0 1 -1.50017,-1.49965 1.5,1.5 0 0 1 1.50017,-1.50017 z"
       style="fill:none;fill-opacity:1;stroke:#000000;stroke-width:0.1;stroke-miterlimit:4;stroke-dasharray:none;stroke-opacity:1" />
    <path
       id="rect2716"
       transform="matrix(0.26458333,0,0,0.26458333,-107.77056,25.95)"
       d="m 445.11719,1032 v 325.0391 h 869.29101 v -34.0157 h 98.2695 v -15.1172 h -98.2695 v -11.3398 h 98.2695 v -15.1172 h -98.2695 v -11.3398 h 98.2695 v -151.1797 h -98.2695 v -11.3399 h 98.2695 v -15.1171 h -98.2695 v -11.3399 h 98.2695 v -15.1172 h -98.2695 V 1032 Z m 34.01564,32.1266 c 3.13077,-4e-4 5.66915,2.5371 5.66992,5.6679 3.4e-4,3.1315 -2.53837,5.6702 -5.66992,5.6699 -3.13078,-7e-4 -5.66831,-2.5391 -5.66797,-5.6699 7.7e-4,-3.13 2.53797,-5.6672 5.66797,-5.6679 z m 854.17377,32.1254 c 2.0872,10e-5 3.7791,1.692 3.7793,3.7792 10e-4,2.088 -1.6913,3.7812 -3.7793,3.7813 -2.088,-10e-5 -3.7803,-1.6933 -3.7793,-3.7813 2e-4,-2.0872 1.6921,-3.7791 3.7793,-3.7792 z m 30.2364,0 c 2.0872,10e-5 3.7791,1.692 3.7793,3.7792 10e-4,2.088 -1.6913,3.7812 -3.7793,3.7813 -2.088,-10e-5 -3.7803,-1.6933 -3.7793,-3.7813 2e-4,-2.0872 1.6921,-3.7791 3.7793,-3.7792 z m -823.93753,7.5605 h 52.91406 v 11.3379 h -52.91406 z m 113.38672,0 h 52.91211 v 11.3379 h -52.91211 z m 211.65234,15.1172 c 2.08796,-9e-4 3.78112,1.6913 3.78125,3.7793 -1.3e-4,2.088 -1.69329,3.7802 -3.78125,3.7793 -2.0872,-10e-5 -3.77917,-1.6921 -3.7793,-3.7793 1.3e-4,-2.0872 1.6921,-3.7792 3.7793,-3.7793 z m 147.40237,0 c 2.0872,10e-5 3.7792,1.6921 3.7793,3.7793 -10e-5,2.0872 -1.6921,3.7792 -3.7793,3.7793 -2.0872,-10e-5 -3.7792,-1.6921 -3.7793,-3.7793 10e-5,-2.0872 1.6921,-3.7792 3.7793,-3.7793 z m -557.48049,22.6777 h 11.33789 v 37.7949 h -11.33789 z m 317.48047,0 h 11.33789 v 37.7949 h -11.33789 z m 515.90622,18.8965 h 120.9434 v 68.0313 h -120.9434 z m -827.71677,30.2363 c 2.08719,10e-5 3.77916,1.6921 3.77929,3.7793 -1.3e-4,2.0872 -1.6921,3.7792 -3.77929,3.7793 -2.0872,-10e-5 -3.77917,-1.6921 -3.7793,-3.7793 1.3e-4,-2.0872 1.6921,-3.7792 3.7793,-3.7793 z m 317.48047,0 c 2.08719,10e-5 3.77916,1.6921 3.77929,3.7793 -1.3e-4,2.0872 -1.6921,3.7792 -3.77929,3.7793 -2.0872,-10e-5 -3.77917,-1.6921 -3.7793,-3.7793 1.3e-4,-2.0872 1.6921,-3.7792 3.7793,-3.7793 z m -323.15039,18.8985 h 11.33789 v 37.7949 h -11.33789 z m 317.48047,0 h 11.33789 v 37.7949 h -11.33789 z m -232.44141,64.2519 h 52.91406 v 11.3379 h -52.91406 z m 113.38672,0 h 52.91211 v 11.3379 h -52.91211 z m 680.31441,11.3379 c 2.0872,10e-5 3.7792,1.6921 3.7793,3.7793 -10e-5,2.0872 -1.6921,3.7792 -3.7793,3.7793 -2.0872,-10e-5 -3.7792,-1.6921 -3.7793,-3.7793 10e-5,-2.0872 1.6921,-3.7792 3.7793,-3.7793 z m 30.2364,0 c 2.0872,10e-5 3.7792,1.6921 3.7793,3.7793 -10e-5,2.0872 -1.6921,3.7792 -3.7793,3.7793 -2.0872,-10e-5 -3.7792,-1.6921 -3.7793,-3.7793 10e-5,-2.0872 1.6921,-3.7792 3.7793,-3.7793 z m -884.41017,28.3461 c 3.13077,-3e-4 5.66915,2.5372 5.66992,5.6679 3.9e-4,3.1316 -2.53833,5.6704 -5.66992,5.67 -3.13082,-7e-4 -5.66836,-2.5391 -5.66797,-5.67 7.7e-4,-3.13 2.53797,-5.6671 5.66797,-5.6679 z"
       style="fill:none;fill-opacity:1;stroke:#000000;stroke-width:0.37795275;stroke-miterlimit:4;stroke-dasharray:none;stroke-opacity:1" />
    <path
       id="rect895"
       d="m 8.0001488,388.99995 v 85.99993 H 100.00022 v -15.58719 a 1.4999999,1.4999999 0 0 1 -0.500229,0.0873 1.4999999,1.4999999 0 0 1 -1.500169,-1.50016 1.4999999,1.4999999 0 0 1 1.500169,-1.50016 1.4999999,1.4999999 0 0 1 0.500229,0.0878 v -49.1753 a 1.4999999,1.4999999 0 0 1 -0.500229,0.0879 1.4999999,1.4999999 0 0 1 -1.500169,-1.50019 1.4999999,1.4999999 0 0 1 1.500169,-1.50016 1.4999999,1.4999999 0 0 1 0.500229,0.0879 v -15.58769 z m 8.9999682,8.50024 c 0.828353,-8e-5 1.499974,0.6713 1.500167,1.49966 9.5e-5,0.82854 -0.671611,1.50027 -1.500167,1.50016 -0.828357,-1.8e-4 -1.499745,-0.6718 -1.49965,-1.50016 1.93e-4,-0.82815 0.671497,-1.49945 1.49965,-1.49966 z m 61.999833,6.99958 a 1.5,1.5 0 0 1 1.500167,1.50016 1.5,1.5 0 0 1 -1.500167,1.50019 1.5,1.5 0 0 1 -1.500166,-1.50019 1.5,1.5 0 0 1 1.500166,-1.50016 z m 5.00021,0.50022 a 1,1 0 0 1 0.99994,0.99994 1,1 0 0 1 -0.99994,0.99994 1,1 0 0 1 -0.999937,-0.99994 1,1 0 0 1 0.999937,-0.99994 z m -50.999985,3.00035 h 14.000178 v 2.99982 H 33.000175 Z m 30.000234,0 h 13.999662 v 2.99982 H 63.000409 Z m -52.500154,9.9999 h 2.999817 v 9.9999 h -2.999817 z m 84.00004,0 h 2.999817 v 9.9999 h -2.999817 z m -82.499874,12.99972 c 0.552239,3e-5 0.999908,0.4477 0.99994,0.99994 -3.2e-5,0.55224 -0.447701,0.99991 -0.99994,0.99994 -0.552235,-3e-5 -0.999905,-0.4477 -0.999937,-0.99994 3.2e-5,-0.55224 0.447702,-0.99991 0.999937,-0.99994 z m 84.00004,0 c 0.552239,3e-5 0.999908,0.4477 0.99994,0.99994 -3.2e-5,0.55224 -0.447701,0.99991 -0.99994,0.99994 -0.552238,-3e-5 -0.999905,-0.4477 -0.999937,-0.99994 3.2e-5,-0.55224 0.447699,-0.99991 0.999937,-0.99994 z m -85.500206,5.00023 h 2.999817 v 9.9999 h -2.999817 z m 84.00004,0 h 2.999817 v 9.9999 h -2.999817 z m -61.50012,16.99998 h 14.000178 v 2.99982 H 33.000175 Z m 30.000234,0 h 13.999662 v 2.99982 H 63.000409 Z m 15.999541,3.49954 a 1.5,1.5 0 0 1 1.500167,1.50016 1.5,1.5 0 0 1 -1.500167,1.50016 1.5,1.5 0 0 1 -1.500166,-1.50016 1.5,1.5 0 0 1 1.500166,-1.50016 z m 5.00021,0.50022 a 1,1 0 0 1 0.99994,0.99994 1,1 0 0 1 -0.99994,0.99994 1,1 0 0 1 -0.999937,-0.99994 1,1 0 0 1 0.999937,-0.99994 z m -67.000043,6.49986 c 0.828353,-8e-5 1.499974,0.6713 1.500167,1.49966 8.7e-5,0.82854 -0.671616,1.50024 -1.500167,1.50016 -0.828352,-1.9e-4 -1.499737,-0.67183 -1.49965,-1.50016 1.93e-4,-0.82815 0.671497,-1.49948 1.49965,-1.49966 z"
       style="fill:none;fill-opacity:1;stroke:#000000;stroke-width:0.1;stroke-miterlimit:4;stroke-dasharray:none;stroke-opacity:1" />
    <path
       id="rect913"
       d="m 135.50003,429.99961 v 3.00033 h -3.00033 v 9.99991 h 3.00033 v 2.99981 h 22.49992 v -2.99981 h 2.99982 v -9.99991 h -2.99982 v -3.00033 z"
       style="fill:none;fill-opacity:1;stroke:#000000;stroke-width:0.1;stroke-miterlimit:4;stroke-dasharray:none;stroke-dashoffset:0;stroke-opacity:1" />
    <path
       style="fill:none;fill-opacity:1;stroke:#000000;stroke-width:0.1;stroke-miterlimit:4;stroke-dasharray:none;stroke-dashoffset:0;stroke-opacity:1"
       d="m 135.50003,413.99995 v 3.00033 h -3.00033 v 9.99991 h 3.00033 V 430 h 22.49992 v -2.99981 h 2.99982 v -9.99991 h -2.99982 v -3.00033 z"
       id="path918" />
    <path
       style="fill:none;fill-opacity:1;stroke:#000000;stroke-width:0.1;stroke-miterlimit:4;stroke-dasharray:none;stroke-dashoffset:0;stroke-opacity:1"
       d="m 104,429.99961 v 3.00034 h -3.00033 v 9.9999 H 104 v 2.99982 h 22.49992 v -2.99982 h 2.99982 v -9.9999 h -2.99982 v -3.00034 z"
       id="path920" />
    <path
       id="path922"
       d="m 104,413.99995 v 3.00033 h -3.00033 v 9.99991 H 104 V 430 h 22.49992 v -2.99981 h 2.99982 v -9.99991 h -2.99982 v -3.00033 z"
       style="fill:none;fill-opacity:1;stroke:#000000;stroke-width:0.1;stroke-miterlimit:4;stroke-dasharray:none;stroke-dashoffset:0;stroke-opacity:1" />
    <path
       style="fill:none;fill-opacity:1;stroke:#000000;stroke-width:0.1;stroke-miterlimit:4;stroke-dasharray:none;stroke-opacity:1"
       d="m 114.99973,446.99988 v 3.00034 h -11.99978 v 22.49992 h 11.99978 v 2.99981 h 14.00018 v -2.99981 h 16.00006 v 2.99981 h 13.99966 v -2.99981 h 12.0003 v -22.49992 h -12.0003 v -3.00034 h -13.99966 v 3.00034 h -16.00006 v -3.00034 z m 22.00021,4.00028 a 1.5,1.5 0 0 1 1.50017,1.49965 1.5,1.5 0 0 1 -1.50017,1.50016 1.5,1.5 0 0 1 -1.50017,-1.50016 1.5,1.5 0 0 1 1.50017,-1.49965 z m -20.24993,6.49986 a 3.7499999,3.7499999 0 0 1 3.74965,3.74964 3.7499999,3.7499999 0 0 1 -3.74965,3.75016 3.7499999,3.7499999 0 0 1 -3.75015,-3.75016 3.7499999,3.7499999 0 0 1 3.75015,-3.74964 z m 20.24993,10.99984 a 1.5,1.5 0 0 1 1.50017,1.50017 1.5,1.5 0 0 1 -1.50017,1.49965 1.5,1.5 0 0 1 -1.50017,-1.49965 1.5,1.5 0 0 1 1.50017,-1.50017 z"
       id="path939" />
    <path
       id="path2862"
       d="m 249.99989,425.00004 v 2.99982 h -2.99982 v 3.99976 h 2.99982 v 3.00033 h 12.00031 v -3.00033 h 2.99982 v -3.99976 h -2.99982 v -2.99982 z m 2.00038,3.99976 a 1,1 0 0 1 0.99994,0.99994 1,1 0 0 1 -0.99994,0.99994 1,1 0 0 1 -0.99994,-0.99994 1,1 0 0 1 0.99994,-0.99994 z m 8.00005,0 a 1,1 0 0 1 0.99994,0.99994 1,1 0 0 1 -0.99994,0.99994 1,1 0 0 1 -0.99994,-0.99994 1,1 0 0 1 0.99994,-0.99994 z"
       style="fill:none;fill-opacity:1;stroke:#000000;stroke-width:0.1;stroke-miterlimit:4;stroke-dasharray:none;stroke-dashoffset:0;stroke-opacity:1" />
    <rect
       style="fill:none;fill-opacity:1;stroke:#000000;stroke-width:0.1;stroke-miterlimit:4;stroke-dasharray:none;stroke-dashoffset:0;stroke-opacity:1"
       id="rect2929"
       width="30"
       height="12.00001"
       x="179"
       y="335.99994" />
    <path
       id="rect2278"
       d="m 230,385 v 59.99995 h 56.0002 V 385 Z m 7.00008,2.99981 h 27.99985 v 3.99976 h -27.99985 z m -2.49994,0.99994 c 0.55224,3e-5 0.99991,0.4477 0.99994,0.99994 -3e-5,0.55224 -0.4477,0.99991 -0.99994,0.99994 -0.55224,-3e-5 -0.99991,-0.4477 -0.99994,-0.99994 3e-5,-0.55224 0.4477,-0.99991 0.99994,-0.99994 z m 32.5002,0 c 0.55224,3e-5 0.99991,0.4477 0.99994,0.99994 -3e-5,0.55224 -0.4477,0.99991 -0.99994,0.99994 -0.55244,2.6e-4 -1.00044,-0.4475 -1.00047,-0.99994 3e-5,-0.55244 0.44803,-1.0002 1.00047,-0.99994 z m 9.9999,5.75004 c 0.55221,3e-5 0.99991,0.44767 0.99994,0.99994 0,0.55245 -0.44752,1.00094 -0.99994,1.00097 -0.55264,0 -1.00076,-0.44836 -1.00047,-1.00097 2e-5,-0.55242 0.44802,-1.00021 1.00047,-0.99994 z m -40.00016,0.25011 h 27.99985 v 40.00015 h -27.99985 v -7.00009 h -3.99976 v -25.99997 h 3.99976 z m 36.99981,10.99985 h 6.00017 v 3.81062 c 1.8542,1.07062 2.99754,3.04868 2.99982,5.18986 2.1e-4,3.31356 -2.68603,5.99941 -5.99964,5.99964 -3.31378,9e-5 -6.00022,-2.6858 -6.00017,-5.99964 0.003,-2.14039 1.14623,-4.11755 2.99982,-5.18779 z m 3.00035,15.50034 1.73167,0.99994 v 1.99988 l -1.73167,0.99994 -1.7322,-0.99994 v -1.99988 z m -40.00016,16.49977 h 27.99985 v 3.99976 h -27.99985 z m -2.49994,0.99994 c 0.55224,3e-5 0.99991,0.4477 0.99994,0.99994 -3e-5,0.55224 -0.4477,0.99991 -0.99994,0.99994 -0.55224,-3e-5 -0.99991,-0.4477 -0.99994,-0.99994 3e-5,-0.55224 0.4477,-0.99991 0.99994,-0.99994 z m 32.5002,0 c 0.55224,3e-5 0.99991,0.4477 0.99994,0.99994 -3e-5,0.55224 -0.4477,0.99991 -0.99994,0.99994 -0.55244,2.6e-4 -1.00044,-0.4475 -1.00047,-0.99994 3e-5,-0.55244 0.44803,-1.0002 1.00047,-0.99994 z"
       style="fill:none;fill-opacity:1;stroke:#000000;stroke-width:0.1;stroke-miterlimit:4;stroke-dasharray:none;stroke-dashoffset:0;stroke-opacity:1" />
    <path
       id="path3807"
       d="m 200.49973,406.99992 v 16.00006 l -2.5001,-0.004 v 3.00395 h -13.49944 v 5.99964 h 13.49944 v 2.99981 L 209,434.9999 v -12.0003 h -2.5001 v -15.99968 z m 3.00035,1.75028 c 0.55221,6e-5 0.99994,0.44768 0.99994,0.99994 0,0.55222 -0.44773,0.99988 -0.99994,0.99994 -0.55248,2.1e-4 -1.00044,-0.44751 -1.00047,-0.99994 3e-5,-0.55245 0.44802,-1.00017 1.00047,-0.99994 z m 0,4.9997 c 0.55245,6e-5 1.0002,0.44804 0.99994,1.00045 0,0.55227 -0.44773,0.99992 -0.99994,0.99994 -0.55245,2.4e-4 -1.00044,-0.44754 -1.00047,-0.99994 -2.6e-4,-0.55263 0.44783,-1.00071 1.00047,-1.00045 z m 0,4.00027 c 0.55221,6e-5 0.99994,0.44773 0.99994,0.99994 0,0.55227 -0.44773,0.99992 -0.99994,0.99994 -0.55248,2.7e-4 -1.00044,-0.44749 -1.00047,-0.99994 3e-5,-0.55242 0.44802,-1.00015 1.00047,-0.99994 z m 0,3.99976 c 0.55224,3e-5 0.99994,0.44768 0.99994,0.99994 0,0.55243 -0.44749,1.00045 -0.99994,1.00045 -0.55264,2.5e-4 -1.00073,-0.44785 -1.00047,-1.00045 3e-5,-0.55245 0.44802,-1.0002 1.00047,-0.99994 z m 0,3.75016 c 1.93278,2.5e-4 3.49951,1.56724 3.49951,3.50004 0,1.93283 -1.5667,3.49975 -3.49951,3.50004 -1.93307,3e-5 -3.50007,-1.567 -3.50004,-3.50004 -3e-5,-1.93304 1.56694,-3.50011 3.50004,-3.50004 z m -16.00007,2.5001 a 1,1 0 0 1 0.99994,0.99994 1,1 0 0 1 -0.99994,0.99994 1,1 0 0 1 -0.99994,-0.99994 1,1 0 0 1 0.99994,-0.99994 z"
       style="fill:none;stroke:#000000;stroke-width:0.10000001;stroke-miterlimit:4;stroke-dasharray:none;stroke-opacity:1" />
    <path
       id="path6791"
       d="m 174,384.99995 v 59.99995 h 56.0002 v -59.99995 z m 7.00008,2.99981 h 27.99985 v 3.99976 h -27.99985 z m -2.50014,0.99994 c 0.55224,3e-5 0.99991,0.4477 0.99994,0.99994 -3e-5,0.55224 -0.4477,0.99991 -0.99994,0.99994 -0.55224,-3e-5 -0.99991,-0.4477 -0.99994,-0.99994 3e-5,-0.55224 0.4477,-0.99991 0.99994,-0.99994 z m 32.5004,0 c 0.55224,3e-5 0.99991,0.4477 0.99994,0.99994 -3e-5,0.55224 -0.4477,0.99991 -0.99994,0.99994 -0.55244,2.6e-4 -1.00044,-0.4475 -1.00047,-0.99994 3e-5,-0.55244 0.44803,-1.0002 1.00047,-0.99994 z m -30.00026,6.00015 h 27.99985 v 40.00014 h -27.99985 v -7.00009 h -3.99976 v -25.99996 h 3.99976 z m 33.74988,3.24993 h 12.50003 v 22.75003 h -12.50003 z m -33.74988,39.75003 h 27.99985 v 3.99976 h -27.99985 z m -2.50002,0.99994 c 0.55224,3e-5 0.99991,0.4477 0.99994,0.99994 -3e-5,0.55224 -0.4477,0.99991 -0.99994,0.99994 -0.55224,-3e-5 -0.99991,-0.4477 -0.99994,-0.99994 3e-5,-0.55224 0.4477,-0.99991 0.99994,-0.99994 z m 32.50028,0 c 0.55224,3e-5 0.99991,0.4477 0.99994,0.99994 -3e-5,0.55224 -0.4477,0.99991 -0.99994,0.99994 -0.55244,2.6e-4 -1.00044,-0.4475 -1.00047,-0.99994 3e-5,-0.55244 0.44803,-1.0002 1.00047,-0.99994 z"
       style="fill:none;fill-opacity:1;stroke:#000000;stroke-width:0.1;stroke-miterlimit:4;stroke-dasharray:none;stroke-dashoffset:0;stroke-opacity:1" />
    <path
       style="fill:none;fill-opacity:1;stroke:#000000;stroke-width:0.1;stroke-miterlimit:4;stroke-dasharray:none;stroke-dashoffset:0;stroke-opacity:1"
       d="m 249.99989,415.00037 v 2.99982 h -2.99982 v 3.99976 h 2.99982 v 3.00033 h 12.00031 v -3.00033 h 2.99982 v -3.99976 h -2.99982 v -2.99982 z m 2.00038,3.99976 a 1,1 0 0 1 0.99994,0.99994 1,1 0 0 1 -0.99994,0.99994 1,1 0 0 1 -0.99994,-0.99994 1,1 0 0 1 0.99994,-0.99994 z m 8.00005,0 a 1,1 0 0 1 0.99994,0.99994 1,1 0 0 1 -0.99994,0.99994 1,1 0 0 1 -0.99994,-0.99994 1,1 0 0 1 0.99994,-0.99994 z"
       id="path6868" />
    <path
       id="path6870"
       d="m 249.99989,405.00037 v 2.99982 h -2.99982 v 3.99976 h 2.99982 v 3.00033 h 12.00031 v -3.00033 h 2.99982 v -3.99976 h -2.99982 v -2.99982 z m 2.00038,3.99976 a 1,1 0 0 1 0.99994,0.99994 1,1 0 0 1 -0.99994,0.99994 1,1 0 0 1 -0.99994,-0.99994 1,1 0 0 1 0.99994,-0.99994 z m 8.00005,0 a 1,1 0 0 1 0.99994,0.99994 1,1 0 0 1 -0.99994,0.99994 1,1 0 0 1 -0.99994,-0.99994 1,1 0 0 1 0.99994,-0.99994 z"
       style="fill:none;fill-opacity:1;stroke:#000000;stroke-width:0.1;stroke-miterlimit:4;stroke-dasharray:none;stroke-dashoffset:0;stroke-opacity:1" />
    <path
       style="fill:none;fill-opacity:1;stroke:#000000;stroke-width:0.1;stroke-miterlimit:4;stroke-dasharray:none;stroke-dashoffset:0;stroke-opacity:1"
       d="m 249.99989,395.00037 v 2.99982 h -2.99982 v 3.99976 h 2.99982 v 3.00033 h 12.00031 v -3.00033 h 2.99982 v -3.99976 h -2.99982 v -2.99982 z m 2.00038,3.99976 a 1,1 0 0 1 0.99994,0.99994 1,1 0 0 1 -0.99994,0.99994 1,1 0 0 1 -0.99994,-0.99994 1,1 0 0 1 0.99994,-0.99994 z m 8.00005,0 a 1,1 0 0 1 0.99994,0.99994 1,1 0 0 1 -0.99994,0.99994 1,1 0 0 1 -0.99994,-0.99994 1,1 0 0 1 0.99994,-0.99994 z"
       id="path6872" />
    <path
       id="path6874"
       d="m 246.99978,397.99964 h -2.99982 v -2.99982 h -3.99976 v 2.99982 h -3.00033 v 12.00031 h 3.00033 v 2.99982 h 3.99976 v -2.99982 h 2.99982 z m -3.99976,2.00038 a 1,1 0 0 1 -0.99994,0.99994 1,1 0 0 1 -0.99994,-0.99994 1,1 0 0 1 0.99994,-0.99994 1,1 0 0 1 0.99994,0.99994 z m 0,8.00005 a 1,1 0 0 1 -0.99994,0.99994 1,1 0 0 1 -0.99994,-0.99994 1,1 0 0 1 0.99994,-0.99994 1,1 0 0 1 0.99994,0.99994 z"
       style="fill:none;fill-opacity:1;stroke:#000000;stroke-width:0.1;stroke-miterlimit:4;stroke-dasharray:none;stroke-dashoffset:0;stroke-opacity:1" />
    <path
       style="fill:none;fill-opacity:1;stroke:#000000;stroke-width:0.1;stroke-miterlimit:4;stroke-dasharray:none;stroke-dashoffset:0;stroke-opacity:1"
       d="m 246.99978,419.99964 h -2.99982 v -2.99982 h -3.99976 v 2.99982 h -3.00033 v 12.00031 h 3.00033 v 2.99982 h 3.99976 v -2.99982 h 2.99982 z m -3.99976,2.00038 a 1,1 0 0 1 -0.99994,0.99994 1,1 0 0 1 -0.99994,-0.99994 1,1 0 0 1 0.99994,-0.99994 1,1 0 0 1 0.99994,0.99994 z m 0,8.00005 a 1,1 0 0 1 -0.99994,0.99994 1,1 0 0 1 -0.99994,-0.99994 1,1 0 0 1 0.99994,-0.99994 1,1 0 0 1 0.99994,0.99994 z"
       id="path6878" />
    <path
       id="path6880"
       d="m 186.99976,412.99952 h -2.99982 v -2.99982 h -3.99976 v 2.99982 h -3.00033 v 12.00031 h 3.00033 v 2.99982 h 3.99976 v -2.99982 h 2.99982 z M 183,414.9999 a 1,1 0 0 1 -0.99994,0.99994 1,1 0 0 1 -0.99994,-0.99994 1,1 0 0 1 0.99994,-0.99994 A 1,1 0 0 1 183,414.9999 Z m 0,8.00005 a 1,1 0 0 1 -0.99994,0.99994 1,1 0 0 1 -0.99994,-0.99994 1,1 0 0 1 0.99994,-0.99994 1,1 0 0 1 0.99994,0.99994 z"
       style="fill:none;fill-opacity:1;stroke:#000000;stroke-width:0.1;stroke-miterlimit:4;stroke-dasharray:none;stroke-dashoffset:0;stroke-opacity:1" />
    <path
       style="fill:none;fill-opacity:1;stroke:#000000;stroke-width:0.1;stroke-miterlimit:4;stroke-dasharray:none;stroke-dashoffset:0;stroke-opacity:1"
       d="m 198,409.9999 h -2.99982 v -2.99982 h -3.99976 v 2.99982 h -3.00033 v 12.00031 h 3.00033 v 2.99982 h 3.99976 v -2.99982 H 198 Z m -3.99976,2.00038 a 1,1 0 0 1 -0.99994,0.99994 1,1 0 0 1 -0.99994,-0.99994 1,1 0 0 1 0.99994,-0.99994 1,1 0 0 1 0.99994,0.99994 z m 0,8.00005 a 1,1 0 0 1 -0.99994,0.99994 1,1 0 0 1 -0.99994,-0.99994 1,1 0 0 1 0.99994,-0.99994 1,1 0 0 1 0.99994,0.99994 z"
       id="path6882" />
    <path
       style="fill:none;fill-opacity:1;stroke:#000000;stroke-width:0.1;stroke-miterlimit:4;stroke-dasharray:none;stroke-dashoffset:0;stroke-opacity:1"
       d="M 190.99982,397.99977 H 188 v -2.99982 h -3.99976 v 2.99982 h -3.00033 v 12.00031 h 3.00033 v 2.99982 H 188 v -2.99982 h 2.99982 z m -3.99976,2.00038 a 1,1 0 0 1 -0.99994,0.99994 1,1 0 0 1 -0.99994,-0.99994 1,1 0 0 1 0.99994,-0.99994 1,1 0 0 1 0.99994,0.99994 z m 0,8.00005 a 1,1 0 0 1 -0.99994,0.99994 1,1 0 0 1 -0.99994,-0.99994 1,1 0 0 1 0.99994,-0.99994 1,1 0 0 1 0.99994,0.99994 z"
       id="path6884" />
    <path
       id="path6886"
       d="m 194,394.99999 v 2.99982 h -2.99982 v 3.99976 H 194 v 3.00033 h 12.00031 v -3.00033 h 2.99982 v -3.99976 h -2.99982 v -2.99982 z m 2.00038,3.99976 a 1,1 0 0 1 0.99994,0.99994 1,1 0 0 1 -0.99994,0.99994 1,1 0 0 1 -0.99994,-0.99994 1,1 0 0 1 0.99994,-0.99994 z m 8.00005,0 a 1,1 0 0 1 0.99994,0.99994 1,1 0 0 1 -0.99994,0.99994 1,1 0 0 1 -0.99994,-0.99994 1,1 0 0 1 0.99994,-0.99994 z"
       style="fill:none;fill-opacity:1;stroke:#000000;stroke-width:0.1;stroke-miterlimit:4;stroke-dasharray:none;stroke-dashoffset:0;stroke-opacity:1" />
    <circle
       r="2"
       cy="420.63608"
       cx="163.73358"
       id="path6888"
       style="fill:none;fill-opacity:1;stroke:#000000;stroke-width:0.1;stroke-miterlimit:4;stroke-dasharray:none;stroke-dashoffset:0;stroke-opacity:1" />
    <circle
       r="1"
       cy="420.63608"
       cx="163.73358"
       id="path6890"
       style="fill:none;fill-opacity:1;stroke:#000000;stroke-width:0.1;stroke-miterlimit:4;stroke-dasharray:none;stroke-dashoffset:0;stroke-opacity:1" />
    <circle
       style="fill:none;fill-opacity:1;stroke:#000000;stroke-width:0.1;stroke-miterlimit:4;stroke-dasharray:none;stroke-dashoffset:0;stroke-opacity:1"
       id="circle6910"
       cx="169.73358"
       cy="420.63608"
       r="2" />
    <circle
       style="fill:none;fill-opacity:1;stroke:#000000;stroke-width:0.1;stroke-miterlimit:4;stroke-dasharray:none;stroke-dashoffset:0;stroke-opacity:1"
       id="circle6912"
       cx="169.73358"
       cy="420.63608"
       r="1" />
    <circle
       style="fill:none;fill-opacity:1;stroke:#000000;stroke-width:0.1;stroke-miterlimit:4;stroke-dasharray:none;stroke-dashoffset:0;stroke-opacity:1"
       id="circle6916"
       cx="163.69063"
       cy="425.60522"
       r="2" />
    <circle
       style="fill:none;fill-opacity:1;stroke:#000000;stroke-width:0.1;stroke-miterlimit:4;stroke-dasharray:none;stroke-dashoffset:0;stroke-opacity:1"
       id="circle6918"
       cx="163.69063"
       cy="425.60522"
       r="1" />
    <circle
       r="2"
       cy="425.60522"
       cx="169.69063"
       id="circle6922"
       style="fill:none;fill-opacity:1;stroke:#000000;stroke-width:0.1;stroke-miterlimit:4;stroke-dasharray:none;stroke-dashoffset:0;stroke-opacity:1" />
    <circle
       r="1"
       cy="425.60522"
       cx="169.69063"
       id="circle6924"
       style="fill:none;fill-opacity:1;stroke:#000000;stroke-width:0.1;stroke-miterlimit:4;stroke-dasharray:none;stroke-dashoffset:0;stroke-opacity:1" />
    <circle
       style="fill:none;fill-opacity:1;stroke:#000000;stroke-width:0.1;stroke-miterlimit:4;stroke-dasharray:none;stroke-dashoffset:0;stroke-opacity:1"
       id="circle6928"
       cx="163.73358"
       cy="430.63577"
       r="2" />
    <circle
       style="fill:none;fill-opacity:1;stroke:#000000;stroke-width:0.1;stroke-miterlimit:4;stroke-dasharray:none;stroke-dashoffset:0;stroke-opacity:1"
       id="circle6930"
       cx="163.73358"
       cy="430.63577"
       r="1" />
    <circle
       r="2"
       cy="430.63577"
       cx="169.73358"
       id="circle6934"
       style="fill:none;fill-opacity:1;stroke:#000000;stroke-width:0.1;stroke-miterlimit:4;stroke-dasharray:none;stroke-dashoffset:0;stroke-opacity:1" />
    <circle
       r="1"
       cy="430.63577"
       cx="169.73358"
       id="circle6936"
       style="fill:none;fill-opacity:1;stroke:#000000;stroke-width:0.1;stroke-miterlimit:4;stroke-dasharray:none;stroke-dashoffset:0;stroke-opacity:1" />
    <circle
       r="2"
       cy="436.63577"
       cx="163.73358"
       id="circle6940"
       style="fill:none;fill-opacity:1;stroke:#000000;stroke-width:0.1;stroke-miterlimit:4;stroke-dasharray:none;stroke-dashoffset:0;stroke-opacity:1" />
    <circle
       r="1"
       cy="436.63577"
       cx="163.73358"
       id="circle6942"
       style="fill:none;fill-opacity:1;stroke:#000000;stroke-width:0.1;stroke-miterlimit:4;stroke-dasharray:none;stroke-dashoffset:0;stroke-opacity:1" />
    <circle
       style="fill:none;fill-opacity:1;stroke:#000000;stroke-width:0.1;stroke-miterlimit:4;stroke-dasharray:none;stroke-dashoffset:0;stroke-opacity:1"
       id="circle6946"
       cx="169.73358"
       cy="436.63577"
       r="2" />
    <circle
       style="fill:none;fill-opacity:1;stroke:#000000;stroke-width:0.1;stroke-miterlimit:4;stroke-dasharray:none;stroke-dashoffset:0;stroke-opacity:1"
       id="circle6948"
       cx="169.73358"
       cy="436.63577"
       r="1" />
    <circle
       r="5"
       cy="444.02637"
       cx="166.34201"
       id="path6952"
       style="fill:none;fill-opacity:1;stroke:#000000;stroke-width:0.1;stroke-miterlimit:4;stroke-dasharray:none;stroke-dashoffset:0;stroke-opacity:1" />
    <circle
       r="1"
       cy="444.02637"
       cx="166.34201"
       id="path6954"
       style="fill:none;fill-opacity:1;stroke:#000000;stroke-width:0.1;stroke-miterlimit:4;stroke-dasharray:none;stroke-dashoffset:0;stroke-opacity:1" />
    <circle
       r="1"
       cy="371.99994"
       cx="140.49998"
       id="path7021"
       style="fill:none;fill-opacity:1;stroke:#000000;stroke-width:0.1;stroke-miterlimit:4;stroke-dasharray:none;stroke-dashoffset:0;stroke-opacity:1" />
    <circle
       r="1"
       cy="338.99994"
       cx="136.5"
       id="path7025"
       style="fill:none;fill-opacity:1;stroke:#000000;stroke-width:0.1;stroke-miterlimit:4;stroke-dasharray:none;stroke-dashoffset:0;stroke-opacity:1" />
  </g>
</svg>
