<?xml version="1.0" encoding="UTF-8" standalone="no"?>
<svg
   xmlns:dc="http://purl.org/dc/elements/1.1/"
   xmlns:cc="http://creativecommons.org/ns#"
   xmlns:rdf="http://www.w3.org/1999/02/22-rdf-syntax-ns#"
   xmlns:svg="http://www.w3.org/2000/svg"
   xmlns="http://www.w3.org/2000/svg"
   id="svg1070"
   version="1.1"
   viewBox="0 0 320.10004 196.10008"
   height="196.10008mm"
   width="320.10004mm">
  <defs
     id="defs1064" />
  <metadata
     id="metadata1067">
    <rdf:RDF>
      <cc:Work
         rdf:about="">
        <dc:format>image/svg+xml</dc:format>
        <dc:type
           rdf:resource="http://purl.org/dc/dcmitype/StillImage" />
        <dc:title></dc:title>
      </cc:Work>
    </rdf:RDF>
  </metadata>
  <g
     transform="translate(50.050071,-578.94988)"
     id="layer1">
    <path
       id="path1077"
       d="M -4,626.99979 H -7.00032 V 615 h -22.49993 v 11.99979 h -2.99982 v 14.00018 h 2.99982 v 16.00005 h -2.99982 v 13.99966 h 2.99982 v 4.00029 h 7.00061 v -17.99995 h 8.49974 v 17.99995 h 6.99958 v -4.00029 H -4 V 657.00002 H -7.00032 V 640.99997 H -4 Z M -8.00026,649 c 8e-5,0.82836 -0.6713,1.49997 -1.49966,1.50016 -0.82857,9e-5 -1.50027,-0.67161 -1.50016,-1.50016 -1.1e-4,-0.82857 0.67159,-1.50026 1.50016,-1.50017 0.82836,1.9e-4 1.49974,0.67181 1.49966,1.50017 z m -6.49986,-20.24993 c -2.1e-4,2.07079 -1.67886,3.74944 -3.74965,3.74964 -2.071,9e-5 -3.74997,-1.67865 -3.75015,-3.74964 -8e-5,-2.07119 1.67897,-3.75025 3.75015,-3.75016 2.071,2e-4 3.74973,1.67917 3.74965,3.75016 z M -25.49999,649 c 1.1e-4,0.82855 -0.67159,1.50025 -1.50016,1.50016 -0.82836,-1.9e-4 -1.49974,-0.6718 -1.49963,-1.50016 -1.1e-4,-0.82836 0.67127,-1.49998 1.49963,-1.50017 0.82857,-9e-5 1.50027,0.6716 1.50016,1.50017 z"
       style="fill:none;fill-opacity:1;stroke:#000000;stroke-width:0.1;stroke-miterlimit:4;stroke-dasharray:none;stroke-opacity:1" />
    <path
       style="fill:none;fill-opacity:1;stroke:#000000;stroke-width:0.1;stroke-miterlimit:4;stroke-dasharray:none;stroke-opacity:1"
       d="m 211.99979,662.49972 v 3.00032 H 200 v 22.49993 h 11.99979 v 2.99982 h 14.00018 v -2.99982 h 16.00005 v 2.99982 h 13.99966 v -2.99982 h 4.00029 v -7.00061 h -17.99995 v -8.49974 h 17.99995 v -6.99958 h -4.00029 v -3.00032 h -13.99966 v 3.00032 h -16.00005 v -3.00032 z M 234,666.49998 c 0.82836,-8e-5 1.49997,0.6713 1.50016,1.49966 9e-5,0.82857 -0.67161,1.50027 -1.50016,1.50016 -0.82857,1.1e-4 -1.50026,-0.67159 -1.50017,-1.50016 1.9e-4,-0.82836 0.67181,-1.49974 1.50017,-1.49966 z m -20.24993,6.49986 c 2.07079,2.1e-4 3.74944,1.67886 3.74964,3.74965 9e-5,2.071 -1.67865,3.74997 -3.74964,3.75015 -2.07119,8e-5 -3.75025,-1.67897 -3.75016,-3.75015 2e-4,-2.071 1.67917,-3.74973 3.75016,-3.74965 z M 234,683.99971 c 0.82855,-1.1e-4 1.50025,0.67159 1.50016,1.50016 -1.9e-4,0.82836 -0.6718,1.49974 -1.50016,1.49963 -0.82836,1.1e-4 -1.49998,-0.67127 -1.50017,-1.49963 -9e-5,-0.82857 0.6716,-1.50027 1.50017,-1.50016 z"
       id="path1082" />
    <path
       id="path1088"
       d="m 2.5999999e-4,589.00004 v 85.99993 H 199 v -8.99999 -3.99973 -3.00035 h 57.00064 v -3.99976 h -26.00047 v -3.00032 h 26.00047 v -39.99963 h -26.00047 v -3.00035 h 26.00047 v -3.99973 H 199 V 601.99976 598 589.00004 Z M 9.000226,597.50031 c 0.82835,-1.3e-4 1.499963,0.67128 1.500167,1.49963 9e-5,0.82855 -0.671611,1.50027 -1.500167,1.50016 -0.828352,-1.5e-4 -1.49974,-0.6718 -1.49965,-1.50016 2.04e-4,-0.82812 0.671504,-1.49944 1.49965,-1.49963 z m 16.000058,7.4998 h 14.000178 v 2.99982 H 25.000284 Z m 30.000236,0 h 13.999662 v 2.99982 H 55.00052 Z m 179.99985,0.99994 c 0.55224,0 0.99989,0.44768 0.99994,0.99994 2.7e-4,0.55245 -0.44749,1.00042 -0.99994,1.00044 -0.55245,-2e-5 -1.00018,-0.44799 -0.99994,-1.00044 6e-5,-0.55226 0.4477,-0.99994 0.99994,-0.99994 z m 8.00005,0 c 0.55224,0 0.99986,0.44768 0.99994,0.99994 2.4e-4,0.55245 -0.44749,1.00042 -0.99994,1.00044 -0.55245,-2e-5 -1.0002,-0.44799 -0.99994,-1.00044 5e-5,-0.55226 0.4477,-0.99994 0.99994,-0.99994 z m -132.00022,6.00014 c 0.55244,-2.4e-4 1.00043,0.44749 1.00046,0.99994 -3e-5,0.55245 -0.44802,1.00018 -1.00046,0.99994 -0.55224,-3e-5 -0.99991,-0.4477 -0.99994,-0.99994 3e-5,-0.55224 0.4477,-0.99991 0.99994,-0.99994 z m 39.00021,0 c 0.55224,3e-5 0.99991,0.4477 0.99994,0.99994 -3e-5,0.55224 -0.4477,0.99991 -0.99994,0.99994 -0.55224,-3e-5 -0.99991,-0.4477 -0.99994,-0.99994 3e-5,-0.55224 0.4477,-0.99991 0.99994,-0.99994 z M 2.500366,618.00033 h 2.999817 v 9.99993 H 2.500366 Z m 84.00004,0 h 2.999814 v 9.99993 h -2.999814 z m -78.500117,1.99988 h 4.999694 V 644.0003 H 8.000289 Z m 70.999799,0 H 84.0003 v 24.00009 h -5.000212 z m 144.000502,2.99982 h 31.99961 v 17.99995 h -31.99961 z m -51.0005,3.00035 h 30.00023 v 11.99978 h -30.00023 z m -45.50006,1.99988 a 1,1 0 0 1 1.00046,0.99991 1,1 0 0 1 -1.00046,0.99994 1,1 0 0 1 -0.99994,-0.99994 1,1 0 0 1 0.99994,-0.99991 z M 4.000533,631.00005 c 0.552235,3e-5 0.999905,0.4477 0.999937,0.99994 -3.2e-5,0.55224 -0.447702,0.99992 -0.999937,0.99994 -0.552239,-2e-5 -0.999906,-0.4477 -0.99994,-0.99994 3.4e-5,-0.55224 0.447701,-0.99991 0.99994,-0.99994 z m 84.000037,0 c 0.55224,3e-5 0.99991,0.4477 0.99994,0.99994 -3e-5,0.55224 -0.4477,0.99992 -0.99994,0.99994 -0.55224,-2e-5 -0.9999,-0.4477 -0.99994,-0.99994 4e-5,-0.55224 0.4477,-0.99991 0.99994,-0.99994 z m -85.500204,5.00023 h 2.999817 v 9.9999 H 2.500366 Z m 84.00004,0 h 2.999814 v 9.9999 h -2.999814 z m -61.500122,19.9998 h 14.000178 v 2.99982 H 25.000284 Z m 30.000236,0 h 13.999662 v 2.99982 H 55.00052 Z m 179.99985,0 c 0.55224,3e-5 0.99992,0.4477 0.99994,0.99994 -2e-5,0.55224 -0.4477,0.99992 -0.99994,0.99994 -0.55224,-2e-5 -0.99988,-0.4477 -0.99994,-0.99994 6e-5,-0.55224 0.4477,-0.99991 0.99994,-0.99994 z m 8.00005,0 c 0.55224,3e-5 0.99991,0.4477 0.99994,0.99994 -3e-5,0.55224 -0.4477,0.99992 -0.99994,0.99994 -0.55224,-2e-5 -0.99994,-0.4477 -0.99994,-0.99994 0,-0.55224 0.4477,-0.99991 0.99994,-0.99994 z m -112.50012,5.00023 a 1,1 0 0 1 0.99994,0.99994 1,1 0 0 1 -0.99994,0.99994 1,1 0 0 1 -0.99994,-0.99994 1,1 0 0 1 0.99994,-0.99994 z m -121.500074,2.5001 c 0.82835,-8e-5 1.499963,0.6708 1.500167,1.49913 1.03e-4,0.82857 -0.6716,1.5008 -1.500167,1.50069 -0.828362,-1.8e-4 -1.499753,-0.67231 -1.49965,-1.50069 2.04e-4,-0.82815 0.671504,-1.49892 1.49965,-1.49913 z"
       style="fill:none;fill-opacity:1;stroke:#000000;stroke-width:0.1;stroke-miterlimit:4;stroke-dasharray:none;stroke-opacity:1" />
    <path
       style="fill:none;fill-opacity:1;stroke:#000000;stroke-width:0.1;stroke-miterlimit:4;stroke-dasharray:none;stroke-opacity:1"
       d="m -40.000071,679.00004 v 85.99993 H 52 v -15.58719 c -0.16057,0.0573 -0.329736,0.0868 -0.500229,0.0873 -0.828556,9e-5 -1.500257,-0.6716 -1.500169,-1.50016 -8.8e-5,-0.82856 0.671613,-1.50025 1.500169,-1.50016 0.170521,6.2e-4 0.339689,0.0303 0.500229,0.0878 v -49.1753 c -0.160534,0.0575 -0.329702,0.0873 -0.500229,0.0879 -0.828567,9e-5 -1.500274,-0.67162 -1.500169,-1.50019 -8.8e-5,-0.82856 0.671613,-1.50025 1.500169,-1.50016 0.170527,6.5e-4 0.339695,0.0304 0.500229,0.0879 v -15.58769 z m 8.999968,8.50024 c 0.828353,-8e-5 1.499974,0.6713 1.500167,1.49966 9.5e-5,0.82854 -0.671611,1.50027 -1.500167,1.50016 -0.828357,-1.8e-4 -1.499745,-0.6718 -1.49965,-1.50016 1.93e-4,-0.82815 0.671497,-1.49945 1.49965,-1.49966 z m 61.999833,6.99958 c 0.828555,-9e-5 1.500255,0.67161 1.500167,1.50016 1.05e-4,0.82857 -0.6716,1.50028 -1.500167,1.50019 -0.828566,9e-5 -1.500271,-0.67162 -1.500166,-1.50019 -8.8e-5,-0.82855 0.671612,-1.50025 1.500166,-1.50016 z m 5.00021,0.50022 c 0.552238,3e-5 0.999907,0.4477 0.99994,0.99994 -3.3e-5,0.55224 -0.447702,0.99991 -0.99994,0.99994 -0.552237,-3e-5 -0.999904,-0.4477 -0.999937,-0.99994 3.3e-5,-0.55224 0.4477,-0.99991 0.999937,-0.99994 z m -50.999985,7e-5 h 14.000178 v 2.99982 h -14.000178 z m 30.000234,0 h 13.999662 v 2.99982 H 15.000189 Z m -52.500154,13.00018 h 2.999817 v 9.9999 h -2.999817 z m 84.00004,0 h 2.999817 v 9.9999 h -2.999817 z m -82.499874,12.99972 c 0.552239,3e-5 0.999908,0.4477 0.99994,0.99994 -3.2e-5,0.55224 -0.447701,0.99991 -0.99994,0.99994 -0.552235,-3e-5 -0.999905,-0.4477 -0.999937,-0.99994 3.2e-5,-0.55224 0.447702,-0.99991 0.999937,-0.99994 z m 84.00004,0 c 0.552239,3e-5 0.999908,0.4477 0.99994,0.99994 -3.2e-5,0.55224 -0.447701,0.99991 -0.99994,0.99994 -0.552238,-3e-5 -0.999905,-0.4477 -0.999937,-0.99994 3.2e-5,-0.55224 0.447699,-0.99991 0.999937,-0.99994 z m -85.500206,5.00023 h 2.999817 v 9.9999 h -2.999817 z m 84.00004,0 h 2.999817 v 9.9999 h -2.999817 z m -61.50012,19.99969 h 14.000178 v 2.99982 h -14.000178 z m 30.000234,0 h 13.999662 v 2.99982 H 15.000189 Z m 15.999541,0.49983 c 0.828555,-9e-5 1.500255,0.67161 1.500167,1.50016 8.8e-5,0.82855 -0.671612,1.50025 -1.500167,1.50016 -0.828554,9e-5 -1.500254,-0.67161 -1.500166,-1.50016 -8.8e-5,-0.82855 0.671612,-1.50025 1.500166,-1.50016 z m 5.00021,0.50022 c 0.552238,3e-5 0.999907,0.4477 0.99994,0.99994 -3.3e-5,0.55224 -0.447702,0.99991 -0.99994,0.99994 -0.552237,-3e-5 -0.999904,-0.4477 -0.999937,-0.99994 3.3e-5,-0.55224 0.4477,-0.99991 0.999937,-0.99994 z m -67.000043,6.49986 c 0.828353,-8e-5 1.499974,0.6713 1.500167,1.49966 8.7e-5,0.82854 -0.671616,1.50024 -1.500167,1.50016 -0.828352,-1.9e-4 -1.499737,-0.67183 -1.49965,-1.50016 1.93e-4,-0.82815 0.671497,-1.49948 1.49965,-1.49966 z"
       id="path1100" />
    <path
       id="path1120"
       d="m 54,679.00007 v 85.9999 h 144.99994 v -8.99996 -3.99976 -3.00032 h 57.00064 v -3.99976 h -26.00047 v -3.00035 h 26.00047 v -39.9996 h -26.00047 v -3.00035 h 26.00047 v -3.99976 h -57.00064 v -3.00032 -3.99976 -8.99996 z m 8.999966,8.50024 c 0.82835,-10e-5 1.499963,0.6713 1.500166,1.49966 9e-5,0.82854 -0.67161,1.50024 -1.500166,1.50016 -0.828352,-1.8e-4 -1.49974,-0.6718 -1.49965,-1.50016 2.03e-4,-0.82815 0.671504,-1.49947 1.49965,-1.49966 z m 16.000058,7.4998 h 14.000178 v 2.99982 H 79.000024 Z m 30.000236,0 h 13.99966 v 2.99982 h -13.99966 z m 126.00005,0.99994 c 0.55224,3e-5 0.99988,0.4477 0.99994,0.99994 2.6e-4,0.55245 -0.44749,1.00044 -0.99994,1.00047 -0.55245,-3e-5 -1.00018,-0.44802 -0.99994,-1.00047 5e-5,-0.55224 0.4477,-0.99991 0.99994,-0.99994 z m 8.00005,0 c 0.55223,3e-5 0.99986,0.4477 0.99993,0.99994 2.4e-4,0.55245 -0.44748,1.00044 -0.99993,1.00047 -0.55245,-3e-5 -1.00021,-0.44802 -0.99994,-1.00047 5e-5,-0.55224 0.4477,-0.99991 0.99994,-0.99994 z m -50.00006,9.50021 h 2.99982 v 7.00008 h -2.99982 z m -136.500194,2.5001 h 2.999817 v 9.9999 h -2.999817 z m 84.000034,0 h 2.99982 v 9.9999 h -2.99982 z m -78.500111,1.99988 h 4.999693 v 24.00009 h -4.999693 z m 70.999801,0 h 5.00021 v 24.00009 h -5.00021 z m 90.0007,2.99982 h 31.99961 v 17.99992 h -31.99961 z m -165.000258,8.00002 c 0.552236,3e-5 0.999908,0.4477 0.99994,0.99994 -3.2e-5,0.55224 -0.447704,0.99991 -0.99994,0.99994 -0.552238,-3e-5 -0.999905,-0.4477 -0.999939,-0.99994 3.4e-5,-0.55224 0.447701,-0.99991 0.999939,-0.99994 z m 84.000038,0 c 0.55224,3e-5 0.99991,0.4477 0.99994,0.99994 -3e-5,0.55224 -0.4477,0.99991 -0.99994,0.99994 -0.55224,-3e-5 -0.9999,-0.4477 -0.99994,-0.99994 4e-5,-0.55224 0.4477,-0.99991 0.99994,-0.99994 z m -85.500204,5.0002 h 2.999817 v 9.99993 h -2.999817 z m 84.000034,0 h 2.99982 v 9.99993 h -2.99982 z m 52.50016,5.49995 h 2.99982 v 7.00008 H 193.0003 Z M 79.000024,746.00011 h 14.000178 v 2.99982 H 79.000024 Z m 30.000236,0 h 13.99966 v 2.99982 h -13.99966 z m 126.00005,0 c 0.55224,2e-5 0.99991,0.4477 0.99994,0.99994 -3e-5,0.55224 -0.4477,0.99991 -0.99994,0.99994 -0.55224,-3e-5 -0.99989,-0.4477 -0.99994,-0.99994 5e-5,-0.55224 0.4477,-0.99992 0.99994,-0.99994 z m 8.00005,0 c 0.55223,2e-5 0.99991,0.4477 0.99993,0.99994 -2e-5,0.55224 -0.4477,0.99991 -0.99993,0.99994 -0.55224,-3e-5 -0.99994,-0.4477 -0.99994,-0.99994 0,-0.55224 0.4477,-0.99992 0.99994,-0.99994 z m -180.000394,7.4998 c 0.82835,-8e-5 1.499963,0.67133 1.500166,1.49966 1.04e-4,0.82857 -0.671599,1.50026 -1.500166,1.50016 -0.828363,-1.9e-4 -1.499754,-0.67178 -1.49965,-1.50016 2.03e-4,-0.82815 0.671504,-1.49945 1.49965,-1.49966 z"
       style="fill:none;fill-opacity:1;stroke:#000000;stroke-width:0.1;stroke-miterlimit:4;stroke-dasharray:none;stroke-opacity:1" />
    <path
       id="rect1146"
       d="m -4,588.99988 h -7.00008 v 8.00002 h -18.99989 v -8.00002 h -7.00008 v 8.00002 16.00007 H -4 V 596.9999 Z m -3.000319,2.99982 a 1,1 0 0 1 -0.999941,0.99994 1,1 0 0 1 -0.99994,-0.99994 1,1 0 0 1 0.99994,-0.99994 1,1 0 0 1 0.999941,0.99994 z m -11.49956,15.0001 c 8e-5,1.38081 -1.11932,2.50018 -2.5001,2.50013 -1.38081,5e-5 -2.50018,-1.11932 -2.5001,-2.50013 -1.1e-4,-1.38081 1.11929,-2.50015 2.5001,-2.5001 1.38081,-5e-5 2.50018,1.11929 2.5001,2.5001 z M -31.99982,591.9997 a 1,1 0 0 1 -1.000469,0.99994 1,1 0 0 1 -0.99994,-0.99994 1,1 0 0 1 0.99994,-0.99994 1,1 0 0 1 1.000469,0.99994 z"
       style="fill:none;fill-opacity:1;stroke:#000000;stroke-width:0.1;stroke-miterlimit:4;stroke-dasharray:none;stroke-dashoffset:0;stroke-opacity:1" />
  </g>
</svg>
