<?xml version="1.0" encoding="UTF-8" standalone="no"?>
<svg
   xmlns:dc="http://purl.org/dc/elements/1.1/"
   xmlns:cc="http://creativecommons.org/ns#"
   xmlns:rdf="http://www.w3.org/1999/02/22-rdf-syntax-ns#"
   xmlns:svg="http://www.w3.org/2000/svg"
   xmlns="http://www.w3.org/2000/svg"
   id="svg1341"
   version="1.1"
   viewBox="0 0 288.10049 176.10011"
   height="176.10011mm"
   width="288.10049mm">
  <defs
     id="defs1335" />
  <metadata
     id="metadata1338">
    <rdf:RDF>
      <cc:Work
         rdf:about="">
        <dc:format>image/svg+xml</dc:format>
        <dc:type
           rdf:resource="http://purl.org/dc/dcmitype/StillImage" />
        <dc:title></dc:title>
      </cc:Work>
    </rdf:RDF>
  </metadata>
  <g
     transform="translate(395.44574,297.17857)"
     id="layer1">
    <path
       style="fill:none;fill-opacity:1;stroke:#000000;stroke-width:0.1;stroke-miterlimit:4;stroke-dasharray:none;stroke-opacity:1"
       d="m -359.39546,-259.12872 h -3.00032 v -11.99979 h -22.49993 v 11.99979 h -2.99982 v 14.00018 h 2.99982 v 16.00005 h -2.99982 v 13.99966 h 2.99982 v 4.00029 h 7.00061 v -17.99995 h 8.49974 v 17.99995 h 6.99958 v -4.00029 h 3.00032 v -13.99966 h -3.00032 v -16.00005 h 3.00032 z m -4.00026,22.00021 c 8e-5,0.82836 -0.6713,1.49997 -1.49966,1.50016 -0.82857,9e-5 -1.50027,-0.67161 -1.50016,-1.50016 -1.1e-4,-0.82857 0.67159,-1.50026 1.50016,-1.50017 0.82836,1.9e-4 1.49974,0.67181 1.49966,1.50017 z m -6.49986,-20.24993 c -2.1e-4,2.07079 -1.67886,3.74944 -3.74965,3.74964 -2.071,9e-5 -3.74997,-1.67865 -3.75015,-3.74964 -8e-5,-2.07119 1.67897,-3.75025 3.75015,-3.75016 2.071,2e-4 3.74973,1.67917 3.74965,3.75016 z m -10.99987,20.24993 c 1.1e-4,0.82855 -0.67159,1.50025 -1.50016,1.50016 -0.82836,-1.9e-4 -1.49974,-0.6718 -1.49963,-1.50016 -1.1e-4,-0.82836 0.67127,-1.49998 1.49963,-1.50017 0.82857,-9e-5 1.50027,0.6716 1.50016,1.50017 z"
       id="path1192" />
    <path
       id="path1194"
       d="m -155.39541,-223.62879 v 3.00032 h -11.99979 v 22.49993 h 11.99979 v 2.99982 h 14.00018 v -2.99982 h 16.00004 v 2.99982 h 13.99966 v -2.99982 h 4.00029 v -7.00061 h -17.99995 v -8.49974 h 17.99995 v -6.99958 h -4.00029 v -3.00032 h -13.99966 v 3.00032 h -16.00004 v -3.00032 z m 22.00021,4.00026 c 0.82836,-8e-5 1.49997,0.6713 1.50016,1.49966 9e-5,0.82857 -0.67161,1.50027 -1.50016,1.50017 -0.82857,1e-4 -1.50026,-0.6716 -1.50017,-1.50017 1.9e-4,-0.82836 0.67181,-1.49974 1.50017,-1.49966 z m -20.24993,6.49986 c 2.07079,2.2e-4 3.74944,1.67886 3.74964,3.74965 9e-5,2.071 -1.67865,3.74997 -3.74964,3.75015 -2.07119,9e-5 -3.75025,-1.67897 -3.75016,-3.75015 2e-4,-2.07099 1.67917,-3.74973 3.75016,-3.74965 z m 20.24993,10.99988 c 0.82855,-1.2e-4 1.50025,0.67158 1.50016,1.50015 -1.9e-4,0.82836 -0.6718,1.49974 -1.50016,1.49964 -0.82836,1e-4 -1.49998,-0.67128 -1.50017,-1.49964 -9e-5,-0.82857 0.6716,-1.50027 1.50017,-1.50015 z"
       style="fill:none;fill-opacity:1;stroke:#000000;stroke-width:0.1;stroke-miterlimit:4;stroke-dasharray:none;stroke-opacity:1" />
    <path
       id="path1196"
       d="m -355.39508,-297.12857 v 85.99993 h 183.99962 v -8.99998 -3.99976 -1.99988 h 57.00067 v -6.00015 h -26.0005 v -5.0002 h 26.0005 v -33.99999 h -26.0005 v -4.9997 h 26.0005 v -6.00014 h -57.00067 v -2.00041 -3.99976 -8.99996 z m 8.99997,8.50024 c 0.82835,-10e-5 1.49996,0.6713 1.50016,1.49966 9e-5,0.82854 -0.67161,1.50029 -1.50016,1.50016 -0.82835,-1.3e-4 -1.49974,-0.6718 -1.49965,-1.50016 2e-4,-0.82812 0.6715,-1.49945 1.49965,-1.49966 z m 16.00006,7.4998 h 14.00017 v 2.99982 h -14.00017 z m 30.00023,0 h 13.99966 v 2.99982 h -13.99966 z m 164.99976,0.99994 c 0.55224,0 0.99989,0.4477 0.99994,0.99994 2.7e-4,0.55245 -0.44749,1.00044 -0.99994,1.00047 -0.55245,-3e-5 -1.00017,-0.44802 -0.99994,-1.00047 6e-5,-0.55224 0.4477,-0.99994 0.99994,-0.99994 z m 8.00002,0 c 0.55224,0 0.99986,0.4477 0.99994,0.99994 2.4e-4,0.55245 -0.44749,1.00044 -0.99994,1.00047 -0.55245,-3e-5 -1.0002,-0.44802 -0.99994,-1.00047 5e-5,-0.55224 0.4477,-0.99994 0.99994,-0.99994 z m -117.00009,6.00017 c 0.55244,-2.4e-4 1.00042,0.44749 1.00045,0.99994 -3e-5,0.55245 -0.44801,1.00018 -1.00045,0.99994 -0.55224,-3e-5 -0.99991,-0.4477 -0.99994,-0.99994 3e-5,-0.55224 0.4477,-0.99991 0.99994,-0.99994 z m 39.0002,0 c 0.55224,3e-5 0.99991,0.4477 0.99994,0.99994 -3e-5,0.55224 -0.4477,0.99991 -0.99994,0.99994 -0.55224,-3e-5 -0.99991,-0.4477 -0.99994,-0.99994 3e-5,-0.55224 0.4477,-0.99991 0.99994,-0.99994 z m -147.50004,6.00014 h 2.99981 v 9.9999 h -2.99981 z m 5.49992,1.99988 h 4.99969 v 24.00009 h -4.99969 z m 70.9998,0 h 5.00021 v 24.00009 h -5.00021 z m 129.00039,2.99982 h 31.9996 v 17.99995 h -31.9996 z m -51.0005,3.00032 h 30.00025 v 11.99981 h -30.00025 z m -30.49994,1.99988 c 0.55243,-2.4e-4 1.0004,0.44752 1.00045,0.99994 -3e-5,0.55245 -0.44801,1.00021 -1.00045,0.99994 -0.55224,-2e-5 -0.99991,-0.4477 -0.99994,-0.99994 5e-5,-0.55221 0.44771,-0.99988 0.99994,-0.99994 z m -37.99975,0.99994 h 5.99963 v 6.00017 h -5.99963 z m -84.49976,1.99988 c 0.55224,3e-5 0.99991,0.4477 0.99994,0.99994 -3e-5,0.55224 -0.4477,0.99992 -0.99994,0.99994 -0.55224,-2e-5 -0.9999,-0.4477 -0.99994,-0.99994 4e-5,-0.55224 0.4477,-0.99991 0.99994,-0.99994 z m -1.50016,5.00023 h 2.99981 v 9.9999 h -2.99981 z m 22.49992,19.9998 h 14.00017 v 2.99983 h -14.00017 z m 30.00023,0 h 13.99966 v 2.99983 h -13.99966 z m 164.99976,0 c 0.55224,3e-5 0.99992,0.4477 0.99994,0.99994 -2e-5,0.55224 -0.4477,0.99992 -0.99994,0.99995 -0.55224,-3e-5 -0.99988,-0.44771 -0.99994,-0.99995 6e-5,-0.55224 0.4477,-0.99991 0.99994,-0.99994 z m 8.00002,0 c 0.55224,3e-5 0.99991,0.4477 0.99994,0.99994 -3e-5,0.55224 -0.4477,0.99992 -0.99994,0.99995 -0.55224,-3e-5 -0.99994,-0.44771 -0.99994,-0.99995 0,-0.55224 0.4477,-0.99991 0.99994,-0.99994 z m -97.49999,5.00021 c 0.55224,5e-5 0.99991,0.4477 0.99994,0.99994 -3e-5,0.55226 -0.4477,0.99991 -0.99994,0.99994 -0.55224,-3e-5 -0.99991,-0.44768 -0.99994,-0.99994 3e-5,-0.55224 0.4477,-0.99989 0.99994,-0.99994 z m -121.50008,2.50013 c 0.82835,-8e-5 1.49996,0.67079 1.50016,1.49912 1.1e-4,0.82857 -0.6716,1.5008 -1.50016,1.50069 -0.82836,-1.8e-4 -1.49976,-0.6723 -1.49965,-1.50069 2e-4,-0.82814 0.6715,-1.49891 1.49965,-1.49912 z"
       style="fill:none;fill-opacity:1;stroke:#000000;stroke-width:0.1;stroke-miterlimit:4;stroke-dasharray:none;stroke-opacity:1" />
    <path
       id="path1198"
       d="m -395.39574,-207.12837 v 85.99992 h 92.00007 v -15.58716 c -0.16057,0.0573 -0.32973,0.0868 -0.50023,0.0873 -0.82855,1e-4 -1.50025,-0.67159 -1.50016,-1.50016 -9e-5,-0.82857 0.67161,-1.50027 1.50016,-1.50017 0.17052,0 0.33969,0.0303 0.50023,0.0878 v -21.58783 h -2.9993 v -6.00014 h 2.9993 v -21.58732 c -0.16053,0.0575 -0.3297,0.0873 -0.50023,0.0879 -0.82856,7e-5 -1.50027,-0.6716 -1.50016,-1.50017 -9e-5,-0.82856 0.67161,-1.50026 1.50016,-1.50018 0.17053,0 0.3397,0.0303 0.50023,0.0879 v -15.58769 z m 8.99997,8.50026 c 0.82835,-1e-4 1.49997,0.67128 1.50017,1.49964 9e-5,0.82854 -0.67162,1.50029 -1.50017,1.50016 -0.82836,-1.6e-4 -1.49975,-0.67181 -1.49965,-1.50016 1.9e-4,-0.82815 0.67149,-1.49945 1.49965,-1.49964 z m 61.99983,6.99956 c 0.82856,-8e-5 1.50026,0.67162 1.50017,1.50018 1e-4,0.82857 -0.6716,1.50024 -1.50017,1.50017 -0.82856,7e-5 -1.50027,-0.6716 -1.50017,-1.50017 -8e-5,-0.82856 0.67162,-1.50026 1.50017,-1.50018 z m -45.99978,0.50024 h 14.00019 v 2.9998 h -14.00019 z m 30.00024,0 h 13.99966 v 2.9998 h -13.99966 z m 20.99975,0 c 0.55224,3e-5 0.99991,0.44768 0.99994,0.99994 -3e-5,0.55224 -0.4477,0.99989 -0.99994,0.99992 -0.55223,-3e-5 -0.9999,-0.44768 -0.99993,-0.99992 3e-5,-0.55226 0.4477,-0.99991 0.99993,-0.99994 z m -73.4999,13.00023 h 2.99981 v 9.9999 h -2.99981 z m 1.50016,12.99972 c 0.55224,2e-5 0.99991,0.4477 0.99994,0.99994 -3e-5,0.55224 -0.4477,0.99991 -0.99994,0.99994 -0.55223,-3e-5 -0.9999,-0.4477 -0.99993,-0.99994 3e-5,-0.55224 0.4477,-0.99992 0.99993,-0.99994 z m -1.50016,5.00023 h 2.99981 v 9.9999 h -2.99981 z m 22.49991,19.9998 h 14.00019 v 2.99982 h -14.00019 z m 30.00024,0 h 13.99966 v 2.99982 h -13.99966 z m 15.99954,0.49972 c 0.82856,-1.1e-4 1.50026,0.67161 1.50017,1.50016 9e-5,0.82854 -0.67161,1.50026 -1.50017,1.50016 -0.82855,1e-4 -1.50025,-0.67162 -1.50017,-1.50016 -8e-5,-0.82855 0.67162,-1.50027 1.50017,-1.50016 z m 5.00021,0.50022 c 0.55224,2e-5 0.99991,0.4477 0.99994,0.99994 -3e-5,0.55223 -0.4477,0.99991 -0.99994,0.99994 -0.55223,-3e-5 -0.9999,-0.44771 -0.99993,-0.99994 3e-5,-0.55224 0.4477,-0.99992 0.99993,-0.99994 z m -67.00004,6.49986 c 0.82835,-8e-5 1.49997,0.6713 1.50017,1.49965 8e-5,0.82855 -0.67162,1.50025 -1.50017,1.50017 -0.82835,-1.9e-4 -1.49974,-0.67183 -1.49965,-1.50017 1.9e-4,-0.82814 0.67149,-1.49947 1.49965,-1.49965 z"
       style="fill:none;fill-opacity:1;stroke:#000000;stroke-width:0.1;stroke-miterlimit:4;stroke-dasharray:none;stroke-opacity:1" />
    <path
       id="path1204"
       d="m -195.89517,-208.12868 v 3.00033 h -3.00033 v 9.99991 h 3.00033 v 2.99981 h 22.49992 v -2.99981 h 2.99982 v -9.99991 h -2.99982 v -3.00033 z"
       style="fill:none;fill-opacity:1;stroke:#000000;stroke-width:0.1;stroke-miterlimit:4;stroke-dasharray:none;stroke-dashoffset:0;stroke-opacity:1" />
    <path
       style="fill:none;fill-opacity:1;stroke:#000000;stroke-width:0.1;stroke-miterlimit:4;stroke-dasharray:none;stroke-dashoffset:0;stroke-opacity:1"
       d="m -227.3952,-208.12868 v 3.00033 h -3.00033 v 9.99991 h 3.00033 v 2.99981 h 22.49992 v -2.99981 h 2.99982 v -9.99991 h -2.99982 v -3.00033 z"
       id="path1208" />
    <path
       style="fill:none;fill-opacity:1;stroke:#000000;stroke-width:0.1;stroke-miterlimit:4;stroke-dasharray:none;stroke-dashoffset:0;stroke-opacity:1"
       d="m -223.39536,-192.12846 v 70 h 56.0002 v -70 z m 7.00008,6.99999 h 27.99985 v 6.00001 h -27.99985 z m -2.49994,2.00019 c 0.55224,2e-5 0.99991,0.44769 0.99994,0.99994 -3e-5,0.55224 -0.4477,0.99991 -0.99994,0.99994 -0.55224,-3e-5 -0.99991,-0.4477 -0.99994,-0.99994 3e-5,-0.55225 0.4477,-0.99992 0.99994,-0.99994 z m 32.5002,0 c 0.55224,2e-5 0.99991,0.44769 0.99994,0.99994 -3e-5,0.55224 -0.4477,0.99991 -0.99994,0.99994 -0.55244,2.5e-4 -1.00044,-0.44751 -1.00047,-0.99994 3e-5,-0.55244 0.44803,-1.0002 1.00047,-0.99994 z m 9.9999,5.75003 c 0.55221,4e-5 0.99991,0.44767 0.99994,0.99994 0,0.55245 -0.44752,1.00094 -0.99994,1.00098 -0.55264,0 -1.00076,-0.44836 -1.00047,-1.00098 2e-5,-0.55241 0.44802,-1.00021 1.00047,-0.99994 z m -40.00016,3.24979 h 27.99985 v 33.99999 h -27.99985 v -3.9996 h -1.49992 v -25.99998 h 1.49992 z m 36.99981,8.00018 h 6.00017 v 3.81061 c 1.8542,1.07063 2.99754,3.04868 2.99982,5.18987 2.1e-4,3.31355 -2.68603,5.99941 -5.99964,5.99963 -3.31378,1e-4 -6.00022,-2.68579 -6.00017,-5.99963 0.003,-2.14039 1.14623,-4.11755 2.99982,-5.1878 z m 3.00035,15.50034 1.73167,0.99994 v 1.99987 l -1.73167,0.99994 -1.7322,-0.99994 v -1.99987 z m -40.00016,15.49948 h 27.99985 v 6 h -27.99985 z m -2.49994,2.00023 c 0.55224,3e-5 0.99991,0.4477 0.99994,0.99994 -3e-5,0.55223 -0.4477,0.99991 -0.99994,0.99994 -0.55224,-3e-5 -0.99991,-0.44771 -0.99994,-0.99994 3e-5,-0.55224 0.4477,-0.99991 0.99994,-0.99994 z m 32.5002,0 c 0.55224,3e-5 0.99991,0.4477 0.99994,0.99994 -3e-5,0.55223 -0.4477,0.99991 -0.99994,0.99994 -0.55244,2.6e-4 -1.00044,-0.4475 -1.00047,-0.99994 3e-5,-0.55244 0.44803,-1.00021 1.00047,-0.99994 z"
       id="path1212" />
    <path
       id="path1214"
       d="m -279.3952,-192.12854 v 69.99986 h 56.0002 v -69.99986 z m 7.00011,7.00007 h 27.99982 v 6.00002 h -27.99982 z m -2.5001,1.99988 c 0.55223,5e-5 0.99989,0.44771 0.99991,0.99995 -2e-5,0.55226 -0.44768,0.9999 -0.99991,0.99994 -0.55227,-4e-5 -0.99992,-0.44768 -0.99994,-0.99994 2e-5,-0.55224 0.44767,-0.9999 0.99994,-0.99995 z m 32.50033,0 c 0.55224,5e-5 0.99991,0.44771 0.99994,0.99995 -3e-5,0.55226 -0.4477,0.9999 -0.99994,0.99994 -0.55245,0 -1.00042,-0.44749 -1.00047,-0.99994 5e-5,-0.55242 0.44802,-1.00018 1.00047,-0.99995 z m -30.00023,8.99999 h 27.99982 v 34 h -27.99982 v -3.99977 h -1.50011 v -25.99996 h 1.50011 z m 33.74988,0 h 12.5 v 25.25015 h -3.24993 v 1.99988 c 0,1.66198 -1.33834,3.00032 -3.00032,3.00032 -1.66201,0 -2.99982,-1.33834 -2.99982,-3.00032 v -1.99988 h -3.24993 z m -33.74988,39.00015 h 27.99982 v 5.99998 h -27.99982 z m -2.5001,1.99993 c 0.55223,2e-5 0.99989,0.4477 0.99991,0.99994 -2e-5,0.55224 -0.44768,0.99991 -0.99991,0.99994 -0.55227,-3e-5 -0.99992,-0.4477 -0.99994,-0.99994 2e-5,-0.55224 0.44767,-0.99992 0.99994,-0.99994 z m 32.50033,0 c 0.55224,2e-5 0.99991,0.4477 0.99994,0.99994 -3e-5,0.55224 -0.4477,0.99991 -0.99994,0.99994 -0.55245,0 -1.00042,-0.44749 -1.00047,-0.99994 5e-5,-0.55245 0.44802,-1.00021 1.00047,-0.99994 z"
       style="fill:none;fill-opacity:1;stroke:#000000;stroke-width:0.1;stroke-miterlimit:4;stroke-dasharray:none;stroke-dashoffset:0;stroke-opacity:1" />
    <path
       id="path1248"
       d="m -166.39536,-192.12846 v 70 h 56.0002 v -70 z m 7.00008,6.99999 h 27.99985 v 6.00001 h -27.99985 z m -2.49994,2.00019 c 0.55224,2e-5 0.99991,0.44769 0.99994,0.99994 -3e-5,0.55224 -0.4477,0.99991 -0.99994,0.99994 -0.55224,-3e-5 -0.99991,-0.4477 -0.99994,-0.99994 3e-5,-0.55225 0.4477,-0.99992 0.99994,-0.99994 z m 32.5002,0 c 0.55223,2e-5 0.99991,0.44769 0.99994,0.99994 -3e-5,0.55224 -0.44771,0.99991 -0.99994,0.99994 -0.55243,2.5e-4 -1.00045,-0.44751 -1.00047,-0.99994 2e-5,-0.55244 0.44804,-1.0002 1.00047,-0.99994 z m 9.9999,5.75003 c 0.55221,4e-5 0.99991,0.44767 0.99994,0.99994 0,0.55245 -0.44752,1.00094 -0.99994,1.00098 -0.55264,0 -1.00076,-0.44836 -1.00047,-1.00098 2e-5,-0.55241 0.44802,-1.00021 1.00047,-0.99994 z m -40.00016,3.24979 h 27.99985 v 33.99999 h -27.99985 v -3.9996 h -1.49992 v -25.99998 h 1.49992 z m 36.99981,8.00018 h 6.00017 v 3.81061 c 1.8542,1.07063 2.99754,3.04868 2.99982,5.18987 2.1e-4,3.31355 -2.68603,5.99941 -5.99964,5.99963 -3.31378,1e-4 -6.00022,-2.68579 -6.00017,-5.99963 0.003,-2.14039 1.14623,-4.11755 2.99982,-5.1878 z m 3.00035,15.50034 1.73167,0.99994 v 1.99987 l -1.73167,0.99994 -1.7322,-0.99994 v -1.99987 z m -40.00016,15.49948 h 27.99985 v 6 h -27.99985 z m -2.49994,2.00023 c 0.55224,3e-5 0.99991,0.4477 0.99994,0.99994 -3e-5,0.55223 -0.4477,0.99991 -0.99994,0.99994 -0.55224,-3e-5 -0.99991,-0.44771 -0.99994,-0.99994 3e-5,-0.55224 0.4477,-0.99991 0.99994,-0.99994 z m 32.5002,0 c 0.55223,3e-5 0.99991,0.4477 0.99994,0.99994 -3e-5,0.55223 -0.44771,0.99991 -0.99994,0.99994 -0.55243,2.6e-4 -1.00045,-0.4475 -1.00047,-0.99994 2e-5,-0.55244 0.44804,-1.00021 1.00047,-0.99994 z"
       style="fill:none;fill-opacity:1;stroke:#000000;stroke-width:0.1;stroke-miterlimit:4;stroke-dasharray:none;stroke-dashoffset:0;stroke-opacity:1" />
    <path
       id="rect1256"
       d="m -301.3952,-207.12846 v 4.99967 h 2.5001 v 3.24993 h -2.5001 v 22.49992 h 1.99988 v 6.00015 c 0,1.10799 0.89186,1.99988 1.99987,1.99988 h 1.99988 c 1.10802,0 2.0004,-0.89189 2.0004,-1.99988 v -6.00015 h 1.99988 v -22.49992 -3.24993 -4.99967 z m 6.49986,1.99984 c 0.55224,4e-5 0.99991,0.44771 0.99994,0.99994 -3e-5,0.55224 -0.4477,0.99991 -0.99994,0.99995 -0.55224,-4e-5 -0.99991,-0.44771 -0.99994,-0.99995 3e-5,-0.55223 0.4477,-0.9999 0.99994,-0.99994 z m -1.50017,32.74995 c 0.55224,4e-5 0.99991,0.44769 0.99994,0.99994 -3e-5,0.55223 -0.4477,0.9999 -0.99994,0.99994 -0.55223,-4e-5 -0.9999,-0.44771 -0.99994,-0.99994 4e-5,-0.55225 0.44771,-0.9999 0.99994,-0.99994 z"
       style="fill:none;fill-opacity:1;stroke:#000000;stroke-width:0.1;stroke-miterlimit:4;stroke-dasharray:none;stroke-dashoffset:0;stroke-opacity:1" />
    <path
       style="fill:none;fill-opacity:1;stroke:#000000;stroke-width:0.1;stroke-miterlimit:4;stroke-dasharray:none;stroke-dashoffset:0;stroke-opacity:1"
       d="m -290.3952,-207.12846 v 4.99967 h 2.5002 v 3.24993 h -2.50011 v 22.49992 h 1.99988 v 6.00015 c 0,1.10799 0.89186,1.99988 1.99988,1.99988 h 1.99988 c 1.10801,0 2.00039,-0.89189 2.00039,-1.99988 v -6.00015 h 1.99988 v -22.49992 -3.24993 -4.99967 z m 6.49995,1.99984 c 0.55224,4e-5 0.99991,0.44771 0.99994,0.99994 -3e-5,0.55224 -0.4477,0.99991 -0.99994,0.99995 -0.55224,-4e-5 -0.99991,-0.44771 -0.99994,-0.99995 3e-5,-0.55223 0.4477,-0.9999 0.99994,-0.99994 z m -1.50016,32.74995 c 0.55223,4e-5 0.9999,0.44769 0.99994,0.99994 -4e-5,0.55223 -0.44771,0.9999 -0.99994,0.99994 -0.55224,-4e-5 -0.99991,-0.44771 -0.99994,-0.99994 3e-5,-0.55225 0.4477,-0.9999 0.99994,-0.99994 z"
       id="path1279" />
  </g>
</svg>
