<?xml version="1.0" encoding="UTF-8" standalone="no"?>
<svg
   xmlns:dc="http://purl.org/dc/elements/1.1/"
   xmlns:cc="http://creativecommons.org/ns#"
   xmlns:rdf="http://www.w3.org/1999/02/22-rdf-syntax-ns#"
   xmlns:svg="http://www.w3.org/2000/svg"
   xmlns="http://www.w3.org/2000/svg"
   id="svg1341"
   version="1.1"
   viewBox="0 0 288.10049 176.10013"
   height="176.10013mm"
   width="288.10049mm">
  <defs
     id="defs1335" />
  <metadata
     id="metadata1338">
    <rdf:RDF>
      <cc:Work
         rdf:about="">
        <dc:format>image/svg+xml</dc:format>
        <dc:type
           rdf:resource="http://purl.org/dc/dcmitype/StillImage" />
        <dc:title></dc:title>
      </cc:Work>
    </rdf:RDF>
  </metadata>
  <g
     transform="translate(217.37763,168.2703)"
     id="layer1">
    <path
       style="fill:none;fill-opacity:1;stroke:#000000;stroke-width:0.1;stroke-miterlimit:4;stroke-dasharray:none;stroke-opacity:1"
       d="m -181.32735,-130.22045 h -3.00032 v -11.99979 h -22.49993 v 11.99979 h -2.99982 v 14.00018 h 2.99982 v 16.00005 h -2.99982 v 13.999661 h 2.99982 v 4.000291 h 7.00061 v -17.999952 h 8.49974 v 17.999952 h 6.99958 v -4.000291 h 3.00032 v -13.999661 h -3.00032 v -16.00005 h 3.00032 z m -4.00026,22.00021 c 8e-5,0.82836 -0.67131,1.49997 -1.49967,1.50016 -0.82856,9e-5 -1.50026,-0.67161 -1.50015,-1.50016 -1.1e-4,-0.82857 0.67159,-1.50026 1.50015,-1.50017 0.82836,1.9e-4 1.49975,0.67181 1.49967,1.50017 z m -6.49986,-20.24993 c -2.1e-4,2.07079 -1.67886,3.74944 -3.74965,3.74964 -2.071,9e-5 -3.74997,-1.67865 -3.75015,-3.74964 -8e-5,-2.07119 1.67897,-3.75025 3.75015,-3.75016 2.071,2e-4 3.74973,1.67917 3.74965,3.75016 z m -10.99987,20.24993 c 1.1e-4,0.82855 -0.67159,1.50025 -1.50016,1.50016 -0.82836,-1.9e-4 -1.49974,-0.6718 -1.49963,-1.50016 -1.1e-4,-0.82836 0.67127,-1.49998 1.49963,-1.50017 0.82857,-9e-5 1.50027,0.6716 1.50016,1.50017 z"
       id="path1192" />
    <path
       id="path1194"
       d="m 22.672699,-94.720518 v 3.000319 h -11.99979 v 22.499931 h 11.99979 v 2.99982 h 14.00018 v -2.99982 h 16.00004 v 2.99982 h 13.99966 v -2.99982 h 4.00029 v -7.00061 h -17.99995 v -8.49974 h 17.99995 v -6.999581 h -4.00029 v -3.000319 h -13.99966 v 3.000319 h -16.00004 v -3.000319 z m 22.00021,4.000259 c 0.82836,-7.9e-5 1.49997,0.671301 1.50016,1.499661 9e-5,0.828569 -0.67161,1.50027 -1.50016,1.500161 -0.82857,1.09e-4 -1.50026,-0.671592 -1.50017,-1.500161 1.9e-4,-0.82836 0.67181,-1.49974 1.50017,-1.499661 z m -20.24993,6.49986 c 2.07079,2.12e-4 3.74944,1.678861 3.74964,3.749651 9e-5,2.071 -1.67865,3.749969 -3.74964,3.750149 -2.07119,8.2e-5 -3.75025,-1.678969 -3.75016,-3.750149 2e-4,-2.070999 1.67917,-3.74973 3.75016,-3.749651 z m 20.24993,10.999872 c 0.82855,-1.11e-4 1.50025,0.67159 1.50016,1.500159 -1.9e-4,0.82836 -0.6718,1.49974 -1.50016,1.499632 -0.82836,1.08e-4 -1.49998,-0.671272 -1.50017,-1.499632 -9e-5,-0.828569 0.6716,-1.50027 1.50017,-1.500159 z"
       style="fill:none;fill-opacity:1;stroke:#000000;stroke-width:0.1;stroke-miterlimit:4;stroke-dasharray:none;stroke-opacity:1" />
    <path
       id="path1196"
       d="m -177.32697,-168.2203 v 85.999931 H 6.672649 v -8.999987 -3.999759 -1.99988 h 57.00067 v -6.000145 h -26.0005 v -5.0002 h 26.0005 v -33.99999 h -26.0005 v -4.9997 h 26.0005 v -6.00014 H 6.672649 v -2.00041 -3.99976 -8.99996 z m 8.99997,8.50024 c 0.82835,-1e-4 1.49996,0.6713 1.50016,1.49966 9e-5,0.82854 -0.67161,1.5003 -1.50016,1.50016 -0.82835,-1.3e-4 -1.49974,-0.6718 -1.49965,-1.50016 2e-4,-0.82812 0.6715,-1.49944 1.49965,-1.49966 z m 16.00006,7.4998 h 14.00017 v 2.99982 h -14.00017 z m 30.00023,0 h 13.99966 v 2.99982 h -13.99966 z m 164.999759,0.99994 c 0.55224,0 0.99989,0.4477 0.99994,0.99994 2.6e-4,0.55245 -0.44749,1.00045 -0.99994,1.00047 -0.55245,-2e-5 -1.00018,-0.44802 -0.99994,-1.00047 5e-5,-0.55224 0.4477,-0.99994 0.99994,-0.99994 z m 8.00002,0 c 0.55224,0 0.99986,0.4477 0.99994,0.99994 2.4e-4,0.55245 -0.44749,1.00045 -0.99994,1.00047 -0.55245,-2e-5 -1.00021,-0.44802 -0.99994,-1.00047 5e-5,-0.55224 0.4477,-0.99994 0.99994,-0.99994 z m -117.0001,6.00017 c 0.55244,-2.4e-4 1.00043,0.44749 1.00046,0.99994 -3e-5,0.55245 -0.44802,1.00018 -1.00046,0.99994 -0.55224,-3e-5 -0.9999,-0.4477 -0.99994,-0.99994 4e-5,-0.55224 0.4477,-0.99991 0.99994,-0.99994 z m 39.00021,0 c 0.55224,3e-5 0.99991,0.4477 0.99994,0.99994 -3e-5,0.55224 -0.4477,0.99991 -0.99994,0.99994 -0.55224,-3e-5 -0.99991,-0.4477 -0.99994,-0.99994 3e-5,-0.55224 0.4477,-0.99991 0.99994,-0.99994 z m -147.500049,6.00014 h 2.99982 v 9.9999 h -2.99982 z m 5.49993,1.99988 h 4.99969 v 24.00009 h -4.99969 z m 70.999799,0 h 5.00021 v 24.00009 h -5.00021 z m 129.00038,2.99982 h 31.99961 v 17.99995 h -31.99961 z m -51.0005,3.00032 h 30.00026 v 11.99981 h -30.00026 z m -30.49994,1.99988 c 0.55243,-2.3e-4 1.00041,0.44752 1.00046,0.99994 -3e-5,0.55245 -0.44802,1.00021 -1.00046,0.99994 -0.55224,-2e-5 -0.99991,-0.4477 -0.99994,-0.99994 5e-5,-0.55221 0.44771,-0.99988 0.99994,-0.99994 z m -37.99974,0.99994 h 5.99963 v 6.00017 h -5.99963 z m -84.499759,1.99988 c 0.55224,3e-5 0.99991,0.44771 0.99994,0.99994 -3e-5,0.55224 -0.4477,0.99992 -0.99994,0.99994 -0.55224,-2e-5 -0.9999,-0.4477 -0.99994,-0.99994 4e-5,-0.55223 0.4477,-0.99991 0.99994,-0.99994 z m -1.50017,5.00023 h 2.99982 v 9.9999 h -2.99982 z m 22.49993,19.9998 h 14.00017 v 2.999823 h -14.00017 z m 30.00023,0 h 13.99966 v 2.999823 h -13.99966 z m 164.999759,0 c 0.55224,3e-5 0.99991,0.4477 0.99994,0.99994 -3e-5,0.552242 -0.4477,0.999917 -0.99994,0.999943 -0.55224,-2.6e-5 -0.99989,-0.447701 -0.99994,-0.999943 5e-5,-0.55224 0.4477,-0.99991 0.99994,-0.99994 z m 8.00002,0 c 0.55224,3e-5 0.99991,0.4477 0.99994,0.99994 -3e-5,0.552242 -0.4477,0.999917 -0.99994,0.999943 -0.55224,-2.6e-5 -0.99994,-0.447701 -0.99994,-0.999943 0,-0.55224 0.4477,-0.99991 0.99994,-0.99994 z m -97.49999,5.000205 c 0.55224,5.3e-5 0.9999,0.447702 0.99993,0.99994 -3e-5,0.552265 -0.44769,0.999913 -0.99993,0.99994 -0.55225,-2.7e-5 -0.99991,-0.447675 -0.99994,-0.99994 3e-5,-0.552238 0.44769,-0.999887 0.99994,-0.99994 z M -168.327,-93.719927 c 0.82835,-8e-5 1.49996,0.670798 1.50016,1.499129 1.1e-4,0.828569 -0.6716,1.500796 -1.50016,1.50069 -0.82837,-1.85e-4 -1.49976,-0.672306 -1.49965,-1.50069 2e-4,-0.828146 0.6715,-1.498918 1.49965,-1.499129 z"
       style="fill:none;fill-opacity:1;stroke:#000000;stroke-width:0.1;stroke-miterlimit:4;stroke-dasharray:none;stroke-opacity:1" />
    <path
       id="path1198"
       d="M -217.32763,-78.220107 V 7.7798219 h 92.00007 v -15.58716 c -0.16057,0.0573 -0.32973,0.0868 -0.50023,0.0873 -0.82855,1.1e-4 -1.50025,-0.67159 -1.50017,-1.50016 -8e-5,-0.8285699 0.67162,-1.5002699 1.50017,-1.5001599 0.17052,0 0.33969,0.0303 0.50023,0.0878 v -21.58778 h -2.9993 v -6.00014 h 2.9993 v -21.58733 c -0.16053,0.0575 -0.3297,0.0873 -0.50023,0.0879 -0.82857,8e-5 -1.50027,-0.67159 -1.50017,-1.50016 -8e-5,-0.82857 0.67162,-1.50027 1.50017,-1.50019 0.17053,0 0.3397,0.0303 0.50023,0.0879 v -15.587749 z m 8.99997,8.500269 c 0.82835,-1.06e-4 1.49997,0.671274 1.50016,1.49963 10e-5,0.82854 -0.67161,1.5003 -1.50016,1.50016 -0.82836,-1.6e-4 -1.49975,-0.6718 -1.49965,-1.50016 1.9e-4,-0.828144 0.67149,-1.499445 1.49965,-1.49963 z m 61.99983,6.99955 c 0.82856,-8e-5 1.50026,0.67162 1.50017,1.50019 1e-4,0.82857 -0.6716,1.50024 -1.50017,1.50016 -0.82856,8e-5 -1.50027,-0.67159 -1.50017,-1.50016 -8e-5,-0.82857 0.67162,-1.50027 1.50017,-1.50019 z m -45.99978,0.50025 h 14.00019 v 2.99979 h -14.00019 z m 30.00024,0 h 13.99966 v 2.99979 h -13.99966 z m 20.99975,0 c 0.55224,3e-5 0.99991,0.44767 0.99994,0.99994 -3e-5,0.55224 -0.4477,0.99989 -0.99994,0.99991 -0.55223,-2e-5 -0.9999,-0.44767 -0.99993,-0.99991 3e-5,-0.55227 0.4477,-0.99991 0.99993,-0.99994 z m -73.4999,13.00022 h 2.99981 v 9.9999 h -2.99981 z m 1.50016,12.99972 c 0.55224,3e-5 0.99991,0.4477 0.99994,0.99994 -3e-5,0.55224 -0.4477,0.99992 -0.99994,0.99994 -0.55223,-2e-5 -0.9999,-0.4477 -0.99994,-0.99994 4e-5,-0.55224 0.44771,-0.99991 0.99994,-0.99994 z m -1.50016,5.00023 h 2.99981 v 9.9999 h -2.99981 z m 22.49991,19.9998 h 14.00019 v 2.9998199 h -14.00019 z m 30.00024,0 h 13.99966 v 2.9998199 h -13.99966 z m 15.99954,0.49972 c 0.82856,-1.1e-4 1.50026,0.67162 1.50017,1.5001599 9e-5,0.82854 -0.67161,1.50027 -1.50017,1.50016 -0.82855,1.1e-4 -1.50025,-0.67162 -1.50017,-1.50016 -8e-5,-0.8285399 0.67162,-1.5002699 1.50017,-1.5001599 z m 5.00021,0.50022 c 0.55224,3e-5 0.99991,0.4476999 0.99994,0.9999399 -3e-5,0.55224 -0.4477,0.99991 -0.99994,0.99994 -0.55223,-3e-5 -0.9999,-0.4477 -0.99993,-0.99994 3e-5,-0.55224 0.4477,-0.9999099 0.99993,-0.9999399 z m -67.00004,6.4998599 c 0.82835,-8e-5 1.49997,0.6713 1.50016,1.49966 9e-5,0.82854 -0.67161,1.50024 -1.50016,1.50016 -0.82835,-1.8e-4 -1.49974,-0.67183 -1.49965,-1.50016 1.9e-4,-0.82815 0.67149,-1.49947 1.49965,-1.49966 z"
       style="fill:none;fill-opacity:1;stroke:#000000;stroke-width:0.1;stroke-miterlimit:4;stroke-dasharray:none;stroke-opacity:1" />
    <path
       id="path1204"
       d="m -17.827061,-79.220409 v 3.00033 h -3.00033 v 9.999911 h 3.00033 v 2.99981 h 22.49992 v -2.99981 h 2.99982 v -9.999911 h -2.99982 v -3.00033 z"
       style="fill:none;fill-opacity:1;stroke:#000000;stroke-width:0.1;stroke-miterlimit:4;stroke-dasharray:none;stroke-dashoffset:0;stroke-opacity:1" />
    <path
       style="fill:none;fill-opacity:1;stroke:#000000;stroke-width:0.1;stroke-miterlimit:4;stroke-dasharray:none;stroke-dashoffset:0;stroke-opacity:1"
       d="m -49.327091,-79.220409 v 3.00033 h -3.00033 v 9.999911 h 3.00033 v 2.99981 h 22.49992 v -2.99981 h 2.99982 v -9.999911 h -2.99982 v -3.00033 z"
       id="path1208" />
    <path
       style="fill:none;fill-opacity:1;stroke:#000000;stroke-width:0.1;stroke-miterlimit:4;stroke-dasharray:none;stroke-dashoffset:0;stroke-opacity:1"
       d="M -45.327251,-63.220198 V 6.7798019 h 56.0002 V -63.220198 Z m 7.00008,7 h 27.99985 v 6 h -27.99985 z m -2.49994,2.00018 c 0.55224,3e-5 0.99991,0.4477 0.99994,0.99994 -3e-5,0.55224 -0.4477,0.99991 -0.99994,0.99994 -0.55224,-3e-5 -0.99991,-0.4477 -0.99994,-0.99994 3e-5,-0.55224 0.4477,-0.99991 0.99994,-0.99994 z m 32.5002,0 c 0.55224,3e-5 0.99991,0.4477 0.99994,0.99994 -3e-5,0.55224 -0.4477,0.99991 -0.99994,0.99994 -0.55244,2.6e-4 -1.00044,-0.4475 -1.00047,-0.99994 3e-5,-0.55244 0.44803,-1.0002 1.00047,-0.99994 z m 9.9999,5.75004 c 0.55221,3e-5 0.99991,0.44767 0.99994,0.99994 0,0.55245 -0.44752,1.00094 -0.99994,1.00097 -0.55264,0 -1.00075995,-0.44836 -1.00046995,-1.00097 2e-5,-0.55242 0.44801995,-1.00021 1.00046995,-0.99994 z m -40.00016,3.24978 h 27.99985 v 34 h -27.99985 v -3.99961 h -3.99976 v -25.99997 h 3.99976 z m 36.99981,8.00018 h 6.00017 v 3.81062 c 1.8542,1.07062 2.99754,3.04868 2.99982,5.18986 2.1e-4,3.31356 -2.68603,5.99941 -5.99964,5.99964 -3.31378,9e-5 -6.00022,-2.6858 -6.00017,-5.99964 0.003,-2.14039 1.14623,-4.11755 2.99982,-5.18779 z m 3.00035,15.50034 1.73167,0.99994 v 1.99988 l -1.73167,0.99994 -1.73219995,-0.99994 v -1.99988 z m -40.00016,15.4994799 h 27.99985 v 6 h -27.99985 z m -2.49994,2.00023 c 0.55224,3e-5 0.99991,0.4477 0.99994,0.99994 -3e-5,0.55224 -0.4477,0.99991 -0.99994,0.99994 -0.55224,-3e-5 -0.99991,-0.4477 -0.99994,-0.99994 3e-5,-0.55224 0.4477,-0.99991 0.99994,-0.99994 z m 32.5002,0 c 0.55224,3e-5 0.99991,0.4477 0.99994,0.99994 -3e-5,0.55224 -0.4477,0.99991 -0.99994,0.99994 -0.55244,2.6e-4 -1.00044,-0.4475 -1.00047,-0.99994 3e-5,-0.55244 0.44803,-1.0002 1.00047,-0.99994 z"
       id="path1212" />
    <path
       id="path1214"
       d="M -101.32709,-63.220278 V 6.7795819 h 56.000199 V -63.220278 Z m 7.000109,7.00008 h 27.99982 v 6.00001 h -27.99982 z m -2.50011,1.99988 c 0.55224,5e-5 0.99989,0.4477 0.99992,0.99994 -3e-5,0.55227 -0.44768,0.99991 -0.99992,0.99994 -0.55226,-3e-5 -0.99991,-0.44767 -0.99994,-0.99994 3e-5,-0.55224 0.44768,-0.99989 0.99994,-0.99994 z m 32.50034,0 c 0.55224,5e-5 0.99991,0.4477 0.99994,0.99994 -3e-5,0.55227 -0.4477,0.99991 -0.99994,0.99994 -0.55245,0 -1.00042,-0.44749 -1.00047,-0.99994 5e-5,-0.55242 0.44802,-1.00018 1.00047,-0.99994 z m -30.00023,8.99999 h 27.99982 v 33.99999 h -27.99982 v -3.99976 h -3.99977 v -25.99997 h 3.99977 z m 33.74988,0 h 12.5 v 25.25014 h -3.24993 v 1.99988 c 0,1.66198 -1.33834,3.00032 -3.00032,3.00032 -1.66201,0 -2.99982,-1.33834 -2.99982,-3.00032 v -1.99988 h -3.24993 z m -33.74988,39.0001399 h 27.99982 v 5.99998 h -27.99982 z m -2.50011,1.99993 c 0.55224,3e-5 0.99989,0.4477 0.99992,0.99994 -3e-5,0.55224 -0.44768,0.99991 -0.99992,0.99994 -0.55226,-3e-5 -0.99991,-0.4477 -0.99994,-0.99994 3e-5,-0.55224 0.44768,-0.99991 0.99994,-0.99994 z m 32.50034,0 c 0.55224,3e-5 0.99991,0.4477 0.99994,0.99994 -3e-5,0.55224 -0.4477,0.99991 -0.99994,0.99994 -0.55245,0 -1.00042,-0.44749 -1.00047,-0.99994 5e-5,-0.55245 0.44802,-1.00021 1.00047,-0.99994 z"
       style="fill:none;fill-opacity:1;stroke:#000000;stroke-width:0.1;stroke-miterlimit:4;stroke-dasharray:none;stroke-dashoffset:0;stroke-opacity:1" />
    <path
       id="path1248"
       d="M 11.672749,-63.220198 V 6.7798019 h 56.00019 V -63.220198 Z m 7.00008,7 h 27.99985 v 6 h -27.99985 z m -2.49994,2.00018 c 0.55224,3e-5 0.99991,0.4477 0.99994,0.99994 -3e-5,0.55224 -0.4477,0.99991 -0.99994,0.99994 -0.55224,-3e-5 -0.99991,-0.4477 -0.99994,-0.99994 3e-5,-0.55224 0.4477,-0.99991 0.99994,-0.99994 z m 32.50019,0 c 0.55224,3e-5 0.99992,0.4477 0.99994,0.99994 -2e-5,0.55224 -0.4477,0.99991 -0.99994,0.99994 -0.55242,2.6e-4 -1.00044,-0.4475 -1.00047,-0.99994 3e-5,-0.55244 0.44805,-1.0002 1.00047,-0.99994 z m 9.9999,5.75004 c 0.55221,3e-5 0.99992,0.44767 0.99994,0.99994 0,0.55245 -0.44751,1.00094 -0.99994,1.00097 -0.55263,0 -1.00076,-0.44836 -1.00047,-1.00097 3e-5,-0.55242 0.44802,-1.00021 1.00047,-0.99994 z m -40.00015,3.24978 h 27.99985 v 34 h -27.99985 v -3.99961 h -3.99976 v -25.99997 h 3.99976 z m 36.9998,8.00018 h 6.00017 v 3.81062 c 1.8542,1.07062 2.99755,3.04868 2.99982,5.18986 2.1e-4,3.31356 -2.68602,5.99941 -5.99964,5.99964 -3.31377,9e-5 -6.00022,-2.6858 -6.00016,-5.99964 0.003,-2.14039 1.14622,-4.11755 2.99981,-5.18779 z m 3.00035,15.50034 1.73167,0.99994 v 1.99988 l -1.73167,0.99994 -1.7322,-0.99994 v -1.99988 z m -40.00015,15.4994799 h 27.99985 v 6 h -27.99985 z m -2.49994,2.00023 c 0.55224,3e-5 0.99991,0.4477 0.99994,0.99994 -3e-5,0.55224 -0.4477,0.99991 -0.99994,0.99994 -0.55224,-3e-5 -0.99991,-0.4477 -0.99994,-0.99994 3e-5,-0.55224 0.4477,-0.99991 0.99994,-0.99994 z m 32.50019,0 c 0.55224,3e-5 0.99992,0.4477 0.99994,0.99994 -2e-5,0.55224 -0.4477,0.99991 -0.99994,0.99994 -0.55242,2.6e-4 -1.00044,-0.4475 -1.00047,-0.99994 3e-5,-0.55244 0.44805,-1.0002 1.00047,-0.99994 z"
       style="fill:none;fill-opacity:1;stroke:#000000;stroke-width:0.1;stroke-miterlimit:4;stroke-dasharray:none;stroke-dashoffset:0;stroke-opacity:1" />
    <path
       id="rect1256"
       d="m -123.32709,-78.220197 v 4.99967 h 2.5001 v 3.24993 h -2.5001 v 22.499929 h 1.99988 v 6.00014 c 0,1.108 0.89186,1.99988 1.99987,1.99988 h 1.99988 c 1.10802,0 2.0004,-0.89188 2.0004,-1.99988 v -6.00014 h 1.99988 v -22.499929 -3.24993 -4.99967 z m 6.49986,1.999848 c 0.55224,3.2e-5 0.99991,0.447702 0.99994,0.99994 -3e-5,0.552241 -0.4477,0.999911 -0.99994,0.999942 -0.55224,-3.1e-5 -0.99991,-0.447701 -0.99994,-0.999942 3e-5,-0.552238 0.4477,-0.999908 0.99994,-0.99994 z m -1.50017,32.749941 c 0.55224,5e-5 0.99991,0.4477 0.99994,0.99994 -3e-5,0.55224 -0.4477,0.99991 -0.99994,0.99994 -0.55223,-3e-5 -0.9999,-0.4477 -0.99994,-0.99994 4e-5,-0.55224 0.44771,-0.99989 0.99994,-0.99994 z"
       style="fill:none;fill-opacity:1;stroke:#000000;stroke-width:0.1;stroke-miterlimit:4;stroke-dasharray:none;stroke-dashoffset:0;stroke-opacity:1" />
    <path
       style="fill:none;fill-opacity:1;stroke:#000000;stroke-width:0.1;stroke-miterlimit:4;stroke-dasharray:none;stroke-dashoffset:0;stroke-opacity:1"
       d="m -112.32709,-78.220197 v 4.99967 h 2.5002 v 3.24993 h -2.50011 v 22.499929 h 1.99988 v 6.00014 c 0,1.10799 0.89186,1.99988 1.99988,1.99988 h 1.99988 c 1.10801,0 2.00039,-0.89189 2.00039,-1.99988 v -6.00014 h 1.99988 v -22.499929 -3.24993 -4.99967 z m 6.49995,1.999848 c 0.55224,3.2e-5 0.99991,0.447702 0.99994,0.99994 -3e-5,0.552241 -0.4477,0.999911 -0.99994,0.999942 -0.55224,-3.1e-5 -0.99991,-0.447701 -0.99994,-0.999942 3e-5,-0.552238 0.4477,-0.999908 0.99994,-0.99994 z m -1.50016,32.749941 c 0.55223,5e-5 0.9999,0.4477 0.99994,0.99994 -4e-5,0.55224 -0.44771,0.99991 -0.99994,0.99994 -0.55224,-3e-5 -0.99991,-0.4477 -0.99994,-0.99994 3e-5,-0.55224 0.4477,-0.99989 0.99994,-0.99994 z"
       id="path1279" />
    <path
       style="fill:none;fill-opacity:1;stroke:#000000;stroke-width:0.1;stroke-miterlimit:4;stroke-dasharray:none;stroke-dashoffset:0;stroke-opacity:1"
       d="m 43.622801,-28.17002 v -2.99982 h 2.99982 l -1.31e-4,-5.999999 h -2.99982 v -3.00033 H 31.62236 v 3.00033 h -2.99982 l 1.31e-4,5.999999 h 2.99982 v 2.99982 z m -2.00014,-4.999879 c -0.552238,-3.4e-5 -0.999907,-0.447702 -0.99994,-0.99994 3.3e-5,-0.552238 0.447702,-0.999907 0.99994,-0.99994 0.552238,3.3e-5 0.999907,0.447702 0.99994,0.99994 -3.3e-5,0.552238 -0.447702,0.999906 -0.99994,0.99994 z m -8.00005,0 c -0.552238,-3.4e-5 -0.999907,-0.447702 -0.99994,-0.99994 3.3e-5,-0.552238 0.447702,-0.999907 0.99994,-0.99994 0.552238,3.3e-5 0.999907,0.447702 0.99994,0.99994 -3.3e-5,0.552238 -0.447702,0.999906 -0.99994,0.99994 z"
       id="path6882" />
    <path
       id="path2872"
       d="m 43.622801,-16.170021 v -2.99982 h 2.99982 l -1.31e-4,-5.999999 h -2.99982 v -3.00033 H 31.62236 v 3.00033 h -2.99982 l 1.31e-4,5.999999 h 2.99982 v 2.99982 z m -2.00014,-4.999879 c -0.552238,-3.4e-5 -0.999907,-0.447702 -0.99994,-0.99994 3.3e-5,-0.552238 0.447702,-0.999907 0.99994,-0.99994 0.552238,3.3e-5 0.999907,0.447702 0.99994,0.99994 -3.3e-5,0.552238 -0.447702,0.999906 -0.99994,0.99994 z m -8.00005,0 c -0.552238,-3.4e-5 -0.999907,-0.447702 -0.99994,-0.99994 3.3e-5,-0.552238 0.447702,-0.999907 0.99994,-0.99994 0.552238,3.3e-5 0.999907,0.447702 0.99994,0.99994 -3.3e-5,0.552238 -0.447702,0.999906 -0.99994,0.99994 z"
       style="fill:none;fill-opacity:1;stroke:#000000;stroke-width:0.1;stroke-miterlimit:4;stroke-dasharray:none;stroke-dashoffset:0;stroke-opacity:1" />
    <path
       style="fill:none;fill-opacity:1;stroke:#000000;stroke-width:0.1;stroke-miterlimit:4;stroke-dasharray:none;stroke-dashoffset:0;stroke-opacity:1"
       d="m -42.377786,-23.17004 h 2.99982 v 2.99982 l 5.999999,-1.31e-4 v -2.99982 h 3.00033 v -12.00031 h -3.00033 v -2.99982 l -5.999999,1.31e-4 v 2.99982 h -2.99982 z m 4.999879,-2.00014 c 3.4e-5,-0.552238 0.447702,-0.999907 0.99994,-0.99994 0.552238,3.3e-5 0.999907,0.447702 0.99994,0.99994 -3.3e-5,0.552238 -0.447702,0.999907 -0.99994,0.99994 -0.552238,-3.3e-5 -0.999906,-0.447702 -0.99994,-0.99994 z m 0,-8.00005 c 3.4e-5,-0.552238 0.447702,-0.999907 0.99994,-0.99994 0.552238,3.3e-5 0.999907,0.447702 0.99994,0.99994 -3.3e-5,0.552238 -0.447702,0.999907 -0.99994,0.99994 -0.552238,-3.3e-5 -0.999906,-0.447702 -0.99994,-0.99994 z"
       id="path2874" />
    <path
       id="path2876"
       d="m -13.377638,-28.17017 v -2.99982 h 2.99982 l -1.31e-4,-5.999999 h -2.99982 v -3.00033 h -12.00031 v 3.00033 h -2.99982 l 1.31e-4,5.999999 h 2.99982 v 2.99982 z m -2.00014,-4.999879 c -0.552238,-3.4e-5 -0.999907,-0.447702 -0.99994,-0.99994 3.3e-5,-0.552238 0.447702,-0.999907 0.99994,-0.99994 0.552238,3.3e-5 0.999907,0.447702 0.99994,0.99994 -3.3e-5,0.552238 -0.447702,0.999906 -0.99994,0.99994 z m -8.00005,0 c -0.552238,-3.4e-5 -0.999907,-0.447702 -0.99994,-0.99994 3.3e-5,-0.552238 0.447702,-0.999907 0.99994,-0.99994 0.552238,3.3e-5 0.999907,0.447702 0.99994,0.99994 -3.3e-5,0.552238 -0.447702,0.999906 -0.99994,0.99994 z"
       style="fill:none;fill-opacity:1;stroke:#000000;stroke-width:0.1;stroke-miterlimit:4;stroke-dasharray:none;stroke-dashoffset:0;stroke-opacity:1" />
    <path
       style="fill:none;fill-opacity:1;stroke:#000000;stroke-width:0.1;stroke-miterlimit:4;stroke-dasharray:none;stroke-dashoffset:0;stroke-opacity:1"
       d="m -13.377507,-16.170021 v -2.99982 h 2.99982 l -1.31e-4,-5.999999 h -2.99982 v -3.00033 h -12.00031 v 3.00033 h -2.99982 l 1.31e-4,5.999999 h 2.99982 v 2.99982 z m -2.00014,-4.999879 c -0.552238,-3.4e-5 -0.999907,-0.447702 -0.99994,-0.99994 3.3e-5,-0.552238 0.447702,-0.999907 0.99994,-0.99994 0.552238,3.3e-5 0.999907,0.447702 0.99994,0.99994 -3.3e-5,0.552238 -0.447702,0.999906 -0.99994,0.99994 z m -8.00005,0 c -0.552238,-3.4e-5 -0.999907,-0.447702 -0.99994,-0.99994 3.3e-5,-0.552238 0.447702,-0.999907 0.99994,-0.99994 0.552238,3.3e-5 0.999907,0.447702 0.99994,0.99994 -3.3e-5,0.552238 -0.447702,0.999906 -0.99994,0.99994 z"
       id="path2878" />
    <path
       style="fill:none;fill-opacity:1;stroke:#000000;stroke-width:0.1;stroke-miterlimit:4;stroke-dasharray:none;stroke-dashoffset:0;stroke-opacity:1"
       d="m 14.622541,-22.169991 h 2.99982 v 2.99982 l 5.999999,-1.31e-4 v -2.99982 h 3.00033 v -12.00031 h -3.00033 v -2.99982 l -5.999999,1.31e-4 v 2.99982 h -2.99982 z m 4.999879,-2.00014 c 3.4e-5,-0.552238 0.447702,-0.999907 0.99994,-0.99994 0.552238,3.3e-5 0.999907,0.447702 0.99994,0.99994 -3.3e-5,0.552238 -0.447702,0.999907 -0.99994,0.99994 -0.552238,-3.3e-5 -0.999906,-0.447702 -0.99994,-0.99994 z m 0,-8.00005 c 3.4e-5,-0.552238 0.447702,-0.999907 0.99994,-0.99994 0.552238,3.3e-5 0.999907,0.447702 0.99994,0.99994 -3.3e-5,0.552238 -0.447702,0.999907 -0.99994,0.99994 -0.552238,-3.3e-5 -0.999906,-0.447702 -0.99994,-0.99994 z"
       id="path2900" />
    <path
       id="path2902"
       d="m -98.377473,-24.17037 h 2.99982 v 2.99982 l 5.999999,-1.31e-4 v -2.99982 h 3.00033 v -12.00031 h -3.00033 v -2.99982 l -5.999999,1.31e-4 v 2.99982 h -2.99982 z m 4.999879,-2.00014 c 3.4e-5,-0.552238 0.447702,-0.999907 0.99994,-0.99994 0.552238,3.3e-5 0.999907,0.447702 0.99994,0.99994 -3.3e-5,0.552238 -0.447702,0.999907 -0.99994,0.99994 -0.552238,-3.3e-5 -0.999906,-0.447702 -0.99994,-0.99994 z m 0,-8.00005 c 3.4e-5,-0.552238 0.447702,-0.999907 0.99994,-0.99994 0.552238,3.3e-5 0.999907,0.447702 0.99994,0.99994 -3.3e-5,0.552238 -0.447702,0.999907 -0.99994,0.99994 -0.552238,-3.3e-5 -0.999906,-0.447702 -0.99994,-0.99994 z"
       style="fill:none;fill-opacity:1;stroke:#000000;stroke-width:0.1;stroke-miterlimit:4;stroke-dasharray:none;stroke-dashoffset:0;stroke-opacity:1" />
    <path
       style="fill:none;fill-opacity:1;stroke:#000000;stroke-width:0.1;stroke-miterlimit:4;stroke-dasharray:none;stroke-dashoffset:0;stroke-opacity:1"
       d="m -69.377325,-29.1705 v -2.99982 h 2.99982 l -1.31e-4,-5.999999 h -2.99982 v -3.00033 h -12.00031 v 3.00033 h -2.99982 l 1.31e-4,5.999999 h 2.99982 v 2.99982 z m -2.00014,-4.999879 c -0.552238,-3.4e-5 -0.999907,-0.447702 -0.99994,-0.99994 3.3e-5,-0.552238 0.447702,-0.999907 0.99994,-0.99994 0.552238,3.3e-5 0.999907,0.447702 0.99994,0.99994 -3.3e-5,0.552238 -0.447702,0.999906 -0.99994,0.99994 z m -8.00005,0 c -0.552238,-3.4e-5 -0.999907,-0.447702 -0.99994,-0.99994 3.3e-5,-0.552238 0.447702,-0.999907 0.99994,-0.99994 0.552238,3.3e-5 0.999907,0.447702 0.99994,0.99994 -3.3e-5,0.552238 -0.447702,0.999906 -0.99994,0.99994 z"
       id="path2904" />
    <path
       id="path2906"
       d="m -69.377194,-17.170351 v -2.99982 h 2.99982 l -1.31e-4,-5.999999 h -2.99982 v -3.00033 h -12.00031 v 3.00033 h -2.99982 l 1.31e-4,5.999999 h 2.99982 v 2.99982 z m -2.00014,-4.999879 c -0.552238,-3.4e-5 -0.999907,-0.447702 -0.99994,-0.99994 3.3e-5,-0.552238 0.447702,-0.999907 0.99994,-0.99994 0.552238,3.3e-5 0.999907,0.447702 0.99994,0.99994 -3.3e-5,0.552238 -0.447702,0.999906 -0.99994,0.99994 z m -8.00005,0 c -0.552238,-3.4e-5 -0.999907,-0.447702 -0.99994,-0.99994 3.3e-5,-0.552238 0.447702,-0.999907 0.99994,-0.99994 0.552238,3.3e-5 0.999907,0.447702 0.99994,0.99994 -3.3e-5,0.552238 -0.447702,0.999906 -0.99994,0.99994 z"
       style="fill:none;fill-opacity:1;stroke:#000000;stroke-width:0.1;stroke-miterlimit:4;stroke-dasharray:none;stroke-dashoffset:0;stroke-opacity:1" />
    <path
       style="fill:none;fill-opacity:1;stroke:#000000;stroke-width:0.1;stroke-miterlimit:4;stroke-dasharray:none;stroke-dashoffset:0;stroke-opacity:1"
       d="m -107.37763,-26.17035 v -2.99982 h 2.99982 l -1.4e-4,-5.999999 h -2.99982 v -3.00033 h -12.00031 v 3.00033 h -2.99982 l 1.4e-4,5.999999 h 2.99982 v 2.99982 z m -2.00014,-4.999879 c -0.55224,-3.4e-5 -0.99991,-0.447702 -0.99994,-0.99994 3e-5,-0.552238 0.4477,-0.999907 0.99994,-0.99994 0.55223,3.3e-5 0.9999,0.447702 0.99994,0.99994 -4e-5,0.552238 -0.44771,0.999906 -0.99994,0.99994 z m -8.00005,0 c -0.55224,-3.4e-5 -0.99991,-0.447702 -0.99994,-0.99994 3e-5,-0.552238 0.4477,-0.999907 0.99994,-0.99994 0.55223,3.3e-5 0.9999,0.447702 0.99994,0.99994 -4e-5,0.552238 -0.44771,0.999906 -0.99994,0.99994 z"
       id="path2908" />
    <path
       id="path2910"
       d="m -107.37763,-14.170351 v -2.99982 h 2.99982 l -1.4e-4,-5.999999 h -2.99982 v -3.00033 h -12.00031 v 3.00033 h -2.99982 l 1.4e-4,5.999999 h 2.99982 v 2.99982 z m -2.00014,-4.999879 c -0.55224,-3.4e-5 -0.99991,-0.447702 -0.99994,-0.99994 3e-5,-0.552238 0.4477,-0.999907 0.99994,-0.99994 0.55223,3.3e-5 0.9999,0.447702 0.99994,0.99994 -4e-5,0.552238 -0.44771,0.999906 -0.99994,0.99994 z m -8.00005,0 c -0.55224,-3.4e-5 -0.99991,-0.447702 -0.99994,-0.99994 3e-5,-0.552238 0.4477,-0.999907 0.99994,-0.99994 0.55223,3.3e-5 0.9999,0.447702 0.99994,0.99994 -4e-5,0.552238 -0.44771,0.999906 -0.99994,0.99994 z"
       style="fill:none;fill-opacity:1;stroke:#000000;stroke-width:0.1;stroke-miterlimit:4;stroke-dasharray:none;stroke-dashoffset:0;stroke-opacity:1" />
    <path
       style="fill:none;fill-opacity:1;stroke:#000000;stroke-width:0.1;stroke-miterlimit:4;stroke-dasharray:none;stroke-dashoffset:0;stroke-opacity:1"
       d="m -107.37763,-2.1703513 v -2.99982 h 2.99982 l -1.4e-4,-5.9999987 h -2.99982 v -3.00033 h -12.00031 v 3.00033 h -2.99982 l 1.4e-4,5.9999987 h 2.99982 v 2.99982 z m -2.00014,-4.999879 c -0.55224,-3.4e-5 -0.99991,-0.447702 -0.99994,-0.99994 3e-5,-0.552238 0.4477,-0.999907 0.99994,-0.99994 0.55223,3.3e-5 0.9999,0.447702 0.99994,0.99994 -4e-5,0.552238 -0.44771,0.999906 -0.99994,0.99994 z m -8.00005,0 c -0.55224,-3.4e-5 -0.99991,-0.447702 -0.99994,-0.99994 3e-5,-0.552238 0.4477,-0.999907 0.99994,-0.99994 0.55223,3.3e-5 0.9999,0.447702 0.99994,0.99994 -4e-5,0.552238 -0.44771,0.999906 -0.99994,0.99994 z"
       id="path2912" />
    <circle
       r="2.9999998"
       cy="4.5798202"
       cx="-121.62763"
       id="path2926"
       style="fill:none;fill-opacity:1;stroke:#000000;stroke-width:0.1;stroke-miterlimit:4;stroke-dasharray:none;stroke-dashoffset:0;stroke-opacity:1" />
    <circle
       r="1.4999999"
       cy="4.5798202"
       cx="-121.62763"
       id="path2928"
       style="fill:none;fill-opacity:1;stroke:#000000;stroke-width:0.1;stroke-miterlimit:4;stroke-dasharray:none;stroke-dashoffset:0;stroke-opacity:1" />
    <circle
       style="fill:none;fill-opacity:1;stroke:#000000;stroke-width:0.1;stroke-miterlimit:4;stroke-dasharray:none;stroke-dashoffset:0;stroke-opacity:1"
       id="circle2934"
       cx="-115.37763"
       cy="4.5798202"
       r="2.9999998" />
    <circle
       style="fill:none;fill-opacity:1;stroke:#000000;stroke-width:0.1;stroke-miterlimit:4;stroke-dasharray:none;stroke-dashoffset:0;stroke-opacity:1"
       id="circle2936"
       cx="-115.37763"
       cy="4.5798202"
       r="1.4999999" />
    <circle
       r="2.9999998"
       cy="4.5798202"
       cx="-109.12763"
       id="circle2940"
       style="fill:none;fill-opacity:1;stroke:#000000;stroke-width:0.1;stroke-miterlimit:4;stroke-dasharray:none;stroke-dashoffset:0;stroke-opacity:1" />
    <circle
       r="1.4999999"
       cy="4.5798202"
       cx="-109.12763"
       id="circle2942"
       style="fill:none;fill-opacity:1;stroke:#000000;stroke-width:0.1;stroke-miterlimit:4;stroke-dasharray:none;stroke-dashoffset:0;stroke-opacity:1" />
    <circle
       style="fill:none;fill-opacity:1;stroke:#000000;stroke-width:0.1;stroke-miterlimit:4;stroke-dasharray:none;stroke-dashoffset:0;stroke-opacity:1"
       id="circle2946"
       cx="-200.87762"
       cy="-146.17017"
       r="2.9999998" />
    <circle
       style="fill:none;fill-opacity:1;stroke:#000000;stroke-width:0.1;stroke-miterlimit:4;stroke-dasharray:none;stroke-dashoffset:0;stroke-opacity:1"
       id="circle2948"
       cx="-200.87762"
       cy="-146.17017"
       r="1.4999999" />
    <circle
       r="2.9999998"
       cy="-146.17017"
       cx="-194.62762"
       id="circle2950"
       style="fill:none;fill-opacity:1;stroke:#000000;stroke-width:0.1;stroke-miterlimit:4;stroke-dasharray:none;stroke-dashoffset:0;stroke-opacity:1" />
    <circle
       r="1.4999999"
       cy="-146.17017"
       cx="-194.62762"
       id="circle2952"
       style="fill:none;fill-opacity:1;stroke:#000000;stroke-width:0.1;stroke-miterlimit:4;stroke-dasharray:none;stroke-dashoffset:0;stroke-opacity:1" />
    <circle
       style="fill:none;fill-opacity:1;stroke:#000000;stroke-width:0.1;stroke-miterlimit:4;stroke-dasharray:none;stroke-dashoffset:0;stroke-opacity:1"
       id="circle2954"
       cx="-188.37762"
       cy="-146.17017"
       r="2.9999998" />
    <circle
       style="fill:none;fill-opacity:1;stroke:#000000;stroke-width:0.1;stroke-miterlimit:4;stroke-dasharray:none;stroke-dashoffset:0;stroke-opacity:1"
       id="circle2956"
       cx="-188.37762"
       cy="-146.17017"
       r="1.4999999" />
    <circle
       r="2.9999998"
       cy="-152.42017"
       cx="-200.87762"
       id="circle2974"
       style="fill:none;fill-opacity:1;stroke:#000000;stroke-width:0.1;stroke-miterlimit:4;stroke-dasharray:none;stroke-dashoffset:0;stroke-opacity:1" />
    <circle
       r="1.4999999"
       cy="-152.42017"
       cx="-200.87762"
       id="circle2976"
       style="fill:none;fill-opacity:1;stroke:#000000;stroke-width:0.1;stroke-miterlimit:4;stroke-dasharray:none;stroke-dashoffset:0;stroke-opacity:1" />
    <circle
       style="fill:none;fill-opacity:1;stroke:#000000;stroke-width:0.1;stroke-miterlimit:4;stroke-dasharray:none;stroke-dashoffset:0;stroke-opacity:1"
       id="circle2978"
       cx="-194.62762"
       cy="-152.42017"
       r="2.9999998" />
    <circle
       style="fill:none;fill-opacity:1;stroke:#000000;stroke-width:0.1;stroke-miterlimit:4;stroke-dasharray:none;stroke-dashoffset:0;stroke-opacity:1"
       id="circle2980"
       cx="-194.62762"
       cy="-152.42017"
       r="1.4999999" />
    <circle
       r="2.9999998"
       cy="-152.42017"
       cx="-188.37762"
       id="circle2982"
       style="fill:none;fill-opacity:1;stroke:#000000;stroke-width:0.1;stroke-miterlimit:4;stroke-dasharray:none;stroke-dashoffset:0;stroke-opacity:1" />
    <circle
       r="1.4999999"
       cy="-152.42017"
       cx="-188.37762"
       id="circle2984"
       style="fill:none;fill-opacity:1;stroke:#000000;stroke-width:0.1;stroke-miterlimit:4;stroke-dasharray:none;stroke-dashoffset:0;stroke-opacity:1" />
    <circle
       r="2.9999998"
       cy="-146.17017"
       cx="-200.87762"
       id="circle2988"
       style="fill:none;fill-opacity:1;stroke:#000000;stroke-width:0.1;stroke-miterlimit:4;stroke-dasharray:none;stroke-dashoffset:0;stroke-opacity:1" />
    <circle
       r="1.4999999"
       cy="-146.17017"
       cx="-200.87762"
       id="circle2990"
       style="fill:none;fill-opacity:1;stroke:#000000;stroke-width:0.1;stroke-miterlimit:4;stroke-dasharray:none;stroke-dashoffset:0;stroke-opacity:1" />
    <circle
       style="fill:none;fill-opacity:1;stroke:#000000;stroke-width:0.1;stroke-miterlimit:4;stroke-dasharray:none;stroke-dashoffset:0;stroke-opacity:1"
       id="circle2992"
       cx="-194.62762"
       cy="-146.17017"
       r="2.9999998" />
    <circle
       style="fill:none;fill-opacity:1;stroke:#000000;stroke-width:0.1;stroke-miterlimit:4;stroke-dasharray:none;stroke-dashoffset:0;stroke-opacity:1"
       id="circle2994"
       cx="-194.62762"
       cy="-146.17017"
       r="1.4999999" />
    <circle
       r="2.9999998"
       cy="-146.17017"
       cx="-188.37762"
       id="circle2996"
       style="fill:none;fill-opacity:1;stroke:#000000;stroke-width:0.1;stroke-miterlimit:4;stroke-dasharray:none;stroke-dashoffset:0;stroke-opacity:1" />
    <circle
       r="1.4999999"
       cy="-146.17017"
       cx="-188.37762"
       id="circle2998"
       style="fill:none;fill-opacity:1;stroke:#000000;stroke-width:0.1;stroke-miterlimit:4;stroke-dasharray:none;stroke-dashoffset:0;stroke-opacity:1" />
    <circle
       style="fill:none;fill-opacity:1;stroke:#000000;stroke-width:0.1;stroke-miterlimit:4;stroke-dasharray:none;stroke-dashoffset:0;stroke-opacity:1"
       id="circle3002"
       cx="-200.87762"
       cy="-152.42017"
       r="2.9999998" />
    <circle
       style="fill:none;fill-opacity:1;stroke:#000000;stroke-width:0.1;stroke-miterlimit:4;stroke-dasharray:none;stroke-dashoffset:0;stroke-opacity:1"
       id="circle3004"
       cx="-200.87762"
       cy="-152.42017"
       r="1.4999999" />
    <circle
       r="2.9999998"
       cy="-152.42017"
       cx="-194.62762"
       id="circle3006"
       style="fill:none;fill-opacity:1;stroke:#000000;stroke-width:0.1;stroke-miterlimit:4;stroke-dasharray:none;stroke-dashoffset:0;stroke-opacity:1" />
    <circle
       r="1.4999999"
       cy="-152.42017"
       cx="-194.62762"
       id="circle3008"
       style="fill:none;fill-opacity:1;stroke:#000000;stroke-width:0.1;stroke-miterlimit:4;stroke-dasharray:none;stroke-dashoffset:0;stroke-opacity:1" />
    <circle
       style="fill:none;fill-opacity:1;stroke:#000000;stroke-width:0.1;stroke-miterlimit:4;stroke-dasharray:none;stroke-dashoffset:0;stroke-opacity:1"
       id="circle3010"
       cx="-188.37762"
       cy="-152.42017"
       r="2.9999998" />
    <circle
       style="fill:none;fill-opacity:1;stroke:#000000;stroke-width:0.1;stroke-miterlimit:4;stroke-dasharray:none;stroke-dashoffset:0;stroke-opacity:1"
       id="circle3012"
       cx="-188.37762"
       cy="-152.42017"
       r="1.4999999" />
    <circle
       r="2.9999998"
       cy="-158.92017"
       cx="-200.87762"
       id="circle3016"
       style="fill:none;fill-opacity:1;stroke:#000000;stroke-width:0.1;stroke-miterlimit:4;stroke-dasharray:none;stroke-dashoffset:0;stroke-opacity:1" />
    <circle
       r="1.4999999"
       cy="-158.92017"
       cx="-200.87762"
       id="circle3018"
       style="fill:none;fill-opacity:1;stroke:#000000;stroke-width:0.1;stroke-miterlimit:4;stroke-dasharray:none;stroke-dashoffset:0;stroke-opacity:1" />
    <circle
       style="fill:none;fill-opacity:1;stroke:#000000;stroke-width:0.1;stroke-miterlimit:4;stroke-dasharray:none;stroke-dashoffset:0;stroke-opacity:1"
       id="circle3020"
       cx="-194.62762"
       cy="-158.92017"
       r="2.9999998" />
    <circle
       style="fill:none;fill-opacity:1;stroke:#000000;stroke-width:0.1;stroke-miterlimit:4;stroke-dasharray:none;stroke-dashoffset:0;stroke-opacity:1"
       id="circle3022"
       cx="-194.62762"
       cy="-158.92017"
       r="1.4999999" />
    <circle
       r="2.9999998"
       cy="-158.92017"
       cx="-188.37762"
       id="circle3024"
       style="fill:none;fill-opacity:1;stroke:#000000;stroke-width:0.1;stroke-miterlimit:4;stroke-dasharray:none;stroke-dashoffset:0;stroke-opacity:1" />
    <circle
       r="1.4999999"
       cy="-158.92017"
       cx="-188.37762"
       id="circle3026"
       style="fill:none;fill-opacity:1;stroke:#000000;stroke-width:0.1;stroke-miterlimit:4;stroke-dasharray:none;stroke-dashoffset:0;stroke-opacity:1" />
    <circle
       style="fill:none;fill-opacity:1;stroke:#000000;stroke-width:0.1;stroke-miterlimit:4;stroke-dasharray:none;stroke-dashoffset:0;stroke-opacity:1"
       id="circle3030"
       cx="-200.87762"
       cy="-165.17017"
       r="2.9999998" />
    <circle
       style="fill:none;fill-opacity:1;stroke:#000000;stroke-width:0.1;stroke-miterlimit:4;stroke-dasharray:none;stroke-dashoffset:0;stroke-opacity:1"
       id="circle3032"
       cx="-200.87762"
       cy="-165.17017"
       r="1.4999999" />
    <circle
       r="2.9999998"
       cy="-165.17017"
       cx="-194.62762"
       id="circle3034"
       style="fill:none;fill-opacity:1;stroke:#000000;stroke-width:0.1;stroke-miterlimit:4;stroke-dasharray:none;stroke-dashoffset:0;stroke-opacity:1" />
    <circle
       r="1.4999999"
       cy="-165.17017"
       cx="-194.62762"
       id="circle3036"
       style="fill:none;fill-opacity:1;stroke:#000000;stroke-width:0.1;stroke-miterlimit:4;stroke-dasharray:none;stroke-dashoffset:0;stroke-opacity:1" />
    <circle
       style="fill:none;fill-opacity:1;stroke:#000000;stroke-width:0.1;stroke-miterlimit:4;stroke-dasharray:none;stroke-dashoffset:0;stroke-opacity:1"
       id="circle3038"
       cx="-188.37762"
       cy="-165.17017"
       r="2.9999998" />
    <circle
       style="fill:none;fill-opacity:1;stroke:#000000;stroke-width:0.1;stroke-miterlimit:4;stroke-dasharray:none;stroke-dashoffset:0;stroke-opacity:1"
       id="circle3040"
       cx="-188.37762"
       cy="-165.17017"
       r="1.4999999" />
    <circle
       style="fill:none;fill-opacity:1;stroke:#000000;stroke-width:0.1;stroke-miterlimit:4;stroke-dasharray:none;stroke-dashoffset:0;stroke-opacity:1"
       id="circle3044"
       cx="-200.87762"
       cy="-158.92017"
       r="2.9999998" />
    <circle
       style="fill:none;fill-opacity:1;stroke:#000000;stroke-width:0.1;stroke-miterlimit:4;stroke-dasharray:none;stroke-dashoffset:0;stroke-opacity:1"
       id="circle3046"
       cx="-200.87762"
       cy="-158.92017"
       r="1.4999999" />
    <circle
       r="2.9999998"
       cy="-158.92017"
       cx="-194.62762"
       id="circle3048"
       style="fill:none;fill-opacity:1;stroke:#000000;stroke-width:0.1;stroke-miterlimit:4;stroke-dasharray:none;stroke-dashoffset:0;stroke-opacity:1" />
    <circle
       r="1.4999999"
       cy="-158.92017"
       cx="-194.62762"
       id="circle3050"
       style="fill:none;fill-opacity:1;stroke:#000000;stroke-width:0.1;stroke-miterlimit:4;stroke-dasharray:none;stroke-dashoffset:0;stroke-opacity:1" />
    <circle
       style="fill:none;fill-opacity:1;stroke:#000000;stroke-width:0.1;stroke-miterlimit:4;stroke-dasharray:none;stroke-dashoffset:0;stroke-opacity:1"
       id="circle3052"
       cx="-188.37762"
       cy="-158.92017"
       r="2.9999998" />
    <circle
       style="fill:none;fill-opacity:1;stroke:#000000;stroke-width:0.1;stroke-miterlimit:4;stroke-dasharray:none;stroke-dashoffset:0;stroke-opacity:1"
       id="circle3054"
       cx="-188.37762"
       cy="-158.92017"
       r="1.4999999" />
    <circle
       r="2.9999998"
       cy="-165.17017"
       cx="-200.87762"
       id="circle3058"
       style="fill:none;fill-opacity:1;stroke:#000000;stroke-width:0.1;stroke-miterlimit:4;stroke-dasharray:none;stroke-dashoffset:0;stroke-opacity:1" />
    <circle
       r="1.4999999"
       cy="-165.17017"
       cx="-200.87762"
       id="circle3060"
       style="fill:none;fill-opacity:1;stroke:#000000;stroke-width:0.1;stroke-miterlimit:4;stroke-dasharray:none;stroke-dashoffset:0;stroke-opacity:1" />
    <circle
       style="fill:none;fill-opacity:1;stroke:#000000;stroke-width:0.1;stroke-miterlimit:4;stroke-dasharray:none;stroke-dashoffset:0;stroke-opacity:1"
       id="circle3062"
       cx="-194.62762"
       cy="-165.17017"
       r="2.9999998" />
    <circle
       style="fill:none;fill-opacity:1;stroke:#000000;stroke-width:0.1;stroke-miterlimit:4;stroke-dasharray:none;stroke-dashoffset:0;stroke-opacity:1"
       id="circle3064"
       cx="-194.62762"
       cy="-165.17017"
       r="1.4999999" />
    <circle
       r="2.9999998"
       cy="-165.17017"
       cx="-188.37762"
       id="circle3066"
       style="fill:none;fill-opacity:1;stroke:#000000;stroke-width:0.1;stroke-miterlimit:4;stroke-dasharray:none;stroke-dashoffset:0;stroke-opacity:1" />
    <circle
       r="1.4999999"
       cy="-165.17017"
       cx="-188.37762"
       id="circle3068"
       style="fill:none;fill-opacity:1;stroke:#000000;stroke-width:0.1;stroke-miterlimit:4;stroke-dasharray:none;stroke-dashoffset:0;stroke-opacity:1" />
  </g>
</svg>
