<?xml version="1.0" encoding="UTF-8" standalone="no"?>
<svg
   xmlns:dc="http://purl.org/dc/elements/1.1/"
   xmlns:cc="http://creativecommons.org/ns#"
   xmlns:rdf="http://www.w3.org/1999/02/22-rdf-syntax-ns#"
   xmlns:svg="http://www.w3.org/2000/svg"
   xmlns="http://www.w3.org/2000/svg"
   id="svg2429"
   version="1.1"
   viewBox="0 0 241.10028 86.09993"
   height="86.09993mm"
   width="241.10028mm">
  <defs
     id="defs2423" />
  <metadata
     id="metadata2426">
    <rdf:RDF>
      <cc:Work
         rdf:about="">
        <dc:format>image/svg+xml</dc:format>
        <dc:type
           rdf:resource="http://purl.org/dc/dcmitype/StillImage" />
        <dc:title></dc:title>
      </cc:Work>
    </rdf:RDF>
  </metadata>
  <g
     transform="translate(218.068,153.5083)"
     id="layer1">
    <path
       id="path948"
       d="m -218.018,-153.4583 v 85.999931 h 90.0002 v -8.99996 l 93.999423,-3.99976 v -2.000408 h 57.00066 v -6.000142 H -3.0181871 v -4.999699 H 22.982283 V -127.45833 H -3.0181871 v -5.0002 H 22.982283 v -6.00017 h -57.00066 v -1.99988 l -93.999423,-3.99976 v -8.99996 z m 8.99997,8.49974 c 0.82857,-1e-4 1.50027,0.6722 1.50017,1.50069 -2.1e-4,0.82841 -0.67182,1.49924 -1.50017,1.49913 -0.82814,-1.8e-4 -1.49945,-0.67093 -1.49965,-1.49913 -10e-5,-0.8283 0.67129,-1.50058 1.49965,-1.50069 z m 121.500083,3.25046 a 1.25,1.25 0 0 1 1.25005,1.25005 1.25,1.25 0 0 1 -1.25005,1.25005 1.25,1.25 0 0 1 -1.24954,-1.25005 1.25,1.25 0 0 1 1.24954,-1.25005 z m -98.499933,4.24987 h 20.00033 v 2.99982 h -20.00033 z m 187.9998929,0.99994 c 0.55224,8e-5 0.99991,0.44762 0.99994,0.99994 -3e-5,0.55219 -0.4477,0.99994 -0.99994,0.99994 -0.55224,0 -0.99989004,-0.44775 -0.99994004,-0.99994 5e-5,-0.55232 0.44770004,-0.99986 0.99994004,-0.99994 z m 8.00002,0 c 0.5522401,8e-5 0.9999101,0.44762 0.9999401,0.99994 -3e-5,0.55219 -0.4477,0.99994 -0.9999401,0.99994 -0.55224,0 -0.99994,-0.44775 -0.99994,-0.99994 0,-0.55232 0.4477,-0.99986 0.99994,-0.99994 z m -226.4998629,11.99978 h 2.99982 v 9.9999 h -2.99982 z m 6.49986,1.99988 h 4.9997 v 24.000091 h -4.9997 z m 70.9998,0 h 10.00043 v 8.00002 0.99994 h 6.00015 v 6.00014 h -6.00015 v 0.99994 8.000051 h -10.00043 z m 129.000403,3.00032 h 31.99961 v 17.99995 h -31.99961 z m -51.00051,2.99982 h 30.00024 v 11.99978 h -30.00024 z m -153.999383,4.75009 c 0.6904,-8e-5 1.25009,0.55968 1.25005,1.25005 -2.6e-4,0.69022 -0.55987,1.24955 -1.25005,1.24955 -0.69019,0 -1.24979,-0.55933 -1.25005,-1.24955 -5e-5,-0.69037 0.55964,-1.25013 1.25005,-1.25005 z m 123.499953,3.00035 a 1.25,1.25 0 0 1 1.25005,1.25005 1.25,1.25 0 0 1 -1.25005,1.25005 1.25,1.25 0 0 1 -1.25005,-1.25005 1.25,1.25 0 0 1 1.25005,-1.25005 z m -125.000123,2.24946 h 2.99982 v 9.99993 h -2.99982 z m 109.50029,13.750584 a 1.25,1.25 0 0 1 1.25005,1.250051 1.25,1.25 0 0 1 -1.25005,1.250076 1.25,1.25 0 0 1 -1.25005,-1.250076 1.25,1.25 0 0 1 1.25005,-1.250051 z m 38.999693,0 a 1.25,1.25 0 0 1 1.25005,1.250051 1.25,1.25 0 0 1 -1.25005,1.250076 1.25,1.25 0 0 1 -1.25005,-1.250076 1.25,1.25 0 0 1 1.25005,-1.250051 z m 69.9998599,6.249247 c 0.55245,0 1.0002,0.448045 0.99994,1.000442 -6e-5,0.552397 -0.4477,0.99994 -0.99994,0.99994 -0.55224,0 -0.99989004,-0.447543 -0.99994004,-0.99994 -2.4e-4,-0.552397 0.44749004,-1.000442 0.99994004,-1.000442 z m 8.00002,0 c 0.5524501,0 1.0001801,0.448045 0.9999401,1.000442 -8e-5,0.552397 -0.4477,0.99994 -0.9999401,0.99994 -0.55224,0 -0.99989,-0.447543 -0.99994,-0.99994 -2.4e-4,-0.552397 0.44749,-1.000442 0.99994,-1.000442 z m -195.9999129,0 h 20.00033 v 2.999819 h -20.00033 z m -23.00015,7.4998 c 0.82855,-8e-5 1.50026,0.671671 1.50017,1.500187 -2.1e-4,0.828384 -0.67182,1.499738 -1.50017,1.499632 -0.82814,-1.85e-4 -1.49945,-0.671433 -1.49965,-1.499632 -9e-5,-0.828304 0.6713,-1.500082 1.49965,-1.500187 z"
       style="fill:none;fill-opacity:1;stroke:#000000;stroke-width:0.1;stroke-miterlimit:4;stroke-dasharray:none;stroke-opacity:1" />
  </g>
</svg>
