<?xml version="1.0" encoding="UTF-8" standalone="no"?>
<svg
   xmlns:dc="http://purl.org/dc/elements/1.1/"
   xmlns:cc="http://creativecommons.org/ns#"
   xmlns:rdf="http://www.w3.org/1999/02/22-rdf-syntax-ns#"
   xmlns:svg="http://www.w3.org/2000/svg"
   xmlns="http://www.w3.org/2000/svg"
   id="svg1070"
   version="1.1"
   viewBox="0 0 314.60001 146.10001"
   height="146.10001mm"
   width="314.60001mm">
  <defs
     id="defs1064" />
  <metadata
     id="metadata1067">
    <rdf:RDF>
      <cc:Work
         rdf:about="">
        <dc:format>image/svg+xml</dc:format>
        <dc:type
           rdf:resource="http://purl.org/dc/dcmitype/StillImage" />
        <dc:title></dc:title>
      </cc:Work>
    </rdf:RDF>
  </metadata>
  <g
     transform="translate(7.55,-125.95)"
     id="layer1">
    <path
       id="rect1656"
       d="m 115.99978,389.5001 v 3.00034 H 104 v 22.49992 h 11.99978 v 2.99981 h 14.00018 v -2.99981 h 16.00006 v 2.99981 h 13.99966 v -2.99981 h 12.0003 v -22.49992 h -12.0003 v -3.00034 h -13.99966 v 3.00034 h -16.00006 v -3.00034 z m 22.00021,4.00028 a 1.5,1.5 0 0 1 1.50017,1.49965 1.5,1.5 0 0 1 -1.50017,1.50016 1.5,1.5 0 0 1 -1.50017,-1.50016 1.5,1.5 0 0 1 1.50017,-1.49965 z m -20.24993,6.49986 a 3.7499999,3.7499999 0 0 1 3.74965,3.74964 3.7499999,3.7499999 0 0 1 -3.74965,3.75016 3.7499999,3.7499999 0 0 1 -3.75015,-3.75016 3.7499999,3.7499999 0 0 1 3.75015,-3.74964 z m 20.24993,10.99984 a 1.5,1.5 0 0 1 1.50017,1.50017 1.5,1.5 0 0 1 -1.50017,1.49965 1.5,1.5 0 0 1 -1.50017,-1.49965 1.5,1.5 0 0 1 1.50017,-1.50017 z"
       style="fill:none;fill-opacity:1;stroke:#000000;stroke-width:0.1;stroke-miterlimit:4;stroke-dasharray:none;stroke-opacity:1" />
    <path
       id="rect2716"
       d="m 10.00007,299.00009 v 85.99992 h 256.00038 v -85.99992 z m 8.999966,7.50032 a 1.5,1.5 0 0 1 1.500167,1.49964 1.5,1.5 0 0 1 -1.500167,1.50017 1.5,1.5 0 0 1 -1.499649,-1.50017 1.5,1.5 0 0 1 1.499649,-1.49964 z m 226.000154,9.49967 a 1,1 0 0 1 0.99994,0.99994 1,1 0 0 1 -0.99994,1.00046 1,1 0 0 1 -0.99994,-1.00046 1,1 0 0 1 0.99994,-0.99994 z m 8.00002,0 a 1,1 0 0 1 0.99994,0.99994 1,1 0 0 1 -0.99994,1.00046 1,1 0 0 1 -0.99994,-1.00046 1,1 0 0 1 0.99994,-0.99994 z m -218.000116,2.0004 h 14.000178 v 2.99982 H 35.000094 Z m 30.000236,0 h 13.999662 v 2.99982 H 65.00033 Z M 121,322.00024 a 1.0000013,1 0 0 1 1.00046,0.99993 A 1.0000013,1 0 0 1 121,324.00011 1.0000013,1 0 0 1 120.00006,323.00017 1.0000013,1 0 0 1 121,322.00024 Z m 39.00021,0 a 1,1 0 0 1 0.99994,0.99993 1,1 0 0 1 -0.99994,0.99994 1,1 0 0 1 -0.99994,-0.99994 1,1 0 0 1 0.99994,-0.99993 z m -147.500034,6.00014 h 2.999817 v 9.99991 h -2.999817 z m 84.000041,0 h 2.999816 v 9.99991 h -2.999816 z m 136.500183,4.9997 h 31.99961 v 17.99994 H 233.0004 Z m -219.000057,8.00003 a 1,1 0 0 1 0.999939,0.99994 1,1 0 0 1 -0.999939,0.99994 1,1 0 0 1 -0.999939,-0.99994 1,1 0 0 1 0.999939,-0.99994 z m 84.00004,0 a 1,1 0 0 1 0.999937,0.99994 1,1 0 0 1 -0.999937,0.99994 1,1 0 0 1 -0.99994,-0.99994 1,1 0 0 1 0.99994,-0.99994 z m -85.500207,5.00021 h 2.999817 v 9.9999 h -2.999817 z m 84.000041,0 h 2.999816 v 9.9999 h -2.999816 z m -61.500123,16.99999 h 14.000178 v 2.99982 H 35.000094 Z m 30.000236,0 h 13.999662 v 2.99982 H 65.00033 Z m 179.99986,2.99982 a 1,1 0 0 1 0.99994,0.99994 1,1 0 0 1 -0.99994,0.99994 1,1 0 0 1 -0.99994,-0.99994 1,1 0 0 1 0.99994,-0.99994 z m 8.00002,0 a 1,1 0 0 1 0.99994,0.99994 1,1 0 0 1 -0.99994,0.99994 1,1 0 0 1 -0.99994,-0.99994 1,1 0 0 1 0.99994,-0.99994 z m -234.000174,8.50026 a 1.5,1.5 0 0 1 1.500167,1.49965 1.5,1.5 0 0 1 -1.500167,1.50017 1.5,1.5 0 0 1 -1.499649,-1.50017 1.5,1.5 0 0 1 1.499649,-1.49965 z"
       style="fill:none;fill-opacity:1;stroke:#000000;stroke-width:0.1;stroke-miterlimit:4;stroke-dasharray:none;stroke-opacity:1" />
    <rect
       transform="rotate(-90)"
       y="35"
       x="-178.00002"
       height="14"
       width="3"
       id="rect2741"
       style="fill:none;fill-opacity:1;stroke:#000000;stroke-width:0.1;stroke-miterlimit:4;stroke-dasharray:none;stroke-opacity:1" />
    <rect
       transform="rotate(-90)"
       style="fill:none;fill-opacity:1;stroke:#000000;stroke-width:0.1;stroke-miterlimit:4;stroke-dasharray:none;stroke-opacity:1"
       id="rect2743"
       width="3"
       height="14"
       x="-223"
       y="35" />
    <circle
       transform="rotate(-90)"
       r="2.75"
       cy="36.75"
       cx="-163.75"
       id="path2793"
       style="fill:none;fill-opacity:1;stroke:#000000;stroke-width:0.1;stroke-miterlimit:4;stroke-dasharray:none;stroke-opacity:1" />
    <rect
       transform="rotate(-90)"
       y="4.2499924"
       x="-151"
       height="65"
       width="25"
       id="rect2829"
       style="fill:none;fill-opacity:1;stroke:#000000;stroke-width:0.1;stroke-miterlimit:4;stroke-dasharray:none;stroke-opacity:1" />
    <rect
       transform="rotate(-90)"
       style="fill:none;fill-opacity:1;stroke:#000000;stroke-width:0.1;stroke-miterlimit:4;stroke-dasharray:none;stroke-opacity:1"
       id="rect2833"
       width="25"
       height="65"
       x="-272"
       y="4.2499924" />
    <rect
       transform="rotate(-90)"
       style="fill:none;fill-opacity:1;stroke:#000000;stroke-width:0.1;stroke-miterlimit:4;stroke-dasharray:none;stroke-opacity:1"
       id="rect2835"
       width="25"
       height="65"
       x="-151"
       y="216.5" />
    <rect
       transform="rotate(-90)"
       y="216.5"
       x="-272"
       height="65"
       width="25"
       id="rect2837"
       style="fill:none;fill-opacity:1;stroke:#000000;stroke-width:0.1;stroke-miterlimit:4;stroke-dasharray:none;stroke-opacity:1" />
    <rect
       transform="rotate(-90)"
       y="247"
       x="-272"
       height="4"
       width="146"
       id="rect2839"
       style="fill:none;fill-opacity:1;stroke:#000000;stroke-width:0.1;stroke-miterlimit:4;stroke-dasharray:none;stroke-opacity:1" />
    <rect
       transform="rotate(-90)"
       y="37"
       x="-245"
       height="190"
       width="45.999996"
       id="rect2841"
       style="fill:none;fill-opacity:1;stroke:#000000;stroke-width:0.1;stroke-miterlimit:4;stroke-dasharray:none;stroke-opacity:1" />
    <rect
       y="215.00002"
       x="34"
       height="8"
       width="5.5"
       id="rect4324"
       style="fill:none;fill-opacity:1;stroke:#de8787;stroke-width:0.1;stroke-miterlimit:4;stroke-dasharray:none;stroke-opacity:1" />
    <rect
       style="fill:none;fill-opacity:1;stroke:#de8787;stroke-width:0.1;stroke-miterlimit:4;stroke-dasharray:none;stroke-opacity:1"
       id="rect4328"
       width="5.5"
       height="8"
       x="34"
       y="175.00002" />
    <rect
       y="165.00002"
       x="55.5"
       height="10"
       width="36"
       id="rect4330"
       style="fill:none;fill-opacity:1;stroke:#000000;stroke-width:0.1;stroke-miterlimit:4;stroke-dasharray:none;stroke-dashoffset:0;stroke-opacity:1" />
    <g
       transform="translate(-51,-4.0000032)"
       id="g4341">
      <rect
         style="fill:none;fill-opacity:1;stroke:#000000;stroke-width:0.1;stroke-miterlimit:4;stroke-dasharray:none;stroke-dashoffset:0;stroke-opacity:1"
         id="rect4332"
         width="78"
         height="40"
         x="68"
         y="183.00002" />
      <text
         xml:space="preserve"
         style="font-style:normal;font-weight:normal;font-size:4.23333311px;line-height:1.25;font-family:sans-serif;letter-spacing:0px;word-spacing:0px;fill:#000000;fill-opacity:1;stroke:none;stroke-width:0.26458332"
         x="78"
         y="189.00002"
         id="text4336"><tspan
           id="tspan4334"
           x="78"
           y="189.00002"
           style="stroke-width:0.26458332">batre</tspan></text>
    </g>
    <rect
       y="149"
       x="34"
       height="8"
       width="5.5"
       id="rect877"
       style="fill:none;fill-opacity:1;stroke:#de8787;stroke-width:0.1;stroke-miterlimit:4;stroke-dasharray:none;stroke-opacity:1" />
    <circle
       r="1"
       cy="199"
       cx="14"
       id="path879"
       style="fill:none;fill-opacity:1;stroke:#000000;stroke-width:0.1;stroke-miterlimit:4;stroke-dasharray:none;stroke-dashoffset:0;stroke-opacity:1" />
    <circle
       style="fill:none;fill-opacity:1;stroke:#000000;stroke-width:0.1;stroke-miterlimit:4;stroke-dasharray:none;stroke-dashoffset:0;stroke-opacity:1"
       id="circle885"
       cx="98"
       cy="199"
       r="1" />
    <path
       id="rect895"
       d="m 7.9999999,393.00001 v 85.99991 H 100.00007 v -85.99991 z m 8.9999701,7.50031 a 1.5,1.5 0 0 1 1.50016,1.49965 1.5,1.5 0 0 1 -1.50016,1.50017 1.5,1.5 0 0 1 -1.49965,-1.50017 1.5,1.5 0 0 1 1.49965,-1.49965 z M 33.00002,412.0004 H 47.0002 v 2.99981 H 33.00002 Z m 30.00024,0 h 13.99966 v 2.99981 H 63.00026 Z m -52.50015,9.9999 h 2.99981 v 9.99991 h -2.99981 z m 84.000036,0 h 2.999817 v 9.99991 H 94.500146 Z M 12.00027,435.00002 a 1,1 0 0 1 0.99994,0.99994 1,1 0 0 1 -0.99994,0.99994 1,1 0 0 1 -0.99994,-0.99994 1,1 0 0 1 0.99994,-0.99994 z m 84.000043,0 a 1,1 0 0 1 0.999937,0.99994 1,1 0 0 1 -0.999937,0.99994 1,1 0 0 1 -0.99994,-0.99994 1,1 0 0 1 0.99994,-0.99994 z m -85.500203,5.00022 h 2.99981 v 9.9999 h -2.99981 z m 84.000036,0 h 2.999817 v 9.9999 H 94.500146 Z M 33.00002,457.00023 H 47.0002 v 2.99982 H 33.00002 Z m 30.00024,0 h 13.99966 v 2.99982 H 63.00026 Z m -46.00029,11.50008 a 1.5,1.5 0 0 1 1.50016,1.49965 1.5,1.5 0 0 1 -1.50016,1.50016 1.5,1.5 0 0 1 -1.49965,-1.50016 1.5,1.5 0 0 1 1.49965,-1.49965 z"
       style="fill:none;fill-opacity:1;stroke:#000000;stroke-width:0.1;stroke-miterlimit:4;stroke-dasharray:none;stroke-opacity:1" />
    <rect
       y="165"
       x="18"
       height="68"
       width="2"
       id="rect897"
       style="fill:none;fill-opacity:1;stroke:#000000;stroke-width:0.1;stroke-miterlimit:4;stroke-dasharray:none;stroke-dashoffset:0;stroke-opacity:1" />
    <circle
       r="1.5"
       cy="165"
       cx="19"
       id="path899"
       style="fill:none;fill-opacity:1;stroke:#000000;stroke-width:0.1;stroke-miterlimit:4;stroke-dasharray:none;stroke-dashoffset:0;stroke-opacity:1" />
    <circle
       style="fill:none;fill-opacity:1;stroke:#000000;stroke-width:0.1;stroke-miterlimit:4;stroke-dasharray:none;stroke-dashoffset:0;stroke-opacity:1"
       id="circle901"
       cx="19"
       cy="233"
       r="1.5" />
    <rect
       y="203"
       x="12.5"
       height="10"
       width="3"
       id="rect903"
       style="fill:none;fill-opacity:1;stroke:#000000;stroke-width:0.1;stroke-miterlimit:4;stroke-dasharray:none;stroke-dashoffset:0;stroke-opacity:1" />
    <rect
       y="194.99866"
       x="104.09731"
       height="42.002693"
       width="72.902695"
       id="rect905"
       style="fill:none;fill-opacity:1;stroke:#000000;stroke-width:0.09730616;stroke-miterlimit:4;stroke-dasharray:none;stroke-dashoffset:0;stroke-opacity:1" />
    <rect
       style="fill:none;fill-opacity:1;stroke:#000000;stroke-width:0.1;stroke-miterlimit:4;stroke-dasharray:none;stroke-dashoffset:0;stroke-opacity:1"
       id="rect907"
       width="3"
       height="10"
       x="12.5"
       y="185" />
    <rect
       style="fill:none;fill-opacity:1;stroke:#000000;stroke-width:0.1;stroke-miterlimit:4;stroke-dasharray:none;stroke-dashoffset:0;stroke-opacity:1"
       id="rect909"
       width="3"
       height="10"
       x="96.5"
       y="203" />
    <rect
       y="185"
       x="96.5"
       height="10"
       width="3"
       id="rect911"
       style="fill:none;fill-opacity:1;stroke:#000000;stroke-width:0.1;stroke-miterlimit:4;stroke-dasharray:none;stroke-dashoffset:0;stroke-opacity:1" />
    <path
       id="rect913"
       d="m 160.00011,436.9999 v 3.00033 h -3.00033 v 9.99991 h 3.00033 v 2.99981 h 22.49992 v -2.99981 h 2.99982 v -9.99991 h -2.99982 v -3.00033 z"
       style="fill:none;fill-opacity:1;stroke:#000000;stroke-width:0.1;stroke-miterlimit:4;stroke-dasharray:none;stroke-dashoffset:0;stroke-opacity:1" />
    <path
       style="fill:none;fill-opacity:1;stroke:#000000;stroke-width:0.1;stroke-miterlimit:4;stroke-dasharray:none;stroke-dashoffset:0;stroke-opacity:1"
       d="m 160.00011,418.99993 v 3.00033 h -3.00033 v 9.99991 h 3.00033 v 2.99981 h 22.49992 v -2.99981 h 2.99982 v -9.99991 h -2.99982 v -3.00033 z"
       id="path918" />
    <path
       style="fill:none;fill-opacity:1;stroke:#000000;stroke-width:0.1;stroke-miterlimit:4;stroke-dasharray:none;stroke-dashoffset:0;stroke-opacity:1"
       d="m 128.50008,436.9999 v 3.00034 h -3.00033 v 9.9999 h 3.00033 v 2.99982 H 151 v -2.99982 h 2.99982 v -9.9999 H 151 v -3.00034 z"
       id="path920" />
    <path
       id="path922"
       d="m 128.50008,418.99993 v 3.00033 h -3.00033 v 9.99991 h 3.00033 v 2.99981 H 151 v -2.99981 h 2.99982 v -9.99991 H 151 v -3.00033 z"
       style="fill:none;fill-opacity:1;stroke:#000000;stroke-width:0.1;stroke-miterlimit:4;stroke-dasharray:none;stroke-dashoffset:0;stroke-opacity:1" />
    <rect
       style="fill:none;fill-opacity:1;stroke:#000000;stroke-width:0.1;stroke-miterlimit:4;stroke-dasharray:none;stroke-opacity:1"
       id="rect924"
       width="3"
       height="14"
       x="-178"
       y="65"
       transform="rotate(-90)" />
    <rect
       transform="rotate(-90)"
       y="65"
       x="-223"
       height="14"
       width="3"
       id="rect936"
       style="fill:none;fill-opacity:1;stroke:#000000;stroke-width:0.1;stroke-miterlimit:4;stroke-dasharray:none;stroke-opacity:1" />
    <path
       style="fill:none;fill-opacity:1;stroke:#000000;stroke-width:0.1;stroke-miterlimit:4;stroke-dasharray:none;stroke-opacity:1"
       d="m 115.99978,454.00017 v 3.00034 H 104 v 22.49992 h 11.99978 v 2.99981 h 14.00018 v -2.99981 h 16.00006 v 2.99981 h 13.99966 v -2.99981 h 12.0003 v -22.49992 h -12.0003 v -3.00034 h -13.99966 v 3.00034 h -16.00006 v -3.00034 z m 22.00021,4.00028 a 1.5,1.5 0 0 1 1.50017,1.49965 1.5,1.5 0 0 1 -1.50017,1.50016 1.5,1.5 0 0 1 -1.50017,-1.50016 1.5,1.5 0 0 1 1.50017,-1.49965 z m -20.24993,6.49986 a 3.7499999,3.7499999 0 0 1 3.74965,3.74964 3.7499999,3.7499999 0 0 1 -3.74965,3.75016 3.7499999,3.7499999 0 0 1 -3.75015,-3.75016 3.7499999,3.7499999 0 0 1 3.75015,-3.74964 z m 20.24993,10.99984 a 1.5,1.5 0 0 1 1.50017,1.50017 1.5,1.5 0 0 1 -1.50017,1.49965 1.5,1.5 0 0 1 -1.50017,-1.49965 1.5,1.5 0 0 1 1.50017,-1.50017 z"
       id="path939" />
    <rect
       y="189"
       x="179"
       height="20"
       width="30"
       id="rect968"
       style="fill:none;fill-opacity:1;stroke:#000000;stroke-width:0.1;stroke-miterlimit:4;stroke-dasharray:none;stroke-dashoffset:0;stroke-opacity:1" />
    <rect
       y="196"
       x="209"
       height="6.0000052"
       width="40"
       id="rect970"
       style="fill:none;fill-opacity:1;stroke:#000000;stroke-width:0.1;stroke-miterlimit:4;stroke-dasharray:none;stroke-dashoffset:0;stroke-opacity:1" />
    <path
       id="rect2822"
       d="M 227.99962,168.99988 H 192.9997 v 18.00045 h 34.99992 z m -2.5001,8.99999 a 1,1 0 0 1 -0.99994,1.00044 1,1 0 0 1 -0.99994,-1.00044 1,1 0 0 1 0.99994,-0.99994 1,1 0 0 1 0.99994,0.99994 z M 222,172.00023 v 11.99978 h -22.75003 v -11.99978 z m -24.25021,6.00014 a 1,1 0 0 1 -0.99994,0.99994 1,1 0 0 1 -0.99994,-0.99994 1,1 0 0 1 0.99994,-1.00045 1,1 0 0 1 0.99994,1.00045 z"
       style="fill:none;fill-opacity:1;stroke:#000000;stroke-width:0.1;stroke-miterlimit:4;stroke-dasharray:none;stroke-dashoffset:0;stroke-opacity:1" />
    <rect
       y="161.5"
       x="265"
       height="20"
       width="6"
       id="rect2836"
       style="fill:none;fill-opacity:1;stroke:#000000;stroke-width:0.1;stroke-miterlimit:4;stroke-dasharray:none;stroke-dashoffset:0;stroke-opacity:1" />
    <rect
       style="fill:none;fill-opacity:1;stroke:#000000;stroke-width:0.1;stroke-miterlimit:4;stroke-dasharray:none;stroke-dashoffset:0;stroke-opacity:1"
       id="rect2838"
       width="6"
       height="20"
       x="265"
       y="181.5" />
    <rect
       y="201.5"
       x="265"
       height="35"
       width="6"
       id="rect2840"
       style="fill:none;fill-opacity:1;stroke:#000000;stroke-width:0.1;stroke-miterlimit:4;stroke-dasharray:none;stroke-dashoffset:0;stroke-opacity:1" />
    <rect
       y="179"
       x="120"
       height="21"
       width="41"
       id="rect2844"
       style="fill:none;fill-opacity:1;stroke:#000000;stroke-width:0.1;stroke-miterlimit:4;stroke-dasharray:none;stroke-dashoffset:0;stroke-opacity:1" />
    <circle
       r="1"
       cy="180"
       cx="160"
       id="path2850"
       style="fill:none;fill-opacity:1;stroke:#000000;stroke-width:0.1;stroke-miterlimit:4;stroke-dasharray:none;stroke-dashoffset:0;stroke-opacity:1" />
    <ellipse
       ry="1"
       rx="1.0000013"
       cy="180"
       cx="121"
       id="path2852"
       style="fill:none;fill-opacity:1;stroke:#000000;stroke-width:0.1;stroke-miterlimit:4;stroke-dasharray:none;stroke-dashoffset:0;stroke-opacity:1" />
    <rect
       y="183"
       x="233"
       height="32"
       width="32"
       id="rect2854"
       style="fill:none;fill-opacity:1;stroke:#000000;stroke-width:0.1;stroke-miterlimit:4;stroke-dasharray:none;stroke-dashoffset:0;stroke-opacity:1" />
    <rect
       y="173"
       x="244"
       height="52"
       width="10"
       id="rect2858"
       style="fill:none;fill-opacity:1;stroke:#000000;stroke-width:0.1;stroke-miterlimit:4;stroke-dasharray:none;stroke-dashoffset:0;stroke-opacity:1" />
    <circle
       r="1"
       cy="174"
       cx="245"
       id="path2862"
       style="fill:none;fill-opacity:1;stroke:#000000;stroke-width:0.1;stroke-miterlimit:4;stroke-dasharray:none;stroke-dashoffset:0;stroke-opacity:1" />
    <circle
       style="fill:none;fill-opacity:1;stroke:#000000;stroke-width:0.1;stroke-miterlimit:4;stroke-dasharray:none;stroke-dashoffset:0;stroke-opacity:1"
       id="circle2864"
       cx="253"
       cy="174"
       r="1" />
    <circle
       style="fill:none;fill-opacity:1;stroke:#000000;stroke-width:0.1;stroke-miterlimit:4;stroke-dasharray:none;stroke-dashoffset:0;stroke-opacity:1"
       id="circle2866"
       cx="245"
       cy="224"
       r="1" />
    <circle
       r="1"
       cy="224"
       cx="253"
       id="circle2868"
       style="fill:none;fill-opacity:1;stroke:#000000;stroke-width:0.1;stroke-miterlimit:4;stroke-dasharray:none;stroke-dashoffset:0;stroke-opacity:1" />
    <rect
       y="169"
       x="240"
       height="10.000005"
       width="18"
       id="rect2874"
       style="fill:none;fill-opacity:1;stroke:#000000;stroke-width:0.1;stroke-miterlimit:4;stroke-dasharray:none;stroke-dashoffset:0;stroke-opacity:1" />
    <rect
       style="fill:none;fill-opacity:1;stroke:#000000;stroke-width:0.1;stroke-miterlimit:4;stroke-dasharray:none;stroke-dashoffset:0;stroke-opacity:1"
       id="rect2876"
       width="32"
       height="18"
       x="233"
       y="190" />
    <path
       transform="matrix(0.26458333,0,0,0.26458333,-7.55,125.95)"
       id="rect2880"
       d="M 935.62109 351.68555 L 935.62109 389.48047 L 1003.6543 389.48047 L 1003.6543 351.68555 L 935.62109 351.68555 z M 954.51953 366.80273 A 3.7795276 3.7795276 0 0 1 958.29883 370.58203 A 3.7795276 3.7795276 0 0 1 954.51953 374.36133 A 3.7795276 3.7795276 0 0 1 950.74023 370.58203 A 3.7795276 3.7795276 0 0 1 954.51953 366.80273 z M 984.75586 366.80273 A 3.7795276 3.7795276 0 0 1 988.53516 370.58203 A 3.7795276 3.7795276 0 0 1 984.75586 374.36133 A 3.7795276 3.7795276 0 0 1 980.97656 370.58203 A 3.7795276 3.7795276 0 0 1 984.75586 366.80273 z "
       style="fill:none;fill-opacity:1;stroke:#000000;stroke-width:0.37795275;stroke-miterlimit:4;stroke-dasharray:none;stroke-dashoffset:0;stroke-opacity:1" />
    <text
       id="text2923"
       y="301"
       x="-8"
       style="font-style:normal;font-weight:normal;font-size:4.23333311px;line-height:1.25;font-family:sans-serif;letter-spacing:0px;word-spacing:0px;fill:#000000;fill-opacity:1;stroke:none;stroke-width:0.26458332"
       xml:space="preserve"><tspan
         style="stroke-width:0.26458332"
         y="301"
         x="-8"
         id="tspan2921">step 2</tspan></text>
    <rect
       y="196"
       x="179"
       height="6"
       width="30.000002"
       id="rect2927"
       style="fill:none;fill-opacity:1;stroke:#000000;stroke-width:0.1;stroke-miterlimit:4;stroke-dasharray:none;stroke-dashoffset:0;stroke-opacity:1" />
    <rect
       style="fill:none;fill-opacity:1;stroke:#000000;stroke-width:0.1;stroke-miterlimit:4;stroke-dasharray:none;stroke-dashoffset:0;stroke-opacity:1"
       id="rect2929"
       width="30.000002"
       height="6"
       x="179"
       y="339" />
    <rect
       y="274"
       x="236.99998"
       height="20"
       width="90"
       id="rect2940"
       style="fill:none;fill-opacity:1;stroke:#000000;stroke-width:0.1;stroke-miterlimit:4;stroke-dasharray:none;stroke-dashoffset:0;stroke-opacity:1" />
    <circle
       r="1"
       cy="279"
       cx="242"
       id="path2942"
       style="fill:none;fill-opacity:1;stroke:#000000;stroke-width:0.1;stroke-miterlimit:4;stroke-dasharray:none;stroke-dashoffset:0;stroke-opacity:1" />
    <circle
       style="fill:none;fill-opacity:1;stroke:#000000;stroke-width:0.1;stroke-miterlimit:4;stroke-dasharray:none;stroke-dashoffset:0;stroke-opacity:1"
       id="circle2944"
       cx="250"
       cy="279"
       r="1" />
    <circle
       style="fill:none;fill-opacity:1;stroke:#000000;stroke-width:0.1;stroke-miterlimit:4;stroke-dasharray:none;stroke-dashoffset:0;stroke-opacity:1"
       id="circle2946"
       cx="242"
       cy="289"
       r="1" />
    <circle
       r="1"
       cy="289"
       cx="250"
       id="circle2948"
       style="fill:none;fill-opacity:1;stroke:#000000;stroke-width:0.1;stroke-miterlimit:4;stroke-dasharray:none;stroke-dashoffset:0;stroke-opacity:1" />
    <circle
       r="1"
       cy="289"
       cx="260"
       id="circle2950"
       style="fill:none;fill-opacity:1;stroke:#000000;stroke-width:0.1;stroke-miterlimit:4;stroke-dasharray:none;stroke-dashoffset:0;stroke-opacity:1" />
    <circle
       style="fill:none;fill-opacity:1;stroke:#000000;stroke-width:0.1;stroke-miterlimit:4;stroke-dasharray:none;stroke-dashoffset:0;stroke-opacity:1"
       id="circle2952"
       cx="268"
       cy="289"
       r="1" />
    <circle
       style="fill:none;fill-opacity:1;stroke:#000000;stroke-width:0.1;stroke-miterlimit:4;stroke-dasharray:none;stroke-dashoffset:0;stroke-opacity:1"
       id="circle2954"
       cx="260"
       cy="279"
       r="1" />
    <circle
       r="1"
       cy="279"
       cx="268"
       id="circle2956"
       style="fill:none;fill-opacity:1;stroke:#000000;stroke-width:0.1;stroke-miterlimit:4;stroke-dasharray:none;stroke-dashoffset:0;stroke-opacity:1" />
    <path
       id="path2958"
       d="m 237,284 90,0"
       style="fill:none;stroke:#000000;stroke-width:0.1;stroke-linecap:butt;stroke-linejoin:miter;stroke-miterlimit:4;stroke-dasharray:none;stroke-opacity:1" />
    <path
       id="path2960"
       d="m 255,274 v 20"
       style="fill:none;stroke:#000000;stroke-width:0.1;stroke-linecap:butt;stroke-linejoin:miter;stroke-opacity:1;stroke-miterlimit:4;stroke-dasharray:none" />
    <path
       style="fill:none;stroke:#000000;stroke-width:0.1;stroke-linecap:butt;stroke-linejoin:miter;stroke-miterlimit:4;stroke-dasharray:none;stroke-opacity:1"
       d="m 273,274 v 20"
       id="path897" />
    <circle
       style="fill:none;fill-opacity:1;stroke:#000000;stroke-width:0.1;stroke-miterlimit:4;stroke-dasharray:none;stroke-dashoffset:0;stroke-opacity:1"
       id="circle903"
       cx="278"
       cy="279"
       r="1" />
    <circle
       r="1"
       cy="279"
       cx="286"
       id="circle905"
       style="fill:none;fill-opacity:1;stroke:#000000;stroke-width:0.1;stroke-miterlimit:4;stroke-dasharray:none;stroke-dashoffset:0;stroke-opacity:1" />
    <circle
       r="1"
       cy="289"
       cx="278"
       id="circle907"
       style="fill:none;fill-opacity:1;stroke:#000000;stroke-width:0.1;stroke-miterlimit:4;stroke-dasharray:none;stroke-dashoffset:0;stroke-opacity:1" />
    <circle
       style="fill:none;fill-opacity:1;stroke:#000000;stroke-width:0.1;stroke-miterlimit:4;stroke-dasharray:none;stroke-dashoffset:0;stroke-opacity:1"
       id="circle909"
       cx="286"
       cy="289"
       r="1" />
    <circle
       style="fill:none;fill-opacity:1;stroke:#000000;stroke-width:0.1;stroke-miterlimit:4;stroke-dasharray:none;stroke-dashoffset:0;stroke-opacity:1"
       id="circle911"
       cx="296"
       cy="289"
       r="1" />
    <circle
       r="1"
       cy="289"
       cx="304"
       id="circle913"
       style="fill:none;fill-opacity:1;stroke:#000000;stroke-width:0.1;stroke-miterlimit:4;stroke-dasharray:none;stroke-dashoffset:0;stroke-opacity:1" />
    <circle
       r="1"
       cy="279"
       cx="296"
       id="circle915"
       style="fill:none;fill-opacity:1;stroke:#000000;stroke-width:0.1;stroke-miterlimit:4;stroke-dasharray:none;stroke-dashoffset:0;stroke-opacity:1" />
    <circle
       style="fill:none;fill-opacity:1;stroke:#000000;stroke-width:0.1;stroke-miterlimit:4;stroke-dasharray:none;stroke-dashoffset:0;stroke-opacity:1"
       id="circle917"
       cx="304"
       cy="279"
       r="1" />
    <path
       style="fill:none;stroke:#000000;stroke-width:0.1;stroke-linecap:butt;stroke-linejoin:miter;stroke-miterlimit:4;stroke-dasharray:none;stroke-opacity:1"
       d="m 291,274 v 20"
       id="path919" />
    <path
       id="path921"
       d="m 309,274 v 20"
       style="fill:none;stroke:#000000;stroke-width:0.1;stroke-linecap:butt;stroke-linejoin:miter;stroke-miterlimit:4;stroke-dasharray:none;stroke-opacity:1" />
    <circle
       r="1"
       cy="289"
       cx="314"
       id="circle927"
       style="fill:none;fill-opacity:1;stroke:#000000;stroke-width:0.1;stroke-miterlimit:4;stroke-dasharray:none;stroke-dashoffset:0;stroke-opacity:1" />
    <circle
       style="fill:none;fill-opacity:1;stroke:#000000;stroke-width:0.1;stroke-miterlimit:4;stroke-dasharray:none;stroke-dashoffset:0;stroke-opacity:1"
       id="circle929"
       cx="322"
       cy="289"
       r="1" />
    <circle
       style="fill:none;fill-opacity:1;stroke:#000000;stroke-width:0.1;stroke-miterlimit:4;stroke-dasharray:none;stroke-dashoffset:0;stroke-opacity:1"
       id="circle931"
       cx="314"
       cy="279"
       r="1" />
    <circle
       r="1"
       cy="279"
       cx="322"
       id="circle933"
       style="fill:none;fill-opacity:1;stroke:#000000;stroke-width:0.1;stroke-miterlimit:4;stroke-dasharray:none;stroke-dashoffset:0;stroke-opacity:1" />
  </g>
</svg>
