<?xml version="1.0" encoding="UTF-8" standalone="no"?>
<!-- Created with Inkscape (http://www.inkscape.org/) -->

<svg
   xmlns:dc="http://purl.org/dc/elements/1.1/"
   xmlns:cc="http://creativecommons.org/ns#"
   xmlns:rdf="http://www.w3.org/1999/02/22-rdf-syntax-ns#"
   xmlns:svg="http://www.w3.org/2000/svg"
   xmlns="http://www.w3.org/2000/svg"
   xmlns:sodipodi="http://sodipodi.sourceforge.net/DTD/sodipodi-0.dtd"
   xmlns:inkscape="http://www.inkscape.org/namespaces/inkscape"
   width="534.82056mm"
   height="556.60022mm"
   viewBox="0 0 534.82056 556.60023"
   version="1.1"
   id="svg1070"
   inkscape:version="0.92.2 5c3e80d, 2017-08-06"
   sodipodi:docname="chassis.svg">
  <defs
     id="defs1064" />
  <sodipodi:namedview
     id="base"
     pagecolor="#ffffff"
     bordercolor="#666666"
     borderopacity="1.0"
     inkscape:pageopacity="0.0"
     inkscape:pageshadow="2"
     inkscape:zoom="16"
     inkscape:cx="613.17241"
     inkscape:cy="-2020.7293"
     inkscape:document-units="mm"
     inkscape:current-layer="layer1"
     showgrid="true"
     inkscape:window-width="1879"
     inkscape:window-height="1155"
     inkscape:window-x="48"
     inkscape:window-y="0"
     inkscape:window-maximized="0"
     showguides="true"
     inkscape:guide-bbox="true"
     fit-margin-top="100"
     fit-margin-left="100"
     fit-margin-right="100"
     fit-margin-bottom="100"
     inkscape:measure-start="1563.86,-1759.18"
     inkscape:measure-end="1658.35,-1759.18">
    <inkscape:grid
       type="xygrid"
       id="grid1615"
       units="mm"
       spacingx="0.25"
       spacingy="0.25"
       empspacing="4"
       originx="107.77056"
       originy="285.55025" />
    <sodipodi:guide
       position="229.77057,481.55026"
       orientation="1,0"
       id="guide2718"
       inkscape:locked="false" />
    <sodipodi:guide
       position="265.02057,479.80026"
       orientation="0,1"
       id="guide2831"
       inkscape:locked="false" />
    <sodipodi:guide
       position="206.77057,383.55025"
       orientation="0,1"
       id="guide4359"
       inkscape:locked="false" />
    <sodipodi:guide
       position="144.77057,-606.69977"
       orientation="1,0"
       id="guide881"
       inkscape:locked="false" />
    <sodipodi:guide
       position="248.27057,384.05025"
       orientation="1,0"
       id="guide2846"
       inkscape:locked="false" />
    <sodipodi:guide
       position="203.77057,240.55024"
       orientation="0,1"
       id="guide2925"
       inkscape:locked="false" />
    <sodipodi:guide
       position="119.77056,146.55026"
       orientation="0,1"
       id="guide6974"
       inkscape:locked="false" />
    <sodipodi:guide
       position="388.77057,-246.44976"
       orientation="0,1"
       id="guide1218"
       inkscape:locked="false" />
    <sodipodi:guide
       position="96.770561,-484.44978"
       orientation="1,0"
       id="guide952"
       inkscape:locked="false" />
    <sodipodi:guide
       position="103.77056,-488.44977"
       orientation="1,0"
       id="guide954"
       inkscape:locked="false" />
    <sodipodi:guide
       position="112.77056,-487.44978"
       orientation="1,0"
       id="guide968"
       inkscape:locked="false" />
    <sodipodi:guide
       position="123.77056,-473.44977"
       orientation="1,0"
       inkscape:locked="false"
       id="guide970" />
  </sodipodi:namedview>
  <metadata
     id="metadata1067">
    <rdf:RDF>
      <cc:Work
         rdf:about="">
        <dc:format>image/svg+xml</dc:format>
        <dc:type
           rdf:resource="http://purl.org/dc/dcmitype/StillImage" />
        <dc:title />
      </cc:Work>
    </rdf:RDF>
  </metadata>
  <g
     inkscape:label="Layer 1"
     inkscape:groupmode="layer"
     id="layer1"
     transform="translate(107.77056,-25.95)">
    <path
       style="fill:none;fill-opacity:1;stroke:#000000;stroke-width:0.1;stroke-miterlimit:4;stroke-dasharray:none;stroke-opacity:1"
       d="m 115.99978,389.5001 v 3.00034 H 104 v 22.49992 h 11.99978 v 2.99981 h 14.00018 v -2.99981 h 16.00006 v 2.99981 h 13.99966 v -2.99981 l 4.00032,0 v -22.49992 l -4.00032,0 v -3.00034 h -13.99966 v 3.00034 h -16.00006 v -3.00034 z m 22.00021,4.00028 c 0.82836,-9e-5 1.49998,0.67129 1.50017,1.49965 9e-5,0.82856 -0.67161,1.50025 -1.50017,1.50016 -0.82856,9e-5 -1.50026,-0.6716 -1.50017,-1.50016 1.9e-4,-0.82836 0.67181,-1.49974 1.50017,-1.49965 z m -20.24993,6.49986 c 2.07079,1.9e-4 3.74945,1.67885 3.74965,3.74964 9e-5,2.07099 -1.67866,3.74997 -3.74965,3.75016 -2.07119,8e-5 -3.75024,-1.67897 -3.75015,-3.75016 2e-4,-2.07099 1.67916,-3.74972 3.75015,-3.74964 z m 20.24993,10.99984 c 0.82856,-9e-5 1.50026,0.67161 1.50017,1.50017 -1.9e-4,0.82836 -0.67181,1.49974 -1.50017,1.49965 -0.82836,9e-5 -1.49998,-0.67129 -1.50017,-1.49965 -9e-5,-0.82856 0.67161,-1.50026 1.50017,-1.50017 z"
       id="rect1656"
       inkscape:connector-curvature="0"
       sodipodi:nodetypes="cccccccccccccccccccccccccccccccccccc" />
    <path
       style="fill:none;fill-opacity:1;stroke:#000000;stroke-width:0.37795275;stroke-miterlimit:4;stroke-dasharray:none;stroke-opacity:1"
       d="m 445.11719,1032 v 325.0391 h 752.12591 v -34.0157 l 0,-15.1172 v -11.3398 h 215.4346 v -15.1172 h -98.2695 v -11.3398 h 98.2695 v -151.1797 h -98.2695 v -11.3399 h 98.2695 v -15.1171 l -215.4346,0 V 1081.1328 1066.0156 1032 Z m 34.01564,32.1266 c 3.13077,-4e-4 5.66915,2.5371 5.66992,5.6679 3.4e-4,3.1315 -2.53837,5.6702 -5.66992,5.6699 -3.13078,-7e-4 -5.66831,-2.5391 -5.66797,-5.6699 7.7e-4,-3.13 2.53797,-5.6672 5.66797,-5.6679 z m 854.17377,32.1254 c 2.0872,10e-5 3.7791,1.692 3.7793,3.7792 10e-4,2.088 -1.6913,3.7812 -3.7793,3.7813 -2.088,-10e-5 -3.7803,-1.6933 -3.7793,-3.7813 2e-4,-2.0872 1.6921,-3.7791 3.7793,-3.7792 z m 30.2364,0 c 2.0872,10e-5 3.7791,1.692 3.7793,3.7792 10e-4,2.088 -1.6913,3.7812 -3.7793,3.7813 -2.088,-10e-5 -3.7803,-1.6933 -3.7793,-3.7813 2e-4,-2.0872 1.6921,-3.7791 3.7793,-3.7792 z m -823.93753,7.5605 h 52.91406 v 11.3379 h -52.91406 z m 113.38672,0 h 52.91211 v 11.3379 h -52.91211 z m 211.65234,15.1172 c 2.08796,-9e-4 3.78112,1.6913 3.78125,3.7793 -1.3e-4,2.088 -1.69329,3.7802 -3.78125,3.7793 -2.0872,-10e-5 -3.77917,-1.6921 -3.7793,-3.7793 1.3e-4,-2.0872 1.6921,-3.7792 3.7793,-3.7793 z m 147.40237,0 c 2.0872,10e-5 3.7792,1.6921 3.7793,3.7793 -10e-5,2.0872 -1.6921,3.7792 -3.7793,3.7793 -2.0872,-10e-5 -3.7792,-1.6921 -3.7793,-3.7793 10e-5,-2.0872 1.6921,-3.7792 3.7793,-3.7793 z m -557.48049,22.6777 h 11.33789 v 37.7949 h -11.33789 z m 317.48047,0 h 11.33789 v 37.7949 h -11.33789 z m 515.90622,18.8965 h 120.9434 v 68.0313 h -120.9434 z m -827.71677,30.2363 c 2.08719,10e-5 3.77916,1.6921 3.77929,3.7793 -1.3e-4,2.0872 -1.6921,3.7792 -3.77929,3.7793 -2.0872,-10e-5 -3.77917,-1.6921 -3.7793,-3.7793 1.3e-4,-2.0872 1.6921,-3.7792 3.7793,-3.7793 z m 317.48047,0 c 2.08719,10e-5 3.77916,1.6921 3.77929,3.7793 -1.3e-4,2.0872 -1.6921,3.7792 -3.77929,3.7793 -2.0872,-10e-5 -3.77917,-1.6921 -3.7793,-3.7793 1.3e-4,-2.0872 1.6921,-3.7792 3.7793,-3.7793 z m -323.15039,18.8985 h 11.33789 v 37.7949 h -11.33789 z m 317.48047,0 h 11.33789 v 37.7949 h -11.33789 z m -232.44141,64.2519 h 52.91406 v 11.3379 h -52.91406 z m 113.38672,0 h 52.91211 v 11.3379 h -52.91211 z m 680.31441,11.3379 c 2.0872,10e-5 3.7792,1.6921 3.7793,3.7793 -10e-5,2.0872 -1.6921,3.7792 -3.7793,3.7793 -2.0872,-10e-5 -3.7792,-1.6921 -3.7793,-3.7793 10e-5,-2.0872 1.6921,-3.7792 3.7793,-3.7793 z m 30.2364,0 c 2.0872,10e-5 3.7792,1.6921 3.7793,3.7793 -10e-5,2.0872 -1.6921,3.7792 -3.7793,3.7793 -2.0872,-10e-5 -3.7792,-1.6921 -3.7793,-3.7793 10e-5,-2.0872 1.6921,-3.7792 3.7793,-3.7793 z m -884.41017,28.3461 c 3.13077,-3e-4 5.66915,2.5372 5.66992,5.6679 3.9e-4,3.1316 -2.53833,5.6704 -5.66992,5.67 -3.13082,-7e-4 -5.66836,-2.5391 -5.66797,-5.67 7.7e-4,-3.13 2.53797,-5.6671 5.66797,-5.6679 z"
       transform="matrix(0.26458333,0,0,0.26458333,-107.77056,25.95)"
       id="rect2716"
       inkscape:connector-curvature="0"
       sodipodi:nodetypes="cccccccccccccccccccccccccccccccccccccccccccccccccccccccccccccccccccccccccccccccccccccccccccccccccccccccccccccccccccc" />
    <rect
       style="fill:none;fill-opacity:1;stroke:#000000;stroke-width:0.1;stroke-miterlimit:4;stroke-dasharray:none;stroke-opacity:1"
       id="rect2741"
       width="3"
       height="14"
       x="-178.00002"
       y="35"
       transform="rotate(-90)" />
    <rect
       y="35"
       x="-223"
       height="14"
       width="3"
       id="rect2743"
       style="fill:none;fill-opacity:1;stroke:#000000;stroke-width:0.1;stroke-miterlimit:4;stroke-dasharray:none;stroke-opacity:1"
       transform="rotate(-90)" />
    <circle
       style="fill:none;fill-opacity:1;stroke:#000000;stroke-width:0.1;stroke-miterlimit:4;stroke-dasharray:none;stroke-opacity:1"
       id="path2793"
       cx="-163.75"
       cy="36.75"
       r="2.75"
       transform="rotate(-90)" />
    <rect
       style="fill:none;fill-opacity:1;stroke:#000000;stroke-width:0.1;stroke-miterlimit:4;stroke-dasharray:none;stroke-opacity:1"
       id="rect2829"
       width="25"
       height="65"
       x="-151"
       y="4.2499924"
       transform="rotate(-90)" />
    <rect
       y="4.2499924"
       x="-272"
       height="65"
       width="25"
       id="rect2833"
       style="fill:none;fill-opacity:1;stroke:#000000;stroke-width:0.1;stroke-miterlimit:4;stroke-dasharray:none;stroke-opacity:1"
       transform="rotate(-90)" />
    <rect
       y="216.5"
       x="-151"
       height="65"
       width="25"
       id="rect2835"
       style="fill:none;fill-opacity:1;stroke:#000000;stroke-width:0.1;stroke-miterlimit:4;stroke-dasharray:none;stroke-opacity:1"
       transform="rotate(-90)" />
    <rect
       style="fill:none;fill-opacity:1;stroke:#000000;stroke-width:0.1;stroke-miterlimit:4;stroke-dasharray:none;stroke-opacity:1"
       id="rect2837"
       width="25"
       height="65"
       x="-272"
       y="216.5"
       transform="rotate(-90)" />
    <rect
       style="fill:none;fill-opacity:1;stroke:#000000;stroke-width:0.1;stroke-miterlimit:4;stroke-dasharray:none;stroke-opacity:1"
       id="rect2839"
       width="146"
       height="4"
       x="-272"
       y="247"
       transform="rotate(-90)" />
    <rect
       style="fill:none;fill-opacity:1;stroke:#000000;stroke-width:0.1;stroke-miterlimit:4;stroke-dasharray:none;stroke-opacity:1"
       id="rect2841"
       width="45.999996"
       height="190"
       x="-245"
       y="37"
       transform="rotate(-90)" />
    <rect
       style="fill:none;fill-opacity:1;stroke:#de8787;stroke-width:0.1;stroke-miterlimit:4;stroke-dasharray:none;stroke-opacity:1"
       id="rect4324"
       width="5.5"
       height="8"
       x="34"
       y="215.00002" />
    <rect
       y="175.00002"
       x="34"
       height="8"
       width="5.5"
       id="rect4328"
       style="fill:none;fill-opacity:1;stroke:#de8787;stroke-width:0.1;stroke-miterlimit:4;stroke-dasharray:none;stroke-opacity:1" />
    <rect
       style="fill:none;fill-opacity:1;stroke:#000000;stroke-width:0.1;stroke-miterlimit:4;stroke-dasharray:none;stroke-dashoffset:0;stroke-opacity:1"
       id="rect4330"
       width="36"
       height="10"
       x="55.5"
       y="165.00002" />
    <g
       id="g4341"
       transform="translate(-51,-4.0000032)">
      <rect
         y="183.00002"
         x="68"
         height="40"
         width="78"
         id="rect4332"
         style="fill:none;fill-opacity:1;stroke:#000000;stroke-width:0.1;stroke-miterlimit:4;stroke-dasharray:none;stroke-dashoffset:0;stroke-opacity:1" />
      <text
         id="text4336"
         y="189.00002"
         x="78"
         style="font-style:normal;font-weight:normal;font-size:4.23333311px;line-height:1.25;font-family:sans-serif;letter-spacing:0px;word-spacing:0px;fill:#000000;fill-opacity:1;stroke:none;stroke-width:0.26458332"
         xml:space="preserve"><tspan
           style="stroke-width:0.26458332"
           y="189.00002"
           x="78"
           id="tspan4334"
           sodipodi:role="line">batre</tspan></text>
    </g>
    <rect
       style="fill:none;fill-opacity:1;stroke:#de8787;stroke-width:0.1;stroke-miterlimit:4;stroke-dasharray:none;stroke-opacity:1"
       id="rect877"
       width="5.5"
       height="8"
       x="34"
       y="149" />
    <circle
       style="fill:none;fill-opacity:1;stroke:#000000;stroke-width:0.1;stroke-miterlimit:4;stroke-dasharray:none;stroke-dashoffset:0;stroke-opacity:1"
       id="path879"
       cx="14"
       cy="199"
       r="1" />
    <circle
       r="1"
       cy="199"
       cx="98"
       id="circle885"
       style="fill:none;fill-opacity:1;stroke:#000000;stroke-width:0.1;stroke-miterlimit:4;stroke-dasharray:none;stroke-dashoffset:0;stroke-opacity:1" />
    <path
       style="fill:none;fill-opacity:1;stroke:#000000;stroke-width:0.37795275;stroke-miterlimit:4;stroke-dasharray:none;stroke-opacity:1"
       d="M 437.55859 1387.2754 L 437.55859 1712.3145 L 785.27539 1712.3145 L 785.27539 1653.4023 A 5.6692912 5.6692912 0 0 1 783.38477 1653.7324 A 5.6692912 5.6692912 0 0 1 777.71484 1648.0625 A 5.6692912 5.6692912 0 0 1 783.38477 1642.3926 A 5.6692912 5.6692912 0 0 1 785.27539 1642.7246 L 785.27539 1456.8652 A 5.6692911 5.6692911 0 0 1 783.38477 1457.1973 A 5.6692911 5.6692911 0 0 1 777.71484 1451.5273 A 5.6692911 5.6692911 0 0 1 783.38477 1445.8574 A 5.6692911 5.6692911 0 0 1 785.27539 1446.1895 L 785.27539 1387.2754 L 437.55859 1387.2754 z M 471.57422 1419.4023 C 474.705 1419.402 477.24341 1421.9395 477.24414 1425.0703 C 477.2445 1428.2018 474.70577 1430.7406 471.57422 1430.7402 C 468.44342 1430.7395 465.90589 1428.2011 465.90625 1425.0703 C 465.90698 1421.9403 468.44419 1419.4031 471.57422 1419.4023 z M 705.9043 1445.8574 A 5.6692913 5.6692913 0 0 1 711.57422 1451.5273 A 5.6692913 5.6692913 0 0 1 705.9043 1457.1973 A 5.6692913 5.6692913 0 0 1 700.23438 1451.5273 A 5.6692913 5.6692913 0 0 1 705.9043 1445.8574 z M 724.80273 1447.748 A 3.7795276 3.7795276 0 0 1 728.58203 1451.5273 A 3.7795276 3.7795276 0 0 1 724.80273 1455.3066 A 3.7795276 3.7795276 0 0 1 721.02344 1451.5273 A 3.7795276 3.7795276 0 0 1 724.80273 1447.748 z M 532.04688 1459.0879 L 584.96094 1459.0879 L 584.96094 1470.4258 L 532.04688 1470.4258 L 532.04688 1459.0879 z M 645.43359 1459.0879 L 698.3457 1459.0879 L 698.3457 1470.4258 L 645.43359 1470.4258 L 645.43359 1459.0879 z M 447.00781 1496.8828 L 458.3457 1496.8828 L 458.3457 1534.6777 L 447.00781 1534.6777 L 447.00781 1496.8828 z M 764.48828 1496.8828 L 775.82617 1496.8828 L 775.82617 1534.6777 L 764.48828 1534.6777 L 764.48828 1496.8828 z M 452.67773 1546.0156 C 454.76493 1546.0157 456.45691 1547.7077 456.45703 1549.7949 C 456.45691 1551.8821 454.76493 1553.5741 452.67773 1553.5742 C 450.59054 1553.5741 448.89856 1551.8821 448.89844 1549.7949 C 448.89856 1547.7077 450.59054 1546.0157 452.67773 1546.0156 z M 770.1582 1546.0156 C 772.2454 1546.0157 773.93738 1547.7077 773.9375 1549.7949 C 773.93738 1551.8821 772.2454 1553.5741 770.1582 1553.5742 C 768.071 1553.5741 766.37903 1551.8821 766.37891 1549.7949 C 766.37903 1547.7077 768.071 1546.0157 770.1582 1546.0156 z M 447.00781 1564.9141 L 458.3457 1564.9141 L 458.3457 1602.709 L 447.00781 1602.709 L 447.00781 1564.9141 z M 764.48828 1564.9141 L 775.82617 1564.9141 L 775.82617 1602.709 L 764.48828 1602.709 L 764.48828 1564.9141 z M 532.04688 1629.166 L 584.96094 1629.166 L 584.96094 1640.5039 L 532.04688 1640.5039 L 532.04688 1629.166 z M 645.43359 1629.166 L 698.3457 1629.166 L 698.3457 1640.5039 L 645.43359 1640.5039 L 645.43359 1629.166 z M 705.9043 1642.3926 A 5.6692913 5.6692913 0 0 1 711.57422 1648.0625 A 5.6692913 5.6692913 0 0 1 705.9043 1653.7324 A 5.6692913 5.6692913 0 0 1 700.23438 1648.0625 A 5.6692913 5.6692913 0 0 1 705.9043 1642.3926 z M 724.80273 1644.2832 A 3.7795276 3.7795276 0 0 1 728.58203 1648.0625 A 3.7795276 3.7795276 0 0 1 724.80273 1651.8418 A 3.7795276 3.7795276 0 0 1 721.02344 1648.0625 A 3.7795276 3.7795276 0 0 1 724.80273 1644.2832 z M 471.57422 1668.8496 C 474.705 1668.8493 477.24341 1671.3868 477.24414 1674.5176 C 477.24447 1677.6491 474.70575 1680.1878 471.57422 1680.1875 C 468.44344 1680.1868 465.90592 1677.6483 465.90625 1674.5176 C 465.90698 1671.3876 468.44419 1668.8503 471.57422 1668.8496 z "
       transform="matrix(0.26458333,0,0,0.26458333,-107.77056,25.95)"
       id="rect895" />
    <rect
       style="fill:none;fill-opacity:1;stroke:#000000;stroke-width:0.1;stroke-miterlimit:4;stroke-dasharray:none;stroke-dashoffset:0;stroke-opacity:1"
       id="rect897"
       width="2"
       height="68"
       x="18"
       y="165" />
    <circle
       style="fill:none;fill-opacity:1;stroke:#000000;stroke-width:0.1;stroke-miterlimit:4;stroke-dasharray:none;stroke-dashoffset:0;stroke-opacity:1"
       id="path899"
       cx="19"
       cy="165.99995"
       r="1.5" />
    <circle
       r="1.5"
       cy="231.99995"
       cx="19"
       id="circle901"
       style="fill:none;fill-opacity:1;stroke:#000000;stroke-width:0.1;stroke-miterlimit:4;stroke-dasharray:none;stroke-dashoffset:0;stroke-opacity:1" />
    <rect
       style="fill:none;fill-opacity:1;stroke:#000000;stroke-width:0.1;stroke-miterlimit:4;stroke-dasharray:none;stroke-dashoffset:0;stroke-opacity:1"
       id="rect903"
       width="3"
       height="10"
       x="12.5"
       y="203" />
    <rect
       style="fill:none;fill-opacity:1;stroke:#000000;stroke-width:0.09730616;stroke-miterlimit:4;stroke-dasharray:none;stroke-dashoffset:0;stroke-opacity:1"
       id="rect905"
       width="72.902695"
       height="42.002693"
       x="104.09731"
       y="194.99866" />
    <rect
       y="185"
       x="12.5"
       height="10"
       width="3"
       id="rect907"
       style="fill:none;fill-opacity:1;stroke:#000000;stroke-width:0.1;stroke-miterlimit:4;stroke-dasharray:none;stroke-dashoffset:0;stroke-opacity:1" />
    <rect
       y="203"
       x="96.5"
       height="10"
       width="3"
       id="rect909"
       style="fill:none;fill-opacity:1;stroke:#000000;stroke-width:0.1;stroke-miterlimit:4;stroke-dasharray:none;stroke-dashoffset:0;stroke-opacity:1" />
    <rect
       style="fill:none;fill-opacity:1;stroke:#000000;stroke-width:0.1;stroke-miterlimit:4;stroke-dasharray:none;stroke-dashoffset:0;stroke-opacity:1"
       id="rect911"
       width="3"
       height="10"
       x="96.5"
       y="185" />
    <path
       style="fill:none;fill-opacity:1;stroke:#000000;stroke-width:0.1;stroke-miterlimit:4;stroke-dasharray:none;stroke-dashoffset:0;stroke-opacity:1"
       d="m 160.00011,436.9999 v 3.00033 h -3.00033 v 9.99991 h 3.00033 v 2.99981 h 22.49992 v -2.99981 h 2.99982 v -9.99991 h -2.99982 v -3.00033 z"
       id="rect913"
       inkscape:connector-curvature="0" />
    <path
       id="path918"
       d="m 160.00011,418.99993 v 3.00033 h -3.00033 v 9.99991 h 3.00033 v 2.99981 h 22.49992 v -2.99981 h 2.99982 v -9.99991 h -2.99982 v -3.00033 z"
       style="fill:none;fill-opacity:1;stroke:#000000;stroke-width:0.1;stroke-miterlimit:4;stroke-dasharray:none;stroke-dashoffset:0;stroke-opacity:1"
       inkscape:connector-curvature="0" />
    <path
       id="path920"
       d="m 128.50008,436.9999 v 3.00034 h -3.00033 v 9.9999 h 3.00033 v 2.99982 H 151 v -2.99982 h 2.99982 v -9.9999 H 151 v -3.00034 z"
       style="fill:none;fill-opacity:1;stroke:#000000;stroke-width:0.1;stroke-miterlimit:4;stroke-dasharray:none;stroke-dashoffset:0;stroke-opacity:1"
       inkscape:connector-curvature="0" />
    <path
       inkscape:connector-curvature="0"
       style="fill:none;fill-opacity:1;stroke:#000000;stroke-width:0.1;stroke-miterlimit:4;stroke-dasharray:none;stroke-dashoffset:0;stroke-opacity:1"
       d="m 128.50008,418.99993 v 3.00033 h -3.00033 v 9.99991 h 3.00033 v 2.99981 H 151 v -2.99981 h 2.99982 v -9.99991 H 151 v -3.00033 z"
       id="path922" />
    <rect
       transform="rotate(-90)"
       y="65"
       x="-178"
       height="14"
       width="3"
       id="rect924"
       style="fill:none;fill-opacity:1;stroke:#000000;stroke-width:0.1;stroke-miterlimit:4;stroke-dasharray:none;stroke-opacity:1" />
    <rect
       style="fill:none;fill-opacity:1;stroke:#000000;stroke-width:0.1;stroke-miterlimit:4;stroke-dasharray:none;stroke-opacity:1"
       id="rect936"
       width="3"
       height="14"
       x="-223"
       y="65"
       transform="rotate(-90)" />
    <path
       inkscape:connector-curvature="0"
       id="path939"
       d="m 115.99978,454.00017 v 3.00034 H 104 v 22.49992 h 11.99978 v 2.99981 h 14.00018 v -2.99981 h 16.00006 v 2.99981 h 13.99966 v -2.99981 h 12.0003 v -22.49992 h -12.0003 v -3.00034 h -13.99966 v 3.00034 h -16.00006 v -3.00034 z m 22.00021,4.00028 a 1.5,1.5 0 0 1 1.50017,1.49965 1.5,1.5 0 0 1 -1.50017,1.50016 1.5,1.5 0 0 1 -1.50017,-1.50016 1.5,1.5 0 0 1 1.50017,-1.49965 z m -20.24993,6.49986 a 3.7499999,3.7499999 0 0 1 3.74965,3.74964 3.7499999,3.7499999 0 0 1 -3.74965,3.75016 3.7499999,3.7499999 0 0 1 -3.75015,-3.75016 3.7499999,3.7499999 0 0 1 3.75015,-3.74964 z m 20.24993,10.99984 a 1.5,1.5 0 0 1 1.50017,1.50017 1.5,1.5 0 0 1 -1.50017,1.49965 1.5,1.5 0 0 1 -1.50017,-1.49965 1.5,1.5 0 0 1 1.50017,-1.50017 z"
       style="fill:none;fill-opacity:1;stroke:#000000;stroke-width:0.1;stroke-miterlimit:4;stroke-dasharray:none;stroke-opacity:1" />
    <rect
       style="fill:none;fill-opacity:1;stroke:#000000;stroke-width:0.1;stroke-miterlimit:4;stroke-dasharray:none;stroke-dashoffset:0;stroke-opacity:1"
       id="rect968"
       width="30"
       height="20"
       x="179"
       y="189" />
    <rect
       style="fill:none;fill-opacity:1;stroke:#000000;stroke-width:0.1;stroke-miterlimit:4;stroke-dasharray:none;stroke-dashoffset:0;stroke-opacity:1"
       id="rect970"
       width="40"
       height="6.0000052"
       x="209"
       y="196" />
    <path
       style="fill:none;fill-opacity:1;stroke:#000000;stroke-width:0.1;stroke-miterlimit:4;stroke-dasharray:none;stroke-dashoffset:0;stroke-opacity:1"
       d="M 227.99962,168.99988 H 192.9997 v 18.00045 h 34.99992 z m -2.5001,8.99999 a 1,1 0 0 1 -0.99994,1.00044 1,1 0 0 1 -0.99994,-1.00044 1,1 0 0 1 0.99994,-0.99994 1,1 0 0 1 0.99994,0.99994 z M 222,172.00023 v 11.99978 h -22.75003 v -11.99978 z m -24.25021,6.00014 a 1,1 0 0 1 -0.99994,0.99994 1,1 0 0 1 -0.99994,-0.99994 1,1 0 0 1 0.99994,-1.00045 1,1 0 0 1 0.99994,1.00045 z"
       id="rect2822"
       inkscape:connector-curvature="0" />
    <rect
       style="fill:none;fill-opacity:1;stroke:#000000;stroke-width:0.1;stroke-miterlimit:4;stroke-dasharray:none;stroke-dashoffset:0;stroke-opacity:1"
       id="rect2836"
       width="6"
       height="20"
       x="265"
       y="161.5" />
    <rect
       y="181.5"
       x="265"
       height="20"
       width="6"
       id="rect2838"
       style="fill:none;fill-opacity:1;stroke:#000000;stroke-width:0.1;stroke-miterlimit:4;stroke-dasharray:none;stroke-dashoffset:0;stroke-opacity:1" />
    <rect
       style="fill:none;fill-opacity:1;stroke:#000000;stroke-width:0.1;stroke-miterlimit:4;stroke-dasharray:none;stroke-dashoffset:0;stroke-opacity:1"
       id="rect2840"
       width="6"
       height="35"
       x="265"
       y="201.5" />
    <rect
       style="fill:none;fill-opacity:1;stroke:#000000;stroke-width:0.1;stroke-miterlimit:4;stroke-dasharray:none;stroke-dashoffset:0;stroke-opacity:1"
       id="rect2844"
       width="41"
       height="21"
       x="120"
       y="179" />
    <circle
       style="fill:none;fill-opacity:1;stroke:#000000;stroke-width:0.1;stroke-miterlimit:4;stroke-dasharray:none;stroke-dashoffset:0;stroke-opacity:1"
       id="path2850"
       cx="160"
       cy="180"
       r="1" />
    <ellipse
       style="fill:none;fill-opacity:1;stroke:#000000;stroke-width:0.1;stroke-miterlimit:4;stroke-dasharray:none;stroke-dashoffset:0;stroke-opacity:1"
       id="path2852"
       cx="121"
       cy="180"
       rx="1.0000013"
       ry="1" />
    <rect
       style="fill:none;fill-opacity:1;stroke:#000000;stroke-width:0.1;stroke-miterlimit:4;stroke-dasharray:none;stroke-dashoffset:0;stroke-opacity:1"
       id="rect2854"
       width="32"
       height="32"
       x="233"
       y="183" />
    <rect
       style="fill:none;fill-opacity:1;stroke:#000000;stroke-width:0.1;stroke-miterlimit:4;stroke-dasharray:none;stroke-dashoffset:0;stroke-opacity:1"
       id="rect2858"
       width="10"
       height="52"
       x="244"
       y="173" />
    <path
       style="fill:none;fill-opacity:1;stroke:#000000;stroke-width:0.1;stroke-miterlimit:4;stroke-dasharray:none;stroke-dashoffset:0;stroke-opacity:1"
       d="m 261.99989,425.00004 v 2.99982 h -2.99982 v 3.99976 h 2.99982 v 3.00033 h 12.00031 v -3.00033 h 2.99982 v -3.99976 h -2.99982 v -2.99982 z m 2.00038,3.99976 a 1,1 0 0 1 0.99994,0.99994 1,1 0 0 1 -0.99994,0.99994 1,1 0 0 1 -0.99994,-0.99994 1,1 0 0 1 0.99994,-0.99994 z m 8.00005,0 a 1,1 0 0 1 0.99994,0.99994 1,1 0 0 1 -0.99994,0.99994 1,1 0 0 1 -0.99994,-0.99994 1,1 0 0 1 0.99994,-0.99994 z"
       id="path2862"
       inkscape:connector-curvature="0" />
    <circle
       r="1"
       cy="224"
       cx="245"
       id="circle2866"
       style="fill:none;fill-opacity:1;stroke:#000000;stroke-width:0.1;stroke-miterlimit:4;stroke-dasharray:none;stroke-dashoffset:0;stroke-opacity:1" />
    <circle
       style="fill:none;fill-opacity:1;stroke:#000000;stroke-width:0.1;stroke-miterlimit:4;stroke-dasharray:none;stroke-dashoffset:0;stroke-opacity:1"
       id="circle2868"
       cx="253"
       cy="224"
       r="1" />
    <rect
       y="190"
       x="233"
       height="18"
       width="32"
       id="rect2876"
       style="fill:none;fill-opacity:1;stroke:#000000;stroke-width:0.1;stroke-miterlimit:4;stroke-dasharray:none;stroke-dashoffset:0;stroke-opacity:1" />
    <path
       style="fill:none;fill-opacity:1;stroke:#000000;stroke-width:0.37795275;stroke-miterlimit:4;stroke-dasharray:none;stroke-dashoffset:0;stroke-opacity:1"
       d="m 935.62109,351.68555 v 37.79492 h 68.03321 v -37.79492 z m 18.89844,15.11718 a 3.7795276,3.7795276 0 0 1 3.7793,3.7793 3.7795276,3.7795276 0 0 1 -3.7793,3.7793 3.7795276,3.7795276 0 0 1 -3.7793,-3.7793 3.7795276,3.7795276 0 0 1 3.7793,-3.7793 z m 30.23633,0 a 3.7795276,3.7795276 0 0 1 3.7793,3.7793 3.7795276,3.7795276 0 0 1 -3.7793,3.7793 3.7795276,3.7795276 0 0 1 -3.7793,-3.7793 3.7795276,3.7795276 0 0 1 3.7793,-3.7793 z"
       id="rect2880"
       transform="matrix(0.26458333,0,0,0.26458333,-7.55,125.95)"
       inkscape:connector-curvature="0" />
    <text
       xml:space="preserve"
       style="font-style:normal;font-weight:normal;font-size:4.23333311px;line-height:1.25;font-family:sans-serif;letter-spacing:0px;word-spacing:0px;fill:#000000;fill-opacity:1;stroke:none;stroke-width:0.26458332"
       x="-8"
       y="301"
       id="text2923"><tspan
         sodipodi:role="line"
         id="tspan2921"
         x="-8"
         y="301"
         style="stroke-width:0.26458332">step 2</tspan></text>
    <rect
       style="fill:none;fill-opacity:1;stroke:#000000;stroke-width:0.1;stroke-miterlimit:4;stroke-dasharray:none;stroke-dashoffset:0;stroke-opacity:1"
       id="rect2927"
       width="30.000002"
       height="6"
       x="179"
       y="196" />
    <rect
       y="335.99994"
       x="179"
       height="12.00001"
       width="30"
       id="rect2929"
       style="fill:none;fill-opacity:1;stroke:#000000;stroke-width:0.1;stroke-miterlimit:4;stroke-dasharray:none;stroke-dashoffset:0;stroke-opacity:1" />
    <path
       style="fill:none;fill-opacity:1;stroke:#000000;stroke-width:0.1;stroke-miterlimit:4;stroke-dasharray:none;stroke-dashoffset:0;stroke-opacity:1"
       d="m 242,385 v 59.99995 h 56.0002 V 385 Z m 7.00008,2.99981 h 27.99985 v 3.99976 h -27.99985 z m -2.49994,0.99994 c 0.55224,3e-5 0.99991,0.4477 0.99994,0.99994 -3e-5,0.55224 -0.4477,0.99991 -0.99994,0.99994 -0.55224,-3e-5 -0.99991,-0.4477 -0.99994,-0.99994 3e-5,-0.55224 0.4477,-0.99991 0.99994,-0.99994 z m 32.5002,0 c 0.55224,3e-5 0.99991,0.4477 0.99994,0.99994 -3e-5,0.55224 -0.4477,0.99991 -0.99994,0.99994 -0.55244,2.6e-4 -1.00044,-0.4475 -1.00047,-0.99994 3e-5,-0.55244 0.44803,-1.0002 1.00047,-0.99994 z m 9.9999,5.75004 c 0.55221,3e-5 0.99991,0.44767 0.99994,0.99994 0,0.55245 -0.44752,1.00094 -0.99994,1.00097 -0.55264,0 -1.00076,-0.44836 -1.00047,-1.00097 2e-5,-0.55242 0.44802,-1.00021 1.00047,-0.99994 z m -40.00016,0.25011 h 27.99985 v 40.00015 h -27.99985 v -7.00009 h -3.99976 v -25.99997 h 3.99976 z m 36.99981,10.99985 h 6.00017 v 3.81062 c 1.8542,1.07062 2.99754,3.04868 2.99982,5.18986 2.1e-4,3.31356 -2.68603,5.99941 -5.99964,5.99964 -3.31378,9e-5 -6.00022,-2.6858 -6.00017,-5.99964 0.003,-2.14039 1.14623,-4.11755 2.99982,-5.18779 z m 3.00035,15.50034 1.73167,0.99994 v 1.99988 l -1.73167,0.99994 -1.7322,-0.99994 v -1.99988 z m -40.00016,16.49977 h 27.99985 v 3.99976 h -27.99985 z m -2.49994,0.99994 c 0.55224,3e-5 0.99991,0.4477 0.99994,0.99994 -3e-5,0.55224 -0.4477,0.99991 -0.99994,0.99994 -0.55224,-3e-5 -0.99991,-0.4477 -0.99994,-0.99994 3e-5,-0.55224 0.4477,-0.99991 0.99994,-0.99994 z m 32.5002,0 c 0.55224,3e-5 0.99991,0.4477 0.99994,0.99994 -3e-5,0.55224 -0.4477,0.99991 -0.99994,0.99994 -0.55244,2.6e-4 -1.00044,-0.4475 -1.00047,-0.99994 3e-5,-0.55244 0.44803,-1.0002 1.00047,-0.99994 z"
       id="rect2278"
       inkscape:connector-curvature="0"
       sodipodi:nodetypes="cccccccccccccccccccccccccccccccccccccccccccccccccccccccccccccccc" />
    <path
       style="fill:none;stroke:#000000;stroke-width:0.10000001;stroke-miterlimit:4;stroke-dasharray:none;stroke-opacity:1"
       d="m 212.49973,406.99992 v 16.00006 l -2.5001,-0.004 v 3.00395 h -13.49944 v 5.99964 h 13.49944 v 2.99981 L 221,434.9999 v -12.0003 h -2.5001 v -15.99968 z m 3.00035,1.75028 c 0.55221,6e-5 0.99994,0.44768 0.99994,0.99994 0,0.55222 -0.44773,0.99988 -0.99994,0.99994 -0.55248,2.1e-4 -1.00044,-0.44751 -1.00047,-0.99994 3e-5,-0.55245 0.44802,-1.00017 1.00047,-0.99994 z m 0,4.9997 c 0.55245,6e-5 1.0002,0.44804 0.99994,1.00045 0,0.55227 -0.44773,0.99992 -0.99994,0.99994 -0.55245,2.4e-4 -1.00044,-0.44754 -1.00047,-0.99994 -2.6e-4,-0.55263 0.44783,-1.00071 1.00047,-1.00045 z m 0,4.00027 c 0.55221,6e-5 0.99994,0.44773 0.99994,0.99994 0,0.55227 -0.44773,0.99992 -0.99994,0.99994 -0.55248,2.7e-4 -1.00044,-0.44749 -1.00047,-0.99994 3e-5,-0.55242 0.44802,-1.00015 1.00047,-0.99994 z m 0,3.99976 c 0.55224,3e-5 0.99994,0.44768 0.99994,0.99994 0,0.55243 -0.44749,1.00045 -0.99994,1.00045 -0.55264,2.5e-4 -1.00073,-0.44785 -1.00047,-1.00045 3e-5,-0.55245 0.44802,-1.0002 1.00047,-0.99994 z m 0,3.75016 c 1.93278,2.5e-4 3.49951,1.56724 3.49951,3.50004 0,1.93283 -1.5667,3.49975 -3.49951,3.50004 -1.93307,3e-5 -3.50007,-1.567 -3.50004,-3.50004 -3e-5,-1.93304 1.56694,-3.50011 3.50004,-3.50004 z m -16.00007,2.5001 a 1,1 0 0 1 0.99994,0.99994 1,1 0 0 1 -0.99994,0.99994 1,1 0 0 1 -0.99994,-0.99994 1,1 0 0 1 0.99994,-0.99994 z"
       id="path3807"
       inkscape:connector-curvature="0" />
    <path
       style="fill:none;fill-opacity:1;stroke:#000000;stroke-width:0.1;stroke-miterlimit:4;stroke-dasharray:none;stroke-dashoffset:0;stroke-opacity:1"
       d="m 186,384.99995 v 59.99995 h 56.0002 v -59.99995 z m 7.00008,2.99981 h 27.99985 v 3.99976 h -27.99985 z m -2.50014,0.99994 c 0.55224,3e-5 0.99991,0.4477 0.99994,0.99994 -3e-5,0.55224 -0.4477,0.99991 -0.99994,0.99994 -0.55224,-3e-5 -0.99991,-0.4477 -0.99994,-0.99994 3e-5,-0.55224 0.4477,-0.99991 0.99994,-0.99994 z m 32.5004,0 c 0.55224,3e-5 0.99991,0.4477 0.99994,0.99994 -3e-5,0.55224 -0.4477,0.99991 -0.99994,0.99994 -0.55244,2.6e-4 -1.00044,-0.4475 -1.00047,-0.99994 3e-5,-0.55244 0.44803,-1.0002 1.00047,-0.99994 z m -30.00026,6.00015 h 27.99985 v 40.00014 h -27.99985 v -7.00009 h -3.99976 v -25.99996 h 3.99976 z m 33.74988,3.24993 h 12.50003 l 0,24.75019 h -12.50003 z m -33.74988,39.75003 h 27.99985 v 3.99976 h -27.99985 z m -2.50002,0.99994 c 0.55224,3e-5 0.99991,0.4477 0.99994,0.99994 -3e-5,0.55224 -0.4477,0.99991 -0.99994,0.99994 -0.55224,-3e-5 -0.99991,-0.4477 -0.99994,-0.99994 3e-5,-0.55224 0.4477,-0.99991 0.99994,-0.99994 z m 32.50028,0 c 0.55224,3e-5 0.99991,0.4477 0.99994,0.99994 -3e-5,0.55224 -0.4477,0.99991 -0.99994,0.99994 -0.55244,2.6e-4 -1.00044,-0.4475 -1.00047,-0.99994 3e-5,-0.55244 0.44803,-1.0002 1.00047,-0.99994 z"
       id="path6791"
       inkscape:connector-curvature="0"
       sodipodi:nodetypes="ccccccccccccccccccccccccccccccccccccccccccccccccc" />
    <circle
       style="fill:none;fill-opacity:1;stroke:#000000;stroke-width:0.1;stroke-miterlimit:4;stroke-dasharray:none;stroke-dashoffset:0;stroke-opacity:1"
       id="circle6799"
       cx="245"
       cy="173.99995"
       r="1" />
    <circle
       r="1"
       cy="173.99995"
       cx="253"
       id="circle6801"
       style="fill:none;fill-opacity:1;stroke:#000000;stroke-width:0.1;stroke-miterlimit:4;stroke-dasharray:none;stroke-dashoffset:0;stroke-opacity:1" />
    <path
       inkscape:connector-curvature="0"
       id="path6868"
       d="m 261.99989,415.00037 v 2.99982 h -2.99982 v 3.99976 h 2.99982 v 3.00033 h 12.00031 v -3.00033 h 2.99982 v -3.99976 h -2.99982 v -2.99982 z m 2.00038,3.99976 a 1,1 0 0 1 0.99994,0.99994 1,1 0 0 1 -0.99994,0.99994 1,1 0 0 1 -0.99994,-0.99994 1,1 0 0 1 0.99994,-0.99994 z m 8.00005,0 a 1,1 0 0 1 0.99994,0.99994 1,1 0 0 1 -0.99994,0.99994 1,1 0 0 1 -0.99994,-0.99994 1,1 0 0 1 0.99994,-0.99994 z"
       style="fill:none;fill-opacity:1;stroke:#000000;stroke-width:0.1;stroke-miterlimit:4;stroke-dasharray:none;stroke-dashoffset:0;stroke-opacity:1" />
    <path
       style="fill:none;fill-opacity:1;stroke:#000000;stroke-width:0.1;stroke-miterlimit:4;stroke-dasharray:none;stroke-dashoffset:0;stroke-opacity:1"
       d="m 261.99989,405.00037 v 2.99982 h -2.99982 v 3.99976 h 2.99982 v 3.00033 h 12.00031 v -3.00033 h 2.99982 v -3.99976 h -2.99982 v -2.99982 z m 2.00038,3.99976 a 1,1 0 0 1 0.99994,0.99994 1,1 0 0 1 -0.99994,0.99994 1,1 0 0 1 -0.99994,-0.99994 1,1 0 0 1 0.99994,-0.99994 z m 8.00005,0 a 1,1 0 0 1 0.99994,0.99994 1,1 0 0 1 -0.99994,0.99994 1,1 0 0 1 -0.99994,-0.99994 1,1 0 0 1 0.99994,-0.99994 z"
       id="path6870"
       inkscape:connector-curvature="0" />
    <path
       inkscape:connector-curvature="0"
       id="path6872"
       d="m 261.99989,395.00037 v 2.99982 h -2.99982 v 3.99976 h 2.99982 v 3.00033 h 12.00031 v -3.00033 h 2.99982 v -3.99976 h -2.99982 v -2.99982 z m 2.00038,3.99976 a 1,1 0 0 1 0.99994,0.99994 1,1 0 0 1 -0.99994,0.99994 1,1 0 0 1 -0.99994,-0.99994 1,1 0 0 1 0.99994,-0.99994 z m 8.00005,0 a 1,1 0 0 1 0.99994,0.99994 1,1 0 0 1 -0.99994,0.99994 1,1 0 0 1 -0.99994,-0.99994 1,1 0 0 1 0.99994,-0.99994 z"
       style="fill:none;fill-opacity:1;stroke:#000000;stroke-width:0.1;stroke-miterlimit:4;stroke-dasharray:none;stroke-dashoffset:0;stroke-opacity:1" />
    <path
       style="fill:none;fill-opacity:1;stroke:#000000;stroke-width:0.1;stroke-miterlimit:4;stroke-dasharray:none;stroke-dashoffset:0;stroke-opacity:1"
       d="m 258.99978,397.99964 h -2.99982 v -2.99982 h -3.99976 v 2.99982 h -3.00033 v 12.00031 h 3.00033 v 2.99982 h 3.99976 v -2.99982 h 2.99982 z m -3.99976,2.00038 a 1,1 0 0 1 -0.99994,0.99994 1,1 0 0 1 -0.99994,-0.99994 1,1 0 0 1 0.99994,-0.99994 1,1 0 0 1 0.99994,0.99994 z m 0,8.00005 a 1,1 0 0 1 -0.99994,0.99994 1,1 0 0 1 -0.99994,-0.99994 1,1 0 0 1 0.99994,-0.99994 1,1 0 0 1 0.99994,0.99994 z"
       id="path6874"
       inkscape:connector-curvature="0" />
    <path
       inkscape:connector-curvature="0"
       id="path6878"
       d="m 258.99978,419.99964 h -2.99982 v -2.99982 h -3.99976 v 2.99982 h -3.00033 v 12.00031 h 3.00033 v 2.99982 h 3.99976 v -2.99982 h 2.99982 z m -3.99976,2.00038 a 1,1 0 0 1 -0.99994,0.99994 1,1 0 0 1 -0.99994,-0.99994 1,1 0 0 1 0.99994,-0.99994 1,1 0 0 1 0.99994,0.99994 z m 0,8.00005 a 1,1 0 0 1 -0.99994,0.99994 1,1 0 0 1 -0.99994,-0.99994 1,1 0 0 1 0.99994,-0.99994 1,1 0 0 1 0.99994,0.99994 z"
       style="fill:none;fill-opacity:1;stroke:#000000;stroke-width:0.1;stroke-miterlimit:4;stroke-dasharray:none;stroke-dashoffset:0;stroke-opacity:1" />
    <path
       style="fill:none;fill-opacity:1;stroke:#000000;stroke-width:0.1;stroke-miterlimit:4;stroke-dasharray:none;stroke-dashoffset:0;stroke-opacity:1"
       d="m 198.99976,412.99952 h -2.99982 v -2.99982 h -3.99976 v 2.99982 h -3.00033 v 12.00031 h 3.00033 v 2.99982 h 3.99976 v -2.99982 h 2.99982 z M 195,414.9999 a 1,1 0 0 1 -0.99994,0.99994 1,1 0 0 1 -0.99994,-0.99994 1,1 0 0 1 0.99994,-0.99994 A 1,1 0 0 1 195,414.9999 Z m 0,8.00005 a 1,1 0 0 1 -0.99994,0.99994 1,1 0 0 1 -0.99994,-0.99994 1,1 0 0 1 0.99994,-0.99994 1,1 0 0 1 0.99994,0.99994 z"
       id="path6880"
       inkscape:connector-curvature="0" />
    <path
       inkscape:connector-curvature="0"
       id="path6882"
       d="m 210,409.9999 h -2.99982 v -2.99982 h -3.99976 v 2.99982 h -3.00033 v 12.00031 h 3.00033 v 2.99982 h 3.99976 v -2.99982 H 210 Z m -3.99976,2.00038 a 1,1 0 0 1 -0.99994,0.99994 1,1 0 0 1 -0.99994,-0.99994 1,1 0 0 1 0.99994,-0.99994 1,1 0 0 1 0.99994,0.99994 z m 0,8.00005 a 1,1 0 0 1 -0.99994,0.99994 1,1 0 0 1 -0.99994,-0.99994 1,1 0 0 1 0.99994,-0.99994 1,1 0 0 1 0.99994,0.99994 z"
       style="fill:none;fill-opacity:1;stroke:#000000;stroke-width:0.1;stroke-miterlimit:4;stroke-dasharray:none;stroke-dashoffset:0;stroke-opacity:1" />
    <path
       inkscape:connector-curvature="0"
       id="path6884"
       d="M 202.99982,397.99977 H 200 v -2.99982 h -3.99976 v 2.99982 h -3.00033 v 12.00031 h 3.00033 v 2.99982 H 200 v -2.99982 h 2.99982 z m -3.99976,2.00038 a 1,1 0 0 1 -0.99994,0.99994 1,1 0 0 1 -0.99994,-0.99994 1,1 0 0 1 0.99994,-0.99994 1,1 0 0 1 0.99994,0.99994 z m 0,8.00005 a 1,1 0 0 1 -0.99994,0.99994 1,1 0 0 1 -0.99994,-0.99994 1,1 0 0 1 0.99994,-0.99994 1,1 0 0 1 0.99994,0.99994 z"
       style="fill:none;fill-opacity:1;stroke:#000000;stroke-width:0.1;stroke-miterlimit:4;stroke-dasharray:none;stroke-dashoffset:0;stroke-opacity:1" />
    <path
       style="fill:none;fill-opacity:1;stroke:#000000;stroke-width:0.1;stroke-miterlimit:4;stroke-dasharray:none;stroke-dashoffset:0;stroke-opacity:1"
       d="m 206,394.99999 v 2.99982 h -2.99982 v 3.99976 H 206 v 3.00033 h 12.00031 v -3.00033 h 2.99982 v -3.99976 h -2.99982 v -2.99982 z m 2.00038,3.99976 a 1,1 0 0 1 0.99994,0.99994 1,1 0 0 1 -0.99994,0.99994 1,1 0 0 1 -0.99994,-0.99994 1,1 0 0 1 0.99994,-0.99994 z m 8.00005,0 a 1,1 0 0 1 0.99994,0.99994 1,1 0 0 1 -0.99994,0.99994 1,1 0 0 1 -0.99994,-0.99994 1,1 0 0 1 0.99994,-0.99994 z"
       id="path6886"
       inkscape:connector-curvature="0" />
    <circle
       style="fill:none;fill-opacity:1;stroke:#000000;stroke-width:0.1;stroke-miterlimit:4;stroke-dasharray:none;stroke-dashoffset:0;stroke-opacity:1"
       id="path6888"
       cx="175.66737"
       cy="456.37204"
       r="2" />
    <circle
       style="fill:none;fill-opacity:1;stroke:#000000;stroke-width:0.1;stroke-miterlimit:4;stroke-dasharray:none;stroke-dashoffset:0;stroke-opacity:1"
       id="path6890"
       cx="175.66737"
       cy="456.37204"
       r="1" />
    <circle
       r="2"
       cy="456.37204"
       cx="181.66737"
       id="circle6910"
       style="fill:none;fill-opacity:1;stroke:#000000;stroke-width:0.1;stroke-miterlimit:4;stroke-dasharray:none;stroke-dashoffset:0;stroke-opacity:1" />
    <circle
       r="1"
       cy="456.37204"
       cx="181.66737"
       id="circle6912"
       style="fill:none;fill-opacity:1;stroke:#000000;stroke-width:0.1;stroke-miterlimit:4;stroke-dasharray:none;stroke-dashoffset:0;stroke-opacity:1" />
    <circle
       r="2"
       cy="462.37204"
       cx="175.66737"
       id="circle6916"
       style="fill:none;fill-opacity:1;stroke:#000000;stroke-width:0.1;stroke-miterlimit:4;stroke-dasharray:none;stroke-dashoffset:0;stroke-opacity:1" />
    <circle
       r="1"
       cy="462.37204"
       cx="175.66737"
       id="circle6918"
       style="fill:none;fill-opacity:1;stroke:#000000;stroke-width:0.1;stroke-miterlimit:4;stroke-dasharray:none;stroke-dashoffset:0;stroke-opacity:1" />
    <circle
       style="fill:none;fill-opacity:1;stroke:#000000;stroke-width:0.1;stroke-miterlimit:4;stroke-dasharray:none;stroke-dashoffset:0;stroke-opacity:1"
       id="circle6922"
       cx="181.66737"
       cy="462.37204"
       r="2" />
    <circle
       style="fill:none;fill-opacity:1;stroke:#000000;stroke-width:0.1;stroke-miterlimit:4;stroke-dasharray:none;stroke-dashoffset:0;stroke-opacity:1"
       id="circle6924"
       cx="181.66737"
       cy="462.37204"
       r="1" />
    <circle
       r="2"
       cy="468.37204"
       cx="175.66737"
       id="circle6928"
       style="fill:none;fill-opacity:1;stroke:#000000;stroke-width:0.1;stroke-miterlimit:4;stroke-dasharray:none;stroke-dashoffset:0;stroke-opacity:1" />
    <circle
       r="1"
       cy="468.37204"
       cx="175.66737"
       id="circle6930"
       style="fill:none;fill-opacity:1;stroke:#000000;stroke-width:0.1;stroke-miterlimit:4;stroke-dasharray:none;stroke-dashoffset:0;stroke-opacity:1" />
    <circle
       style="fill:none;fill-opacity:1;stroke:#000000;stroke-width:0.1;stroke-miterlimit:4;stroke-dasharray:none;stroke-dashoffset:0;stroke-opacity:1"
       id="circle6934"
       cx="181.66737"
       cy="468.37204"
       r="2" />
    <circle
       style="fill:none;fill-opacity:1;stroke:#000000;stroke-width:0.1;stroke-miterlimit:4;stroke-dasharray:none;stroke-dashoffset:0;stroke-opacity:1"
       id="circle6936"
       cx="181.66737"
       cy="468.37204"
       r="1" />
    <circle
       style="fill:none;fill-opacity:1;stroke:#000000;stroke-width:0.1;stroke-miterlimit:4;stroke-dasharray:none;stroke-dashoffset:0;stroke-opacity:1"
       id="circle6940"
       cx="175.66737"
       cy="474.37204"
       r="2" />
    <circle
       style="fill:none;fill-opacity:1;stroke:#000000;stroke-width:0.1;stroke-miterlimit:4;stroke-dasharray:none;stroke-dashoffset:0;stroke-opacity:1"
       id="circle6942"
       cx="175.66737"
       cy="474.37204"
       r="1" />
    <circle
       r="2"
       cy="474.37204"
       cx="181.66737"
       id="circle6946"
       style="fill:none;fill-opacity:1;stroke:#000000;stroke-width:0.1;stroke-miterlimit:4;stroke-dasharray:none;stroke-dashoffset:0;stroke-opacity:1" />
    <circle
       r="1"
       cy="474.37204"
       cx="181.66737"
       id="circle6948"
       style="fill:none;fill-opacity:1;stroke:#000000;stroke-width:0.1;stroke-miterlimit:4;stroke-dasharray:none;stroke-dashoffset:0;stroke-opacity:1" />
    <circle
       style="fill:none;fill-opacity:1;stroke:#000000;stroke-width:0.1;stroke-miterlimit:4;stroke-dasharray:none;stroke-dashoffset:0;stroke-opacity:1"
       id="path6952"
       cx="190.6674"
       cy="456.37204"
       r="5" />
    <circle
       style="fill:none;fill-opacity:1;stroke:#000000;stroke-width:0.1;stroke-miterlimit:4;stroke-dasharray:none;stroke-dashoffset:0;stroke-opacity:1"
       id="path6954"
       cx="190.6674"
       cy="456.37204"
       r="1" />
    <circle
       style="fill:none;fill-opacity:1;stroke:#000000;stroke-width:0.1;stroke-miterlimit:4;stroke-dasharray:none;stroke-dashoffset:0;stroke-opacity:1"
       id="path7021"
       cx="140.49998"
       cy="371.99994"
       r="1" />
    <circle
       style="fill:none;fill-opacity:1;stroke:#000000;stroke-width:0.1;stroke-miterlimit:4;stroke-dasharray:none;stroke-dashoffset:0;stroke-opacity:1"
       id="path7025"
       cx="136.5"
       cy="338.99994"
       r="1" />
    <rect
       style="fill:none;fill-opacity:1;stroke:#000000;stroke-width:0.1;stroke-miterlimit:4;stroke-dasharray:none;stroke-dashoffset:0;stroke-opacity:1"
       id="rect1061"
       width="6"
       height="3"
       x="230"
       y="422.99994" />
    <rect
       style="fill:none;fill-opacity:1;stroke:#000000;stroke-width:0.1;stroke-miterlimit:4;stroke-dasharray:none;stroke-dashoffset:0;stroke-opacity:1"
       id="rect1063"
       width="26"
       height="8.4999695"
       x="146"
       y="399.49997" />
    <rect
       style="fill:none;fill-opacity:1;stroke:#000000;stroke-width:0.1;stroke-miterlimit:4;stroke-dasharray:none;stroke-dashoffset:0;stroke-opacity:1"
       id="rect1067"
       width="8"
       height="22.5"
       x="164"
       y="392.49997" />
    <text
       xml:space="preserve"
       style="font-style:normal;font-weight:normal;font-size:4.23333311px;line-height:1.25;font-family:sans-serif;letter-spacing:0px;word-spacing:0px;fill:#000000;fill-opacity:1;stroke:none;stroke-width:0.26458332"
       x="-36"
       y="504.99997"
       id="text1071"><tspan
         sodipodi:role="line"
         id="tspan1069"
         x="-36"
         y="504.99997"
         style="stroke-width:0.26458332">update 3</tspan><tspan
         sodipodi:role="line"
         x="-36"
         y="510.29163"
         style="stroke-width:0.26458332"
         id="tspan1073" /></text>
    <path
       style="fill:none;fill-opacity:1;stroke:#000000;stroke-width:0.1;stroke-miterlimit:4;stroke-dasharray:none;stroke-opacity:1"
       d="M -4,626.99979 H -7.00032 V 615 h -22.49993 v 11.99979 h -2.99982 v 14.00018 h 2.99982 v 16.00005 h -2.99982 v 13.99966 h 2.99982 v 4.00029 h 7.00061 v -17.99995 h 8.49974 v 17.99995 h 6.99958 v -4.00029 H -4 V 657.00002 H -7.00032 V 640.99997 H -4 Z M -8.00026,649 c 8e-5,0.82836 -0.6713,1.49997 -1.49966,1.50016 -0.82857,9e-5 -1.50027,-0.67161 -1.50016,-1.50016 -1.1e-4,-0.82857 0.67159,-1.50026 1.50016,-1.50017 0.82836,1.9e-4 1.49974,0.67181 1.49966,1.50017 z m -6.49986,-20.24993 c -2.1e-4,2.07079 -1.67886,3.74944 -3.74965,3.74964 -2.071,9e-5 -3.74997,-1.67865 -3.75015,-3.74964 -8e-5,-2.07119 1.67897,-3.75025 3.75015,-3.75016 2.071,2e-4 3.74973,1.67917 3.74965,3.75016 z M -25.49999,649 c 1.1e-4,0.82855 -0.67159,1.50025 -1.50016,1.50016 -0.82836,-1.9e-4 -1.49974,-0.6718 -1.49963,-1.50016 -1.1e-4,-0.82836 0.67127,-1.49998 1.49963,-1.50017 0.82857,-9e-5 1.50027,0.6716 1.50016,1.50017 z"
       id="path1077"
       inkscape:connector-curvature="0" />
    <path
       inkscape:connector-curvature="0"
       id="path1082"
       d="m 211.99979,662.49972 v 3.00032 H 200 v 22.49993 h 11.99979 v 2.99982 h 14.00018 v -2.99982 h 16.00005 v 2.99982 h 13.99966 v -2.99982 h 4.00029 v -7.00061 h -17.99995 v -8.49974 h 17.99995 v -6.99958 h -4.00029 v -3.00032 h -13.99966 v 3.00032 h -16.00005 v -3.00032 z M 234,666.49998 c 0.82836,-8e-5 1.49997,0.6713 1.50016,1.49966 9e-5,0.82857 -0.67161,1.50027 -1.50016,1.50016 -0.82857,1.1e-4 -1.50026,-0.67159 -1.50017,-1.50016 1.9e-4,-0.82836 0.67181,-1.49974 1.50017,-1.49966 z m -20.24993,6.49986 c 2.07079,2.1e-4 3.74944,1.67886 3.74964,3.74965 9e-5,2.071 -1.67865,3.74997 -3.74964,3.75015 -2.07119,8e-5 -3.75025,-1.67897 -3.75016,-3.75015 2e-4,-2.071 1.67917,-3.74973 3.75016,-3.74965 z M 234,683.99971 c 0.82855,-1.1e-4 1.50025,0.67159 1.50016,1.50016 -1.9e-4,0.82836 -0.6718,1.49974 -1.50016,1.49963 -0.82836,1.1e-4 -1.49998,-0.67127 -1.50017,-1.49963 -9e-5,-0.82857 0.6716,-1.50027 1.50017,-1.50016 z"
       style="fill:none;fill-opacity:1;stroke:#000000;stroke-width:0.1;stroke-miterlimit:4;stroke-dasharray:none;stroke-opacity:1" />
    <path
       style="fill:none;fill-opacity:1;stroke:#000000;stroke-width:0.1;stroke-miterlimit:4;stroke-dasharray:none;stroke-opacity:1"
       d="m 2.5999999e-4,589.00004 v 85.99993 H 199 v -8.99999 -3.99973 -3.00035 h 57.00064 v -3.99976 h -26.00047 v -3.00032 h 26.00047 v -39.99963 h -26.00047 v -3.00035 h 26.00047 v -3.99973 H 199 V 601.99976 598 589.00004 Z M 9.000226,597.50031 c 0.82835,-1.3e-4 1.499963,0.67128 1.500167,1.49963 9e-5,0.82855 -0.671611,1.50027 -1.500167,1.50016 -0.828352,-1.5e-4 -1.49974,-0.6718 -1.49965,-1.50016 2.04e-4,-0.82812 0.671504,-1.49944 1.49965,-1.49963 z m 16.000058,7.4998 h 14.000178 v 2.99982 H 25.000284 Z m 30.000236,0 h 13.999662 v 2.99982 H 55.00052 Z m 179.99985,0.99994 c 0.55224,0 0.99989,0.44768 0.99994,0.99994 2.7e-4,0.55245 -0.44749,1.00042 -0.99994,1.00044 -0.55245,-2e-5 -1.00018,-0.44799 -0.99994,-1.00044 6e-5,-0.55226 0.4477,-0.99994 0.99994,-0.99994 z m 8.00005,0 c 0.55224,0 0.99986,0.44768 0.99994,0.99994 2.4e-4,0.55245 -0.44749,1.00042 -0.99994,1.00044 -0.55245,-2e-5 -1.0002,-0.44799 -0.99994,-1.00044 5e-5,-0.55226 0.4477,-0.99994 0.99994,-0.99994 z m -132.00022,6.00014 c 0.55244,-2.4e-4 1.00043,0.44749 1.00046,0.99994 -3e-5,0.55245 -0.44802,1.00018 -1.00046,0.99994 -0.55224,-3e-5 -0.99991,-0.4477 -0.99994,-0.99994 3e-5,-0.55224 0.4477,-0.99991 0.99994,-0.99994 z m 39.00021,0 c 0.55224,3e-5 0.99991,0.4477 0.99994,0.99994 -3e-5,0.55224 -0.4477,0.99991 -0.99994,0.99994 -0.55224,-3e-5 -0.99991,-0.4477 -0.99994,-0.99994 3e-5,-0.55224 0.4477,-0.99991 0.99994,-0.99994 z M 2.500366,618.00033 h 2.999817 v 9.99993 H 2.500366 Z m 84.00004,0 h 2.999814 v 9.99993 h -2.999814 z m -78.500117,1.99988 h 4.999694 V 644.0003 H 8.000289 Z m 70.999799,0 H 84.0003 v 24.00009 h -5.000212 z m 144.000502,2.99982 h 31.99961 v 17.99995 h -31.99961 z m -51.0005,3.00035 h 30.00023 v 11.99978 h -30.00023 z m -45.50006,1.99988 a 1,1 0 0 1 1.00046,0.99991 1,1 0 0 1 -1.00046,0.99994 1,1 0 0 1 -0.99994,-0.99994 1,1 0 0 1 0.99994,-0.99991 z M 4.000533,631.00005 c 0.552235,3e-5 0.999905,0.4477 0.999937,0.99994 -3.2e-5,0.55224 -0.447702,0.99992 -0.999937,0.99994 -0.552239,-2e-5 -0.999906,-0.4477 -0.99994,-0.99994 3.4e-5,-0.55224 0.447701,-0.99991 0.99994,-0.99994 z m 84.000037,0 c 0.55224,3e-5 0.99991,0.4477 0.99994,0.99994 -3e-5,0.55224 -0.4477,0.99992 -0.99994,0.99994 -0.55224,-2e-5 -0.9999,-0.4477 -0.99994,-0.99994 4e-5,-0.55224 0.4477,-0.99991 0.99994,-0.99994 z m -85.500204,5.00023 h 2.999817 v 9.9999 H 2.500366 Z m 84.00004,0 h 2.999814 v 9.9999 h -2.999814 z m -61.500122,19.9998 h 14.000178 v 2.99982 H 25.000284 Z m 30.000236,0 h 13.999662 v 2.99982 H 55.00052 Z m 179.99985,0 c 0.55224,3e-5 0.99992,0.4477 0.99994,0.99994 -2e-5,0.55224 -0.4477,0.99992 -0.99994,0.99994 -0.55224,-2e-5 -0.99988,-0.4477 -0.99994,-0.99994 6e-5,-0.55224 0.4477,-0.99991 0.99994,-0.99994 z m 8.00005,0 c 0.55224,3e-5 0.99991,0.4477 0.99994,0.99994 -3e-5,0.55224 -0.4477,0.99992 -0.99994,0.99994 -0.55224,-2e-5 -0.99994,-0.4477 -0.99994,-0.99994 0,-0.55224 0.4477,-0.99991 0.99994,-0.99994 z m -112.50012,5.00023 a 1,1 0 0 1 0.99994,0.99994 1,1 0 0 1 -0.99994,0.99994 1,1 0 0 1 -0.99994,-0.99994 1,1 0 0 1 0.99994,-0.99994 z m -121.500074,2.5001 c 0.82835,-8e-5 1.499963,0.6708 1.500167,1.49913 1.03e-4,0.82857 -0.6716,1.5008 -1.500167,1.50069 -0.828362,-1.8e-4 -1.499753,-0.67231 -1.49965,-1.50069 2.04e-4,-0.82815 0.671504,-1.49892 1.49965,-1.49913 z"
       id="path1088"
       inkscape:connector-curvature="0" />
    <path
       id="path1100"
       d="m -40.000071,679.00004 v 85.99993 H 52 v -15.58719 c -0.16057,0.0573 -0.329736,0.0868 -0.500229,0.0873 -0.828556,9e-5 -1.500257,-0.6716 -1.500169,-1.50016 -8.8e-5,-0.82856 0.671613,-1.50025 1.500169,-1.50016 0.170521,6.2e-4 0.339689,0.0303 0.500229,0.0878 v -49.1753 c -0.160534,0.0575 -0.329702,0.0873 -0.500229,0.0879 -0.828567,9e-5 -1.500274,-0.67162 -1.500169,-1.50019 -8.8e-5,-0.82856 0.671613,-1.50025 1.500169,-1.50016 0.170527,6.5e-4 0.339695,0.0304 0.500229,0.0879 v -15.58769 z m 8.999968,8.50024 c 0.828353,-8e-5 1.499974,0.6713 1.500167,1.49966 9.5e-5,0.82854 -0.671611,1.50027 -1.500167,1.50016 -0.828357,-1.8e-4 -1.499745,-0.6718 -1.49965,-1.50016 1.93e-4,-0.82815 0.671497,-1.49945 1.49965,-1.49966 z m 61.999833,6.99958 c 0.828555,-9e-5 1.500255,0.67161 1.500167,1.50016 1.05e-4,0.82857 -0.6716,1.50028 -1.500167,1.50019 -0.828566,9e-5 -1.500271,-0.67162 -1.500166,-1.50019 -8.8e-5,-0.82855 0.671612,-1.50025 1.500166,-1.50016 z m 5.00021,0.50022 c 0.552238,3e-5 0.999907,0.4477 0.99994,0.99994 -3.3e-5,0.55224 -0.447702,0.99991 -0.99994,0.99994 -0.552237,-3e-5 -0.999904,-0.4477 -0.999937,-0.99994 3.3e-5,-0.55224 0.4477,-0.99991 0.999937,-0.99994 z m -50.999985,7e-5 h 14.000178 v 2.99982 h -14.000178 z m 30.000234,0 h 13.999662 v 2.99982 H 15.000189 Z m -52.500154,13.00018 h 2.999817 v 9.9999 h -2.999817 z m 84.00004,0 h 2.999817 v 9.9999 h -2.999817 z m -82.499874,12.99972 c 0.552239,3e-5 0.999908,0.4477 0.99994,0.99994 -3.2e-5,0.55224 -0.447701,0.99991 -0.99994,0.99994 -0.552235,-3e-5 -0.999905,-0.4477 -0.999937,-0.99994 3.2e-5,-0.55224 0.447702,-0.99991 0.999937,-0.99994 z m 84.00004,0 c 0.552239,3e-5 0.999908,0.4477 0.99994,0.99994 -3.2e-5,0.55224 -0.447701,0.99991 -0.99994,0.99994 -0.552238,-3e-5 -0.999905,-0.4477 -0.999937,-0.99994 3.2e-5,-0.55224 0.447699,-0.99991 0.999937,-0.99994 z m -85.500206,5.00023 h 2.999817 v 9.9999 h -2.999817 z m 84.00004,0 h 2.999817 v 9.9999 h -2.999817 z m -61.50012,19.99969 h 14.000178 v 2.99982 h -14.000178 z m 30.000234,0 h 13.999662 v 2.99982 H 15.000189 Z m 15.999541,0.49983 c 0.828555,-9e-5 1.500255,0.67161 1.500167,1.50016 8.8e-5,0.82855 -0.671612,1.50025 -1.500167,1.50016 -0.828554,9e-5 -1.500254,-0.67161 -1.500166,-1.50016 -8.8e-5,-0.82855 0.671612,-1.50025 1.500166,-1.50016 z m 5.00021,0.50022 c 0.552238,3e-5 0.999907,0.4477 0.99994,0.99994 -3.3e-5,0.55224 -0.447702,0.99991 -0.99994,0.99994 -0.552237,-3e-5 -0.999904,-0.4477 -0.999937,-0.99994 3.3e-5,-0.55224 0.4477,-0.99991 0.999937,-0.99994 z m -67.000043,6.49986 c 0.828353,-8e-5 1.499974,0.6713 1.500167,1.49966 8.7e-5,0.82854 -0.671616,1.50024 -1.500167,1.50016 -0.828352,-1.9e-4 -1.499737,-0.67183 -1.49965,-1.50016 1.93e-4,-0.82815 0.671497,-1.49948 1.49965,-1.49966 z"
       style="fill:none;fill-opacity:1;stroke:#000000;stroke-width:0.1;stroke-miterlimit:4;stroke-dasharray:none;stroke-opacity:1"
       inkscape:connector-curvature="0"
       sodipodi:nodetypes="ccccccccccccccccccccccccccccccccccccccccccccccccccccccccccccccccccccccccccccccccccccccccccccccc" />
    <path
       style="fill:none;fill-opacity:1;stroke:#000000;stroke-width:0.1;stroke-miterlimit:4;stroke-dasharray:none;stroke-opacity:1"
       d="m 54,679.00007 v 85.9999 h 144.99994 v -8.99996 -3.99976 -3.00032 h 57.00064 v -3.99976 h -26.00047 v -3.00035 h 26.00047 v -39.9996 h -26.00047 v -3.00035 h 26.00047 v -3.99976 h -57.00064 v -3.00032 -3.99976 -8.99996 z m 8.999966,8.50024 c 0.82835,-10e-5 1.499963,0.6713 1.500166,1.49966 9e-5,0.82854 -0.67161,1.50024 -1.500166,1.50016 -0.828352,-1.8e-4 -1.49974,-0.6718 -1.49965,-1.50016 2.03e-4,-0.82815 0.671504,-1.49947 1.49965,-1.49966 z m 16.000058,7.4998 h 14.000178 v 2.99982 H 79.000024 Z m 30.000236,0 h 13.99966 v 2.99982 h -13.99966 z m 126.00005,0.99994 c 0.55224,3e-5 0.99988,0.4477 0.99994,0.99994 2.6e-4,0.55245 -0.44749,1.00044 -0.99994,1.00047 -0.55245,-3e-5 -1.00018,-0.44802 -0.99994,-1.00047 5e-5,-0.55224 0.4477,-0.99991 0.99994,-0.99994 z m 8.00005,0 c 0.55223,3e-5 0.99986,0.4477 0.99993,0.99994 2.4e-4,0.55245 -0.44748,1.00044 -0.99993,1.00047 -0.55245,-3e-5 -1.00021,-0.44802 -0.99994,-1.00047 5e-5,-0.55224 0.4477,-0.99991 0.99994,-0.99994 z m -50.00006,9.50021 h 2.99982 v 7.00008 h -2.99982 z m -136.500194,2.5001 h 2.999817 v 9.9999 h -2.999817 z m 84.000034,0 h 2.99982 v 9.9999 h -2.99982 z m -78.500111,1.99988 h 4.999693 v 24.00009 h -4.999693 z m 70.999801,0 h 5.00021 v 24.00009 h -5.00021 z m 90.0007,2.99982 h 31.99961 v 17.99992 h -31.99961 z m -165.000258,8.00002 c 0.552236,3e-5 0.999908,0.4477 0.99994,0.99994 -3.2e-5,0.55224 -0.447704,0.99991 -0.99994,0.99994 -0.552238,-3e-5 -0.999905,-0.4477 -0.999939,-0.99994 3.4e-5,-0.55224 0.447701,-0.99991 0.999939,-0.99994 z m 84.000038,0 c 0.55224,3e-5 0.99991,0.4477 0.99994,0.99994 -3e-5,0.55224 -0.4477,0.99991 -0.99994,0.99994 -0.55224,-3e-5 -0.9999,-0.4477 -0.99994,-0.99994 4e-5,-0.55224 0.4477,-0.99991 0.99994,-0.99994 z m -85.500204,5.0002 h 2.999817 v 9.99993 h -2.999817 z m 84.000034,0 h 2.99982 v 9.99993 h -2.99982 z m 52.50016,5.49995 h 2.99982 v 7.00008 H 193.0003 Z M 79.000024,746.00011 h 14.000178 v 2.99982 H 79.000024 Z m 30.000236,0 h 13.99966 v 2.99982 h -13.99966 z m 126.00005,0 c 0.55224,2e-5 0.99991,0.4477 0.99994,0.99994 -3e-5,0.55224 -0.4477,0.99991 -0.99994,0.99994 -0.55224,-3e-5 -0.99989,-0.4477 -0.99994,-0.99994 5e-5,-0.55224 0.4477,-0.99992 0.99994,-0.99994 z m 8.00005,0 c 0.55223,2e-5 0.99991,0.4477 0.99993,0.99994 -2e-5,0.55224 -0.4477,0.99991 -0.99993,0.99994 -0.55224,-3e-5 -0.99994,-0.4477 -0.99994,-0.99994 0,-0.55224 0.4477,-0.99992 0.99994,-0.99994 z m -180.000394,7.4998 c 0.82835,-8e-5 1.499963,0.67133 1.500166,1.49966 1.04e-4,0.82857 -0.671599,1.50026 -1.500166,1.50016 -0.828363,-1.9e-4 -1.499754,-0.67178 -1.49965,-1.50016 2.03e-4,-0.82815 0.671504,-1.49945 1.49965,-1.49966 z"
       id="path1120"
       inkscape:connector-curvature="0" />
    <path
       style="fill:none;fill-opacity:1;stroke:#000000;stroke-width:0.1;stroke-miterlimit:4;stroke-dasharray:none;stroke-dashoffset:0;stroke-opacity:1"
       d="m -4,588.99988 h -7.00008 v 8.00002 h -18.99989 v -8.00002 h -7.00008 v 8.00002 16.00007 H -4 V 596.9999 Z m -3.000319,2.99982 a 1,1 0 0 1 -0.999941,0.99994 1,1 0 0 1 -0.99994,-0.99994 1,1 0 0 1 0.99994,-0.99994 1,1 0 0 1 0.999941,0.99994 z m -11.49956,15.0001 c 8e-5,1.38081 -1.11932,2.50018 -2.5001,2.50013 -1.38081,5e-5 -2.50018,-1.11932 -2.5001,-2.50013 -1.1e-4,-1.38081 1.11929,-2.50015 2.5001,-2.5001 1.38081,-5e-5 2.50018,1.11929 2.5001,2.5001 z M -31.99982,591.9997 a 1,1 0 0 1 -1.000469,0.99994 1,1 0 0 1 -0.99994,-0.99994 1,1 0 0 1 0.99994,-0.99994 1,1 0 0 1 1.000469,0.99994 z"
       id="rect1146"
       inkscape:connector-curvature="0" />
    <text
       xml:space="preserve"
       style="font-style:normal;font-weight:normal;font-size:4.23333311px;line-height:1.25;font-family:sans-serif;letter-spacing:0px;word-spacing:0px;fill:#000000;fill-opacity:1;stroke:none;stroke-width:0.26458332"
       x="-52"
       y="800.99994"
       id="text1190"><tspan
         sodipodi:role="line"
         id="tspan1188"
         x="-52"
         y="800.99994"
         style="stroke-width:0.26458332">update 2020_02_14</tspan></text>
    <path
       inkscape:connector-curvature="0"
       id="path1192"
       d="m -4.00026,846.99972 h -3.00032 v -11.99979 h -22.49993 v 11.99979 h -2.99982 v 14.00018 h 2.99982 v 16.00005 h -2.99982 v 13.99966 h 2.99982 v 4.00029 h 7.00061 v -17.99995 h 8.49974 v 17.99995 h 6.99958 v -4.00029 h 3.00032 V 876.99995 H -7.00058 V 860.9999 h 3.00032 z m -4.00026,22.00021 c 8e-5,0.82836 -0.6713,1.49997 -1.49966,1.50016 -0.82857,9e-5 -1.50027,-0.67161 -1.50016,-1.50016 -1.1e-4,-0.82857 0.67159,-1.50026 1.50016,-1.50017 0.82836,1.9e-4 1.49974,0.67181 1.49966,1.50017 z M -14.50038,848.75 c -2.1e-4,2.07079 -1.67886,3.74944 -3.74965,3.74964 -2.071,9e-5 -3.74997,-1.67865 -3.75015,-3.74964 -8e-5,-2.07119 1.67897,-3.75025 3.75015,-3.75016 2.071,2e-4 3.74973,1.67917 3.74965,3.75016 z m -10.99987,20.24993 c 1.1e-4,0.82855 -0.67159,1.50025 -1.50016,1.50016 -0.82836,-1.9e-4 -1.49974,-0.6718 -1.49963,-1.50016 -1.1e-4,-0.82836 0.67127,-1.49998 1.49963,-1.50017 0.82857,-9e-5 1.50027,0.6716 1.50016,1.50017 z"
       style="fill:none;fill-opacity:1;stroke:#000000;stroke-width:0.1;stroke-miterlimit:4;stroke-dasharray:none;stroke-opacity:1" />
    <path
       style="fill:none;fill-opacity:1;stroke:#000000;stroke-width:0.1;stroke-miterlimit:4;stroke-dasharray:none;stroke-opacity:1"
       d="m 199.99979,882.49965 v 3.00032 H 188 v 22.49993 h 11.99979 v 2.99982 h 14.00018 v -2.99982 h 16.00005 v 2.99982 h 13.99966 v -2.99982 h 4.00029 v -7.00061 h -17.99995 v -8.49974 h 17.99995 v -6.99958 h -4.00029 v -3.00032 h -13.99966 v 3.00032 h -16.00005 v -3.00032 z M 222,886.49991 c 0.82836,-8e-5 1.49997,0.6713 1.50016,1.49966 9e-5,0.82857 -0.67161,1.50027 -1.50016,1.50016 -0.82857,1.1e-4 -1.50026,-0.67159 -1.50017,-1.50016 1.9e-4,-0.82836 0.67181,-1.49974 1.50017,-1.49966 z m -20.24993,6.49986 c 2.07079,2.1e-4 3.74944,1.67886 3.74964,3.74965 9e-5,2.071 -1.67865,3.74997 -3.74964,3.75015 -2.07119,8e-5 -3.75025,-1.67897 -3.75016,-3.75015 2e-4,-2.071 1.67917,-3.74973 3.75016,-3.74965 z M 222,903.99964 c 0.82855,-1.1e-4 1.50025,0.67159 1.50016,1.50016 -1.9e-4,0.82836 -0.6718,1.49974 -1.50016,1.49963 -0.82836,1.1e-4 -1.49998,-0.67127 -1.50017,-1.49963 -9e-5,-0.82857 0.6716,-1.50027 1.50017,-1.50016 z"
       id="path1194"
       inkscape:connector-curvature="0" />
    <path
       style="fill:none;fill-opacity:1;stroke:#000000;stroke-width:0.37795275;stroke-miterlimit:4;stroke-dasharray:none;stroke-opacity:1"
       d="M 407.32227 2959.5586 L 407.32227 3284.5977 L 1102.7539 3284.5977 L 1102.7539 3250.582 L 1102.7539 3235.4648 L 1102.7539 3227.9062 L 1318.1895 3227.9062 L 1318.1895 3205.2285 L 1219.9199 3205.2285 L 1219.9199 3186.3301 L 1318.1895 3186.3301 L 1318.1895 3057.8262 L 1219.9199 3057.8262 L 1219.9199 3038.9297 L 1318.1895 3038.9297 L 1318.1895 3016.252 L 1102.7539 3016.252 L 1102.7539 3008.6914 L 1102.7539 2993.5742 L 1102.7539 2959.5586 L 407.32227 2959.5586 z M 441.33789 2991.6855 C 444.46866 2991.6851 447.00704 2994.2227 447.00781 2997.3535 C 447.00815 3000.485 444.46944 3003.0239 441.33789 3003.0234 C 438.20711 3003.0229 435.66958 3000.4843 435.66992 2997.3535 C 435.67069 2994.2236 438.20789 2991.6863 441.33789 2991.6855 z M 501.81055 3020.0312 L 554.72461 3020.0312 L 554.72461 3031.3691 L 501.81055 3031.3691 L 501.81055 3020.0312 z M 615.19727 3020.0312 L 668.10938 3020.0312 L 668.10938 3031.3691 L 615.19727 3031.3691 L 615.19727 3020.0312 z M 1238.8184 3023.8105 C 1240.9056 3023.8105 1242.5975 3025.5026 1242.5977 3027.5898 C 1242.5987 3029.6778 1240.9064 3031.371 1238.8184 3031.3711 C 1236.7304 3031.371 1235.0382 3029.6778 1235.0391 3027.5898 C 1235.0393 3025.5026 1236.7312 3023.8105 1238.8184 3023.8105 z M 1269.0547 3023.8105 C 1271.1419 3023.8105 1272.8337 3025.5026 1272.834 3027.5898 C 1272.8349 3029.6778 1271.1427 3031.371 1269.0547 3031.3711 C 1266.9667 3031.371 1265.2744 3029.6778 1265.2754 3027.5898 C 1265.2756 3025.5026 1266.9675 3023.8105 1269.0547 3023.8105 z M 826.84961 3046.4883 C 828.93757 3046.4874 830.63075 3048.1796 830.63086 3050.2676 C 830.63075 3052.3556 828.93757 3054.0478 826.84961 3054.0469 C 824.7624 3054.0468 823.07043 3052.3548 823.07031 3050.2676 C 823.07043 3048.1804 824.7624 3046.4884 826.84961 3046.4883 z M 974.25195 3046.4883 C 976.33916 3046.4884 978.03114 3048.1804 978.03125 3050.2676 C 978.03114 3052.3548 976.33916 3054.0468 974.25195 3054.0469 C 972.16475 3054.0468 970.47277 3052.3548 970.47266 3050.2676 C 970.47277 3048.1804 972.16475 3046.4884 974.25195 3046.4883 z M 416.77148 3069.166 L 428.10938 3069.166 L 428.10938 3106.9609 L 416.77148 3106.9609 L 416.77148 3069.166 z M 437.55859 3076.7246 L 456.45508 3076.7246 L 456.45508 3167.4336 L 437.55859 3167.4336 L 437.55859 3076.7246 z M 705.9043 3076.7246 L 724.80273 3076.7246 L 724.80273 3167.4336 L 705.9043 3167.4336 L 705.9043 3076.7246 z M 1193.4648 3088.0625 L 1314.4082 3088.0625 L 1314.4082 3156.0938 L 1193.4648 3156.0938 L 1193.4648 3088.0625 z M 1000.707 3099.4023 L 1114.0938 3099.4023 L 1114.0938 3144.7559 L 1000.707 3144.7559 L 1000.707 3099.4023 z M 885.43164 3106.9609 C 887.51957 3106.96 889.2127 3108.6523 889.21289 3110.7402 C 889.21278 3112.8282 887.5196 3114.5205 885.43164 3114.5195 C 883.34443 3114.5194 881.65246 3112.8274 881.65234 3110.7402 C 881.65253 3108.6531 883.34447 3106.9611 885.43164 3106.9609 z M 741.81055 3110.7402 L 764.48633 3110.7402 L 764.48633 3133.418 L 741.81055 3133.418 L 741.81055 3110.7402 z M 422.44141 3118.2988 C 424.52859 3118.2989 426.22058 3119.9909 426.2207 3122.0781 C 426.22058 3124.1653 424.52859 3125.8573 422.44141 3125.8574 C 420.3542 3125.8573 418.66224 3124.1653 418.66211 3122.0781 C 418.66224 3119.9909 420.3542 3118.2989 422.44141 3118.2988 z M 416.77148 3137.1973 L 428.10938 3137.1973 L 428.10938 3174.9922 L 416.77148 3174.9922 L 416.77148 3137.1973 z M 501.81055 3212.7871 L 554.72461 3212.7871 L 554.72461 3224.125 L 501.81055 3224.125 L 501.81055 3212.7871 z M 615.19727 3212.7871 L 668.10938 3212.7871 L 668.10938 3224.125 L 615.19727 3224.125 L 615.19727 3212.7871 z M 1238.8184 3212.7871 C 1240.9056 3212.7872 1242.5976 3214.4792 1242.5977 3216.5664 C 1242.5976 3218.6536 1240.9056 3220.3456 1238.8184 3220.3457 C 1236.7312 3220.3456 1235.0393 3218.6536 1235.0391 3216.5664 C 1235.0393 3214.4792 1236.7312 3212.7872 1238.8184 3212.7871 z M 1269.0547 3212.7871 C 1271.1419 3212.7872 1272.8339 3214.4792 1272.834 3216.5664 C 1272.8339 3218.6536 1271.1419 3220.3456 1269.0547 3220.3457 C 1266.9675 3220.3456 1265.2754 3218.6536 1265.2754 3216.5664 C 1265.2754 3214.4792 1266.9675 3212.7872 1269.0547 3212.7871 z M 900.55078 3231.6855 C 902.63799 3231.6857 904.32996 3233.3776 904.33008 3235.4648 C 904.32996 3237.5521 902.63799 3239.244 900.55078 3239.2441 C 898.46357 3239.244 896.7716 3237.5521 896.77148 3235.4648 C 896.7716 3233.3776 898.46357 3231.6857 900.55078 3231.6855 z M 441.33789 3241.1348 C 444.46866 3241.1345 447.00704 3243.6701 447.00781 3246.8008 C 447.0082 3249.9324 444.46948 3252.4731 441.33789 3252.4727 C 438.20707 3252.472 435.66953 3249.9317 435.66992 3246.8008 C 435.67069 3243.6708 438.20789 3241.1356 441.33789 3241.1348 z "
       transform="matrix(0.26458333,0,0,0.26458333,-107.77056,25.95)"
       id="path1196" />
    <path
       style="fill:none;fill-opacity:1;stroke:#000000;stroke-width:0.37795275;stroke-miterlimit:4;stroke-dasharray:none;stroke-opacity:1"
       d="M 256.13867 3299.7168 L 256.13867 3624.7559 L 603.85547 3624.7559 L 603.85547 3565.8438 C 603.24859 3566.0603 602.60923 3566.1719 601.96484 3566.1738 C 598.83329 3566.1742 596.29459 3563.6355 596.29492 3560.5039 C 596.29459 3557.3723 598.83329 3554.8336 601.96484 3554.834 C 602.60933 3554.8363 603.2487 3554.9487 603.85547 3555.166 L 603.85547 3473.5742 L 592.51953 3473.5742 L 592.51953 3450.8965 L 603.85547 3450.8965 L 603.85547 3369.3066 C 603.24873 3369.524 602.60936 3369.6364 601.96484 3369.6387 C 598.83325 3369.639 596.29453 3367.1004 596.29492 3363.9688 C 596.29459 3360.8372 598.83329 3358.2985 601.96484 3358.2988 C 602.60936 3358.3013 603.24873 3358.4135 603.85547 3358.6309 L 603.85547 3299.7168 L 256.13867 3299.7168 z M 290.1543 3331.8438 C 293.28508 3331.8434 295.82349 3334.3809 295.82422 3337.5117 C 295.82458 3340.6432 293.28585 3343.1821 290.1543 3343.1816 C 287.0235 3343.181 284.48597 3340.6425 284.48633 3337.5117 C 284.48706 3334.3817 287.02427 3331.8445 290.1543 3331.8438 z M 524.48438 3358.2988 C 527.61592 3358.2985 530.15463 3360.8372 530.1543 3363.9688 C 530.15469 3367.1004 527.61597 3369.639 524.48438 3369.6387 C 521.35279 3369.639 518.81406 3367.1004 518.81445 3363.9688 C 518.81412 3360.8372 521.35283 3358.2985 524.48438 3358.2988 z M 350.62695 3360.1895 L 403.54102 3360.1895 L 403.54102 3371.5273 L 350.62695 3371.5273 L 350.62695 3360.1895 z M 464.01367 3360.1895 L 516.92578 3360.1895 L 516.92578 3371.5273 L 464.01367 3371.5273 L 464.01367 3360.1895 z M 543.38281 3360.1895 C 545.47001 3360.1896 547.16198 3361.8815 547.16211 3363.9688 C 547.16198 3366.056 545.47001 3367.7479 543.38281 3367.748 C 541.29562 3367.7479 539.60364 3366.056 539.60352 3363.9688 C 539.60364 3361.8815 541.29562 3360.1896 543.38281 3360.1895 z M 265.58789 3409.3242 L 276.92578 3409.3242 L 276.92578 3447.1191 L 265.58789 3447.1191 L 265.58789 3409.3242 z M 271.25781 3458.457 C 273.34502 3458.4571 275.03699 3460.1491 275.03711 3462.2363 C 275.03699 3464.3235 273.34502 3466.0155 271.25781 3466.0156 C 269.17063 3466.0155 267.47864 3464.3235 267.47852 3462.2363 C 267.47864 3460.1491 269.17063 3458.4571 271.25781 3458.457 z M 265.58789 3477.3555 L 276.92578 3477.3555 L 276.92578 3515.1504 L 265.58789 3515.1504 L 265.58789 3477.3555 z M 350.62695 3552.9453 L 403.54102 3552.9453 L 403.54102 3564.2832 L 350.62695 3564.2832 L 350.62695 3552.9453 z M 464.01367 3552.9453 L 516.92578 3552.9453 L 516.92578 3564.2832 L 464.01367 3564.2832 L 464.01367 3552.9453 z M 524.48438 3554.834 C 527.61592 3554.8336 530.15463 3557.3724 530.1543 3560.5039 C 530.15463 3563.6354 527.61592 3566.1742 524.48438 3566.1738 C 521.35283 3566.1742 518.81412 3563.6354 518.81445 3560.5039 C 518.81412 3557.3724 521.35283 3554.8336 524.48438 3554.834 z M 543.38281 3556.7246 C 545.47001 3556.7247 547.16198 3558.4167 547.16211 3560.5039 C 547.16198 3562.5911 545.47001 3564.2831 543.38281 3564.2832 C 541.29562 3564.2831 539.60364 3562.5911 539.60352 3560.5039 C 539.60364 3558.4167 541.29562 3556.7247 543.38281 3556.7246 z M 290.1543 3581.291 C 293.28508 3581.2907 295.82349 3583.8282 295.82422 3586.959 C 295.82455 3590.0905 293.28583 3592.6292 290.1543 3592.6289 C 287.02352 3592.6282 284.486 3590.0897 284.48633 3586.959 C 284.48706 3583.829 287.02427 3581.2917 290.1543 3581.291 z "
       transform="matrix(0.26458333,0,0,0.26458333,-107.77056,25.95)"
       id="path1198" />
    <path
       inkscape:connector-curvature="0"
       style="fill:none;fill-opacity:1;stroke:#000000;stroke-width:0.1;stroke-miterlimit:4;stroke-dasharray:none;stroke-dashoffset:0;stroke-opacity:1"
       d="m 159.50003,897.99976 v 3.00033 H 156.4997 V 911 h 3.00033 v 2.99981 h 22.49992 V 911 h 2.99982 v -9.99991 h -2.99982 v -3.00033 z"
       id="path1204" />
    <path
       id="path1208"
       d="m 128,897.99976 v 3.00033 h -3.00033 V 911 H 128 v 2.99981 h 22.49992 V 911 h 2.99982 v -9.99991 h -2.99982 v -3.00033 z"
       style="fill:none;fill-opacity:1;stroke:#000000;stroke-width:0.1;stroke-miterlimit:4;stroke-dasharray:none;stroke-dashoffset:0;stroke-opacity:1"
       inkscape:connector-curvature="0" />
    <path
       sodipodi:nodetypes="cccccccccccccccccccccccccccccccccccccccccccccccccccccccccccccccc"
       inkscape:connector-curvature="0"
       id="path1212"
       d="m 131.99984,913.99997 v 70 h 56.0002 v -70 z m 7.00008,7 h 27.99985 v 6 h -27.99985 z m -2.49994,2.00018 c 0.55224,3e-5 0.99991,0.4477 0.99994,0.99994 -3e-5,0.55224 -0.4477,0.99991 -0.99994,0.99994 -0.55224,-3e-5 -0.99991,-0.4477 -0.99994,-0.99994 3e-5,-0.55224 0.4477,-0.99991 0.99994,-0.99994 z m 32.5002,0 c 0.55224,3e-5 0.99991,0.4477 0.99994,0.99994 -3e-5,0.55224 -0.4477,0.99991 -0.99994,0.99994 -0.55244,2.6e-4 -1.00044,-0.4475 -1.00047,-0.99994 3e-5,-0.55244 0.44803,-1.0002 1.00047,-0.99994 z m 9.9999,5.75004 c 0.55221,3e-5 0.99991,0.44767 0.99994,0.99994 0,0.55245 -0.44752,1.00094 -0.99994,1.00097 -0.55264,0 -1.00076,-0.44836 -1.00047,-1.00097 2e-5,-0.55242 0.44802,-1.00021 1.00047,-0.99994 z m -40.00016,3.24978 h 27.99985 v 34 h -27.99985 v -3.99961 l -1.49992,0 v -25.99997 l 1.49992,0 z m 36.99981,8.00018 h 6.00017 v 3.81062 c 1.8542,1.07062 2.99754,3.04868 2.99982,5.18986 2.1e-4,3.31356 -2.68603,5.99941 -5.99964,5.99964 -3.31378,9e-5 -6.00022,-2.6858 -6.00017,-5.99964 0.003,-2.14039 1.14623,-4.11755 2.99982,-5.18779 z m 3.00035,15.50034 1.73167,0.99994 v 1.99988 l -1.73167,0.99994 -1.7322,-0.99994 v -1.99988 z m -40.00016,15.49948 h 27.99985 v 6 h -27.99985 z m -2.49994,2.00023 c 0.55224,3e-5 0.99991,0.4477 0.99994,0.99994 -3e-5,0.55224 -0.4477,0.99991 -0.99994,0.99994 -0.55224,-3e-5 -0.99991,-0.4477 -0.99994,-0.99994 3e-5,-0.55224 0.4477,-0.99991 0.99994,-0.99994 z m 32.5002,0 c 0.55224,3e-5 0.99991,0.4477 0.99994,0.99994 -3e-5,0.55224 -0.4477,0.99991 -0.99994,0.99994 -0.55244,2.6e-4 -1.00044,-0.4475 -1.00047,-0.99994 3e-5,-0.55244 0.44803,-1.0002 1.00047,-0.99994 z"
       style="fill:none;fill-opacity:1;stroke:#000000;stroke-width:0.1;stroke-miterlimit:4;stroke-dasharray:none;stroke-dashoffset:0;stroke-opacity:1" />
    <path
       style="fill:none;fill-opacity:1;stroke:#000000;stroke-width:0.1;stroke-miterlimit:4;stroke-dasharray:none;stroke-dashoffset:0;stroke-opacity:1"
       d="m 76,913.99989 v 69.99986 h 56.0002 v -69.99986 z m 7.000108,7.00008 h 27.999822 v 6.00001 H 83.000108 Z m -2.500101,1.99988 c 0.552238,5e-5 0.999887,0.4477 0.999913,0.99994 -2.6e-5,0.55227 -0.447675,0.99991 -0.999913,0.99994 -0.552265,-3e-5 -0.999914,-0.44767 -0.99994,-0.99994 2.6e-5,-0.55224 0.447675,-0.99989 0.99994,-0.99994 z m 32.500333,0 c 0.55224,5e-5 0.99991,0.4477 0.99994,0.99994 -3e-5,0.55227 -0.4477,0.99991 -0.99994,0.99994 -0.55245,0 -1.00042,-0.44749 -1.00047,-0.99994 5e-5,-0.55242 0.44802,-1.00018 1.00047,-0.99994 z m -30.000232,8.99999 h 27.999822 v 33.99999 H 83.000108 v -3.99976 l -1.500108,0 V 936.0001 l 1.500108,0 z m 33.749882,0 h 12.5 v 25.25014 h -3.24993 v 1.99988 c 0,1.66198 -1.33834,3.00032 -3.00032,3.00032 -1.66201,0 -2.99982,-1.33834 -2.99982,-3.00032 v -1.99988 h -3.24993 z m -33.749882,39.00014 h 27.999822 v 5.99998 H 83.000108 Z m -2.500101,1.99993 c 0.552238,3e-5 0.999887,0.4477 0.999913,0.99994 -2.6e-5,0.55224 -0.447675,0.99991 -0.999913,0.99994 -0.552265,-3e-5 -0.999914,-0.4477 -0.99994,-0.99994 2.6e-5,-0.55224 0.447675,-0.99991 0.99994,-0.99994 z m 32.500333,0 c 0.55224,3e-5 0.99991,0.4477 0.99994,0.99994 -3e-5,0.55224 -0.4477,0.99991 -0.99994,0.99994 -0.55245,0 -1.00042,-0.44749 -1.00047,-0.99994 5e-5,-0.55245 0.44802,-1.00021 1.00047,-0.99994 z"
       id="path1214"
       inkscape:connector-curvature="0"
       sodipodi:nodetypes="cccccccccccccccccccccccccccccccccssscccccccccccccccccc" />
    <path
       style="fill:none;fill-opacity:1;stroke:#000000;stroke-width:0.1;stroke-miterlimit:4;stroke-dasharray:none;stroke-dashoffset:0;stroke-opacity:1"
       d="m 188.99984,913.99997 v 70 h 56.0002 v -70 z m 7.00008,7 h 27.99985 v 6 h -27.99985 z m -2.49994,2.00018 c 0.55224,3e-5 0.99991,0.4477 0.99994,0.99994 -3e-5,0.55224 -0.4477,0.99991 -0.99994,0.99994 -0.55224,-3e-5 -0.99991,-0.4477 -0.99994,-0.99994 3e-5,-0.55224 0.4477,-0.99991 0.99994,-0.99994 z m 32.5002,0 c 0.55224,3e-5 0.99991,0.4477 0.99994,0.99994 -3e-5,0.55224 -0.4477,0.99991 -0.99994,0.99994 -0.55244,2.6e-4 -1.00044,-0.4475 -1.00047,-0.99994 3e-5,-0.55244 0.44803,-1.0002 1.00047,-0.99994 z m 9.9999,5.75004 c 0.55221,3e-5 0.99991,0.44767 0.99994,0.99994 0,0.55245 -0.44752,1.00094 -0.99994,1.00097 -0.55264,0 -1.00076,-0.44836 -1.00047,-1.00097 2e-5,-0.55242 0.44802,-1.00021 1.00047,-0.99994 z m -40.00016,3.24978 h 27.99985 v 34 h -27.99985 v -3.99961 l -1.49992,0 v -25.99997 l 1.49992,0 z m 36.99981,8.00018 h 6.00017 v 3.81062 c 1.8542,1.07062 2.99754,3.04868 2.99982,5.18986 2.1e-4,3.31356 -2.68603,5.99941 -5.99964,5.99964 -3.31378,9e-5 -6.00022,-2.6858 -6.00017,-5.99964 0.003,-2.14039 1.14623,-4.11755 2.99982,-5.18779 z m 3.00035,15.50034 1.73167,0.99994 v 1.99988 l -1.73167,0.99994 -1.7322,-0.99994 v -1.99988 z m -40.00016,15.49948 h 27.99985 v 6 h -27.99985 z m -2.49994,2.00023 c 0.55224,3e-5 0.99991,0.4477 0.99994,0.99994 -3e-5,0.55224 -0.4477,0.99991 -0.99994,0.99994 -0.55224,-3e-5 -0.99991,-0.4477 -0.99994,-0.99994 3e-5,-0.55224 0.4477,-0.99991 0.99994,-0.99994 z m 32.5002,0 c 0.55224,3e-5 0.99991,0.4477 0.99994,0.99994 -3e-5,0.55224 -0.4477,0.99991 -0.99994,0.99994 -0.55244,2.6e-4 -1.00044,-0.4475 -1.00047,-0.99994 3e-5,-0.55244 0.44803,-1.0002 1.00047,-0.99994 z"
       id="path1248"
       inkscape:connector-curvature="0"
       sodipodi:nodetypes="cccccccccccccccccccccccccccccccccccccccccccccccccccccccccccccccc" />
    <path
       style="fill:none;fill-opacity:1;stroke:#000000;stroke-width:0.1;stroke-miterlimit:4;stroke-dasharray:none;stroke-dashoffset:0;stroke-opacity:1"
       d="m 54,898.99997 v 4.99967 h 2.500107 v 3.24993 H 54 v 22.49993 h 1.99988 v 6.00014 c 0,1.108 0.89186,1.99988 1.999877,1.99988 h 1.999879 c 1.108017,0 2.000393,-0.89188 2.000393,-1.99988 v -6.00014 h 1.99988 v -22.49993 -3.24993 -4.99967 z m 6.499863,1.99985 c 0.552238,3e-5 0.999907,0.4477 0.99994,0.99994 -3.3e-5,0.55224 -0.447702,0.99991 -0.99994,0.99994 -0.552238,-3e-5 -0.999907,-0.4477 -0.99994,-0.99994 3.3e-5,-0.55224 0.447702,-0.99991 0.99994,-0.99994 z m -1.500166,32.74994 c 0.552235,5e-5 0.999905,0.4477 0.999939,0.99994 -3.4e-5,0.55224 -0.447704,0.99991 -0.999939,0.99994 -0.552239,-3e-5 -0.999906,-0.4477 -0.99994,-0.99994 3.4e-5,-0.55224 0.447701,-0.99989 0.99994,-0.99994 z"
       id="rect1256"
       inkscape:connector-curvature="0"
       sodipodi:nodetypes="cccccccsssscccccccccccccccc" />
    <path
       id="path1279"
       d="m 65,898.99997 v 4.99967 h 2.500198 v 3.24993 h -2.500106 v 22.49993 h 1.999879 v 6.00014 c 0,1.10799 0.891861,1.99988 1.999877,1.99988 h 1.99988 c 1.108017,0 2.000393,-0.89189 2.000393,-1.99988 V 929.7495 H 75 v -22.49993 -3.24993 -4.99967 z m 6.499954,1.99985 c 0.552238,3e-5 0.999907,0.4477 0.99994,0.99994 -3.3e-5,0.55224 -0.447702,0.99991 -0.99994,0.99994 -0.552237,-3e-5 -0.999906,-0.4477 -0.999939,-0.99994 3.3e-5,-0.55224 0.447702,-0.99991 0.999939,-0.99994 z m -1.500166,32.74994 c 0.552236,5e-5 0.999906,0.4477 0.99994,0.99994 -3.4e-5,0.55224 -0.447704,0.99991 -0.99994,0.99994 -0.552238,-3e-5 -0.999905,-0.4477 -0.99994,-0.99994 3.5e-5,-0.55224 0.447702,-0.99989 0.99994,-0.99994 z"
       style="fill:none;fill-opacity:1;stroke:#000000;stroke-width:0.1;stroke-miterlimit:4;stroke-dasharray:none;stroke-dashoffset:0;stroke-opacity:1"
       inkscape:connector-curvature="0"
       sodipodi:nodetypes="cccccccsssscccccccccccccccc" />
    <text
       xml:space="preserve"
       style="font-style:normal;font-variant:normal;font-weight:normal;font-stretch:normal;font-size:11.28888893px;line-height:1.25;font-family:'Oxygen Mono';-inkscape-font-specification:'Oxygen Mono';letter-spacing:0px;word-spacing:0px;fill:#000000;fill-opacity:1;stroke:none;stroke-width:0.26458332"
       x="-52"
       y="1004.9999"
       id="text1347"><tspan
         sodipodi:role="line"
         x="-52"
         y="1004.9999"
         style="font-size:4.23333311px;line-height:0;stroke-width:0.26458332"
         id="tspan1349">update 2020_03_28 (coronavirus crysis)</tspan></text>
    <path
       inkscape:connector-curvature="0"
       id="path1192-7"
       d="m 16,1070.5 v -3.0003 h 4 v -22.4999 H 16 V 1042 H -3.999698 v 2.9998 L -7.999773,1045 -8,1067.4999 l 4,-2e-4 v 3.0003 z m -5.000302,-4.0002 c -0.8284,10e-5 -1.5000004,-0.6713 -1.5002004,-1.4997 -10e-5,-0.8286 0.6716004,-1.5003 1.5002004,-1.5001 0.8285,-2e-4 1.5002,0.6715 1.5001,1.5001 -2e-4,0.8284 -0.6718,1.4998 -1.5001,1.4997 z m 0,-17.4998 c -0.8286,2e-4 -1.5003004,-0.6715 -1.5002004,-1.5001 2e-4,-0.8284 0.6718004,-1.4998 1.5002004,-1.4996 0.8283,-2e-4 1.4999,0.6712 1.5001,1.4996 10e-5,0.8286 -0.6716,1.5003 -1.5001,1.5001 z"
       style="fill:none;fill-opacity:1;stroke:#000000;stroke-width:0.1;stroke-miterlimit:4;stroke-dasharray:none;stroke-opacity:1"
       sodipodi:nodetypes="ccccccccccccccccccccccc" />
    <path
       style="fill:none;fill-opacity:1;stroke:#000000;stroke-width:0.37795275;stroke-miterlimit:4;stroke-dasharray:none;stroke-opacity:1"
       d="M 271.25781 3957.3535 L 271.25781 4282.3926 L 611.41602 4282.3926 L 611.41602 4248.377 L 966.68945 4233.2598 L 966.68945 4225.6992 L 1182.125 4225.6992 L 1182.125 4203.0215 L 1083.8555 4203.0215 L 1083.8555 4184.125 L 1182.125 4184.125 L 1182.125 4055.6211 L 1083.8555 4055.6211 L 1083.8555 4036.7227 L 1182.125 4036.7227 L 1182.125 4014.0449 L 966.68945 4014.0449 L 966.68945 4006.4863 L 611.41602 3991.3691 L 611.41602 3957.3535 L 271.25781 3957.3535 z M 305.27344 3989.4785 C 308.40503 3989.4781 310.94375 3992.0191 310.94336 3995.1504 C 310.94259 3998.2814 308.40421 4000.8168 305.27344 4000.8164 C 302.14344 4000.8157 299.60624 3998.2806 299.60547 3995.1504 C 299.60508 3992.0198 302.14262 3989.4789 305.27344 3989.4785 z M 764.48633 4001.7637 A 4.7244094 4.7244094 0 0 1 769.21094 4006.4883 A 4.7244094 4.7244094 0 0 1 764.48633 4011.2129 A 4.7244094 4.7244094 0 0 1 759.76367 4006.4883 A 4.7244094 4.7244094 0 0 1 764.48633 4001.7637 z M 392.20312 4017.8262 L 467.79492 4017.8262 L 467.79492 4029.1641 L 392.20312 4029.1641 L 392.20312 4017.8262 z M 1102.7539 4021.6055 C 1104.8411 4021.6058 1106.5331 4023.2973 1106.5332 4025.3848 C 1106.5331 4027.4718 1104.8411 4029.1641 1102.7539 4029.1641 C 1100.6667 4029.1641 1098.9748 4027.4718 1098.9746 4025.3848 C 1098.9748 4023.2973 1100.6667 4021.6058 1102.7539 4021.6055 z M 1132.9902 4021.6055 C 1135.0774 4021.6058 1136.7694 4023.2973 1136.7695 4025.3848 C 1136.7694 4027.4718 1135.0774 4029.1641 1132.9902 4029.1641 C 1130.903 4029.1641 1129.2109 4027.4718 1129.2109 4025.3848 C 1129.2109 4023.2973 1130.903 4021.6058 1132.9902 4021.6055 z M 276.92773 4066.959 L 288.26562 4066.959 L 288.26562 4104.7539 L 276.92773 4104.7539 L 276.92773 4066.959 z M 301.49414 4074.5176 L 320.39062 4074.5176 L 320.39062 4165.2266 L 301.49414 4165.2266 L 301.49414 4074.5176 z M 569.83984 4074.5176 L 607.63672 4074.5176 L 607.63672 4104.7539 L 607.63672 4108.5332 L 630.31445 4108.5332 L 630.31445 4131.2109 L 607.63672 4131.2109 L 607.63672 4134.9902 L 607.63672 4165.2266 L 569.83984 4165.2266 L 569.83984 4074.5176 z M 1057.4004 4085.8574 L 1178.3438 4085.8574 L 1178.3438 4153.8887 L 1057.4004 4153.8887 L 1057.4004 4085.8574 z M 864.64258 4097.1953 L 978.0293 4097.1953 L 978.0293 4142.5488 L 864.64258 4142.5488 L 864.64258 4097.1953 z M 282.59766 4115.1484 C 285.20706 4115.1481 287.32242 4117.2637 287.32227 4119.873 C 287.32126 4122.4817 285.20624 4124.5957 282.59766 4124.5957 C 279.98907 4124.5957 277.87404 4122.4817 277.87305 4119.873 C 277.87289 4117.2637 279.98825 4115.1481 282.59766 4115.1484 z M 749.36914 4126.4883 A 4.7244094 4.7244094 0 0 1 754.09375 4131.2129 A 4.7244094 4.7244094 0 0 1 749.36914 4135.9375 A 4.7244094 4.7244094 0 0 1 744.64453 4131.2129 A 4.7244094 4.7244094 0 0 1 749.36914 4126.4883 z M 276.92773 4134.9902 L 288.26562 4134.9902 L 288.26562 4172.7852 L 276.92773 4172.7852 L 276.92773 4134.9902 z M 690.78711 4186.9609 A 4.7244094 4.7244094 0 0 1 695.51172 4191.6855 A 4.7244094 4.7244094 0 0 1 690.78711 4196.4102 A 4.7244094 4.7244094 0 0 1 686.0625 4191.6855 A 4.7244094 4.7244094 0 0 1 690.78711 4186.9609 z M 838.1875 4186.9609 A 4.7244094 4.7244094 0 0 1 842.91211 4191.6855 A 4.7244094 4.7244094 0 0 1 838.1875 4196.4102 A 4.7244094 4.7244094 0 0 1 833.46289 4191.6855 A 4.7244094 4.7244094 0 0 1 838.1875 4186.9609 z M 1102.7539 4210.5801 C 1104.8419 4210.5801 1106.5342 4212.2735 1106.5332 4214.3613 C 1106.533 4216.4491 1104.8411 4218.1406 1102.7539 4218.1406 C 1100.6667 4218.1406 1098.9748 4216.4491 1098.9746 4214.3613 C 1098.9737 4212.2735 1100.6659 4210.5801 1102.7539 4210.5801 z M 1132.9902 4210.5801 C 1135.0782 4210.5801 1136.7704 4212.2735 1136.7695 4214.3613 C 1136.7692 4216.4491 1135.0774 4218.1406 1132.9902 4218.1406 C 1130.903 4218.1406 1129.2111 4216.4491 1129.2109 4214.3613 C 1129.21 4212.2735 1130.9022 4210.5801 1132.9902 4210.5801 z M 392.20312 4210.582 L 467.79492 4210.582 L 467.79492 4221.9199 L 392.20312 4221.9199 L 392.20312 4210.582 z M 305.27344 4238.9277 C 308.40498 4238.9274 310.9437 4241.4663 310.94336 4244.5977 C 310.94259 4247.7286 308.40421 4250.266 305.27344 4250.2656 C 302.14344 4250.2649 299.60624 4247.7279 299.60547 4244.5977 C 299.60513 4241.4671 302.14265 4238.9281 305.27344 4238.9277 z "
       transform="matrix(0.26458333,0,0,0.26458333,-107.77056,25.95)"
       id="path948" />
    <path
       style="fill:none;fill-opacity:1;stroke:#000000;stroke-width:0.37795275;stroke-miterlimit:4;stroke-dasharray:none;stroke-opacity:1"
       d="m 271.25781,3957.3535 v 325.041 h 347.7168 v -146.4576 l 22.67578,-3.7793 -10.39258,-7.5601 v 1.8906 h -23.62104 v -13.2312 h 23.62104 v 1.8926 l 10.39258,-7.559 -22.67578,-3.7793 0,-146.4577 z m 34.01563,31.1817 c 3.65304,3e-4 6.61404,2.9622 6.61328,6.6152 -2.9e-4,3.6523 -2.96098,6.613 -6.61328,6.6133 -3.65306,8e-4 -6.61495,-2.9602 -6.61524,-6.6133 -7.6e-4,-3.6538 2.96144,-6.616 6.61524,-6.6152 z m 85.98437,28.3476 h 77.47852 v 13.2266 h -77.47852 z m 167.24414,0 c 2.60863,-10e-5 4.72367,2.1141 4.72461,4.7227 1.1e-4,2.6094 -2.11524,4.7247 -4.72461,4.7246 -2.60861,0 -4.72276,-2.116 -4.72265,-4.7246 9.4e-4,-2.6079 2.11479,-4.7217 4.72265,-4.7227 z m -281.57617,50.0781 h 11.33789 v 37.795 h -11.33789 z m 0,68.0332 h 11.33789 v 37.7969 h -11.33789 z m 114.33203,74.6446 h 77.47852 v 13.2265 h -77.47852 z m 167.24414,4.7226 c 2.08874,-10e-4 3.78223,1.6926 3.78125,3.7813 -1.3e-4,2.088 -1.69329,3.7803 -3.78125,3.7793 -2.08719,-1e-4 -3.77916,-1.6921 -3.77929,-3.7793 -9.8e-4,-2.088 1.69131,-3.7812 3.77929,-3.7813 z m -253.22851,23.6231 c 3.65222,5e-4 6.6128,2.9611 6.61328,6.6133 5.7e-4,3.653 -2.96032,6.6147 -6.61328,6.6152 -3.65372,6e-4 -6.61581,-2.9615 -6.61524,-6.6152 4.8e-4,-3.653 2.96226,-6.6139 6.61524,-6.6133 z m 300.47265,13.2285 c 3.65298,-6e-4 6.61476,2.9603 6.61524,6.6133 5.7e-4,3.6537 -2.96152,6.6158 -6.61524,6.6152 -3.65296,-5e-4 -6.61385,-2.9622 -6.61328,-6.6152 4.8e-4,-3.6522 2.96106,-6.6128 6.61328,-6.6133 z"
       id="path950"
       transform="matrix(0.26458333,0,0,0.26458333,-107.77056,25.95)"
       inkscape:connector-curvature="0"
       sodipodi:nodetypes="cccccccccccccccccccccccccccccccccccccccccccccccccccccccccccc" />
    <path
       style="fill:none;fill-opacity:1;stroke:#000000;stroke-width:0.1;stroke-miterlimit:4;stroke-dasharray:none;stroke-opacity:1"
       d="m -11.000002,1010.4999 v 3.0004 h -11.99982 v 22.4999 h 11.99982 V 1039 H 3.0000976 v -2.9998 H 19.000198 V 1039 h 13.9996 v -2.9998 h 4.0003 v -7.0006 h -17.9999 v -8.4998 h 17.9999 v -6.9995 h -4.0003 v -3.0004 h -13.9996 v 3.0004 H 3.0000976 v -3.0004 z m 22.0001,4.0003 c 0.8284,-10e-5 1.5,0.6713 1.5002,1.4997 10e-5,0.8285 -0.6716,1.5002 -1.5002,1.5001 -0.8285,10e-5 -1.5002004,-0.6716 -1.5001004,-1.5001 2e-4,-0.8284 0.6718004,-1.4998 1.5001004,-1.4997 z m -20.2499004,6.4999 c 2.0708,2e-4 3.7495,1.6788 3.7497,3.7496 1e-4,2.071 -1.6787,3.75 -3.7497,3.7502 -2.0710996,0 -3.7501996,-1.679 -3.7500996,-3.7502 2e-4,-2.071 1.6792,-3.7497 3.7500996,-3.7496 z M 11.000098,1032 c 0.8286,-10e-5 1.5003,0.6716 1.5002,1.5001 -2e-4,0.8284 -0.6718,1.4998 -1.5002,1.4997 -0.8283,10e-5 -1.4999004,-0.6713 -1.5001004,-1.4997 -10e-5,-0.8285 0.6716004,-1.5002 1.5001004,-1.5001 z"
       id="path956"
       inkscape:connector-curvature="0" />
    <text
       xml:space="preserve"
       style="font-style:normal;font-variant:normal;font-weight:normal;font-stretch:normal;font-size:11.28888893px;line-height:1.25;font-family:'Oxygen Mono';-inkscape-font-specification:'Oxygen Mono';letter-spacing:0px;word-spacing:0px;fill:#000000;fill-opacity:1;stroke:none;stroke-width:0.26458332"
       x="59.999996"
       y="1004.9999"
       id="text2367"><tspan
         sodipodi:role="line"
         id="tspan2365"
         x="59.999996"
         y="1004.9999"
         style="stroke-width:0.26458332">3d Printed!</tspan></text>
    <circle
       style="fill:none;fill-opacity:1;stroke:#000000;stroke-width:0.1;stroke-miterlimit:5.92619944;stroke-dasharray:none;stroke-dashoffset:0;stroke-opacity:1"
       id="path2379"
       cx="-33"
       cy="1116"
       r="1.25" />
    <circle
       style="fill:none;fill-opacity:1;stroke:#000000;stroke-width:0.1;stroke-miterlimit:5.92619944;stroke-dasharray:none;stroke-dashoffset:0;stroke-opacity:1"
       id="path2399"
       cx="153.5"
       cy="1139"
       r="1.75" />
    <circle
       style="fill:none;fill-opacity:1;stroke:#000000;stroke-width:0.1;stroke-miterlimit:5.92619944;stroke-dasharray:none;stroke-dashoffset:0;stroke-opacity:1"
       id="path2401"
       cx="153.5"
       cy="1093"
       r="1.75" />
    <path
       sodipodi:nodetypes="cccccccccccccccccccccccccccccccccccccccccccccccccccccccccccccccc"
       inkscape:connector-curvature="0"
       id="path3007"
       d="m 216,1075 v 70 h 56.0002 v -70 z m 7.00008,7 h 27.99985 v 6 h -27.99985 z m -2.49994,2.0001 c 0.55224,10e-5 0.99991,0.4477 0.99994,1 -3e-5,0.5522 -0.4477,0.9999 -0.99994,0.9999 -0.55224,0 -0.99991,-0.4477 -0.99994,-0.9999 3e-5,-0.5523 0.4477,-0.9999 0.99994,-1 z m 32.5002,0 c 0.55224,10e-5 0.99991,0.4477 0.99994,1 -3e-5,0.5522 -0.4477,0.9999 -0.99994,0.9999 -0.55244,3e-4 -1.00044,-0.4475 -1.00047,-0.9999 3e-5,-0.5525 0.44803,-1.0002 1.00047,-1 z m 9.9999,5.7501 c 0.55221,0 0.99991,0.4477 0.99994,0.9999 0,0.5525 -0.44752,1.001 -0.99994,1.001 -0.55264,0 -1.00076,-0.4484 -1.00047,-1.001 2e-5,-0.5524 0.44802,-1.0002 1.00047,-0.9999 z M 223.00008,1093 h 27.99985 v 34 h -27.99985 v -3.9996 h -1.49992 v -26 h 1.49992 z m 36.99981,8.0001 h 6.00017 v 3.8107 c 1.8542,1.0706 2.99754,3.0486 2.99982,5.1898 2.1e-4,3.3136 -2.68603,5.9994 -5.99964,5.9997 -3.31378,10e-5 -6.00022,-2.6858 -6.00017,-5.9997 0.003,-2.1404 1.14623,-4.1175 2.99982,-5.1878 z m 3.00035,15.5004 1.73167,0.9999 v 1.9999 l -1.73167,0.9999 -1.7322,-0.9999 v -1.9999 z M 223.00008,1132 h 27.99985 v 6 h -27.99985 z m -2.49994,2.0002 c 0.55224,0 0.99991,0.4477 0.99994,0.9999 -3e-5,0.5523 -0.4477,0.9999 -0.99994,1 -0.55224,-10e-5 -0.99991,-0.4477 -0.99994,-1 3e-5,-0.5522 0.4477,-0.9999 0.99994,-0.9999 z m 32.5002,0 c 0.55224,0 0.99991,0.4477 0.99994,0.9999 -3e-5,0.5523 -0.4477,0.9999 -0.99994,1 -0.55244,2e-4 -1.00044,-0.4475 -1.00047,-1 3e-5,-0.5524 0.44803,-1.0002 1.00047,-0.9999 z"
       style="fill:none;fill-opacity:1;stroke:#000000;stroke-width:0.1;stroke-miterlimit:4;stroke-dasharray:none;stroke-dashoffset:0;stroke-opacity:1" />
    <rect
       style="fill:none;fill-opacity:1;stroke:#000000;stroke-width:0.1;stroke-miterlimit:5.92619944;stroke-dasharray:none;stroke-dashoffset:0;stroke-opacity:1"
       id="rect1521"
       width="4.9999957"
       height="3"
       x="10.999999"
       y="1044.9999" />
    <rect
       style="fill:none;fill-opacity:1;stroke:#000000;stroke-width:0.1;stroke-miterlimit:5.92619944;stroke-dasharray:none;stroke-dashoffset:0;stroke-opacity:1"
       id="rect1523"
       width="56"
       height="12"
       x="287.99997"
       y="1123" />
    <rect
       style="fill:none;fill-opacity:1;stroke:#000000;stroke-width:0.1;stroke-miterlimit:5.92619944;stroke-dasharray:none;stroke-dashoffset:0;stroke-opacity:1"
       id="rect1529"
       width="22"
       height="9"
       x="305"
       y="1116" />
    <rect
       style="fill:none;fill-opacity:1;stroke:#000000;stroke-width:0.1;stroke-miterlimit:5.92619944;stroke-dasharray:none;stroke-dashoffset:0;stroke-opacity:1"
       id="rect1535"
       width="8"
       height="4"
       x="336"
       y="1131" />
    <rect
       style="fill:none;fill-opacity:1;stroke:#000000;stroke-width:0.1;stroke-miterlimit:5.92619944;stroke-dasharray:none;stroke-dashoffset:0;stroke-opacity:1"
       id="rect1539"
       width="8"
       height="4"
       x="287.99997"
       y="1131" />
    <path
       style="fill:none;stroke:#000000;stroke-width:0.26458332px;stroke-linecap:butt;stroke-linejoin:miter;stroke-opacity:1"
       d="M 296.00001,1134.9999 306,1125 h 20 l 10,9.9999 v 0"
       id="path1541"
       inkscape:connector-curvature="0"
       sodipodi:nodetypes="ccccc" />
    <path
       style="fill:none;stroke:#000000;stroke-width:0.26458332px;stroke-linecap:butt;stroke-linejoin:miter;stroke-opacity:1"
       d="M 82.999998,954.99997 H 116.75"
       id="path1545"
       inkscape:connector-curvature="0" />
    <rect
       style="fill:none;fill-opacity:1;stroke:#000000;stroke-width:0.1;stroke-miterlimit:5.92619944;stroke-dasharray:none;stroke-dashoffset:0;stroke-opacity:1"
       id="rect1547"
       width="7"
       height="17.999908"
       x="321"
       y="1117"
       ry="0" />
    <rect
       style="fill:none;fill-opacity:1;stroke:#000000;stroke-width:0.1;stroke-miterlimit:5.92619944;stroke-dasharray:none;stroke-dashoffset:0;stroke-opacity:1"
       id="rect1549"
       width="22"
       height="7"
       x="305"
       y="1110" />
    <rect
       style="fill:none;fill-opacity:1;stroke:#000000;stroke-width:0.1;stroke-miterlimit:5.92619944;stroke-dasharray:none;stroke-dashoffset:0;stroke-opacity:1"
       id="rect1555"
       width="9"
       height="10"
       x="296"
       y="1125" />
    <path
       sodipodi:nodetypes="cccccccccccccccccccccccccccccccccssscccccccccccccccccc"
       inkscape:connector-curvature="0"
       id="path1557"
       d="m 288,1089.0001 h 69.9999 V 1033 H 288 Z M 295.0001,1082 v -27.9998 h 6 V 1082 Z m 1.9999,2.5001 c 0,-0.5522 0.4477,-0.9998 0.9999,-0.9999 0.5523,10e-5 0.9999,0.4477 1,0.9999 -1e-4,0.5523 -0.4477,1 -1,1 -0.5522,0 -0.9999,-0.4477 -0.9999,-1 z m 0,-32.5003 c 0,-0.5522 0.4477,-0.9999 0.9999,-0.9999 0.5523,0 0.9999,0.4477 1,0.9999 0,0.5525 -0.4475,1.0004 -1,1.0005 -0.5524,-10e-5 -1.0002,-0.448 -0.9999,-1.0005 z M 306,1082 v -27.9998 h 34 V 1082 h -3.9998 v 1.5001 h -26 V 1082 Z m 0,-33.7498 v -12.5 h 25.2501 v 3.2499 h 1.9999 c 1.662,0 3.0003,1.3383 3.0003,3.0003 0,1.662 -1.3383,2.9998 -3.0003,2.9998 h -1.9999 v 3.25 z M 345.0001,1082 v -27.9998 h 6 V 1082 Z m 1.9999,2.5001 c 10e-5,-0.5522 0.4477,-0.9998 1,-0.9999 0.5522,10e-5 0.9999,0.4477 0.9999,0.9999 0,0.5523 -0.4477,1 -0.9999,1 -0.5523,0 -0.9999,-0.4477 -1,-1 z m 0,-32.5003 c 10e-5,-0.5522 0.4477,-0.9999 1,-0.9999 0.5522,0 0.9999,0.4477 0.9999,0.9999 0,0.5525 -0.4475,1.0004 -0.9999,1.0005 -0.5525,-10e-5 -1.0002,-0.448 -1,-1.0005 z"
       style="fill:none;fill-opacity:1;stroke:#000000;stroke-width:0.1;stroke-miterlimit:4;stroke-dasharray:none;stroke-dashoffset:0;stroke-opacity:1" />
    <path
       style="fill:none;stroke:#000000;stroke-width:0.26458332px;stroke-linecap:butt;stroke-linejoin:miter;stroke-opacity:1"
       d="m 322.99999,1033 v 39"
       id="path1559"
       inkscape:connector-curvature="0" />
    <rect
       style="fill:none;fill-opacity:1;stroke:#000000;stroke-width:0.1;stroke-miterlimit:5.92619944;stroke-dasharray:none;stroke-dashoffset:0;stroke-opacity:1"
       id="rect975"
       width="15.999992"
       height="17.499908"
       x="59"
       y="1117.5" />
    <rect
       style="fill:none;fill-opacity:1;stroke:#000000;stroke-width:0.1;stroke-miterlimit:5.92619944;stroke-dasharray:none;stroke-dashoffset:0;stroke-opacity:1"
       id="rect981"
       width="6"
       height="3"
       x="53.000004"
       y="1114.5" />
  </g>
</svg>
