<?xml version="1.0" encoding="UTF-8" standalone="no"?>
<svg
   xmlns:dc="http://purl.org/dc/elements/1.1/"
   xmlns:cc="http://creativecommons.org/ns#"
   xmlns:rdf="http://www.w3.org/1999/02/22-rdf-syntax-ns#"
   xmlns:svg="http://www.w3.org/2000/svg"
   xmlns="http://www.w3.org/2000/svg"
   xmlns:sodipodi="http://sodipodi.sourceforge.net/DTD/sodipodi-0.dtd"
   xmlns:inkscape="http://www.inkscape.org/namespaces/inkscape"
   version="1.1"
   id="svg2"
   viewBox="0 0 744.09448819 1052.3622047"
   height="297mm"
   width="210mm"
   sodipodi:docname="rock-crawler.inkscape.svg"
   inkscape:version="0.92.2 5c3e80d, 2017-08-06">
  <sodipodi:namedview
     pagecolor="#ffffff"
     bordercolor="#666666"
     borderopacity="1"
     objecttolerance="50"
     gridtolerance="10000"
     guidetolerance="10"
     inkscape:pageopacity="0"
     inkscape:pageshadow="2"
     inkscape:window-width="1920"
     inkscape:window-height="1130"
     id="namedview80"
     showgrid="true"
     inkscape:document-units="mm"
     inkscape:zoom="2.828427"
     inkscape:cx="2180.4469"
     inkscape:cy="446.32377"
     inkscape:window-x="0"
     inkscape:window-y="1"
     inkscape:window-maximized="1"
     inkscape:current-layer="svg2"
     inkscape:snap-global="true"
     showguides="true"
     inkscape:guide-bbox="true">
    <inkscape:grid
       type="xygrid"
       id="grid4765"
       units="mm"
       spacingx="0.88582677"
       spacingy="0.88582677"
       empspacing="4"
       visible="true"
       snapvisiblegridlinesonly="true"
       dotted="false" />
    <inkscape:grid
       type="xygrid"
       id="grid913"
       spacingx="0.44291339"
       spacingy="0.44291339"
       empspacing="8"
       dotted="false"
       units="mm"
       visible="true" />
  </sodipodi:namedview>
  <defs
     id="defs4" />
  <metadata
     id="metadata7">
    <rdf:RDF>
      <cc:Work
         rdf:about="">
        <dc:format>image/svg+xml</dc:format>
        <dc:type
           rdf:resource="http://purl.org/dc/dcmitype/StillImage" />
        <dc:title />
      </cc:Work>
    </rdf:RDF>
  </metadata>
  <path
     style="fill:none;stroke:#000000;stroke-width:0.35433072;stroke-miterlimit:4;stroke-dasharray:none;stroke-opacity:1"
     d="m 1576.7719,554.52674 a 28.346453,28.346453 0 0 0 -28.3466,28.34656 28.346453,28.346453 0 0 0 8.8569,20.53894 V 721.063 h 38.9776 V 603.43604 a 28.346453,28.346453 0 0 0 8.8587,-20.56274 28.346453,28.346453 0 0 0 -28.3466,-28.34656 z m 0,23.03101 a 5.3149957,5.3149957 0 0 1 5.3137,5.31555 5.3149957,5.3149957 0 0 1 -5.3137,5.31555 5.3149957,5.3149957 0 0 1 -5.3156,-5.31555 5.3149957,5.3149957 0 0 1 5.3156,-5.31555 z m 0,50.49316 a 3.543307,3.543307 0 0 1 3.5431,3.54309 3.543307,3.543307 0 0 1 -3.5431,3.54309 3.543307,3.543307 0 0 1 -3.5449,-3.54309 3.543307,3.543307 0 0 1 3.5449,-3.54309 z m 0,17.71546 a 3.5433013,3.5433073 0 0 1 3.5431,3.54492 3.5433013,3.5433073 0 0 1 -3.5431,3.54309 3.5433013,3.5433073 0 0 1 -3.5449,-3.54309 3.5433013,3.5433073 0 0 1 3.5449,-3.54492 z m 0,14.17419 a 3.5433013,3.5433073 0 0 1 3.5431,3.54309 3.5433013,3.5433073 0 0 1 -3.5431,3.54309 3.5433013,3.5433073 0 0 1 -3.5449,-3.54309 3.5433013,3.5433073 0 0 1 3.5449,-3.54309 z m 0,14.17237 a 3.5433013,3.5433073 0 0 1 3.5431,3.54308 3.5433013,3.5433073 0 0 1 -3.5431,3.54492 3.5433013,3.5433073 0 0 1 -3.5449,-3.54492 3.5433013,3.5433073 0 0 1 3.5449,-3.54308 z m 0,13.28795 a 12.401581,12.401577 0 0 1 12.3999,12.40174 12.401581,12.401577 0 0 1 -12.3999,12.40174 12.401581,12.401577 0 0 1 -12.4018,-12.40174 12.401581,12.401577 0 0 1 12.4018,-12.40174 z"
     id="path953"
     inkscape:connector-curvature="0" />
  <path
     style="fill:#505050;fill-opacity:1;stroke:#000000;stroke-width:0.36319897;stroke-linecap:butt;stroke-linejoin:miter;stroke-miterlimit:9.05000019;stroke-dasharray:none;stroke-opacity:1"
     d="m 29.67994,107.35301 a 38.799103,38.799103 0 0 0 -38.79883,38.79882 38.799103,38.799103 0 0 0 0.01,0.17774 l -0.01,0 0,251.2207 0.004,0 0,42.51563 77.58984,0 0,-42.51563 0.004,0 0,-251.2207 -0.006,0 a 38.799103,38.799103 0 0 0 0.006,-0.17774 38.799103,38.799103 0 0 0 -38.79883,-38.79882 z m 0,33.48437 a 5.3149605,5.3149605 0 0 1 5.31641,5.31445 5.3149605,5.3149605 0 0 1 -5.31641,5.31446 5.3149605,5.3149605 0 0 1 -5.31445,-5.31446 5.3149605,5.3149605 0 0 1 5.31445,-5.31445 z M 3.2815,284.51707 l 52.79688,0 0,88.23047 -52.79688,0 0,-88.23047 z m -3.71875002,109.83789 a 3.3713012,3.3713012 0 0 1 3.37110002,3.37305 3.3713012,3.3713012 0 0 1 -3.37110002,3.37109 3.3713012,3.3713012 0 0 1 -3.37108998,-3.37109 3.3713012,3.3713012 0 0 1 3.37108998,-3.37305 z m 60.23633002,0 a 3.3713012,3.3713012 0 0 1 3.37109,3.37305 3.3713012,3.3713012 0 0 1 -3.37109,3.37109 3.3713012,3.3713012 0 0 1 -3.37109,-3.37109 3.3713012,3.3713012 0 0 1 3.37109,-3.37305 z m -30.11914,21.26172 a 6.9137697,6.9137697 0 0 1 6.91406,6.91406 6.9137697,6.9137697 0 0 1 -6.91406,6.91406 6.9137697,6.9137697 0 0 1 -6.91406,-6.91406 6.9137697,6.9137697 0 0 1 6.91406,-6.91406 z"
     id="rect4168"
     inkscape:connector-curvature="0" />
  <circle
     style="fill:none;fill-opacity:1;stroke:#000000;stroke-width:0.34401175;stroke-linecap:butt;stroke-linejoin:miter;stroke-miterlimit:9.05000019;stroke-dasharray:none;stroke-opacity:1"
     id="path5337"
     cx="147.04726"
     cy="379.13388"
     r="3.3713012" />
  <circle
     cy="379.13388"
     cx="207.28348"
     id="circle5341"
     style="fill:none;fill-opacity:1;stroke:#000000;stroke-width:0.34401175;stroke-linecap:butt;stroke-linejoin:miter;stroke-miterlimit:9.05000019;stroke-dasharray:none;stroke-opacity:1"
     r="3.3713012" />
  <circle
     style="fill:none;fill-opacity:1;stroke:#000000;stroke-width:0.34568849;stroke-linecap:butt;stroke-linejoin:miter;stroke-miterlimit:9.05000019;stroke-dasharray:none;stroke-opacity:1"
     id="path5347"
     cx="177.16534"
     cy="403.93701"
     r="6.9137697" />
  <rect
     style="fill:none;fill-opacity:1;stroke:#000000;stroke-width:0.36319897;stroke-linecap:butt;stroke-linejoin:miter;stroke-miterlimit:9.05000019;stroke-dasharray:none;stroke-opacity:1"
     id="rect5351"
     width="77.589554"
     height="59.87302"
     x="138.37057"
     y="361.59894" />
  <rect
     style="fill:none;fill-opacity:1;stroke:#000000;stroke-width:0.35181612;stroke-linecap:butt;stroke-linejoin:miter;stroke-miterlimit:9.05000019;stroke-dasharray:none;stroke-opacity:1"
     id="rect5361"
     width="60.238735"
     height="24.451334"
     x="147.04599"
     y="354.50662" />
  <rect
     style="fill:none;fill-opacity:1;stroke:#000000;stroke-width:0.35259745;stroke-linecap:butt;stroke-linejoin:miter;stroke-miterlimit:9.05000019;stroke-dasharray:none;stroke-opacity:1"
     id="rect5369"
     width="52.797009"
     height="88.23008"
     x="150.76685"
     y="265.92432" />
  <rect
     style="fill:none;fill-opacity:1;stroke:#000000;stroke-width:0.35433071;stroke-linecap:butt;stroke-linejoin:miter;stroke-miterlimit:9.05000019;stroke-dasharray:none;stroke-opacity:1"
     id="rect5371"
     width="77.598427"
     height="141.37796"
     x="138.36536"
     y="237.57956" />
  <circle
     style="fill:none;fill-opacity:1;stroke:#000000;stroke-width:0.35433071;stroke-linecap:butt;stroke-linejoin:miter;stroke-miterlimit:9.05000019;stroke-dasharray:none;stroke-opacity:1"
     id="path5373"
     cx="177.16547"
     cy="-237.40147"
     transform="scale(1,-1)"
     r="38.799213" />
  <circle
     id="path3773"
     cx="177.16536"
     cy="-237.40158"
     style="fill:none;stroke:#000000;stroke-width:0.35433072;stroke-miterlimit:4;stroke-dasharray:none;stroke-opacity:1"
     r="5.3149605"
     transform="scale(1,-1)" />
  <circle
     transform="scale(1,-1)"
     r="38.799103"
     cy="-127.55906"
     cx="177.16536"
     id="circle4614"
     style="fill:none;fill-opacity:1;stroke:#000000;stroke-width:0.35433071;stroke-linecap:butt;stroke-linejoin:miter;stroke-miterlimit:9.05000019;stroke-dasharray:none;stroke-opacity:1" />
  <circle
     transform="scale(1,-1)"
     r="5.3149605"
     style="fill:none;stroke:#000000;stroke-width:0.35433072;stroke-miterlimit:4;stroke-dasharray:none;stroke-opacity:1"
     cy="-127.55906"
     cx="177.16536"
     id="circle4616" />
  <rect
     y="127.73622"
     x="138.36613"
     height="109.48819"
     width="77.598427"
     id="rect4160"
     style="fill:none;fill-opacity:1;stroke:#000000;stroke-width:0.35433072;stroke-linecap:butt;stroke-linejoin:miter;stroke-miterlimit:9.05000019;stroke-dasharray:none;stroke-opacity:1" />
  <rect
     style="fill:#505050;fill-opacity:1;stroke:#000000;stroke-width:0.86862224;stroke-linecap:butt;stroke-linejoin:miter;stroke-miterlimit:9.05000019;stroke-dasharray:none;stroke-opacity:1"
     id="rect4194"
     width="261.33609"
     height="55.824291"
     x="-170.58554"
     y="611.38043"
     transform="matrix(0,-1,1,0,0,0)" />
  <rect
     style="fill:#505050;fill-opacity:1;stroke:#000000;stroke-width:0.44755715;stroke-linecap:butt;stroke-linejoin:miter;stroke-miterlimit:9.05000019;stroke-dasharray:none;stroke-opacity:1"
     id="rect4198"
     width="55.536697"
     height="118.25323"
     x="547.56207"
     y="-26.390491" />
  <path
     inkscape:connector-curvature="0"
     id="path4711"
     d="m -67.318788,117.10551 a 38.799103,38.799103 0 0 0 -38.798822,38.79882 38.799103,38.799103 0 0 0 0.01,0.17774 l -0.01,0 0,251.2207 0.004,0 0,42.51563 77.589832,0 0,-42.51563 0.004,0 0,-251.2207 -0.006,0 a 38.799103,38.799103 0 0 0 0.006,-0.17774 38.799103,38.799103 0 0 0 -38.79883,-38.79882 z m 0,33.48437 a 5.3149605,5.3149605 0 0 1 5.31641,5.31445 5.3149605,5.3149605 0 0 1 -5.31641,5.31446 5.3149605,5.3149605 0 0 1 -5.31445,-5.31446 5.3149605,5.3149605 0 0 1 5.31445,-5.31445 z m -26.39844,143.67969 52.79688,0 0,88.23047 -52.79688,0 0,-88.23047 z m -3.718745,109.83789 a 3.3713012,3.3713012 0 0 1 3.371095,3.37305 3.3713012,3.3713012 0 0 1 -3.371095,3.37109 3.3713012,3.3713012 0 0 1 -3.371087,-3.37109 3.3713012,3.3713012 0 0 1 3.371087,-3.37305 z m 60.236325,0 a 3.3713012,3.3713012 0 0 1 3.37109,3.37305 3.3713012,3.3713012 0 0 1 -3.37109,3.37109 3.3713012,3.3713012 0 0 1 -3.37109,-3.37109 3.3713012,3.3713012 0 0 1 3.37109,-3.37305 z m -30.11914,21.26172 a 6.9137697,6.9137697 0 0 1 6.91406,6.91406 6.9137697,6.9137697 0 0 1 -6.91406,6.91406 6.9137697,6.9137697 0 0 1 -6.91406,-6.91406 6.9137697,6.9137697 0 0 1 6.91406,-6.91406 z"
     style="fill:#505050;fill-opacity:1;stroke:#000000;stroke-width:0.36319897;stroke-linecap:butt;stroke-linejoin:miter;stroke-miterlimit:9.05000019;stroke-dasharray:none;stroke-opacity:1" />
  <rect
     style="fill:none;fill-opacity:1;stroke:#000000;stroke-width:0.35433071;stroke-linecap:butt;stroke-linejoin:miter;stroke-miterlimit:9.05000019;stroke-dasharray:none;stroke-opacity:1"
     id="rect4715"
     width="52.722343"
     height="13.745966"
     x="150.80418"
     y="251.78845" />
  <circle
     r="3.5440803"
     cy="372.04724"
     cx="292.32361"
     id="circle4717"
     style="fill:none;fill-opacity:1;stroke:#000000;stroke-width:0.34401175;stroke-linecap:butt;stroke-linejoin:miter;stroke-miterlimit:9.05000019;stroke-dasharray:none;stroke-opacity:1" />
  <circle
     r="3.5440965"
     style="fill:none;fill-opacity:1;stroke:#000000;stroke-width:0.34401175;stroke-linecap:butt;stroke-linejoin:miter;stroke-miterlimit:9.05000019;stroke-dasharray:none;stroke-opacity:1"
     id="circle4719"
     cx="352.55984"
     cy="372.04724" />
  <circle
     r="7.0873804"
     cy="396.85037"
     cx="322.44171"
     id="circle4721"
     style="fill:none;fill-opacity:1;stroke:#000000;stroke-width:0.34568849;stroke-linecap:butt;stroke-linejoin:miter;stroke-miterlimit:9.05000019;stroke-dasharray:none;stroke-opacity:1" />
  <rect
     y="354.33072"
     x="283.46457"
     height="60.23621"
     width="77.952751"
     id="rect4723"
     style="fill:none;fill-opacity:1;stroke:#000000;stroke-width:0.35433071;stroke-linecap:butt;stroke-linejoin:miter;stroke-miterlimit:9.05000019;stroke-dasharray:none;stroke-opacity:1" />
  <rect
     y="347.41998"
     x="292.32236"
     height="24.451334"
     width="60.238735"
     id="rect4725"
     style="fill:none;fill-opacity:1;stroke:#000000;stroke-width:0.35181612;stroke-linecap:butt;stroke-linejoin:miter;stroke-miterlimit:9.05000019;stroke-dasharray:none;stroke-opacity:1" />
  <rect
     y="258.66141"
     x="295.86615"
     height="88.582664"
     width="53.149605"
     id="rect4727"
     style="fill:none;fill-opacity:1;stroke:#000000;stroke-width:0.35259745;stroke-linecap:butt;stroke-linejoin:miter;stroke-miterlimit:9.05000019;stroke-dasharray:none;stroke-opacity:1" />
  <rect
     y="223.22835"
     x="283.46457"
     height="148.81889"
     width="77.952759"
     id="rect4729"
     style="fill:none;fill-opacity:1;stroke:#000000;stroke-width:0.35433072;stroke-linecap:butt;stroke-linejoin:miter;stroke-miterlimit:9.05000019;stroke-dasharray:none;stroke-opacity:1" />
  <circle
     transform="scale(1,-1)"
     r="5.3149605"
     style="fill:none;stroke:#000000;stroke-width:0.35433072;stroke-miterlimit:4;stroke-dasharray:none;stroke-opacity:1"
     cy="-230.31497"
     cx="322.44171"
     id="circle4731" />
  <rect
     y="244.48819"
     x="295.86615"
     height="14.173228"
     width="53.149597"
     id="rect4733"
     style="fill:none;fill-opacity:1;stroke:#000000;stroke-width:0.35433072;stroke-linecap:butt;stroke-linejoin:miter;stroke-miterlimit:9.05000019;stroke-dasharray:none;stroke-opacity:1" />
  <rect
     style="fill:none;fill-opacity:1;stroke:#000000;stroke-width:0.35433072;stroke-linecap:butt;stroke-linejoin:miter;stroke-miterlimit:9.05000019;stroke-dasharray:none;stroke-opacity:1"
     id="rect4735"
     width="53.149597"
     height="7.0866132"
     x="295.86615"
     y="223.22835" />
  <rect
     style="fill:none;fill-opacity:1;stroke:#000000;stroke-width:0.35433072;stroke-linecap:butt;stroke-linejoin:miter;stroke-miterlimit:9.05000019;stroke-dasharray:none;stroke-opacity:1"
     id="rect4741"
     width="10.629917"
     height="65.55117"
     x="379.13385"
     y="136.41736" />
  <rect
     style="fill:none;fill-opacity:1;stroke:#000000;stroke-width:0.35433072;stroke-linecap:butt;stroke-linejoin:miter;stroke-miterlimit:9.05000019;stroke-dasharray:none;stroke-opacity:1"
     id="rect4745"
     width="77.952751"
     height="65.551178"
     x="283.46457"
     y="136.41736" />
  <rect
     style="fill:none;fill-opacity:1;stroke:#000000;stroke-width:0.35433072;stroke-linecap:butt;stroke-linejoin:miter;stroke-miterlimit:9.05000019;stroke-dasharray:none;stroke-opacity:1"
     id="rect4747"
     width="53.149605"
     height="7.0866137"
     x="295.86612"
     y="201.96854" />
  <rect
     style="fill:none;fill-opacity:1;stroke:#000000;stroke-width:0.35433072;stroke-linecap:butt;stroke-linejoin:miter;stroke-miterlimit:9.05000019;stroke-dasharray:none;stroke-opacity:1"
     id="rect4749"
     width="53.149605"
     height="7.0866137"
     x="295.86612"
     y="129.33075" />
  <rect
     style="fill:none;fill-opacity:1;stroke:#000000;stroke-width:0.35433072;stroke-linecap:butt;stroke-linejoin:miter;stroke-miterlimit:9.05000019;stroke-dasharray:none;stroke-opacity:1"
     id="rect4755"
     width="77.952751"
     height="17.716536"
     x="283.46457"
     y="258.66147" />
  <rect
     style="fill:none;fill-opacity:1;stroke:#000000;stroke-width:0.35433072;stroke-linecap:butt;stroke-linejoin:miter;stroke-miterlimit:9.05000019;stroke-dasharray:none;stroke-opacity:1"
     id="rect4757"
     width="7.086607"
     height="38.976379"
     x="276.37796"
     y="248.03149" />
  <rect
     y="248.03149"
     x="361.41733"
     height="38.976379"
     width="7.0866098"
     id="rect4759"
     style="fill:none;fill-opacity:1;stroke:#000000;stroke-width:0.35433072;stroke-linecap:butt;stroke-linejoin:miter;stroke-miterlimit:9.05000019;stroke-dasharray:none;stroke-opacity:1" />
  <circle
     style="fill:none;fill-opacity:1;stroke:#000000;stroke-width:0.35433072;stroke-linecap:butt;stroke-linejoin:miter;stroke-miterlimit:9.05000019;stroke-dasharray:none;stroke-opacity:1"
     id="path4769"
     cx="322.44095"
     cy="169.19292"
     r="12.401578" />
  <rect
     style="fill:none;fill-opacity:1;stroke:#000000;stroke-width:0.35433072;stroke-linecap:butt;stroke-linejoin:miter;stroke-miterlimit:9.05000019;stroke-dasharray:none;stroke-opacity:1"
     id="rect4773"
     width="1.7716535"
     height="1.7716535"
     x="321.55511"
     y="168.30708" />
  <circle
     style="fill:none;fill-opacity:1;stroke:#000000;stroke-width:0.35433072;stroke-linecap:butt;stroke-linejoin:miter;stroke-miterlimit:9.05000019;stroke-dasharray:none;stroke-opacity:1"
     id="path4777"
     cx="344.58661"
     cy="169.19292"
     r="1.7716535" />
  <circle
     style="fill:none;fill-opacity:1;stroke:#000000;stroke-width:0.35433072;stroke-linecap:butt;stroke-linejoin:miter;stroke-miterlimit:9.05000019;stroke-dasharray:none;stroke-opacity:1"
     id="path4779"
     cx="300.29529"
     cy="169.19292"
     r="1.7716535" />
  <ellipse
     style="fill:none;stroke:#000000;stroke-width:0.35433072;stroke-miterlimit:4;stroke-dasharray:none;stroke-opacity:1"
     id="path860"
     cx="435.82678"
     cy="393.3071"
     rx="7.0866208"
     ry="7.086637" />
  <rect
     style="fill:none;stroke:#000000;stroke-width:0.35433072;stroke-miterlimit:4;stroke-dasharray:none;stroke-opacity:1"
     id="rect862"
     width="7.0866184"
     height="88.58268"
     x="450"
     y="386.22046" />
  <circle
     style="fill:none;stroke:#000000;stroke-width:0.35433072;stroke-miterlimit:4;stroke-dasharray:none;stroke-opacity:1"
     id="path866"
     cx="435.82678"
     cy="432.28345"
     r="10.629928" />
  <rect
     style="fill:none;stroke:#000000;stroke-width:0.35433072;stroke-miterlimit:4;stroke-dasharray:none;stroke-opacity:1"
     id="rect868"
     width="7.0866146"
     height="35.433071"
     x="336.61417"
     y="368.50394" />
  <rect
     style="fill:none;stroke:#000000;stroke-width:0.35433072;stroke-miterlimit:4;stroke-dasharray:none;stroke-opacity:1"
     id="rect870"
     width="7.0866151"
     height="111.6142"
     x="460.62994"
     y="363.18896" />
  <rect
     y="356.10236"
     x="418.11023"
     height="44.291386"
     width="7.0866289"
     id="rect874"
     style="fill:none;stroke:#000000;stroke-width:0.35433072;stroke-miterlimit:4;stroke-dasharray:none;stroke-opacity:1" />
  <circle
     style="fill:none;stroke:#000000;stroke-width:0.35433072;stroke-miterlimit:4;stroke-dasharray:none;stroke-opacity:1"
     id="path876"
     cx="402.16534"
     cy="359.64566"
     inkscape:transform-center-x="0.17578125"
     inkscape:transform-center-y="0.64453126"
     r="3.5433073" />
  <rect
     style="fill:none;stroke:#000000;stroke-width:0.35433072;stroke-miterlimit:4;stroke-dasharray:none;stroke-opacity:1"
     id="rect878"
     width="3.5433073"
     height="31.889763"
     x="407.48032"
     y="361.41733" />
  <rect
     style="fill:none;stroke:#000000;stroke-width:0.35433072;stroke-miterlimit:4;stroke-dasharray:none;stroke-opacity:1"
     id="rect880"
     width="33.661423"
     height="3.5432987"
     x="402.16534"
     y="350.78738" />
  <circle
     r="3.5433073"
     inkscape:transform-center-y="0.64453126"
     inkscape:transform-center-x="0.17578125"
     cy="359.64566"
     cx="469.48819"
     id="circle882"
     style="fill:none;stroke:#000000;stroke-width:0.35433072;stroke-miterlimit:4;stroke-dasharray:none;stroke-opacity:1" />
  <rect
     style="fill:none;stroke:#000000;stroke-width:0.35433072;stroke-miterlimit:4;stroke-dasharray:none;stroke-opacity:1"
     id="rect884"
     width="77.952766"
     height="3.5433013"
     x="396.8504"
     y="-350.78738"
     transform="scale(1,-1)" />
  <rect
     style="fill:none;stroke:#000000;stroke-width:0.35433072;stroke-miterlimit:4;stroke-dasharray:none;stroke-opacity:1"
     id="rect886"
     width="7.0866065"
     height="49.6063"
     x="474.80316"
     y="421.65353" />
  <rect
     style="fill:none;stroke:#000000;stroke-width:0.35433072;stroke-miterlimit:4;stroke-dasharray:none;stroke-opacity:1"
     id="rect872"
     width="3.5433073"
     height="67.322838"
     x="442.91339"
     y="333.07083" />
  <rect
     style="fill:none;stroke:#000000;stroke-width:0.35433072;stroke-miterlimit:4;stroke-dasharray:none;stroke-opacity:1"
     id="rect875"
     width="46.062992"
     height="81.496063"
     x="412.79529"
     y="251.57478" />
  <rect
     style="fill:none;stroke:#000000;stroke-width:0.35433072;stroke-miterlimit:4;stroke-dasharray:none;stroke-opacity:1"
     id="rect877"
     width="6.2007957"
     height="83.267715"
     x="387.10629"
     y="279.92123" />
  <rect
     style="fill:none;stroke:#000000;stroke-width:0.35433072;stroke-miterlimit:4;stroke-dasharray:none;stroke-opacity:1"
     id="rect879"
     width="70.866142"
     height="17.716536"
     x="400.39371"
     y="262.20471" />
  <rect
     style="fill:none;stroke:#000000;stroke-width:0.35433072;stroke-miterlimit:4;stroke-dasharray:none;stroke-opacity:1"
     id="rect881"
     width="79.724411"
     height="230.31496"
     x="395.96457"
     y="244.48817" />
  <rect
     style="fill:none;stroke:#000000;stroke-width:0.35433072;stroke-miterlimit:4;stroke-dasharray:none;stroke-opacity:1"
     id="rect883"
     width="10.629951"
     height="38.976357"
     x="385.33466"
     y="251.57478" />
  <rect
     y="251.57478"
     x="475.689"
     height="38.976357"
     width="10.629951"
     id="rect885"
     style="fill:none;stroke:#000000;stroke-width:0.35433072;stroke-miterlimit:4;stroke-dasharray:none;stroke-opacity:1" />
  <rect
     style="fill:none;stroke:#000000;stroke-width:0.35433072;stroke-miterlimit:4;stroke-dasharray:none;stroke-opacity:1"
     id="rect887"
     width="67.322815"
     height="180.70866"
     x="520.86615"
     y="294.09448" />
  <rect
     style="fill:none;stroke:#000000;stroke-width:0.35433072;stroke-miterlimit:4;stroke-dasharray:none;stroke-opacity:1"
     id="rect889"
     width="10.629922"
     height="14.173229"
     x="510.23621"
     y="403.93698" />
  <rect
     y="403.93701"
     x="588.18896"
     height="14.173229"
     width="10.629922"
     id="rect891"
     style="fill:none;stroke:#000000;stroke-width:0.35433072;stroke-miterlimit:4;stroke-dasharray:none;stroke-opacity:1" />
  <rect
     y="368.50394"
     x="510.23624"
     height="14.173229"
     width="10.629922"
     id="rect893"
     style="fill:none;stroke:#000000;stroke-width:0.35433072;stroke-miterlimit:4;stroke-dasharray:none;stroke-opacity:1" />
  <rect
     style="fill:none;stroke:#000000;stroke-width:0.35433072;stroke-miterlimit:4;stroke-dasharray:none;stroke-opacity:1"
     id="rect895"
     width="10.629922"
     height="14.173229"
     x="588.18896"
     y="368.50397" />
  <rect
     y="446.4567"
     x="510.23624"
     height="14.173229"
     width="10.629922"
     id="rect897"
     style="fill:none;stroke:#000000;stroke-width:0.35433072;stroke-miterlimit:4;stroke-dasharray:none;stroke-opacity:1" />
  <rect
     style="fill:none;stroke:#000000;stroke-width:0.35433072;stroke-miterlimit:4;stroke-dasharray:none;stroke-opacity:1"
     id="rect899"
     width="10.629922"
     height="14.173229"
     x="588.18896"
     y="446.45673" />
  <path
     sodipodi:type="star"
     style="fill:none;stroke:#000000;stroke-width:0.35433072;stroke-miterlimit:4;stroke-dasharray:none;stroke-opacity:1"
     id="path927"
     sodipodi:sides="6"
     sodipodi:cx="554.52753"
     sodipodi:cy="432.28345"
     sodipodi:r1="11.072849"
     sodipodi:r2="9.97293"
     sodipodi:arg1="1.5707929"
     sodipodi:arg2="2.0943917"
     inkscape:flatsided="true"
     inkscape:rounded="0"
     inkscape:randomized="0"
     d="m 554.52756,443.3563 -9.58938,-5.5364 -4e-5,-11.07284 9.58935,-5.53646 9.58939,5.53639 3e-5,11.07285 z"
     inkscape:transform-center-x="1.4489562e-06"
     inkscape:transform-center-y="-1.1295376e-06" />
  <text
     xml:space="preserve"
     style="font-style:normal;font-weight:normal;line-height:0%;font-family:sans-serif;letter-spacing:0px;word-spacing:0px;fill:#000000;fill-opacity:1;stroke:none;stroke-width:0.9375"
     x="302.69067"
     y="570.49829"
     id="text931"><tspan
       sodipodi:role="line"
       id="tspan929"
       x="302.69067"
       y="570.49829"
       style="font-size:15px;line-height:1.25;stroke-width:0.9375">wheel + as 30mm</tspan><tspan
       sodipodi:role="line"
       x="302.69067"
       y="589.24829"
       style="font-size:15px;line-height:1.25;stroke-width:0.9375"
       id="tspan933">gearbox width: 19mm</tspan><tspan
       sodipodi:role="line"
       x="302.69067"
       y="607.99829"
       style="font-size:15px;line-height:1.25;stroke-width:0.9375"
       id="tspan935">both wheel put: 79mm</tspan></text>
  <rect
     style="fill:none;stroke:#000000;stroke-width:0.35433072;stroke-miterlimit:4;stroke-dasharray:none;stroke-opacity:1"
     id="rect937"
     width="343.70087"
     height="42.519672"
     x="618.30707"
     y="414.56693" />
  <circle
     style="fill:none;stroke:#000000;stroke-width:0.35433072;stroke-miterlimit:4;stroke-dasharray:none;stroke-opacity:1"
     id="path939"
     cx="790.15747"
     cy="435.82678"
     r="14.173211" />
  <ellipse
     ry="5.3149538"
     rx="5.3149514"
     cy="435.82678"
     cx="630.70868"
     id="ellipse941"
     style="fill:none;stroke:#000000;stroke-width:0.35433072;stroke-miterlimit:4;stroke-dasharray:none;stroke-opacity:1" />
  <ellipse
     style="fill:none;stroke:#000000;stroke-width:0.35433072;stroke-miterlimit:4;stroke-dasharray:none;stroke-opacity:1"
     id="ellipse943"
     cx="949.60632"
     cy="435.82678"
     rx="5.3149514"
     ry="5.3149538" />
  <path
     inkscape:transform-center-y="-1.1295376e-06"
     inkscape:transform-center-x="1.4489562e-06"
     d="m 554.5276,326.42719 -9.58939,-5.53639 -4e-5,-11.07285 9.58935,-5.53646 9.58939,5.53639 4e-5,11.07285 z"
     inkscape:randomized="0"
     inkscape:rounded="0"
     inkscape:flatsided="true"
     sodipodi:arg2="2.0943917"
     sodipodi:arg1="1.5707929"
     sodipodi:r2="9.97293"
     sodipodi:r1="11.072849"
     sodipodi:cy="315.35433"
     sodipodi:cx="554.52756"
     sodipodi:sides="6"
     id="path945"
     style="fill:none;stroke:#000000;stroke-width:0.35433072;stroke-miterlimit:4;stroke-dasharray:none;stroke-opacity:1"
     sodipodi:type="star" />
  <rect
     style="fill:none;stroke:#000000;stroke-width:0.35433072;stroke-miterlimit:4;stroke-dasharray:none;stroke-opacity:1"
     id="rect957"
     width="67.32283"
     height="77.952759"
     x="520.86615"
     y="485.43307" />
  <rect
     style="fill:none;stroke:#000000;stroke-width:0.35433072;stroke-miterlimit:4;stroke-dasharray:none;stroke-opacity:1"
     id="rect961"
     width="14.173228"
     height="17.716536"
     x="547.44092"
     y="515.55121" />
  <ellipse
     style="fill:none;stroke:#000000;stroke-width:0.35433072;stroke-miterlimit:4;stroke-dasharray:none;stroke-opacity:1"
     id="path963"
     cx="517.32288"
     cy="453.54333"
     rx="3.5433071"
     ry="3.5433035" />
  <ellipse
     ry="3.5433035"
     rx="3.5433071"
     cy="411.02362"
     cx="517.32281"
     id="ellipse965"
     style="fill:none;stroke:#000000;stroke-width:0.35433072;stroke-miterlimit:4;stroke-dasharray:none;stroke-opacity:1" />
  <ellipse
     style="fill:none;stroke:#000000;stroke-width:0.35433072;stroke-miterlimit:4;stroke-dasharray:none;stroke-opacity:1"
     id="ellipse967"
     cx="517.32281"
     cy="375.59055"
     rx="3.5433071"
     ry="3.5433035" />
  <ellipse
     ry="3.5433035"
     rx="3.5433071"
     cy="375.59055"
     cx="591.7323"
     id="ellipse969"
     style="fill:none;stroke:#000000;stroke-width:0.35433072;stroke-miterlimit:4;stroke-dasharray:none;stroke-opacity:1" />
  <ellipse
     style="fill:none;stroke:#000000;stroke-width:0.35433072;stroke-miterlimit:4;stroke-dasharray:none;stroke-opacity:1"
     id="ellipse971"
     cx="591.7323"
     cy="411.02362"
     rx="3.5433071"
     ry="3.5433035" />
  <ellipse
     ry="3.5433035"
     rx="3.5433071"
     cy="453.5433"
     cx="591.7323"
     id="ellipse973"
     style="fill:none;stroke:#000000;stroke-width:0.35433072;stroke-miterlimit:4;stroke-dasharray:none;stroke-opacity:1" />
  <circle
     style="fill:none;stroke:#000000;stroke-width:0.35433072;stroke-miterlimit:4;stroke-dasharray:none;stroke-opacity:1"
     id="path915"
     cx="630.70868"
     cy="435.82678"
     r="14.173243" />
  <rect
     style="fill:none;stroke:#000000;stroke-width:0.35433072;stroke-miterlimit:4;stroke-dasharray:none;stroke-opacity:1"
     id="rect919"
     width="33.661377"
     height="7.0866156"
     x="597.04724"
     y="435.82678" />
  <circle
     style="fill:none;stroke:#000000;stroke-width:0.35433072;stroke-miterlimit:4;stroke-dasharray:none;stroke-opacity:1"
     id="path921"
     cx="618.30707"
     cy="435.82678"
     r="21.259844" />
  <circle
     r="21.25985"
     cy="481.88977"
     cx="630.70868"
     id="circle923"
     style="fill:none;stroke:#000000;stroke-width:0.35433072;stroke-miterlimit:4;stroke-dasharray:none;stroke-opacity:1" />
  <ellipse
     style="fill:none;stroke:#000000;stroke-width:0.35433072;stroke-miterlimit:4;stroke-dasharray:none;stroke-opacity:1"
     id="ellipse925"
     cx="630.70868"
     cy="481.88977"
     rx="5.3149514"
     ry="5.3149538" />
  <circle
     r="14.616156"
     cy="435.82678"
     cx="949.60632"
     id="circle933"
     style="fill:none;stroke:#000000;stroke-width:0.35433072;stroke-miterlimit:4;stroke-dasharray:none;stroke-opacity:1" />
  <rect
     y="435.82678"
     x="949.60632"
     height="7.0866156"
     width="33.661377"
     id="rect935"
     style="fill:none;stroke:#000000;stroke-width:0.35433072;stroke-miterlimit:4;stroke-dasharray:none;stroke-opacity:1" />
  <circle
     r="21.259844"
     cy="435.82678"
     cx="962.00787"
     id="circle937"
     style="fill:none;stroke:#000000;stroke-width:0.35433072;stroke-miterlimit:4;stroke-dasharray:none;stroke-opacity:1" />
  <circle
     style="fill:none;stroke:#000000;stroke-width:0.35433072;stroke-miterlimit:4;stroke-dasharray:none;stroke-opacity:1"
     id="path1591"
     cx="612.99213"
     cy="669.685"
     r="21.259802" />
  <circle
     style="fill:none;stroke:#000000;stroke-width:0.35433072;stroke-miterlimit:4;stroke-dasharray:none;stroke-opacity:1"
     id="path1593"
     cx="612.99213"
     cy="648.42517"
     r="10.629914" />
  <ellipse
     style="fill:none;stroke:#000000;stroke-width:0.35433072;stroke-miterlimit:4;stroke-dasharray:none;stroke-opacity:1"
     id="path1597"
     cx="612.99213"
     cy="719.29132"
     rx="3.5433106"
     ry="3.5433052" />
  <rect
     style="fill:none;stroke:#000000;stroke-width:0.35433072;stroke-miterlimit:4;stroke-dasharray:none;stroke-opacity:1"
     id="rect921"
     width="42.519684"
     height="80.787399"
     x="591.7323"
     y="610.15747" />
  <rect
     style="fill:none;stroke:#000000;stroke-width:0.35433072;stroke-miterlimit:4;stroke-dasharray:none;stroke-opacity:1"
     id="rect927"
     width="21.259863"
     height="124.01575"
     x="602.36218"
     y="659.05511" />
  <ellipse
     style="fill:none;stroke:#000000;stroke-width:0.35433072;stroke-miterlimit:4;stroke-dasharray:none;stroke-opacity:1"
     id="path932"
     cx="612.99213"
     cy="669.685"
     rx="3.5433035"
     ry="3.5433049" />
  <circle
     style="fill:none;stroke:#000000;stroke-width:0.35433072;stroke-miterlimit:4;stroke-dasharray:none;stroke-opacity:1"
     id="path936"
     cx="612.99213"
     cy="772.44092"
     r="5.3149624" />
  <circle
     style="fill:none;stroke:#000000;stroke-width:0.35433072;stroke-miterlimit:4;stroke-dasharray:none;stroke-opacity:1"
     id="path938"
     cx="790.15747"
     cy="471.25983"
     r="12.401567" />
  <ellipse
     ry="5.3149538"
     rx="5.3149514"
     cy="471.25986"
     cx="790.15747"
     id="ellipse945"
     style="fill:none;stroke:#000000;stroke-width:0.35433072;stroke-miterlimit:4;stroke-dasharray:none;stroke-opacity:1" />
  <circle
     style="fill:none;stroke:#000000;stroke-width:0.35433072;stroke-miterlimit:4;stroke-dasharray:none;stroke-opacity:1"
     id="circle947"
     cx="676.77167"
     cy="481.88977"
     r="21.25985" />
  <ellipse
     ry="5.3149538"
     rx="5.3149514"
     cy="481.88977"
     cx="676.77167"
     id="ellipse949"
     style="fill:none;stroke:#000000;stroke-width:0.35433072;stroke-miterlimit:4;stroke-dasharray:none;stroke-opacity:1" />
  <ellipse
     ry="5.3149538"
     rx="5.3149514"
     cy="471.25986"
     cx="818.50391"
     id="ellipse951"
     style="fill:none;stroke:#000000;stroke-width:0.35433072;stroke-miterlimit:4;stroke-dasharray:none;stroke-opacity:1" />
  <circle
     style="fill:none;stroke:#000000;stroke-width:0.35433072;stroke-miterlimit:4;stroke-dasharray:none;stroke-opacity:1"
     id="circle953"
     cx="818.50397"
     cy="471.25986"
     r="12.401567" />
  <path
     style="fill:none;stroke:#000000;stroke-width:0.35433072;stroke-miterlimit:4;stroke-dasharray:none;stroke-opacity:1"
     d="m 1091.3386,426.96856 a 21.25985,21.25985 0 0 0 -21.2604,21.26037 21.25985,21.25985 0 0 0 21.2604,21.26038 21.25985,21.25985 0 0 0 21.2604,-21.26038 21.25985,21.25985 0 0 0 -21.2604,-21.26037 z m 0,15.94482 a 5.3149514,5.3149538 0 0 1 5.3155,5.31555 5.3149514,5.3149538 0 0 1 -5.3155,5.31556 5.3149514,5.3149538 0 0 1 -5.3156,-5.31556 5.3149514,5.3149538 0 0 1 5.3156,-5.31555 z"
     id="circle955"
     inkscape:connector-curvature="0" />
  <rect
     style="fill:none;stroke:#000000;stroke-width:0.35433072;stroke-miterlimit:4;stroke-dasharray:none;stroke-opacity:1"
     id="rect969"
     width="318.89764"
     height="14.173221"
     x="630.70868"
     y="396.8504" />
  <circle
     style="fill:none;stroke:#000000;stroke-width:0.35433072;stroke-miterlimit:4;stroke-dasharray:none;stroke-opacity:1"
     id="circle995"
     cx="864.56696"
     cy="481.88977"
     r="21.25985" />
  <ellipse
     ry="5.3149538"
     rx="5.3149514"
     cy="481.88977"
     cx="864.56696"
     id="ellipse997"
     style="fill:none;stroke:#000000;stroke-width:0.35433072;stroke-miterlimit:4;stroke-dasharray:none;stroke-opacity:1" />
  <circle
     r="21.25985"
     cy="481.88977"
     cx="910.63"
     id="circle999"
     style="fill:none;stroke:#000000;stroke-width:0.35433072;stroke-miterlimit:4;stroke-dasharray:none;stroke-opacity:1" />
  <ellipse
     style="fill:none;stroke:#000000;stroke-width:0.35433072;stroke-miterlimit:4;stroke-dasharray:none;stroke-opacity:1"
     id="ellipse1001"
     cx="910.63"
     cy="481.88977"
     rx="5.3149514"
     ry="5.3149538" />
  <circle
     style="fill:none;stroke:#000000;stroke-width:0.35433072;stroke-miterlimit:4;stroke-dasharray:none;stroke-opacity:1"
     id="circle1003"
     cx="956.69305"
     cy="481.88977"
     r="21.25985" />
  <ellipse
     ry="5.3149538"
     rx="5.3149514"
     cy="481.88977"
     cx="956.69305"
     id="ellipse1005"
     style="fill:none;stroke:#000000;stroke-width:0.35433072;stroke-miterlimit:4;stroke-dasharray:none;stroke-opacity:1" />
  <path
     style="fill:none;stroke:#000000;stroke-width:0.35433072;stroke-miterlimit:4;stroke-dasharray:none;stroke-opacity:1"
     d="m 1332.2846,561.61389 v 74.4104 h -10.6311 v 14.17236 h 10.6311 v 21.26038 h -10.6311 v 14.17236 h 10.6311 v 28.34656 h -10.6311 v 14.17419 h 10.6311 v 14.17237 h 67.3224 v -14.17237 h 10.6293 v -14.17419 h -10.6293 v -28.34473 h 10.6293 v -14.17419 h -10.6293 v -21.26038 h 10.6293 v -14.17236 h -10.6293 v -74.4104 z m 33.6603,10.18798 9.5892,5.53528 v 11.07422 l -9.5892,5.53528 -9.5892,-5.53528 v -11.07422 z m -37.2052,67.76551 a 3.543307,3.5433035 0 0 1 3.5449,3.54309 3.543307,3.5433035 0 0 1 -3.5449,3.54309 3.543307,3.5433035 0 0 1 -3.5431,-3.54309 3.543307,3.5433035 0 0 1 3.5431,-3.54309 z m 74.4104,0 a 3.543307,3.5433035 0 0 1 3.5431,3.54309 3.543307,3.5433035 0 0 1 -3.5431,3.54309 3.543307,3.5433035 0 0 1 -3.5431,-3.54309 3.543307,3.5433035 0 0 1 3.5431,-3.54309 z m -74.4104,35.43274 a 3.543307,3.5433035 0 0 1 3.5449,3.54309 3.543307,3.5433035 0 0 1 -3.5449,3.54309 3.543307,3.5433035 0 0 1 -3.5431,-3.54309 3.543307,3.5433035 0 0 1 3.5431,-3.54309 z m 74.4104,0 a 3.543307,3.5433035 0 0 1 3.5431,3.54309 3.543307,3.5433035 0 0 1 -3.5431,3.54309 3.543307,3.5433035 0 0 1 -3.5431,-3.54309 3.543307,3.5433035 0 0 1 3.5431,-3.54309 z m -37.2052,13.73107 9.5892,5.53529 v 11.07421 l -9.5892,5.53529 -9.5892,-5.53529 v -11.07421 z m -37.2034,28.78968 a 3.543307,3.5433035 0 0 1 3.5431,3.5431 3.543307,3.5433035 0 0 1 -3.5431,3.54308 3.543307,3.5433035 0 0 1 -3.5449,-3.54308 3.543307,3.5433035 0 0 1 3.5449,-3.5431 z m 74.4086,0 a 3.543307,3.5433035 0 0 1 3.5431,3.5431 3.543307,3.5433035 0 0 1 -3.5431,3.54308 3.543307,3.5433035 0 0 1 -3.5431,-3.54308 3.543307,3.5433035 0 0 1 3.5431,-3.5431 z"
     id="rect1007"
     inkscape:connector-curvature="0" />
  <path
     inkscape:connector-curvature="0"
     id="path1040"
     d="m 862.79567,648.42363 a 21.259844,21.259844 0 0 0 -21.2603,21.26037 21.259844,21.259844 0 0 0 21.2603,21.26038 h 343.70013 a 21.259844,21.259844 0 0 0 21.2603,-21.26038 21.259844,21.259844 0 0 0 -21.2603,-21.26037 z m 331.29833,6.6449 a 14.616156,14.616156 0 0 1 14.6173,14.61547 14.616156,14.616156 0 0 1 -14.6173,14.61548 14.616156,14.616156 0 0 1 -14.6155,-14.61548 14.616156,14.616156 0 0 1 14.6155,-14.61547 z m -318.89843,0.44128 a 14.173242,14.173242 0 0 1 14.1742,14.17419 14.173242,14.173242 0 0 1 -14.1742,14.17237 14.173242,14.173242 0 0 1 -14.1723,-14.17237 14.173242,14.173242 0 0 1 14.1723,-14.17419 z m 159.45013,0.002 a 14.173211,14.173211 0 0 1 14.1724,14.17236 14.173211,14.173211 0 0 1 -14.1724,14.17237 14.173211,14.173211 0 0 1 -14.1742,-14.17237 14.173211,14.173211 0 0 1 14.1742,-14.17236 z"
     style="fill:none;stroke:#000000;stroke-width:0.35433072;stroke-miterlimit:4;stroke-dasharray:none;stroke-opacity:1" />
  <circle
     r="21.259802"
     cy="719.29132"
     cx="1022.2441"
     id="circle1042"
     style="fill:none;stroke:#000000;stroke-width:0.35433072;stroke-miterlimit:4;stroke-dasharray:none;stroke-opacity:1" />
  <circle
     r="10.629914"
     cy="698.03149"
     cx="1022.2441"
     id="circle1044"
     style="fill:none;stroke:#000000;stroke-width:0.35433072;stroke-miterlimit:4;stroke-dasharray:none;stroke-opacity:1" />
  <rect
     style="fill:none;stroke:#000000;stroke-width:0.35433072;stroke-miterlimit:4;stroke-dasharray:none;stroke-opacity:1"
     id="rect945"
     width="42.519623"
     height="17.716509"
     x="1000.9843"
     y="740.55121" />
  <rect
     style="fill:none;stroke:#000000;stroke-width:0.35433072;stroke-miterlimit:4;stroke-dasharray:none;stroke-opacity:1"
     id="rect949"
     width="42.519688"
     height="17.716536"
     x="1000.9843"
     y="642.22443" />
  <ellipse
     ry="3.5433049"
     rx="3.5433035"
     cy="719.29132"
     cx="1022.2441"
     id="ellipse1052"
     style="fill:none;stroke:#000000;stroke-width:0.35433072;stroke-miterlimit:4;stroke-dasharray:none;stroke-opacity:1" />
  <path
     inkscape:connector-curvature="0"
     id="path946"
     d="m 1022.2456,804.92493 c 11.508,10e-6 23.015,-2.55862 30.1172,-7.67761 14.2043,-10.23798 -9e-4,-28.34752 14.1723,-42.52074 14.1733,-14.1732 127.5586,-14.1742 127.5586,-14.1742 11.7419,3e-4 21.2607,-9.5185 21.2604,-21.2604 3e-4,-11.7419 -9.5185,-21.2606 -21.2604,-21.2604 0,0 -127.5581,0 -134.6447,-7.0843 -7.0866,-7.0866 -3.5428,-10.6284 -7.0862,-14.1724 -3.5435,-3.544 -56.69308,-3.544 -60.23618,0 -3.54309,3.5441 3.8e-4,7.0858 -7.08618,14.1724 -7.08666,7.0866 -134.64666,7.0843 -134.64666,7.0843 -11.74191,-2e-4 -21.26062,9.5185 -21.26034,21.2604 -2.8e-4,11.7419 9.51843,21.2607 21.26034,21.2604 0,0 113.38538,6e-4 127.55859,14.1742 14.17322,14.17321 -0.0301,32.28279 14.17425,42.52074 7.10213,5.11898 18.61108,7.67761 30.11898,7.67761 z m 0,-13.87756 a 3.5433128,3.5433073 0 0 1 -3.5431,-3.54492 3.5433128,3.5433073 0 0 1 3.5431,-3.54309 3.5433128,3.5433073 0 0 1 3.5449,3.54309 3.5433128,3.5433073 0 0 1 -3.5449,3.54492 z m 21.2603,-12.40174 h -42.5189 v -80.61035 h 42.5189 z M 862.79528,733.90748 c -8.07244,6e-4 -14.61694,-6.543 -14.61731,-14.6155 3.7e-4,-8.0724 6.54487,-14.6161 14.61731,-14.6155 8.07178,4e-4 14.61516,6.5438 14.61553,14.6155 -3.7e-4,8.0718 -6.54375,14.6152 -14.61553,14.6155 z m 318.89832,-0.4413 c -7.8284,5e-4 -14.1747,-6.3458 -14.1742,-14.1742 5e-4,-7.8277 6.3465,-14.1729 14.1742,-14.1723 7.827,4e-4 14.1719,6.3453 14.1724,14.1723 5e-4,7.8277 -6.3447,14.1737 -14.1724,14.1742 z m -159.45,-40.7464 a 3.543307,3.543307 0 0 1 -3.5431,-3.5431 3.543307,3.543307 0 0 1 3.5431,-3.5431 3.543307,3.543307 0 0 1 3.5449,3.5431 3.543307,3.543307 0 0 1 -3.5449,3.5431 z"
     style="fill:none;stroke:#000000;stroke-width:0.35433072;stroke-miterlimit:4;stroke-dasharray:none;stroke-opacity:1" />
  <path
     style="fill:none;stroke:#000000;stroke-width:0.37795275;stroke-miterlimit:4;stroke-dasharray:none;stroke-opacity:1"
     d="M 1031.8105 891.96875 C 1027.6228 891.96875 1024.252 895.33964 1024.252 899.52734 L 1024.252 907.08594 L 918.42578 907.08594 C 914.23808 907.08594 910.86523 910.45878 910.86523 914.64648 L 910.86523 952.44141 C 910.86523 956.62911 914.23808 960 918.42578 960 L 1024.252 960 L 1024.252 967.55859 C 1024.252 971.7463 1027.6228 975.11719 1031.8105 975.11719 L 1145.1973 975.11719 C 1149.385 975.11719 1152.7559 971.7463 1152.7559 967.55859 L 1152.7559 960 L 1258.582 960 C 1262.7697 960 1266.1426 956.62911 1266.1426 952.44141 L 1266.1426 914.64648 C 1266.1426 910.45878 1262.7697 907.08594 1258.582 907.08594 L 1152.7559 907.08594 L 1152.7559 899.52734 C 1152.7559 895.33964 1149.385 891.96875 1145.1973 891.96875 L 1031.8105 891.96875 z M 1045.0391 910.86523 L 1131.9688 910.86523 L 1131.9688 956.2207 L 1045.0391 956.2207 L 1045.0391 910.86523 z M 924.09375 927.40234 A 6.1417017 6.1417836 0 0 1 930.23633 933.54297 A 6.1417017 6.1417836 0 0 1 924.09375 939.68555 A 6.1417017 6.1417836 0 0 1 917.95312 933.54297 A 6.1417017 6.1417836 0 0 1 924.09375 927.40234 z M 1252.9141 927.40234 A 6.1417017 6.1417836 0 0 1 1259.0547 933.54297 A 6.1417017 6.1417836 0 0 1 1252.9141 939.68555 A 6.1417017 6.1417836 0 0 1 1246.7715 933.54297 A 6.1417017 6.1417836 0 0 1 1252.9141 927.40234 z M 988.3457 927.875 A 5.6693024 5.6693024 0 0 1 994.01562 933.54297 A 5.6693024 5.6693024 0 0 1 988.3457 939.21289 A 5.6693024 5.6693024 0 0 1 982.67773 933.54297 A 5.6693024 5.6693024 0 0 1 988.3457 927.875 z M 1207.5586 927.875 A 5.6692774 5.6692774 0 0 1 1213.2285 933.54297 A 5.6692774 5.6692774 0 0 1 1207.5586 939.21289 A 5.6692774 5.6692774 0 0 1 1201.8906 933.54297 A 5.6692774 5.6692774 0 0 1 1207.5586 927.875 z M 1035.5898 929.76367 A 3.7795278 3.7795275 0 0 1 1039.3691 933.54297 A 3.7795278 3.7795275 0 0 1 1035.5898 937.32227 A 3.7795278 3.7795275 0 0 1 1031.8105 933.54297 A 3.7795278 3.7795275 0 0 1 1035.5898 929.76367 z M 1141.418 929.76367 A 3.7795212 3.7795275 0 0 1 1145.1973 933.54297 A 3.7795212 3.7795275 0 0 1 1141.418 937.32227 A 3.7795212 3.7795275 0 0 1 1137.6387 933.54297 A 3.7795212 3.7795275 0 0 1 1141.418 929.76367 z "
     transform="scale(0.9375)"
     id="rect970" />
  <path
     style="fill:none;stroke:#000000;stroke-width:0.37795275;stroke-miterlimit:4;stroke-dasharray:none;stroke-opacity:1"
     d="m 260.78711,1134.8027 v 81.2598 H 1402.2051 v -81.2598 z"
     transform="scale(0.9375)"
     id="path2922" />
  <path
     style="fill:none;stroke:#000000;stroke-width:0.37795275;stroke-miterlimit:4;stroke-dasharray:none;stroke-opacity:1"
     d="m 304.25195,1160.3145 h 30.23633 c 8.37543,0 15.11719,6.7437 15.11719,15.1191 0,8.3754 -6.74176,15.1172 -15.11719,15.1172 h -30.23633 c -8.37543,0 -15.11718,-6.7418 -15.11718,-15.1172 0,-8.3754 6.74175,-15.1191 15.11718,-15.1191 z"
     transform="scale(0.9375)"
     id="path2920" />
  <path
     style="fill:none;stroke:#000000;stroke-width:0.37795275;stroke-miterlimit:4;stroke-dasharray:none;stroke-opacity:1"
     d="m 389.29102,1160.3145 a 15.118113,15.118109 0 0 1 15.11914,15.1191 15.118113,15.118109 0 0 1 -15.11914,15.1172 15.118113,15.118109 0 0 1 -15.11719,-15.1172 15.118113,15.118109 0 0 1 15.11719,-15.1191 z"
     transform="scale(0.9375)"
     id="path2918" />
  <path
     style="fill:none;stroke:#000000;stroke-width:0.37795275;stroke-miterlimit:4;stroke-dasharray:none;stroke-opacity:1"
     d="m 444.09375,1160.3145 h 30.23633 c 8.37543,0 15.11914,6.7437 15.11914,15.1191 0,8.3754 -6.74371,15.1172 -15.11914,15.1172 h -30.23633 c -8.37543,0 -15.11719,-6.7418 -15.11719,-15.1172 0,-8.3754 6.74176,-15.1191 15.11719,-15.1191 z"
     transform="scale(0.9375)"
     id="path2916" />
  <path
     style="fill:none;stroke:#000000;stroke-width:0.37795275;stroke-miterlimit:4;stroke-dasharray:none;stroke-opacity:1"
     d="m 529.13477,1160.3145 a 15.118113,15.118109 0 0 1 15.11718,15.1191 15.118113,15.118109 0 0 1 -15.11718,15.1172 15.118113,15.118109 0 0 1 -15.11915,-15.1172 15.118113,15.118109 0 0 1 15.11915,-15.1191 z"
     transform="scale(0.9375)"
     id="path2914" />
  <path
     style="fill:none;stroke:#000000;stroke-width:0.37795275;stroke-miterlimit:4;stroke-dasharray:none;stroke-opacity:1"
     d="m 583.9375,1160.3145 h 30.23633 c 8.37543,0 15.11719,6.7437 15.11719,15.1191 0,8.3754 -6.74176,15.1172 -15.11719,15.1172 H 583.9375 c -8.37543,0 -15.11914,-6.7418 -15.11914,-15.1172 0,-8.3754 6.74371,-15.1191 15.11914,-15.1191 z"
     transform="scale(0.9375)"
     id="path2912" />
  <path
     style="fill:none;stroke:#000000;stroke-width:0.37795275;stroke-miterlimit:4;stroke-dasharray:none;stroke-opacity:1"
     d="m 668.97656,1160.3145 a 15.118113,15.118109 0 0 1 15.11719,15.1191 15.118113,15.118109 0 0 1 -15.11719,15.1172 15.118113,15.118109 0 0 1 -15.11914,-15.1172 15.118113,15.118109 0 0 1 15.11914,-15.1191 z"
     transform="scale(0.9375)"
     id="path2910" />
  <path
     style="fill:none;stroke:#000000;stroke-width:0.37795275;stroke-miterlimit:4;stroke-dasharray:none;stroke-opacity:1"
     d="m 723.7793,1160.3145 h 30.23632 c 8.37544,0 15.11915,6.7437 15.11915,15.1191 0,8.3754 -6.74371,15.1172 -15.11915,15.1172 H 723.7793 c -8.37544,0 -15.11719,-6.7418 -15.11719,-15.1172 0,-8.3754 6.74175,-15.1191 15.11719,-15.1191 z"
     transform="scale(0.9375)"
     id="path2908" />
  <path
     style="fill:none;stroke:#000000;stroke-width:0.37795275;stroke-miterlimit:4;stroke-dasharray:none;stroke-opacity:1"
     d="m 805.03906,1160.3145 a 15.118113,15.118109 0 0 1 15.11914,15.1191 15.118113,15.118109 0 0 1 -15.11914,15.1172 15.118113,15.118109 0 0 1 -15.11718,-15.1172 15.118113,15.118109 0 0 1 15.11718,-15.1191 z"
     transform="scale(0.9375)"
     id="path2906" />
  <path
     style="fill:none;stroke:#000000;stroke-width:0.37795275;stroke-miterlimit:4;stroke-dasharray:none;stroke-opacity:1"
     d="m 857.95312,1160.3145 a 15.118113,15.118109 0 0 1 15.11719,15.1191 15.118113,15.118109 0 0 1 -15.11719,15.1172 15.118113,15.118109 0 0 1 -15.11914,-15.1172 15.118113,15.118109 0 0 1 15.11914,-15.1191 z"
     transform="scale(0.9375)"
     id="path2904" />
  <path
     style="fill:none;stroke:#000000;stroke-width:0.37795275;stroke-miterlimit:4;stroke-dasharray:none;stroke-opacity:1"
     d="m 908.97656,1160.3145 h 30.23633 c 8.37543,0 15.11719,6.7437 15.11719,15.1191 0,8.3754 -6.74176,15.1172 -15.11719,15.1172 h -30.23633 c -8.37543,0 -15.11914,-6.7418 -15.11914,-15.1172 0,-8.3754 6.74371,-15.1191 15.11914,-15.1191 z"
     transform="scale(0.9375)"
     id="path2902" />
  <path
     style="fill:none;stroke:#000000;stroke-width:0.37795275;stroke-miterlimit:4;stroke-dasharray:none;stroke-opacity:1"
     d="m 994.01562,1160.3145 a 15.118113,15.118109 0 0 1 15.11918,15.1191 15.118113,15.118109 0 0 1 -15.11918,15.1172 15.118113,15.118109 0 0 1 -15.11718,-15.1172 15.118113,15.118109 0 0 1 15.11718,-15.1191 z"
     transform="scale(0.9375)"
     id="path2900" />
  <path
     style="fill:none;stroke:#000000;stroke-width:0.37795275;stroke-miterlimit:4;stroke-dasharray:none;stroke-opacity:1"
     d="m 1048.8184,1160.3145 h 30.2363 c 8.3754,0 15.1191,6.7437 15.1191,15.1191 0,8.3754 -6.7437,15.1172 -15.1191,15.1172 h -30.2363 c -8.3755,0 -15.1172,-6.7418 -15.1172,-15.1172 0,-8.3754 6.7417,-15.1191 15.1172,-15.1191 z"
     transform="scale(0.9375)"
     id="path2898" />
  <path
     style="fill:none;stroke:#000000;stroke-width:0.37795275;stroke-miterlimit:4;stroke-dasharray:none;stroke-opacity:1"
     d="m 1133.8594,1160.3145 a 15.118113,15.118109 0 0 1 15.1172,15.1191 15.118113,15.118109 0 0 1 -15.1172,15.1172 15.118113,15.118109 0 0 1 -15.1192,-15.1172 15.118113,15.118109 0 0 1 15.1192,-15.1191 z"
     transform="scale(0.9375)"
     id="path2896" />
  <path
     style="fill:none;stroke:#000000;stroke-width:0.37795275;stroke-miterlimit:4;stroke-dasharray:none;stroke-opacity:1"
     d="m 1188.6621,1160.3145 h 30.2363 c 8.3755,0 15.1172,6.7437 15.1172,15.1191 0,8.3754 -6.7417,15.1172 -15.1172,15.1172 h -30.2363 c -8.3754,0 -15.1191,-6.7418 -15.1191,-15.1172 0,-8.3754 6.7437,-15.1191 15.1191,-15.1191 z"
     transform="scale(0.9375)"
     id="path2894" />
  <path
     style="fill:none;stroke:#000000;stroke-width:0.37795275;stroke-miterlimit:4;stroke-dasharray:none;stroke-opacity:1"
     d="m 1273.7012,1160.3145 a 15.118113,15.118109 0 0 1 15.1172,15.1191 15.118113,15.118109 0 0 1 -15.1172,15.1172 15.118113,15.118109 0 0 1 -15.1192,-15.1172 15.118113,15.118109 0 0 1 15.1192,-15.1191 z"
     transform="scale(0.9375)"
     id="path2892" />
  <path
     style="fill:none;stroke:#000000;stroke-width:0.37795275;stroke-miterlimit:4;stroke-dasharray:none;stroke-opacity:1"
     d="m 1328.5039,1160.3145 h 30.2363 c 8.3755,0 15.1172,6.7437 15.1172,15.1191 0,8.3754 -6.7417,15.1172 -15.1172,15.1172 h -30.2363 c -8.3754,0 -15.1172,-6.7418 -15.1172,-15.1172 0,-8.3754 6.7418,-15.1191 15.1172,-15.1191 z"
     transform="scale(0.9375)"
     id="path2845" />
  <path
     style="fill:none;stroke:#000000;stroke-width:0.35433072;stroke-miterlimit:4;stroke-dasharray:none;stroke-opacity:1"
     d="m 1429.724,1063.878 v 76.1811 h 488.9776 v -76.1811 z m 26.5759,23.9173 h 28.3465 c 7.852,0 14.1724,6.3223 14.1724,14.1742 0,7.8519 -6.3204,14.1723 -14.1724,14.1723 h -28.3465 c -7.8518,0 -14.1742,-6.3204 -14.1742,-14.1723 0,-7.8519 6.3224,-14.1742 14.1742,-14.1742 z m 79.7242,0 a 14.173231,14.173227 0 0 1 14.1741,14.1742 14.173231,14.173227 0 0 1 -14.1741,14.1723 14.173231,14.173227 0 0 1 -14.1724,-14.1723 14.173231,14.173227 0 0 1 14.1724,-14.1742 z m 51.3775,0 h 28.3465 c 7.852,0 14.1743,6.3223 14.1743,14.1742 0,7.8519 -6.3223,14.1723 -14.1743,14.1723 h -28.3465 c -7.852,0 -14.1724,-6.3204 -14.1724,-14.1723 0,-7.8519 6.3204,-14.1742 14.1724,-14.1742 z m 79.7259,0 a 14.173231,14.173227 0 0 1 14.1724,14.1742 14.173231,14.173227 0 0 1 -14.1724,14.1723 14.173231,14.173227 0 0 1 -14.1741,-14.1723 14.173231,14.173227 0 0 1 14.1741,-14.1742 z m 51.3777,0 h 28.3465 c 7.8521,0 14.1724,6.3223 14.1724,14.1742 0,7.8519 -6.3203,14.1723 -14.1724,14.1723 h -28.3465 c -7.852,0 -14.1743,-6.3204 -14.1743,-14.1723 0,-7.8519 6.3223,-14.1742 14.1743,-14.1742 z m 79.724,0 a 14.173231,14.173227 0 0 1 14.1724,14.1742 14.173231,14.173227 0 0 1 -14.1724,14.1723 14.173231,14.173227 0 0 1 -14.1741,-14.1723 14.173231,14.173227 0 0 1 14.1741,-14.1742 z m 51.3776,0 h 28.3466 c 7.852,0 14.1723,6.3223 14.1723,14.1742 0,7.8519 -6.3203,14.1723 -14.1723,14.1723 h -28.3466 c -7.852,0 -14.1723,-6.3204 -14.1723,-14.1723 0,-7.8519 6.3203,-14.1742 14.1723,-14.1742 z"
     id="rect2940"
     inkscape:connector-curvature="0" />
  <path
     style="fill:none;stroke:#000000;stroke-width:0.35433072;stroke-miterlimit:4;stroke-dasharray:none;stroke-opacity:1"
     d="m 1640.5512,797.24434 v 124.0155 h 113.3858 v -124.0155 z m 56.6897,8.85836 c 1.9575,-8.8e-4 3.5448,1.58564 3.5449,3.5431 -1e-4,1.95746 -1.5874,3.54398 -3.5449,3.5431 -1.9568,-1.1e-4 -3.543,-1.58635 -3.5431,-3.5431 10e-5,-1.95675 1.5863,-3.54299 3.5431,-3.5431 z m -21.2568,12.4017 h 42.519 v 80.6104 h -42.519 z m -21.2603,15.9449 c 2.9358,-2.9e-4 5.3158,2.37971 5.3155,5.3155 -7e-4,2.93509 -2.3804,5.31399 -5.3155,5.3137 -2.9351,2.9e-4 -5.3148,-2.37861 -5.3155,-5.3137 -3e-4,-2.93579 2.3797,-5.31579 5.3155,-5.3155 z m 85.0397,0 c 2.9358,-2.9e-4 5.3158,2.37971 5.3155,5.3155 -7e-4,2.93509 -2.3804,5.31399 -5.3155,5.3137 -2.9351,3.5e-4 -5.3149,-2.37857 -5.3156,-5.3137 -3e-4,-2.93583 2.3798,-5.31585 5.3156,-5.3155 z m -42.5208,69.9792 c 1.9575,-9.3e-4 3.5449,1.58561 3.545,3.5431 9e-4,1.9582 -1.5868,3.54583 -3.545,3.5449 -1.9575,-1.2e-4 -3.544,-1.58745 -3.5431,-3.5449 10e-5,-1.95675 1.5863,-3.54298 3.5431,-3.5431 z"
     id="path2966"
     inkscape:connector-curvature="0"
     sodipodi:nodetypes="cccccccccccccccccccccccccccccc" />
  <path
     style="fill:none;stroke:#000000;stroke-width:0.35433072;stroke-miterlimit:4;stroke-dasharray:none;stroke-opacity:1"
     d="m 2154.3307,768.89764 v 8.85862 h -157.6776 c -18.5912,-3.7e-4 -33.6625,15.07092 -33.6621,33.66216 6e-4,18.59051 15.0716,33.66065 33.6621,33.66028 h 157.6776 v 47.83444 h 106.2982 V 845.0787 h 157.6776 c 18.5905,4.2e-4 33.6616,-15.06973 33.6622,-33.66028 4e-4,-18.59128 -15.0709,-33.66258 -33.6622,-33.66216 h -157.6776 v -8.85862 z m 53.1482,5.31553 6.1377,3.54309 v 7.08619 l -6.1377,3.54309 -6.1359,-3.54309 v -7.08619 z m 0,15.94481 c 11.7419,-3.1e-4 21.2607,9.5185 21.2604,21.26044 -0.011,7.58402 -4.0615,14.58783 -10.6293,18.38006 v 13.50956 h -21.2604 v -13.50215 c -6.5701,-3.79356 -10.6208,-10.8008 -10.6293,-18.38747 -3e-4,-11.74123 9.5174,-21.25975 21.2586,-21.26044 z m -210.8258,7.08619 c 7.8277,4.6e-4 14.173,6.34652 14.1724,14.17425 -5e-4,7.827 -6.3454,14.17191 -14.1724,14.17237 -7.8277,5.4e-4 -14.1737,-6.34467 -14.1742,-14.17237 -6e-4,-7.82844 6.3458,-14.17479 14.1742,-14.17425 z m 421.6534,0 c 7.8277,4.6e-4 14.173,6.34652 14.1724,14.17425 -5e-4,7.827 -6.3454,14.17191 -14.1724,14.17237 -7.8277,5.4e-4 -14.1737,-6.34467 -14.1742,-14.17237 -6e-4,-7.82844 6.3458,-14.17479 14.1742,-14.17425 z m -333.0707,8.85872 c 2.9358,-3.5e-4 5.3159,2.37969 5.3156,5.31553 -7e-4,2.93511 -2.3805,5.314 -5.3156,5.31365 -2.9351,3e-4 -5.3148,-2.37858 -5.3155,-5.31365 -3e-4,-2.9358 2.3797,-5.31583 5.3155,-5.31553 z m 79.7242,0 c 2.9358,-2.9e-4 5.3158,2.37973 5.3155,5.31553 -7e-4,2.93507 -2.3804,5.31394 -5.3155,5.31365 -2.9351,3.5e-4 -5.3149,-2.37854 -5.3156,-5.31365 -3e-4,-2.93584 2.3798,-5.31588 5.3156,-5.31553 z m 85.0397,0 c 2.9358,-2.9e-4 5.3158,2.37973 5.3155,5.31553 -7e-4,2.93507 -2.3804,5.31394 -5.3155,5.31365 -2.9351,3.5e-4 -5.3149,-2.37854 -5.3156,-5.31365 -3e-4,-2.93584 2.3798,-5.31588 5.3156,-5.31553 z m 79.7241,0 c 2.9358,-3e-4 5.3158,2.37973 5.3155,5.31553 -7e-4,2.93507 -2.3804,5.31395 -5.3155,5.31365 -2.9351,3.5e-4 -5.3149,-2.37854 -5.3156,-5.31365 -3e-4,-2.93584 2.3798,-5.31588 5.3156,-5.31553 z m -122.2449,69.97921 c 1.9581,-8.8e-4 3.5458,1.58673 3.5449,3.54488 -10e-5,1.95745 -1.5874,3.54397 -3.5449,3.54309 -1.9567,-1.1e-4 -3.543,-1.58634 -3.5431,-3.54309 -9e-4,-1.95745 1.5857,-3.54477 3.5431,-3.54488 z"
     id="path2977"
     inkscape:connector-curvature="0"
     sodipodi:nodetypes="ccccccccccccccccccccccccccccccccccccccccccccccccccccccccccccccccc" />
  <path
     style="fill:none;stroke:#000000;stroke-width:0.35433072;stroke-miterlimit:4;stroke-dasharray:none;stroke-opacity:1"
     d="m 1399.6061,802.1155 a 13.730315,13.730315 0 0 0 -13.731,13.7311 13.730315,13.730315 0 0 0 13.731,13.7292 13.730315,13.730315 0 0 0 13.7293,-13.7292 13.730315,13.730315 0 0 0 -13.7293,-13.7311 z m 0,8.4156 a 5.314961,5.314961 0 0 1 5.3156,5.3155 5.314961,5.314961 0 0 1 -5.3156,5.3137 5.314961,5.314961 0 0 1 -5.3155,-5.3137 5.314961,5.314961 0 0 1 5.3155,-5.3155 z"
     id="path3028"
     inkscape:connector-curvature="0" />
  <path
     style="fill:none;stroke:#000000;stroke-width:0.35433072;stroke-miterlimit:4;stroke-dasharray:none;stroke-opacity:1"
     d="m 1364.1731,798.1293 a 17.716536,17.716536 0 0 0 -17.7173,17.7173 17.716536,17.716536 0 0 0 17.7173,17.7155 17.716536,17.716536 0 0 0 17.7154,-17.7155 17.716536,17.716536 0 0 0 -17.7154,-17.7173 z m 0,12.4018 a 5.314961,5.314961 0 0 1 5.3155,5.3155 5.314961,5.314961 0 0 1 -5.3155,5.3137 5.314961,5.314961 0 0 1 -5.3156,-5.3137 5.314961,5.314961 0 0 1 5.3156,-5.3155 z"
     id="path3034"
     inkscape:connector-curvature="0" />
  <path
     inkscape:connector-curvature="0"
     id="path3042"
     d="m 1470.4723,802.1155 a 13.730315,13.730315 0 0 0 -13.7311,13.7311 13.730315,13.730315 0 0 0 13.7311,13.7292 13.730315,13.730315 0 0 0 13.7292,-13.7292 13.730315,13.730315 0 0 0 -13.7292,-13.7311 z m 0,8.4156 a 5.314961,5.314961 0 0 1 5.3156,5.3155 5.314961,5.314961 0 0 1 -5.3156,5.3137 5.314961,5.314961 0 0 1 -5.3155,-5.3137 5.314961,5.314961 0 0 1 5.3155,-5.3155 z"
     style="fill:none;stroke:#000000;stroke-width:0.35433072;stroke-miterlimit:4;stroke-dasharray:none;stroke-opacity:1" />
  <path
     inkscape:connector-curvature="0"
     id="path3044"
     d="m 1435.0392,798.1293 a 17.716536,17.716536 0 0 0 -17.7172,17.7173 17.716536,17.716536 0 0 0 17.7172,17.7155 17.716536,17.716536 0 0 0 17.7155,-17.7155 17.716536,17.716536 0 0 0 -17.7155,-17.7173 z m 0,12.4018 a 5.314961,5.314961 0 0 1 5.3156,5.3155 5.314961,5.314961 0 0 1 -5.3156,5.3137 5.314961,5.314961 0 0 1 -5.3155,-5.3137 5.314961,5.314961 0 0 1 5.3155,-5.3155 z"
     style="fill:none;stroke:#000000;stroke-width:0.35433072;stroke-miterlimit:4;stroke-dasharray:none;stroke-opacity:1" />
  <path
     inkscape:connector-curvature="0"
     id="path3064"
     d="m 1399.6062,834.0053 a 13.730315,13.730315 0 0 0 -13.7311,13.7311 13.730315,13.730315 0 0 0 13.7311,13.7292 13.730315,13.730315 0 0 0 13.7292,-13.7292 13.730315,13.730315 0 0 0 -13.7292,-13.7311 z m 0,8.4156 a 5.314961,5.314961 0 0 1 5.3155,5.3155 5.314961,5.314961 0 0 1 -5.3155,5.3137 5.314961,5.314961 0 0 1 -5.3156,-5.3137 5.314961,5.314961 0 0 1 5.3156,-5.3155 z"
     style="fill:none;stroke:#000000;stroke-width:0.35433072;stroke-miterlimit:4;stroke-dasharray:none;stroke-opacity:1" />
  <path
     style="fill:none;stroke:#000000;stroke-width:0.35433072;stroke-miterlimit:4;stroke-dasharray:none;stroke-opacity:1"
     d="m 1470.4723,834.0053 a 13.730315,13.730315 0 0 0 -13.7311,13.7311 13.730315,13.730315 0 0 0 13.7311,13.7292 13.730315,13.730315 0 0 0 13.7292,-13.7292 13.730315,13.730315 0 0 0 -13.7292,-13.7311 z m 0,8.4156 a 5.314961,5.314961 0 0 1 5.3155,5.3155 5.314961,5.314961 0 0 1 -5.3155,5.3137 5.314961,5.314961 0 0 1 -5.3156,-5.3137 5.314961,5.314961 0 0 1 5.3156,-5.3155 z"
     id="path3066"
     inkscape:connector-curvature="0" />
  <path
     inkscape:connector-curvature="0"
     id="path3091"
     d="m 1753.9381,561.61389 v 74.4104 h -10.6311 v 14.17236 h 10.6311 v 21.26038 h -10.6311 v 14.17236 h 10.6311 v 28.34656 h -10.6311 v 14.17419 h 10.6311 v 14.17237 h 67.3224 v -14.17237 h 10.6293 v -14.17419 h -10.6293 v -28.34473 h 10.6293 v -14.17419 h -10.6293 v -21.26038 h 10.6293 v -14.17236 h -10.6293 v -74.4104 z m 33.6603,10.18798 9.5892,5.53528 v 11.07422 l -9.5892,5.53528 -9.5892,-5.53528 v -11.07422 z m -37.2052,67.76551 a 3.543307,3.5433035 0 0 1 3.5449,3.54309 3.543307,3.5433035 0 0 1 -3.5449,3.54309 3.543307,3.5433035 0 0 1 -3.5431,-3.54309 3.543307,3.5433035 0 0 1 3.5431,-3.54309 z m 74.4104,0 a 3.543307,3.5433035 0 0 1 3.5431,3.54309 3.543307,3.5433035 0 0 1 -3.5431,3.54309 3.543307,3.5433035 0 0 1 -3.5431,-3.54309 3.543307,3.5433035 0 0 1 3.5431,-3.54309 z m -74.4104,35.43274 a 3.543307,3.5433035 0 0 1 3.5449,3.54309 3.543307,3.5433035 0 0 1 -3.5449,3.54309 3.543307,3.5433035 0 0 1 -3.5431,-3.54309 3.543307,3.5433035 0 0 1 3.5431,-3.54309 z m 74.4104,0 a 3.543307,3.5433035 0 0 1 3.5431,3.54309 3.543307,3.5433035 0 0 1 -3.5431,3.54309 3.543307,3.5433035 0 0 1 -3.5431,-3.54309 3.543307,3.5433035 0 0 1 3.5431,-3.54309 z m -37.2052,13.73107 9.5892,5.53529 v 11.07421 l -9.5892,5.53529 -9.5892,-5.53529 v -11.07421 z m -37.2034,28.78968 a 3.543307,3.5433035 0 0 1 3.5431,3.5431 3.543307,3.5433035 0 0 1 -3.5431,3.54308 3.543307,3.5433035 0 0 1 -3.5449,-3.54308 3.543307,3.5433035 0 0 1 3.5449,-3.5431 z m 74.4086,0 a 3.543307,3.5433035 0 0 1 3.5431,3.5431 3.543307,3.5433035 0 0 1 -3.5431,3.54308 3.543307,3.5433035 0 0 1 -3.5431,-3.54308 3.543307,3.5433035 0 0 1 3.5431,-3.5431 z"
     style="fill:none;stroke:#000000;stroke-width:0.35433072;stroke-miterlimit:4;stroke-dasharray:none;stroke-opacity:1" />
  <path
     style="fill:none;stroke:#000000;stroke-width:0.37795275;stroke-miterlimit:4;stroke-dasharray:none;stroke-opacity:1"
     d="M 1443.7793 599.05469 A 22.677167 22.677167 0 0 0 1421.1016 621.73242 A 22.677167 22.677167 0 0 0 1443.7793 644.41016 L 1920 644.41016 A 22.677167 22.677167 0 0 0 1942.6777 621.73242 A 22.677167 22.677167 0 0 0 1920 599.05469 L 1443.7793 599.05469 z M 1906.7715 606.14258 A 15.590566 15.590566 0 0 1 1922.3613 621.73242 A 15.590566 15.590566 0 0 1 1906.7715 637.32227 A 15.590566 15.590566 0 0 1 1891.1816 621.73242 A 15.590566 15.590566 0 0 1 1906.7715 606.14258 z M 1457.0078 606.61328 A 15.118125 15.118125 0 0 1 1472.125 621.73242 A 15.118125 15.118125 0 0 1 1457.0078 636.84961 A 15.118125 15.118125 0 0 1 1441.8906 621.73242 A 15.118125 15.118125 0 0 1 1457.0078 606.61328 z M 1681.8906 606.61328 A 15.118092 15.118092 0 0 1 1697.0078 621.73242 A 15.118092 15.118092 0 0 1 1681.8906 636.84961 A 15.118092 15.118092 0 0 1 1666.7715 621.73242 A 15.118092 15.118092 0 0 1 1681.8906 606.61328 z "
     transform="scale(0.9375)"
     id="rect3093" />
  <ellipse
     style="fill:none;stroke:#000000;stroke-width:0.35433072;stroke-miterlimit:4;stroke-dasharray:none;stroke-opacity:1"
     id="ellipse3097"
     cx="1365.9448"
     cy="582.87402"
     rx="5.3149514"
     ry="5.3149538" />
  <ellipse
     ry="5.3149538"
     rx="5.3149514"
     cy="582.87402"
     cx="1787.5984"
     id="ellipse3099"
     style="fill:none;stroke:#000000;stroke-width:0.35433072;stroke-miterlimit:4;stroke-dasharray:none;stroke-opacity:1" />
  <path
     style="fill:none;stroke:#000000;stroke-width:0.35433072;stroke-miterlimit:4;stroke-dasharray:none;stroke-opacity:1"
     d="m 1364.1715,519.53723 a 13.730253,13.730325 0 0 0 -13.7293,13.73108 13.730253,13.730325 0 0 0 13.7293,13.73108 13.730253,13.730325 0 0 0 13.7311,-13.73108 13.730253,13.730325 0 0 0 -13.7311,-13.73108 z m 0,8.41553 a 5.314961,5.314961 0 0 1 5.3138,5.31555 5.314961,5.314961 0 0 1 -5.3138,5.31555 5.314961,5.314961 0 0 1 -5.3155,-5.31555 5.314961,5.314961 0 0 1 5.3155,-5.31555 z"
     id="ellipse3119"
     inkscape:connector-curvature="0" />
  <path
     inkscape:connector-curvature="0"
     id="path3126"
     d="m 1569.6851,515.99392 a 13.730253,13.730325 0 0 0 -13.7293,13.73108 13.730253,13.730325 0 0 0 13.7293,13.73108 13.730253,13.730325 0 0 0 13.7311,-13.73108 13.730253,13.730325 0 0 0 -13.7311,-13.73108 z m 0,8.41553 a 5.314961,5.314961 0 0 1 5.3138,5.31555 5.314961,5.314961 0 0 1 -5.3138,5.31555 5.314961,5.314961 0 0 1 -5.3155,-5.31555 5.314961,5.314961 0 0 1 5.3155,-5.31555 z"
     style="fill:none;stroke:#000000;stroke-width:0.35433072;stroke-miterlimit:4;stroke-dasharray:none;stroke-opacity:1" />
  <path
     style="fill:none;stroke:#000000;stroke-width:0.35433072;stroke-miterlimit:4;stroke-dasharray:none;stroke-opacity:1"
     d="m 1785.8268,519.53722 a 13.730253,13.730325 0 0 0 -13.7293,13.73108 13.730253,13.730325 0 0 0 13.7293,13.73108 13.730253,13.730325 0 0 0 13.7311,-13.73108 13.730253,13.730325 0 0 0 -13.7311,-13.73108 z m 0,8.41553 a 5.314961,5.314961 0 0 1 5.3138,5.31555 5.314961,5.314961 0 0 1 -5.3138,5.31555 5.314961,5.314961 0 0 1 -5.3155,-5.31555 5.314961,5.314961 0 0 1 5.3155,-5.31555 z"
     id="path3128"
     inkscape:connector-curvature="0" />
  <rect
     style="fill:none;stroke:#000000;stroke-width:0.35433072;stroke-miterlimit:4;stroke-dasharray:none;stroke-opacity:1"
     id="rect3132"
     width="23.031511"
     height="56.692909"
     x="1450.9843"
     y="428.74017"
     ry="4.4935591e-06" />
  <rect
     style="fill:none;stroke:#000000;stroke-width:0.35433072;stroke-miterlimit:4;stroke-dasharray:none;stroke-opacity:1"
     id="rect3136"
     width="23.031479"
     height="56.692909"
     x="1417.3229"
     y="428.74017"
     ry="4.4935591e-06" />
  <ellipse
     style="fill:none;stroke:#000000;stroke-width:0.35433072;stroke-miterlimit:4;stroke-dasharray:none;stroke-opacity:1"
     id="path3142"
     cx="1454.5276"
     cy="699.8031"
     rx="5.314961"
     ry="5.3149638" />
  <ellipse
     ry="5.3149638"
     rx="5.314961"
     cy="699.8031"
     cx="1507.6772"
     id="ellipse3144"
     style="fill:none;stroke:#000000;stroke-width:0.35433072;stroke-miterlimit:4;stroke-dasharray:none;stroke-opacity:1" />
  <path
     style="fill:none;stroke:#000000;stroke-width:0.35433072;stroke-miterlimit:4;stroke-dasharray:none;stroke-opacity:1"
     d="m 1431.4961,931.88977 v 109.84313 l 77.9527,-6e-4 V 931.88916 Z m 12.4017,5.31555 c 2.9358,-3e-4 5.3158,2.37974 5.3155,5.31555 3e-4,2.93581 -2.3797,5.31585 -5.3155,5.31555 -2.9359,3.5e-4 -5.3159,-2.3797 -5.3156,-5.31555 -3e-4,-2.93585 2.3797,-5.3159 5.3156,-5.31555 z m 53.15,0 c 2.9351,7e-4 5.314,2.38044 5.3137,5.31555 3e-4,2.93511 -2.3786,5.31485 -5.3137,5.31555 -2.9359,3.5e-4 -5.3159,-2.3797 -5.3156,-5.31555 -3e-4,-2.93585 2.3797,-5.3159 5.3156,-5.31555 z m -53.15,44.29138 c 2.9358,-3e-4 5.3158,2.37976 5.3155,5.31559 -7e-4,2.93509 -2.3804,5.314 -5.3155,5.3137 -2.9351,3.5e-4 -5.3149,-2.37857 -5.3156,-5.3137 -3e-4,-2.93587 2.3797,-5.31594 5.3156,-5.31559 z m 53.15,0 c 2.9351,7e-4 5.314,2.38046 5.3137,5.31559 -7e-4,2.93439 -2.3793,5.313 -5.3137,5.3137 -2.9351,3.5e-4 -5.3149,-2.37857 -5.3156,-5.3137 -3e-4,-2.93587 2.3797,-5.31594 5.3156,-5.31559 z m -53.15,44.2914 c 2.9358,-3e-4 5.3158,2.3797 5.3155,5.3155 -7e-4,2.9351 -2.3804,5.314 -5.3155,5.3137 -2.9351,4e-4 -5.3149,-2.3786 -5.3156,-5.3137 -3e-4,-2.9358 2.3798,-5.3159 5.3156,-5.3155 z m 53.15,0 c 2.9351,7e-4 5.314,2.3804 5.3137,5.3155 -7e-4,2.9344 -2.3793,5.313 -5.3137,5.3137 -2.9351,4e-4 -5.3149,-2.3786 -5.3156,-5.3137 -3e-4,-2.9358 2.3798,-5.3159 5.3156,-5.3155 z"
     id="ellipse3146"
     inkscape:connector-curvature="0"
     sodipodi:nodetypes="ccccccccccccccccccccccccccccccccccc" />
  <path
     style="fill:none;stroke:#000000;stroke-width:0.37795275;stroke-miterlimit:4;stroke-dasharray:none;stroke-opacity:1"
     d="m 1625.1973,994.01562 v 117.16598 l 83.1492,-5e-4 V 994.01513 Z m 13.2285,5.66993 c 3.1316,-3.4e-4 5.6703,2.53835 5.6699,5.66995 3e-4,3.1315 -2.5384,5.6702 -5.6699,5.6699 -3.1315,3e-4 -5.6702,-2.5384 -5.6699,-5.6699 -4e-4,-3.1316 2.5383,-5.67029 5.6699,-5.66995 z m 56.6933,0 c 3.1308,7.1e-4 5.6684,2.53915 5.668,5.66995 3e-4,3.1308 -2.5372,5.6692 -5.668,5.6699 -3.1315,3e-4 -5.6702,-2.5384 -5.6699,-5.6699 -4e-4,-3.1316 2.5383,-5.67029 5.6699,-5.66995 z m -39.6855,9.44925 h 22.6777 v 34.0156 h -22.6777 z m -17.0078,37.7949 c 3.1315,-3e-4 5.6702,2.5384 5.6699,5.6699 -7e-4,3.1308 -2.5391,5.6683 -5.6699,5.668 -3.1308,3e-4 -5.6692,-2.5372 -5.6699,-5.668 -3e-4,-3.1315 2.5384,-5.6702 5.6699,-5.6699 z m 56.6933,0 c 3.1308,7e-4 5.6683,2.5391 5.668,5.6699 -7e-4,3.1301 -2.5379,5.6673 -5.668,5.668 -3.1308,3e-4 -5.6692,-2.5372 -5.6699,-5.668 -3e-4,-3.1315 2.5384,-5.6702 5.6699,-5.6699 z m -39.6855,15.1172 h 22.6777 v 34.0176 h -22.6777 z m -17.0078,32.1269 c 3.1316,-3e-4 5.6703,2.5384 5.6699,5.67 -8e-4,3.1308 -2.5391,5.6682 -5.6699,5.6679 -3.1308,3e-4 -5.6691,-2.5371 -5.6699,-5.6679 -4e-4,-3.1316 2.5383,-5.6703 5.6699,-5.67 z m 56.6933,0 c 3.1308,7e-4 5.6684,2.5392 5.668,5.67 -8e-4,3.13 -2.538,5.6672 -5.668,5.6679 -3.1308,3e-4 -5.6691,-2.5371 -5.6699,-5.6679 -4e-4,-3.1316 2.5383,-5.6703 5.6699,-5.67 z"
     transform="scale(0.9375)"
     id="rect3156"
     inkscape:connector-curvature="0"
     sodipodi:nodetypes="ccccccccccccccccccccccccccccccccccccccccccccc" />
  <path
     style="fill:none;stroke:#000000;stroke-width:0.35433072;stroke-miterlimit:4;stroke-dasharray:none;stroke-opacity:1"
     d="m 1551.968,896.4565 v 24.80347 l 77.9533,1e-5 v -24.80347 l -28.3464,-10e-6 v 10.63111 h -21.2603 V 896.4565 Z m 12.4017,8.85865 c 2.9359,-3.5e-4 5.3159,2.3797 5.3156,5.31555 -7e-4,2.93514 -2.3805,5.31407 -5.3156,5.31372 -2.9351,3e-4 -5.3148,-2.37862 -5.3155,-5.31372 -3e-4,-2.93581 2.3797,-5.31585 5.3155,-5.31555 z m 53.1501,0 c 2.9351,7e-4 5.314,2.38044 5.3137,5.31555 -7e-4,2.9344 -2.3793,5.31302 -5.3137,5.31372 -2.9351,3.5e-4 -5.3149,-2.37858 -5.3156,-5.31372 -3e-4,-2.93585 2.3797,-5.3159 5.3156,-5.31555 z"
     id="rect3170"
     inkscape:connector-curvature="0"
     sodipodi:nodetypes="cccccccccccccccccsc" />
  <rect
     style="fill:none;stroke:#000000;stroke-width:0.35433072;stroke-miterlimit:4;stroke-dasharray:none;stroke-opacity:1"
     id="rect3172"
     width="81.496048"
     height="38.976376"
     x="1442.126"
     y="680.315"
     ry="4.4935591e-06" />
  <rect
     style="fill:none;stroke:#000000;stroke-width:0.35433072;stroke-miterlimit:4;stroke-dasharray:none;stroke-opacity:1"
     id="rect3174"
     width="81.496063"
     height="24.80315"
     x="1442.126"
     y="644.8819"
     ry="4.4935591e-06" />
  <path
     style="fill:none;stroke:#000000;stroke-width:0.35433072;stroke-miterlimit:4;stroke-dasharray:none;stroke-opacity:1"
     d="m 1551.968,846.85107 v 38.97583 h 28.3465 v -10.62927 h 21.2604 v 10.62927 h 28.3464 v -38.97583 h -28.3464 v 10.62927 h -21.2604 v -10.62927 z m 12.4017,14.17236 c 2.9358,-3e-4 5.3158,2.37974 5.3155,5.31555 -7e-4,2.9351 -2.3804,5.31402 -5.3155,5.31372 -2.9351,3e-4 -5.3148,-2.37862 -5.3155,-5.31372 -3e-4,-2.93581 2.3797,-5.31585 5.3155,-5.31555 z m 53.1501,0 c 2.9351,7.5e-4 5.3139,2.38048 5.3136,5.31555 -7e-4,2.93436 -2.3792,5.31297 -5.3136,5.31372 -2.9352,4.1e-4 -5.315,-2.37854 -5.3157,-5.31372 -3e-4,-2.93589 2.3798,-5.31596 5.3157,-5.31555 z"
     id="rect3176"
     inkscape:connector-curvature="0"
     sodipodi:nodetypes="ccccccccccccccccccccccc" />
  <path
     id="path3203"
     d="m 1551.9679,836.22179 v -24.80347 l 77.9534,-10e-4 v 24.80347 l -28.3465,0.001 v -10.63111 h -21.2604 v 10.63111 z m 12.4017,-8.85865 c 2.9358,3e-4 5.3158,-2.37974 5.3155,-5.31555 -7e-4,-2.9351 -2.3804,-5.31402 -5.3155,-5.31372 -2.9351,-3e-4 -5.3148,2.37862 -5.3155,5.31372 -3e-4,2.93581 2.3797,5.31585 5.3155,5.31555 z m 53.1501,0 c 2.9351,-7.5e-4 5.3139,-2.38048 5.3136,-5.31555 -7e-4,-2.93436 -2.3792,-5.31297 -5.3136,-5.31372 -2.9352,-4.1e-4 -5.315,2.37854 -5.3157,5.31372 -3e-4,2.93589 2.3798,5.31596 5.3157,5.31555 z"
     style="fill:none;stroke:#000000;stroke-width:0.35433072;stroke-miterlimit:4;stroke-dasharray:none;stroke-opacity:1"
     inkscape:connector-curvature="0"
     sodipodi:nodetypes="cccccccccccccccccsc" />
  <path
     style="fill:none;stroke:#000000;stroke-width:0.37795275;stroke-miterlimit:4;stroke-dasharray:none;stroke-opacity:1"
     d="m 1723.4648,994.01562 v 117.16598 l 83.1494,-5e-4 V 994.01513 Z m 13.2286,5.66993 c 3.1316,-3.4e-4 5.6703,2.53835 5.6699,5.66995 3e-4,3.1315 -2.5384,5.6702 -5.6699,5.6699 -3.1316,4e-4 -5.6703,-2.5383 -5.67,-5.6699 -4e-4,-3.1316 2.5384,-5.67034 5.67,-5.66995 z m 56.6933,0 c 3.1308,7.1e-4 5.6684,2.53915 5.668,5.66995 3e-4,3.1308 -2.5372,5.6692 -5.668,5.6699 -3.1315,3e-4 -5.6702,-2.5384 -5.6699,-5.6699 -4e-4,-3.1316 2.5383,-5.67029 5.6699,-5.66995 z m -39.6855,9.44925 h 22.6777 v 34.0156 h -22.6777 z m -17.0078,37.7949 c 3.1315,-3e-4 5.6702,2.5384 5.6699,5.6699 -7e-4,3.1308 -2.5391,5.6683 -5.6699,5.668 -3.1308,4e-4 -5.6693,-2.5372 -5.67,-5.668 -3e-4,-3.1316 2.5384,-5.6703 5.67,-5.6699 z m 56.6933,0 c 3.1308,7e-4 5.6683,2.5391 5.668,5.6699 -7e-4,3.1301 -2.5379,5.6673 -5.668,5.668 -3.1308,3e-4 -5.6692,-2.5372 -5.6699,-5.668 -3e-4,-3.1315 2.5384,-5.6702 5.6699,-5.6699 z m -39.6855,15.1172 h 22.6777 v 34.0176 h -22.6777 z m -17.0078,32.1269 c 3.1316,-3e-4 5.6703,2.5384 5.6699,5.67 -8e-4,3.1308 -2.5391,5.6682 -5.6699,5.6679 -3.1308,4e-4 -5.6692,-2.5371 -5.67,-5.6679 -4e-4,-3.1316 2.5384,-5.6704 5.67,-5.67 z m 56.6933,0 c 3.1308,7e-4 5.6684,2.5392 5.668,5.67 -8e-4,3.13 -2.538,5.6672 -5.668,5.6679 -3.1308,3e-4 -5.6691,-2.5371 -5.6699,-5.6679 -4e-4,-3.1316 2.5383,-5.6703 5.6699,-5.67 z"
     transform="scale(0.9375)"
     id="path3217"
     inkscape:connector-curvature="0"
     sodipodi:nodetypes="ccccccccccccccccccccccccccccccccccccccccccccc" />
  <path
     sodipodi:nodetypes="ccccccccccccccccccccccccccccccccccc"
     inkscape:connector-curvature="0"
     id="path3306"
     d="m 1699.0152,931.88914 v 109.84326 l 77.9527,-6e-4 V 931.88853 Z m 12.4017,5.31555 c 2.9358,-3e-4 5.3158,2.37974 5.3155,5.31555 3e-4,2.93581 -2.3797,5.31585 -5.3155,5.31555 -2.9359,3.5e-4 -5.3159,-2.3797 -5.3156,-5.31555 -3e-4,-2.93585 2.3797,-5.3159 5.3156,-5.31555 z m 53.15,0 c 2.9351,7e-4 5.314,2.38044 5.3137,5.31555 3e-4,2.93511 -2.3786,5.31485 -5.3137,5.31555 -2.9359,3.5e-4 -5.3159,-2.3797 -5.3156,-5.31555 -3e-4,-2.93585 2.3797,-5.3159 5.3156,-5.31555 z m -53.15,44.29138 c 2.9358,-3e-4 5.3158,2.37976 5.3155,5.31559 -7e-4,2.93509 -2.3804,5.314 -5.3155,5.3137 -2.9351,3.5e-4 -5.3149,-2.37857 -5.3156,-5.3137 -3e-4,-2.93587 2.3797,-5.31594 5.3156,-5.31559 z m 53.15,0 c 2.9351,7e-4 5.314,2.38046 5.3137,5.31559 -7e-4,2.93439 -2.3793,5.313 -5.3137,5.3137 -2.9351,3.5e-4 -5.3149,-2.37857 -5.3156,-5.3137 -3e-4,-2.93587 2.3797,-5.31594 5.3156,-5.31559 z m -53.15,44.29143 c 2.9358,-3e-4 5.3158,2.3797 5.3155,5.3156 -7e-4,2.9351 -2.3804,5.314 -5.3155,5.3137 -2.9351,4e-4 -5.3149,-2.3786 -5.3156,-5.3137 -3e-4,-2.9359 2.3798,-5.316 5.3156,-5.3156 z m 53.15,0 c 2.9351,7e-4 5.314,2.3804 5.3137,5.3156 -7e-4,2.9344 -2.3793,5.313 -5.3137,5.3137 -2.9351,4e-4 -5.3149,-2.3786 -5.3156,-5.3137 -3e-4,-2.9359 2.3798,-5.316 5.3156,-5.3156 z"
     style="fill:none;stroke:#000000;stroke-width:0.35433072;stroke-miterlimit:4;stroke-dasharray:none;stroke-opacity:1" />
  <path
     sodipodi:nodetypes="ccccccccccccccccccccccccccccccccccccccccccccc"
     inkscape:connector-curvature="0"
     id="path3308"
     d="m 1785.8268,931.88977 v 109.84313 l 77.9524,-5e-4 V 931.88931 Z m 12.4017,5.31555 c 2.9359,-3.1e-4 5.3159,2.37971 5.3155,5.31558 3e-4,2.93578 -2.3797,5.31582 -5.3155,5.31553 -2.9358,2.9e-4 -5.3158,-2.37975 -5.3155,-5.31553 -4e-4,-2.93587 2.3796,-5.31589 5.3155,-5.31558 z m 53.15,0 c 2.9351,6.7e-4 5.3141,2.38046 5.3137,5.31558 3e-4,2.93513 -2.3786,5.31488 -5.3137,5.31553 -2.9358,2.9e-4 -5.3158,-2.37975 -5.3156,-5.31553 -3e-4,-2.93587 2.3797,-5.31589 5.3156,-5.31558 z m -37.2052,8.85868 h 21.2604 v 31.88962 h -21.2604 z m -15.9448,35.43272 c 2.9358,-2.9e-4 5.3158,2.37975 5.3155,5.31553 -6e-4,2.93512 -2.3804,5.31403 -5.3155,5.31375 -2.9351,2.8e-4 -5.3149,-2.37863 -5.3155,-5.31375 -3e-4,-2.93578 2.3797,-5.31582 5.3155,-5.31553 z m 53.15,0 c 2.9351,6.5e-4 5.314,2.3804 5.3137,5.31553 -6e-4,2.93447 -2.3793,5.31309 -5.3137,5.31375 -2.9351,2.8e-4 -5.3149,-2.37863 -5.3156,-5.31375 -2e-4,-2.93578 2.3798,-5.31582 5.3156,-5.31553 z m -37.2052,14.17237 h 21.2604 v 31.89151 h -21.2604 z m -15.9448,30.11901 c 2.9359,-3e-4 5.3159,2.3797 5.3155,5.3156 -7e-4,2.9351 -2.3804,5.3139 -5.3155,5.3136 -2.9351,3e-4 -5.3148,-2.3785 -5.3155,-5.3136 -4e-4,-2.9359 2.3796,-5.3159 5.3155,-5.3156 z m 53.15,0 c 2.9351,6e-4 5.3141,2.3805 5.3137,5.3156 -7e-4,2.9344 -2.3793,5.313 -5.3137,5.3136 -2.9351,3e-4 -5.3148,-2.3785 -5.3156,-5.3136 -3e-4,-2.9359 2.3797,-5.3159 5.3156,-5.3156 z"
     style="fill:none;stroke:#000000;stroke-width:0.35433072;stroke-miterlimit:4;stroke-dasharray:none;stroke-opacity:1" />
  <path
     sodipodi:nodetypes="ccccccccccccccccccccccccccccccccccccccccccccc"
     inkscape:connector-curvature="0"
     id="path3310"
     d="m 1877.9526,931.88977 v 109.84313 l 77.9525,-5e-4 V 931.88931 Z m 12.4018,5.31555 c 2.9359,-3.1e-4 5.3159,2.37971 5.3155,5.31558 3e-4,2.93578 -2.3797,5.31582 -5.3155,5.31553 -2.9359,3.8e-4 -5.3159,-2.37965 -5.3156,-5.31553 -4e-4,-2.93587 2.3797,-5.31594 5.3156,-5.31558 z m 53.15,0 c 2.9351,6.7e-4 5.3141,2.38046 5.3137,5.31558 3e-4,2.93513 -2.3786,5.31488 -5.3137,5.31553 -2.9358,2.9e-4 -5.3159,-2.37975 -5.3156,-5.31553 -4e-4,-2.93587 2.3797,-5.31589 5.3156,-5.31558 z m -37.2052,8.85868 h 21.2603 v 31.88962 h -21.2603 z m -15.9448,35.43272 c 2.9358,-2.9e-4 5.3158,2.37975 5.3155,5.31553 -6e-4,2.93512 -2.3804,5.31403 -5.3155,5.31375 -2.9351,3.7e-4 -5.315,-2.37863 -5.3156,-5.31375 -3e-4,-2.93588 2.3797,-5.31591 5.3156,-5.31553 z m 53.15,0 c 2.9351,6.5e-4 5.314,2.3804 5.3137,5.31553 -7e-4,2.93447 -2.3793,5.31309 -5.3137,5.31375 -2.9352,2.8e-4 -5.3149,-2.37863 -5.3156,-5.31375 -3e-4,-2.93578 2.3798,-5.31582 5.3156,-5.31553 z m -37.2052,14.17237 h 21.2603 v 31.89151 h -21.2603 z m -15.9448,30.11901 c 2.9359,-3e-4 5.3159,2.3797 5.3155,5.3156 -7e-4,2.9351 -2.3804,5.3139 -5.3155,5.3136 -2.9351,4e-4 -5.3149,-2.3785 -5.3156,-5.3136 -4e-4,-2.9359 2.3797,-5.316 5.3156,-5.3156 z m 53.15,0 c 2.9351,6e-4 5.3141,2.3805 5.3137,5.3156 -7e-4,2.9344 -2.3794,5.313 -5.3137,5.3136 -2.9352,3e-4 -5.3148,-2.3785 -5.3156,-5.3136 -4e-4,-2.9359 2.3797,-5.3159 5.3156,-5.3156 z"
     style="fill:none;stroke:#000000;stroke-width:0.35433072;stroke-miterlimit:4;stroke-dasharray:none;stroke-opacity:1" />
  <path
     sodipodi:nodetypes="cccccccccccccccccsc"
     inkscape:connector-curvature="0"
     id="path3312"
     d="m 1764.567,896.4555 v 24.80347 l 77.9533,10e-6 v -24.80347 l -28.3464,-10e-6 v 10.63111 h -21.2603 V 896.4555 Z m 12.4017,8.85865 c 2.9359,-3.5e-4 5.3159,2.3797 5.3156,5.31555 -7e-4,2.93514 -2.3805,5.31407 -5.3156,5.31372 -2.9351,3e-4 -5.3148,-2.37862 -5.3155,-5.31372 -3e-4,-2.93581 2.3797,-5.31585 5.3155,-5.31555 z m 53.1501,0 c 2.9351,7e-4 5.314,2.38044 5.3137,5.31555 -7e-4,2.9344 -2.3793,5.31302 -5.3137,5.31372 -2.9351,3.5e-4 -5.3149,-2.37858 -5.3156,-5.31372 -3e-4,-2.93585 2.3797,-5.3159 5.3156,-5.31555 z"
     style="fill:none;stroke:#000000;stroke-width:0.35433072;stroke-miterlimit:4;stroke-dasharray:none;stroke-opacity:1" />
  <path
     sodipodi:nodetypes="ccccccccccccccccccccccc"
     inkscape:connector-curvature="0"
     id="path3314"
     d="m 1764.567,846.85007 v 38.97583 h 28.3465 v -10.62927 h 21.2604 v 10.62927 h 28.3464 v -38.97583 h -28.3464 v 10.62927 h -21.2604 v -10.62927 z m 12.4017,14.17236 c 2.9358,-3e-4 5.3158,2.37974 5.3155,5.31555 -7e-4,2.9351 -2.3804,5.31402 -5.3155,5.31372 -2.9351,3e-4 -5.3148,-2.37862 -5.3155,-5.31372 -3e-4,-2.93581 2.3797,-5.31585 5.3155,-5.31555 z m 53.1501,0 c 2.9351,7.5e-4 5.3139,2.38048 5.3136,5.31555 -7e-4,2.93436 -2.3792,5.31297 -5.3136,5.31372 -2.9352,4.1e-4 -5.315,-2.37854 -5.3157,-5.31372 -3e-4,-2.93589 2.3798,-5.31596 5.3157,-5.31555 z"
     style="fill:none;stroke:#000000;stroke-width:0.35433072;stroke-miterlimit:4;stroke-dasharray:none;stroke-opacity:1" />
  <path
     sodipodi:nodetypes="cccccccccccccccccsc"
     inkscape:connector-curvature="0"
     style="fill:none;stroke:#000000;stroke-width:0.35433072;stroke-miterlimit:4;stroke-dasharray:none;stroke-opacity:1"
     d="m 1764.5669,836.22079 v -24.80347 l 77.9534,-10e-4 v 24.80347 l -28.3465,10e-4 v -10.63111 h -21.2604 v 10.63111 z m 12.4017,-8.85865 c 2.9358,3e-4 5.3158,-2.37974 5.3155,-5.31555 -7e-4,-2.9351 -2.3804,-5.31402 -5.3155,-5.31372 -2.9351,-3e-4 -5.3148,2.37862 -5.3155,5.31372 -3e-4,2.93581 2.3797,5.31585 5.3155,5.31555 z m 53.1501,0 c 2.9351,-7.5e-4 5.3139,-2.38048 5.3136,-5.31555 -7e-4,-2.93436 -2.3792,-5.31297 -5.3136,-5.31372 -2.9352,-4.1e-4 -5.315,2.37854 -5.3157,5.31372 -3e-4,2.93589 2.3798,5.31596 5.3157,5.31555 z"
     id="path3316" />
  <path
     style="fill:none;stroke:#000000;stroke-width:0.37795275;stroke-miterlimit:4;stroke-dasharray:none;stroke-opacity:1"
     d="M 2297.9531 977.00781 L 2297.9531 986.45703 L 2129.7637 986.45703 C 2109.9331 986.45664 2093.857 1002.5326 2093.8574 1022.3633 C 2093.8581 1042.1932 2109.9338 1058.268 2129.7637 1058.2676 L 2297.9531 1058.2676 L 2297.9531 1109.291 L 2411.3379 1109.291 L 2411.3379 1058.2676 L 2579.5273 1058.2676 C 2599.3572 1058.268 2615.433 1042.1932 2615.4336 1022.3633 C 2615.434 1002.5326 2599.3581 986.45658 2579.5273 986.45703 L 2411.3379 986.45703 L 2411.3379 977.00781 L 2297.9531 977.00781 z M 2354.6445 982.67773 L 2361.1914 986.45703 L 2361.1914 994.01562 L 2354.6445 997.79492 L 2348.0996 994.01562 L 2348.0996 986.45703 L 2354.6445 982.67773 z M 2354.6445 999.68555 C 2367.1692 999.68522 2377.3226 1009.8385 2377.3223 1022.3633 C 2377.3105 1030.4529 2372.99 1037.9237 2365.9844 1041.9688 L 2365.9844 1056.3789 L 2343.3066 1056.3789 L 2343.3066 1041.9766 C 2336.2985 1037.9301 2331.9778 1030.4557 2331.9688 1022.3633 C 2331.9684 1009.8393 2342.1206 999.68628 2354.6445 999.68555 z M 2129.7637 1007.2441 C 2138.1132 1007.2446 2144.8815 1014.0137 2144.8809 1022.3633 C 2144.8803 1030.7121 2138.1125 1037.48 2129.7637 1037.4805 C 2121.4141 1037.481 2114.6451 1030.7128 2114.6445 1022.3633 C 2114.6439 1014.0129 2121.4134 1007.2436 2129.7637 1007.2441 z M 2579.5273 1007.2441 C 2587.8769 1007.2446 2594.6452 1014.0137 2594.6445 1022.3633 C 2594.644 1030.7121 2587.8761 1037.48 2579.5273 1037.4805 C 2571.1778 1037.481 2564.4087 1030.7128 2564.4082 1022.3633 C 2564.4076 1014.0129 2571.1771 1007.2436 2579.5273 1007.2441 z M 2224.252 1016.6934 C 2227.3835 1016.693 2229.9222 1019.2317 2229.9219 1022.3633 C 2229.9211 1025.4941 2227.3827 1028.0316 2224.252 1028.0312 C 2221.1212 1028.0316 2218.5828 1025.494 2218.582 1022.3633 C 2218.5817 1019.2318 2221.1204 1016.693 2224.252 1016.6934 z M 2280.9453 1016.6934 A 5.6693044 5.6692917 0 0 1 2286.6133 1022.3613 A 5.6693044 5.6692917 0 0 1 2280.9453 1028.0312 A 5.6693044 5.6692917 0 0 1 2275.2754 1022.3613 A 5.6693044 5.6692917 0 0 1 2280.9453 1016.6934 z M 2309.291 1016.6934 C 2312.4225 1016.6931 2314.9613 1019.2318 2314.9609 1022.3633 C 2314.9602 1025.494 2312.4218 1028.0316 2309.291 1028.0312 C 2306.1602 1028.0316 2303.6218 1025.4941 2303.6211 1022.3633 C 2303.6208 1019.2317 2306.1595 1016.693 2309.291 1016.6934 z M 2400 1016.6934 C 2403.1315 1016.6931 2405.6702 1019.2318 2405.6699 1022.3633 C 2405.6692 1025.494 2403.1308 1028.0316 2400 1028.0312 C 2396.8692 1028.0316 2394.3308 1025.4941 2394.3301 1022.3633 C 2394.3298 1019.2317 2396.8685 1016.693 2400 1016.6934 z M 2428.3457 1016.6934 A 5.6692917 5.6692917 0 0 1 2434.0156 1022.3613 A 5.6692917 5.6692917 0 0 1 2428.3457 1028.0312 A 5.6692917 5.6692917 0 0 1 2422.6777 1022.3613 A 5.6692917 5.6692917 0 0 1 2428.3457 1016.6934 z M 2485.0391 1016.6934 C 2488.1706 1016.693 2490.7093 1019.2318 2490.709 1022.3633 C 2490.7082 1025.494 2488.1698 1028.0316 2485.0391 1028.0312 C 2481.9083 1028.0316 2479.3699 1025.4941 2479.3691 1022.3633 C 2479.3688 1019.2317 2481.9075 1016.693 2485.0391 1016.6934 z M 2354.6445 1091.3379 C 2356.7332 1091.3369 2358.4267 1093.0304 2358.4258 1095.1191 C 2358.4257 1097.207 2356.7325 1098.8994 2354.6445 1098.8984 C 2352.5574 1098.8983 2350.8653 1097.2063 2350.8652 1095.1191 C 2350.8643 1093.0311 2352.5566 1091.338 2354.6445 1091.3379 z "
     transform="scale(0.9375)"
     id="path3318" />
  <rect
     style="fill:none;stroke:#000000;stroke-width:0.35433072;stroke-miterlimit:4;stroke-dasharray:none;stroke-opacity:1"
     id="rect3322"
     width="17.716513"
     height="7.0866179"
     x="1955.9056"
     y="708.66144"
     ry="4.4935591e-06" />
  <rect
     style="fill:none;stroke:#000000;stroke-width:0.35433072;stroke-miterlimit:4;stroke-dasharray:none;stroke-opacity:1"
     id="rect3324"
     width="21.259748"
     height="81.49601"
     x="1998.4252"
     y="651.96851"
     ry="4.4935591e-06" />
  <rect
     style="fill:none;stroke:#000000;stroke-width:0.35433072;stroke-miterlimit:4;stroke-dasharray:none;stroke-opacity:1"
     id="rect3326"
     width="10.629922"
     height="31.889763"
     x="1998.4252"
     y="701.57477"
     ry="4.4935591e-06" />
  <path
     style="fill:none;stroke:#000000;stroke-width:0.37795275;stroke-miterlimit:4;stroke-dasharray:none;stroke-opacity:1"
     d="M 2401.8906 591.49609 A 51.023637 51.023637 0 0 0 2350.8652 642.51953 L 2269.0996 679.05273 L 2161.8906 650.07812 L 2158.1094 721.89062 L 2158.1094 729.44922 L 2158.1094 774.80273 L 2173.2285 774.80273 L 2173.2285 808.81836 L 2207.2441 808.81836 L 2207.2441 774.80273 L 2226.1426 774.80273 L 2226.1426 808.81836 L 2260.1582 808.81836 L 2260.1582 774.80273 L 2275.2754 774.80273 L 2452.9141 695.43359 L 2452.9141 642.51953 A 51.023637 51.023637 0 0 0 2401.8906 591.49609 z "
     transform="scale(0.9375)"
     id="rect3328" />
  <circle
     style="fill:none;stroke:#000000;stroke-width:0.35433072;stroke-miterlimit:4;stroke-dasharray:none;stroke-opacity:1"
     id="path3334"
     cx="2053.3467"
     cy="742.32288"
     r="5.314961" />
  <ellipse
     style="fill:none;stroke:#000000;stroke-width:0.35433072;stroke-miterlimit:4;stroke-dasharray:none;stroke-opacity:1"
     id="path3336"
     cx="2102.9529"
     cy="742.32288"
     rx="5.314961"
     ry="5.314959" />
  <rect
     style="fill:none;stroke:#000000;stroke-width:0.35433072;stroke-miterlimit:4;stroke-dasharray:none;stroke-opacity:1"
     id="rect3340"
     width="31.889793"
     height="81.49604"
     x="2140.1575"
     y="687.40161"
     ry="4.4935591e-06" />
  <rect
     style="fill:none;stroke:#000000;stroke-width:0.35433072;stroke-miterlimit:4;stroke-dasharray:none;stroke-opacity:1"
     id="rect3344"
     width="170.07872"
     height="170.07872"
     x="2023.2285"
     y="531.49609"
     ry="4.4935591e-06" />
  <path
     style="fill:none;stroke:#000000;stroke-width:0.35433071;stroke-linecap:butt;stroke-linejoin:miter;stroke-opacity:1;stroke-miterlimit:4;stroke-dasharray:none"
     d="m 2037.4016,676.77165 v 0 l 77.9527,20.88737 -0.6451,0.37248"
     id="path3379"
     inkscape:connector-curvature="0" />
  <path
     inkscape:connector-curvature="0"
     id="path3381"
     d="m 2226.0827,545.66929 -131.9882,-35.43307 209.9409,56.32044 -0.6451,0.37248"
     style="fill:none;stroke:#000000;stroke-width:0.35433072;stroke-linecap:butt;stroke-linejoin:miter;stroke-miterlimit:4;stroke-dasharray:none;stroke-opacity:1"
     sodipodi:nodetypes="cccc" />
  <rect
     style="fill:none;stroke:#000000;stroke-width:0.35433072;stroke-miterlimit:4;stroke-dasharray:none;stroke-opacity:1"
     id="rect3383"
     width="14.173229"
     height="113.38583"
     x="2115.448"
     y="-49.270596"
     ry="4.4935591e-06"
     transform="rotate(15)" />
  <path
     sodipodi:nodetypes="cccc"
     style="fill:none;stroke:#000000;stroke-width:0.35433072;stroke-linecap:butt;stroke-linejoin:miter;stroke-miterlimit:4;stroke-dasharray:none;stroke-opacity:1"
     d="m 2236.7126,591.73228 -131.9882,-35.43307 209.9409,56.32044 -0.6451,0.37248"
     id="path3385"
     inkscape:connector-curvature="0" />
  <path
     style="fill:none;stroke:#000000;stroke-width:0.35433071;stroke-linecap:butt;stroke-linejoin:miter;stroke-opacity:1;stroke-miterlimit:4;stroke-dasharray:none"
     d="m 2023.2283,701.57481 23.261,-86.81103"
     id="path1658"
     inkscape:connector-curvature="0" />
  <path
     style="fill:none;stroke:#000000;stroke-width:0.35433071;stroke-linecap:butt;stroke-linejoin:miter;stroke-opacity:1;stroke-miterlimit:4;stroke-dasharray:none"
     d="m 2299.6063,608.56299 -13.2874,49.58926"
     id="path1660"
     inkscape:connector-curvature="0" />
  <path
     style="fill:none;stroke:#000000;stroke-width:0.35433071;stroke-linecap:butt;stroke-linejoin:miter;stroke-opacity:1;stroke-miterlimit:4;stroke-dasharray:none"
     d="m 2299.6063,605.90551 -14.2414,53.14961 h 0.068"
     id="path1662"
     inkscape:connector-curvature="0" />
</svg>
