<?xml version="1.0" encoding="UTF-8" standalone="no"?>
<!-- Created with Inkscape (http://www.inkscape.org/) -->

<svg
   xmlns:dc="http://purl.org/dc/elements/1.1/"
   xmlns:cc="http://creativecommons.org/ns#"
   xmlns:rdf="http://www.w3.org/1999/02/22-rdf-syntax-ns#"
   xmlns:svg="http://www.w3.org/2000/svg"
   xmlns="http://www.w3.org/2000/svg"
   xmlns:sodipodi="http://sodipodi.sourceforge.net/DTD/sodipodi-0.dtd"
   xmlns:inkscape="http://www.inkscape.org/namespaces/inkscape"
   width="60.09996mm"
   height="60.099949mm"
   viewBox="0 0 60.09996 60.099949"
   version="1.1"
   id="svg6815"
   inkscape:version="0.92.2 5c3e80d, 2017-08-06"
   sodipodi:docname="3d-surface.inkscape.svg">
  <defs
     id="defs6809" />
  <sodipodi:namedview
     id="base"
     pagecolor="#ffffff"
     bordercolor="#666666"
     borderopacity="1.0"
     inkscape:pageopacity="0.0"
     inkscape:pageshadow="2"
     inkscape:zoom="2.8"
     inkscape:cx="146.27811"
     inkscape:cy="90.784293"
     inkscape:document-units="mm"
     inkscape:current-layer="layer1"
     showgrid="true"
     fit-margin-top="0"
     fit-margin-left="0"
     fit-margin-right="0"
     fit-margin-bottom="0"
     inkscape:window-width="1879"
     inkscape:window-height="1155"
     inkscape:window-x="41"
     inkscape:window-y="1"
     inkscape:window-maximized="1">
    <inkscape:grid
       type="xygrid"
       id="grid7443"
       units="mm"
       spacingx="0.99999999"
       spacingy="0.99999999" />
  </sodipodi:namedview>
  <metadata
     id="metadata6812">
    <rdf:RDF>
      <cc:Work
         rdf:about="">
        <dc:format>image/svg+xml</dc:format>
        <dc:type
           rdf:resource="http://purl.org/dc/dcmitype/StillImage" />
        <dc:title></dc:title>
      </cc:Work>
    </rdf:RDF>
  </metadata>
  <g
     inkscape:label="Layer 1"
     inkscape:groupmode="layer"
     id="layer1"
     transform="translate(209.96665,168.47855)">
    <path
       sodipodi:nodetypes="cccccccccc"
       inkscape:connector-curvature="0"
       style="fill:none;stroke:#000000;stroke-width:0.1;stroke-miterlimit:4;stroke-dasharray:none;stroke-opacity:1"
       d="m -179.91642,-108.4286 c -16.56874,1.3e-4 -30.00036,-13.43151 -30.00023,-30.00023 1.6e-4,-16.56852 13.4317,-29.99985 30.00023,-29.99972 16.56831,1.4e-4 29.99958,13.43139 29.99973,29.99972 1.3e-4,16.56853 -13.4312,30.00008 -29.99973,30.00023 z m 5.3e-4,-29.0003 c 0.55224,-3e-5 0.99991,-0.44771 0.99994,-0.99993 -3e-5,-0.55224 -0.4477,-0.99991 -0.99994,-0.99994 -0.55245,-2.6e-4 -1.00044,0.44749 -1.00047,0.99994 3e-5,0.55244 0.44802,1.0002 1.00047,0.99993 z"
       id="path6777" />
    <path
       sodipodi:nodetypes="cccccsssss"
       style="fill:none;stroke:#000000;stroke-width:0.1;stroke-miterlimit:4;stroke-dasharray:none;stroke-opacity:1"
       d="m -179.91656,-111.92874 c -14.63569,1e-4 -26.50029,-11.86449 -26.50019,-26.50019 -8e-5,-14.6357 11.86453,-26.50029 26.50019,-26.50019 14.63569,-10e-5 26.5003,11.86449 26.50019,26.50019 1.4e-4,14.6357 -11.86447,26.50029 -26.50019,26.50019 z m 0,-5.49992 c 11.59819,1.5e-4 21.00042,-9.40208 21.00027,-21.00027 -1.3e-4,-11.59799 -9.40228,-20.9999 -21.00027,-20.99976 -11.59778,1.5e-4 -20.9996,9.40198 -20.99974,20.99976 -1.5e-4,11.59798 9.40176,21.00013 20.99974,21.00027 z"
       id="path6779"
       inkscape:connector-curvature="0" />
    <circle
       inkscape:connector-avoid="true"
       r="3"
       cy="138.42896"
       cx="-179.91661"
       id="circle6781"
       style="fill:none;fill-opacity:1;stroke:#000000;stroke-width:0.1;stroke-miterlimit:5.92619944;stroke-dasharray:none;stroke-dashoffset:0;stroke-opacity:1"
       transform="scale(1,-1)" />
    <circle
       r="8"
       cy="138.42896"
       cx="-179.91661"
       id="circle6783"
       style="fill:none;fill-opacity:1;stroke:#000000;stroke-width:0.1;stroke-miterlimit:5.92619944;stroke-dasharray:none;stroke-dashoffset:0;stroke-opacity:1"
       transform="scale(1,-1)" />
    <circle
       r="2"
       cy="132.92896"
       cx="-179.91656"
       id="circle6785"
       style="fill:none;fill-opacity:1;stroke:#000000;stroke-width:0.1;stroke-miterlimit:5.92619944;stroke-dasharray:none;stroke-dashoffset:0;stroke-opacity:1"
       transform="scale(1,-1)" />
    <circle
       r="2"
       cy="138.42896"
       cx="-174.41656"
       id="circle6787"
       style="fill:none;fill-opacity:1;stroke:#000000;stroke-width:0.1;stroke-miterlimit:5.92619944;stroke-dasharray:none;stroke-dashoffset:0;stroke-opacity:1"
       transform="scale(1,-1)" />
    <circle
       r="2"
       cy="143.92896"
       cx="-179.91656"
       id="circle6789"
       style="fill:none;fill-opacity:1;stroke:#000000;stroke-width:0.1;stroke-miterlimit:5.92619944;stroke-dasharray:none;stroke-dashoffset:0;stroke-opacity:1"
       transform="scale(1,-1)" />
    <circle
       r="2"
       cy="138.42896"
       cx="-185.41656"
       id="circle6791"
       style="fill:none;fill-opacity:1;stroke:#000000;stroke-width:0.1;stroke-miterlimit:5.92619944;stroke-dasharray:none;stroke-dashoffset:0;stroke-opacity:1"
       transform="scale(1,-1)" />
    <path
       inkscape:transform-center-y="-8.2187578e-06"
       inkscape:transform-center-x="4.287276e-06"
       d="m 411.4746,269.8415 -2.49998,0 -1.25,-2.16505 1.25,-2.16505 2.49998,0 1.24999,2.16505 z"
       inkscape:randomized="0"
       inkscape:rounded="0"
       inkscape:flatsided="true"
       sodipodi:arg2="1.5707963"
       sodipodi:arg1="1.0471976"
       sodipodi:r2="2.0425167"
       sodipodi:r1="2.4999852"
       sodipodi:cy="267.67645"
       sodipodi:cx="410.22461"
       sodipodi:sides="6"
       id="path6749"
       style="fill:none;stroke:#000000;stroke-width:0.1;stroke-miterlimit:4;stroke-dasharray:none;stroke-opacity:1"
       sodipodi:type="star"
       transform="rotate(30,863.84281,-1014.2527)" />
    <rect
       y="-135.3786"
       x="-194.96664"
       height="2"
       width="4"
       id="rect6751"
       style="fill:none;fill-opacity:1;stroke:#000000;stroke-width:0.1;stroke-miterlimit:5.92619944;stroke-dasharray:none;stroke-dashoffset:0;stroke-opacity:1" />
    <rect
       y="-151.37857"
       x="-193.96664"
       height="16"
       width="2"
       id="rect6753"
       style="fill:none;fill-opacity:1;stroke:#000000;stroke-width:0.1;stroke-miterlimit:5.92619944;stroke-dasharray:none;stroke-dashoffset:0;stroke-opacity:1" />
    <rect
       style="fill:none;fill-opacity:1;stroke:#000000;stroke-width:0.1;stroke-miterlimit:5.92619944;stroke-dasharray:none;stroke-dashoffset:0;stroke-opacity:1"
       id="rect6755"
       width="4"
       height="2"
       x="-194.96664"
       y="-143.37857" />
  </g>
</svg>
