<?xml version="1.0" encoding="UTF-8" standalone="no"?>
<svg
   xmlns:dc="http://purl.org/dc/elements/1.1/"
   xmlns:cc="http://creativecommons.org/ns#"
   xmlns:rdf="http://www.w3.org/1999/02/22-rdf-syntax-ns#"
   xmlns:svg="http://www.w3.org/2000/svg"
   xmlns="http://www.w3.org/2000/svg"
   version="1.1"
   id="svg4916"
   viewBox="0 0 591.73245 357.87123"
   height="100.99921mm"
   width="167.00005mm">
  <defs
     id="defs4918" />
  <metadata
     id="metadata4921">
    <rdf:RDF>
      <cc:Work
         rdf:about="">
        <dc:format>image/svg+xml</dc:format>
        <dc:type
           rdf:resource="http://purl.org/dc/dcmitype/StillImage" />
        <dc:title></dc:title>
      </cc:Work>
    </rdf:RDF>
  </metadata>
  <g
     transform="translate(0,-694.48898)"
     id="layer1">
    <path
       id="path5528"
       d="m 134.64593,715.74972 0,10.62891 -17.7168,0 0,77.9531 17.7168,0 0,10.6289 53.14843,0 0,-10.6289 17.7168,0 0,-77.9531 -17.7168,0 0,-10.62891 -53.14843,0 z m 37.02539,14.13672 a 5.3149605,5.3149605 0 0 1 5.3164,5.31445 5.3149605,5.3149605 0 0 1 -5.3164,5.31446 5.3149605,5.3149605 0 0 1 -5.31446,-5.31446 5.3149605,5.3149605 0 0 1 5.31446,-5.31445 z m 0.17968,60.27149 a 5.3149605,5.3149605 0 0 1 5.31446,5.3164 5.3149605,5.3149605 0 0 1 -5.31446,5.3145 5.3149605,5.3149605 0 0 1 -5.3164,-5.3145 5.3149605,5.3149605 0 0 1 5.3164,-5.3164 z"
       style="fill:#000000;fill-opacity:1;fill-rule:evenodd;stroke:none;stroke-width:0.35433071;stroke-linecap:butt;stroke-linejoin:miter;stroke-opacity:1;stroke-miterlimit:9.05000019;stroke-dasharray:none" />
    <path
       style="fill:#000000;fill-opacity:1;fill-rule:evenodd;stroke:none;stroke-width:0.35433071;stroke-linecap:butt;stroke-linejoin:miter;stroke-opacity:1;stroke-miterlimit:9.05000019;stroke-dasharray:none"
       d="m 290.55028,715.74976 0,10.62891 17.71679,0 0,77.95306 -17.71679,0 0,10.6289 -53.14844,0 0,-10.6289 -17.7168,0 0,-77.95306 17.7168,0 0,-10.62891 53.14844,0 z m -37.02539,14.13672 a 5.3149605,5.3149605 0 0 0 -5.31641,5.31445 5.3149605,5.3149605 0 0 0 5.31641,5.31446 5.3149605,5.3149605 0 0 0 5.31445,-5.31446 5.3149605,5.3149605 0 0 0 -5.31445,-5.31445 z m -0.17969,60.27145 a 5.3149605,5.3149605 0 0 0 -5.31445,5.3164 5.3149605,5.3149605 0 0 0 5.31445,5.3145 5.3149605,5.3149605 0 0 0 5.31641,-5.3145 5.3149605,5.3149605 0 0 0 -5.31641,-5.3164 z"
       id="path5551" />
    <path
       id="path4223"
       d="m 0,910.62974 0,141.73046 102.75782,0 3.54296,0 7.08594,0 389.76367,0 0,0 88.58203,0 0,-141.73242 -591.73242,0 z m 14.173828,12.40234 a 5.3149768,5.3149605 0 0 1 5.314453,5.31445 5.3149768,5.3149605 0 0 1 -5.314453,5.31445 5.3149768,5.3149605 0 0 1 -5.316406,-5.31445 5.3149768,5.3149605 0 0 1 5.316406,-5.31445 z m 77.953129,0 a 5.3149768,5.3149605 0 0 1 5.3164,5.31445 5.3149768,5.3149605 0 0 1 -5.3164,5.31445 5.3149768,5.3149605 0 0 1 -5.31446,-5.31445 5.3149768,5.3149605 0 0 1 5.31446,-5.31445 z m -38.978519,5.31445 a 5.3149768,5.3149605 0 0 1 5.316406,5.31445 5.3149768,5.3149605 0 0 1 -5.316406,5.31641 5.3149768,5.3149605 0 0 1 -5.314453,-5.31641 5.3149768,5.3149605 0 0 1 5.314453,-5.31445 z m 471.261722,0 a 3.5433071,3.5433071 0 0 1 3.54297,3.54297 3.5433071,3.5433071 0 0 1 -3.54297,3.54297 3.5433071,3.5433071 0 0 1 -3.54297,-3.54297 3.5433071,3.5433071 0 0 1 3.54297,-3.54297 z m -148.81836,17.71485 10.62891,0 0,70.86722 -10.62891,0 0,-70.86722 z M 570.47266,977.952 a 3.5433071,3.5433071 0 0 1 3.54297,3.54492 3.5433071,3.5433071 0 0 1 -3.54297,3.54297 3.5433071,3.5433071 0 0 1 -3.54297,-3.54297 3.5433071,3.5433071 0 0 1 3.54297,-3.54492 z m -517.324222,46.0645 a 5.3149768,5.3149605 0 0 1 5.316406,5.3144 5.3149768,5.3149605 0 0 1 -5.316406,5.3145 5.3149768,5.3149605 0 0 1 -5.314453,-5.3145 5.3149768,5.3149605 0 0 1 5.314453,-5.3144 z m 471.261722,3.5429 a 3.5433071,3.5433071 0 0 1 3.54297,3.543 3.5433071,3.5433071 0 0 1 -3.54297,3.543 3.5433071,3.5433071 0 0 1 -3.54297,-3.543 3.5433071,3.5433071 0 0 1 3.54297,-3.543 z m -510.236332,1.7715 a 5.3149768,5.3149605 0 0 1 5.314453,5.3145 5.3149768,5.3149605 0 0 1 -5.314453,5.3164 5.3149768,5.3149605 0 0 1 -5.316406,-5.3164 5.3149768,5.3149605 0 0 1 5.316406,-5.3145 z m 77.953129,0 a 5.3149768,5.3149605 0 0 1 5.3164,5.3145 5.3149768,5.3149605 0 0 1 -5.3164,5.3164 5.3149768,5.3149605 0 0 1 -5.31446,-5.3164 5.3149768,5.3149605 0 0 1 5.31446,-5.3145 z"
       style="fill:#000000;fill-opacity:1;stroke:none;stroke-width:0.35433071;stroke-linecap:butt;stroke-linejoin:miter;stroke-miterlimit:9.05000019;stroke-dasharray:none;stroke-opacity:1" />
    <path
       id="path5755"
       d="m 591.73189,907.08661 0,-212.59763 -258.66204,0 0,70.86521 -10.62891,0 0,70.86523 10.62891,0 0,70.86719 258.66204,0 z m -70.8652,-14.17383 -53.1504,0 0,-10.62891 53.1504,0 0,10.62891 z m 60.2344,-16.83008 a 4.4291339,4.4291339 0 0 1 -4.4277,-4.42969 4.4291339,4.4291339 0 0 1 4.4277,-4.42773 4.4291339,4.4291339 0 0 1 4.4297,4.42773 4.4291339,4.4291339 0 0 1 -4.4297,4.42969 z m -226.77147,0 a 4.4291339,4.4291339 0 0 1 -4.42774,-4.42969 4.4291339,4.4291339 0 0 1 4.42774,-4.42773 4.4291339,4.4291339 0 0 1 4.42968,4.42773 4.4291339,4.4291339 0 0 1 -4.42968,4.42969 z M 581.10109,734.35028 a 4.4291339,4.4291339 0 0 1 -4.4277,-4.4297 4.4291339,4.4291339 0 0 1 4.4277,-4.4277 4.4291339,4.4291339 0 0 1 4.4297,4.4277 4.4291339,4.4291339 0 0 1 -4.4297,4.4297 z m -226.77147,0 a 4.4291339,4.4291339 0 0 1 -4.42774,-4.4297 4.4291339,4.4291339 0 0 1 4.42774,-4.4277 4.4291339,4.4291339 0 0 1 4.42968,4.4277 4.4291339,4.4291339 0 0 1 -4.42968,4.4297 z m 166.53707,-15.0586 -53.1504,0 0,-10.6309 53.1504,0 0,10.6309 z"
       style="fill:#000000;fill-opacity:1;fill-rule:evenodd;stroke:none;stroke-width:0.35433071;stroke-linecap:butt;stroke-linejoin:miter;stroke-opacity:1;stroke-miterlimit:9.05000019;stroke-dasharray:none" />
    <path
       id="rect4185"
       d="m 113.3867,726.3786 -14.17383,0 -7.08593,0 0,-10.6289 -70.86714,0 0,10.6289 -7.086,0 -14.1738,0 0,88.58203 21.2598,0 0,-10.6289 70.86715,0 0,10.6289 21.25976,0 0,-88.58203 z"
       style="fill:#000000;fill-opacity:1;stroke:none;stroke-width:0.35433071;stroke-linecap:butt;stroke-linejoin:miter;stroke-miterlimit:9.05000019;stroke-dasharray:none;stroke-opacity:1" />
    <path
       id="path4223-3"
       d="m 0,907.08661 318.89645,0 0,-88.58203 -318.89644,0 0,88.58203 z m 67.32227,-17.71485 0,-53.15234 10.62891,0 0,53.15234 -10.62891,0 z m 38.97655,-3.54492 a 3.5433071,3.5433071 0 0 1 3.54297,-3.54297 3.5433071,3.5433071 0 0 1 3.54297,3.54297 3.5433071,3.5433071 0 0 1 -3.54297,3.54297 3.5433071,3.5433071 0 0 1 -3.54297,-3.54297 z m 49.60547,-46.0625 a 3.5433071,3.5433071 0 0 1 3.54492,-3.54297 3.5433071,3.5433071 0 0 1 3.54297,3.54297 3.5433071,3.5433071 0 0 1 -3.54297,3.54297 3.5433071,3.5433071 0 0 1 -3.54492,-3.54297 z m 49.60742,46.0625 a 3.5433071,3.5433071 0 0 1 3.54297,-3.54297 3.5433071,3.5433071 0 0 1 3.54297,3.54297 3.5433071,3.5433071 0 0 1 -3.54297,3.54297 3.5433071,3.5433071 0 0 1 -3.54297,-3.54297 z m 35.4336,3.54492 0,-53.15234 10.6289,0 0,53.15234 -10.6289,0 z"
       style="fill:#000000;fill-opacity:1;stroke:none;stroke-width:0.35433071;stroke-linecap:butt;stroke-linejoin:miter;stroke-miterlimit:9.05000019;stroke-dasharray:none;stroke-opacity:1" />
  </g>
</svg>
