<?xml version="1.0" encoding="UTF-8" standalone="no"?>
<!-- Created with Inkscape (http://www.inkscape.org/) -->

<svg
   xmlns:dc="http://purl.org/dc/elements/1.1/"
   xmlns:cc="http://creativecommons.org/ns#"
   xmlns:rdf="http://www.w3.org/1999/02/22-rdf-syntax-ns#"
   xmlns:svg="http://www.w3.org/2000/svg"
   xmlns="http://www.w3.org/2000/svg"
   xmlns:sodipodi="http://sodipodi.sourceforge.net/DTD/sodipodi-0.dtd"
   xmlns:inkscape="http://www.inkscape.org/namespaces/inkscape"
   width="210mm"
   height="297mm"
   viewBox="0 0 744.09448819 1052.3622047"
   id="svg4916"
   version="1.1"
   inkscape:version="0.91 r13725"
   sodipodi:docname="print_raw.svg">
  <defs
     id="defs4918">
    <inkscape:path-effect
       effect="spiro"
       id="path-effect5761"
       is_visible="true" />
    <inkscape:path-effect
       effect="spiro"
       id="path-effect5757"
       is_visible="true" />
    <inkscape:path-effect
       effect="spiro"
       id="path-effect5530"
       is_visible="true" />
  </defs>
  <sodipodi:namedview
     id="base"
     pagecolor="#ffffff"
     bordercolor="#666666"
     borderopacity="1.0"
     inkscape:pageopacity="0.0"
     inkscape:pageshadow="2"
     inkscape:zoom="1.4"
     inkscape:cx="548.27122"
     inkscape:cy="551.5172"
     inkscape:document-units="mm"
     inkscape:current-layer="layer1"
     showgrid="true"
     inkscape:window-width="3775"
     inkscape:window-height="2136"
     inkscape:window-x="65"
     inkscape:window-y="24"
     inkscape:window-maximized="1">
    <inkscape:grid
       type="xygrid"
       id="grid5464"
       units="mm"
       spacingx="3.5433071"
       spacingy="3.5433072" />
  </sodipodi:namedview>
  <metadata
     id="metadata4921">
    <rdf:RDF>
      <cc:Work
         rdf:about="">
        <dc:format>image/svg+xml</dc:format>
        <dc:type
           rdf:resource="http://purl.org/dc/dcmitype/StillImage" />
        <dc:title></dc:title>
      </cc:Work>
    </rdf:RDF>
  </metadata>
  <g
     inkscape:label="Layer 1"
     inkscape:groupmode="layer"
     id="layer1">
    <path
       style="fill:#000000;fill-opacity:1;stroke:none;stroke-width:1;stroke-linecap:butt;stroke-linejoin:miter;stroke-miterlimit:14.10000038;stroke-dasharray:none;stroke-opacity:1"
       d="m 648.12964,732.53295 0,318.89645 637.79496,0 0,-318.89645 -637.79496,0 z m 513.77926,67.32227 53.1504,0 0,10.62891 -53.1504,0 0,-10.62891 z m -481.88863,33.66211 a 5.3149605,5.3149605 0 0 1 5.31445,5.31445 5.3149605,5.3149605 0 0 1 -5.31445,5.31445 5.3149605,5.3149605 0 0 1 -5.31641,-5.31445 5.3149605,5.3149605 0 0 1 5.31641,-5.31445 z m 77.95117,0 a 5.3149605,5.3149605 0 0 1 5.3164,5.31445 5.3149605,5.3149605 0 0 1 -5.3164,5.31445 5.3149605,5.3149605 0 0 1 -5.31446,-5.31445 5.3149605,5.3149605 0 0 1 5.31446,-5.31445 z m -38.97656,5.31445 a 5.3149605,5.3149605 0 0 1 5.3164,5.31445 5.3149605,5.3149605 0 0 1 -5.3164,5.31641 5.3149605,5.3149605 0 0 1 -5.31446,-5.31641 5.3149605,5.3149605 0 0 1 5.31446,-5.31445 z m 0,95.66992 a 5.3149605,5.3149605 0 0 1 5.3164,5.31446 5.3149605,5.3149605 0 0 1 -5.3164,5.31445 5.3149605,5.3149605 0 0 1 -5.31446,-5.31445 5.3149605,5.3149605 0 0 1 5.31446,-5.31446 z m -38.97461,5.31446 a 5.3149605,5.3149605 0 0 1 5.31445,5.31445 5.3149605,5.3149605 0 0 1 -5.31445,5.31641 5.3149605,5.3149605 0 0 1 -5.31641,-5.31641 5.3149605,5.3149605 0 0 1 5.31641,-5.31445 z m 77.95117,0 a 5.3149605,5.3149605 0 0 1 5.3164,5.31445 5.3149605,5.3149605 0 0 1 -5.3164,5.31641 5.3149605,5.3149605 0 0 1 -5.31446,-5.31641 5.3149605,5.3149605 0 0 1 5.31446,-5.31445 z m 403.93746,33.66211 53.1504,0 0,10.6289 -53.1504,0 0,-10.6289 z"
       id="rect5843"
       inkscape:connector-curvature="0" />
    <path
       style="fill:#000000;fill-opacity:1;fill-rule:evenodd;stroke:none;stroke-width:1px;stroke-linecap:butt;stroke-linejoin:miter;stroke-opacity:1"
       d="m 17.716797,527.95354 0,10.62891 -17.716797,0 0,77.9531 17.716797,0 0,10.6289 53.148437,0 0,-10.6289 17.716797,0 0,-77.9531 -17.716797,0 0,-10.62891 -53.148437,0 z m 37.025391,14.13672 a 5.3149605,5.3149605 0 0 1 5.316406,5.31445 5.3149605,5.3149605 0 0 1 -5.316406,5.31446 5.3149605,5.3149605 0 0 1 -5.314454,-5.31446 5.3149605,5.3149605 0 0 1 5.314454,-5.31445 z m 0.179687,60.27149 a 5.3149605,5.3149605 0 0 1 5.314453,5.3164 5.3149605,5.3149605 0 0 1 -5.314453,5.3145 5.3149605,5.3149605 0 0 1 -5.316406,-5.3145 5.3149605,5.3149605 0 0 1 5.316406,-5.3164 z"
       id="path5528"
       inkscape:connector-curvature="0" />
    <path
       id="path5551"
       d="m 177.16445,527.95448 0,10.62891 17.71679,0 0,77.95306 -17.71679,0 0,10.6289 -53.14844,0 0,-10.6289 -17.7168,0 0,-77.95306 17.7168,0 0,-10.62891 53.14844,0 z m -37.02539,14.13672 a 5.3149605,5.3149605 0 0 0 -5.31641,5.31445 5.3149605,5.3149605 0 0 0 5.31641,5.31446 5.3149605,5.3149605 0 0 0 5.31445,-5.31446 5.3149605,5.3149605 0 0 0 -5.31445,-5.31445 z m -0.17969,60.27145 a 5.3149605,5.3149605 0 0 0 -5.31445,5.3164 5.3149605,5.3149605 0 0 0 5.31445,5.3145 5.3149605,5.3149605 0 0 0 5.31641,-5.3145 5.3149605,5.3149605 0 0 0 -5.31641,-5.3164 z"
       style="fill:#000000;fill-opacity:1;fill-rule:evenodd;stroke:none;stroke-width:1px;stroke-linecap:butt;stroke-linejoin:miter;stroke-opacity:1"
       inkscape:connector-curvature="0" />
    <g
       id="Ortho_0_001"
       transform="matrix(0,-3.5433071,3.5433071,0,1709.5332,290.98425)">
      <g
         style="fill:none;stroke:#000000;stroke-width:0.34999999;stroke-linecap:butt;stroke-linejoin:miter"
         transform="scale(1,-1)"
         id="g22">
        <path
           inkscape:connector-curvature="0"
           id="1"
           d="m 12,-11 0,180" />
        <path
           inkscape:connector-curvature="0"
           id="2"
           d="m 12,-11 -90,0" />
        <path
           inkscape:connector-curvature="0"
           id="3"
           d="m 12,169 -90,0" />
        <path
           inkscape:connector-curvature="0"
           id="4"
           d="m -78,-11 0,180" />
        <circle
           cx="-48"
           cy="138"
           r="1.5"
           id="circle28" />
        <path
           inkscape:connector-curvature="0"
           id="6"
           d="m -56,9 -3,0" />
        <path
           inkscape:connector-curvature="0"
           id="7"
           d="m -56,9 0,15" />
        <path
           inkscape:connector-curvature="0"
           id="8"
           d="m -59,9 0,15" />
        <path
           inkscape:connector-curvature="0"
           id="9"
           d="m -56,24 -3,0" />
        <circle
           cx="-48"
           cy="160"
           r="1.5"
           id="circle34" />
        <circle
           cx="-46.5"
           cy="149"
           r="1.5"
           id="circle36" />
        <circle
           cx="-19.5"
           cy="149"
           r="1.5"
           id="circle38" />
        <circle
           cx="-18"
           cy="138"
           r="1.5"
           id="circle40" />
        <circle
           cx="-18"
           cy="160"
           r="1.5"
           id="circle42" />
        <path
           inkscape:connector-curvature="0"
           id="15"
           d="m -7,9 -3,0" />
        <path
           inkscape:connector-curvature="0"
           id="16"
           d="m -7,9 0,15" />
        <path
           inkscape:connector-curvature="0"
           id="17"
           d="m -10,9 0,15" />
        <path
           inkscape:connector-curvature="0"
           id="18"
           d="m -7,24 -3,0" />
      </g>
    </g>
    <rect
       style="fill:#3fd35c;fill-opacity:0.58620689;stroke:none;stroke-width:1;stroke-linecap:butt;stroke-linejoin:miter;stroke-miterlimit:14.10000038;stroke-dasharray:none;stroke-opacity:1"
       id="rect4204"
       width="106.29922"
       height="141.7323"
       x="301.18109"
       y="396.85037" />
    <rect
       style="fill:#3fd35c;fill-opacity:0.58620689;stroke:none;stroke-width:1;stroke-linecap:butt;stroke-linejoin:miter;stroke-miterlimit:14.10000038;stroke-dasharray:none;stroke-opacity:1"
       id="rect4206"
       width="336.61417"
       height="85.039368"
       x="407.48032"
       y="425.19684" />
    <rect
       style="fill:#3f6ed3;fill-opacity:0.58620691;stroke:none;stroke-width:1;stroke-linecap:butt;stroke-linejoin:miter;stroke-miterlimit:14.10000038;stroke-dasharray:none;stroke-opacity:1"
       id="rect4211"
       width="194.88188"
       height="53.149609"
       x="17.716536"
       y="361.41733" />
    <rect
       style="fill:#d3b33f;fill-opacity:0.58620689;stroke:none;stroke-width:1;stroke-linecap:butt;stroke-linejoin:miter;stroke-miterlimit:14.10000038;stroke-dasharray:none;stroke-opacity:1"
       id="rect4219"
       width="134.64568"
       height="70.866142"
       x="382.67715"
       y="432.28345" />
    <rect
       style="fill:#d3b33f;fill-opacity:0.58620689;stroke:none;stroke-width:1;stroke-linecap:butt;stroke-linejoin:miter;stroke-miterlimit:14.10000038;stroke-dasharray:none;stroke-opacity:1"
       id="rect4221"
       width="134.64568"
       height="56.692913"
       x="517.32281"
       y="439.37009" />
    <path
       style="fill:#945ac3;fill-opacity:1;stroke:none;stroke-width:1;stroke-linecap:butt;stroke-linejoin:miter;stroke-miterlimit:14.10000038;stroke-dasharray:none;stroke-opacity:1"
       d="M 382.67773 425.19727 L 382.67773 510.23633 L 843.30664 510.23633 L 843.30664 425.19727 L 382.67773 425.19727 z M 517.32227 428.74023 A 5.3149605 5.3149605 0 0 1 522.63867 434.05469 A 5.3149605 5.3149605 0 0 1 517.32227 439.36914 A 5.3149605 5.3149605 0 0 1 512.00781 434.05469 A 5.3149605 5.3149605 0 0 1 517.32227 428.74023 z "
       id="rect4228" />
    <circle
       r="5.3149605"
       cy="501.37796"
       cx="517.32288"
       id="circle4217"
       style="fill:#d3b33f;fill-opacity:0.58620689;stroke:none;stroke-width:1;stroke-linecap:butt;stroke-linejoin:miter;stroke-miterlimit:14.10000038;stroke-dasharray:none;stroke-opacity:1" />
    <path
       style="fill:#000000;fill-opacity:1;stroke:none;stroke-width:1;stroke-linecap:butt;stroke-linejoin:miter;stroke-miterlimit:14.10000038;stroke-dasharray:none;stroke-opacity:1"
       d="m 643.45591,7.5552445 0,88.5800765 -389.76367,0 -7.08594,0 -3.54296,0 -102.75586,0 0,141.732419 102.75586,0 3.54296,0 7.08594,0 389.76367,0 0,88.58399 88.58204,0 0,-318.8964855 -88.58204,0 z m 17.7168,67.3222665 53.15039,0 0,10.6289 -53.15039,0 0,-10.6289 z M 154.4813,108.53962 a 5.3149605,5.3149605 0 0 1 5.31446,5.31445 5.3149605,5.3149605 0 0 1 -5.31446,5.31445 5.3149605,5.3149605 0 0 1 -5.3164,-5.31445 5.3149605,5.3149605 0 0 1 5.3164,-5.31445 z m 77.95118,0 a 5.3149605,5.3149605 0 0 1 5.3164,5.31445 5.3149605,5.3149605 0 0 1 -5.3164,5.31445 5.3149605,5.3149605 0 0 1 -5.31446,-5.31445 5.3149605,5.3149605 0 0 1 5.31446,-5.31445 z m -38.97657,5.31445 a 5.3149605,5.3149605 0 0 1 5.31641,5.31445 5.3149605,5.3149605 0 0 1 -5.31641,5.31641 5.3149605,5.3149605 0 0 1 -5.31445,-5.31641 5.3149605,5.3149605 0 0 1 5.31445,-5.31445 z m 322.44141,17.71484 10.62891,0 0,70.86719 -10.62891,0 0,-70.86719 z m -322.44141,77.95508 a 5.3149605,5.3149605 0 0 1 5.31641,5.31445 5.3149605,5.3149605 0 0 1 -5.31641,5.31446 5.3149605,5.3149605 0 0 1 -5.31445,-5.31446 5.3149605,5.3149605 0 0 1 5.31445,-5.31445 z m -38.97461,5.31445 a 5.3149605,5.3149605 0 0 1 5.31446,5.31446 5.3149605,5.3149605 0 0 1 -5.31446,5.3164 5.3149605,5.3149605 0 0 1 -5.3164,-5.3164 5.3149605,5.3149605 0 0 1 5.3164,-5.31446 z m 77.95118,0 a 5.3149605,5.3149605 0 0 1 5.3164,5.31446 5.3149605,5.3149605 0 0 1 -5.3164,5.3164 5.3149605,5.3149605 0 0 1 -5.31446,-5.3164 5.3149605,5.3149605 0 0 1 5.31446,-5.31446 z m 428.74023,33.66211 53.15039,0 0,10.62891 -53.15039,0 0,-10.62891 z"
       id="path4223"
       inkscape:connector-curvature="0" />
    <path
       style="fill:#000000;fill-opacity:1;fill-rule:evenodd;stroke:none;stroke-width:1px;stroke-linecap:butt;stroke-linejoin:miter;stroke-opacity:1"
       d="m 495.36314,523.0056 0,-212.59763 -258.66204,0 0,70.86521 -10.62891,0 0,70.86523 10.62891,0 0,70.86719 258.66204,0 z m -70.8652,-14.17383 -53.1504,0 0,-10.62891 53.1504,0 0,10.62891 z m 60.2344,-16.83008 a 4.4291339,4.4291339 0 0 1 -4.4277,-4.42969 4.4291339,4.4291339 0 0 1 4.4277,-4.42773 4.4291339,4.4291339 0 0 1 4.4297,4.42773 4.4291339,4.4291339 0 0 1 -4.4297,4.42969 z m -226.77147,0 a 4.4291339,4.4291339 0 0 1 -4.42774,-4.42969 4.4291339,4.4291339 0 0 1 4.42774,-4.42773 4.4291339,4.4291339 0 0 1 4.42968,4.42773 4.4291339,4.4291339 0 0 1 -4.42968,4.42969 z M 484.73234,350.26927 a 4.4291339,4.4291339 0 0 1 -4.4277,-4.4297 4.4291339,4.4291339 0 0 1 4.4277,-4.4277 4.4291339,4.4291339 0 0 1 4.4297,4.4277 4.4291339,4.4291339 0 0 1 -4.4297,4.4297 z m -226.77147,0 a 4.4291339,4.4291339 0 0 1 -4.42774,-4.4297 4.4291339,4.4291339 0 0 1 4.42774,-4.4277 4.4291339,4.4291339 0 0 1 4.42968,4.4277 4.4291339,4.4291339 0 0 1 -4.42968,4.4297 z m 166.53707,-15.0586 -53.1504,0 0,-10.6309 53.1504,0 0,10.6309 z"
       id="path5755"
       inkscape:connector-curvature="0" />
    <path
       style="fill:#3f62d3;fill-opacity:0.58620689;stroke:none;stroke-width:1;stroke-linecap:butt;stroke-linejoin:miter;stroke-miterlimit:14.10000038;stroke-dasharray:none;stroke-opacity:1"
       d="m 504.24394,596.4666 0,14.17383 0,7.08593 -10.6289,0 0,70.86719 10.6289,0 0,7.08594 0,14.17383 88.58204,0 0,-21.25977 -10.62891,0 0,-70.86719 10.62891,0 0,-21.25976 -88.58204,0 z"
       id="rect4185"
       inkscape:connector-curvature="0" />
  </g>
</svg>
