<?xml version="1.0" encoding="UTF-8" standalone="no"?>
<svg
   xmlns:dc="http://purl.org/dc/elements/1.1/"
   xmlns:cc="http://creativecommons.org/ns#"
   xmlns:rdf="http://www.w3.org/1999/02/22-rdf-syntax-ns#"
   xmlns:svg="http://www.w3.org/2000/svg"
   xmlns="http://www.w3.org/2000/svg"
   width="81.099724mm"
   height="74.746986mm"
   viewBox="0 0 287.36123 264.85153"
   id="svg2"
   version="1.1">
  <defs
     id="defs4" />
  <metadata
     id="metadata7">
    <rdf:RDF>
      <cc:Work
         rdf:about="">
        <dc:format>image/svg+xml</dc:format>
        <dc:type
           rdf:resource="http://purl.org/dc/dcmitype/StillImage" />
        <dc:title></dc:title>
      </cc:Work>
    </rdf:RDF>
  </metadata>
  <path
     id="rect1070"
     d="m -44.114386,-68.398045 v 3.54487 h -35.43274 V 52.074348 H 69.271844 V -64.853175 h -21.26038 v -3.54487 z m 92.12585,9.301693 7.2876,4.20778 v 8.41552 l -7.2876,4.2078 -7.2876,-4.2078 v -8.41552 z m -116.92932,22.5879 h 31.88965 v 10.6311 h -31.88965 z m 88.58276,0 h 28.34656 v 10.6311 h -28.34656 z m -74.40856,38.9776997 a 5.3149533,5.3149533 0 0 1 5.31372,5.3136999 5.3149533,5.3149533 0 0 1 -5.31372,5.3155004 5.3149533,5.3149533 0 0 1 -5.31555,-5.3155004 5.3149533,5.3149533 0 0 1 5.31555,-5.3136999 z m 109.8413,0 a 5.3149533,5.3149533 0 0 1 5.31556,5.3136999 5.3149533,5.3149533 0 0 1 -5.31556,5.3155004 5.3149533,5.3149533 0 0 1 -5.31371,-5.3155004 5.3149533,5.3149533 0 0 1 5.31371,-5.3136999 z"
     style="fill:none;stroke:#000000;stroke-width:0.35433072;stroke-miterlimit:4;stroke-dasharray:none;stroke-opacity:1" />
  <path
     id="rect1080"
     d="M -79.547457,-64.853175 V 52.076148 h 35.43274 v -3.5431 h 92.125861 v 3.5431 h 35.43273 V -64.853175 Z m 15.94482,33.660323 a 7.0866432,7.0866432 0 0 1 7.08619,7.0879 7.0866432,7.0866432 0 0 1 -7.08619,7.0862 7.0866432,7.0866432 0 0 1 -7.08617,-7.0862 7.0866432,7.0866432 0 0 1 7.08617,-7.0879 z m 44.291381,1.7724 a 5.3149533,5.3149533 0 0 1 5.31556,5.3155 5.3149533,5.3149533 0 0 1 -5.31556,5.3138 5.3149533,5.3149533 0 0 1 -5.31555,-5.3138 5.3149533,5.3149533 0 0 1 5.31555,-5.3155 z m 44.29139,0 a 5.3149533,5.3149533 0 0 1 5.31556,5.3155 5.3149533,5.3149533 0 0 1 -5.31556,5.3138 5.3149533,5.3149533 0 0 1 -5.31555,-5.3138 5.3149533,5.3149533 0 0 1 5.31555,-5.3155 z m 46.06201,0 a 5.3149533,5.3149533 0 0 1 5.31555,5.3155 5.3149533,5.3149533 0 0 1 -5.31555,5.3138 5.3149533,5.3149533 0 0 1 -5.31372,-5.3138 5.3149533,5.3149533 0 0 1 5.31372,-5.3155 z m -33.66028,3.5431 h 21.25855 v 10.6293 h -21.25855 z"
     style="fill:none;stroke:#000000;stroke-width:0.35433072;stroke-miterlimit:4;stroke-dasharray:none;stroke-opacity:1" />
  <path
     id="rect2192"
     d="M -79.547458,-64.853175 V 52.076048 h 10.62927 v 10.6293 h 31.88965 v -10.6293 h 56.693112 v 10.6293 h 28.34656 v -10.6293 h 35.43274 V -64.853175 Z m 15.94482,33.660223 c 3.9142,2e-4 7.08694,3.1738 7.08619,7.088 -2.4e-4,3.9135 -3.17269,7.0859 -7.08619,7.0862 -3.91349,-3e-4 -7.08594,-3.1727 -7.08618,-7.0862 -7.5e-4,-3.9142 3.17199,-7.0878 7.08618,-7.088 z m 100.984502,5.3156 h 21.25854 v 10.6293 h -21.25854 z"
     style="fill:none;stroke:#000000;stroke-width:0.35433072;stroke-miterlimit:4;stroke-dasharray:none;stroke-opacity:1" />
  <path
     style="fill:none;stroke:#000000;stroke-width:0.35433072;stroke-miterlimit:4;stroke-dasharray:none;stroke-opacity:1"
     d="M 97.617896,105.22555 C 69.547494,105.20955 45.449994,85.246848 40.212594,57.669348 l -164.655794,-95.0629 h -6.482 v -67.322288 l 7.3371,-27.37979 13.689,3.6676 8.2525,-30.8038 30.803794,8.2544 -8.2544,30.8038 17.1149,4.585 8.2526,-30.8039 30.8038,8.2544 -8.254297,30.802 9.775897,2.62029 h 0.3205 v 0.086 l 3.5944,0.9632 -3.5944,13.412405 v 24.5691 l 99.3402,57.3540827 c 6.2173,-2.2086997 12.763602,-3.3490997 19.361502,-3.3727997 32.289214,4e-4 58.464114,26.1764 58.463814,58.4656 -4e-4,32.2885 -26.1753,58.463402 -58.463814,58.463802 z m 0,-51.377602 a 7.086627,7.086627 0 0 0 7.086214,-7.0862 7.086627,7.086627 0 0 0 -7.086214,-7.088 7.086627,7.086627 0 0 0 -7.0862,7.088 7.086627,7.086627 0 0 0 7.0862,7.0862 z M 21.436994,7.7841476 c 2.9351,3e-4 5.3148,-2.3786 5.3155,-5.3137999 4e-4,-2.93580004 -2.3798,-5.3158 -5.3155,-5.3155 -2.9359,-4e-4 -5.316,2.37969996 -5.3157,5.3155 7e-4,2.9351999 2.3805,5.3140999 5.3157,5.3137999 z M -8.6821058,-8.1607523 a 5.3149452,5.3149581 0 0 0 5.3155,-5.3136997 5.3149452,5.3149581 0 0 0 -5.3155,-5.3155 5.3149452,5.3149581 0 0 0 -5.3137002,5.3155 5.3149452,5.3149581 0 0 0 5.3137002,5.3136997 z M -47.657906,-32.077952 c 2.9358,3e-4 5.3159,-2.3797 5.3155,-5.3156 -6e-4,-2.9351 -2.3804,-5.314 -5.3155,-5.3137 -2.9351,-3e-4 -5.3149,2.3786 -5.3155,5.3137 -4e-4,2.9359 2.3797,5.3159 5.3155,5.3156 z m -37.205296,-19.4879 a 7.0866871,7.0866871 0 0 0 7.088096,-7.08618 7.0866871,7.0866871 0 0 0 -7.088096,-7.088003 7.0866871,7.0866871 0 0 0 -7.0861,7.088003 7.0866871,7.0866871 0 0 0 7.0861,7.08618 z m 42.612396,-69.988378 c 2.328,-0.089 4.327,-1.6831 4.931,-3.9331 0.7608,-2.8362 -0.9225,-5.7519 -3.7591,-6.5113 -2.8357,-0.7596 -5.7502,0.9235 -6.5094,3.7592 -0.7597,2.8356 0.9234,5.7501 3.7591,6.5094 0.5144,0.1373 1.0465,0.1966 1.5784,0.1758 z m -47.916896,-12.8394 c 2.3281,-0.089 4.327,-1.683 4.931,-3.9331 0.7608,-2.8362 -0.9226,-5.7519 -3.7591,-6.5112 -2.835,-0.7585 -5.7482,0.9244 -6.5076,3.7591 -0.7598,2.8351 0.9224,5.7493 3.7573,6.5094 0.5143,0.1374 1.0464,0.1966 1.5784,0.1758 z"
     id="path2198" />
  <path
     id="rect2210"
     d="m -0.70944582,-46.251552 c -5.52467998,0 -10.12537018,4.2395 -10.58532018,9.745 h -0.0439 c 2.9e-4,7.0864 0,21.2585 0,21.2585 h -2.65868 v 10.6310997 h -7.97242 V 13.098448 h 10.6311 c 0,0 0,14.1738 0,21.2604 h 0.0421 c 0.46002,5.5062 5.0617602,9.7418 10.58715018,9.7449 5.52470012,0 10.12539012,-4.2394 10.58533012,-9.7449 h 0.0439 c -2.3e-4,-7.0866 0,-21.2604 0,-21.2604 H 20.550914 V -4.6169523 h -7.97239 V -15.248052 H 9.9198343 c 0,0 0,-14.1721 0,-21.2585 h -0.0421 c -0.46001,-5.5062 -5.06176,-9.742 -10.58716012,-9.745 z m 0,5.3157 c 2.93510012,-4e-4 5.31484012,2.3785 5.31556012,5.3136 3.7e-4,2.9359 -2.37969,5.316 -5.31556012,5.3156 -2.93584998,3e-4 -5.31590998,-2.3797 -5.31554998,-5.3156 7.3e-4,-2.9351 2.38047,-5.3139 5.31554998,-5.3136 z m 0,36.3188997 c 1.95675012,1e-4 3.54298012,1.5863 3.54310012,3.5431 -1.2e-4,1.95669996 -1.58635,3.543 -3.54310012,3.543 -1.95673998,0 -3.54295998,-1.58630004 -3.54307998,-3.543 1.2e-4,-1.9568 1.58634,-3.543 3.54307998,-3.5431 z m 0,32.7758003 c 2.93514012,-4e-4 5.31490012,2.3786 5.31556012,5.3138 3.1e-4,2.9357 -2.37973,5.3159 -5.31556012,5.3155 -2.93581998,3e-4 -5.31585998,-2.3798 -5.31554998,-5.3155 6.7e-4,-2.9352 2.38043,-5.3141 5.31554998,-5.3138 z"
     style="fill:none;stroke:#000000;stroke-width:0.35433072;stroke-miterlimit:4;stroke-dasharray:none;stroke-opacity:1" />
</svg>
