<?xml version="1.0" encoding="UTF-8" standalone="no"?>
<!-- Created with Inkscape (http://www.inkscape.org/) -->

<svg
   xmlns:dc="http://purl.org/dc/elements/1.1/"
   xmlns:cc="http://creativecommons.org/ns#"
   xmlns:rdf="http://www.w3.org/1999/02/22-rdf-syntax-ns#"
   xmlns:svg="http://www.w3.org/2000/svg"
   xmlns="http://www.w3.org/2000/svg"
   xmlns:sodipodi="http://sodipodi.sourceforge.net/DTD/sodipodi-0.dtd"
   xmlns:inkscape="http://www.inkscape.org/namespaces/inkscape"
   width="72.099739mm"
   height="67.100464mm"
   viewBox="0 0 72.099737 67.100464"
   version="1.1"
   id="svg1814"
   inkscape:version="0.92.2 5c3e80d, 2017-08-06"
   sodipodi:docname="frontfeet-holder-2.svg">
  <defs
     id="defs1808" />
  <sodipodi:namedview
     id="base"
     pagecolor="#ffffff"
     bordercolor="#666666"
     borderopacity="1.0"
     inkscape:pageopacity="0.0"
     inkscape:pageshadow="2"
     inkscape:zoom="1.979899"
     inkscape:cx="228.1148"
     inkscape:cy="69.464471"
     inkscape:document-units="mm"
     inkscape:current-layer="layer1"
     showgrid="true"
     inkscape:window-width="1920"
     inkscape:window-height="1128"
     inkscape:window-x="0"
     inkscape:window-y="1"
     inkscape:window-maximized="1"
     fit-margin-top="0"
     fit-margin-left="0"
     fit-margin-right="0"
     fit-margin-bottom="0">
    <inkscape:grid
       type="xygrid"
       id="grid2397"
       units="mm"
       spacingx="0.25"
       spacingy="0.25"
       empspacing="4"
       originx="20.049999"
       originy="-228.94982" />
  </sodipodi:namedview>
  <metadata
     id="metadata1811">
    <rdf:RDF>
      <cc:Work
         rdf:about="">
        <dc:format>image/svg+xml</dc:format>
        <dc:type
           rdf:resource="http://purl.org/dc/dcmitype/StillImage" />
        <dc:title></dc:title>
      </cc:Work>
    </rdf:RDF>
  </metadata>
  <g
     inkscape:label="Layer 1"
     inkscape:groupmode="layer"
     id="layer1"
     transform="translate(20.050001,-0.94971102)">
    <path
       style="fill:none;stroke:#000000;stroke-width:0.10000001;stroke-miterlimit:4;stroke-dasharray:none;stroke-opacity:1"
       d="M -20.000001,0.99999477 V 2.9998723 h 2.999827 V 9.000013 h -2.999827 v 8.000549 h 2.999827 v 5.999641 h -2.999827 v 12.99972 H 11.999628 V 23.000203 H 8.9998 v -6.000144 h 2.999828 V 9.000038 L 8.999859,9.000013 V 3.0000106 h 2.999769 V 0.99999477 Z M -4.000962,3.5001 c 0.55245,-2.484e-4 1.000421,0.4474972 1.000448,0.9999388 -2.7e-5,0.5524359 -0.447998,1.0001871 -1.000448,0.9999387 -0.552225,-2.83e-5 -0.999942,-0.4477004 -0.999942,-0.9999387 0,-0.5522384 0.447717,-0.999905 0.999942,-0.9999388 z m -5.999115,3.500047 h 11.99978 v 22.750027 h -11.99978 z m -6.000157,4.499994 c 0.828548,-7.9e-5 1.500267,0.671618 1.500153,1.500161 -1.69e-4,0.82833 -0.67183,1.499737 -1.500153,1.49963 -0.82835,1.07e-4 -1.499984,-0.6713 -1.500153,-1.49963 -8.5e-5,-0.828543 0.671578,-1.50024 1.500153,-1.500161 z m 24.000095,0 c 0.828574,-7.9e-5 1.500235,0.671618 1.50015,1.500161 -1.69e-4,0.82833 -0.671801,1.499737 -1.50015,1.49963 -0.828352,1.07e-4 -1.499984,-0.671274 -1.500182,-1.49963 -5.6e-5,-0.828571 0.671634,-1.500268 1.500182,-1.500161 z M -4.000454,31.249832 c 0.55245,-2.64e-4 1.000448,0.44749 1.000477,0.99994 2.25e-4,0.552635 -0.447831,1.000704 -1.000477,1.00044 -0.55245,-2.4e-5 -1.000167,-0.448016 -0.999942,-1.00044 2.9e-5,-0.552265 0.447688,-0.999913 0.999942,-0.99994 z"
       id="path2966"
       inkscape:connector-curvature="0"
       sodipodi:nodetypes="ccccccccccccccccccccccccsccccccccccccccccccccc" />
    <path
       style="fill:none;stroke:#000000;stroke-width:0.10000001;stroke-miterlimit:4;stroke-dasharray:none;stroke-opacity:1"
       d="m 1.9996897,36.999466 -21.9996907,5.29e-4 V 68.00017 l 21.9996907,-5.29e-4 z m -18.4996457,1.500682 c 0.828549,-8.2e-5 1.500251,0.671615 1.500167,1.500169 8.4e-5,0.828548 -0.671618,1.500251 -1.500167,1.500166 -0.828576,9.8e-5 -1.500252,-0.671608 -1.500167,-1.500166 -8.5e-5,-0.828564 0.671591,-1.500267 1.500167,-1.500169 z m 15.0001178,0 c 0.82834991,2.01e-4 1.49973503,0.671814 1.49965003,1.500169 8.5e-5,0.828349 -0.67130012,1.499968 -1.49965003,1.500166 -0.828576,9.8e-5 -1.5002508,-0.671608 -1.5001669,-1.500166 -8.39e-5,-0.828564 0.6715909,-1.500267 1.5001669,-1.500169 z M -16.499956,51.00016 c 0.828549,-8.2e-5 1.500251,0.671613 1.500167,1.500169 -1.98e-4,0.828347 -0.671816,1.499735 -1.500167,1.499647 -0.82835,1.01e-4 -1.499969,-0.671287 -1.500167,-1.499647 -8.5e-5,-0.828567 0.671591,-1.500265 1.500167,-1.500169 z m 15.0001178,0 c 0.82834991,2.01e-4 1.49973503,0.671811 1.49965003,1.500169 -1.97e-4,0.828151 -0.67149712,1.499452 -1.49965003,1.499647 -0.828351,1.01e-4 -1.4999688,-0.671287 -1.5001669,-1.499647 -8.39e-5,-0.828567 0.6715909,-1.500265 1.5001669,-1.500169 z m -10.5001338,0.499713 a 1.0000037,0.99999976 0 0 1 0.999939,0.999937 1.0000037,0.99999976 0 0 1 -0.999939,0.99994 1.0000037,0.99999976 0 0 1 -1.000456,-0.99994 1.0000037,0.99999976 0 0 1 1.000456,-0.999937 z m 5.9996334,0 a 1.0000037,0.99999976 0 0 1 0.9999388,0.999937 1.0000037,0.99999976 0 0 1 -0.9999388,0.99994 1.0000037,0.99999976 0 0 1 -0.9999389,-0.99994 1.0000037,0.99999976 0 0 1 0.9999389,-0.999937 z M -16.499956,63.500174 c 0.828549,-8.7e-5 1.500251,0.671619 1.500167,1.500166 -1.98e-4,0.828347 -0.671816,1.499736 -1.500167,1.499651 -0.82835,1.14e-4 -1.499969,-0.671304 -1.500167,-1.499651 -8.5e-5,-0.828547 0.671619,-1.500282 1.500167,-1.500166 z m 15.0001178,0 c 0.82834991,1.96e-4 1.49973503,0.671814 1.49965003,1.500166 -1.97e-4,0.828152 -0.67149712,1.499455 -1.49965003,1.499651 -0.828351,1.14e-4 -1.4999688,-0.671304 -1.5001669,-1.499651 -8.39e-5,-0.828547 0.6716189,-1.500282 1.5001669,-1.500166 z"
       id="ellipse3146"
       inkscape:connector-curvature="0" />
    <path
       style="fill:none;stroke:#000000;stroke-width:0.1;stroke-miterlimit:4;stroke-dasharray:none;stroke-opacity:1"
       d="M 5.9999622,36.999466 V 67.999639 H 27.999652 V 36.999466 Z m 3.5000448,1.500166 c 0.828569,-9e-5 1.500273,0.671597 1.500167,1.500166 7.9e-5,0.828543 -0.671625,1.500248 -1.500167,1.500166 -0.8285429,8.2e-5 -1.5002467,-0.671623 -1.5001668,-1.500166 -1.061e-4,-0.828569 0.6715979,-1.500256 1.5001668,-1.500166 z m 15.000118,0 c 0.828358,1.88e-4 1.499756,0.671809 1.49965,1.500166 8e-5,0.828358 -0.671292,1.499984 -1.49965,1.500166 -0.828543,8.2e-5 -1.500246,-0.671623 -1.500167,-1.500166 -1.06e-4,-0.828569 0.671598,-1.500256 1.500167,-1.500166 z m -11.250476,2.500106 h 7.500317 v 8.999966 h -7.500317 z m -3.749642,9.999906 c 0.828542,-8e-5 1.500246,0.671623 1.500167,1.500166 -1.85e-4,0.828358 -0.67181,1.49973 -1.500167,1.49965 -0.828358,8e-5 -1.4999819,-0.671292 -1.5001668,-1.49965 -7.99e-5,-0.828543 0.6716239,-1.500246 1.5001668,-1.500166 z m 15.000118,0 c 0.828358,1.85e-4 1.49973,0.671809 1.49965,1.500166 -1.85e-4,0.828172 -0.671478,1.499465 -1.49965,1.49965 -0.828357,8e-5 -1.499982,-0.671292 -1.500167,-1.49965 -7.9e-5,-0.828543 0.671624,-1.500246 1.500167,-1.500166 z m -10.500134,0.500229 a 1.0000037,0.99999976 0 0 1 0.999939,0.999937 1.0000037,0.99999976 0 0 1 -0.999939,0.99994 1.0000037,0.99999976 0 0 1 -0.999939,-0.99994 1.0000037,0.99999976 0 0 1 0.999939,-0.999937 z m 5.999633,0 a 1.0000037,0.99999976 0 0 1 1.000456,0.999937 1.0000037,0.99999976 0 0 1 -1.000456,0.99994 1.0000037,0.99999976 0 0 1 -0.999939,-0.99994 1.0000037,0.99999976 0 0 1 0.999939,-0.999937 z M 13.249649,54.9994 h 7.500317 v 9.000485 h -7.500317 z m -3.749642,8.500256 c 0.828569,-8e-5 1.500273,0.671597 1.500167,1.500166 -2.12e-4,0.828357 -0.67181,1.49973 -1.500167,1.49965 -0.828358,8e-5 -1.4999557,-0.671293 -1.5001668,-1.49965 -1.061e-4,-0.828569 0.6715979,-1.500246 1.5001668,-1.500166 z m 15.000118,0 c 0.828358,1.85e-4 1.499756,0.671808 1.49965,1.500166 -2.11e-4,0.828146 -0.671504,1.499465 -1.49965,1.49965 -0.828357,8e-5 -1.499955,-0.671293 -1.500167,-1.49965 -1.06e-4,-0.828569 0.671598,-1.500246 1.500167,-1.500166 z"
       id="rect3156"
       inkscape:connector-curvature="0" />
    <path
       style="fill:none;stroke:#000000;stroke-width:0.10000001;stroke-miterlimit:4;stroke-dasharray:none;stroke-opacity:1"
       d="m 51.999739,36.999466 -21.999691,5.29e-4 V 68.00017 l 21.999691,-5.29e-4 z m -18.499648,1.500682 c 0.828577,-8.8e-5 1.500254,0.6716 1.500169,1.500169 5.8e-5,0.82854 -0.671621,1.500248 -1.500169,1.500166 -0.828519,8.2e-5 -1.500248,-0.671626 -1.500166,-1.500166 -1.11e-4,-0.828569 0.671618,-1.500257 1.500166,-1.500169 z m 15.000118,0 c 0.828352,1.88e-4 1.499735,0.671814 1.49965,1.500169 5.6e-5,0.82836 -0.671298,1.499983 -1.49965,1.500166 -0.828548,8.2e-5 -1.500251,-0.671626 -1.500166,-1.500166 -1.14e-4,-0.828569 0.671592,-1.500257 1.500166,-1.500169 z m -11.250475,2.49959 h 7.4998 v 8.999966 h -7.4998 z M 33.500091,51.00016 c 0.828548,-8.2e-5 1.500227,0.671626 1.500169,1.500169 -1.96e-4,0.828354 -0.67179,1.499727 -1.500169,1.499647 -0.82835,8e-5 -1.499968,-0.671293 -1.500166,-1.499647 -8.2e-5,-0.828543 0.671647,-1.500251 1.500166,-1.500169 z m 15.000118,0 c 0.828352,1.82e-4 1.499706,0.671808 1.49965,1.500169 -1.98e-4,0.828172 -0.671467,1.499465 -1.49965,1.499647 -0.82835,8e-5 -1.499997,-0.671293 -1.500166,-1.499647 -8.5e-5,-0.828543 0.671618,-1.500251 1.500166,-1.500169 z m -10.500651,0.499713 a 1.0000037,0.99999976 0 0 1 1.000456,0.999937 1.0000037,0.99999976 0 0 1 -1.000456,0.99994 1.0000037,0.99999976 0 0 1 -0.999937,-0.99994 1.0000037,0.99999976 0 0 1 0.999937,-0.999937 z m 6.000152,0 a 1.0000037,0.99999976 0 0 1 0.999937,0.999937 1.0000037,0.99999976 0 0 1 -0.999937,0.99994 1.0000037,0.99999976 0 0 1 -0.99994,-0.99994 1.0000037,0.99999976 0 0 1 0.99994,-0.999937 z M 37.249734,54.9994 h 7.4998 v 9.000485 h -7.4998 z m -3.749643,8.500774 c 0.828577,-8.7e-5 1.500254,0.671592 1.500169,1.500166 -2.25e-4,0.828353 -0.67179,1.499736 -1.500169,1.499651 -0.82835,8.5e-5 -1.499939,-0.671298 -1.500166,-1.499651 -1.11e-4,-0.828574 0.671618,-1.500253 1.500166,-1.500166 z m 15.000118,0 c 0.828352,1.67e-4 1.499735,0.671817 1.49965,1.500166 -2.27e-4,0.828154 -0.671496,1.499482 -1.49965,1.499651 -0.82835,8.5e-5 -1.499971,-0.671298 -1.500166,-1.499651 -1.14e-4,-0.828574 0.671592,-1.500253 1.500166,-1.500166 z"
       id="path1170"
       inkscape:connector-curvature="0" />
    <path
       style="fill:none;stroke:#000000;stroke-width:0.10000001;stroke-miterlimit:4;stroke-dasharray:none;stroke-opacity:1"
       d="m 14.000026,24.999651 v 7.00011 h 22.000155 v -7.00011 l -7.250007,-2.91e-4 v 3.000362 l -7.499999,2.64e-4 v -3.000278 z m 3.500035,2.500122 c 0.828577,-1.11e-4 1.500267,0.671605 1.500182,1.500164 -1.98e-4,0.828378 -0.67183,1.499758 -1.500182,1.499674 -0.828349,8.4e-5 -1.499954,-0.671322 -1.50015,-1.499674 -8.5e-5,-0.828559 0.671602,-1.500249 1.50015,-1.500164 z m 15.00014,0 c 0.82835,1.98e-4 1.49973,0.671803 1.49964,1.500164 -1.9e-4,0.828153 -0.67149,1.499475 -1.49964,1.499674 -0.82835,8.4e-5 -1.49998,-0.671296 -1.50018,-1.499674 -8e-5,-0.828559 0.67161,-1.500275 1.50018,-1.500164 z"
       id="path2130"
       inkscape:connector-curvature="0"
       sodipodi:nodetypes="cccccccccccccccccsc" />
    <path
       style="fill:none;stroke:#000000;stroke-width:0.10000001;stroke-miterlimit:4;stroke-dasharray:none;stroke-opacity:1"
       d="m 14.000055,10.999922 v 10.999845 h 7.250205 v -2.999816 h 7.4998 v 2.999816 h 7.250201 V 10.999922 H 28.75006 v 2.999816 h -7.4998 v -2.999816 z m 3.500035,3.999755 c 0.828577,-8.5e-5 1.500265,0.671615 1.50018,1.500166 -1.96e-4,0.828351 -0.67183,1.499735 -1.50018,1.49965 -0.828323,8.5e-5 -1.499954,-0.671299 -1.500153,-1.49965 -8.4e-5,-0.828551 0.671605,-1.500251 1.500153,-1.500166 z m 15.000141,0 c 0.82835,2.11e-4 1.49973,0.671824 1.49964,1.500166 -1.9e-4,0.828142 -0.67152,1.499438 -1.49964,1.49965 -0.82841,1.19e-4 -1.49999,-0.671277 -1.50018,-1.49965 -6e-5,-0.828573 0.6716,-1.500282 1.50018,-1.500166 z m -10.500136,0.500227 a 1.0000038,1 0 0 1 0.999942,0.999939 1.0000038,1 0 0 1 -0.999942,0.999942 1.0000038,1 0 0 1 -0.99994,-0.999942 1.0000038,1 0 0 1 0.99994,-0.999939 z m 6.000157,0 a 1.0000038,1 0 0 1 0.999913,0.999939 1.0000038,1 0 0 1 -0.999913,0.999942 1.0000038,1 0 0 1 -0.99994,-0.999942 1.0000038,1 0 0 1 0.99994,-0.999939 z"
       id="path2132"
       inkscape:connector-curvature="0" />
    <path
       id="path2134"
       d="M 13.999999,8.000086 V 0.99999477 l 22.000182,-2.831e-4 V 7.999803 l -7.250007,2.46e-4 V 4.9997132 H 21.250175 V 8.000049 Z m 3.500036,-2.500108 c 0.828548,8.4e-5 1.500235,-0.6716161 1.50015,-1.5001668 -1.96e-4,-0.8283506 -0.671801,-1.4997348 -1.50015,-1.4996501 -0.828352,-8.47e-5 -1.499955,0.6712995 -1.500153,1.4996501 -8.5e-5,0.8285507 0.671605,1.5002508 1.500153,1.5001668 z m 15.000136,0 c 0.82835,-2.12e-4 1.4997,-0.6718249 1.49962,-1.5001668 -2e-4,-0.8281416 -0.67146,-1.4994385 -1.49962,-1.4996501 -0.82838,-1.156e-4 -1.50001,0.671277 -1.50021,1.4996501 -8e-5,0.8285734 0.67164,1.5002818 1.50021,1.5001668 z"
       style="fill:none;stroke:#000000;stroke-width:0.10000001;stroke-miterlimit:4;stroke-dasharray:none;stroke-opacity:1"
       inkscape:connector-curvature="0"
       sodipodi:nodetypes="cccccccccccccccccsc" />
  </g>
</svg>
