<?xml version="1.0" encoding="UTF-8" standalone="no"?>
<svg
   xmlns:dc="http://purl.org/dc/elements/1.1/"
   xmlns:cc="http://creativecommons.org/ns#"
   xmlns:rdf="http://www.w3.org/1999/02/22-rdf-syntax-ns#"
   xmlns:svg="http://www.w3.org/2000/svg"
   xmlns="http://www.w3.org/2000/svg"
   id="svg959"
   version="1.1"
   viewBox="0 0 109.10001 12.100001"
   height="12.100001mm"
   width="109.10001mm">
  <defs
     id="defs953" />
  <metadata
     id="metadata956">
    <rdf:RDF>
      <cc:Work
         rdf:about="">
        <dc:format>image/svg+xml</dc:format>
        <dc:type
           rdf:resource="http://purl.org/dc/dcmitype/StillImage" />
        <dc:title></dc:title>
      </cc:Work>
    </rdf:RDF>
  </metadata>
  <g
     transform="translate(96.127385,-142.78333)"
     id="layer1">
    <path
       id="rect937"
       transform="matrix(0.26458333,0,0,0.26458333,-96.127385,142.78333)"
       d="M 22.865234 0.18945312 A 22.677167 22.677167 0 0 0 0.18945312 22.865234 A 22.677167 22.677167 0 0 0 22.865234 45.542969 L 389.48047 45.542969 A 22.677167 22.677167 0 0 0 412.1582 22.865234 A 22.677167 22.677167 0 0 0 389.48047 0.18945312 L 22.865234 0.18945312 z M 36.09375 7.2753906 A 15.590567 15.590567 0 0 1 51.685547 22.865234 A 15.590567 15.590567 0 0 1 36.09375 38.457031 A 15.590567 15.590567 0 0 1 20.503906 22.865234 A 15.590567 15.590567 0 0 1 36.09375 7.2753906 z M 376.25195 7.2753906 A 15.590567 15.590567 0 0 1 391.8418 22.865234 A 15.590567 15.590567 0 0 1 376.25195 38.457031 A 15.590567 15.590567 0 0 1 360.66211 22.865234 A 15.590567 15.590567 0 0 1 376.25195 7.2753906 z M 206.17383 17.197266 A 5.6692814 5.6692841 0 0 1 211.8418 22.865234 A 5.6692814 5.6692841 0 0 1 206.17383 28.535156 A 5.6692814 5.6692841 0 0 1 200.50391 22.865234 A 5.6692814 5.6692841 0 0 1 206.17383 17.197266 z "
       style="fill:none;stroke:#000000;stroke-width:0.37795278;stroke-miterlimit:4;stroke-dasharray:none;stroke-opacity:1" />
  </g>
</svg>
