<?xml version="1.0" encoding="UTF-8" standalone="no"?>
<svg
   xmlns:dc="http://purl.org/dc/elements/1.1/"
   xmlns:cc="http://creativecommons.org/ns#"
   xmlns:rdf="http://www.w3.org/1999/02/22-rdf-syntax-ns#"
   xmlns:svg="http://www.w3.org/2000/svg"
   xmlns="http://www.w3.org/2000/svg"
   id="svg1784"
   version="1.1"
   viewBox="0 0 10 10"
   height="10mm"
   width="10mm">
  <defs
     id="defs1778" />
  <metadata
     id="metadata1781">
    <rdf:RDF>
      <cc:Work
         rdf:about="">
        <dc:format>image/svg+xml</dc:format>
        <dc:type
           rdf:resource="http://purl.org/dc/dcmitype/StillImage" />
        <dc:title></dc:title>
      </cc:Work>
    </rdf:RDF>
  </metadata>
  <g
     transform="translate(0,-287)"
     id="layer1">
    <path
       id="path1104"
       d="m -103.75004,247.00035 v 27.99983 h 10.99984 v 0.99994 h 25.99997 v -0.99994 h 9.00049 V 247.00035 Z M -98,253 a 2.0000083,2.0000083 0 0 1 1.99987,1.99985 A 2.0000083,2.0000083 0 0 1 -98,257.00027 2.0000083,2.0000083 0 0 1 -99.99988,254.99985 2.0000083,2.0000083 0 0 1 -98,253 Z m 11.99978,0.50021 a 1.499998,1.499998 0 0 1 1.50017,1.49964 1.499998,1.499998 0 0 1 -1.50017,1.50019 1.499998,1.499998 0 0 1 -1.49965,-1.50019 1.499998,1.499998 0 0 1 1.49965,-1.49964 z m 12.50001,0 a 1.499998,1.499998 0 0 1 1.50017,1.50018 1.499998,1.499998 0 0 1 -1.50017,1.49965 1.499998,1.499998 0 0 1 -1.49965,-1.49965 1.499998,1.499998 0 0 1 1.49965,-1.50018 z m 12.50002,0 a 1.499998,1.499998 0 0 1 1.50016,1.50018 1.499998,1.499998 0 0 1 -1.50016,1.49965 1.499998,1.499998 0 0 1 -1.49966,-1.49965 1.499998,1.499998 0 0 1 1.49966,-1.50018 z m -9.24957,0.99994 h 5.99964 v 2.99983 h -5.99964 z"
       style="fill:none;stroke:#000000;stroke-width:0.10000001;stroke-miterlimit:4;stroke-dasharray:none;stroke-opacity:1" />
    <path
       id="rect2210"
       d="m -48.99985,281.2498 c -1.55919,0 -2.85761,1.19645 -2.98742,2.75023 h -0.0124 c 9e-5,1.99997 0,5.99965 0,5.99965 h -0.75034 v 3.0003 H -55 V 299 h 3.00033 v 6.00013 h 0.0119 c 0.12983,1.554 1.42854,2.74938 2.98793,2.75025 1.5592,0 2.85761,-1.19645 2.98742,-2.75025 h 0.0124 c -6e-5,-1.99997 0,-6.00013 0,-6.00013 h 3.00033 v -6.00002 h -2.24999 v -3.0003 h -0.75039 v -5.99965 h -0.0119 c -0.12983,-1.55397 -1.42854,-2.74938 -2.98793,-2.75023 z m 0,1.50018 c 0.82835,-1.1e-4 1.49996,0.67127 1.50017,1.49964 10e-5,0.82856 -0.67161,1.5003 -1.50017,1.50019 -0.82857,8e-5 -1.50028,-0.67163 -1.50017,-1.50019 2e-4,-0.82837 0.67182,-1.49972 1.50017,-1.49964 z m -5e-5,10.7503 c 0.55223,3e-5 0.9999,0.44772 0.99993,0.99994 -3e-5,0.55225 -0.4477,0.99991 -0.99993,0.99994 -0.55224,-3e-5 -0.99991,-0.44769 -0.99994,-0.99994 3e-5,-0.55222 0.4477,-0.99991 0.99994,-0.99994 z m 5e-5,9.7501 c 0.82835,-1.1e-4 1.49997,0.67129 1.50017,1.49964 8e-5,0.82855 -0.67162,1.50027 -1.50017,1.50018 -0.82856,6e-5 -1.50026,-0.67163 -1.50017,-1.50018 1.9e-4,-0.82835 0.67181,-1.49973 1.50017,-1.49964 z"
       style="fill:none;stroke:#000000;stroke-width:0.10000001;stroke-miterlimit:4;stroke-dasharray:none;stroke-opacity:1" />
    <path
       id="path2226"
       d="m -104,279 v 1.00048 27.99986 h 44.00043 V 280.00048 279 h -9.0005 v 1.00048 H -95.00003 V 279 Z m 34.50023,3.12542 2.05672,1.1875 v 2.37507 l -2.05672,1.18754 -2.05673,-1.18754 v -2.37507 z m -25.50026,6.87501 h 25.99996 v 2.99983 h -25.99996 z m -2.7497,8.49975 a 1.499998,1.499998 0 0 1 1.50016,1.50018 1.499998,1.499998 0 0 1 -1.50016,1.49964 1.499998,1.499998 0 0 1 -1.50017,-1.49964 1.499998,1.499998 0 0 1 1.50017,-1.50018 z m 31.49989,0 a 1.499998,1.499998 0 0 1 1.50016,1.50018 1.499998,1.499998 0 0 1 -1.50016,1.49964 1.499998,1.499998 0 0 1 -1.50017,-1.49964 1.499998,1.499998 0 0 1 1.50017,-1.50018 z"
       style="fill:none;stroke:#000000;stroke-width:0.10000001;stroke-miterlimit:4;stroke-dasharray:none;stroke-opacity:1" />
    <path
       id="rect1044"
       d="m 24,273 v 33.99999 h 49.999532 50.000048 50.00005 50.00005 V 273 H 173.99963 123.99958 73.999532 Z m 8.749853,7.00009 h 7.4998 c 2.215999,0 4.000275,1.78376 4.000275,3.99976 0,2.216 -1.784276,4.00027 -4.000275,4.00027 h -7.4998 c -2.215999,0 -4.000272,-1.78427 -4.000272,-4.00027 0,-2.216 1.784273,-3.99976 4.000272,-3.99976 z m 25.000024,0 h 7.499802 c 2.216,0 4.000273,1.78376 4.000273,3.99976 0,2.216 -1.784273,4.00027 -4.000273,4.00027 h -7.499802 c -2.215999,0 -4.000272,-1.78427 -4.000272,-4.00027 0,-2.216 1.784273,-3.99976 4.000272,-3.99976 z m 25.000024,0 h 7.499802 c 2.215999,0 4.000273,1.78376 4.000273,3.99976 0,2.216 -1.784274,4.00027 -4.000273,4.00027 h -7.499802 c -2.215999,0 -4.000273,-1.78427 -4.000273,-4.00027 0,-2.216 1.784274,-3.99976 4.000273,-3.99976 z m 25.000029,0 h 7.4998 c 2.216,0 4.00027,1.78376 4.00027,3.99976 0,2.216 -1.78427,4.00027 -4.00027,4.00027 h -7.4998 c -2.216,0 -4.00027,-1.78427 -4.00027,-4.00027 0,-2.216 1.78427,-3.99976 4.00027,-3.99976 z m 25.00002,0 h 7.4998 c 2.216,0 3.99976,1.78376 3.99976,3.99976 0,2.216 -1.78376,4.00027 -3.99976,4.00027 h -7.4998 c -2.216,0 -4.00027,-1.78427 -4.00027,-4.00027 0,-2.216 1.78427,-3.99976 4.00027,-3.99976 z m 25.00003,0 h 7.4998 c 2.216,0 3.99975,1.78376 3.99975,3.99976 0,2.216 -1.78375,4.00027 -3.99975,4.00027 h -7.4998 c -2.216,0 -4.00027,-1.78427 -4.00027,-4.00027 0,-2.216 1.78427,-3.99976 4.00027,-3.99976 z m 25.00002,0 h 7.4998 c 2.216,0 3.99976,1.78376 3.99976,3.99976 0,2.216 -1.78376,4.00027 -3.99976,4.00027 H 182.75 c -2.216,0 -4.00027,-1.78427 -4.00027,-4.00027 0,-2.216 1.78427,-3.99976 4.00027,-3.99976 z m 24.99951,0 h 7.50032 c 2.21599,0 3.99975,1.78376 3.99975,3.99976 0,2.216 -1.78376,4.00027 -3.99975,4.00027 h -7.50032 c -2.216,0 -3.99976,-1.78427 -3.99976,-4.00027 0,-2.216 1.78376,-3.99976 3.99976,-3.99976 z"
       style="fill:none;stroke:#000000;stroke-width:0.10000001;stroke-miterlimit:4;stroke-dasharray:none;stroke-opacity:1" />
    <path
       id="rect1075"
       d="m 24,309 v 34.4997 H 223.99968 V 309 Z m 11.749669,17.99993 H 62.24986 c 2.215996,0 3.999756,1.78376 3.999756,3.99976 0,2.216 -1.78376,4.00027 -3.999756,4.00027 H 35.749669 c -2.215993,0 -3.999756,-1.78427 -3.999756,-4.00027 0,-2.216 1.783763,-3.99976 3.999756,-3.99976 z m 50.000048,0 h 26.500193 c 2.21599,0 3.99976,1.78376 3.99976,3.99976 0,2.216 -1.78377,4.00027 -3.99976,4.00027 H 85.749717 c -2.215994,0 -3.999754,-1.78427 -3.999754,-4.00027 0,-2.216 1.78376,-3.99976 3.999754,-3.99976 z m 50.000053,0 h 26.50019 c 2.21599,0 3.99975,1.78376 3.99975,3.99976 0,2.216 -1.78376,4.00027 -3.99975,4.00027 h -26.50019 c -2.216,0 -4.00028,-1.78427 -4.00028,-4.00027 0,-2.216 1.78428,-3.99976 4.00028,-3.99976 z m 50.00004,0 h 26.5002 c 2.21599,0 3.99975,1.78376 3.99975,3.99976 0,2.216 -1.78376,4.00027 -3.99975,4.00027 h -26.5002 c -2.21599,0 -4.00027,-1.78427 -4.00027,-4.00027 0,-2.216 1.78428,-3.99976 4.00027,-3.99976 z"
       style="fill:none;stroke:#000000;stroke-width:0.10000001;stroke-miterlimit:4;stroke-dasharray:none;stroke-opacity:1" />
    <path
       id="circle1139"
       d="m -55,247 v 27.99983 h 10.99985 v 2.99983 h 25.99995 v -2.99983 h 9.00049 V 247 Z m 5.74953,5.99965 c 1.10446,6e-5 1.99979,0.89538 1.99987,1.99985 2.1e-4,1.10468 -0.8952,2.00031 -1.99987,2.0004 -1.10468,-9e-5 -2.00009,-0.89572 -1.99988,-2.0004 8e-5,-1.10447 0.89541,-1.99979 1.99988,-1.99985 z m 27.75023,1.50015 h 5.99962 v 2.99983 h -5.99962 z"
       style="fill:none;stroke:#000000;stroke-width:0.10000001;stroke-miterlimit:4;stroke-dasharray:none;stroke-opacity:1" />
    <path
       id="rect887-4"
       d="m -8,247 v 43.50019 h -0.9999398 a 3.0000053,3.0000053 0 0 0 -2.9998162,2.99981 3.0000053,3.0000053 0 0 0 2.9998162,2.99982 H -8 v 7.00009 h -0.9999398 a 3.0000053,3.0000053 0 0 0 -2.9998162,2.99982 3.0000053,3.0000053 0 0 0 2.9998162,3.00033 H -8 v 2.50011 h 18.999874 v -2.50011 h 2.500107 a 3.0000053,3.0000053 0 0 0 3.000332,-3.00033 3.0000053,3.0000053 0 0 0 -3.000332,-2.99982 h -2.500107 v -7.00009 h 2.500107 A 3.0000053,3.0000053 0 0 0 16.500313,293.5 3.0000053,3.0000053 0 0 0 13.499981,290.50019 H 10.999874 V 247 Z m -0.9999398,45.50006 A 1.0000001,0.9999991 0 0 1 -8,293.5 1.0000001,0.9999991 0 0 1 -8.9999398,294.49994 1.0000001,0.9999991 0 0 1 -9.9998769,293.5 a 1.0000001,0.9999991 0 0 1 0.9999371,-0.99994 z m 22.4999208,0 a 1.0000001,0.9999991 0 0 1 0.999937,0.99994 1.0000001,0.9999991 0 0 1 -0.999937,0.99994 1.0000001,0.9999991 0 0 1 -0.99994,-0.99994 1.0000001,0.9999991 0 0 1 0.99994,-0.99994 z M -8.9999398,305.49979 A 1.0000001,0.9999991 0 0 1 -8,306.50024 a 1.0000001,0.9999991 0 0 1 -0.9999398,0.99994 1.0000001,0.9999991 0 0 1 -0.9999371,-0.99994 1.0000001,0.9999991 0 0 1 0.9999371,-1.00045 z m 22.4999208,0 a 1.0000001,0.9999991 0 0 1 0.999937,1.00045 1.0000001,0.9999991 0 0 1 -0.999937,0.99994 1.0000001,0.9999991 0 0 1 -0.99994,-0.99994 1.0000001,0.9999991 0 0 1 0.99994,-1.00045 z"
       style="fill:none;stroke:#000000;stroke-width:0.10000002;stroke-miterlimit:4;stroke-dasharray:none;stroke-opacity:1" />
    <path
       id="rect1762"
       d="m 16,249 v 21.49998 H 139.00024 V 249 Z m 7.4998,6.74997 h 8.000029 c 2.215991,0 4.000272,1.78426 4.000272,4.00027 0,2.21598 -1.784281,3.99976 -4.000272,3.99976 H 23.4998 c -2.21602,0 -3.999756,-1.78378 -3.999756,-3.99976 0,-2.21601 1.783736,-4.00027 3.999756,-4.00027 z m 21.499978,0 a 4.0000009,3.9999996 0 0 1 4.000275,4.00027 4.0000009,3.9999996 0 0 1 -4.000275,3.99976 4.0000009,3.9999996 0 0 1 -3.999754,-3.99976 4.0000009,3.9999996 0 0 1 3.999754,-4.00027 z m 14.000181,0 a 4.0000009,3.9999996 0 0 1 3.999756,4.00027 4.0000009,3.9999996 0 0 1 -3.999756,3.99976 4.0000009,3.9999996 0 0 1 -4.000273,-3.99976 4.0000009,3.9999996 0 0 1 4.000273,-4.00027 z m 13.499949,0 h 8.000029 c 2.215991,0 3.999756,1.78426 3.999756,4.00027 0,2.21598 -1.783765,3.99976 -3.999756,3.99976 h -8.000029 c -2.216018,0 -4.000273,-1.78378 -4.000273,-3.99976 0,-2.21601 1.784255,-4.00027 4.000273,-4.00027 z m 22.49992,0 a 4.0000009,3.9999996 0 0 1 4.000272,4.00027 4.0000009,3.9999996 0 0 1 -4.000272,3.99976 4.0000009,3.9999996 0 0 1 -3.999756,-3.99976 4.0000009,3.9999996 0 0 1 3.999756,-4.00027 z m 14.499892,0 h 8.00003 c 2.21596,0 4.00027,1.78426 4.00027,4.00027 0,2.21598 -1.78431,3.99976 -4.00027,3.99976 h -8.00003 c -2.21605,0 -3.99976,-1.78378 -3.99976,-3.99976 0,-2.21601 1.78371,-4.00027 3.99976,-4.00027 z m 22.50043,0 a 4.0000009,3.9999996 0 0 1 3.99976,4.00027 4.0000009,3.9999996 0 0 1 -3.99976,3.99976 4.0000009,3.9999996 0 0 1 -4.00027,-3.99976 4.0000009,3.9999996 0 0 1 4.00027,-4.00027 z"
       style="fill:none;stroke:#000000;stroke-width:0.10000001;stroke-miterlimit:4;stroke-dasharray:none;stroke-opacity:1" />
  </g>
</svg>
