<?xml version="1.0" encoding="UTF-8" standalone="no"?>
<svg
   xmlns:dc="http://purl.org/dc/elements/1.1/"
   xmlns:cc="http://creativecommons.org/ns#"
   xmlns:rdf="http://www.w3.org/1999/02/22-rdf-syntax-ns#"
   xmlns:svg="http://www.w3.org/2000/svg"
   xmlns="http://www.w3.org/2000/svg"
   id="svg6349"
   version="1.1"
   viewBox="0 0 87.280571 58.800228"
   height="58.800228mm"
   width="87.280571mm">
  <defs
     id="defs6343" />
  <metadata
     id="metadata6346">
    <rdf:RDF>
      <cc:Work
         rdf:about="">
        <dc:format>image/svg+xml</dc:format>
        <dc:type
           rdf:resource="http://purl.org/dc/dcmitype/StillImage" />
        <dc:title></dc:title>
      </cc:Work>
    </rdf:RDF>
  </metadata>
  <g
     transform="translate(63.295047,118.69178)"
     id="layer1">
    <path
       id="path1055"
       d="m 7.3878686,-118.64172 c -6.189821,0.0186 -12.01248,3.53605 -14.808914,9.33277 l -53.7641536,14.26631 -2.059305,25.04705 0.51779,1.931665 2.172493,-0.581877 2.329577,8.69301 8.694024,-2.329574 -2.329577,-8.693526 0.483182,-0.129191 -0.51779,-1.931664 3.863843,-1.03508 0.51779,1.931665 0.483711,-0.129709 2.329577,8.693526 8.69352,-2.329572 -2.329074,-8.693528 2.171462,-0.581875 -0.517287,-1.931667 1.689814,-0.453202 -0.496596,-1.937348 2.347119,-0.655257 31.2704686,-8.378817 c 1.53349804,1.056254 3.234849,1.84531 5.031713,2.333707 8.8022654,2.358435 17.8495864,-2.865792 20.2080824,-11.668021 2.358363,-8.802065 -2.864988,-17.849455 -11.666988,-20.208065 h -0.0026 c -1.434352,-0.38347 -2.8819674,-0.56565 -4.3098434,-0.56173 z m 0.154014,13.25087 c 0.241962,0.008 0.486886,0.0442 0.7307,0.10956 1.7337094,0.46458 2.7625684,2.24639 2.2980394,3.98012 -0.464371,1.733964 -2.2467104,2.763124 -3.9806304,2.298564 -1.733894,-0.464635 -2.762383,-2.246794 -2.297536,-3.980634 0.377481,-1.40863 1.624251,-2.35201 3.008603,-2.40709 0.07988,-0.003 0.160153,-0.003 0.240824,-5.3e-4 z m -24.1732056,8.259449 c 0.147426,-0.0058 0.298529,0.0099 0.448548,0.05013 0.800126,0.214299 1.275106,1.036912 1.060926,1.837097 -0.214365,0.800352 -1.037352,1.274924 -1.83761,1.0604 -0.800392,-0.214355 -1.275477,-1.036786 -1.060927,-1.837097 0.174361,-0.650068 0.750147,-1.085213 1.389063,-1.110525 z m -9.37514,2.146638 c 0.147399,-0.0059 0.298026,0.01 0.448045,0.05013 0.800153,0.214308 1.275133,1.036413 1.0609,1.836582 -0.214365,0.800346 -1.036796,1.275442 -1.837081,1.060918 -0.800074,-0.214572 -1.274869,-1.036976 -1.060424,-1.837097 0.174334,-0.649909 0.749803,-1.085038 1.38856,-1.110528 z m -12.372367,3.672644 c 0.147479,-0.0058 0.298477,0.01042 0.448548,0.05064 0.800312,0.214355 1.275451,1.036802 1.060927,1.837097 -0.214551,0.800082 -1.037511,1.274882 -1.837637,1.0604 -0.800153,-0.21431 -1.275133,-1.036928 -1.0609,-1.837097 0.174122,-0.650291 0.750014,-1.085673 1.389062,-1.111044 z m -11.715062,2.578137 c 0.196586,-0.0078 0.397881,0.0136 0.597906,0.06718 1.067144,0.285712 1.700212,1.38241 1.414383,2.449462 -0.285777,1.067281 -1.382819,1.700551 -2.449989,1.414383 -1.066959,-0.285975 -1.699948,-1.382477 -1.413854,-2.449462 0.232331,-0.866783 0.999702,-1.44765 1.851554,-1.481564 z m 8.632031,18.148247 c 0.657014,0.02503 1.220682,0.475001 1.391127,1.110009 0.214709,0.800436 -0.259848,1.622801 -1.060397,1.837098 -0.800286,0.214394 -1.623351,-0.260099 -1.837611,-1.0604 -0.214365,-0.800272 0.260615,-1.622809 1.060926,-1.837097 0.145151,-0.03875 0.295857,-0.05546 0.445955,-0.04961 z m -13.523198,3.623551 c 0.65704,0.025 1.221158,0.474991 1.391655,1.110009 0.21471,0.800439 -0.260879,1.622811 -1.061429,1.837097 -0.800073,0.214107 -1.622266,-0.260871 -1.836605,-1.060915 -0.214418,-0.800106 0.26035,-1.62206 1.060424,-1.836582 0.145124,-0.03876 0.29583,-0.05546 0.445955,-0.04961 z"
       style="fill:none;stroke:#000000;stroke-width:0.1;stroke-miterlimit:4;stroke-dasharray:none;stroke-opacity:1" />
  </g>
</svg>
