<?xml version="1.0" encoding="UTF-8" standalone="no"?>
<svg
   xmlns:dc="http://purl.org/dc/elements/1.1/"
   xmlns:cc="http://creativecommons.org/ns#"
   xmlns:rdf="http://www.w3.org/1999/02/22-rdf-syntax-ns#"
   xmlns:svg="http://www.w3.org/2000/svg"
   xmlns="http://www.w3.org/2000/svg"
   id="svg1246"
   version="1.1"
   viewBox="0 0 269.52535 114.77491"
   height="114.7749mm"
   width="269.52536mm">
  <defs
     id="defs1240" />
  <metadata
     id="metadata1243">
    <rdf:RDF>
      <cc:Work
         rdf:about="">
        <dc:format>image/svg+xml</dc:format>
        <dc:type
           rdf:resource="http://purl.org/dc/dcmitype/StillImage" />
        <dc:title></dc:title>
      </cc:Work>
    </rdf:RDF>
  </metadata>
  <g
     transform="translate(329.35843,244.69625)"
     id="layer1">
    <path
       id="path953"
       d="m -215.38321,-211.39653 a 7.9999991,7.9999991 0 0 0 -8.00004,8.00003 7.9999991,7.9999991 0 0 0 2.49961,5.79654 v 33.20367 h 11.00035 v -33.19695 a 7.9999991,7.9999991 0 0 0 2.50012,-5.80326 7.9999991,7.9999991 0 0 0 -8.00004,-8.00003 z m 0,6.49986 a 1.5000099,1.5000099 0 0 1 1.49965,1.50017 1.5000099,1.5000099 0 0 1 -1.49965,1.50017 1.5000099,1.5000099 0 0 1 -1.50018,-1.50017 1.5000099,1.5000099 0 0 1 1.50018,-1.50017 z m 0,14.2503 a 1,1 0 0 1 0.99994,0.99993 1,1 0 0 1 -0.99994,0.99994 1,1 0 0 1 -1.00045,-0.99994 1,1 0 0 1 1.00045,-0.99993 z m 0,4.99969 a 0.9999984,1.0000001 0 0 1 0.99994,1.00046 0.9999984,1.0000001 0 0 1 -0.99994,0.99994 0.9999984,1.0000001 0 0 1 -1.00045,-0.99994 0.9999984,1.0000001 0 0 1 1.00045,-1.00046 z m 0,4.00028 a 0.9999984,1.0000001 0 0 1 0.99994,0.99993 0.9999984,1.0000001 0 0 1 -0.99994,0.99994 0.9999984,1.0000001 0 0 1 -1.00045,-0.99994 0.9999984,1.0000001 0 0 1 1.00045,-0.99993 z m 0,3.99975 a 0.9999984,1.0000001 0 0 1 0.99994,0.99994 0.9999984,1.0000001 0 0 1 -0.99994,1.00045 0.9999984,1.0000001 0 0 1 -1.00045,-1.00045 0.9999984,1.0000001 0 0 1 1.00045,-0.99994 z m 0,3.75016 a 3.5000017,3.5000007 0 0 1 3.49953,3.50004 3.5000017,3.5000007 0 0 1 -3.49953,3.50005 3.5000017,3.5000007 0 0 1 -3.50006,-3.50005 3.5000017,3.5000007 0 0 1 3.50006,-3.50004 z"
       style="fill:none;stroke:#000000;stroke-width:0.10000001;stroke-miterlimit:4;stroke-dasharray:none;stroke-opacity:1" />
    <path
       id="rect1007"
       d="m -257.38291,-215.6464 v 21.00027 h -3.00033 v 3.99976 h 3.00033 v 6.00015 h -3.00033 v 3.99975 h 3.00033 v 8.00003 h -3.00033 v 4.00028 h 3.00033 v 3.99975 h 18.99988 v -3.99975 h 2.99982 v -4.00028 h -2.99982 v -7.99951 h 2.99982 v -4.00027 h -2.99982 v -6.00015 h 2.99982 v -3.99976 h -2.99982 v -21.00027 z m 9.49968,2.87528 2.70629,1.56217 v 3.1254 l -2.70629,1.56218 -2.70628,-1.56218 v -3.1254 z m -10.50013,19.12493 a 1,0.99999903 0 0 1 1.00045,0.99994 1,0.99999903 0 0 1 -1.00045,0.99994 1,0.99999903 0 0 1 -0.99994,-0.99994 1,0.99999903 0 0 1 0.99994,-0.99994 z m 21.00027,0 a 1,0.99999903 0 0 1 0.99994,0.99994 1,0.99999903 0 0 1 -0.99994,0.99994 1,0.99999903 0 0 1 -0.99994,-0.99994 1,0.99999903 0 0 1 0.99994,-0.99994 z m -21.00027,9.99991 a 1,0.99999903 0 0 1 1.00045,0.99994 1,0.99999903 0 0 1 -1.00045,0.99993 1,0.99999903 0 0 1 -0.99994,-0.99993 1,0.99999903 0 0 1 0.99994,-0.99994 z m 21.00027,0 a 1,0.99999903 0 0 1 0.99994,0.99994 1,0.99999903 0 0 1 -0.99994,0.99993 1,0.99999903 0 0 1 -0.99994,-0.99993 1,0.99999903 0 0 1 0.99994,-0.99994 z m -10.50014,3.87521 2.70629,1.56218 v 3.12539 l -2.70629,1.56218 -2.70628,-1.56218 v -3.12539 z m -10.49962,8.12509 a 1,0.99999903 0 0 1 0.99994,0.99994 1,0.99999903 0 0 1 -0.99994,0.99994 1,0.99999903 0 0 1 -1.00045,-0.99994 1,0.99999903 0 0 1 1.00045,-0.99994 z m 20.99976,0 a 1,0.99999903 0 0 1 0.99994,0.99994 1,0.99999903 0 0 1 -0.99994,0.99994 1,0.99999903 0 0 1 -0.99994,-0.99994 1,0.99999903 0 0 1 0.99994,-0.99994 z"
       style="fill:none;stroke:#000000;stroke-width:0.10000001;stroke-miterlimit:4;stroke-dasharray:none;stroke-opacity:1" />
    <path
       id="rect2940"
       d="m -325.80831,-151.47135 v 21.5 h 138.00035 v -21.5 z m 7.50031,6.74999 h 8.00002 c 2.216,0 3.99976,1.7843 3.99976,4.00028 0,2.21598 -1.78376,3.99974 -3.99976,3.99974 h -8.00002 c -2.21595,0 -4.00027,-1.78376 -4.00027,-3.99974 0,-2.21598 1.78432,-4.00028 4.00027,-4.00028 z m 22.49995,0 a 4.000001,3.9999997 0 0 1 4.00024,4.00028 4.000001,3.9999997 0 0 1 -4.00024,3.99974 4.000001,3.9999997 0 0 1 -3.99977,-3.99974 4.000001,3.9999997 0 0 1 3.99977,-4.00028 z m 14.49987,0 h 8.00001 c 2.21601,0 4.0003,1.7843 4.0003,4.00028 0,2.21598 -1.78429,3.99974 -4.0003,3.99974 h -8.00001 c -2.21601,0 -3.99977,-1.78376 -3.99977,-3.99974 0,-2.21598 1.78376,-4.00028 3.99977,-4.00028 z m 22.50042,0 a 4.000001,3.9999997 0 0 1 3.99977,4.00028 4.000001,3.9999997 0 0 1 -3.99977,3.99974 4.000001,3.9999997 0 0 1 -4.00025,-3.99974 4.000001,3.9999997 0 0 1 4.00025,-4.00028 z m 14.49993,0 h 8.00001 c 2.21604,0 3.99977,1.7843 3.99977,4.00028 0,2.21598 -1.78373,3.99974 -3.99977,3.99974 h -8.00001 c -2.21601,0 -4.0003,-1.78376 -4.0003,-3.99974 0,-2.21598 1.78429,-4.00028 4.0003,-4.00028 z m 22.49988,0 a 4.000001,3.9999997 0 0 1 3.99977,4.00028 4.000001,3.9999997 0 0 1 -3.99977,3.99974 4.000001,3.9999997 0 0 1 -4.00024,-3.99974 4.000001,3.9999997 0 0 1 4.00024,-4.00028 z m 14.4999,0 h 8.00004 c 2.21601,0 3.99974,1.7843 3.99974,4.00028 0,2.21598 -1.78373,3.99974 -3.99974,3.99974 h -8.00004 c -2.21601,0 -3.99973,-1.78376 -3.99973,-3.99974 0,-2.21598 1.78372,-4.00028 3.99973,-4.00028 z"
       style="fill:none;stroke:#000000;stroke-width:0.10000001;stroke-miterlimit:4;stroke-dasharray:none;stroke-opacity:1" />
    <path
       style="fill:none;stroke:#000000;stroke-width:0.10000001;stroke-miterlimit:4;stroke-dasharray:none;stroke-opacity:1"
       d="m -324.30824,-226.47154 a 5.0000003,5.0000003 0 0 0 -5.00019,5.00022 5.0000003,5.0000003 0 0 0 5.00019,4.9997 5.0000003,5.0000003 0 0 0 4.99971,-4.9997 5.0000003,5.0000003 0 0 0 -4.99971,-5.00022 z m 0,3.50006 a 1.5000001,1.5000001 0 0 1 1.50018,1.50016 1.5000001,1.5000001 0 0 1 -1.50018,1.49964 1.5000001,1.5000001 0 0 1 -1.50015,-1.49964 1.5000001,1.5000001 0 0 1 1.50015,-1.50016 z"
       id="path3044" />
    <path
       id="rect3093"
       d="m -310.38349,-244.64625 a 6.0000004,6.0000004 0 0 0 -6.00014,6.00015 6.0000004,6.0000004 0 0 0 6.00014,6.00015 h 126.00006 a 6.0000004,6.0000004 0 0 0 6.00014,-6.00015 6.0000004,6.0000004 0 0 0 -6.00014,-6.00015 z m 122.50002,1.87534 a 4.1250039,4.1250039 0 0 1 4.1248,4.12481 4.1250039,4.1250039 0 0 1 -4.1248,4.12482 4.1250039,4.1250039 0 0 1 -4.12483,-4.12482 4.1250039,4.1250039 0 0 1 4.12483,-4.12481 z m -118.99998,0.12454 a 4.0000039,4.0000039 0 0 1 3.99976,4.00027 4.0000039,4.0000039 0 0 1 -3.99976,3.99976 4.0000039,4.0000039 0 0 1 -3.99976,-3.99976 4.0000039,4.0000039 0 0 1 3.99976,-4.00027 z m 59.50024,0 a 3.9999952,3.9999952 0 0 1 3.99976,4.00027 3.9999952,3.9999952 0 0 1 -3.99976,3.99976 3.9999952,3.9999952 0 0 1 -4.00026,-3.99976 3.9999952,3.9999952 0 0 1 4.00026,-4.00027 z"
       style="fill:none;stroke:#000000;stroke-width:0.1;stroke-miterlimit:4;stroke-dasharray:none;stroke-opacity:1" />
    <path
       id="ellipse3146"
       d="m -325.30818,-188.72136 v 31.00017 l 21.99999,-1.7e-4 v -31.00018 z m 3.50004,1.50016 c 0.82854,-8e-5 1.50023,0.67162 1.50015,1.50017 8e-5,0.82855 -0.67161,1.50025 -1.50015,1.50017 -0.82858,10e-5 -1.50027,-0.67161 -1.50018,-1.50017 -9e-5,-0.82856 0.6716,-1.50026 1.50018,-1.50017 z m 15.00011,0 c 0.82835,2e-4 1.49973,0.67182 1.49964,1.50017 9e-5,0.82835 -0.67129,1.49997 -1.49964,1.50017 -0.82858,10e-5 -1.50027,-0.67161 -1.50018,-1.50017 -9e-5,-0.82856 0.6716,-1.50026 1.50018,-1.50017 z m -15.00011,12.50002 c 0.82854,-9e-5 1.50023,0.67162 1.50015,1.50017 -2e-4,0.82835 -0.6718,1.49973 -1.50015,1.49965 -0.82835,1e-4 -1.49999,-0.67129 -1.50018,-1.49965 -9e-5,-0.82856 0.6716,-1.50027 1.50018,-1.50017 z m 15.00011,0 c 0.82835,1.9e-4 1.49973,0.67181 1.49964,1.50017 -2e-4,0.82815 -0.67149,1.49945 -1.49964,1.49965 -0.82835,1e-4 -1.49999,-0.67129 -1.50018,-1.49965 -9e-5,-0.82856 0.6716,-1.50027 1.50018,-1.50017 z m -15.00011,12.50001 c 0.82854,-8e-5 1.50023,0.67161 1.50015,1.50016 -2e-4,0.82835 -0.6718,1.49973 -1.50015,1.49964 -0.82835,1.1e-4 -1.49999,-0.67129 -1.50018,-1.49964 -9e-5,-0.82855 0.67163,-1.50027 1.50018,-1.50016 z m 15.00011,0 c 0.82835,2e-4 1.49973,0.67181 1.49964,1.50016 -2e-4,0.82815 -0.67149,1.49944 -1.49964,1.49964 -0.82835,1.1e-4 -1.49999,-0.67129 -1.50018,-1.49964 -9e-5,-0.82855 0.67163,-1.50027 1.50018,-1.50016 z"
       style="fill:none;stroke:#000000;stroke-width:0.10000001;stroke-miterlimit:4;stroke-dasharray:none;stroke-opacity:1" />
    <path
       id="rect3156"
       d="m -299.30808,-188.72141 v 31.00017 l 21.99989,-1.3e-4 v -31.00017 z m 3.50004,1.50017 c 0.82857,-9e-5 1.50026,0.67161 1.50016,1.50018 8e-5,0.82854 -0.67162,1.50024 -1.50016,1.50016 -0.82855,8e-5 -1.50024,-0.67162 -1.50016,-1.50016 -1.1e-4,-0.82857 0.67159,-1.50027 1.50016,-1.50018 z m 15.0001,0 c 0.82836,1.9e-4 1.49976,0.67182 1.49966,1.50018 8e-5,0.82836 -0.6713,1.49997 -1.49966,1.50016 -0.82854,8e-5 -1.50024,-0.67162 -1.50016,-1.50016 -1.1e-4,-0.82857 0.67159,-1.50027 1.50016,-1.50018 z m -11.25027,2.49991 h 7.50001 v 8.99996 h -7.50001 z m -3.74983,10.00011 c 0.82854,-8e-5 1.50024,0.67162 1.50016,1.50016 -1.9e-4,0.82836 -0.67181,1.49974 -1.50016,1.49966 -0.82836,8e-5 -1.49998,-0.6713 -1.50016,-1.49966 -8e-5,-0.82854 0.67161,-1.50024 1.50016,-1.50016 z m 15.0001,0 c 0.82836,1.8e-4 1.49974,0.6718 1.49966,1.50016 -1.9e-4,0.82817 -0.67149,1.49947 -1.49966,1.49966 -0.82836,8e-5 -1.49998,-0.6713 -1.50016,-1.49966 -8e-5,-0.82854 0.67162,-1.50024 1.50016,-1.50016 z m -11.25027,3.99936 h 7.50001 v 9.00049 h -7.50001 z m -3.74983,8.50064 c 0.82857,-8e-5 1.50026,0.67162 1.50016,1.50019 -2.1e-4,0.82835 -0.67181,1.49971 -1.50016,1.49963 -0.82836,8e-5 -1.49995,-0.67128 -1.50016,-1.49963 -1.1e-4,-0.82857 0.67159,-1.50027 1.50016,-1.50019 z m 15.0001,0 c 0.82836,1.8e-4 1.49976,0.67183 1.49966,1.50019 -2.1e-4,0.82814 -0.67152,1.49944 -1.49966,1.49963 -0.82836,8e-5 -1.49995,-0.67128 -1.50016,-1.49963 -1.1e-4,-0.82857 0.67159,-1.50027 1.50016,-1.50019 z"
       style="fill:none;stroke:#000000;stroke-width:0.1;stroke-miterlimit:4;stroke-dasharray:none;stroke-opacity:1" />
    <path
       id="rect3170"
       d="m -291.30833,-198.72142 v 7.00009 h 22.00015 v -7.00008 l -7.25,-2.7e-4 v 3.00034 l -7.5,2.6e-4 v -3.00028 z m 3.50003,2.50011 c 0.82858,-1e-4 1.50027,0.6716 1.50018,1.50016 -1.9e-4,0.82837 -0.67183,1.49975 -1.50018,1.49966 -0.82835,8e-5 -1.49995,-0.6713 -1.50015,-1.49966 -8e-5,-0.82855 0.6716,-1.50025 1.50015,-1.50016 z m 15.00014,0 c 0.82835,2e-4 1.49973,0.67181 1.49965,1.50016 -2e-4,0.82816 -0.67149,1.49946 -1.49965,1.49966 -0.82835,9e-5 -1.49998,-0.67129 -1.50018,-1.49966 -8e-5,-0.82856 0.67161,-1.50026 1.50018,-1.50016 z"
       style="fill:none;stroke:#000000;stroke-width:0.10000001;stroke-miterlimit:4;stroke-dasharray:none;stroke-opacity:1" />
    <path
       id="rect3176"
       d="m -291.30833,-212.72118 v 10.99985 l 7.25015,-3e-5 v -2.99982 h 7.5 v 2.99982 l 7.25,3e-5 v -10.99985 h -7.25 v 2.99982 l -7.5,-1.9e-4 v -2.99982 z m 3.50003,3.99976 c 0.82855,-8e-5 1.50024,0.67162 1.50016,1.50017 -2e-4,0.82835 -0.67181,1.49973 -1.50016,1.49965 -0.82835,8e-5 -1.49995,-0.6713 -1.50015,-1.49965 -8e-5,-0.82855 0.6716,-1.50025 1.50015,-1.50017 z m 15.00014,0 c 0.82835,2.1e-4 1.49971,0.67183 1.49962,1.50017 -2e-4,0.82814 -0.67146,1.49944 -1.49962,1.49965 -0.82837,1.1e-4 -1.50001,-0.67128 -1.5002,-1.49965 -9e-5,-0.82858 0.67163,-1.50029 1.5002,-1.50017 z"
       style="fill:none;stroke:#000000;stroke-width:0.10000001;stroke-miterlimit:4;stroke-dasharray:none;stroke-opacity:1" />
    <path
       style="fill:none;stroke:#000000;stroke-width:0.10000001;stroke-miterlimit:4;stroke-dasharray:none;stroke-opacity:1"
       d="m -291.30836,-215.72099 v -7.00009 l 22.00018,-2.7e-4 v 7.00009 l -7.25,2.5e-4 v -3.00034 h -7.5 v 3.00034 z m 3.50004,-2.50011 c 0.82854,8e-5 1.50023,-0.67162 1.50015,-1.50017 -2e-4,-0.82835 -0.6718,-1.49973 -1.50015,-1.49965 -0.82836,-8e-5 -1.49996,0.6713 -1.50016,1.49965 -8e-5,0.82855 0.67161,1.50025 1.50016,1.50017 z m 15.00014,0 c 0.82835,-2.1e-4 1.4997,-0.67183 1.49961,-1.50017 -2e-4,-0.82814 -0.67146,-1.49944 -1.49961,-1.49965 -0.82838,-1.1e-4 -1.50001,0.67128 -1.50021,1.49965 -9e-5,0.82857 0.67163,1.50029 1.50021,1.50017 z"
       id="path3203" />
    <path
       id="path3318"
       d="m -143.88313,-217.14652 v 2.50011 h -44.50011 c -5.24685,-1.1e-4 -9.50032,4.25333 -9.50021,9.5002 1.8e-4,5.24666 4.25355,9.49978 9.50021,9.49968 h 44.50011 v 13.49994 h 29.99973 v -13.49994 h 44.500113 c 5.24666,1e-4 9.50005,-4.25302 9.50021,-9.49968 1e-4,-5.24687 -4.25331,-9.50032 -9.50021,-9.5002 H -113.8834 v -2.50011 z m 14.9996,1.50017 1.7322,0.99994 v 1.99987 l -1.7322,0.99994 -1.73167,-0.99994 v -1.99987 z m 0,4.49998 c 3.31383,-8e-5 6.00025,2.6863 6.00017,6.00016 -0.003,2.14037 -1.14626,4.11702 -2.99982,5.18729 v 3.81267 h -6.00017 v -3.81061 c -1.85423,-1.07064 -2.99741,-3.04824 -2.99979,-5.18935 -1.1e-4,-3.31364 2.68599,-5.99996 5.99961,-6.00016 z m -59.49971,1.99987 c 2.20914,1.3e-4 3.99991,1.79112 3.99976,4.00029 -1.6e-4,2.20895 -1.79081,3.99962 -3.99976,3.99976 -2.20917,1.3e-4 -4.00013,-1.79062 -4.00029,-3.99976 -1.6e-4,-2.20938 1.79094,-4.00042 4.00029,-4.00029 z m 118.999953,0 c 2.20916,1.3e-4 3.99994,1.79112 3.99976,4.00029 -1.3e-4,2.20895 -1.79081,3.99962 -3.99976,3.99976 -2.20914,1.3e-4 -4.00013,-1.79062 -4.00026,-3.99976 -1.6e-4,-2.20938 1.79094,-4.00042 4.00026,-4.00029 z m -93.999923,2.50013 c 0.82854,-1.1e-4 1.50024,0.67159 1.50016,1.50016 -2.1e-4,0.82836 -0.67183,1.49974 -1.50016,1.49963 -0.82836,1.1e-4 -1.49998,-0.6713 -1.50019,-1.49963 -8e-5,-0.82854 0.67162,-1.50027 1.50019,-1.50016 z m 15.0001,0 a 1.5000035,1.5000001 0 0 1 1.49966,1.49963 1.5000035,1.5000001 0 0 1 -1.49966,1.50016 1.5000035,1.5000001 0 0 1 -1.50016,-1.50016 1.5000035,1.5000001 0 0 1 1.50016,-1.49963 z m 7.4998,0 c 0.82854,-8e-5 1.50027,0.67162 1.50016,1.50016 -1.9e-4,0.82833 -0.6718,1.49974 -1.50016,1.49963 -0.82836,1.1e-4 -1.49998,-0.67127 -1.50016,-1.49963 -8e-5,-0.82857 0.67162,-1.50027 1.50016,-1.50016 z m 24.00009,0 c 0.82854,-8e-5 1.50024,0.67162 1.50016,1.50016 -1.9e-4,0.82833 -0.6718,1.49974 -1.50016,1.49963 -0.82836,1.1e-4 -1.49998,-0.67127 -1.50016,-1.49963 -8e-5,-0.82857 0.67162,-1.50027 1.50016,-1.50016 z m 7.4998,0 a 1.5000001,1.5000001 0 0 1 1.50016,1.49963 1.5000001,1.5000001 0 0 1 -1.50016,1.50016 1.5000001,1.5000001 0 0 1 -1.49966,-1.50016 1.5000001,1.5000001 0 0 1 1.49966,-1.49963 z m 15.000133,0 c 0.82854,-1.1e-4 1.50024,0.67162 1.50016,1.50016 -2.1e-4,0.82833 -0.67183,1.49974 -1.50016,1.49963 -0.82836,1.1e-4 -1.49998,-0.67127 -1.50019,-1.49963 -8e-5,-0.82857 0.67162,-1.50027 1.50019,-1.50016 z m -34.500243,19.74969 c 0.55263,-2.7e-4 1.00071,0.4478 1.00047,1.00044 -3e-5,0.55242 -0.44802,1.0002 -1.00047,0.99994 -0.55221,-3e-5 -0.99991,-0.4477 -0.99994,-0.99994 -2.4e-4,-0.55245 0.44751,-1.00042 0.99994,-1.00044 z"
       style="fill:none;stroke:#000000;stroke-width:0.1;stroke-miterlimit:4;stroke-dasharray:none;stroke-opacity:1" />
  </g>
</svg>
