<?xml version="1.0" encoding="UTF-8" standalone="no"?>
<svg
   xmlns:dc="http://purl.org/dc/elements/1.1/"
   xmlns:cc="http://creativecommons.org/ns#"
   xmlns:rdf="http://www.w3.org/1999/02/22-rdf-syntax-ns#"
   xmlns:svg="http://www.w3.org/2000/svg"
   xmlns="http://www.w3.org/2000/svg"
   id="svg1246"
   version="1.1"
   viewBox="0 0 79.100347 42.475053"
   height="42.475052mm"
   width="79.100349mm">
  <defs
     id="defs1240" />
  <metadata
     id="metadata1243">
    <rdf:RDF>
      <cc:Work
         rdf:about="">
        <dc:format>image/svg+xml</dc:format>
        <dc:type
           rdf:resource="http://purl.org/dc/dcmitype/StillImage" />
        <dc:title></dc:title>
      </cc:Work>
    </rdf:RDF>
  </metadata>
  <g
     transform="translate(67.433222,157.07142)"
     id="layer1">
    <path
       id="path1091"
       d="m -67.383222,-136.14636 2.1e-5,21.49999 h 79.000325 v -21.49998 z m 8.00053,6.74998 a 4.000001,3.9999997 0 0 1 3.999778,4.00028 4.000001,3.9999997 0 0 1 -3.999772,3.99975 4.000001,3.9999997 0 0 1 -4.000272,-3.99976 4.000001,3.9999997 0 0 1 4.000266,-4.00027 z m 14.499926,1e-5 h 8.000011 c 2.216039,-1e-5 3.999759,1.78425 3.999755,4.00026 1.5e-5,2.21599 -1.783712,3.99976 -3.999777,3.99976 l -8.000006,-1e-5 c -2.215972,2e-5 -4.000289,-1.78377 -4.000283,-3.99974 4e-6,-2.21601 1.784307,-4.00027 4.0003,-4.00027 z m 22.499884,-2e-5 a 4.000001,3.9999997 0 0 1 3.999754,4.00029 4.000001,3.9999997 0 0 1 -3.999742,3.99975 4.000001,3.9999997 0 0 1 -4.000273,-3.99976 4.000001,3.9999997 0 0 1 4.000261,-4.00028 z m 14.4999069,1e-5 8.00003642,1e-5 c 2.21600308,-1e-5 3.99975398,1.78426 3.99975018,4.00027 -6.2e-6,2.21597 -1.7837432,3.99975 -3.99977218,3.99974 l -8.00001042,1e-5 c -2.2160029,1e-5 -3.9997389,-1.78377 -3.9997589,-3.99976 4e-6,-2.216 1.783752,-4.00026 3.9997549,-4.00027 z"
       style="fill:none;stroke:#000000;stroke-width:0.10000001;stroke-miterlimit:4;stroke-dasharray:none;stroke-opacity:1" />
    <path
       style="fill:none;stroke:#000000;stroke-width:0.10000001;stroke-miterlimit:4;stroke-dasharray:none;stroke-opacity:1"
       d="m -55.383202,-157.02142 a 3.8749827,3.8750028 0 0 0 -3.87472,3.87522 3.8749827,3.8750028 0 0 0 3.87472,3.87521 3.8749827,3.8750028 0 0 0 3.87522,-3.87521 3.8749827,3.8750028 0 0 0 -3.87522,-3.87522 z m 0,2.37505 a 1.5000001,1.5000001 0 0 1 1.49967,1.50017 1.5000001,1.5000001 0 0 1 -1.49967,1.50016 1.5000001,1.5000001 0 0 1 -1.50016,-1.50016 1.5000001,1.5000001 0 0 1 1.50016,-1.50017 z"
       id="path1229" />
  </g>
</svg>
