<?xml version="1.0" encoding="UTF-8" standalone="no"?>
<svg
   xmlns:dc="http://purl.org/dc/elements/1.1/"
   xmlns:cc="http://creativecommons.org/ns#"
   xmlns:rdf="http://www.w3.org/1999/02/22-rdf-syntax-ns#"
   xmlns:svg="http://www.w3.org/2000/svg"
   xmlns="http://www.w3.org/2000/svg"
   id="svg1179"
   version="1.1"
   viewBox="0 0 254.60002 73.100029"
   height="73.100029mm"
   width="254.60002mm">
  <defs
     id="defs1173" />
  <metadata
     id="metadata1176">
    <rdf:RDF>
      <cc:Work
         rdf:about="">
        <dc:format>image/svg+xml</dc:format>
        <dc:type
           rdf:resource="http://purl.org/dc/dcmitype/StillImage" />
        <dc:title></dc:title>
      </cc:Work>
    </rdf:RDF>
  </metadata>
  <g
     transform="translate(172.65715,-112.28332)"
     id="layer1">
    <path
       style="fill:none;stroke:#000000;stroke-width:0.10000001;stroke-miterlimit:4;stroke-dasharray:none;stroke-opacity:1"
       d="m -284.15715,116.88334 h 8.00003 c 2.216,0 4.00027,1.7843 4.00027,4.00028 0,2.21598 -1.78427,3.99976 -4.00027,3.99976 h -8.00003 c -2.216,0 -3.99975,-1.78378 -3.99975,-3.99976 0,-2.21598 1.78375,-4.00028 3.99975,-4.00028 z"
       id="path1016" />
    <path
       id="path1018"
       d="m -258.65715,116.88334 h 8.00003 c 2.216,0 4.00027,1.7843 4.00027,4.00028 0,2.21598 -1.78427,3.99976 -4.00027,3.99976 h -8.00003 c -2.216,0 -3.99976,-1.78378 -3.99976,-3.99976 0,-2.21598 1.78376,-4.00028 3.99976,-4.00028 z"
       style="fill:none;stroke:#000000;stroke-width:0.10000001;stroke-miterlimit:4;stroke-dasharray:none;stroke-opacity:1" />
    <path
       id="path1022"
       d="m -233.15715,116.88334 h 8.00003 c 2.216,0 4.00027,1.7843 4.00027,4.00028 0,2.21598 -1.78427,3.99976 -4.00027,3.99976 h -8.00003 c -2.216,0 -3.99976,-1.78378 -3.99976,-3.99976 0,-2.21598 1.78376,-4.00028 3.99976,-4.00028 z"
       style="fill:none;stroke:#000000;stroke-width:0.10000001;stroke-miterlimit:4;stroke-dasharray:none;stroke-opacity:1" />
    <path
       style="fill:none;stroke:#000000;stroke-width:0.10000001;stroke-miterlimit:4;stroke-dasharray:none;stroke-opacity:1"
       d="m -208.65715,116.88334 h 8.00003 c 2.216,0 4.00027,1.7843 4.00027,4.00028 0,2.21598 -1.78427,3.99976 -4.00027,3.99976 h -8.00003 c -2.216,0 -3.99976,-1.78378 -3.99976,-3.99976 0,-2.21598 1.78376,-4.00028 3.99976,-4.00028 z"
       id="path1026" />
    <path
       style="fill:none;stroke:#000000;stroke-width:0.10000001;stroke-miterlimit:4;stroke-dasharray:none;stroke-opacity:1"
       d="m -183.15717,116.88334 h 8.00004 c 2.21601,0 4.00028,1.7843 4.00028,4.00028 0,2.21598 -1.78427,3.99976 -4.00028,3.99976 h -8.00004 c -2.21598,0 -3.99974,-1.78378 -3.99974,-3.99976 0,-2.21598 1.78376,-4.00028 3.99974,-4.00028 z"
       id="path1028" />
    <path
       id="path1030"
       d="m -157.65715,116.88334 h 8.00002 c 2.216,0 4.00027,1.7843 4.00027,4.00028 0,2.21598 -1.78427,3.99976 -4.00027,3.99976 h -8.00002 c -2.21601,0 -3.99976,-1.78378 -3.99976,-3.99976 0,-2.21598 1.78375,-4.00028 3.99976,-4.00028 z"
       style="fill:none;stroke:#000000;stroke-width:0.10000001;stroke-miterlimit:4;stroke-dasharray:none;stroke-opacity:1" />
    <path
       style="fill:none;stroke:#000000;stroke-width:0.10000001;stroke-miterlimit:4;stroke-dasharray:none;stroke-opacity:1"
       d="m -132.15716,116.88334 h 8.00002 c 2.21601,0 4.00027,1.7843 4.00027,4.00028 0,2.21598 -1.78426,3.99976 -4.00027,3.99976 h -8.00002 c -2.21601,0 -3.99976,-1.78378 -3.99976,-3.99976 0,-2.21598 1.78375,-4.00028 3.99976,-4.00028 z"
       id="path1032" />
    <path
       style="fill:none;stroke:#000000;stroke-width:0.10000001;stroke-miterlimit:4;stroke-dasharray:none;stroke-opacity:1"
       d="m -106.65716,116.88334 h 8.000031 c 2.21598,0 4.00027,1.7843 4.00027,4.00028 0,2.21598 -1.78429,3.99976 -4.00027,3.99976 h -8.000031 c -2.21601,0 -3.99977,-1.78378 -3.99977,-3.99976 0,-2.21598 1.78376,-4.00028 3.99977,-4.00028 z"
       id="path1034" />
    <path
       id="path1036"
       d="m -82.157179,116.88334 h 8.00004 c 2.21601,0 4.00028,1.7843 4.00028,4.00028 0,2.21598 -1.78427,3.99976 -4.00028,3.99976 h -8.00004 c -2.21598,0 -3.99974,-1.78378 -3.99974,-3.99976 0,-2.21598 1.78376,-4.00028 3.99974,-4.00028 z"
       style="fill:none;stroke:#000000;stroke-width:0.10000001;stroke-miterlimit:4;stroke-dasharray:none;stroke-opacity:1" />
    <path
       id="path1038"
       d="m -56.657189,116.88334 h 8.00004 c 2.21601,0 4.00028,1.7843 4.00028,4.00028 0,2.21598 -1.78427,3.99976 -4.00028,3.99976 h -8.00004 c -2.21598,0 -3.99973,-1.78378 -3.99973,-3.99976 0,-2.21598 1.78375,-4.00028 3.99973,-4.00028 z"
       style="fill:none;stroke:#000000;stroke-width:0.10000001;stroke-miterlimit:4;stroke-dasharray:none;stroke-opacity:1" />
    <rect
       ry="1.2681822e-06"
       y="109.38335"
       x="-296.65714"
       height="36.000008"
       width="254.50002"
       id="rect1050"
       style="fill:none;stroke:#000000;stroke-width:0.10000001;stroke-miterlimit:4;stroke-dasharray:none;stroke-opacity:1" />
    <rect
       ry="4"
       y="188.88335"
       x="-285.15714"
       height="8"
       width="34"
       id="rect1060"
       style="fill:none;stroke:#000000;stroke-width:0.10000001;stroke-miterlimit:4;stroke-dasharray:none;stroke-opacity:1" />
    <rect
       style="fill:none;stroke:#000000;stroke-width:0.10000001;stroke-miterlimit:4;stroke-dasharray:none;stroke-opacity:1"
       id="rect1062"
       width="34"
       height="8"
       x="-235.65714"
       y="188.88335"
       ry="4" />
    <rect
       style="fill:none;stroke:#000000;stroke-width:0.10000001;stroke-miterlimit:4;stroke-dasharray:none;stroke-opacity:1"
       id="rect1066"
       width="254.50002"
       height="36.000008"
       x="-296.65714"
       y="169.38335"
       ry="1.2681822e-06" />
    <rect
       style="fill:none;stroke:#000000;stroke-width:0.10000001;stroke-miterlimit:4;stroke-dasharray:none;stroke-opacity:1"
       id="rect1092"
       width="34"
       height="8"
       x="-186.15714"
       y="188.88335"
       ry="4" />
    <rect
       ry="4"
       y="188.88335"
       x="-136.65714"
       height="8"
       width="34"
       id="rect1094"
       style="fill:none;stroke:#000000;stroke-width:0.10000001;stroke-miterlimit:4;stroke-dasharray:none;stroke-opacity:1" />
    <rect
       ry="4"
       y="188.88335"
       x="-87.157143"
       height="8"
       width="34"
       id="rect1098"
       style="fill:none;stroke:#000000;stroke-width:0.10000001;stroke-miterlimit:4;stroke-dasharray:none;stroke-opacity:1" />
  </g>
</svg>
