<?xml version="1.0" encoding="UTF-8" standalone="no"?>
<svg
   xmlns:dc="http://purl.org/dc/elements/1.1/"
   xmlns:cc="http://creativecommons.org/ns#"
   xmlns:rdf="http://www.w3.org/1999/02/22-rdf-syntax-ns#"
   xmlns:svg="http://www.w3.org/2000/svg"
   xmlns="http://www.w3.org/2000/svg"
   width="255.59999mm"
   height="73.150032mm"
   viewBox="0 0 905.66926 259.19303"
   id="svg2"
   version="1.1">
  <defs
     id="defs4" />
  <metadata
     id="metadata7">
    <rdf:RDF>
      <cc:Work
         rdf:about="">
        <dc:format>image/svg+xml</dc:format>
        <dc:type
           rdf:resource="http://purl.org/dc/dcmitype/StillImage" />
        <dc:title></dc:title>
      </cc:Work>
    </rdf:RDF>
  </metadata>
  <path
     id="path1016"
     d="M -442.73625,-74.055002 V 53.503595 H 459.03624 V -74.055002 Z m 44.29139,26.574098 h 28.34656 c 7.85197,0 14.17419,6.322294 14.17419,14.174194 0,7.851901 -6.32222,14.172364 -14.17419,14.172364 h -28.34656 c -7.85198,0 -14.17236,-6.320463 -14.17236,-14.172364 0,-7.8519 6.32038,-14.174194 14.17236,-14.174194 z m 90.35523,0 h 28.34656 c 7.85196,0 14.17419,6.322294 14.17419,14.174194 0,7.851901 -6.32223,14.172364 -14.17419,14.172364 h -28.34656 c -7.85199,0 -14.17237,-6.320463 -14.17237,-14.172364 0,-7.8519 6.32038,-14.174194 14.17237,-14.174194 z m 90.35339,0 h 28.34656 c 7.85196,0 14.17419,6.322294 14.17419,14.174194 0,7.851901 -6.32223,14.172364 -14.17419,14.172364 h -28.34656 c -7.85198,0 -14.17237,-6.320463 -14.17237,-14.172364 0,-7.8519 6.32039,-14.174194 14.17237,-14.174194 z m 86.81213,0 h 28.34656 c 7.85197,0 14.174198,6.322294 14.174198,14.174194 0,7.851901 -6.322228,14.172364 -14.174198,14.172364 h -28.34656 c -7.85197,0 -14.17236,-6.320463 -14.17236,-14.172364 0,-7.8519 6.32039,-14.174194 14.17236,-14.174194 z m 90.3534,0 h 28.346558 c 7.8520011,0 14.1741956,6.322294 14.1741956,14.174194 0,7.851901 -6.3221945,14.172364 -14.1741956,14.172364 H -40.57071 c -7.851899,0 -14.172363,-6.320463 -14.172363,-14.172364 0,-7.8519 6.320464,-14.174194 14.172363,-14.174194 z m 90.355228,0 h 28.346558 c 7.851999,0 14.174194,6.322294 14.174194,14.174194 0,7.851901 -6.322195,14.172364 -14.174194,14.172364 H 49.784518 c -7.852001,0 -14.172364,-6.320463 -14.172364,-14.172364 0,-7.8519 6.320363,-14.174194 14.172364,-14.174194 z m 90.353392,0 h 28.34656 c 7.852,0 14.17419,6.322294 14.17419,14.174194 0,7.851901 -6.32219,14.172364 -14.17419,14.172364 h -28.34656 c -7.85199,0 -14.17236,-6.320463 -14.17236,-14.172364 0,-7.8519 6.32037,-14.174194 14.17236,-14.174194 z m 90.35523,0 h 28.34656 c 7.8519,0 14.17419,6.322294 14.17419,14.174194 0,7.851901 -6.32229,14.172364 -14.17419,14.172364 h -28.34656 c -7.852,0 -14.17237,-6.320463 -14.17237,-14.172364 0,-7.8519 6.32037,-14.174194 14.17237,-14.174194 z m 86.81031,0 H 345.65 c 7.852,0 14.17419,6.322294 14.1742,14.174194 0,7.851901 -6.3222,14.172364 -14.1742,14.172364 h -28.34655 c -7.8519,0 -14.17237,-6.320463 -14.17237,-14.172364 0,-7.8519 6.32047,-14.174194 14.17237,-14.174194 z m 90.35522,0 h 28.34656 c 7.852,0 14.17419,6.322294 14.17419,14.174194 0,7.851901 -6.32219,14.172364 -14.17419,14.172364 h -28.34656 c -7.8519,0 -14.17237,-6.320463 -14.17237,-14.172364 0,-7.8519 6.32047,-14.174194 14.17237,-14.174194 z"
     style="fill:none;stroke:#000000;stroke-width:0.35433072;stroke-miterlimit:4;stroke-dasharray:none;stroke-opacity:1" />
  <path
     id="rect1060"
     d="M -442.73625,-74.054999 V 53.505426 H 459.03624 V -74.054999 Z m 54.92249,69.094849 h 92.12585 c 7.85198,0 14.17237,6.3222282 14.17237,14.174194 0,7.851966 -6.32039,14.172366 -14.17237,14.172366 h -92.12585 c -7.85197,0 -14.17419,-6.3204 -14.17419,-14.172366 0,-7.8519658 6.32222,-14.174194 14.17419,-14.174194 z m 175.39307,0 h 92.12586 c 7.85196,0 14.17419,6.3222282 14.17419,14.174194 0,7.851966 -6.32223,14.172366 -14.17419,14.172366 h -92.12586 c -7.85197,0 -14.17236,-6.3204 -14.17236,-14.172366 0,-7.8519658 6.32039,-14.174194 14.17236,-14.174194 z m 175.393071,0 h 92.127688 c 7.851968,0 14.172364,6.3222282 14.172364,14.174194 0,7.851966 -6.320396,14.172366 -14.172364,14.172366 h -92.127688 c -7.851968,0 -14.172363,-6.3204 -14.172363,-14.172366 0,-7.8519658 6.320395,-14.174194 14.172363,-14.174194 z m 175.394899,0 h 92.12586 c 7.85197,0 14.17237,6.3222282 14.17237,14.174194 0,7.851966 -6.3204,14.172366 -14.17237,14.172366 h -92.12586 c -7.85196,0 -14.17419,-6.3204 -14.17419,-14.172366 0,-7.8519658 6.32223,-14.174194 14.17419,-14.174194 z m 175.39307,0 h 92.12586 c 7.85197,0 14.1742,6.3222282 14.1742,14.174194 0,7.851966 -6.32223,14.172366 -14.1742,14.172366 h -92.12586 c -7.85196,0 -14.17236,-6.3204 -14.17236,-14.172366 0,-7.8519658 6.3204,-14.174194 14.17236,-14.174194 z"
     style="fill:none;stroke:#000000;stroke-width:0.35433072;stroke-miterlimit:4;stroke-dasharray:none;stroke-opacity:1" />
</svg>
