<?xml version="1.0" encoding="UTF-8" standalone="no"?>
<svg
   xmlns:dc="http://purl.org/dc/elements/1.1/"
   xmlns:cc="http://creativecommons.org/ns#"
   xmlns:rdf="http://www.w3.org/1999/02/22-rdf-syntax-ns#"
   xmlns:svg="http://www.w3.org/2000/svg"
   xmlns="http://www.w3.org/2000/svg"
   id="svg2156"
   version="1.1"
   viewBox="0 0 36.099846 29.099804"
   height="29.099804mm"
   width="36.099846mm">
  <defs
     id="defs2150" />
  <metadata
     id="metadata2153">
    <rdf:RDF>
      <cc:Work
         rdf:about="">
        <dc:format>image/svg+xml</dc:format>
        <dc:type
           rdf:resource="http://purl.org/dc/dcmitype/StillImage" />
        <dc:title></dc:title>
      </cc:Work>
    </rdf:RDF>
  </metadata>
  <g
     transform="translate(-31.086983,-31.473908)"
     id="layer1">
    <path
       id="path2006"
       d="m 13.136983,17.023909 v 2.999825 23.000152 2.999826 h 8.999982 v -2.999826 h 8.999954 v 2.999826 h 8.999955 v -2.999826 h 8.999953 V 20.023734 h -8.999953 v -2.999825 h -8.999955 v 2.999825 H 22.136965 V 17.023909 Z M 42.136757,28.27388 c 1.794877,0 3.249901,1.455053 3.24993,3.24993 -2.9e-5,1.794905 -1.455053,3.24993 -3.24993,3.24993 -1.794878,0 -3.249902,-1.455025 -3.249931,-3.24993 2.9e-5,-1.794877 1.455053,-3.24993 3.249931,-3.24993 z m -18.49964,1.250075 a 1.9999675,1.9999675 0 0 1 1.999884,1.999855 1.9999675,1.9999675 0 0 1 -1.999884,1.999855 1.9999675,1.9999675 0 0 1 -2.000419,-1.999855 1.9999675,1.9999675 0 0 1 2.000419,-1.999855 z m -7.000071,0.999941 a 1.0000001,1 0 0 1 0.999942,0.999914 1.0000001,1 0 0 1 -0.999942,0.999941 1.0000001,1 0 0 1 -0.999941,-0.999941 1.0000001,1 0 0 1 0.999941,-0.999914 z m 13.999663,0 a 1.0000001,1 0 0 1 1.000421,0.999914 1.0000001,1 0 0 1 -1.000421,0.999941 1.0000001,1 0 0 1 -0.999942,-0.999941 1.0000001,1 0 0 1 0.999942,-0.999914 z"
       style="fill:none;stroke:#000000;stroke-width:0.10000001;stroke-miterlimit:4;stroke-dasharray:none;stroke-opacity:1" />
  </g>
</svg>
