<?xml version="1.0" encoding="UTF-8" standalone="no"?>
<svg
   xmlns:dc="http://purl.org/dc/elements/1.1/"
   xmlns:cc="http://creativecommons.org/ns#"
   xmlns:rdf="http://www.w3.org/1999/02/22-rdf-syntax-ns#"
   xmlns:svg="http://www.w3.org/2000/svg"
   xmlns="http://www.w3.org/2000/svg"
   id="svg1397"
   version="1.1"
   viewBox="0 0 106.10024 120.60031"
   height="120.60031mm"
   width="106.10024mm">
  <defs
     id="defs1391" />
  <metadata
     id="metadata1394">
    <rdf:RDF>
      <cc:Work
         rdf:about="">
        <dc:format>image/svg+xml</dc:format>
        <dc:type
           rdf:resource="http://purl.org/dc/dcmitype/StillImage" />
        <dc:title></dc:title>
      </cc:Work>
    </rdf:RDF>
  </metadata>
  <g
     transform="translate(-3.95,-2.95)"
     id="layer1">
    <path
       id="path1105"
       d="m 4,3 v 27.99984 h 10.99984 v 0.99994 h 25.999976 v -0.99994 h 9.000493 V 3 Z m 7.00007,4.74958 A 3.2500001,3.2500001 0 0 1 14.25,11.00002 3.2500001,3.2500001 0 0 1 11.00007,14.24995 3.2500001,3.2500001 0 0 1 7.75014,11.00002 3.2500001,3.2500001 0 0 1 11.00007,7.74958 Z m 10.74974,1.75028 c 0.82835,-8e-5 1.49995,0.6713 1.50015,1.49965 1.1e-4,0.82857 -0.67161,1.50026 -1.50015,1.50018 -0.82838,-2.3e-4 -1.49976,-0.67183 -1.49965,-1.50018 2e-4,-0.82815 0.67149,-1.49945 1.49965,-1.49965 z m 12.50004,0 c 0.82855,-8e-5 1.50027,0.67161 1.50015,1.50016 -1.9e-4,0.82838 -0.6718,1.49975 -1.50015,1.49967 -0.82815,-2.3e-4 -1.49947,-0.67152 -1.49967,-1.49967 -8e-5,-0.82835 0.67129,-1.49996 1.49967,-1.50016 z m 12.499992,0 c 0.828574,-8e-5 1.500264,0.67164 1.500179,1.50016 -1.98e-4,0.82838 -0.67183,1.49975 -1.500179,1.49967 -0.828154,-2.3e-4 -1.499447,-0.67152 -1.499645,-1.49967 -8.5e-5,-0.82835 0.671293,-1.49996 1.499645,-1.50016 z m -9.249552,0.99995 h 5.999622 v 2.99982 H 37.50029 Z"
       style="fill:none;stroke:#000000;stroke-width:0.10000001;stroke-miterlimit:4;stroke-dasharray:none;stroke-opacity:1" />
    <path
       id="path1109"
       d="m 5.99958,30.99984 v 1.00048 27.99985 H 49.999997 V 32.00032 30.99984 h -9.00049 v 1.00048 H 14.99953 v -1.00048 z m 34.500195,9.12514 2.056723,1.18751 v 2.37507 L 40.499775,44.87509 38.44305,43.68756 V 41.31249 Z M 18.0003,52.99999 h 20 v 2.99982 h -20 z m -5.75046,-3.49998 c 0.82856,-8e-5 1.50025,0.67163 1.50015,1.50018 -1.9e-4,0.82835 -0.6718,1.49973 -1.50015,1.49965 -0.82836,1.1e-4 -1.49999,-0.6713 -1.50018,-1.49965 -10e-5,-0.82857 0.67161,-1.50029 1.50018,-1.50018 z m 31.499865,0 c 0.828569,-1.1e-4 1.500283,0.67161 1.500182,1.50018 -1.96e-4,0.82835 -0.671822,1.49976 -1.500182,1.49965 -0.828347,8e-5 -1.499957,-0.6713 -1.500151,-1.49965 -1.03e-4,-0.82855 0.671595,-1.50026 1.500151,-1.50018 z"
       style="fill:none;stroke:#000000;stroke-width:0.10000001;stroke-miterlimit:4;stroke-dasharray:none;stroke-opacity:1" />
    <path
       id="path1111"
       d="m 49.999983,3.00011 v 27.99985 h 5.500439 v -2.5001 h 5.499923 v 2.5001 h 2.999817 v 2.99982 h 20.00033 v -2.99982 h 2.999817 v -2.5001 h 5.499923 v 2.5001 h 3.500046 V 3.00011 Z m 7.00009,4.75009 c 1.794872,3e-5 3.249893,1.45505 3.24993,3.24993 -3.7e-5,1.79488 -1.455058,3.2499 -3.24993,3.24993 -1.79487,-3e-5 -3.249891,-1.45505 -3.24993,-3.24993 3.9e-5,-1.79488 1.45506,-3.2499 3.24993,-3.24993 z m 26.499674,2.74971 h 5.999634 v 2.99982 h -5.999634 z"
       style="fill:none;stroke:#000000;stroke-width:0.1;stroke-miterlimit:4;stroke-dasharray:none;stroke-opacity:1" />
    <path
       id="path1383"
       d="m 50.250425,40.99984 c 0,1.5592 1.196451,2.85762 2.750227,2.98741 v 0.0124 c 1.999964,-8e-5 5.999649,0 5.999649,0 v 2.00031 l 20.999988,-1.7e-4 v -2.00031 h 6.000128 v -0.0119 c 1.554001,-0.12982 2.74938,-1.42852 2.750256,-2.98791 0,-1.55919 -1.196454,-2.85761 -2.750256,-2.98741 v -0.0124 c -1.999967,6e-5 -6.000128,0 -6.000128,0 v -2.00008 l -20.999988,1.7e-4 v 1.9998 h -5.999649 v 0.0118 c -1.553972,0.12982 -2.749381,1.42852 -2.750227,2.98791 z m 1.500179,0 c -1.13e-4,-0.82834 0.671267,-1.49995 1.499645,-1.50015 0.828546,-1.1e-4 1.500294,0.67161 1.500177,1.50015 8.5e-5,0.82858 -0.671631,1.50027 -1.500177,1.50018 -0.828378,-2.2e-4 -1.499732,-0.67183 -1.499645,-1.50018 z m 16.749692,-1.1e-4 c 2.9e-5,-0.55225 0.447717,-0.99991 0.999942,-0.99994 0.552252,0 0.999913,0.44766 0.999943,0.99994 -3e-5,0.55223 -0.447691,0.99989 -0.999943,0.99994 -0.552225,-3e-5 -0.999913,-0.44771 -0.999942,-0.99994 z m 15.750683,-5e-5 c -1.14e-4,-0.82835 0.671292,-1.49999 1.499645,-1.50016 0.828548,-1.1e-4 1.500264,0.67161 1.500179,1.50016 5.6e-5,0.82854 -0.671631,1.50026 -1.500179,1.50018 -0.828353,-2.3e-4 -1.49973,-0.67183 -1.499645,-1.50018 z"
       style="fill:none;stroke:#000000;stroke-width:0.10000001;stroke-miterlimit:4;stroke-dasharray:none;stroke-opacity:1" />
    <path
       style="fill:none;stroke:#000000;stroke-width:0.10000001;stroke-miterlimit:4;stroke-dasharray:none;stroke-opacity:1"
       d="M 60,59.50036 A 3.0000038,3.0000038 0 0 0 56.999667,62.50018 3.0000038,3.0000038 0 0 0 60,65.50051 3.0000038,3.0000038 0 0 0 62.999825,62.50018 3.0000038,3.0000038 0 0 0 60,59.50036 Z M 60,61 A 1.500018,1.500018 0 0 1 61.499672,62.50018 1.500018,1.500018 0 0 1 60,64.00033 1.500018,1.500018 0 0 1 58.499847,62.50018 1.500018,1.500018 0 0 1 60,61 Z"
       id="path2692" />
    <path
       id="circle2720"
       d="m 4,63 v 2.99982 23.00015 2.99982 h 8.99999 v -2.99982 h 8.99996 v 2.99982 h 8.99996 v -2.99982 h 8.99997 V 65.99982 H 30.99991 V 63 h -8.99996 v 2.99982 H 12.99999 V 63 Z m 28.99979,11.24995 a 3.2499932,3.2499932 0 0 1 3.24993,3.24996 3.2499932,3.2499932 0 0 1 -3.24993,3.24993 3.2499932,3.2499932 0 0 1 -3.24993,-3.24993 3.2499932,3.2499932 0 0 1 3.24993,-3.24996 z M 7.99976,75.99972 a 1.4999991,1.4999991 0 0 1 1.50019,1.50019 1.4999991,1.4999991 0 0 1 -1.50019,1.49963 1.4999991,1.4999991 0 0 1 -1.49963,-1.49963 1.4999991,1.4999991 0 0 1 1.49963,-1.50019 z m 13.00025,0 a 1.4999991,1.4999991 0 0 1 1.50016,1.50019 1.4999991,1.4999991 0 0 1 -1.50016,1.49963 1.4999991,1.4999991 0 0 1 -1.50016,-1.49963 1.4999991,1.4999991 0 0 1 1.50016,-1.50019 z"
       style="fill:none;stroke:#000000;stroke-width:0.1;stroke-miterlimit:4;stroke-dasharray:none;stroke-opacity:1" />
    <path
       style="fill:none;stroke:#000000;stroke-width:0.10000001;stroke-miterlimit:4;stroke-dasharray:none;stroke-opacity:1"
       d="m 54.999772,71.00012 c -1.939009,0 -3.500035,1.56105 -3.500035,3.50006 0,1.93901 1.561026,3.50006 3.500035,3.50006 H 68 c 1.939007,0 3.500062,-1.56105 3.500062,-3.50006 0,-1.93901 -1.561055,-3.50006 -3.500062,-3.50006 z m 0,1.99988 a 1.4999992,1.4999992 0 0 1 1.50018,1.50018 1.4999992,1.4999992 0 0 1 -1.50018,1.49964 A 1.4999992,1.4999992 0 0 1 53.500127,74.50018 1.4999992,1.4999992 0 0 1 54.999772,73 Z M 68,73 A 1.4999992,1.4999992 0 0 1 69.50018,74.50018 1.4999992,1.4999992 0 0 1 68,75.99982 1.4999992,1.4999992 0 0 1 66.499847,74.50018 1.4999992,1.4999992 0 0 1 68,73 Z"
       id="path2761" />
    <path
       style="fill:none;stroke:#000000;stroke-width:0.10000002;stroke-miterlimit:4;stroke-dasharray:none;stroke-opacity:1"
       d="M 9.500427,95.00024 A 3.0000054,3.0000054 0 0 0 6.500122,98.00006 V 99 H 4 v 18.99988 h 2.500122 v 2.5001 a 3.0000054,3.0000054 0 0 0 3.000305,3.00033 3.0000054,3.0000054 0 0 0 2.999825,-3.00033 v -2.5001 h 7.000098 v 2.5001 a 3.0000054,3.0000054 0 0 0 2.999825,3.00033 3.0000054,3.0000054 0 0 0 3.000333,-3.00033 v -2.5001 h 48.499857 v -2.99982 h 8.99999 v 2.99982 h 8.99998 v -2.99982 h 8.999945 v 2.99982 h 8.99996 V 115.00006 102.00034 99 h -8.99996 v 3.00034 H 92.000335 V 99 h -8.99998 v 3.00034 h -8.99999 V 99 H 25.500508 V 98.00006 A 3.0000054,3.0000054 0 0 0 22.500175,95.00024 3.0000054,3.0000054 0 0 0 19.50035,98.00006 V 99 H 12.500252 V 98.00006 A 3.0000054,3.0000054 0 0 0 9.500427,95.00024 Z m 0,1.99988 A 0.99999908,1.0000001 0 0 1 10.500368,98.00006 0.99999908,1.0000001 0 0 1 9.500427,99 0.99999908,1.0000001 0 0 1 8.500485,98.00006 0.99999908,1.0000001 0 0 1 9.500427,97.00012 Z m 12.999748,0 A 0.99999908,1.0000001 0 0 1 23.500117,98.00006 0.99999908,1.0000001 0 0 1 22.500175,99 0.99999908,1.0000001 0 0 1 21.500234,98.00006 0.99999908,1.0000001 0 0 1 22.500175,97.00012 Z m 62.00036,9.9999 a 1.4999934,1.4999934 0 0 1 1.49964,1.50018 1.4999934,1.4999934 0 0 1 -1.49964,1.49964 1.4999934,1.4999934 0 0 1 -1.50018,-1.49964 1.4999934,1.4999934 0 0 1 1.50018,-1.50018 z M 9.500427,119.50003 a 0.99999908,1.0000001 0 0 1 0.999941,0.99995 0.99999908,1.0000001 0 0 1 -0.999941,0.99994 0.99999908,1.0000001 0 0 1 -0.999942,-0.99994 0.99999908,1.0000001 0 0 1 0.999942,-0.99995 z m 12.999748,0 a 0.99999908,1.0000001 0 0 1 0.999942,0.99995 0.99999908,1.0000001 0 0 1 -0.999942,0.99994 0.99999908,1.0000001 0 0 1 -0.999941,-0.99994 0.99999908,1.0000001 0 0 1 0.999941,-0.99995 z"
       id="path2767" />
  </g>
</svg>
