<?xml version="1.0" encoding="UTF-8" standalone="no"?>
<svg
   xmlns:dc="http://purl.org/dc/elements/1.1/"
   xmlns:cc="http://creativecommons.org/ns#"
   xmlns:rdf="http://www.w3.org/1999/02/22-rdf-syntax-ns#"
   xmlns:svg="http://www.w3.org/2000/svg"
   xmlns="http://www.w3.org/2000/svg"
   id="svg2045"
   version="1.1"
   viewBox="0 0 106.10024 28.600071"
   height="28.600071mm"
   width="106.10024mm">
  <defs
     id="defs2039" />
  <metadata
     id="metadata2042">
    <rdf:RDF>
      <cc:Work
         rdf:about="">
        <dc:format>image/svg+xml</dc:format>
        <dc:type
           rdf:resource="http://purl.org/dc/dcmitype/StillImage" />
        <dc:title></dc:title>
      </cc:Work>
    </rdf:RDF>
  </metadata>
  <g
     transform="translate(98.407263,-134.5333)"
     id="layer1">
    <path
       style="fill:none;stroke:#000000;stroke-width:0.10000002;stroke-miterlimit:4;stroke-dasharray:none;stroke-opacity:1"
       d="m -92.856836,134.5833 a 3.0000054,3.0000054 0 0 0 -3.000305,2.99982 v 0.99994 h -2.500122 v 18.99988 h 2.500122 v 2.5001 a 3.0000054,3.0000054 0 0 0 3.000305,3.00033 3.0000054,3.0000054 0 0 0 2.999825,-3.00033 v -2.5001 h 7.000098 v 2.5001 a 3.0000054,3.0000054 0 0 0 2.999825,3.00033 3.0000054,3.0000054 0 0 0 3.000333,-3.00033 v -2.5001 h 48.499858 v -2.99982 h 8.99999 v 2.99982 h 8.99998 v -2.99982 h 8.9999451 v 2.99982 h 8.999959 v -2.99982 -12.99972 -3.00034 h -8.999959 v 3.00034 h -8.9999451 v -3.00034 h -8.99998 v 3.00034 h -8.99999 v -3.00034 h -48.499858 v -0.99994 a 3.0000054,3.0000054 0 0 0 -3.000333,-2.99982 3.0000054,3.0000054 0 0 0 -2.999825,2.99982 v 0.99994 h -7.000098 v -0.99994 a 3.0000054,3.0000054 0 0 0 -2.999825,-2.99982 z m 0,1.99988 a 0.99999908,1.0000001 0 0 1 0.999941,0.99994 0.99999908,1.0000001 0 0 1 -0.999941,0.99994 0.99999908,1.0000001 0 0 1 -0.999942,-0.99994 0.99999908,1.0000001 0 0 1 0.999942,-0.99994 z m 12.999748,0 a 0.99999908,1.0000001 0 0 1 0.999942,0.99994 0.99999908,1.0000001 0 0 1 -0.999942,0.99994 0.99999908,1.0000001 0 0 1 -0.999941,-0.99994 0.99999908,1.0000001 0 0 1 0.999941,-0.99994 z m 62.000361,9.9999 a 1.4999934,1.4999934 0 0 1 1.49964,1.50018 1.4999934,1.4999934 0 0 1 -1.49964,1.49964 1.4999934,1.4999934 0 0 1 -1.50018,-1.49964 1.4999934,1.4999934 0 0 1 1.50018,-1.50018 z m -75.000109,12.50001 a 0.99999908,1.0000001 0 0 1 0.999941,0.99995 0.99999908,1.0000001 0 0 1 -0.999941,0.99994 0.99999908,1.0000001 0 0 1 -0.999942,-0.99994 0.99999908,1.0000001 0 0 1 0.999942,-0.99995 z m 12.999748,0 a 0.99999908,1.0000001 0 0 1 0.999942,0.99995 0.99999908,1.0000001 0 0 1 -0.999942,0.99994 0.99999908,1.0000001 0 0 1 -0.999941,-0.99994 0.99999908,1.0000001 0 0 1 0.999941,-0.99995 z"
       id="path2767" />
  </g>
</svg>
