<?xml version="1.0" encoding="UTF-8" standalone="no"?>
<svg
   xmlns:dc="http://purl.org/dc/elements/1.1/"
   xmlns:cc="http://creativecommons.org/ns#"
   xmlns:rdf="http://www.w3.org/1999/02/22-rdf-syntax-ns#"
   xmlns:svg="http://www.w3.org/2000/svg"
   xmlns="http://www.w3.org/2000/svg"
   id="svg1109"
   version="1.1"
   viewBox="0 0 32.099583 35.09993"
   height="35.09993mm"
   width="32.099583mm">
  <defs
     id="defs1103" />
  <metadata
     id="metadata1106">
    <rdf:RDF>
      <cc:Work
         rdf:about="">
        <dc:format>image/svg+xml</dc:format>
        <dc:type
           rdf:resource="http://purl.org/dc/dcmitype/StillImage" />
        <dc:title></dc:title>
      </cc:Work>
    </rdf:RDF>
  </metadata>
  <g
     transform="translate(-35.354971,66.020204)"
     id="layer1">
    <path
       id="path2966"
       d="m 35.404971,-65.970204 v 14.499892 h 2.999819 v 5.999633 h -2.999819 v 11.000363 h 2.999819 v 3.500043 h 25.999944 v -3.500043 h 2.999819 v -10.999847 h -2.999819 v -6.000149 h 2.999819 v -14.499892 z m 15.99901,2.500107 c 0.55245,-2.49e-4 1.000443,0.4475 1.000469,0.999939 -2.6e-5,0.552437 -0.448019,1.000186 -1.000469,0.999937 -0.552238,-2.9e-5 -0.999913,-0.447698 -0.99994,-0.999937 2.7e-5,-0.552238 0.447702,-0.999908 0.99994,-0.999939 z m -5.999109,3.500045 h 11.99978 v 22.750032 h -11.99978 z m -6.000142,4.499983 c 0.828543,-8.2e-5 1.50024,0.671621 1.500161,1.500166 -2.12e-4,0.828347 -0.67183,1.499733 -1.500161,1.499651 -0.828357,8.2e-5 -1.499976,-0.671304 -1.500187,-1.499651 -8e-5,-0.828545 0.671618,-1.500248 1.500187,-1.500166 z m 24.000064,0 c 0.828569,-8.2e-5 1.500267,0.671621 1.500188,1.500166 -2.12e-4,0.828347 -0.67183,1.499733 -1.500188,1.499651 -0.828331,9.8e-5 -1.499949,-0.671291 -1.500161,-1.499651 -7.9e-5,-0.828556 0.671619,-1.500267 1.500161,-1.500166 z m -12.000284,19.7497 c 0.55245,-2.62e-4 1.000416,0.447492 1.000443,0.999939 2.64e-4,0.552646 -0.447808,1.000718 -1.000443,1.000456 -0.55245,-3.4e-5 -1.000204,-0.448021 -0.99994,-1.000456 2.7e-5,-0.552238 0.447675,-0.999905 0.99994,-0.999939 z"
       style="fill:none;stroke:#000000;stroke-width:0.1;stroke-miterlimit:4;stroke-dasharray:none;stroke-opacity:1" />
  </g>
</svg>
