<?xml version="1.0" encoding="UTF-8" standalone="no"?>
<svg
   xmlns:dc="http://purl.org/dc/elements/1.1/"
   xmlns:cc="http://creativecommons.org/ns#"
   xmlns:rdf="http://www.w3.org/1999/02/22-rdf-syntax-ns#"
   xmlns:svg="http://www.w3.org/2000/svg"
   xmlns="http://www.w3.org/2000/svg"
   xmlns:sodipodi="http://sodipodi.sourceforge.net/DTD/sodipodi-0.dtd"
   xmlns:inkscape="http://www.inkscape.org/namespaces/inkscape"
   version="1.1"
   id="svg2"
   viewBox="0 0 744.09448819 1052.3622047"
   height="297mm"
   width="210mm"
   sodipodi:docname="feettjoin.inkscape.svg"
   inkscape:version="0.92.2 5c3e80d, 2017-08-06">
  <sodipodi:namedview
     pagecolor="#ffffff"
     bordercolor="#666666"
     borderopacity="1"
     objecttolerance="50"
     gridtolerance="10000"
     guidetolerance="10"
     inkscape:pageopacity="0"
     inkscape:pageshadow="2"
     inkscape:window-width="1920"
     inkscape:window-height="1128"
     id="namedview80"
     showgrid="true"
     inkscape:document-units="mm"
     inkscape:zoom="0.81513045"
     inkscape:cx="175.22788"
     inkscape:cy="199.21663"
     inkscape:window-x="0"
     inkscape:window-y="1"
     inkscape:window-maximized="1"
     inkscape:current-layer="svg2"
     inkscape:snap-global="true"
     showguides="true"
     inkscape:guide-bbox="true"
     inkscape:measure-start="1765.04,221.102"
     inkscape:measure-end="1765.04,205.984">
    <inkscape:grid
       type="xygrid"
       id="grid4765"
       units="mm"
       spacingx="0.88582677"
       spacingy="0.88582677"
       empspacing="4"
       visible="true"
       snapvisiblegridlinesonly="true"
       dotted="false" />
    <inkscape:grid
       type="xygrid"
       id="grid913"
       spacingx="0.44291339"
       spacingy="0.44291339"
       empspacing="8"
       dotted="false"
       units="mm"
       visible="true" />
    <sodipodi:guide
       position="2682.2834,574.01576"
       orientation="0,1"
       id="guide1104"
       inkscape:locked="false" />
    <sodipodi:guide
       position="2832.874,519.98033"
       orientation="0,1"
       id="guide1192"
       inkscape:locked="false" />
    <sodipodi:guide
       position="2832.874,519.98033"
       orientation="1,0"
       id="guide1194"
       inkscape:locked="false" />
    <sodipodi:guide
       position="690.94487,-196.65355"
       orientation="0,1"
       id="guide2186"
       inkscape:locked="false" />
  </sodipodi:namedview>
  <defs
     id="defs4" />
  <metadata
     id="metadata7">
    <rdf:RDF>
      <cc:Work
         rdf:about="">
        <dc:format>image/svg+xml</dc:format>
        <dc:type
           rdf:resource="http://purl.org/dc/dcmitype/StillImage" />
        <dc:title />
      </cc:Work>
    </rdf:RDF>
  </metadata>
  <path
     style="fill:none;stroke:#000000;stroke-width:0.35433072;stroke-miterlimit:4;stroke-dasharray:none;stroke-opacity:1"
     d="m 375.59022,921.25828 v 3.54487 H 340.15748 V 1041.7307 H 488.97645 V 924.80315 h -21.26038 v -3.54487 z m 92.12585,9.30169 7.2876,4.20778 v 8.41556 l -7.2876,4.20778 -7.2876,-4.20778 v -8.41556 z M 350.78675,953.1479 h 31.88965 v 10.63107 h -31.88965 z m 88.58276,0 h 28.34656 v 10.63107 h -28.34656 z m -74.40856,38.97769 a 5.3149533,5.3149533 0 0 1 5.31372,5.31366 5.3149533,5.3149533 0 0 1 -5.31372,5.31555 5.3149533,5.3149533 0 0 1 -5.31555,-5.31555 5.3149533,5.3149533 0 0 1 5.31555,-5.31366 z m 109.8413,0 a 5.3149533,5.3149533 0 0 1 5.31556,5.31366 5.3149533,5.3149533 0 0 1 -5.31556,5.31555 5.3149533,5.3149533 0 0 1 -5.31371,-5.31555 5.3149533,5.3149533 0 0 1 5.31371,-5.31366 z"
     id="rect1070"
     inkscape:connector-curvature="0" />
  <path
     style="fill:none;stroke:#000000;stroke-width:0.35433072;stroke-miterlimit:4;stroke-dasharray:none;stroke-opacity:1"
     d="m 170.07874,924.80315 v 116.92935 h 35.43274 v -3.5431 h 92.12586 v 3.5431 h 35.43273 V 924.80315 Z m 15.94482,33.66028 a 7.0866432,7.0866432 0 0 1 7.08619,7.08797 7.0866432,7.0866432 0 0 1 -7.08619,7.08619 7.0866432,7.0866432 0 0 1 -7.08617,-7.08619 7.0866432,7.0866432 0 0 1 7.08617,-7.08797 z m 44.29138,1.77244 a 5.3149533,5.3149533 0 0 1 5.31556,5.31553 5.3149533,5.3149533 0 0 1 -5.31556,5.31375 5.3149533,5.3149533 0 0 1 -5.31555,-5.31375 5.3149533,5.3149533 0 0 1 5.31555,-5.31553 z m 44.29139,0 a 5.3149533,5.3149533 0 0 1 5.31556,5.31553 5.3149533,5.3149533 0 0 1 -5.31556,5.31375 5.3149533,5.3149533 0 0 1 -5.31555,-5.31375 5.3149533,5.3149533 0 0 1 5.31555,-5.31553 z m 46.06201,0 a 5.3149533,5.3149533 0 0 1 5.31555,5.31553 5.3149533,5.3149533 0 0 1 -5.31555,5.31375 5.3149533,5.3149533 0 0 1 -5.31372,-5.31375 5.3149533,5.3149533 0 0 1 5.31372,-5.31553 z m -33.66028,3.5431 h 21.25855 v 10.62928 h -21.25855 z"
     id="rect1080"
     inkscape:connector-curvature="0" />
  <path
     style="fill:none;stroke:#000000;stroke-width:0.35433072;stroke-miterlimit:4;stroke-dasharray:none;stroke-opacity:1"
     d="m 0,924.80315 v 116.92915 h 10.62927 v 10.6293 h 31.88965 v -10.6293 h 56.693111 v 10.6293 h 28.346559 v -10.6293 h 35.43274 V 924.80315 Z m 15.94482,33.66022 c 3.9142,2e-4 7.08694,3.1738 7.08619,7.088 -2.4e-4,3.9135 -3.17269,7.0859 -7.08619,7.0862 -3.91349,-3e-4 -7.0859402,-3.1727 -7.0861802,-7.0862 -7.5e-4,-3.9142 3.1719902,-7.0878 7.0861802,-7.088 z m 100.9845,5.3156 h 21.25854 v 10.6293 h -21.25854 z"
     id="rect2192"
     inkscape:connector-curvature="0"
     sodipodi:nodetypes="ccccccccccccccccccccccc" />
  <path
     id="path2198"
     d="m 232.08753,925.63511 c -28.0704,-0.016 -52.1679,-19.9787 -57.4053,-47.5562 L 10.026431,783.01601 H 3.5444306 v -67.3223 l 7.3371004,-27.3798 13.689,3.6676 8.2525,-30.8038 30.803796,8.2544 -8.2544,30.8038 17.1149,4.585 8.2526,-30.8039 30.803803,8.2544 -8.2543,30.802 9.7759,2.6203 h 0.3205 v 0.086 l 3.5944,0.9632 -3.5944,13.4124 v 24.5691 l 99.3402,57.3541 c 6.2173,-2.2087 12.7636,-3.3491 19.3615,-3.3728 32.2892,4e-4 58.4641,26.1764 58.4638,58.4656 -4e-4,32.2885 -26.1753,58.4634 -58.4638,58.4638 z m 0,-51.3776 a 7.086627,7.086627 0 0 0 7.0862,-7.0862 7.086627,7.086627 0 0 0 -7.0862,-7.088 7.086627,7.086627 0 0 0 -7.0862,7.088 7.086627,7.086627 0 0 0 7.0862,7.0862 z m -76.1809,-46.0638 c 2.9351,3e-4 5.3148,-2.3786 5.3155,-5.3138 4e-4,-2.9358 -2.3798,-5.3158 -5.3155,-5.3155 -2.9359,-4e-4 -5.316,2.3797 -5.3157,5.3155 7e-4,2.9352 2.3805,5.3141 5.3157,5.3138 z m -30.1191,-15.9449 a 5.3149452,5.3149581 0 0 0 5.3155,-5.3137 5.3149452,5.3149581 0 0 0 -5.3155,-5.3155 5.3149452,5.3149581 0 0 0 -5.3137,5.3155 5.3149452,5.3149581 0 0 0 5.3137,5.3137 z m -38.975803,-23.9172 c 2.9358,3e-4 5.3159,-2.3797 5.3155,-5.3156 -6e-4,-2.9351 -2.3804,-5.314 -5.3155,-5.3137 -2.9351,-3e-4 -5.3149,2.3786 -5.3155,5.3137 -4e-4,2.9359 2.3797,5.3159 5.3155,5.3156 z m -37.205296,-19.4879 a 7.0866871,7.0866871 0 0 0 7.088096,-7.0862 7.0866871,7.0866871 0 0 0 -7.088096,-7.088 7.0866871,7.0866871 0 0 0 -7.0861,7.088 7.0866871,7.0866871 0 0 0 7.0861,7.0862 z m 42.612396,-69.9884 c 2.328,-0.089 4.327,-1.6831 4.931,-3.9331 0.7608,-2.8362 -0.9225,-5.7519 -3.7591,-6.5113 -2.8357,-0.7596 -5.7502,0.9235 -6.5094,3.7592 -0.7597,2.8356 0.9234,5.7501 3.7591,6.5094 0.5144,0.1373 1.0465,0.1966 1.5784,0.1758 z m -47.916896,-12.8394 c 2.3281,-0.089 4.327,-1.683 4.931,-3.9331 0.7608,-2.8362 -0.9226,-5.7519 -3.7591,-6.5112 -2.835,-0.7585 -5.7482,0.9244 -6.5076,3.7591 -0.7598,2.8351 0.9224,5.7493 3.7573,6.5094 0.5143,0.1374 1.0464,0.1966 1.5784,0.1758 z"
     style="fill:none;stroke:#000000;stroke-width:0.35433072;stroke-miterlimit:4;stroke-dasharray:none;stroke-opacity:1"
     inkscape:connector-curvature="0" />
  <path
     style="fill:none;stroke:#000000;stroke-width:0.35433072;stroke-miterlimit:4;stroke-dasharray:none;stroke-opacity:1"
     d="m 517.32283,954.9206 c -5.52468,0 -10.12537,4.23947 -10.58532,9.74493 h -0.0439 c 2.9e-4,7.08647 0,21.25857 0,21.25857 h -2.65868 v 10.63106 h -7.97242 v 17.71544 h 10.6311 c 0,0 0,14.1738 0,21.2604 h 0.0421 c 0.46002,5.5062 5.06176,9.7418 10.58715,9.7449 5.5247,0 10.12539,-4.2394 10.58533,-9.7449 h 0.0439 c -2.3e-4,-7.0866 0,-21.2604 0,-21.2604 h 10.6311 V 996.55516 H 530.6108 V 985.9241 h -2.65869 c 0,0 0,-14.1721 0,-21.25857 h -0.0421 c -0.46001,-5.50621 -5.06176,-9.74193 -10.58716,-9.74493 z m 0,5.31562 c 2.9351,-3.7e-4 5.31484,2.37853 5.31556,5.31366 3.7e-4,2.93587 -2.37969,5.316 -5.31556,5.31562 -2.93585,2.8e-4 -5.31591,-2.37975 -5.31555,-5.31562 7.3e-4,-2.93513 2.38047,-5.31394 5.31555,-5.31366 z m 0,36.31894 c 1.95675,9e-5 3.54298,1.58634 3.5431,3.54314 -1.2e-4,1.9567 -1.58635,3.543 -3.5431,3.543 -1.95674,0 -3.54296,-1.5863 -3.54308,-3.543 1.2e-4,-1.9568 1.58634,-3.54305 3.54308,-3.54314 z m 0,32.77584 c 2.93514,-4e-4 5.3149,2.3786 5.31556,5.3138 3.1e-4,2.9357 -2.37973,5.3159 -5.31556,5.3155 -2.93582,3e-4 -5.31586,-2.3798 -5.31555,-5.3155 6.7e-4,-2.9352 2.38043,-5.3141 5.31555,-5.3138 z"
     id="rect2210"
     inkscape:connector-curvature="0" />
</svg>
