<?xml version="1.0" encoding="UTF-8" standalone="no"?>
<svg
   xmlns:dc="http://purl.org/dc/elements/1.1/"
   xmlns:cc="http://creativecommons.org/ns#"
   xmlns:rdf="http://www.w3.org/1999/02/22-rdf-syntax-ns#"
   xmlns:svg="http://www.w3.org/2000/svg"
   xmlns="http://www.w3.org/2000/svg"
   width="192.1499mm"
   height="141.19954mm"
   viewBox="0 0 192.1499 141.19954"
   version="1.1"
   id="svg8">
  <defs
     id="defs2" />
  <metadata
     id="metadata5">
    <rdf:RDF>
      <cc:Work
         rdf:about="">
        <dc:format>image/svg+xml</dc:format>
        <dc:type
           rdf:resource="http://purl.org/dc/dcmitype/StillImage" />
        <dc:title></dc:title>
      </cc:Work>
    </rdf:RDF>
  </metadata>
  <path
     id="circle926"
     d="m 138.04977,12.100209 v 26.999903 2.999817 h 45.99978 v -2.999817 h 5.3e-4 V 12.100209 Z m 29.0003,2.999817 c 0.55244,3.3e-5 1.00019,0.448017 0.99994,1.000456 v 1.050065 c 5.10981,0.513571 8.99992,4.814221 8.99997,9.949781 -0.005,5.131602 -3.89409,9.426272 -8.99997,9.939445 v 1.0604 c -3e-5,0.552237 -0.4477,0.999906 -0.99994,0.999939 -0.55244,2.49e-4 -1.00042,-0.447502 -1.00045,-0.999939 v -1.050582 c -4.3524,-0.442536 -7.91188,-3.662875 -8.78655,-7.949385 h -1.34255 c -0.65401,0.939371 -1.72602,1.499594 -2.87063,1.500167 -1.93304,3.9e-5 -3.50008,-1.567008 -3.50004,-3.500045 -4e-5,-1.933037 1.567,-3.500084 3.50004,-3.500045 1.14352,0.0016 2.21415,0.561694 2.86753,1.500167 h 1.3348 c 0.87968,-4.286173 4.44375,-7.502709 8.7974,-7.939568 v -1.0604 c -2.5e-4,-0.552639 0.44781,-1.000705 1.00045,-1.000456 z M 142.00001,17.1502 c 0.55223,3.4e-5 0.9999,0.447702 0.99994,0.999939 -4e-5,0.552237 -0.44771,0.999905 -0.99994,0.999939 -0.55224,-3.4e-5 -0.99991,-0.447702 -0.99994,-0.999939 3e-5,-0.552237 0.4477,-0.999905 0.99994,-0.999939 z m 0,17.999936 c 0.55223,3.4e-5 0.9999,0.447702 0.99994,0.999939 2.5e-4,0.552439 -0.4475,1.000422 -0.99994,1.000455 -0.55244,-3.3e-5 -1.0002,-0.448016 -0.99994,-1.000455 3e-5,-0.552237 0.4477,-0.999905 0.99994,-0.999939 z"
     style="fill:none;stroke:#000000;stroke-width:0.1;stroke-miterlimit:4;stroke-dasharray:none;stroke-opacity:1" />
  <path
     id="rect971"
     d="m 76.049776,72.099928 h -26.9999 -2.99981 v 46.000292 h 2.99981 26.9999 z m -2.99981,29.000302 c -4e-5,0.55224 -0.4477,0.99989 -0.99994,0.99994 -0.55244,2.5e-4 -1.00042,-0.4475 -1.00046,-0.99994 -2.5e-4,-0.55264 0.44782,-1.00071 1.00046,-1.00047 0.55244,5e-5 1.00019,0.44803 0.99994,1.00047 z m -2.05018,-25.049892 c -3e-5,0.55223 -0.4477,0.9999 -0.99994,0.99994 -0.55223,-4e-5 -0.9999,-0.44771 -0.99993,-0.99994 -2.6e-4,-0.55244 0.4475,-1.00043 0.99993,-1.00046 0.55244,3e-5 1.0002,0.44802 0.99994,1.00046 z m -2.95003,25.049892 c -2.4e-4,3.86585 -3.13423,6.99962 -7.00009,6.99956 -3.86586,6e-5 -6.99986,-3.13369 -7.00009,-6.99956 -5e-5,-3.866067 3.13402,-7.000137 7.00009,-7.000087 3.86606,-5e-5 7.00014,3.13402 7.00009,7.000087 z m -3.50005,-14.000177 c 4e-5,1.93304 -1.56701,3.50007 -3.50004,3.50004 -1.93304,4e-5 -3.50009,-1.567 -3.50005,-3.50004 -4e-5,-1.93305 1.56701,-3.50009 3.50005,-3.50005 1.93304,-4e-5 3.50008,1.56701 3.50004,3.50005 z M 52.999786,76.050338 c -3e-5,0.55223 -0.4477,0.9999 -0.99993,0.99994 -0.55244,2.5e-4 -1.00043,-0.4475 -1.00046,-0.99994 -2.5e-4,-0.55264 0.44781,-1.00071 1.00046,-1.00046 0.55243,3e-5 1.00019,0.44802 0.99993,1.00046 z m -1.95003,25.049892 c -3e-5,0.55223 -0.4477,0.99989 -0.99994,0.99994 -0.55224,-5e-5 -0.9999,-0.44771 -0.99994,-0.99994 -2.5e-4,-0.55244 0.4475,-1.00042 0.99994,-1.00047 0.55244,5e-5 1.00019,0.44803 0.99994,1.00047 z"
     style="fill:none;stroke:#000000;stroke-width:0.1;stroke-miterlimit:4;stroke-dasharray:none;stroke-opacity:1" />
  <path
     id="path1483"
     d="m 7.0497787,60.099928 v 2.999817 H 0.05020572 V 87.09983 H 3.0500227 v 2.999817 h 2.999817 V 87.09983 h 2.000395 v -2.266528 c -3.135237,-2.251564 -4.995984,-5.873828 -5.000212,-9.733773 9.5e-5,-6.627245 5.37252,-11.99967 11.9997843,-11.999784 6.627466,-1.72e-4 12.000206,5.372337 12.000302,11.999784 -0.0059,3.858121 -1.866454,7.478106 -5.000212,9.728605 v 2.271696 h 3.000333 v 2.999817 h 7.999512 V 87.09983 H 46.049983 V 63.099745 l -13.049779,0.05011 v -2.999817 l -6.950035,-0.05011 h -3.000333 z m 22.0002073,2.999817 c 0.552238,3.3e-5 0.999905,0.447702 0.999939,0.999939 -3.4e-5,0.552238 -0.447701,0.999906 -0.999939,0.999939 -0.552239,-3.3e-5 -0.999906,-0.447701 -0.99994,-0.999939 3.4e-5,-0.552237 0.447701,-0.999906 0.99994,-0.999939 z M 4.0002667,65.149919 c 0.552237,3.4e-5 0.999905,0.447702 0.999939,0.999939 -3.4e-5,0.552237 -0.447702,0.999905 -0.999939,0.999939 -0.552237,-3.4e-5 -0.999905,-0.447702 -0.999939,-0.999939 3.4e-5,-0.552237 0.447702,-0.999905 0.999939,-0.999939 z M 29.049986,74.09959 c 0.552439,3.4e-5 1.000191,0.448017 0.999939,1.000456 -3.4e-5,0.552237 -0.447701,0.999905 -0.999939,0.999939 -0.552239,-3.4e-5 -0.999906,-0.447702 -0.99994,-0.999939 -2.52e-4,-0.552439 0.4475,-1.000422 0.99994,-1.000456 z M 4.0002667,83.149918 c 0.552237,3.3e-5 0.999905,0.447702 0.999939,0.999939 2.52e-4,0.552439 -0.4475,1.000422 -0.999939,1.000455 -0.552439,-3.3e-5 -1.000191,-0.448016 -0.999939,-1.000455 3.4e-5,-0.552237 0.447702,-0.999906 0.999939,-0.999939 z m 25.0497193,1.950034 c 0.552238,3.4e-5 0.999905,0.447702 0.999939,0.999939 -3.4e-5,0.552238 -0.447701,0.999906 -0.999939,0.999939 -0.552239,-3.3e-5 -0.999906,-0.447701 -0.99994,-0.999939 3.4e-5,-0.552237 0.447701,-0.999905 0.99994,-0.999939 z"
     style="fill:none;stroke:#000000;stroke-width:0.1;stroke-miterlimit:4;stroke-dasharray:none;stroke-opacity:1" />
  <path
     id="rect2329"
     d="M 92.049775,0.1001857 V 36.100056 H 138.04956 V 0.1001857 l -13.04985,0.05013 v 2.999817 l -6.95048,-0.05013 h -2.99981 -16.00006 v -2.999817 z m 1.99988,5.000212 a 0.99999992,0.99999992 0 0 1 0.99994,0.99994 0.99999992,0.99999992 0 0 1 -0.99994,0.999937 0.99999992,0.99999992 0 0 1 -0.99994,-0.999937 0.99999992,0.99999992 0 0 1 0.99994,-0.99994 z m 30.999665,5.9996343 v 2.999816 h -0.99994 v 8.999969 h -5.99963 v -8.999969 l -19.05,0.05013 v -2.999817 z m -25.99996,20.00033 c 0.55244,-2.51e-4 1.00042,0.4475 1.00046,0.99994 -4e-5,0.552436 -0.44802,1.000188 -1.00046,0.999937 -0.55224,-3.2e-5 -0.9999,-0.447702 -0.99994,-0.999937 4e-5,-0.552239 0.4477,-0.999908 0.99994,-0.99994 z m 16.00006,0 c 0.55223,3.2e-5 0.9999,0.447701 0.99994,0.99994 -4e-5,0.552235 -0.44771,0.999905 -0.99994,0.999937 -0.55224,-3.5e-5 -0.99991,-0.447702 -0.99994,-0.999937 3e-5,-0.552239 0.4477,-0.999906 0.99994,-0.99994 z"
     style="fill:none;stroke:#000000;stroke-width:0.1;stroke-miterlimit:4;stroke-dasharray:none;stroke-opacity:1" />
  <path
     style="fill:none;stroke:#000000;stroke-width:0.1;stroke-miterlimit:4;stroke-dasharray:none;stroke-opacity:1"
     d="m 138.04977,42.100218 v 26.9999 2.99981 h 45.99978 v -2.99981 h 5.3e-4 v -26.9999 z m 29.0003,2.99981 c 0.55244,4e-5 1.00019,0.44802 0.99994,1.00046 v 1.05006 c 5.10981,0.51357 8.99992,4.81422 8.99997,9.94978 -0.005,5.13161 -3.89409,9.42628 -8.99997,9.93945 v 1.0604 c -3e-5,0.55224 -0.4477,0.9999 -0.99994,0.99994 -0.55244,2.5e-4 -1.00042,-0.4475 -1.00045,-0.99994 v -1.05058 c -4.3524,-0.44254 -7.91188,-3.66288 -8.78655,-7.94939 h -1.34255 c -0.65401,0.93937 -1.72602,1.4996 -2.87063,1.50017 -1.93304,4e-5 -3.50008,-1.56701 -3.50004,-3.50005 -4e-5,-1.93303 1.567,-3.50008 3.50004,-3.50004 1.14352,0.002 2.21415,0.56169 2.86753,1.50017 h 1.3348 c 0.87968,-4.28618 4.44375,-7.50271 8.7974,-7.93957 v -1.0604 c -2.5e-4,-0.55264 0.44781,-1.00071 1.00045,-1.00046 z m -25.05006,2.05018 c 0.55223,3e-5 0.9999,0.4477 0.99994,0.99994 -4e-5,0.55223 -0.44771,0.9999 -0.99994,0.99993 -0.55224,-3e-5 -0.99991,-0.4477 -0.99994,-0.99993 3e-5,-0.55224 0.4477,-0.99991 0.99994,-0.99994 z m 0,17.99993 c 0.55223,4e-5 0.9999,0.4477 0.99994,0.99994 2.5e-4,0.55244 -0.4475,1.00042 -0.99994,1.00046 -0.55244,-4e-5 -1.00019,-0.44802 -0.99994,-1.00046 3e-5,-0.55224 0.4477,-0.9999 0.99994,-0.99994 z"
     id="path931" />
  <path
     style="fill:none;stroke:#000000;stroke-width:0.1;stroke-miterlimit:4;stroke-dasharray:none;stroke-opacity:1"
     d="m 136.04977,72.099928 h 26.9999 2.99981 v 45.999782 h -2.99981 v 5.3e-4 h -26.9999 z m 2.99981,29.000302 c 3e-5,0.55244 0.44802,1.00019 1.00046,0.99994 h 1.05006 c 0.51357,5.10981 4.81422,8.99992 9.94978,8.99997 5.1316,-0.005 9.42627,-3.89409 9.93945,-8.99997 h 1.0604 c 0.55223,-3e-5 0.9999,-0.4477 0.99994,-0.99994 2.5e-4,-0.55244 -0.44751,-1.00042 -0.99994,-1.00045 h -1.05058 c -0.44254,-4.352402 -3.66288,-7.911882 -7.94939,-8.786552 v -1.34255 c 0.93937,-0.65401 1.49959,-1.72602 1.50017,-2.87063 4e-5,-1.93304 -1.56701,-3.50008 -3.50005,-3.50004 -1.93303,-4e-5 -3.50008,1.567 -3.50004,3.50004 0.002,1.14352 0.56169,2.21415 1.50016,2.86753 v 1.3348 c -4.28617,0.87968 -7.5027,4.44375 -7.93956,8.797402 h -1.0604 c -0.55264,-2.5e-4 -1.00071,0.44781 -1.00046,1.00045 z m 2.05018,-25.050062 c 3e-5,0.55223 0.4477,0.9999 0.99993,0.99994 0.55224,-4e-5 0.99991,-0.44771 0.99994,-0.99994 -3e-5,-0.55224 -0.4477,-0.99991 -0.99994,-0.99994 -0.55223,3e-5 -0.9999,0.4477 -0.99993,0.99994 z m 17.99993,0 c 3e-5,0.55223 0.4477,0.9999 0.99994,0.99994 0.55244,2.5e-4 1.00042,-0.4475 1.00045,-0.99994 -3e-5,-0.55244 -0.44801,-1.00019 -1.00045,-0.99994 -0.55224,3e-5 -0.99991,0.4477 -0.99994,0.99994 z"
     id="path954" />
  <path
     style="fill:none;stroke:#000000;stroke-width:0.1;stroke-miterlimit:4;stroke-dasharray:none;stroke-opacity:1"
     d="m 76.049776,72.099928 h 26.999904 2.99982 v 46.000302 h -2.99982 -26.999904 z m 2.99981,29.000302 c 4e-5,0.55224 0.4477,0.99991 0.99994,0.99994 0.55244,2.5e-4 1.00042,-0.4475 1.00046,-0.99994 2.5e-4,-0.55264 -0.447819,-1.00071 -1.00046,-1.00046 -0.55244,4e-5 -1.00019,0.44802 -0.99994,1.00046 z m 2.05018,-25.049892 c 3e-5,0.55224 0.4477,0.9999 0.99994,0.99994 0.55223,-4e-5 0.9999,-0.4477 0.99993,-0.99994 2.6e-4,-0.55244 -0.44749,-1.00042 -0.99993,-1.00046 -0.55244,4e-5 -1.00019,0.44802 -0.99994,1.00046 z m 2.95003,25.049892 c 2.4e-4,3.86586 3.134234,6.99962 7.000094,6.99957 3.86586,5e-5 6.99986,-3.13371 7.00009,-6.99957 5e-5,-3.866059 -3.13402,-7.000143 -7.00009,-7.000093 -3.86606,-5e-5 -7.000134,3.134034 -7.000094,7.000093 z M 87.54985,87.100047 c -4e-5,1.933041 1.56701,3.50009 3.50004,3.50004 1.93304,5e-5 3.50009,-1.566999 3.50005,-3.50004 4e-5,-1.93304 -1.56701,-3.50009 -3.50005,-3.50004 -1.93304,-5e-5 -3.50008,1.567 -3.50004,3.50004 z m 11.54992,-11.04971 c 3e-5,0.55224 0.4477,0.9999 0.99993,0.99994 0.55244,2.5e-4 1.00043,-0.4475 1.00046,-0.99994 2.5e-4,-0.55264 -0.44781,-1.00071 -1.00046,-1.00046 -0.55243,4e-5 -1.00019,0.44802 -0.99993,1.00046 z m 1.95003,25.049893 c 3e-5,0.55224 0.4477,0.99991 0.99994,0.99994 0.55224,-3e-5 0.9999,-0.4477 0.99994,-0.99994 2.5e-4,-0.55244 -0.4475,-1.00042 -0.99994,-1.00046 -0.55244,4e-5 -1.00019,0.44802 -0.99994,1.00046 z"
     id="path956" />
  <path
     style="fill:none;stroke:#000000;stroke-width:0.1;stroke-miterlimit:4;stroke-dasharray:none;stroke-opacity:1"
     d="m 7.0497088,120.09965 v -2.99982 H 0.05013874 V 93.099737 H 3.0499588 v -2.99981 h 2.99982 v 2.99981 h 2.00039 v 2.26653 c -3.13524,2.25157 -4.99598,5.873833 -5.00021,9.733783 9e-5,6.62724 5.37252,11.99966 11.9997802,11.99978 6.62747,1.7e-4 12.00021,-5.37234 12.0003,-11.99978 -0.006,-3.85813 -1.86645,-7.478113 -5.00021,-9.728613 v -2.2717 h 3.00034 v -2.99981 h 7.99951 v 2.99981 h 13.00024 v 24.000093 l -13.04978,-0.0501 v 2.99982 l -6.95004,0.0501 h -3.00033 z m 22.0002102,-2.99982 c 0.55224,-3e-5 0.99991,-0.4477 0.99994,-0.99994 -3e-5,-0.55224 -0.4477,-0.99991 -0.99994,-0.99994 -0.55224,3e-5 -0.9999,0.4477 -0.99994,0.99994 4e-5,0.55224 0.4477,0.99991 0.99994,0.99994 z M 4.0001988,115.04965 c 0.55224,-3e-5 0.99991,-0.4477 0.99994,-0.99993 -3e-5,-0.55224 -0.4477,-0.99991 -0.99994,-0.99994 -0.55223,3e-5 -0.9999,0.4477 -0.99994,0.99994 4e-5,0.55223 0.44771,0.9999 0.99994,0.99993 z m 25.0497202,-8.94967 c 0.55244,-3e-5 1.00019,-0.44801 0.99994,-1.00045 -3e-5,-0.55224 -0.4477,-0.99991 -0.99994,-0.99994 -0.55224,3e-5 -0.9999,0.4477 -0.99994,0.99994 -2.5e-4,0.55244 0.4475,1.00042 0.99994,1.00045 z M 4.0001988,97.049657 c 0.55224,-4e-5 0.99991,-0.44771 0.99994,-0.99994 2.5e-4,-0.55244 -0.4475,-1.00042 -0.99994,-1.00046 -0.55244,4e-5 -1.00019,0.44802 -0.99994,1.00046 4e-5,0.55223 0.44771,0.9999 0.99994,0.99994 z m 25.0497202,-1.95004 c 0.55224,-3e-5 0.99991,-0.4477 0.99994,-0.99994 -3e-5,-0.55223 -0.4477,-0.9999 -0.99994,-0.99994 -0.55224,4e-5 -0.9999,0.44771 -0.99994,0.99994 4e-5,0.55224 0.4477,0.99991 0.99994,0.99994 z"
     id="path958" />
  <path
     style="fill:none;stroke:#000000;stroke-width:0.1;stroke-miterlimit:4;stroke-dasharray:none;stroke-opacity:1"
     d="M 92.049775,72.099928 V 36.100056 h 45.999785 v 35.999872 l -13.04984,-0.0501 v -2.99981 l -6.95048,0.0501 h -2.99982 -16.00005 v 2.99981 z m 1.99989,-5.00021 a 0.99999992,0.99999992 0 0 0 0.99994,-0.999942 0.99999992,0.99999992 0 0 0 -0.99994,-0.99994 0.99999992,0.99999992 0 0 0 -0.99995,0.99994 0.99999992,0.99999992 0 0 0 0.99995,0.999942 z m 30.999665,-5.999632 v -2.99982 h -0.99994 v -8.99997 h -5.99963 v 8.99997 l -19.05,-0.0501 v 2.99982 z M 99.04937,41.099756 c 0.55244,2.5e-4 1.00042,-0.4475 1.00045,-0.99994 -3e-5,-0.55244 -0.44801,-1.00019 -1.00045,-0.99994 -0.55224,3e-5 -0.99991,0.4477 -0.99994,0.99994 3e-5,0.55224 0.4477,0.9999 0.99994,0.99994 z m 16.00005,0 c 0.55224,-4e-5 0.99991,-0.4477 0.99994,-0.99994 -3e-5,-0.55224 -0.4477,-0.99991 -0.99994,-0.99994 -0.55223,3e-5 -0.9999,0.4477 -0.99994,0.99994 4e-5,0.55224 0.44771,0.9999 0.99994,0.99994 z"
     id="path962" />
  <path
     id="path964"
     d="m 106.04977,72.099928 h 26.99991 2.99982 V 118.0997 h -2.99982 v 5.3e-4 h -26.99991 z m 2.99981,29.000292 c 4e-5,0.55244 0.44802,1.00019 1.00046,0.99994 h 1.05006 c 0.51358,5.10981 4.81424,8.99992 9.94979,8.99997 5.13161,-0.005 9.42628,-3.89409 9.93945,-8.99997 h 1.0604 c 0.55224,-3e-5 0.99991,-0.4477 0.99994,-0.99994 2.5e-4,-0.55244 -0.4475,-1.00042 -0.99994,-1.00045 h -1.05058 c -0.44254,-4.352395 -3.66288,-7.911875 -7.94939,-8.786545 v -1.34255 c 0.93937,-0.65401 1.4996,-1.72602 1.50017,-2.87063 4e-5,-1.933037 -1.56701,-3.500077 -3.50005,-3.500037 -1.93303,-4e-5 -3.50008,1.567 -3.50004,3.500037 0.002,1.14352 0.56169,2.21415 1.50017,2.86753 v 1.3348 c -4.28618,0.87968 -7.50272,4.44375 -7.93958,8.797395 h -1.0604 c -0.55264,-2.5e-4 -1.00071,0.44781 -1.00046,1.00045 z m 2.05018,-25.050052 c 3e-5,0.55223 0.4477,0.9999 0.99994,0.99994 0.55223,-4e-5 0.99991,-0.44771 0.99995,-0.99994 -4e-5,-0.55224 -0.44772,-0.99992 -0.99995,-0.99995 -0.55224,3e-5 -0.99991,0.44771 -0.99994,0.99995 z m 17.99994,0 c 4e-5,0.55223 0.4477,0.9999 0.99994,0.99994 0.55244,2.5e-4 1.00042,-0.4475 1.00046,-0.99994 -4e-5,-0.55244 -0.44802,-1.0002 -1.00046,-0.99995 -0.55224,3e-5 -0.9999,0.44771 -0.99994,0.99995 z"
     style="fill:none;stroke:#000000;stroke-width:0.1;stroke-miterlimit:4;stroke-dasharray:none;stroke-opacity:1" />
  <path
     style="fill:none;stroke:#000000;stroke-width:0.1;stroke-miterlimit:4;stroke-dasharray:none;stroke-opacity:1"
     d="M 7.049573,0.10011333 V 3.0999301 H 0.05 V 27.100015 h 2.999817 v 2.999817 H 6.049634 V 27.100015 H 8.050029 V 24.833487 C 4.914792,22.581923 3.054046,18.959659 3.049817,15.099714 3.049912,8.472469 8.422337,3.1000443 15.049601,3.0999301 21.677067,3.0997585 27.049807,8.472267 27.049903,15.099714 c -0.0059,3.858121 -1.866454,7.478106 -5.000212,9.728605 v 2.271696 h 3.000333 v 2.999817 h 7.999512 V 27.100015 H 46.049777 V 3.0999301 L 32.999998,3.1500434 V 0.15022663 l -6.950035,-0.050113 H 23.04963 Z M 29.04978,3.0999301 c 0.552238,3.33e-5 0.999905,0.4477016 0.999939,0.9999391 -3.4e-5,0.5522375 -0.447701,0.9999056 -0.999939,0.9999389 -0.552239,-3.33e-5 -0.999906,-0.4477014 -0.99994,-0.9999389 3.4e-5,-0.5522375 0.447701,-0.9999058 0.99994,-0.9999391 z M 4.000061,5.1501043 C 4.552298,5.1501379 4.999966,5.5978063 5,6.150043 4.999966,6.70228 4.552298,7.149949 4.000061,7.149982 3.447824,7.149949 3.000156,6.70228 3.000122,6.150043 3.000156,5.5978063 3.447824,5.1501379 4.000061,5.1501043 Z M 29.04978,14.099775 c 0.552439,3.4e-5 1.000191,0.448017 0.999939,1.000456 -3.4e-5,0.552237 -0.447701,0.999905 -0.999939,0.999939 -0.552239,-3.4e-5 -0.999906,-0.447702 -0.99994,-0.999939 -2.52e-4,-0.552439 0.4475,-1.000422 0.99994,-1.000456 z M 4.000061,23.150103 c 0.552237,3.3e-5 0.999905,0.447702 0.999939,0.999939 2.52e-4,0.552439 -0.4475,1.000422 -0.999939,1.000455 -0.552439,-3.3e-5 -1.000191,-0.448016 -0.999939,-1.000455 3.4e-5,-0.552237 0.447702,-0.999906 0.999939,-0.999939 z m 25.049719,1.950034 c 0.552238,3.4e-5 0.999905,0.447702 0.999939,0.999939 -3.4e-5,0.552238 -0.447701,0.999906 -0.999939,0.999939 -0.552239,-3.3e-5 -0.999906,-0.447701 -0.99994,-0.999939 3.4e-5,-0.552237 0.447701,-0.999905 0.99994,-0.999939 z"
     id="path966" />
  <path
     id="path968"
     d="M 7.0495671,60.099552 V 57.099736 H 0.04999701 V 33.099651 H 3.049817 v -2.999819 h 2.99982 v 2.999819 h 2.00039 v 2.266528 c -3.13524,2.251564 -4.99598,5.873828 -5.00021,9.733773 9e-5,6.627244 5.37252,11.999669 11.999783,11.999784 6.627466,1.71e-4 12.000206,-5.372338 12.000302,-11.999784 -0.0059,-3.858121 -1.866454,-7.478106 -5.000212,-9.728605 v -2.271696 h 3.000333 v -2.999819 h 7.999512 v 2.999819 h 13.000241 v 24.000085 l -13.049779,-0.05011 v 2.999816 l -6.950035,0.0501 H 23.049629 Z M 29.049779,57.099736 c 0.552238,-3.4e-5 0.999905,-0.447702 0.999939,-0.99994 -3.4e-5,-0.552237 -0.447701,-0.999905 -0.999939,-0.999938 -0.552239,3.3e-5 -0.999906,0.447701 -0.99994,0.999938 3.4e-5,0.552238 0.447701,0.999906 0.99994,0.99994 z M 4.0000571,55.049561 c 0.55224,-3.3e-5 0.99991,-0.447702 0.99994,-0.999939 -3e-5,-0.552237 -0.4477,-0.999905 -0.99994,-0.999938 -0.55223,3.3e-5 -0.9999,0.447701 -0.99994,0.999938 4e-5,0.552237 0.44771,0.999906 0.99994,0.999939 z m 25.0497219,-8.94967 c 0.552439,-3.4e-5 1.000191,-0.448017 0.999939,-1.000456 -3.4e-5,-0.552237 -0.447701,-0.999905 -0.999939,-0.999939 -0.552239,3.4e-5 -0.999906,0.447702 -0.99994,0.999939 -2.52e-4,0.552439 0.4475,1.000422 0.99994,1.000456 z M 4.0000571,37.049563 c 0.55224,-3.3e-5 0.99991,-0.447702 0.99994,-0.999939 2.499e-4,-0.552439 -0.4475001,-1.000422 -0.99994,-1.000455 -0.55244,3.3e-5 -1.00019,0.448016 -0.99994,1.000455 4e-5,0.552237 0.44771,0.999906 0.99994,0.999939 z M 29.049779,35.099529 c 0.552238,-3.4e-5 0.999905,-0.447702 0.999939,-0.999939 -3.4e-5,-0.552238 -0.447701,-0.999906 -0.999939,-0.999939 -0.552239,3.3e-5 -0.999906,0.447701 -0.99994,0.999939 3.4e-5,0.552237 0.447701,0.999905 0.99994,0.999939 z"
     style="fill:none;stroke:#000000;stroke-width:0.1;stroke-miterlimit:4;stroke-dasharray:none;stroke-opacity:1" />
  <path
     style="fill:none;stroke:#000000;stroke-width:0.1;stroke-miterlimit:4;stroke-dasharray:none;stroke-opacity:1"
     d="M 92.049324,72.099801 V 36.099929 h -2.999819 v 2.99982 h -2.99982 v -2.99982 h -19.00039 v 2.99982 h -7.999518 v -2.99982 H 46.04953 v 35.999872 z m -6.949969,-2.950207 c -0.55245,2.48e-4 -1.000416,-0.447501 -1.000469,-0.99994 5.3e-5,-0.55244 0.448019,-1.000189 1.000469,-0.99994 0.552238,4e-5 0.999887,0.447699 0.99994,0.99994 -2.7e-5,0.552241 -0.447702,0.999908 -0.99994,0.99994 z m -16.000068,0 c -0.552212,-3.2e-5 -0.999887,-0.447699 -0.99994,-0.99994 5.3e-5,-0.552241 0.447728,-0.9999 0.99994,-0.99994 0.552238,4e-5 0.999913,0.447699 0.999939,0.99994 -2.6e-5,0.552241 -0.447701,0.999908 -0.999939,0.99994 z M 52.0497,63.600062 a 1.4999999,1.4999999 0 0 1 -1.50017,-1.500169 1.4999999,1.4999999 0 0 1 1.50017,-1.500167 1.4999999,1.4999999 0 0 1 1.50016,1.500167 1.4999999,1.4999999 0 0 1 -1.50016,1.500169 z M 66.049355,59.09956 h -5.999639 v -8.999966 h -0.999939 v -2.999817 h 7.999518 v 2.999817 h -0.99994 z m 23.00015,-8.999966 h -2.99982 v -2.999817 h 2.99982 z M 52.0497,45.599608 a 1.4999999,1.4999999 0 0 1 -1.50017,-1.499647 1.4999999,1.4999999 0 0 1 1.50017,-1.500169 1.4999999,1.4999999 0 0 1 1.50016,1.500169 1.4999999,1.4999999 0 0 1 -1.50016,1.499647 z M 90.099557,43.14963 a 0.99999992,0.99999992 0 0 1 -0.99994,-0.99994 0.99999992,0.99999992 0 0 1 0.99994,-0.999941 0.99999992,0.99999992 0 0 1 0.999939,0.999941 0.99999992,0.99999992 0 0 1 -0.999939,0.99994 z"
     id="path1001" />
  <path
     id="path1003"
     d="M 46.049958,36.099807 V 0.09993078 h 2.999819 V 3.0997508 h 2.99982 V 0.09993078 h 19.00039 V 3.0997508 h 7.999518 V 0.09993078 H 92.049754 V 36.099807 Z m 6.949969,-2.95021 c 0.55245,2.5e-4 1.000416,-0.4475 1.000469,-0.99994 -5.3e-5,-0.55244 -0.448019,-1.00019 -1.000469,-0.99994 -0.552238,4e-5 -0.999887,0.4477 -0.99994,0.99994 2.7e-5,0.55224 0.447702,0.99991 0.99994,0.99994 z m 16.000068,0 c 0.552212,-3e-5 0.999887,-0.4477 0.99994,-0.99994 -5.3e-5,-0.55224 -0.447728,-0.9999 -0.99994,-0.99994 -0.552238,4e-5 -0.999913,0.4477 -0.999939,0.99994 2.6e-5,0.55224 0.447701,0.99991 0.999939,0.99994 z m 17.049591,-5.549533 a 1.4999999,1.4999999 0 0 0 1.500161,-1.500169 1.4999999,1.4999999 0 0 0 -1.500161,-1.500167 1.4999999,1.4999999 0 0 0 -1.500161,1.500167 1.4999999,1.4999999 0 0 0 1.500161,1.500169 z M 72.049927,23.099562 h 5.999639 v -8.999966 h 0.999939 v -2.999817 h -7.999518 v 2.999817 h 0.99994 z m -23.00015,-8.999966 h 2.99982 v -2.999817 h -2.99982 z M 86.049586,9.5996101 a 1.4999999,1.4999999 0 0 0 1.500161,-1.499647 1.4999999,1.4999999 0 0 0 -1.500161,-1.5001691 1.4999999,1.4999999 0 0 0 -1.500161,1.5001691 1.4999999,1.4999999 0 0 0 1.500161,1.499647 z M 47.999725,7.1496321 a 0.99999992,0.99999992 0 0 0 0.99994,-0.9999401 0.99999992,0.99999992 0 0 0 -0.99994,-0.999941 0.99999992,0.99999992 0 0 0 -0.999939,0.999941 0.99999992,0.99999992 0 0 0 0.999939,0.9999401 z"
     style="fill:none;stroke:#000000;stroke-width:0.1;stroke-miterlimit:4;stroke-dasharray:none;stroke-opacity:1" />
</svg>
