<?xml version="1.0" encoding="UTF-8" standalone="no"?>
<svg
   xmlns:dc="http://purl.org/dc/elements/1.1/"
   xmlns:cc="http://creativecommons.org/ns#"
   xmlns:rdf="http://www.w3.org/1999/02/22-rdf-syntax-ns#"
   xmlns:svg="http://www.w3.org/2000/svg"
   xmlns="http://www.w3.org/2000/svg"
   xmlns:sodipodi="http://sodipodi.sourceforge.net/DTD/sodipodi-0.dtd"
   xmlns:inkscape="http://www.inkscape.org/namespaces/inkscape"
   id="svg8"
   version="1.1"
   viewBox="0 0 192.1499 141.19954"
   height="141.19954mm"
   width="192.1499mm"
   sodipodi:docname="draft.inkscape.svg"
   inkscape:version="0.92.2 5c3e80d, 2017-08-06">
  <sodipodi:namedview
     pagecolor="#ffffff"
     bordercolor="#666666"
     borderopacity="1"
     objecttolerance="10"
     gridtolerance="10"
     guidetolerance="10"
     inkscape:pageopacity="0"
     inkscape:pageshadow="2"
     inkscape:window-width="1879"
     inkscape:window-height="1155"
     id="namedview824"
     showgrid="true"
     inkscape:document-units="mm"
     fit-margin-top="0"
     fit-margin-left="0"
     fit-margin-right="0"
     fit-margin-bottom="0"
     inkscape:zoom="1.4142136"
     inkscape:cx="1060.3281"
     inkscape:cy="431.7489"
     inkscape:window-x="41"
     inkscape:window-y="1"
     inkscape:window-maximized="1"
     inkscape:current-layer="svg8"
     showguides="true"
     inkscape:guide-bbox="true">
    <inkscape:grid
       type="xygrid"
       id="grid826"
       units="mm"
       spacingx="0.125"
       spacingy="0.125"
       empspacing="4"
       originx="50.049777"
       originy="72.099609" />
  </sodipodi:namedview>
  <defs
     id="defs2" />
  <metadata
     id="metadata5">
    <rdf:RDF>
      <cc:Work
         rdf:about="">
        <dc:format>image/svg+xml</dc:format>
        <dc:type
           rdf:resource="http://purl.org/dc/dcmitype/StillImage" />
        <dc:title></dc:title>
      </cc:Work>
    </rdf:RDF>
  </metadata>
  <path
     inkscape:connector-curvature="0"
     style="fill:none;stroke:#000000;stroke-width:0.1;stroke-miterlimit:4;stroke-dasharray:none;stroke-opacity:1"
     d="m 76.049776,72.099928 h -26.9999 -2.99981 v 46.000292 h 2.99981 26.9999 z m -2.99981,29.000302 c -4e-5,0.55224 -0.4477,0.99989 -0.99994,0.99994 -0.55244,2.5e-4 -1.00042,-0.4475 -1.00046,-0.99994 -2.5e-4,-0.55264 0.44782,-1.00071 1.00046,-1.00047 0.55244,5e-5 1.00019,0.44803 0.99994,1.00047 z m -2.05018,-25.049892 c -3e-5,0.55223 -0.4477,0.9999 -0.99994,0.99994 -0.55223,-4e-5 -0.9999,-0.44771 -0.99993,-0.99994 -2.6e-4,-0.55244 0.4475,-1.00043 0.99993,-1.00046 0.55244,3e-5 1.0002,0.44802 0.99994,1.00046 z m -2.95003,25.049892 c -2.4e-4,3.86585 -3.13423,6.99962 -7.00009,6.99956 -3.86586,6e-5 -6.99986,-3.13369 -7.00009,-6.99956 -5e-5,-3.866067 3.13402,-7.000137 7.00009,-7.000087 3.86606,-5e-5 7.00014,3.13402 7.00009,7.000087 z m -3.50005,-14.000177 c 4e-5,1.93304 -1.56701,3.50007 -3.50004,3.50004 -1.93304,4e-5 -3.50009,-1.567 -3.50005,-3.50004 -4e-5,-1.93305 1.56701,-3.50009 3.50005,-3.50005 1.93304,-4e-5 3.50008,1.56701 3.50004,3.50005 z M 52.999786,76.050338 c -3e-5,0.55223 -0.4477,0.9999 -0.99993,0.99994 -0.55244,2.5e-4 -1.00043,-0.4475 -1.00046,-0.99994 -2.5e-4,-0.55264 0.44781,-1.00071 1.00046,-1.00046 0.55243,3e-5 1.00019,0.44802 0.99993,1.00046 z m -1.95003,25.049892 c -3e-5,0.55223 -0.4477,0.99989 -0.99994,0.99994 -0.55224,-5e-5 -0.9999,-0.44771 -0.99994,-0.99994 -2.5e-4,-0.55244 0.4475,-1.00042 0.99994,-1.00047 0.55244,5e-5 1.00019,0.44803 0.99994,1.00047 z"
     id="rect971"
     sodipodi:nodetypes="ccccccccccccccccccccccccccccccccccccc" />
  <path
     sodipodi:nodetypes="ccccccccccccccccccccccccccccccccccccccccccccccccccc"
     inkscape:connector-curvature="0"
     style="fill:none;stroke:#000000;stroke-width:0.1;stroke-miterlimit:4;stroke-dasharray:none;stroke-opacity:1"
     d="m 7.0497787,60.099928 v 2.999817 H 0.05020572 V 87.09983 H 3.0500227 v 2.999817 h 2.999817 V 87.09983 h 2.000395 v -2.266528 c -3.135237,-2.251564 -4.995984,-5.873828 -5.000212,-9.733773 9.5e-5,-6.627245 5.37252,-11.99967 11.9997843,-11.999784 6.627466,-1.72e-4 12.000206,5.372337 12.000302,11.999784 -0.0059,3.858121 -1.866454,7.478106 -5.000212,9.728605 v 2.271696 h 3.000333 v 2.999817 h 7.999512 V 87.09983 H 46.049983 V 63.099745 l -13.049779,0.05011 v -2.999817 l -6.950035,-0.05011 h -3.000333 z m 22.0002073,2.999817 c 0.552238,3.3e-5 0.999905,0.447702 0.999939,0.999939 -3.4e-5,0.552238 -0.447701,0.999906 -0.999939,0.999939 -0.552239,-3.3e-5 -0.999906,-0.447701 -0.99994,-0.999939 3.4e-5,-0.552237 0.447701,-0.999906 0.99994,-0.999939 z M 4.0002667,65.149919 c 0.552237,3.4e-5 0.999905,0.447702 0.999939,0.999939 -3.4e-5,0.552237 -0.447702,0.999905 -0.999939,0.999939 -0.552237,-3.4e-5 -0.999905,-0.447702 -0.999939,-0.999939 3.4e-5,-0.552237 0.447702,-0.999905 0.999939,-0.999939 z M 29.049986,74.09959 c 0.552439,3.4e-5 1.000191,0.448017 0.999939,1.000456 -3.4e-5,0.552237 -0.447701,0.999905 -0.999939,0.999939 -0.552239,-3.4e-5 -0.999906,-0.447702 -0.99994,-0.999939 -2.52e-4,-0.552439 0.4475,-1.000422 0.99994,-1.000456 z M 4.0002667,83.149918 c 0.552237,3.3e-5 0.999905,0.447702 0.999939,0.999939 2.52e-4,0.552439 -0.4475,1.000422 -0.999939,1.000455 -0.552439,-3.3e-5 -1.000191,-0.448016 -0.999939,-1.000455 3.4e-5,-0.552237 0.447702,-0.999906 0.999939,-0.999939 z m 25.0497193,1.950034 c 0.552238,3.4e-5 0.999905,0.447702 0.999939,0.999939 -3.4e-5,0.552238 -0.447701,0.999906 -0.999939,0.999939 -0.552239,-3.3e-5 -0.999906,-0.447701 -0.99994,-0.999939 3.4e-5,-0.552237 0.447701,-0.999905 0.99994,-0.999939 z"
     id="path1483" />
  <path
     style="fill:none;stroke:#000000;stroke-width:0.1;stroke-miterlimit:4;stroke-dasharray:none;stroke-opacity:1"
     d="M 92.049775,0.1001857 V 36.100056 H 138.04956 V 0.1001857 l -13.04985,0.05013 v 2.999817 l -6.95048,-0.05013 h -2.99981 -16.00006 v -2.999817 z m 1.99988,5.000212 a 0.99999992,0.99999992 0 0 1 0.99994,0.99994 0.99999992,0.99999992 0 0 1 -0.99994,0.999937 0.99999992,0.99999992 0 0 1 -0.99994,-0.999937 0.99999992,0.99999992 0 0 1 0.99994,-0.99994 z m 30.999665,5.9996343 v 2.999816 h -0.99994 v 8.999969 h -5.99963 v -8.999969 l -19.05,0.05013 v -2.999817 z m -25.99996,20.00033 c 0.55244,-2.51e-4 1.00042,0.4475 1.00046,0.99994 -4e-5,0.552436 -0.44802,1.000188 -1.00046,0.999937 -0.55224,-3.2e-5 -0.9999,-0.447702 -0.99994,-0.999937 4e-5,-0.552239 0.4477,-0.999908 0.99994,-0.99994 z m 16.00006,0 c 0.55223,3.2e-5 0.9999,0.447701 0.99994,0.99994 -4e-5,0.552235 -0.44771,0.999905 -0.99994,0.999937 -0.55224,-3.5e-5 -0.99991,-0.447702 -0.99994,-0.999937 3e-5,-0.552239 0.4477,-0.999906 0.99994,-0.99994 z"
     id="rect2329"
     inkscape:connector-curvature="0" />
  <path
     sodipodi:nodetypes="ccccccccccccccccccccccccccccccccccccc"
     id="path956"
     d="m 294.05009,39.09993 v 26.99991 2.99982 H 248.04978 V 66.09984 39.09993 Z m -29.00031,2.5 c -0.55224,4e-5 -0.99991,0.4477 -0.99994,0.99994 -2.5e-4,0.55244 0.4475,1.00042 0.99994,1.00046 0.55264,2.5e-4 1.00071,-0.44782 1.00046,-1.00046 -4e-5,-0.55244 -0.44802,-1.00019 -1.00046,-0.99994 z m 25,2.5 c -0.55224,3e-5 -0.9999,0.4477 -0.99994,0.99994 4e-5,0.55223 0.4477,0.9999 0.99994,0.99993 0.55244,2.6e-4 1.00042,-0.44749 1.00046,-0.99993 -4e-5,-0.55244 -0.44802,-1.00019 -1.00046,-0.99994 z m -25,3.00002 c -3.86586,2.4e-4 -6.99962,3.13424 -6.99957,7.0001 -5e-5,3.86586 3.13371,6.99986 6.99957,7.00009 3.86606,5e-5 7.00015,-3.13402 7.0001,-7.00009 5e-5,-3.86606 -3.13404,-7.00014 -7.0001,-7.0001 z m 14.00019,3.50006 c -1.93304,-4e-5 -3.50009,1.56701 -3.50004,3.50004 -5e-5,1.93304 1.567,3.50009 3.50004,3.50005 1.93304,4e-5 3.50009,-1.56701 3.50004,-3.50005 5e-5,-1.93304 -1.567,-3.50008 -3.50004,-3.50004 z m 10.99981,11.49992 c -0.55224,3e-5 -0.9999,0.4477 -0.99994,0.99993 -2.5e-4,0.55244 0.4475,1.00043 0.99994,1.00046 0.55264,2.5e-4 1.00071,-0.44781 1.00046,-1.00046 -4e-5,-0.55243 -0.44802,-1.00019 -1.00046,-0.99993 z m -25,2.5 c -0.55224,3e-5 -0.99991,0.4477 -0.99994,0.99994 3e-5,0.55224 0.4477,0.9999 0.99994,0.99994 0.55244,2.5e-4 1.00042,-0.4475 1.00046,-0.99994 -4e-5,-0.55244 -0.44802,-1.00019 -1.00046,-0.99994 z"
     style="fill:none;stroke:#000000;stroke-width:0.1;stroke-miterlimit:4;stroke-dasharray:none;stroke-opacity:1"
     inkscape:connector-curvature="0" />
  <path
     id="path958"
     d="m 7.0497088,120.09965 v -2.99982 H 0.05013874 V 93.099737 H 3.0499588 v -2.99981 h 2.99982 v 2.99981 h 2.00039 v 2.26653 c -3.13524,2.25157 -4.99598,5.873833 -5.00021,9.733783 9e-5,6.62724 5.37252,11.99966 11.9997802,11.99978 6.62747,1.7e-4 12.00021,-5.37234 12.0003,-11.99978 -0.006,-3.85813 -1.86645,-7.478113 -5.00021,-9.728613 v -2.2717 h 3.00034 v -2.99981 h 7.99951 v 2.99981 h 13.00024 v 24.000093 l -13.04978,-0.0501 v 2.99982 l -6.95004,0.0501 h -3.00033 z m 22.0002102,-2.99982 c 0.55224,-3e-5 0.99991,-0.4477 0.99994,-0.99994 -3e-5,-0.55224 -0.4477,-0.99991 -0.99994,-0.99994 -0.55224,3e-5 -0.9999,0.4477 -0.99994,0.99994 4e-5,0.55224 0.4477,0.99991 0.99994,0.99994 z M 4.0001988,115.04965 c 0.55224,-3e-5 0.99991,-0.4477 0.99994,-0.99993 -3e-5,-0.55224 -0.4477,-0.99991 -0.99994,-0.99994 -0.55223,3e-5 -0.9999,0.4477 -0.99994,0.99994 4e-5,0.55223 0.44771,0.9999 0.99994,0.99993 z m 25.0497202,-8.94967 c 0.55244,-3e-5 1.00019,-0.44801 0.99994,-1.00045 -3e-5,-0.55224 -0.4477,-0.99991 -0.99994,-0.99994 -0.55224,3e-5 -0.9999,0.4477 -0.99994,0.99994 -2.5e-4,0.55244 0.4475,1.00042 0.99994,1.00045 z M 4.0001988,97.049657 c 0.55224,-4e-5 0.99991,-0.44771 0.99994,-0.99994 2.5e-4,-0.55244 -0.4475,-1.00042 -0.99994,-1.00046 -0.55244,4e-5 -1.00019,0.44802 -0.99994,1.00046 4e-5,0.55223 0.44771,0.9999 0.99994,0.99994 z m 25.0497202,-1.95004 c 0.55224,-3e-5 0.99991,-0.4477 0.99994,-0.99994 -3e-5,-0.55223 -0.4477,-0.9999 -0.99994,-0.99994 -0.55224,4e-5 -0.9999,0.44771 -0.99994,0.99994 4e-5,0.55224 0.4477,0.99991 0.99994,0.99994 z"
     style="fill:none;stroke:#000000;stroke-width:0.1;stroke-miterlimit:4;stroke-dasharray:none;stroke-opacity:1"
     inkscape:connector-curvature="0"
     sodipodi:nodetypes="ccccccccccccccccccccccccccccccccccccccccccccccccccc" />
  <path
     id="path962"
     d="M 300.04999,37.09993 V 1.1000586 h 45.99979 V 37.09993 Z m 1.99989,-5.00021 c 0.55224,-3.3e-5 0.99991,-0.447703 0.99994,-0.999942 -3e-5,-0.552238 -0.4477,-0.999907 -0.99994,-0.99994 -0.55224,2.8e-5 -0.99992,0.447698 -0.99995,0.99994 3e-5,0.552243 0.44771,0.999914 0.99995,0.999942 z m 4.99971,-25.9999614 c 0.55244,2.5e-4 1.00042,-0.4475 1.00045,-0.99994 -3e-5,-0.55244 -0.44801,-1.00019 -1.00045,-0.99994 -0.55224,3e-5 -0.99991,0.4477 -0.99994,0.99994 3e-5,0.55224 0.4477,0.9999 0.99994,0.99994 z m 16.00005,0 c 0.55224,-4e-5 0.99991,-0.4477 0.99994,-0.99994 -3e-5,-0.55224 -0.4477,-0.99991 -0.99994,-0.99994 -0.55223,3e-5 -0.9999,0.4477 -0.99994,0.99994 4e-5,0.55224 0.44771,0.9999 0.99994,0.99994 z"
     style="fill:none;stroke:#000000;stroke-width:0.1;stroke-miterlimit:4;stroke-dasharray:none;stroke-opacity:1"
     inkscape:connector-curvature="0"
     sodipodi:nodetypes="cccccccccccccccccccc" />
  <path
     inkscape:connector-curvature="0"
     style="fill:none;stroke:#000000;stroke-width:0.1;stroke-miterlimit:4;stroke-dasharray:none;stroke-opacity:1"
     d="m 106.04977,72.099928 h 26.99991 2.99982 V 118.0997 h -2.99982 v 5.3e-4 h -26.99991 z m 2.99981,29.000292 c 4e-5,0.55244 0.44802,1.00019 1.00046,0.99994 h 1.05006 c 0.51358,5.10981 4.81424,8.99992 9.94979,8.99997 5.13161,-0.005 9.42628,-3.89409 9.93945,-8.99997 h 1.0604 c 0.55224,-3e-5 0.99991,-0.4477 0.99994,-0.99994 2.5e-4,-0.55244 -0.4475,-1.00042 -0.99994,-1.00045 h -1.05058 c -0.44254,-4.352395 -3.66288,-7.911875 -7.94939,-8.786545 v -1.34255 c 0.93937,-0.65401 1.4996,-1.72602 1.50017,-2.87063 4e-5,-1.933037 -1.56701,-3.500077 -3.50005,-3.500037 -1.93303,-4e-5 -3.50008,1.567 -3.50004,3.500037 0.002,1.14352 0.56169,2.21415 1.50017,2.86753 v 1.3348 c -4.28618,0.87968 -7.50272,4.44375 -7.93958,8.797395 h -1.0604 c -0.55264,-2.5e-4 -1.00071,0.44781 -1.00046,1.00045 z m 2.05018,-25.050052 c 3e-5,0.55223 0.4477,0.9999 0.99994,0.99994 0.55223,-4e-5 0.99991,-0.44771 0.99995,-0.99994 -4e-5,-0.55224 -0.44772,-0.99992 -0.99995,-0.99995 -0.55224,3e-5 -0.99991,0.44771 -0.99994,0.99995 z m 17.99994,0 c 4e-5,0.55223 0.4477,0.9999 0.99994,0.99994 0.55244,2.5e-4 1.00042,-0.4475 1.00046,-0.99994 -4e-5,-0.55244 -0.44802,-1.0002 -1.00046,-0.99995 -0.55224,3e-5 -0.9999,0.44771 -0.99994,0.99995 z"
     id="path964"
     sodipodi:nodetypes="ccccccccccccccccccccccccccccccccccccc" />
  <path
     id="path966"
     d="M 7.049573,0.10011333 V 3.0999301 H 0.05 V 27.100015 h 2.999817 v 2.999817 H 6.049634 V 27.100015 H 8.050029 V 24.833487 C 4.914792,22.581923 3.054046,18.959659 3.049817,15.099714 3.049912,8.472469 8.422337,3.1000443 15.049601,3.0999301 21.677067,3.0997585 27.049807,8.472267 27.049903,15.099714 c -0.0059,3.858121 -1.866454,7.478106 -5.000212,9.728605 v 2.271696 h 3.000333 v 2.999817 h 7.999512 V 27.100015 H 46.049777 V 3.0999301 L 32.999998,3.1500434 V 0.15022663 l -6.950035,-0.050113 H 23.04963 Z M 29.04978,3.0999301 c 0.552238,3.33e-5 0.999905,0.4477016 0.999939,0.9999391 -3.4e-5,0.5522375 -0.447701,0.9999056 -0.999939,0.9999389 -0.552239,-3.33e-5 -0.999906,-0.4477014 -0.99994,-0.9999389 3.4e-5,-0.5522375 0.447701,-0.9999058 0.99994,-0.9999391 z M 4.000061,5.1501043 C 4.552298,5.1501379 4.999966,5.5978063 5,6.150043 4.999966,6.70228 4.552298,7.149949 4.000061,7.149982 3.447824,7.149949 3.000156,6.70228 3.000122,6.150043 3.000156,5.5978063 3.447824,5.1501379 4.000061,5.1501043 Z M 29.04978,14.099775 c 0.552439,3.4e-5 1.000191,0.448017 0.999939,1.000456 -3.4e-5,0.552237 -0.447701,0.999905 -0.999939,0.999939 -0.552239,-3.4e-5 -0.999906,-0.447702 -0.99994,-0.999939 -2.52e-4,-0.552439 0.4475,-1.000422 0.99994,-1.000456 z M 4.000061,23.150103 c 0.552237,3.3e-5 0.999905,0.447702 0.999939,0.999939 2.52e-4,0.552439 -0.4475,1.000422 -0.999939,1.000455 -0.552439,-3.3e-5 -1.000191,-0.448016 -0.999939,-1.000455 3.4e-5,-0.552237 0.447702,-0.999906 0.999939,-0.999939 z m 25.049719,1.950034 c 0.552238,3.4e-5 0.999905,0.447702 0.999939,0.999939 -3.4e-5,0.552238 -0.447701,0.999906 -0.999939,0.999939 -0.552239,-3.3e-5 -0.999906,-0.447701 -0.99994,-0.999939 3.4e-5,-0.552237 0.447701,-0.999905 0.99994,-0.999939 z"
     style="fill:none;stroke:#000000;stroke-width:0.1;stroke-miterlimit:4;stroke-dasharray:none;stroke-opacity:1"
     inkscape:connector-curvature="0"
     sodipodi:nodetypes="ccccccccccccccccccccccccccccccccccccccccccccccccccc" />
  <path
     sodipodi:nodetypes="ccccccccccccccccccccccccccccccccccccccccccccccccccc"
     inkscape:connector-curvature="0"
     style="fill:none;stroke:#000000;stroke-width:0.1;stroke-miterlimit:4;stroke-dasharray:none;stroke-opacity:1"
     d="M 7.0495671,60.099552 V 57.099736 H 0.04999701 V 33.099651 H 3.049817 v -2.999819 h 2.99982 v 2.999819 h 2.00039 v 2.266528 c -3.13524,2.251564 -4.99598,5.873828 -5.00021,9.733773 9e-5,6.627244 5.37252,11.999669 11.999783,11.999784 6.627466,1.71e-4 12.000206,-5.372338 12.000302,-11.999784 -0.0059,-3.858121 -1.866454,-7.478106 -5.000212,-9.728605 v -2.271696 h 3.000333 v -2.999819 h 7.999512 v 2.999819 h 13.000241 v 24.000085 l -13.049779,-0.05011 v 2.999816 l -6.950035,0.0501 H 23.049629 Z M 29.049779,57.099736 c 0.552238,-3.4e-5 0.999905,-0.447702 0.999939,-0.99994 -3.4e-5,-0.552237 -0.447701,-0.999905 -0.999939,-0.999938 -0.552239,3.3e-5 -0.999906,0.447701 -0.99994,0.999938 3.4e-5,0.552238 0.447701,0.999906 0.99994,0.99994 z M 4.0000571,55.049561 c 0.55224,-3.3e-5 0.99991,-0.447702 0.99994,-0.999939 -3e-5,-0.552237 -0.4477,-0.999905 -0.99994,-0.999938 -0.55223,3.3e-5 -0.9999,0.447701 -0.99994,0.999938 4e-5,0.552237 0.44771,0.999906 0.99994,0.999939 z m 25.0497219,-8.94967 c 0.552439,-3.4e-5 1.000191,-0.448017 0.999939,-1.000456 -3.4e-5,-0.552237 -0.447701,-0.999905 -0.999939,-0.999939 -0.552239,3.4e-5 -0.999906,0.447702 -0.99994,0.999939 -2.52e-4,0.552439 0.4475,1.000422 0.99994,1.000456 z M 4.0000571,37.049563 c 0.55224,-3.3e-5 0.99991,-0.447702 0.99994,-0.999939 2.499e-4,-0.552439 -0.4475001,-1.000422 -0.99994,-1.000455 -0.55244,3.3e-5 -1.00019,0.448016 -0.99994,1.000455 4e-5,0.552237 0.44771,0.999906 0.99994,0.999939 z M 29.049779,35.099529 c 0.552238,-3.4e-5 0.999905,-0.447702 0.999939,-0.999939 -3.4e-5,-0.552238 -0.447701,-0.999906 -0.999939,-0.999939 -0.552239,3.3e-5 -0.999906,0.447701 -0.99994,0.999939 3.4e-5,0.552237 0.447701,0.999905 0.99994,0.999939 z"
     id="path968" />
  <path
     id="path1001"
     d="M 92.049324,72.099801 V 36.099929 h -2.999819 v 2.99982 h -2.99982 v -2.99982 h -19.00039 v 2.99982 h -7.999518 v -2.99982 H 46.04953 v 35.999872 z m -6.949969,-2.950207 c -0.55245,2.48e-4 -1.000416,-0.447501 -1.000469,-0.99994 5.3e-5,-0.55244 0.448019,-1.000189 1.000469,-0.99994 0.552238,4e-5 0.999887,0.447699 0.99994,0.99994 -2.7e-5,0.552241 -0.447702,0.999908 -0.99994,0.99994 z m -16.000068,0 c -0.552212,-3.2e-5 -0.999887,-0.447699 -0.99994,-0.99994 5.3e-5,-0.552241 0.447728,-0.9999 0.99994,-0.99994 0.552238,4e-5 0.999913,0.447699 0.999939,0.99994 -2.6e-5,0.552241 -0.447701,0.999908 -0.999939,0.99994 z M 52.0497,63.600062 a 1.4999999,1.4999999 0 0 1 -1.50017,-1.500169 1.4999999,1.4999999 0 0 1 1.50017,-1.500167 1.4999999,1.4999999 0 0 1 1.50016,1.500167 1.4999999,1.4999999 0 0 1 -1.50016,1.500169 z M 66.049355,59.09956 h -5.999639 v -8.999966 h -0.999939 v -2.999817 h 7.999518 v 2.999817 h -0.99994 z m 23.00015,-8.999966 h -2.99982 v -2.999817 h 2.99982 z M 52.0497,45.599608 a 1.4999999,1.4999999 0 0 1 -1.50017,-1.499647 1.4999999,1.4999999 0 0 1 1.50017,-1.500169 1.4999999,1.4999999 0 0 1 1.50016,1.500169 1.4999999,1.4999999 0 0 1 -1.50016,1.499647 z M 90.099557,43.14963 a 0.99999992,0.99999992 0 0 1 -0.99994,-0.99994 0.99999992,0.99999992 0 0 1 0.99994,-0.999941 0.99999992,0.99999992 0 0 1 0.999939,0.999941 0.99999992,0.99999992 0 0 1 -0.999939,0.99994 z"
     style="fill:none;stroke:#000000;stroke-width:0.1;stroke-miterlimit:4;stroke-dasharray:none;stroke-opacity:1"
     inkscape:connector-curvature="0" />
  <path
     inkscape:connector-curvature="0"
     style="fill:none;stroke:#000000;stroke-width:0.1;stroke-miterlimit:4;stroke-dasharray:none;stroke-opacity:1"
     d="M 46.049958,36.099807 V 0.09993078 h 2.999819 V 3.0997508 h 2.99982 V 0.09993078 h 19.00039 V 3.0997508 h 7.999518 V 0.09993078 H 92.049754 V 36.099807 Z m 6.949969,-2.95021 c 0.55245,2.5e-4 1.000416,-0.4475 1.000469,-0.99994 -5.3e-5,-0.55244 -0.448019,-1.00019 -1.000469,-0.99994 -0.552238,4e-5 -0.999887,0.4477 -0.99994,0.99994 2.7e-5,0.55224 0.447702,0.99991 0.99994,0.99994 z m 16.000068,0 c 0.552212,-3e-5 0.999887,-0.4477 0.99994,-0.99994 -5.3e-5,-0.55224 -0.447728,-0.9999 -0.99994,-0.99994 -0.552238,4e-5 -0.999913,0.4477 -0.999939,0.99994 2.6e-5,0.55224 0.447701,0.99991 0.999939,0.99994 z m 17.049591,-5.549533 a 1.4999999,1.4999999 0 0 0 1.500161,-1.500169 1.4999999,1.4999999 0 0 0 -1.500161,-1.500167 1.4999999,1.4999999 0 0 0 -1.500161,1.500167 1.4999999,1.4999999 0 0 0 1.500161,1.500169 z M 72.049927,23.099562 h 5.999639 v -8.999966 h 0.999939 v -2.999817 h -7.999518 v 2.999817 h 0.99994 z m -23.00015,-8.999966 h 2.99982 v -2.999817 h -2.99982 z M 86.049586,9.5996101 a 1.4999999,1.4999999 0 0 0 1.500161,-1.499647 1.4999999,1.4999999 0 0 0 -1.500161,-1.5001691 1.4999999,1.4999999 0 0 0 -1.500161,1.5001691 1.4999999,1.4999999 0 0 0 1.500161,1.499647 z M 47.999725,7.1496321 a 0.99999992,0.99999992 0 0 0 0.99994,-0.9999401 0.99999992,0.99999992 0 0 0 -0.99994,-0.999941 0.99999992,0.99999992 0 0 0 -0.999939,0.999941 0.99999992,0.99999992 0 0 0 0.999939,0.9999401 z"
     id="path1003" />
  <rect
     style="fill:none;fill-opacity:1;stroke:#000000;stroke-width:0.1;stroke-miterlimit:5.92619944;stroke-dasharray:none;stroke-dashoffset:0;stroke-opacity:1"
     id="rect874"
     width="20.107159"
     height="18.635904"
     x="111.04977"
     y="91.09993" />
  <rect
     style="fill:none;fill-opacity:1;stroke:#000000;stroke-width:0.1;stroke-miterlimit:5.92619944;stroke-dasharray:none;stroke-dashoffset:0;stroke-opacity:1"
     id="rect876"
     width="20.999998"
     height="20.999998"
     x="198.54977"
     y="94.59993" />
  <rect
     style="fill:none;fill-opacity:1;stroke:#000000;stroke-width:0.1;stroke-miterlimit:5.92619944;stroke-dasharray:none;stroke-dashoffset:0;stroke-opacity:1"
     id="rect911"
     width="6.9999995"
     height="6.9999995"
     x="147.54977"
     y="83.59993" />
  <circle
     style="fill:none;fill-opacity:1;stroke:#000000;stroke-width:0.1;stroke-miterlimit:5.92619944;stroke-dasharray:none;stroke-dashoffset:0;stroke-opacity:1"
     id="path913"
     cx="151.04977"
     cy="87.09993"
     r="3.4999998" />
  <path
     style="fill:none;fill-opacity:1;stroke:#000000;stroke-width:0.1;stroke-miterlimit:5.92619944;stroke-dasharray:none;stroke-dashoffset:0;stroke-opacity:1"
     d="m 246.05008,39.099693 h -46.0003 V 69.09993 h 46.0003 z m -3.00034,6.000149 a 0.99999992,0.99999992 0 0 1 -0.99993,0.999941 0.99999992,0.99999992 0 0 1 -0.99994,-0.999941 0.99999992,0.99999992 0 0 1 0.99994,-0.99994 0.99999992,0.99999992 0 0 1 0.99993,0.99994 z m 0,17.999941 a 0.99999992,0.99999992 0 0 1 -0.99993,0.99994 0.99999992,0.99999992 0 0 1 -0.99994,-0.99994 0.99999992,0.99999992 0 0 1 0.99994,-0.999941 0.99999992,0.99999992 0 0 1 0.99993,0.999941 z M 234.55,54.099813 a 3.4999998,3.4999998 0 0 1 -3.50004,3.50004 3.4999998,3.4999998 0 0 1 -2.86753,-1.50016 h -0.82889 a 10.5,10.5 0 0 1 -9.30382,8.44289 v 1.0573 a 0.99999992,0.99999992 0 0 1 -0.99994,0.99994 0.99999992,0.99999992 0 0 1 -0.99994,-0.99994 v -1.05006 a 10.5,10.5 0 0 1 -9.5002,-10.45001 10.5,10.5 0 0 1 9.5002,-10.44226 v -1.05781 a 0.99999992,0.99999992 0 0 1 0.99994,-0.99994 0.99999992,0.99999992 0 0 1 0.99994,0.99994 v 1.05006 a 10.5,10.5 0 0 1 9.29917,8.45013 h 0.83044 a 3.4999998,3.4999998 0 0 1 2.87063,-1.50016 3.4999998,3.4999998 0 0 1 3.50004,3.50004 z"
     id="path935"
     inkscape:connector-curvature="0" />
  <path
     id="path1521"
     d="m 249.04978,88.599821 a 3.4999998,3.4999998 0 0 0 -3.50004,3.500043 3.4999998,3.4999998 0 0 0 1.50016,2.870626 v 0.830439 a 10.5,10.5 0 0 0 -8.45013,9.299171 h -1.05006 a 0.99999992,0.99999992 0 0 0 -0.99994,0.99994 0.99999992,0.99999992 0 0 0 0.99994,0.99994 h 1.05781 a 10.5,10.5 0 0 0 10.44226,9.5002 10.5,10.5 0 0 0 10.45001,-9.5002 h 1.05006 a 0.99999992,0.99999992 0 0 0 0.99994,-0.99994 0.99999992,0.99999992 0 0 0 -0.99994,-0.99994 h -1.0573 a 10.5,10.5 0 0 0 -8.44289,-9.303819 v -0.828892 a 3.4999998,3.4999998 0 0 0 1.50016,-2.867525 3.4999998,3.4999998 0 0 0 -3.50004,-3.500043 z"
     style="fill:none;fill-opacity:1;stroke:#000000;stroke-width:0.1;stroke-miterlimit:5.92619944;stroke-dasharray:none;stroke-dashoffset:0;stroke-opacity:1"
     inkscape:connector-curvature="0" />
  <circle
     r="0.99999994"
     cy="81.09993"
     cx="240.04979"
     id="circle1523"
     style="fill:none;fill-opacity:1;stroke:#000000;stroke-width:0.1;stroke-miterlimit:5.92619944;stroke-dasharray:none;stroke-dashoffset:0;stroke-opacity:1" />
  <circle
     r="0.99999994"
     cy="81.09993"
     cx="258.04977"
     id="circle1525"
     style="fill:none;fill-opacity:1;stroke:#000000;stroke-width:0.1;stroke-miterlimit:5.92619944;stroke-dasharray:none;stroke-dashoffset:0;stroke-opacity:1" />
  <rect
     y="77.09993"
     x="234.04977"
     height="45.999996"
     width="29.999998"
     id="rect1527"
     style="fill:none;fill-opacity:1;stroke:#000000;stroke-width:0.1;stroke-miterlimit:5.92619944;stroke-dasharray:none;stroke-dashoffset:0;stroke-opacity:1" />
  <path
     style="fill:none;fill-opacity:1;stroke:#000000;stroke-width:0.1;stroke-miterlimit:5.92619944;stroke-dasharray:none;stroke-dashoffset:0;stroke-opacity:1"
     d="M 248.04978,6.0999302 V 36.09965 h 45.99978 V 6.0999302 Z m 16.99999,2.500106 c 0.55224,3.3e-5 0.99991,0.447702 0.99994,0.99994 -3e-5,0.5522368 -0.4477,0.9999038 -0.99994,0.9999368 -0.55223,-3.9e-5 -0.9999,-0.447704 -0.99993,-0.9999368 3e-5,-0.552234 0.4477,-0.999901 0.99993,-0.99994 z m 14.00001,0.374614 c 6.62745,1.21e-4 12.12516,5.4975508 12.125,12.1249998 -1.2e-4,6.627248 -5.49776,12.124879 -12.125,12.125 -5.83332,-3.86e-4 -10.82118,-4.320428 -11.82133,-10.067363 -0.56574,0.600374 -1.35375,0.941293 -2.17868,0.942578 -1.65671,-1.05e-4 -2.99971,-1.343108 -2.99981,-2.999817 -1.8e-4,-1.65691 1.3429,-3.000228 2.99981,-3.000333 0.82975,9.9e-4 1.62203,0.345589 2.1885,0.951879 0.9955,-5.74698 5.97895,-10.0709998 11.81151,-10.0769438 z m 11.00002,2.1249738 c 0.55244,3.3e-5 1.00019,0.448016 0.99994,1.000455 -3e-5,0.552238 -0.4477,0.999907 -0.99994,0.99994 -0.55224,-3.3e-5 -0.99991,-0.447702 -0.99994,-0.99994 -2.5e-4,-0.552439 0.4475,-1.000422 0.99994,-1.000455 z m 0,18.000453 c 0.55224,3.3e-5 0.99991,0.4477 0.99994,0.999937 -3e-5,0.552238 -0.4477,0.999907 -0.99994,0.99994 -0.55224,-3.3e-5 -0.99991,-0.447702 -0.99994,-0.99994 3e-5,-0.552237 0.4477,-0.999904 0.99994,-0.999937 z m -25.00003,2.499587 c 0.55224,3.3e-5 0.99991,0.447702 0.99994,0.99994 2.5e-4,0.552439 -0.4475,1.000423 -0.99994,1.000456 -0.55244,-3.9e-5 -1.00018,-0.448021 -0.99993,-1.000456 3e-5,-0.552234 0.4477,-0.999901 0.99993,-0.99994 z"
     id="rect1533"
     inkscape:connector-curvature="0"
     sodipodi:nodetypes="cccccccccccccccccccccccccccccccccc" />
</svg>
