<?xml version="1.0" encoding="UTF-8" standalone="no"?>
<svg
   xmlns:dc="http://purl.org/dc/elements/1.1/"
   xmlns:cc="http://creativecommons.org/ns#"
   xmlns:rdf="http://www.w3.org/1999/02/22-rdf-syntax-ns#"
   xmlns:svg="http://www.w3.org/2000/svg"
   xmlns="http://www.w3.org/2000/svg"
   id="svg1102"
   version="1.1"
   viewBox="0 0 210 297"
   height="297mm"
   width="210mm">
  <defs
     id="defs1096" />
  <metadata
     id="metadata1099">
    <rdf:RDF>
      <cc:Work
         rdf:about="">
        <dc:format>image/svg+xml</dc:format>
        <dc:type
           rdf:resource="http://purl.org/dc/dcmitype/StillImage" />
        <dc:title></dc:title>
      </cc:Work>
    </rdf:RDF>
  </metadata>
  <g
     id="layer1">
    <path
       style="fill:none;stroke:#000000;stroke-width:0.1;stroke-miterlimit:4;stroke-dasharray:none;stroke-opacity:1"
       d="m 142,140 h 28.99977 v -1.99988 h 3.00035 V 140 h 16.99998 v -12.00031 h -16.99998 v 2.00041 h -3.00035 v -2.00041 H 142 Z m 4.00027,-4.49998 v -2.99982 h 3.50005 v -2.00041 h 8.99996 v 7.00011 h -8.99996 v -1.99988 z m 14.9996,1.24952 a 1,1 0 0 1 1.00047,-0.99994 1,1 0 0 1 0.99994,0.99994 1,1 0 0 1 -0.99994,1.00047 1,1 0 0 1 -1.00047,-1.00047 z m 0,-5.49992 a 1,1 0 0 1 1.00047,-0.99994 1,1 0 0 1 0.99994,0.99994 1,1 0 0 1 -0.99994,0.99994 1,1 0 0 1 -1.00047,-0.99994 z m 22.99962,6.50039 a 1,1 0 0 1 1.00047,-0.99994 1,1 0 0 1 0.99994,0.99994 1,1 0 0 1 -0.99994,0.99994 1,1 0 0 1 -1.00047,-0.99994 z m 0,-7.4998 a 1,1 0 0 1 1.00047,-0.99994 1,1 0 0 1 0.99994,0.99994 1,1 0 0 1 -0.99994,0.99994 1,1 0 0 1 -1.00047,-0.99994 z m 4.00029,7.4998 a 1,1 0 0 1 0.99994,-0.99994 1,1 0 0 1 0.99994,0.99994 1,1 0 0 1 -0.99994,0.99994 1,1 0 0 1 -0.99994,-0.99994 z m 0,-7.4998 a 1,1 0 0 1 0.99994,-0.99994 1,1 0 0 1 0.99994,0.99994 1,1 0 0 1 -0.99994,0.99994 1,1 0 0 1 -0.99994,-0.99994 z"
       id="path1085" />
    <path
       id="path1655"
       d="m 142,127.99969 h 28.99977 v -1.99988 h 3.00035 v 1.99988 h 16.99998 v -12.00031 h -16.99998 v 2.00041 h -3.00035 v -2.00041 H 142 Z m 4.00027,-4.49998 v -2.99982 h 3.50005 v -2.00041 h 8.99996 v 7.00011 h -8.99996 v -1.99988 z m 14.9996,1.24952 a 1,1 0 0 1 1.00047,-0.99994 1,1 0 0 1 0.99994,0.99994 1,1 0 0 1 -0.99994,1.00047 1,1 0 0 1 -1.00047,-1.00047 z m 0,-5.49992 a 1,1 0 0 1 1.00047,-0.99994 1,1 0 0 1 0.99994,0.99994 1,1 0 0 1 -0.99994,0.99994 1,1 0 0 1 -1.00047,-0.99994 z m 22.99962,6.50039 a 1,1 0 0 1 1.00047,-0.99994 1,1 0 0 1 0.99994,0.99994 1,1 0 0 1 -0.99994,0.99994 1,1 0 0 1 -1.00047,-0.99994 z m 0,-7.4998 a 1,1 0 0 1 1.00047,-0.99994 1,1 0 0 1 0.99994,0.99994 1,1 0 0 1 -0.99994,0.99994 1,1 0 0 1 -1.00047,-0.99994 z m 4.00029,7.4998 a 1,1 0 0 1 0.99994,-0.99994 1,1 0 0 1 0.99994,0.99994 1,1 0 0 1 -0.99994,0.99994 1,1 0 0 1 -0.99994,-0.99994 z m 0,-7.4998 a 1,1 0 0 1 0.99994,-0.99994 1,1 0 0 1 0.99994,0.99994 1,1 0 0 1 -0.99994,0.99994 1,1 0 0 1 -0.99994,-0.99994 z"
       style="fill:none;stroke:#000000;stroke-width:0.1;stroke-miterlimit:4;stroke-dasharray:none;stroke-opacity:1" />
    <path
       id="path1657"
       d="m 141.99998,115.99968 h 28.99977 v -1.99988 h 3.00035 v 1.99988 h 16.99998 V 103.99937 H 174.0001 v 2.00041 h -3.00035 v -2.00041 h -28.99977 z m 4.00027,-4.49998 v -2.99982 h 3.50005 v -2.00041 h 8.99996 v 7.00011 h -8.99996 v -1.99988 z m 14.9996,1.24952 a 1,1 0 0 1 1.00047,-0.99994 1,1 0 0 1 0.99994,0.99994 1,1 0 0 1 -0.99994,1.00047 1,1 0 0 1 -1.00047,-1.00047 z m 0,-5.49992 a 1,1 0 0 1 1.00047,-0.99994 1,1 0 0 1 0.99994,0.99994 1,1 0 0 1 -0.99994,0.99994 1,1 0 0 1 -1.00047,-0.99994 z m 22.99962,6.50039 a 1,1 0 0 1 1.00047,-0.99994 1,1 0 0 1 0.99994,0.99994 1,1 0 0 1 -0.99994,0.99994 1,1 0 0 1 -1.00047,-0.99994 z m 0,-7.4998 a 1,1 0 0 1 1.00047,-0.99994 1,1 0 0 1 0.99994,0.99994 1,1 0 0 1 -0.99994,0.99994 1,1 0 0 1 -1.00047,-0.99994 z m 4.00029,7.4998 a 1,1 0 0 1 0.99994,-0.99994 1,1 0 0 1 0.99994,0.99994 1,1 0 0 1 -0.99994,0.99994 1,1 0 0 1 -0.99994,-0.99994 z m 0,-7.4998 a 1,1 0 0 1 0.99994,-0.99994 1,1 0 0 1 0.99994,0.99994 1,1 0 0 1 -0.99994,0.99994 1,1 0 0 1 -0.99994,-0.99994 z"
       style="fill:none;stroke:#000000;stroke-width:0.1;stroke-miterlimit:4;stroke-dasharray:none;stroke-opacity:1" />
    <path
       style="fill:none;stroke:#000000;stroke-width:0.1;stroke-miterlimit:4;stroke-dasharray:none;stroke-opacity:1"
       d="m 141.99998,103.99937 h 28.99977 v -1.99988 h 3.00035 v 1.99988 h 16.99998 V 91.99906 H 174.0001 v 2.00041 h -3.00035 v -2.00041 h -28.99977 z m 4.00027,-4.49998 v -2.99982 h 3.50005 v -2.00041 h 8.99996 v 7.00011 h -8.99996 v -1.99988 z m 14.9996,1.24952 a 1,1 0 0 1 1.00047,-0.99994 1,1 0 0 1 0.99994,0.99994 1,1 0 0 1 -0.99994,1.00047 1,1 0 0 1 -1.00047,-1.00047 z m 0,-5.49992 a 1,1 0 0 1 1.00047,-0.99994 1,1 0 0 1 0.99994,0.99994 1,1 0 0 1 -0.99994,0.99994 1,1 0 0 1 -1.00047,-0.99994 z m 22.99962,6.50039 a 1,1 0 0 1 1.00047,-0.99994 1,1 0 0 1 0.99994,0.99994 1,1 0 0 1 -0.99994,0.99994 1,1 0 0 1 -1.00047,-0.99994 z m 0,-7.4998 a 1,1 0 0 1 1.00047,-0.99994 1,1 0 0 1 0.99994,0.99994 1,1 0 0 1 -0.99994,0.99994 1,1 0 0 1 -1.00047,-0.99994 z m 4.00029,7.4998 a 1,1 0 0 1 0.99994,-0.99994 1,1 0 0 1 0.99994,0.99994 1,1 0 0 1 -0.99994,0.99994 1,1 0 0 1 -0.99994,-0.99994 z m 0,-7.4998 a 1,1 0 0 1 0.99994,-0.99994 1,1 0 0 1 0.99994,0.99994 1,1 0 0 1 -0.99994,0.99994 1,1 0 0 1 -0.99994,-0.99994 z"
       id="path1659" />
    <path
       id="circle926"
       d="M 142,62.000282 V 89.00019 92 h 45.99978 v -2.99981 h 5.3e-4 V 62.000282 Z m 29.00029,2.999817 c 0.55244,3.3e-5 1.0002,0.448017 0.99994,1.000456 v 1.050065 c 5.10981,0.513571 8.99993,4.814221 8.99998,9.949781 -0.005,5.131599 -3.89409,9.426269 -8.99998,9.939449 v 1.0604 c -2e-5,0.55224 -0.44769,0.9999 -0.99994,0.99994 -0.55244,2.5e-4 -1.00041,-0.44751 -1.00045,-0.99994 v -1.05058 c -4.35239,-0.44254 -7.91188,-3.66288 -8.78655,-7.94939 h -1.34255 c -0.65401,0.939372 -1.72602,1.499593 -2.87063,1.500167 -1.93303,3.9e-5 -3.50007,-1.567008 -3.50003,-3.500046 -4e-5,-1.933037 1.567,-3.500083 3.50003,-3.500045 1.14352,0.0016 2.21416,0.561694 2.86753,1.500168 h 1.33481 c 0.87967,-4.286173 4.44374,-7.50271 8.79739,-7.939569 v -1.0604 c -2.4e-4,-0.552639 0.44781,-1.000705 1.00045,-1.000456 z m -25.05006,2.050174 c 0.55224,3.4e-5 0.99991,0.447703 0.99994,0.99994 -3e-5,0.552237 -0.4477,0.999904 -0.99994,0.999939 -0.55224,-3.5e-5 -0.99991,-0.447702 -0.99993,-0.999939 2e-5,-0.552237 0.44769,-0.999906 0.99993,-0.99994 z m 0,17.999937 c 0.55224,3e-5 0.99991,0.4477 0.99994,0.99994 2.5e-4,0.55244 -0.4475,1.00042 -0.99994,1.00045 -0.55243,-3e-5 -1.0002,-0.44801 -0.99993,-1.00045 2e-5,-0.55224 0.44769,-0.99991 0.99993,-0.99994 z"
       style="fill:none;stroke:#000000;stroke-width:0.1;stroke-miterlimit:4;stroke-dasharray:none;stroke-opacity:1" />
    <path
       id="rect971"
       d="m 79.99977,139.94938 h -26.9999 -2.99981 v 46.00029 h 2.99981 26.9999 z m -2.99981,29.0003 c -4e-5,0.55224 -0.4477,0.99989 -0.99994,0.99994 -0.55244,2.5e-4 -1.00042,-0.4475 -1.00046,-0.99994 -2.5e-4,-0.55264 0.44782,-1.00071 1.00046,-1.00047 0.55244,5e-5 1.00019,0.44803 0.99994,1.00047 z m -2.05018,-25.04989 c -3e-5,0.55223 -0.4477,0.9999 -0.99994,0.99994 -0.55223,-4e-5 -0.9999,-0.44771 -0.99993,-0.99994 -2.6e-4,-0.55244 0.4475,-1.00043 0.99993,-1.00046 0.55244,3e-5 1.0002,0.44802 0.99994,1.00046 z m -2.95003,25.04989 c -2.4e-4,3.86585 -3.13423,6.99962 -7.00009,6.99956 -3.86586,6e-5 -6.99986,-3.13369 -7.00009,-6.99956 -5e-5,-3.86606 3.13402,-7.00014 7.00009,-7.00009 3.86606,-5e-5 7.00014,3.13403 7.00009,7.00009 z M 68.4997,154.94951 c 4e-5,1.93304 -1.56701,3.50007 -3.50004,3.50004 -1.93304,4e-5 -3.50009,-1.567 -3.50005,-3.50004 -4e-5,-1.93305 1.56701,-3.50009 3.50005,-3.50005 1.93304,-4e-5 3.50008,1.56701 3.50004,3.50005 z M 56.94978,143.89979 c -3e-5,0.55223 -0.4477,0.9999 -0.99993,0.99994 -0.55244,2.5e-4 -1.00043,-0.4475 -1.00046,-0.99994 -2.5e-4,-0.55264 0.44781,-1.00071 1.00046,-1.00046 0.55243,3e-5 1.00019,0.44802 0.99993,1.00046 z m -1.95003,25.04989 c -3e-5,0.55223 -0.4477,0.99989 -0.99994,0.99994 -0.55224,-5e-5 -0.9999,-0.44771 -0.99994,-0.99994 -2.5e-4,-0.55244 0.4475,-1.00042 0.99994,-1.00047 0.55244,5e-5 1.00019,0.44803 0.99994,1.00047 z"
       style="fill:none;stroke:#000000;stroke-width:0.1;stroke-miterlimit:4;stroke-dasharray:none;stroke-opacity:1" />
    <path
       id="path1483"
       d="m 10.999769,127.94938 v 2.99982 H 4.000196 v 24.00009 h 2.999817 v 2.99981 H 9.99983 v -2.99981 h 2.000395 v -2.26653 c -3.135237,-2.25157 -4.995984,-5.87383 -5.000212,-9.73378 9.5e-5,-6.62724 5.37252,-11.99967 11.999784,-11.99978 6.627466,-1.7e-4 12.000206,5.37234 12.000301,11.99978 -0.0059,3.85812 -1.866453,7.47811 -5.000211,9.72861 v 2.2717 h 3.000333 v 2.99981 h 7.999511 v -2.99981 H 49.99997 V 130.9492 l -13.049776,0.0501 v -2.99982 l -6.950035,-0.0501 h -3.000333 z m 22.000209,2.99982 c 0.552235,3e-5 0.999902,0.4477 0.999937,0.99994 -3.5e-5,0.55224 -0.447702,0.9999 -0.999937,0.99994 -0.552241,-4e-5 -0.999908,-0.4477 -0.999943,-0.99994 3.5e-5,-0.55224 0.447702,-0.99991 0.999943,-0.99994 z m -25.049721,2.05017 c 0.552237,4e-5 0.999905,0.4477 0.999939,0.99994 -3.4e-5,0.55224 -0.447702,0.99991 -0.999939,0.99994 -0.552237,-3e-5 -0.999905,-0.4477 -0.999939,-0.99994 3.4e-5,-0.55224 0.447702,-0.9999 0.999939,-0.99994 z m 25.049721,8.94967 c 0.552436,4e-5 1.000188,0.44802 0.999937,1.00046 -3.5e-5,0.55224 -0.447702,0.99991 -0.999937,0.99994 -0.552241,-3e-5 -0.999908,-0.4477 -0.999943,-0.99994 -2.51e-4,-0.55244 0.447501,-1.00042 0.999943,-1.00046 z m -25.049721,9.05033 c 0.552237,4e-5 0.999905,0.44771 0.999939,0.99994 2.52e-4,0.55244 -0.4475,1.00042 -0.999939,1.00046 -0.552439,-4e-5 -1.000191,-0.44802 -0.999939,-1.00046 3.4e-5,-0.55223 0.447702,-0.9999 0.999939,-0.99994 z m 25.049721,1.95004 c 0.552235,3e-5 0.999902,0.4477 0.999937,0.99994 -3.5e-5,0.55223 -0.447702,0.9999 -0.999937,0.99994 -0.552241,-4e-5 -0.999908,-0.44771 -0.999943,-0.99994 3.5e-5,-0.55224 0.447702,-0.99991 0.999943,-0.99994 z"
       style="fill:none;stroke:#000000;stroke-width:0.1;stroke-miterlimit:4;stroke-dasharray:none;stroke-opacity:1" />
    <path
       id="rect2329"
       d="M 96.00022,68.000129 V 104 H 142 V 68.000129 l -13.04984,0.05013 v 2.999817 l -6.95049,-0.05013 h -2.99981 -16.00006 v -2.999817 z m 1.99988,5.000212 a 0.99999993,0.99999993 0 0 1 0.99994,0.99994 0.99999993,0.99999993 0 0 1 -0.99994,0.999937 0.99999993,0.99999993 0 0 1 -0.99994,-0.999937 0.99999993,0.99999993 0 0 1 0.99994,-0.99994 z m 30.99966,5.999634 v 2.999816 h -0.99993 v 8.999969 h -5.99964 v -8.999969 l -19.05,0.05013 v -2.999817 z m -25.99996,20.00033 c 0.55244,-2.51e-4 1.00043,0.4475 1.00046,0.999945 -3e-5,0.55243 -0.44802,1.00018 -1.00046,0.99993 -0.55224,-3e-5 -0.9999,-0.4477 -0.99994,-0.99993 4e-5,-0.552243 0.4477,-0.999913 0.99994,-0.999945 z m 16.00006,0 c 0.55223,3.2e-5 0.9999,0.447702 0.99994,0.999945 -4e-5,0.55223 -0.44771,0.9999 -0.99994,0.99993 -0.55224,-3e-5 -0.99991,-0.4477 -0.99994,-0.99993 3e-5,-0.552243 0.4477,-0.999911 0.99994,-0.999945 z"
       style="fill:none;stroke:#000000;stroke-width:0.1;stroke-miterlimit:4;stroke-dasharray:none;stroke-opacity:1" />
    <path
       style="fill:none;stroke:#000000;stroke-width:0.1;stroke-miterlimit:4;stroke-dasharray:none;stroke-opacity:1"
       d="M 199.99971,140 H 172.99981 170 v 45.99978 h 2.99981 v 5.3e-4 h 26.9999 z m -2.99981,29.00029 c -4e-5,0.55244 -0.44802,1.0002 -1.00046,0.99994 h -1.05006 c -0.51357,5.10981 -4.81422,8.99993 -9.94978,8.99998 -5.13161,-0.005 -9.42628,-3.89409 -9.93945,-8.99998 h -1.0604 c -0.55224,-2e-5 -0.9999,-0.44769 -0.99994,-0.99994 -2.5e-4,-0.55244 0.4475,-1.00041 0.99994,-1.00045 h 1.05058 c 0.44254,-4.35239 3.66288,-7.91188 7.94939,-8.78655 v -1.34255 c -0.93937,-0.65401 -1.4996,-1.72602 -1.50017,-2.87063 -4e-5,-1.93303 1.56701,-3.50007 3.50005,-3.50003 1.93303,-4e-5 3.50008,1.567 3.50004,3.50003 -0.002,1.14352 -0.56169,2.21416 -1.50017,2.86753 v 1.33481 c 4.28618,0.87967 7.50271,4.44374 7.93957,8.79739 h 1.0604 c 0.55264,-2.4e-4 1.00071,0.44781 1.00046,1.00045 z m -2.05018,-25.05006 c -3e-5,0.55224 -0.4477,0.99991 -0.99994,0.99994 -0.55223,-3e-5 -0.9999,-0.4477 -0.99993,-0.99994 3e-5,-0.55224 0.4477,-0.99991 0.99993,-0.99993 0.55224,2e-5 0.99991,0.44769 0.99994,0.99993 z m -17.99993,0 c -4e-5,0.55224 -0.4477,0.99991 -0.99994,0.99994 -0.55244,2.5e-4 -1.00042,-0.4475 -1.00046,-0.99994 4e-5,-0.55243 0.44802,-1.00019 1.00046,-0.99993 0.55224,2e-5 0.9999,0.44769 0.99994,0.99993 z"
       id="path931" />
    <path
       style="fill:none;stroke:#000000;stroke-width:0.1;stroke-miterlimit:4;stroke-dasharray:none;stroke-opacity:1"
       d="m 139.99976,139.94938 h 26.9999 2.99981 v 45.99978 h -2.99981 v 5.3e-4 h -26.9999 z m 2.99982,29.0003 c 2e-5,0.55244 0.44801,1.00019 1.00045,0.99994 h 1.05006 c 0.51358,5.10981 4.81422,8.99992 9.94978,8.99997 5.13161,-0.005 9.42627,-3.89409 9.93946,-8.99997 h 1.0604 c 0.55223,-3e-5 0.9999,-0.4477 0.99993,-0.99994 2.5e-4,-0.55244 -0.44751,-1.00042 -0.99993,-1.00045 h -1.05059 c -0.44254,-4.3524 -3.66287,-7.91188 -7.94939,-8.78655 v -1.34255 c 0.93938,-0.65401 1.4996,-1.72602 1.50018,-2.87063 4e-5,-1.93304 -1.56702,-3.50008 -3.50006,-3.50004 -1.93303,-4e-5 -3.50008,1.567 -3.50004,3.50004 0.002,1.14352 0.5617,2.21415 1.50016,2.86753 v 1.3348 c -4.28617,0.87968 -7.5027,4.44375 -7.93956,8.7974 h -1.0604 c -0.55264,-2.5e-4 -1.00071,0.44781 -1.00045,1.00045 z m 2.05017,-25.05006 c 3e-5,0.55223 0.4477,0.9999 0.99993,0.99994 0.55225,-4e-5 0.99991,-0.44771 0.99994,-0.99994 -3e-5,-0.55224 -0.44769,-0.99991 -0.99994,-0.99994 -0.55223,3e-5 -0.9999,0.4477 -0.99993,0.99994 z m 17.99993,0 c 3e-5,0.55223 0.44771,0.9999 0.99994,0.99994 0.55244,2.5e-4 1.00043,-0.4475 1.00045,-0.99994 -2e-5,-0.55244 -0.44801,-1.00019 -1.00045,-0.99994 -0.55223,3e-5 -0.99991,0.4477 -0.99994,0.99994 z"
       id="path954" />
    <path
       style="fill:none;stroke:#000000;stroke-width:0.1;stroke-miterlimit:4;stroke-dasharray:none;stroke-opacity:1"
       d="m 79.99977,139.94938 h 26.9999 2.99982 v 46.0003 h -2.99982 -26.9999 z m 2.99981,29.0003 c 4e-5,0.55224 0.4477,0.99991 0.99994,0.99994 0.55244,2.5e-4 1.00042,-0.4475 1.00046,-0.99994 2.5e-4,-0.55264 -0.44782,-1.00071 -1.00046,-1.00046 -0.55244,4e-5 -1.00019,0.44802 -0.99994,1.00046 z m 2.05018,-25.04989 c 3e-5,0.55224 0.4477,0.9999 0.99994,0.99994 0.55223,-4e-5 0.9999,-0.4477 0.99993,-0.99994 2.6e-4,-0.55244 -0.44749,-1.00042 -0.99993,-1.00046 -0.55244,4e-5 -1.00019,0.44802 -0.99994,1.00046 z m 2.95003,25.04989 c 2.4e-4,3.86586 3.13423,6.99962 7.00009,6.99957 3.86586,5e-5 6.99986,-3.13371 7.00009,-6.99957 5e-5,-3.86606 -3.13402,-7.00014 -7.00009,-7.00009 -3.86606,-5e-5 -7.00013,3.13403 -7.00009,7.00009 z m 3.50005,-14.00018 c -4e-5,1.93304 1.56701,3.50009 3.50004,3.50004 1.93304,5e-5 3.50009,-1.567 3.50005,-3.50004 4e-5,-1.93304 -1.56701,-3.50009 -3.50005,-3.50004 -1.93304,-5e-5 -3.50008,1.567 -3.50004,3.50004 z m 11.54992,-11.04971 c 3e-5,0.55224 0.4477,0.9999 0.99993,0.99994 0.55244,2.5e-4 1.00043,-0.4475 1.00047,-0.99994 2.4e-4,-0.55264 -0.44781,-1.00071 -1.00047,-1.00046 -0.55243,4e-5 -1.00019,0.44802 -0.99993,1.00046 z m 1.95003,25.04989 c 3e-5,0.55224 0.4477,0.99991 0.99994,0.99994 0.55225,-3e-5 0.9999,-0.4477 0.99994,-0.99994 2.6e-4,-0.55244 -0.4475,-1.00042 -0.99994,-1.00046 -0.55244,4e-5 -1.00019,0.44802 -0.99994,1.00046 z"
       id="path956" />
    <path
       style="fill:none;stroke:#000000;stroke-width:0.1;stroke-miterlimit:4;stroke-dasharray:none;stroke-opacity:1"
       d="m 10.999699,187.9491 v -2.99982 h -6.99957 v -24.00009 h 2.99982 v -2.99981 h 2.99982 v 2.99981 h 2.00039 v 2.26653 c -3.13524,2.25157 -4.99598,5.87383 -5.00021,9.73378 9e-5,6.62724 5.37252,11.99966 11.99978,11.99978 6.62747,1.7e-4 12.00021,-5.37234 12.0003,-11.99978 -0.006,-3.85813 -1.86645,-7.47811 -5.00021,-9.72861 v -2.2717 h 3.00034 v -2.99981 h 7.999512 v 2.99981 H 49.99991 v 24.00009 l -13.04978,-0.0501 v 2.99982 l -6.950041,0.0501 h -3.00033 z m 22.00021,-2.99982 c 0.552241,-3e-5 0.99991,-0.4477 0.99994,-0.99994 -3e-5,-0.55224 -0.447699,-0.99991 -0.99994,-0.99994 -0.552239,3e-5 -0.9999,0.4477 -0.99994,0.99994 4e-5,0.55224 0.447701,0.99991 0.99994,0.99994 z M 7.950189,182.8991 c 0.55224,-3e-5 0.99991,-0.4477 0.99994,-0.99993 -3e-5,-0.55224 -0.4477,-0.99991 -0.99994,-0.99994 -0.55223,3e-5 -0.9999,0.4477 -0.99994,0.99994 4e-5,0.55223 0.44771,0.9999 0.99994,0.99993 z m 25.04972,-8.94967 c 0.552439,-3e-5 1.000191,-0.44801 0.99994,-1.00045 -3e-5,-0.55224 -0.447699,-0.99991 -0.99994,-0.99994 -0.552239,3e-5 -0.9999,0.4477 -0.99994,0.99994 -2.49e-4,0.55244 0.4475,1.00042 0.99994,1.00045 z m -25.04972,-9.05032 c 0.55224,-4e-5 0.99991,-0.44771 0.99994,-0.99994 2.5e-4,-0.55244 -0.4475,-1.00042 -0.99994,-1.00046 -0.55244,4e-5 -1.00019,0.44802 -0.99994,1.00046 4e-5,0.55223 0.44771,0.9999 0.99994,0.99994 z m 25.04972,-1.95004 c 0.552241,-3e-5 0.99991,-0.4477 0.99994,-0.99994 -3e-5,-0.55223 -0.447699,-0.9999 -0.99994,-0.99994 -0.552239,4e-5 -0.9999,0.44771 -0.99994,0.99994 4e-5,0.55224 0.447701,0.99991 0.99994,0.99994 z"
       id="path958" />
    <path
       style="fill:none;stroke:#000000;stroke-width:0.1;stroke-miterlimit:4;stroke-dasharray:none;stroke-opacity:1"
       d="m 95.99977,139.94938 v -35.99987 h 45.99978 v 35.99987 l -13.04984,-0.0501 v -2.99981 l -6.95048,0.0501 h -2.99982 -16.00005 v 2.99981 z m 1.99989,-5.00021 a 0.99999993,0.99999993 0 0 0 0.99994,-0.99994 0.99999993,0.99999993 0 0 0 -0.99994,-0.99994 0.99999993,0.99999993 0 0 0 -0.99995,0.99994 0.99999993,0.99999993 0 0 0 0.99995,0.99994 z m 30.99967,-5.99963 v -2.99982 h -0.99995 v -8.99997 h -5.99963 v 8.99997 l -19.05,-0.0501 v 2.99982 z m -25.99997,-20.00033 c 0.55244,2.5e-4 1.00042,-0.4475 1.00045,-0.99994 -3e-5,-0.55244 -0.44801,-1.00019 -1.00045,-0.99994 -0.55224,3e-5 -0.99991,0.4477 -0.99994,0.99994 3e-5,0.55224 0.4477,0.9999 0.99994,0.99994 z m 16.00005,0 c 0.55225,-4e-5 0.99992,-0.4477 0.99994,-0.99994 -2e-5,-0.55224 -0.44769,-0.99991 -0.99994,-0.99994 -0.55223,3e-5 -0.9999,0.4477 -0.99994,0.99994 4e-5,0.55224 0.44771,0.9999 0.99994,0.99994 z"
       id="path962" />
    <path
       id="path964"
       d="m 109.99976,139.94938 h 26.99991 2.99982 v 45.99977 h -2.99982 v 5.3e-4 h -26.99991 z m 2.99981,29.00029 c 4e-5,0.55244 0.44802,1.00019 1.00046,0.99994 h 1.05007 c 0.51358,5.10981 4.81423,8.99992 9.94978,8.99997 5.13161,-0.005 9.42629,-3.89409 9.93946,-8.99997 h 1.06039 c 0.55224,-3e-5 0.99992,-0.4477 0.99994,-0.99994 2.5e-4,-0.55244 -0.4475,-1.00042 -0.99994,-1.00045 h -1.05058 c -0.44254,-4.35239 -3.66287,-7.91187 -7.94939,-8.78654 v -1.34255 c 0.93937,-0.65401 1.4996,-1.72602 1.50018,-2.87063 3e-5,-1.93304 -1.56702,-3.50008 -3.50006,-3.50004 -1.93303,-4e-5 -3.50008,1.567 -3.50004,3.50004 0.002,1.14352 0.5617,2.21415 1.50017,2.86753 v 1.3348 c -4.28618,0.87968 -7.50272,4.44375 -7.93957,8.79739 h -1.06041 c -0.55263,-2.5e-4 -1.00071,0.44781 -1.00046,1.00045 z m 2.05018,-25.05005 c 3e-5,0.55223 0.44771,0.9999 0.99994,0.99994 0.55223,-4e-5 0.99991,-0.44771 0.99995,-0.99994 -4e-5,-0.55224 -0.44772,-0.99992 -0.99995,-0.99995 -0.55223,3e-5 -0.99991,0.44771 -0.99994,0.99995 z m 17.99994,0 c 4e-5,0.55223 0.44771,0.9999 0.99994,0.99994 0.55244,2.5e-4 1.00043,-0.4475 1.00047,-0.99994 -4e-5,-0.55244 -0.44803,-1.0002 -1.00047,-0.99995 -0.55223,3e-5 -0.9999,0.44771 -0.99994,0.99995 z"
       style="fill:none;stroke:#000000;stroke-width:0.1;stroke-miterlimit:4;stroke-dasharray:none;stroke-opacity:1" />
    <path
       style="fill:none;stroke:#000000;stroke-width:0.1;stroke-miterlimit:4;stroke-dasharray:none;stroke-opacity:1"
       d="m 10.999563,67.949566 v 2.999817 H 3.99999 v 24.000086 h 2.999817 v 2.999816 h 2.999817 v -2.999816 h 2.000395 V 92.682941 C 8.864782,90.431376 7.004036,86.809112 6.999807,82.949167 c 9.5e-5,-6.627245 5.37252,-11.99967 11.999784,-11.999784 6.627466,-1.71e-4 12.000205,5.372337 12.000303,11.999784 -0.0059,3.858121 -1.866455,7.478106 -5.000213,9.728605 v 2.271697 h 3.000333 v 2.999816 h 7.999511 V 94.949469 H 49.99977 V 70.949383 l -13.049783,0.05011 V 67.99968 l -6.950034,-0.05011 H 26.99962 Z m 22.000208,2.999817 c 0.552239,3.3e-5 0.999906,0.447702 0.999937,0.999939 -3.1e-5,0.552238 -0.447698,0.999906 -0.999937,0.999939 -0.552241,-3.3e-5 -0.999908,-0.447701 -0.99994,-0.999939 3.2e-5,-0.552237 0.447699,-0.999906 0.99994,-0.999939 z m -25.04972,2.050175 c 0.552237,3.3e-5 0.999905,0.447702 0.999939,0.999938 -3.4e-5,0.552237 -0.447702,0.999906 -0.999939,0.999939 -0.552237,-3.3e-5 -0.999905,-0.447702 -0.999939,-0.999939 3.4e-5,-0.552236 0.447702,-0.999905 0.999939,-0.999938 z m 25.04972,8.94967 c 0.55244,3.5e-5 1.000191,0.448017 0.999937,1.000456 -3.1e-5,0.552237 -0.447698,0.999905 -0.999937,0.999939 -0.552241,-3.4e-5 -0.999908,-0.447702 -0.99994,-0.999939 -2.54e-4,-0.552439 0.447498,-1.000421 0.99994,-1.000456 z m -25.04972,9.050328 c 0.552237,3.3e-5 0.999905,0.447703 0.999939,0.99994 2.52e-4,0.552438 -0.4475,1.000421 -0.999939,1.000455 -0.552439,-3.4e-5 -1.000191,-0.448017 -0.999939,-1.000455 3.4e-5,-0.552237 0.447702,-0.999907 0.999939,-0.99994 z m 25.04972,1.950035 c 0.552239,3.3e-5 0.999906,0.447702 0.999937,0.999939 -3.1e-5,0.552237 -0.447698,0.999907 -0.999937,0.999939 -0.552241,-3.2e-5 -0.999908,-0.447702 -0.99994,-0.999939 3.2e-5,-0.552237 0.447699,-0.999906 0.99994,-0.999939 z"
       id="path966" />
    <path
       id="path968"
       d="m 10.999557,127.94901 v -2.99982 h -6.99957 v -24.00008 h 2.99982 v -2.999825 h 2.99982 v 2.999825 h 2.00039 v 2.26652 c -3.13524,2.25157 -4.99598,5.87383 -5.00021,9.73378 9e-5,6.62724 5.37252,11.99967 11.999783,11.99978 6.627466,1.7e-4 12.000206,-5.37234 12.000302,-11.99978 -0.0059,-3.85813 -1.866454,-7.47811 -5.000212,-9.72861 v -2.27169 h 3.000333 v -2.999825 h 7.999512 v 2.999825 H 49.99977 v 24.00008 l -13.049783,-0.0501 v 2.99982 l -6.950035,0.0501 h -3.000333 z m 22.000212,-2.99982 c 0.552238,-3e-5 0.999905,-0.4477 0.999939,-0.99994 -3.4e-5,-0.55224 -0.447701,-0.99991 -0.999939,-0.99994 -0.552239,3e-5 -0.999906,0.4477 -0.99994,0.99994 3.4e-5,0.55224 0.447701,0.99991 0.99994,0.99994 z M 7.950047,122.89902 c 0.55224,-4e-5 0.99991,-0.44771 0.99994,-0.99994 -3e-5,-0.55224 -0.4477,-0.99991 -0.99994,-0.99994 -0.55223,3e-5 -0.9999,0.4477 -0.99994,0.99994 4e-5,0.55223 0.44771,0.9999 0.99994,0.99994 z m 25.049722,-8.94967 c 0.552439,-4e-5 1.000191,-0.44802 0.999939,-1.00046 -3.4e-5,-0.55224 -0.447701,-0.9999 -0.999939,-0.99994 -0.552239,4e-5 -0.999906,0.4477 -0.99994,0.99994 -2.52e-4,0.55244 0.4475,1.00042 0.99994,1.00046 z M 7.950047,104.89902 c 0.55224,-3e-5 0.99991,-0.4477 0.99994,-0.99994 2.5e-4,-0.55244 -0.4475,-1.00042 -0.99994,-1.00046 -0.55244,4e-5 -1.00019,0.44802 -0.99994,1.00046 4e-5,0.55224 0.44771,0.99991 0.99994,0.99994 z m 25.049722,-1.95004 c 0.552238,-3e-5 0.999905,-0.4477 0.999939,-0.99994 -3.4e-5,-0.55223 -0.447701,-0.9999 -0.999939,-0.99993 -0.552239,3e-5 -0.999906,0.4477 -0.99994,0.99993 3.4e-5,0.55224 0.447701,0.99991 0.99994,0.99994 z"
       style="fill:none;stroke:#000000;stroke-width:0.1;stroke-miterlimit:4;stroke-dasharray:none;stroke-opacity:1" />
    <path
       style="fill:none;stroke:#000000;stroke-width:0.1;stroke-miterlimit:4;stroke-dasharray:none;stroke-opacity:1"
       d="M 95.99931,139.94925 V 103.94938 H 92.9995 v 2.99982 h -2.99982 v -2.99982 H 70.99929 v 2.99982 h -7.99952 v -2.99982 H 49.99952 v 35.99987 z m -6.94996,-2.9502 c -0.55245,2.5e-4 -1.00042,-0.4475 -1.00047,-0.99994 5e-5,-0.55244 0.44802,-1.00019 1.00047,-0.99994 0.55223,4e-5 0.99988,0.4477 0.99994,0.99994 -3e-5,0.55224 -0.44771,0.99991 -0.99994,0.99994 z m -16.00007,0 c -0.55221,-3e-5 -0.99989,-0.4477 -0.99994,-0.99994 5e-5,-0.55224 0.44773,-0.9999 0.99994,-0.99994 0.55224,4e-5 0.99991,0.4477 0.99994,0.99994 -3e-5,0.55224 -0.4477,0.99991 -0.99994,0.99994 z m -17.04959,-5.54953 a 1.4999999,1.4999999 0 0 1 -1.50017,-1.50017 1.4999999,1.4999999 0 0 1 1.50017,-1.50017 1.4999999,1.4999999 0 0 1 1.50016,1.50017 1.4999999,1.4999999 0 0 1 -1.50016,1.50017 z m 13.99966,-4.50051 h -5.99964 v -8.99996 h -0.99994 v -2.99982 h 7.99952 v 2.99982 h -0.99994 z m 23.00015,-8.99996 h -2.99982 v -2.99982 h 2.99982 z m -36.99981,-4.49999 a 1.4999999,1.4999999 0 0 1 -1.50017,-1.49964 1.4999999,1.4999999 0 0 1 1.50017,-1.50018 1.4999999,1.4999999 0 0 1 1.50016,1.50018 1.4999999,1.4999999 0 0 1 -1.50016,1.49964 z m 38.04986,-2.44998 a 0.99999993,0.99999993 0 0 1 -0.99994,-0.99994 0.99999993,0.99999993 0 0 1 0.99994,-0.99994 0.99999993,0.99999993 0 0 1 0.99994,0.99994 0.99999993,0.99999993 0 0 1 -0.99994,0.99994 z"
       id="path1001" />
    <path
       id="path1003"
       d="M 49.99995,103.94926 V 67.949384 h 2.99982 v 2.99982 h 2.99982 v -2.99982 h 19.00039 v 2.99982 h 7.99952 v -2.99982 h 13.00025 v 35.999876 z m 6.94997,-2.95021 c 0.55245,2.5e-4 1.00041,-0.4475 1.00047,-0.99994 -6e-5,-0.552439 -0.44802,-1.000188 -1.00047,-0.99994 -0.55224,4e-5 -0.99989,0.447699 -0.99994,0.99994 3e-5,0.55224 0.4477,0.99991 0.99994,0.99994 z m 16.00007,0 c 0.55221,-3e-5 0.99988,-0.4477 0.99994,-0.99994 -6e-5,-0.552241 -0.44773,-0.9999 -0.99994,-0.99994 -0.55224,4e-5 -0.99992,0.447699 -0.99994,0.99994 2e-5,0.55224 0.4477,0.99991 0.99994,0.99994 z m 17.04959,-5.549532 a 1.4999999,1.4999999 0 0 0 1.50016,-1.500169 1.4999999,1.4999999 0 0 0 -1.50016,-1.500168 1.4999999,1.4999999 0 0 0 -1.50016,1.500168 1.4999999,1.4999999 0 0 0 1.50016,1.500169 z M 75.99992,90.949015 h 5.99964 v -8.999966 h 0.99994 v -2.999817 h -7.99952 v 2.999817 h 0.99994 z M 52.99977,81.949049 h 2.99982 v -2.999817 h -2.99982 z m 36.99981,-4.499986 a 1.4999999,1.4999999 0 0 0 1.50016,-1.499647 1.4999999,1.4999999 0 0 0 -1.50016,-1.500169 1.4999999,1.4999999 0 0 0 -1.50016,1.500169 1.4999999,1.4999999 0 0 0 1.50016,1.499647 z M 51.94972,74.999085 a 0.99999993,0.99999993 0 0 0 0.99994,-0.99994 0.99999993,0.99999993 0 0 0 -0.99994,-0.999941 0.99999993,0.99999993 0 0 0 -0.99994,0.999941 0.99999993,0.99999993 0 0 0 0.99994,0.99994 z"
       style="fill:none;stroke:#000000;stroke-width:0.1;stroke-miterlimit:4;stroke-dasharray:none;stroke-opacity:1" />
    <path
       id="path2624"
       d="m 191,90.999895 v 28.999775 h 1.99988 v 3.00035 H 191 V 140 h 12.00031 v -16.99998 h -2.00041 v -3.00035 h 2.00041 V 90.999895 Z m 4.49998,4.00027 h 2.99982 v 3.50005 h 2.00041 v 8.999965 h -7.00011 v -8.999965 h 1.99988 z m -1.24952,14.999605 a 1,1 0 0 1 0.99994,1.00047 1,1 0 0 1 -0.99994,0.99994 1,1 0 0 1 -1.00047,-0.99994 1,1 0 0 1 1.00047,-1.00047 z m 5.49992,0 a 1,1 0 0 1 0.99994,1.00047 1,1 0 0 1 -0.99994,0.99994 1,1 0 0 1 -0.99994,-0.99994 1,1 0 0 1 0.99994,-1.00047 z m -6.50039,22.99962 a 1,1 0 0 1 0.99994,1.00047 1,1 0 0 1 -0.99994,0.99994 1,1 0 0 1 -0.99994,-0.99994 1,1 0 0 1 0.99994,-1.00047 z m 7.4998,0 a 1,1 0 0 1 0.99994,1.00047 1,1 0 0 1 -0.99994,0.99994 1,1 0 0 1 -0.99994,-0.99994 1,1 0 0 1 0.99994,-1.00047 z m -7.4998,4.00029 a 1,1 0 0 1 0.99994,0.99994 1,1 0 0 1 -0.99994,0.99994 1,1 0 0 1 -0.99994,-0.99994 1,1 0 0 1 0.99994,-0.99994 z m 7.4998,0 a 1,1 0 0 1 0.99994,0.99994 1,1 0 0 1 -0.99994,0.99994 1,1 0 0 1 -0.99994,-0.99994 1,1 0 0 1 0.99994,-0.99994 z"
       style="fill:none;stroke:#000000;stroke-width:0.1;stroke-miterlimit:4;stroke-dasharray:none;stroke-opacity:1" />
  </g>
</svg>
