<?xml version="1.0" encoding="UTF-8" standalone="no"?>
<svg
   xmlns:dc="http://purl.org/dc/elements/1.1/"
   xmlns:cc="http://creativecommons.org/ns#"
   xmlns:rdf="http://www.w3.org/1999/02/22-rdf-syntax-ns#"
   xmlns:svg="http://www.w3.org/2000/svg"
   xmlns="http://www.w3.org/2000/svg"
   id="svg1108"
   version="1.1"
   viewBox="0 0 210 297"
   height="297mm"
   width="210mm">
  <defs
     id="defs1102" />
  <metadata
     id="metadata1105">
    <rdf:RDF>
      <cc:Work
         rdf:about="">
        <dc:format>image/svg+xml</dc:format>
        <dc:type
           rdf:resource="http://purl.org/dc/dcmitype/StillImage" />
        <dc:title></dc:title>
      </cc:Work>
    </rdf:RDF>
  </metadata>
  <g
     id="layer1">
    <path
       id="path2678"
       d="m 69.999993,86.00001 v 9.9999 H 78.00001 V 93.0001 h 2.49959 v 2.99981 h 7.00009 V 93.0001 h 2.5001 v 2.99981 h 8.00004 v -9.9999 h -8.00004 v 2.99981 h -2.5001 V 86.00001 H 80.4996 v 2.99981 h -2.49959 v -2.99981 z m 3.999747,2.64118 2.04224,1.17926 v 0.17983 h 0.94361 a 1,1 0 0 1 0.014,-5.29e-4 1,1 0 0 1 1.00045,0.99994 1,1 0 0 1 -1.00045,1.00046 h -0.95758 v 0.1788 l -2.04224,1.17926 -2.042763,-1.17926 v -2.35851 z m 19.99981,0 2.04276,1.17926 v 2.35851 l -2.04276,1.17926 -2.04224,-1.17926 v -0.1788 h -0.95758 a 1,1 0 0 1 -0.99994,-1.00046 1,1 0 0 1 0.99994,-0.99994 1,1 0 0 1 0.01,5.29e-4 h 0.94774 v -0.17983 z m -9.9999,0.85886 c 0.82814,1.9e-4 1.49947,0.6715 1.49965,1.49965 8e-5,0.82836 -0.6713,1.49998 -1.49965,1.50017 -0.82855,9e-5 -1.50025,-0.67161 -1.50017,-1.50017 1.9e-4,-0.82836 0.67181,-1.49974 1.50017,-1.49965 z"
       style="fill:none;stroke:#000000;stroke-width:0.1;stroke-miterlimit:4;stroke-dasharray:none;stroke-opacity:1" />
    <path
       id="path2684"
       d="M 69.999582,96.0001 V 106 H 77.9996 v -2.99982 h 2.4996 V 106 h 7.00008 v -2.99982 h 2.5001 V 106 h 8.00005 v -9.9999 h -8.00005 v 2.99982 h -2.5001 V 96.0001 H 80.4992 v 2.99982 H 77.9996 V 96.0001 Z m 13.999658,3.50004 c 0.82814,1.9e-4 1.49947,0.67151 1.49966,1.49965 8e-5,0.82836 -0.6713,1.49998 -1.49966,1.50017 -0.82854,9e-5 -1.50024,-0.67161 -1.50016,-1.50017 1.8e-4,-0.82836 0.6718,-1.49974 1.50016,-1.49965 z m -9.9999,0.50023 a 1,1 0 0 1 0.99994,0.99994 1,1 0 0 1 -0.99994,0.99994 1,1 0 0 1 -0.99994,-0.99994 1,1 0 0 1 0.99994,-0.99994 z m 2.99982,0 a 1,1 0 0 1 1.00044,0.99994 1,1 0 0 1 -1.00044,0.99994 1,1 0 0 1 -0.99994,-0.99994 1,1 0 0 1 0.99994,-0.99994 z m 14.00016,0 a 1,1 0 0 1 0.99994,0.99994 1,1 0 0 1 -0.99994,0.99994 1,1 0 0 1 -0.99994,-0.99994 1,1 0 0 1 0.99994,-0.99994 z m 2.99982,0 a 1,1 0 0 1 1.00047,0.99994 1,1 0 0 1 -1.00047,0.99994 1,1 0 0 1 -0.99994,-0.99994 1,1 0 0 1 0.99994,-0.99994 z"
       style="fill:none;stroke:#000000;stroke-width:0.1;stroke-miterlimit:4;stroke-dasharray:none;stroke-opacity:1" />
    <path
       id="path2704"
       d="m 112.9997,93 h -2.5001 v -5.49994 h -9.9999 V 93 h -2.5001 v 16.99998 h 2.5001 v 5.50045 h 9.9999 v -5.50045 h 2.5001 z m -2.5001,2.5001 v 12.00029 h -2.99982 v -3.00033 h -3.99975 v 3.00034 H 100.4997 V 95.5001 h 3.00032 v 3.00034 h 3.99976 V 95.5001 Z m -3.99975,-3.99976 a 1,1 0 0 1 -0.99994,0.99994 1,1 0 0 1 -0.99994,-0.99994 1,1 0 0 1 0.99994,-0.99994 1,1 0 0 1 0.99994,0.99994 z m 0,19.99981 a 1,1 0 0 1 -0.99994,1.00046 1,1 0 0 1 -0.99994,-1.00046 1,1 0 0 1 0.99994,-0.99993 1,1 0 0 1 0.99994,0.99993 z"
       style="fill:none;stroke:#000000;stroke-width:0.1;stroke-miterlimit:4;stroke-dasharray:none;stroke-opacity:1" />
    <path
       style="fill:none;stroke:#000000;stroke-width:0.1;stroke-miterlimit:4;stroke-dasharray:none;stroke-opacity:1"
       d="M 69.999601,106.0001 V 116 h 8.000019 v -2.99982 h 2.49959 V 116 h 7.00009 v -2.99982 h 2.5001 V 116 h 8.00004 v -9.9999 H 89.9994 v 2.99981 h -2.5001 v -2.99981 h -7.00009 v 2.99981 h -2.49959 v -2.99981 z m 13.999659,3.50004 c 0.82814,1.9e-4 1.49947,0.6715 1.49965,1.49965 8e-5,0.82836 -0.6713,1.49998 -1.49965,1.50017 -0.82855,9e-5 -1.50025,-0.67161 -1.50017,-1.50017 1.9e-4,-0.82836 0.67181,-1.49974 1.50017,-1.49965 z m -9.99991,0.50023 a 1,1 0 0 1 0.99994,0.99994 1,1 0 0 1 -0.99994,0.99994 1,1 0 0 1 -0.99994,-0.99994 1,1 0 0 1 0.99994,-0.99994 z m 2.99982,0 a 1,1 0 0 1 1.00045,0.99994 1,1 0 0 1 -1.00045,0.99994 1,1 0 0 1 -0.99994,-0.99994 1,1 0 0 1 0.99994,-0.99994 z m 14.00017,0 a 1,1 0 0 1 0.99994,0.99994 1,1 0 0 1 -0.99994,0.99994 1,1 0 0 1 -0.99994,-0.99994 1,1 0 0 1 0.99994,-0.99994 z m 2.99982,0 a 1,1 0 0 1 1.00046,0.99994 1,1 0 0 1 -1.00046,0.99994 1,1 0 0 1 -0.99994,-0.99994 1,1 0 0 1 0.99994,-0.99994 z"
       id="path2764" />
    <path
       id="path2767"
       d="m 57.999601,87 v 28.99977 h 1.99988 v 3.00035 h -1.99988 V 136.0001 H 69.99991 v -16.99998 h -2.000408 v -3.00035 H 69.99991 V 87 Z m 4.499981,4.00027 h 2.999819 v 3.50005 h 2.000411 v 8.99996 h -7.00011 v -8.99996 h 1.99988 z m -1.249522,14.9996 a 1,1 0 0 1 0.99994,1.00047 1,1 0 0 1 -0.99994,0.99994 1,1 0 0 1 -1.000469,-0.99994 1,1 0 0 1 1.000469,-1.00047 z m 5.49992,0 a 1,1 0 0 1 0.99994,1.00047 1,1 0 0 1 -0.99994,0.99994 1,1 0 0 1 -0.999939,-0.99994 1,1 0 0 1 0.999939,-1.00047 z m -6.500389,22.99962 a 1,1 0 0 1 0.99994,1.00047 1,1 0 0 1 -0.99994,0.99994 1,1 0 0 1 -0.999939,-0.99994 1,1 0 0 1 0.999939,-1.00047 z m 7.4998,0 a 1,1 0 0 1 0.99994,1.00047 1,1 0 0 1 -0.99994,0.99994 1,1 0 0 1 -0.99994,-0.99994 1,1 0 0 1 0.99994,-1.00047 z m -7.4998,4.00029 a 1,1 0 0 1 0.99994,0.99994 1,1 0 0 1 -0.99994,0.99994 1,1 0 0 1 -0.999939,-0.99994 1,1 0 0 1 0.999939,-0.99994 z m 7.4998,0 a 1,1 0 0 1 0.99994,0.99994 1,1 0 0 1 -0.99994,0.99994 1,1 0 0 1 -0.99994,-0.99994 1,1 0 0 1 0.99994,-0.99994 z"
       style="fill:none;stroke:#000000;stroke-width:0.1;stroke-miterlimit:4;stroke-dasharray:none;stroke-opacity:1" />
    <path
       style="fill:none;stroke:#000000;stroke-width:0.1;stroke-miterlimit:4;stroke-dasharray:none;stroke-opacity:1"
       d="m 57.999601,122 v -2.99982 h -3.99976 v -3.00032 h 4.00285 l -5.29e-4,-0.49972 a 1.5,1.5 0 0 1 -0.003,0 1.5,1.5 0 0 1 -1.49966,-1.50016 1.5,1.5 0 0 1 1.49956,-1.50016 v -0.49972 h -4.000251 v -2.99982 h 3.99975 v -3.00032 h -6.99855 v 4.49998 h -4.00029 c -1.38499,-3e-5 -2.49957,1.11509 -2.49957,2.5001 v 1.99988 c 0,1.38499 1.11458,2.50009 2.49957,2.50009 h 4.00029 v 4.49998 z m -9.9994,-7.00008 c -0.55246,2.4e-4 -1.00041,-0.44749 -1.00047,-0.99994 6e-5,-0.55241 0.44805,-1.0002 1.00047,-0.99994 0.55224,3e-5 0.99989,0.44773 0.99994,0.99994 -3e-5,0.55224 -0.4477,0.99991 -0.99994,0.99994 z"
       id="path2868" />
    <path
       style="fill:none;stroke:#000000;stroke-width:0.1;stroke-miterlimit:4;stroke-dasharray:none;stroke-opacity:1"
       d="m 50.999521,87 v 4.49998 h -4.00029 c -1.38502,2e-5 -2.49957,1.11508 -2.49957,2.5001 v 1.99988 c 0,1.38501 1.11455,2.50013 2.49957,2.5001 h 4.00029 v 4.49998 h 6.99955 v -2.99982 h -3.99976 V 96.9999 h 4.00029 v -0.49972 a 1.5,1.5 0 0 1 -1.49966,-1.50016 1.5,1.5 0 0 1 1.49759,-1.50016 l -5.29e-4,-0.49972 h -3.997161 v -2.99982 h 3.99976 V 87 Z m -2.99982,7.00008 c 0.55221,3e-5 0.99988,0.4477 0.99994,0.99994 -6e-5,0.55224 -0.4477,0.99991 -0.99994,0.99994 -0.55245,2.6e-4 -1.00044,-0.44749 -1.00047,-0.99994 5e-5,-0.55242 0.44802,-1.00018 1.00047,-0.99994 z"
       id="path2870" />
    <path
       style="fill:none;stroke:#000000;stroke-width:0.1;stroke-miterlimit:4;stroke-dasharray:none;stroke-opacity:1"
       d="m 123.50025,125.03713 a 10,10 0 0 0 -7.00009,-9.51725 v -3.4825 H 110.5 v 3.46284 a 10,10 0 0 0 -6.99956,9.53691 10,10 0 0 0 6.99956,9.51672 v 3.4835 h 6.00016 v -3.46334 a 10,10 0 0 0 7.00009,-9.53688 z m -5.00021,-5.99964 v 11.99978 h -2.99982 v -4.11758 a 2.7500001,2.7500001 0 0 1 -1.99987,0.86765 2.7500001,2.7500001 0 0 1 -1.99988,-0.86506 v 4.11499 h -3.00032 v -11.99978 h 3.00032 v 4.11705 a 2.7500001,2.7500001 0 0 1 1.99988,-0.86765 2.7500001,2.7500001 0 0 1 1.99987,0.86508 v -4.11448 z m -4.00028,-4.00029 a 1,1 0 0 1 -0.99994,0.99994 1,1 0 0 1 -0.99994,-0.99994 1,1 0 0 1 0.99994,-0.99994 1,1 0 0 1 0.99994,0.99994 z m 0,19.99983 a 1,1 0 0 1 -0.99994,1.00044 1,1 0 0 1 -0.99994,-1.00044 1,1 0 0 1 0.99994,-0.99994 1,1 0 0 1 0.99994,0.99994 z"
       id="path2872" />
    <path
       style="fill:none;stroke:#000000;stroke-width:0.1;stroke-miterlimit:4;stroke-dasharray:none;stroke-opacity:1"
       d="m 75.00058,116.00022 v 4.49998 H 73.0002 c -1.38499,0 -2.499599,1.11511 -2.499599,2.5001 v 1.99988 c 0,1.38501 1.114609,2.50013 2.499599,2.5001 h 2.00038 v 4.49998 H 93 v -4.49998 h 2.00041 c 1.38499,3e-5 2.49957,-1.11509 2.49957,-2.5001 v -1.99988 c 0,-1.38499 -1.11458,-2.5001 -2.49957,-2.5001 H 93 v -4.49998 z m 2.99982,2.99982 h 11.99978 v 3.00032 H 78.0004 Z m 5.99964,3.50004 a 1.5,1.5 0 0 1 1.50016,1.50016 1.5,1.5 0 0 1 -1.50016,1.50016 1.5,1.5 0 0 1 -1.49966,-1.50016 1.5,1.5 0 0 1 1.49966,-1.50016 z m -9.9994,0.50022 c 0.55224,3e-5 0.99991,0.4477 0.99994,0.99994 -5e-5,0.55221 -0.4477,0.99991 -0.99994,0.99994 -0.5524,2.6e-4 -1.00039,-0.44752 -1.00044,-0.99994 5e-5,-0.55245 0.44799,-1.00018 1.00044,-0.99994 z m 19.9993,0 c 0.55245,-2.4e-4 1.00042,0.44749 1.00047,0.99994 -5e-5,0.55242 -0.44805,1.0002 -1.00047,0.99994 -0.55224,-3e-5 -0.99989,-0.44773 -0.99994,-0.99994 3e-5,-0.55224 0.4477,-0.99991 0.99994,-0.99994 z m -16.00057,2.99982 h 12.00237 v 2.99982 H 77.99937 Z"
       id="path2874" />
    <path
       style="fill:none;stroke:#000000;stroke-width:0.1;stroke-miterlimit:4;stroke-dasharray:none;stroke-opacity:1"
       d="m 147.50041,86.00001 v 9.9999 h 8.00002 V 93.0001 h 2.49959 v 2.99981 h 7.00009 V 93.0001 h 2.5001 v 2.99981 h 8.00004 v -9.9999 h -8.00004 v 2.99981 h -2.5001 v -2.99981 h -7.00009 v 2.99981 h -2.49959 v -2.99981 z m 3.99975,2.64118 2.04224,1.17926 v 0.17983 h 0.94361 a 1,1 0 0 1 0.014,-5.29e-4 1,1 0 0 1 1.00045,0.99994 1,1 0 0 1 -1.00045,1.00046 h -0.95758 v 0.1788 l -2.04224,1.17926 -2.04277,-1.17926 v -2.35851 z m 19.99981,0 2.04276,1.17926 v 2.35851 l -2.04276,1.17926 -2.04224,-1.17926 v -0.1788 h -0.95758 a 1,1 0 0 1 -0.99994,-1.00046 1,1 0 0 1 0.99994,-0.99994 1,1 0 0 1 0.01,5.29e-4 h 0.94774 v -0.17983 z m -9.9999,0.85886 c 0.82814,1.9e-4 1.49947,0.6715 1.49965,1.49965 8e-5,0.82836 -0.6713,1.49998 -1.49965,1.50017 -0.82855,9e-5 -1.50025,-0.67161 -1.50017,-1.50017 1.9e-4,-0.82836 0.67181,-1.49974 1.50017,-1.49965 z"
       id="path1677" />
    <path
       style="fill:none;stroke:#000000;stroke-width:0.1;stroke-miterlimit:4;stroke-dasharray:none;stroke-opacity:1"
       d="M 147.5,96.0001 V 106 h 8.00002 v -2.99982 h 2.4996 V 106 h 7.00008 v -2.99982 h 2.5001 V 106 h 8.00005 v -9.9999 h -8.00005 v 2.99982 h -2.5001 V 96.0001 h -7.00008 v 2.99982 h -2.4996 V 96.0001 Z m 13.99966,3.50004 c 0.82814,1.9e-4 1.49947,0.67151 1.49966,1.49965 8e-5,0.82836 -0.6713,1.49998 -1.49966,1.50017 -0.82854,9e-5 -1.50024,-0.67161 -1.50016,-1.50017 1.8e-4,-0.82836 0.6718,-1.49974 1.50016,-1.49965 z m -9.9999,0.50023 a 1,1 0 0 1 0.99994,0.99994 1,1 0 0 1 -0.99994,0.99994 1,1 0 0 1 -0.99994,-0.99994 1,1 0 0 1 0.99994,-0.99994 z m 2.99982,0 a 1,1 0 0 1 1.00044,0.99994 1,1 0 0 1 -1.00044,0.99994 1,1 0 0 1 -0.99994,-0.99994 1,1 0 0 1 0.99994,-0.99994 z m 14.00016,0 a 1,1 0 0 1 0.99994,0.99994 1,1 0 0 1 -0.99994,0.99994 1,1 0 0 1 -0.99994,-0.99994 1,1 0 0 1 0.99994,-0.99994 z m 2.99982,0 a 1,1 0 0 1 1.00047,0.99994 1,1 0 0 1 -1.00047,0.99994 1,1 0 0 1 -0.99994,-0.99994 1,1 0 0 1 0.99994,-0.99994 z"
       id="path1679" />
    <path
       style="fill:none;stroke:#000000;stroke-width:0.1;stroke-miterlimit:4;stroke-dasharray:none;stroke-opacity:1"
       d="m 190.50012,93 h -2.5001 v -5.49994 h -9.9999 V 93 h -2.5001 v 16.99998 h 2.5001 v 5.50045 h 9.9999 v -5.50045 h 2.5001 z m -2.5001,2.5001 v 12.00029 h -2.99982 v -3.00033 h -3.99975 v 3.00034 h -3.00033 V 95.5001 h 3.00032 v 3.00034 h 3.99976 V 95.5001 Z m -3.99975,-3.99976 a 1,1 0 0 1 -0.99994,0.99994 1,1 0 0 1 -0.99994,-0.99994 1,1 0 0 1 0.99994,-0.99994 1,1 0 0 1 0.99994,0.99994 z m 0,19.99981 a 1,1 0 0 1 -0.99994,1.00046 1,1 0 0 1 -0.99994,-1.00046 1,1 0 0 1 0.99994,-0.99993 1,1 0 0 1 0.99994,0.99993 z"
       id="path1681" />
    <path
       id="path1683"
       d="M 147.50002,106.0001 V 116 h 8.00002 v -2.99982 h 2.49959 V 116 h 7.00009 v -2.99982 h 2.5001 V 116 h 8.00004 v -9.9999 h -8.00004 v 2.99981 h -2.5001 v -2.99981 h -7.00009 v 2.99981 h -2.49959 v -2.99981 z m 13.99966,3.50004 c 0.82814,1.9e-4 1.49947,0.6715 1.49965,1.49965 8e-5,0.82836 -0.6713,1.49998 -1.49965,1.50017 -0.82855,9e-5 -1.50025,-0.67161 -1.50017,-1.50017 1.9e-4,-0.82836 0.67181,-1.49974 1.50017,-1.49965 z m -9.99991,0.50023 a 1,1 0 0 1 0.99994,0.99994 1,1 0 0 1 -0.99994,0.99994 1,1 0 0 1 -0.99994,-0.99994 1,1 0 0 1 0.99994,-0.99994 z m 2.99982,0 a 1,1 0 0 1 1.00045,0.99994 1,1 0 0 1 -1.00045,0.99994 1,1 0 0 1 -0.99994,-0.99994 1,1 0 0 1 0.99994,-0.99994 z m 14.00017,0 a 1,1 0 0 1 0.99994,0.99994 1,1 0 0 1 -0.99994,0.99994 1,1 0 0 1 -0.99994,-0.99994 1,1 0 0 1 0.99994,-0.99994 z m 2.99982,0 a 1,1 0 0 1 1.00046,0.99994 1,1 0 0 1 -1.00046,0.99994 1,1 0 0 1 -0.99994,-0.99994 1,1 0 0 1 0.99994,-0.99994 z"
       style="fill:none;stroke:#000000;stroke-width:0.1;stroke-miterlimit:4;stroke-dasharray:none;stroke-opacity:1" />
    <path
       style="fill:none;stroke:#000000;stroke-width:0.1;stroke-miterlimit:4;stroke-dasharray:none;stroke-opacity:1"
       d="m 135.50002,87 v 28.99977 h 1.99988 v 3.00035 h -1.99988 v 16.99998 h 12.00031 v -16.99998 h -2.00041 v -3.00035 h 2.00041 V 87 Z M 140,91.00027 h 2.99982 v 3.50005 h 2.00041 v 8.99996 h -7.00011 V 94.50032 H 140 Z m -1.24952,14.9996 a 1,1 0 0 1 0.99994,1.00047 1,1 0 0 1 -0.99994,0.99994 1,1 0 0 1 -1.00047,-0.99994 1,1 0 0 1 1.00047,-1.00047 z m 5.49992,0 a 1,1 0 0 1 0.99994,1.00047 1,1 0 0 1 -0.99994,0.99994 1,1 0 0 1 -0.99994,-0.99994 1,1 0 0 1 0.99994,-1.00047 z m -6.50039,22.99962 a 1,1 0 0 1 0.99994,1.00047 1,1 0 0 1 -0.99994,0.99994 1,1 0 0 1 -0.99994,-0.99994 1,1 0 0 1 0.99994,-1.00047 z m 7.4998,0 a 1,1 0 0 1 0.99994,1.00047 1,1 0 0 1 -0.99994,0.99994 1,1 0 0 1 -0.99994,-0.99994 1,1 0 0 1 0.99994,-1.00047 z m -7.4998,4.00029 a 1,1 0 0 1 0.99994,0.99994 1,1 0 0 1 -0.99994,0.99994 1,1 0 0 1 -0.99994,-0.99994 1,1 0 0 1 0.99994,-0.99994 z m 7.4998,0 a 1,1 0 0 1 0.99994,0.99994 1,1 0 0 1 -0.99994,0.99994 1,1 0 0 1 -0.99994,-0.99994 1,1 0 0 1 0.99994,-0.99994 z"
       id="path1685" />
    <path
       id="path1687"
       d="m 135.50002,122 v -2.99982 h -3.99976 v -3.00032 h 4.00285 l -5.3e-4,-0.49972 a 1.5,1.5 0 0 1 -0.003,0 1.5,1.5 0 0 1 -1.49966,-1.50016 1.5,1.5 0 0 1 1.49956,-1.50016 v -0.49972 h -4.00025 v -2.99982 h 3.99975 v -3.00032 h -6.99855 v 4.49998 h -4.00029 c -1.38499,-3e-5 -2.49957,1.11509 -2.49957,2.5001 v 1.99988 c 0,1.38499 1.11458,2.50009 2.49957,2.50009 h 4.00029 v 4.49998 z m -9.9994,-7.00008 c -0.55246,2.4e-4 -1.00041,-0.44749 -1.00047,-0.99994 6e-5,-0.55241 0.44805,-1.0002 1.00047,-0.99994 0.55224,3e-5 0.99989,0.44773 0.99994,0.99994 -3e-5,0.55224 -0.4477,0.99991 -0.99994,0.99994 z"
       style="fill:none;stroke:#000000;stroke-width:0.1;stroke-miterlimit:4;stroke-dasharray:none;stroke-opacity:1" />
    <path
       id="path1689"
       d="m 128.49994,87 v 4.49998 h -4.00029 c -1.38502,2e-5 -2.49957,1.11508 -2.49957,2.5001 v 1.99988 c 0,1.38501 1.11455,2.50013 2.49957,2.5001 h 4.00029 v 4.49998 h 6.99955 v -2.99982 h -3.99976 V 96.9999 h 4.00029 v -0.49972 a 1.5,1.5 0 0 1 -1.49966,-1.50016 1.5,1.5 0 0 1 1.49759,-1.50016 l -5.3e-4,-0.49972 h -3.99716 v -2.99982 h 3.99976 V 87 Z m -2.99982,7.00008 c 0.55221,3e-5 0.99988,0.4477 0.99994,0.99994 -6e-5,0.55224 -0.4477,0.99991 -0.99994,0.99994 -0.55245,2.6e-4 -1.00044,-0.44749 -1.00047,-0.99994 5e-5,-0.55242 0.44802,-1.00018 1.00047,-0.99994 z"
       style="fill:none;stroke:#000000;stroke-width:0.1;stroke-miterlimit:4;stroke-dasharray:none;stroke-opacity:1" />
    <path
       id="path1691"
       d="m 201.00067,125.03713 a 10,10 0 0 0 -7.00009,-9.51725 v -3.4825 h -6.00016 v 3.46284 a 10,10 0 0 0 -6.99956,9.53691 10,10 0 0 0 6.99956,9.51672 v 3.4835 h 6.00016 v -3.46334 a 10,10 0 0 0 7.00009,-9.53688 z m -5.00021,-5.99964 v 11.99978 h -2.99982 v -4.11758 a 2.7500001,2.7500001 0 0 1 -1.99987,0.86765 2.7500001,2.7500001 0 0 1 -1.99988,-0.86506 v 4.11499 h -3.00032 v -11.99978 h 3.00032 v 4.11705 a 2.7500001,2.7500001 0 0 1 1.99988,-0.86765 2.7500001,2.7500001 0 0 1 1.99987,0.86508 v -4.11448 z m -4.00028,-4.00029 a 1,1 0 0 1 -0.99994,0.99994 1,1 0 0 1 -0.99994,-0.99994 1,1 0 0 1 0.99994,-0.99994 1,1 0 0 1 0.99994,0.99994 z m 0,19.99983 a 1,1 0 0 1 -0.99994,1.00044 1,1 0 0 1 -0.99994,-1.00044 1,1 0 0 1 0.99994,-0.99994 1,1 0 0 1 0.99994,0.99994 z"
       style="fill:none;stroke:#000000;stroke-width:0.1;stroke-miterlimit:4;stroke-dasharray:none;stroke-opacity:1" />
    <path
       id="path1693"
       d="m 152.501,116.00022 v 4.49998 h -2.00038 c -1.38499,0 -2.4996,1.11511 -2.4996,2.5001 v 1.99988 c 0,1.38501 1.11461,2.50013 2.4996,2.5001 h 2.00038 v 4.49998 h 17.99942 v -4.49998 h 2.00041 c 1.38499,3e-5 2.49957,-1.11509 2.49957,-2.5001 v -1.99988 c 0,-1.38499 -1.11458,-2.5001 -2.49957,-2.5001 h -2.00041 v -4.49998 z m 2.99982,2.99982 h 11.99978 v 3.00032 h -11.99978 z m 5.99964,3.50004 a 1.5,1.5 0 0 1 1.50016,1.50016 1.5,1.5 0 0 1 -1.50016,1.50016 1.5,1.5 0 0 1 -1.49966,-1.50016 1.5,1.5 0 0 1 1.49966,-1.50016 z m -9.9994,0.50022 c 0.55224,3e-5 0.99991,0.4477 0.99994,0.99994 -5e-5,0.55221 -0.4477,0.99991 -0.99994,0.99994 -0.5524,2.6e-4 -1.00039,-0.44752 -1.00044,-0.99994 5e-5,-0.55245 0.44799,-1.00018 1.00044,-0.99994 z m 19.9993,0 c 0.55245,-2.4e-4 1.00042,0.44749 1.00047,0.99994 -5e-5,0.55242 -0.44805,1.0002 -1.00047,0.99994 -0.55224,-3e-5 -0.99989,-0.44773 -0.99994,-0.99994 3e-5,-0.55224 0.4477,-0.99991 0.99994,-0.99994 z m -16.00057,2.99982 h 12.00237 v 2.99982 h -12.00237 z"
       style="fill:none;stroke:#000000;stroke-width:0.1;stroke-miterlimit:4;stroke-dasharray:none;stroke-opacity:1" />
    <path
       style="fill:none;stroke:#000000;stroke-width:0.1;stroke-miterlimit:4;stroke-dasharray:none;stroke-opacity:1"
       d="m 175.50042,86 v -9.9999 h -8.00002 v 2.99981 h -2.49959 V 76.0001 h -7.00009 v 2.99981 h -2.5001 V 76.0001 h -8.00004 V 86 h 8.00004 v -2.99981 h 2.5001 V 86 h 7.00009 v -2.99981 h 2.49959 V 86 Z m -3.99975,-2.64118 -2.04224,-1.17926 v -0.17983 h -0.94361 a 1,1 0 0 1 -0.014,5.29e-4 1,1 0 0 1 -1.00045,-0.99994 1,1 0 0 1 1.00045,-1.00046 h 0.95758 v -0.1788 l 2.04224,-1.17926 2.04276,1.17926 v 2.35851 z m -19.99981,0 -2.04276,-1.17926 v -2.35851 l 2.04276,-1.17926 2.04224,1.17926 v 0.1788 h 0.95758 a 1,1 0 0 1 0.99994,1.00046 1,1 0 0 1 -0.99994,0.99994 1,1 0 0 1 -0.01,-5.29e-4 h -0.94774 v 0.17983 z m 9.9999,-0.85886 c -0.82814,-1.9e-4 -1.49947,-0.6715 -1.49965,-1.49965 -8e-5,-0.82836 0.6713,-1.49998 1.49965,-1.50017 0.82855,-9e-5 1.50025,0.67161 1.50017,1.50017 -1.9e-4,0.82836 -0.67181,1.49974 -1.50017,1.49965 z"
       id="path1695" />
    <path
       style="fill:none;stroke:#000000;stroke-width:0.1;stroke-miterlimit:4;stroke-dasharray:none;stroke-opacity:1"
       d="m 175.50083,75.99991 v -9.9999 h -8.00002 v 2.99982 h -2.4996 v -2.99982 h -7.00008 v 2.99982 h -2.5001 v -2.99982 h -8.00005 v 9.9999 h 8.00005 v -2.99982 h 2.5001 v 2.99982 h 7.00008 v -2.99982 h 2.4996 v 2.99982 z m -13.99966,-3.50004 c -0.82814,-1.9e-4 -1.49947,-0.67151 -1.49966,-1.49965 -8e-5,-0.82836 0.6713,-1.49998 1.49966,-1.50017 0.82854,-9e-5 1.50024,0.67161 1.50016,1.50017 -1.8e-4,0.82836 -0.6718,1.49974 -1.50016,1.49965 z m 9.9999,-0.50023 a 1,1 0 0 1 -0.99994,-0.99994 1,1 0 0 1 0.99994,-0.99994 1,1 0 0 1 0.99994,0.99994 1,1 0 0 1 -0.99994,0.99994 z m -2.99982,0 a 1,1 0 0 1 -1.00044,-0.99994 1,1 0 0 1 1.00044,-0.99994 1,1 0 0 1 0.99994,0.99994 1,1 0 0 1 -0.99994,0.99994 z m -14.00016,0 a 1,1 0 0 1 -0.99994,-0.99994 1,1 0 0 1 0.99994,-0.99994 1,1 0 0 1 0.99994,0.99994 1,1 0 0 1 -0.99994,0.99994 z m -2.99982,0 a 1,1 0 0 1 -1.00047,-0.99994 1,1 0 0 1 1.00047,-0.99994 1,1 0 0 1 0.99994,0.99994 1,1 0 0 1 -0.99994,0.99994 z"
       id="path1697" />
    <path
       style="fill:none;stroke:#000000;stroke-width:0.1;stroke-miterlimit:4;stroke-dasharray:none;stroke-opacity:1"
       d="m 132.50071,79.00001 h 2.5001 v 5.49994 h 9.9999 v -5.49994 h 2.5001 V 62.00003 h -2.5001 v -5.50045 h -9.9999 v 5.50045 h -2.5001 z m 2.5001,-2.5001 V 64.49962 h 2.99982 v 3.00033 h 3.99975 v -3.00034 h 3.00033 v 12.0003 h -3.00032 v -3.00034 h -3.99976 v 3.00034 z m 3.99975,3.99976 a 1,1 0 0 1 0.99994,-0.99994 1,1 0 0 1 0.99994,0.99994 1,1 0 0 1 -0.99994,0.99994 1,1 0 0 1 -0.99994,-0.99994 z m 0,-19.99981 a 1,1 0 0 1 0.99994,-1.00046 1,1 0 0 1 0.99994,1.00046 1,1 0 0 1 -0.99994,0.99993 1,1 0 0 1 -0.99994,-0.99993 z"
       id="path1699" />
    <path
       id="path1701"
       d="m 175.50081,65.99991 v -9.9999 h -8.00002 v 2.99982 h -2.49959 v -2.99982 h -7.00009 v 2.99982 h -2.5001 v -2.99982 h -8.00004 v 9.9999 h 8.00004 V 63.0001 h 2.5001 v 2.99981 h 7.00009 V 63.0001 h 2.49959 v 2.99981 z m -13.99966,-3.50004 c -0.82814,-1.9e-4 -1.49947,-0.6715 -1.49965,-1.49965 -8e-5,-0.82836 0.6713,-1.49998 1.49965,-1.50017 0.82855,-9e-5 1.50025,0.67161 1.50017,1.50017 -1.9e-4,0.82836 -0.67181,1.49974 -1.50017,1.49965 z m 9.99991,-0.50023 a 1,1 0 0 1 -0.99994,-0.99994 1,1 0 0 1 0.99994,-0.99994 1,1 0 0 1 0.99994,0.99994 1,1 0 0 1 -0.99994,0.99994 z m -2.99982,0 a 1,1 0 0 1 -1.00045,-0.99994 1,1 0 0 1 1.00045,-0.99994 1,1 0 0 1 0.99994,0.99994 1,1 0 0 1 -0.99994,0.99994 z m -14.00017,0 a 1,1 0 0 1 -0.99994,-0.99994 1,1 0 0 1 0.99994,-0.99994 1,1 0 0 1 0.99994,0.99994 1,1 0 0 1 -0.99994,0.99994 z m -2.99982,0 a 1,1 0 0 1 -1.00046,-0.99994 1,1 0 0 1 1.00046,-0.99994 1,1 0 0 1 0.99994,0.99994 1,1 0 0 1 -0.99994,0.99994 z"
       style="fill:none;stroke:#000000;stroke-width:0.1;stroke-miterlimit:4;stroke-dasharray:none;stroke-opacity:1" />
    <path
       style="fill:none;stroke:#000000;stroke-width:0.1;stroke-miterlimit:4;stroke-dasharray:none;stroke-opacity:1"
       d="M 187.50081,85.00001 V 56.00024 h -1.99988 v -3.00035 h 1.99988 V 35.99991 H 175.5005 v 16.99998 h 2.00041 v 3.00035 h -2.00041 v 28.99977 z m -4.49998,-4.00027 h -2.99982 v -3.50005 h -2.00041 v -8.99996 h 7.00011 v 8.99996 h -1.99988 z m 1.24952,-14.9996 a 1,1 0 0 1 -0.99994,-1.00047 1,1 0 0 1 0.99994,-0.99994 1,1 0 0 1 1.00047,0.99994 1,1 0 0 1 -1.00047,1.00047 z m -5.49992,0 a 1,1 0 0 1 -0.99994,-1.00047 1,1 0 0 1 0.99994,-0.99994 1,1 0 0 1 0.99994,0.99994 1,1 0 0 1 -0.99994,1.00047 z m 6.50039,-22.99962 a 1,1 0 0 1 -0.99994,-1.00047 1,1 0 0 1 0.99994,-0.99994 1,1 0 0 1 0.99994,0.99994 1,1 0 0 1 -0.99994,1.00047 z m -7.4998,0 a 1,1 0 0 1 -0.99994,-1.00047 1,1 0 0 1 0.99994,-0.99994 1,1 0 0 1 0.99994,0.99994 1,1 0 0 1 -0.99994,1.00047 z m 7.4998,-4.00029 a 1,1 0 0 1 -0.99994,-0.99994 1,1 0 0 1 0.99994,-0.99994 1,1 0 0 1 0.99994,0.99994 1,1 0 0 1 -0.99994,0.99994 z m -7.4998,0 a 1,1 0 0 1 -0.99994,-0.99994 1,1 0 0 1 0.99994,-0.99994 1,1 0 0 1 0.99994,0.99994 1,1 0 0 1 -0.99994,0.99994 z"
       id="path1703" />
    <path
       id="path1705"
       d="m 187.50081,50.00001 v 2.99982 h 3.99976 v 3.00032 h -4.00285 l 5.3e-4,0.49972 a 1.5,1.5 0 0 1 0.003,0 1.5,1.5 0 0 1 1.49966,1.50016 1.5,1.5 0 0 1 -1.49956,1.50016 v 0.49972 h 4.00025 v 2.99982 h -3.99975 v 3.00032 h 6.99855 v -4.49998 h 4.00029 c 1.38499,3e-5 2.49957,-1.11509 2.49957,-2.5001 v -1.99988 c 0,-1.38499 -1.11458,-2.50009 -2.49957,-2.50009 h -4.00029 v -4.49998 z m 9.9994,7.00008 c 0.55246,-2.4e-4 1.00041,0.44749 1.00047,0.99994 -6e-5,0.55241 -0.44805,1.0002 -1.00047,0.99994 -0.55224,-3e-5 -0.99989,-0.44773 -0.99994,-0.99994 3e-5,-0.55224 0.4477,-0.99991 0.99994,-0.99994 z"
       style="fill:none;stroke:#000000;stroke-width:0.1;stroke-miterlimit:4;stroke-dasharray:none;stroke-opacity:1" />
    <path
       id="path1707"
       d="m 194.50089,85.00001 v -4.49998 h 4.00029 c 1.38502,-2e-5 2.49957,-1.11508 2.49957,-2.5001 v -1.99988 c 0,-1.38501 -1.11455,-2.50013 -2.49957,-2.5001 h -4.00029 v -4.49998 h -6.99955 v 2.99982 h 3.99976 v 3.00032 h -4.00029 v 0.49972 a 1.5,1.5 0 0 1 1.49966,1.50016 1.5,1.5 0 0 1 -1.49759,1.50016 l 5.3e-4,0.49972 h 3.99716 v 2.99982 h -3.99976 v 3.00032 z m 2.99982,-7.00008 c -0.55221,-3e-5 -0.99988,-0.4477 -0.99994,-0.99994 6e-5,-0.55224 0.4477,-0.99991 0.99994,-0.99994 0.55245,-2.6e-4 1.00044,0.44749 1.00047,0.99994 -5e-5,0.55242 -0.44802,1.00018 -1.00047,0.99994 z"
       style="fill:none;stroke:#000000;stroke-width:0.1;stroke-miterlimit:4;stroke-dasharray:none;stroke-opacity:1" />
    <path
       id="path1709"
       d="m 122.00016,46.96288 a 10,10 0 0 0 7.00009,9.51725 v 3.4825 h 6.00016 v -3.46284 a 10,10 0 0 0 6.99956,-9.53691 10,10 0 0 0 -6.99956,-9.51672 v -3.4835 h -6.00016 V 37.426 a 10,10 0 0 0 -7.00009,9.53688 z m 5.00021,5.99964 V 40.96274 h 2.99982 v 4.11758 a 2.7500001,2.7500001 0 0 1 1.99987,-0.86765 2.7500001,2.7500001 0 0 1 1.99988,0.86506 v -4.11499 h 3.00032 v 11.99978 h -3.00032 v -4.11705 a 2.7500001,2.7500001 0 0 1 -1.99988,0.86765 2.7500001,2.7500001 0 0 1 -1.99987,-0.86508 v 4.11448 z m 4.00028,4.00029 a 1,1 0 0 1 0.99994,-0.99994 1,1 0 0 1 0.99994,0.99994 1,1 0 0 1 -0.99994,0.99994 1,1 0 0 1 -0.99994,-0.99994 z m 0,-19.99983 a 1,1 0 0 1 0.99994,-1.00044 1,1 0 0 1 0.99994,1.00044 1,1 0 0 1 -0.99994,0.99994 1,1 0 0 1 -0.99994,-0.99994 z"
       style="fill:none;stroke:#000000;stroke-width:0.1;stroke-miterlimit:4;stroke-dasharray:none;stroke-opacity:1" />
    <path
       id="path1711"
       d="m 170.49983,55.99979 v -4.49998 h 2.00038 c 1.38499,0 2.4996,-1.11511 2.4996,-2.5001 v -1.99988 c 0,-1.38501 -1.11461,-2.50013 -2.4996,-2.5001 h -2.00038 v -4.49998 h -17.99942 v 4.49998 H 150.5 c -1.38499,-3e-5 -2.49957,1.11509 -2.49957,2.5001 v 1.99988 c 0,1.38499 1.11458,2.5001 2.49957,2.5001 h 2.00041 v 4.49998 z m -2.99982,-2.99982 h -11.99978 v -3.00032 h 11.99978 z m -5.99964,-3.50004 a 1.5,1.5 0 0 1 -1.50016,-1.50016 1.5,1.5 0 0 1 1.50016,-1.50016 1.5,1.5 0 0 1 1.49966,1.50016 1.5,1.5 0 0 1 -1.49966,1.50016 z m 9.9994,-0.50022 c -0.55224,-3e-5 -0.99991,-0.4477 -0.99994,-0.99994 5e-5,-0.55221 0.4477,-0.99991 0.99994,-0.99994 0.5524,-2.6e-4 1.00039,0.44752 1.00044,0.99994 -5e-5,0.55245 -0.44799,1.00018 -1.00044,0.99994 z m -19.9993,0 c -0.55245,2.4e-4 -1.00042,-0.44749 -1.00047,-0.99994 5e-5,-0.55242 0.44805,-1.0002 1.00047,-0.99994 0.55224,3e-5 0.99989,0.44773 0.99994,0.99994 -3e-5,0.55224 -0.4477,0.99991 -0.99994,0.99994 z m 16.00057,-2.99982 h -12.00237 v -2.99982 h 12.00237 z"
       style="fill:none;stroke:#000000;stroke-width:0.1;stroke-miterlimit:4;stroke-dasharray:none;stroke-opacity:1" />
    <path
       id="path1713"
       d="m 98,86 v -9.9999 h -8.00002 v 2.99981 H 87.50039 V 76.0001 H 80.5003 v 2.99981 H 78.0002 V 76.0001 H 70.00016 V 86 h 8.00004 v -2.99981 h 2.5001 V 86 h 7.00009 v -2.99981 h 2.49959 V 86 Z M 94.00025,83.35882 91.95801,82.17956 V 81.99973 H 91.0144 a 1,1 0 0 1 -0.014,5.29e-4 1,1 0 0 1 -1.00045,-0.99994 1,1 0 0 1 1.00045,-1.00046 h 0.95758 v -0.1788 l 2.04224,-1.17926 2.04277,1.17926 v 2.35851 z m -19.99981,0 -2.04276,-1.17926 v -2.35851 l 2.04276,-1.17926 2.04224,1.17926 v 0.1788 h 0.95758 a 1,1 0 0 1 0.99994,1.00046 1,1 0 0 1 -0.99994,0.99994 1,1 0 0 1 -0.01,-5.29e-4 h -0.94774 v 0.17983 z m 9.9999,-0.85886 c -0.82814,-1.9e-4 -1.49947,-0.6715 -1.49965,-1.49965 -8e-5,-0.82836 0.6713,-1.49998 1.49965,-1.50017 0.82855,-9e-5 1.50025,0.67161 1.50017,1.50017 -1.9e-4,0.82836 -0.67181,1.49974 -1.50017,1.49965 z"
       style="fill:none;stroke:#000000;stroke-width:0.1;stroke-miterlimit:4;stroke-dasharray:none;stroke-opacity:1" />
    <path
       id="path1715"
       d="m 98.00041,75.99991 v -9.9999 h -8.00002 v 2.99982 h -2.4996 v -2.99982 h -7.00008 v 2.99982 h -2.5001 v -2.99982 h -8.00005 v 9.9999 h 8.00005 v -2.99982 h 2.5001 v 2.99982 h 7.00008 v -2.99982 h 2.4996 v 2.99982 z M 84.00075,72.49987 c -0.82814,-1.9e-4 -1.49947,-0.67151 -1.49966,-1.49965 -8e-5,-0.82836 0.6713,-1.49998 1.49966,-1.50017 0.82854,-9e-5 1.50024,0.67161 1.50016,1.50017 -1.8e-4,0.82836 -0.6718,1.49974 -1.50016,1.49965 z m 9.9999,-0.50023 a 1,1 0 0 1 -0.99994,-0.99994 1,1 0 0 1 0.99994,-0.99994 1,1 0 0 1 0.99994,0.99994 1,1 0 0 1 -0.99994,0.99994 z m -2.99982,0 a 1,1 0 0 1 -1.00044,-0.99994 1,1 0 0 1 1.00044,-0.99994 1,1 0 0 1 0.99994,0.99994 1,1 0 0 1 -0.99994,0.99994 z m -14.00016,0 a 1,1 0 0 1 -0.99994,-0.99994 1,1 0 0 1 0.99994,-0.99994 1,1 0 0 1 0.99994,0.99994 1,1 0 0 1 -0.99994,0.99994 z m -2.99982,0 a 1,1 0 0 1 -1.00047,-0.99994 1,1 0 0 1 1.00047,-0.99994 1,1 0 0 1 0.99994,0.99994 1,1 0 0 1 -0.99994,0.99994 z"
       style="fill:none;stroke:#000000;stroke-width:0.1;stroke-miterlimit:4;stroke-dasharray:none;stroke-opacity:1" />
    <path
       id="path1717"
       d="m 55.00029,79.00001 h 2.5001 v 5.49994 h 9.9999 v -5.49994 h 2.5001 V 62.00003 h -2.5001 v -5.50045 h -9.9999 v 5.50045 h -2.5001 z m 2.5001,-2.5001 V 64.49962 h 2.99982 v 3.00033 h 3.99975 v -3.00034 h 3.00033 v 12.0003 h -3.00032 v -3.00034 h -3.99976 v 3.00034 z m 3.99975,3.99976 a 1,1 0 0 1 0.99994,-0.99994 1,1 0 0 1 0.99994,0.99994 1,1 0 0 1 -0.99994,0.99994 1,1 0 0 1 -0.99994,-0.99994 z m 0,-19.99981 a 1,1 0 0 1 0.99994,-1.00046 1,1 0 0 1 0.99994,1.00046 1,1 0 0 1 -0.99994,0.99993 1,1 0 0 1 -0.99994,-0.99993 z"
       style="fill:none;stroke:#000000;stroke-width:0.1;stroke-miterlimit:4;stroke-dasharray:none;stroke-opacity:1" />
    <path
       style="fill:none;stroke:#000000;stroke-width:0.1;stroke-miterlimit:4;stroke-dasharray:none;stroke-opacity:1"
       d="m 98.00039,65.99991 v -9.9999 h -8.00002 v 2.99982 h -2.49959 v -2.99982 h -7.00009 v 2.99982 h -2.5001 v -2.99982 h -8.00004 v 9.9999 h 8.00004 V 63.0001 h 2.5001 v 2.99981 h 7.00009 V 63.0001 h 2.49959 v 2.99981 z M 84.00073,62.49987 c -0.82814,-1.9e-4 -1.49947,-0.6715 -1.49965,-1.49965 -8e-5,-0.82836 0.6713,-1.49998 1.49965,-1.50017 0.82855,-9e-5 1.50025,0.67161 1.50017,1.50017 -1.9e-4,0.82836 -0.67181,1.49974 -1.50017,1.49965 z m 9.99991,-0.50023 a 1,1 0 0 1 -0.99994,-0.99994 1,1 0 0 1 0.99994,-0.99994 1,1 0 0 1 0.99994,0.99994 1,1 0 0 1 -0.99994,0.99994 z m -2.99982,0 a 1,1 0 0 1 -1.00045,-0.99994 1,1 0 0 1 1.00045,-0.99994 1,1 0 0 1 0.99994,0.99994 1,1 0 0 1 -0.99994,0.99994 z m -14.00017,0 a 1,1 0 0 1 -0.99994,-0.99994 1,1 0 0 1 0.99994,-0.99994 1,1 0 0 1 0.99994,0.99994 1,1 0 0 1 -0.99994,0.99994 z m -2.99982,0 a 1,1 0 0 1 -1.00046,-0.99994 1,1 0 0 1 1.00046,-0.99994 1,1 0 0 1 0.99994,0.99994 1,1 0 0 1 -0.99994,0.99994 z"
       id="path1719" />
    <path
       id="path1721"
       d="M 110.00039,85.00001 V 56.00024 h -1.99988 v -3.00035 h 1.99988 V 35.99991 H 98.00008 v 16.99998 h 2.00041 v 3.00035 h -2.00041 v 28.99977 z m -4.49998,-4.00027 h -2.99982 v -3.50005 h -2.00041 v -8.99996 h 7.00011 v 8.99996 h -1.99988 z m 1.24952,-14.9996 a 1,1 0 0 1 -0.99994,-1.00047 1,1 0 0 1 0.99994,-0.99994 1,1 0 0 1 1.00047,0.99994 1,1 0 0 1 -1.00047,1.00047 z m -5.49992,0 a 1,1 0 0 1 -0.99994,-1.00047 1,1 0 0 1 0.99994,-0.99994 1,1 0 0 1 0.99994,0.99994 1,1 0 0 1 -0.99994,1.00047 z m 6.50039,-22.99962 a 1,1 0 0 1 -0.99994,-1.00047 1,1 0 0 1 0.99994,-0.99994 1,1 0 0 1 0.99994,0.99994 1,1 0 0 1 -0.99994,1.00047 z m -7.4998,0 a 1,1 0 0 1 -0.99994,-1.00047 1,1 0 0 1 0.99994,-0.99994 1,1 0 0 1 0.99994,0.99994 1,1 0 0 1 -0.99994,1.00047 z m 7.4998,-4.00029 a 1,1 0 0 1 -0.99994,-0.99994 1,1 0 0 1 0.99994,-0.99994 1,1 0 0 1 0.99994,0.99994 1,1 0 0 1 -0.99994,0.99994 z m -7.4998,0 a 1,1 0 0 1 -0.99994,-0.99994 1,1 0 0 1 0.99994,-0.99994 1,1 0 0 1 0.99994,0.99994 1,1 0 0 1 -0.99994,0.99994 z"
       style="fill:none;stroke:#000000;stroke-width:0.1;stroke-miterlimit:4;stroke-dasharray:none;stroke-opacity:1" />
    <path
       style="fill:none;stroke:#000000;stroke-width:0.1;stroke-miterlimit:4;stroke-dasharray:none;stroke-opacity:1"
       d="m 110.00039,50.00001 v 2.99982 h 3.99976 v 3.00032 h -4.00285 l 5.3e-4,0.49972 a 1.5,1.5 0 0 1 0.003,0 1.5,1.5 0 0 1 1.49966,1.50016 1.5,1.5 0 0 1 -1.49956,1.50016 v 0.49972 h 4.00025 v 2.99982 h -3.99975 v 3.00032 h 6.99855 v -4.49998 h 4.00029 c 1.38499,3e-5 2.49957,-1.11509 2.49957,-2.5001 v -1.99988 c 0,-1.38499 -1.11458,-2.50009 -2.49957,-2.50009 h -4.00029 v -4.49998 z m 9.9994,7.00008 c 0.55246,-2.4e-4 1.00041,0.44749 1.00047,0.99994 -6e-5,0.55241 -0.44805,1.0002 -1.00047,0.99994 -0.55224,-3e-5 -0.99989,-0.44773 -0.99994,-0.99994 3e-5,-0.55224 0.4477,-0.99991 0.99994,-0.99994 z"
       id="path1723" />
    <path
       style="fill:none;stroke:#000000;stroke-width:0.1;stroke-miterlimit:4;stroke-dasharray:none;stroke-opacity:1"
       d="m 117.00047,85.00001 v -4.49998 h 4.00029 c 1.38502,-2e-5 2.49957,-1.11508 2.49957,-2.5001 v -1.99988 c 0,-1.38501 -1.11455,-2.50013 -2.49957,-2.5001 h -4.00029 v -4.49998 h -6.99955 v 2.99982 h 3.99976 v 3.00032 h -4.00029 v 0.49972 a 1.5,1.5 0 0 1 1.49966,1.50016 1.5,1.5 0 0 1 -1.49759,1.50016 l 5.3e-4,0.49972 h 3.99716 v 2.99982 h -3.99976 v 3.00032 z m 2.99982,-7.00008 c -0.55221,-3e-5 -0.99988,-0.4477 -0.99994,-0.99994 6e-5,-0.55224 0.4477,-0.99991 0.99994,-0.99994 0.55245,-2.6e-4 1.00044,0.44749 1.00047,0.99994 -5e-5,0.55242 -0.44802,1.00018 -1.00047,0.99994 z"
       id="path1725" />
    <path
       style="fill:none;stroke:#000000;stroke-width:0.1;stroke-miterlimit:4;stroke-dasharray:none;stroke-opacity:1"
       d="m 44.49974,46.96288 a 10,10 0 0 0 7.00009,9.51725 v 3.4825 h 6.00016 v -3.46284 a 10,10 0 0 0 6.99956,-9.53691 10,10 0 0 0 -6.99956,-9.51672 v -3.4835 H 51.49983 V 37.426 a 10,10 0 0 0 -7.00009,9.53688 z m 5.00021,5.99964 V 40.96274 h 2.99982 v 4.11758 a 2.7500001,2.7500001 0 0 1 1.99987,-0.86765 2.7500001,2.7500001 0 0 1 1.99988,0.86506 v -4.11499 h 3.00032 v 11.99978 h -3.00032 v -4.11705 a 2.7500001,2.7500001 0 0 1 -1.99988,0.86765 2.7500001,2.7500001 0 0 1 -1.99987,-0.86508 v 4.11448 z m 4.00028,4.00029 a 1,1 0 0 1 0.99994,-0.99994 1,1 0 0 1 0.99994,0.99994 1,1 0 0 1 -0.99994,0.99994 1,1 0 0 1 -0.99994,-0.99994 z m 0,-19.99983 a 1,1 0 0 1 0.99994,-1.00044 1,1 0 0 1 0.99994,1.00044 1,1 0 0 1 -0.99994,0.99994 1,1 0 0 1 -0.99994,-0.99994 z"
       id="path1727" />
    <path
       style="fill:none;stroke:#000000;stroke-width:0.1;stroke-miterlimit:4;stroke-dasharray:none;stroke-opacity:1"
       d="m 92.99941,55.99979 v -4.49998 h 2.00038 c 1.38499,0 2.4996,-1.11511 2.4996,-2.5001 v -1.99988 c 0,-1.38501 -1.11461,-2.50013 -2.4996,-2.5001 H 92.99941 V 39.99975 H 74.99999 v 4.49998 h -2.00041 c -1.38499,-3e-5 -2.49957,1.11509 -2.49957,2.5001 v 1.99988 c 0,1.38499 1.11458,2.5001 2.49957,2.5001 h 2.00041 v 4.49998 z M 89.99959,52.99997 H 77.99981 v -3.00032 h 11.99978 z m -5.99964,-3.50004 a 1.5,1.5 0 0 1 -1.50016,-1.50016 1.5,1.5 0 0 1 1.50016,-1.50016 1.5,1.5 0 0 1 1.49966,1.50016 1.5,1.5 0 0 1 -1.49966,1.50016 z m 9.9994,-0.50022 c -0.55224,-3e-5 -0.99991,-0.4477 -0.99994,-0.99994 5e-5,-0.55221 0.4477,-0.99991 0.99994,-0.99994 0.5524,-2.6e-4 1.00039,0.44752 1.00044,0.99994 -5e-5,0.55245 -0.44799,1.00018 -1.00044,0.99994 z m -19.9993,0 c -0.55245,2.4e-4 -1.00042,-0.44749 -1.00047,-0.99994 5e-5,-0.55242 0.44805,-1.0002 1.00047,-0.99994 0.55224,3e-5 0.99989,0.44773 0.99994,0.99994 -3e-5,0.55224 -0.4477,0.99991 -0.99994,0.99994 z M 90.00062,45.99989 H 77.99825 v -2.99982 h 12.00237 z"
       id="path1729" />
  </g>
</svg>
